<?xml version="1.0" encoding="UTF-8" standalone="no"?>
<svg
   width="432pt"
   height="288pt"
   viewBox="0 0 432 288"
   version="1.1"
   id="svg122"
   sodipodi:docname="aut_vs_bern_vs_perm.svg"
   inkscape:version="1.4 (e7c3feb100, 2024-10-09)"
   xmlns:inkscape="http://www.inkscape.org/namespaces/inkscape"
   xmlns:sodipodi="http://sodipodi.sourceforge.net/DTD/sodipodi-0.dtd"
   xmlns:xlink="http://www.w3.org/1999/xlink"
   xmlns="http://www.w3.org/2000/svg"
   xmlns:svg="http://www.w3.org/2000/svg"
   xmlns:rdf="http://www.w3.org/1999/02/22-rdf-syntax-ns#"
   xmlns:cc="http://creativecommons.org/ns#"
   xmlns:dc="http://purl.org/dc/elements/1.1/">
  <sodipodi:namedview
     id="namedview122"
     pagecolor="#ffffff"
     bordercolor="#000000"
     borderopacity="0.25"
     inkscape:showpageshadow="2"
     inkscape:pageopacity="0.0"
     inkscape:pagecheckerboard="0"
     inkscape:deskcolor="#d1d1d1"
     inkscape:document-units="pt"
     inkscape:zoom="1.3957993"
     inkscape:cx="148.66034"
     inkscape:cy="139.34668"
     inkscape:window-width="1916"
     inkscape:window-height="1046"
     inkscape:window-x="0"
     inkscape:window-y="0"
     inkscape:window-maximized="0"
     inkscape:current-layer="legend_1" />
  <metadata
     id="metadata1">
    <rdf:RDF>
      <cc:Work>
        <dc:type
           rdf:resource="http://purl.org/dc/dcmitype/StillImage" />
        <dc:date>2025-03-02T22:09:27.536025</dc:date>
        <dc:format>image/svg+xml</dc:format>
        <dc:creator>
          <cc:Agent>
            <dc:title>Matplotlib v3.9.2, https://matplotlib.org/</dc:title>
          </cc:Agent>
        </dc:creator>
      </cc:Work>
    </rdf:RDF>
  </metadata>
  <defs
     id="defs1">
    <style
       type="text/css"
       id="style1">*{stroke-linejoin: round; stroke-linecap: butt}</style>
  </defs>
  <g
     id="figure_1">
    <g
       id="patch_1">
      <path
         d="M 0 288  L 432 288  L 432 0  L 0 0  z "
         style="fill: #ffffff"
         id="path1" />
    </g>
    <g
       id="axes_1">
      <g
         id="patch_2">
        <path
           d="M 42.160588 250.965354  L 429.165354 250.965354  L 429.165354 2.834646  L 42.160588 2.834646  z "
           style="fill: #ffffff"
           id="path2" />
      </g>
      <g
         id="line2d_1">
        <path
           d="M 42.160588 243.942787  L 42.160588 11.306821  L 47.74577 11.306821  L 47.74577 243.942787  L 70.0865 243.892  L 70.0865 243.766986  L 75.671683 243.766986  L 75.671683 243.651738  L 81.256865 243.651738  L 81.256865 243.372409  L 86.842047 243.372409  L 86.842047 243.171215  L 92.42723 243.171215  L 92.42723 242.884072  L 98.012412 242.884072  L 98.012412 242.56763  L 103.597595 242.56763  L 103.597595 242.317601  L 114.76796 242.309788  L 114.76796 242.120313  L 120.353142 242.120313  L 120.353142 240.706089  L 125.938324 240.706089  L 125.938324 241.813637  L 131.523507 241.813637  L 131.523507 240.43848  L 137.108689 240.43848  L 137.108689 241.368274  L 142.693872 241.368274  L 142.693872 242.20626  L 148.279054 242.20626  L 148.279054 232.332085  L 153.864237 232.332085  L 153.864237 241.872238  L 159.449419 241.872238  L 159.449419 241.178799  L 165.034601 241.178799  L 165.034601 241.590956  L 170.619784 241.590956  L 170.619784 241.876145  L 176.204966 241.876145  L 176.204966 237.83076  L 181.790149 237.83076  L 181.790149 241.71597  L 187.375331 241.71597  L 187.375331 241.424921  L 192.960513 241.424921  L 192.960513 242.065619  L 198.545696 242.065619  L 198.545696 242.510983  L 204.130878 242.510983  L 204.130878 242.983693  L 209.716061 242.983693  L 209.716061 243.499377  L 215.301243 243.499377  L 215.301243 160.710617  L 220.886426 160.710617  L 220.886426 243.530631  L 226.471608 243.530631  L 226.471608 243.061827  L 232.05679 243.061827  L 232.05679 242.432849  L 237.641973 242.432849  L 237.641973 242.216027  L 248.812338 242.186727  L 248.812338 240.872124  L 254.39752 240.872124  L 254.39752 241.65737  L 259.982703 241.65737  L 259.982703 240.40332  L 265.567885 240.40332  L 265.567885 241.184659  L 271.153067 241.184659  L 271.153067 241.74527  L 276.73825 241.74527  L 276.73825 242.180867  L 282.323432 242.180867  L 282.323432 242.833285  L 287.908615 242.833285  L 287.908615 213.822157  L 293.493797 213.822157  L 293.493797 242.807892  L 299.078979 242.807892  L 299.078979 242.157427  L 304.664162 242.157427  L 304.664162 241.942558  L 321.419709 241.950372  L 321.419709 232.123077  L 327.004892 232.123077  L 327.004892 242.645764  L 332.590074 242.645764  L 332.590074 242.104686  L 343.760439 242.116406  L 343.760439 235.557063  L 349.345621 235.557063  L 349.345621 242.364482  L 354.930804 242.364482  L 354.930804 241.012765  L 360.515986 241.012765  L 360.515986 242.425035  L 366.101169 242.425035  L 366.101169 238.512479  L 371.686351 238.512479  L 371.686351 240.961978  L 377.271533 240.961978  L 377.271533 240.819383  L 382.856716 240.819383  L 382.856716 242.440662  L 388.441898 242.440662  L 388.441898 240.231425  L 394.027081 240.231425  L 394.027081 242.303928  L 399.612263 242.303928  L 399.612263 241.71597  L 405.197446 241.71597  L 405.197446 241.483522  L 410.782628 241.483522  L 410.782628 241.971859  L 421.952993 242.014832  L 421.952993 242.102733  L 433 242.190634  L 433 242.190634  "
           clip-path="url(#p28470ac3fe)"
           style="fill: none; stroke: #4c72b0; stroke-width: 2"
           id="path3" />
      </g>
      <g
         id="matplotlib.axis_1">
        <g
           id="xtick_1">
          <g
             id="line2d_2">
            <defs
               id="defs3">
              <path
                 id="mbda9b49141"
                 d="M 0 0  L 0 -2.5  "
                 style="stroke: #000000; stroke-width: 0.5" />
            </defs>
            <g
               id="g3">
              <use
                 xlink:href="#mbda9b49141"
                 x="42.160588"
                 y="250.965354"
                 style="stroke: #000000; stroke-width: 0.5"
                 id="use3" />
            </g>
          </g>
          <g
             id="line2d_3">
            <defs
               id="defs4">
              <path
                 id="mcfdce28e1c"
                 d="M 0 0  L 0 2.5  "
                 style="stroke: #000000; stroke-width: 0.5" />
            </defs>
            <g
               id="g4">
              <use
                 xlink:href="#mcfdce28e1c"
                 x="42.160588"
                 y="2.834646"
                 style="stroke: #000000; stroke-width: 0.5"
                 id="use4" />
            </g>
          </g>
          <g
             id="text_1">
            <!-- $0.0$ -->
            <g
               transform="translate(34.160588 262.063792) scale(0.1 -0.1)"
               id="g7">
              <defs
                 id="defs5">
                <path
                   id="DejaVuSerif-30"
                   d="M 2034 219  Q 2513 219 2750 744  Q 2988 1269 2988 2328  Q 2988 3391 2750 3916  Q 2513 4441 2034 4441  Q 1556 4441 1318 3916  Q 1081 3391 1081 2328  Q 1081 1269 1318 744  Q 1556 219 2034 219  z M 2034 -91  Q 1275 -91 848 546  Q 422 1184 422 2328  Q 422 3475 848 4112  Q 1275 4750 2034 4750  Q 2797 4750 3222 4112  Q 3647 3475 3647 2328  Q 3647 1184 3222 546  Q 2797 -91 2034 -91  z "
                   transform="scale(0.015625)" />
                <path
                   id="DejaVuSerif-2e"
                   d="M 603 325  Q 603 500 722 622  Q 841 744 1019 744  Q 1191 744 1312 622  Q 1434 500 1434 325  Q 1434 153 1312 31  Q 1191 -91 1019 -91  Q 841 -91 722 29  Q 603 150 603 325  z "
                   transform="scale(0.015625)" />
              </defs>
              <use
                 xlink:href="#DejaVuSerif-30"
                 transform="translate(0 0.78125)"
                 id="use5" />
              <use
                 xlink:href="#DejaVuSerif-2e"
                 transform="translate(63.623047 0.78125)"
                 id="use6" />
              <use
                 xlink:href="#DejaVuSerif-30"
                 transform="translate(95.410156 0.78125)"
                 id="use7" />
            </g>
          </g>
        </g>
        <g
           id="xtick_2">
          <g
             id="line2d_4">
            <g
               id="g8">
              <use
                 xlink:href="#mbda9b49141"
                 x="130.116217"
                 y="250.965354"
                 style="stroke: #000000; stroke-width: 0.5"
                 id="use8" />
            </g>
          </g>
          <g
             id="line2d_5">
            <g
               id="g9">
              <use
                 xlink:href="#mcfdce28e1c"
                 x="130.116217"
                 y="2.834646"
                 style="stroke: #000000; stroke-width: 0.5"
                 id="use9" />
            </g>
          </g>
          <g
             id="text_2">
            <!-- $0.5$ -->
            <g
               transform="translate(122.116217 262.063792) scale(0.1 -0.1)"
               id="g12">
              <defs
                 id="defs9">
                <path
                   id="DejaVuSerif-35"
                   d="M 3219 4666  L 3219 4153  L 1081 4153  L 1081 2816  Q 1244 2928 1461 2984  Q 1678 3041 1947 3041  Q 2703 3041 3140 2622  Q 3578 2203 3578 1478  Q 3578 738 3136 323  Q 2694 -91 1894 -91  Q 1572 -91 1234 -12  Q 897 66 544 225  L 544 1131  L 897 1131  Q 925 688 1179 453  Q 1434 219 1894 219  Q 2388 219 2653 544  Q 2919 869 2919 1478  Q 2919 2084 2655 2407  Q 2391 2731 1894 2731  Q 1613 2731 1398 2631  Q 1184 2531 1019 2322  L 750 2322  L 750 4666  L 3219 4666  z "
                   transform="scale(0.015625)" />
              </defs>
              <use
                 xlink:href="#DejaVuSerif-30"
                 transform="translate(0 0.78125)"
                 id="use10" />
              <use
                 xlink:href="#DejaVuSerif-2e"
                 transform="translate(63.623047 0.78125)"
                 id="use11" />
              <use
                 xlink:href="#DejaVuSerif-35"
                 transform="translate(95.410156 0.78125)"
                 id="use12" />
            </g>
          </g>
        </g>
        <g
           id="xtick_3">
          <g
             id="line2d_6">
            <g
               id="g13">
              <use
                 xlink:href="#mbda9b49141"
                 x="218.071845"
                 y="250.965354"
                 style="stroke: #000000; stroke-width: 0.5"
                 id="use13" />
            </g>
          </g>
          <g
             id="line2d_7">
            <g
               id="g14">
              <use
                 xlink:href="#mcfdce28e1c"
                 x="218.071845"
                 y="2.834646"
                 style="stroke: #000000; stroke-width: 0.5"
                 id="use14" />
            </g>
          </g>
          <g
             id="text_3">
            <!-- $1.0$ -->
            <g
               transform="translate(210.071845 262.063792) scale(0.1 -0.1)"
               id="g17">
              <defs
                 id="defs14">
                <path
                   id="DejaVuSerif-31"
                   d="M 909 0  L 909 331  L 1722 331  L 1722 4213  L 781 3603  L 781 4013  L 1919 4750  L 2350 4750  L 2350 331  L 3163 331  L 3163 0  L 909 0  z "
                   transform="scale(0.015625)" />
              </defs>
              <use
                 xlink:href="#DejaVuSerif-31"
                 transform="translate(0 0.78125)"
                 id="use15" />
              <use
                 xlink:href="#DejaVuSerif-2e"
                 transform="translate(63.623047 0.78125)"
                 id="use16" />
              <use
                 xlink:href="#DejaVuSerif-30"
                 transform="translate(95.410156 0.78125)"
                 id="use17" />
            </g>
          </g>
        </g>
        <g
           id="xtick_4">
          <g
             id="line2d_8">
            <g
               id="g18">
              <use
                 xlink:href="#mbda9b49141"
                 x="306.027474"
                 y="250.965354"
                 style="stroke: #000000; stroke-width: 0.5"
                 id="use18" />
            </g>
          </g>
          <g
             id="line2d_9">
            <g
               id="g19">
              <use
                 xlink:href="#mcfdce28e1c"
                 x="306.027474"
                 y="2.834646"
                 style="stroke: #000000; stroke-width: 0.5"
                 id="use19" />
            </g>
          </g>
          <g
             id="text_4">
            <!-- $1.5$ -->
            <g
               transform="translate(298.027474 262.063792) scale(0.1 -0.1)"
               id="g22">
              <use
                 xlink:href="#DejaVuSerif-31"
                 transform="translate(0 0.78125)"
                 id="use20" />
              <use
                 xlink:href="#DejaVuSerif-2e"
                 transform="translate(63.623047 0.78125)"
                 id="use21" />
              <use
                 xlink:href="#DejaVuSerif-35"
                 transform="translate(95.410156 0.78125)"
                 id="use22" />
            </g>
          </g>
        </g>
        <g
           id="xtick_5">
          <g
             id="line2d_10">
            <g
               id="g23">
              <use
                 xlink:href="#mbda9b49141"
                 x="393.983103"
                 y="250.965354"
                 style="stroke: #000000; stroke-width: 0.5"
                 id="use23" />
            </g>
          </g>
          <g
             id="line2d_11">
            <g
               id="g24">
              <use
                 xlink:href="#mcfdce28e1c"
                 x="393.983103"
                 y="2.834646"
                 style="stroke: #000000; stroke-width: 0.5"
                 id="use24" />
            </g>
          </g>
          <g
             id="text_5">
            <!-- $2.0$ -->
            <g
               transform="translate(385.983103 262.063792) scale(0.1 -0.1)"
               id="g27">
              <defs
                 id="defs24">
                <path
                   id="DejaVuSerif-32"
                   d="M 819 3553  L 469 3553  L 469 4384  Q 803 4563 1142 4656  Q 1481 4750 1806 4750  Q 2534 4750 2956 4397  Q 3378 4044 3378 3438  Q 3378 2753 2422 1800  Q 2347 1728 2309 1691  L 1131 513  L 3078 513  L 3078 1088  L 3444 1088  L 3444 0  L 434 0  L 434 341  L 1850 1753  Q 2319 2222 2519 2614  Q 2719 3006 2719 3438  Q 2719 3909 2473 4175  Q 2228 4441 1797 4441  Q 1350 4441 1106 4219  Q 863 3997 819 3553  z "
                   transform="scale(0.015625)" />
              </defs>
              <use
                 xlink:href="#DejaVuSerif-32"
                 transform="translate(0 0.78125)"
                 id="use25" />
              <use
                 xlink:href="#DejaVuSerif-2e"
                 transform="translate(63.623047 0.78125)"
                 id="use26" />
              <use
                 xlink:href="#DejaVuSerif-30"
                 transform="translate(95.410156 0.78125)"
                 id="use27" />
            </g>
          </g>
        </g>
        <g
           id="text_6">
          <!-- $\sqrt{\lambda}$ -->
          <g
             transform="translate(226.602971 279.327854) scale(0.12 -0.12)"
             id="g29">
            <defs
               id="defs27">
              <path
                 id="STIXSizeOneSym-Regular-221a"
                 d="M 6970 9933  L 3373 -1888  L 3104 -1888  L 1626 2918  Q 1555 3149 1465 3251  Q 1376 3354 1229 3354  Q 1011 3354 794 3181  L 717 3309  L 1766 4115  L 1926 4115  L 3379 -602  L 3405 -602  L 6605 9933  L 6970 9933  z "
                 transform="scale(0.015625)" />
              <path
                 id="DejaVuSerif-Italic-3bb"
                 d="M 1984 4084  Q 1925 4372 1834 4466  Q 1744 4563 1578 4563  Q 1391 4563 1288 4472  Q 1178 4378 1119 4166  L 825 4166  L 947 4800  Q 1113 4847 1272 4872  Q 1431 4897 1578 4897  Q 1925 4897 2088 4753  Q 2253 4613 2334 4225  L 3100 334  L 3472 334  L 3406 0  L 2159 0  L 2225 334  L 2722 334  L 2281 2628  L 853 334  L 1384 334  L 1319 0  L -209 0  L -144 334  L 234 334  L 2116 3388  L 1984 4084  z "
                 transform="scale(0.015625)" />
            </defs>
            <use
               xlink:href="#STIXSizeOneSym-Regular-221a"
               transform="translate(0 17.984375) scale(0.583453)"
               id="use28" />
            <use
               xlink:href="#DejaVuSerif-Italic-3bb"
               transform="translate(74.202362 1.234375)"
               id="use29" />
            <path
               d="M 61.702362 101.5  L 61.702362 107.75  L 150.081268 107.75  L 150.081268 101.5  L 61.702362 101.5  z "
               id="path29" />
          </g>
        </g>
      </g>
      <g
         id="matplotlib.axis_2">
        <g
           id="ytick_1">
          <g
             id="line2d_12">
            <defs
               id="defs29">
              <path
                 id="mfc7c05a85d"
                 d="M 0 0  L 2.5 0  "
                 style="stroke: #000000; stroke-width: 0.5" />
            </defs>
            <g
               id="g30">
              <use
                 xlink:href="#mfc7c05a85d"
                 x="42.160588"
                 y="243.942787"
                 style="stroke: #000000; stroke-width: 0.5"
                 id="use30" />
            </g>
          </g>
          <g
             id="line2d_13">
            <defs
               id="defs30">
              <path
                 id="md302557786"
                 d="M 0 0  L -2.5 0  "
                 style="stroke: #000000; stroke-width: 0.5" />
            </defs>
            <g
               id="g31">
              <use
                 xlink:href="#md302557786"
                 x="429.165354"
                 y="243.942787"
                 style="stroke: #000000; stroke-width: 0.5"
                 id="use31" />
            </g>
          </g>
          <g
             id="text_7">
            <!-- $0$ -->
            <g
               transform="translate(32.260588 247.742006) scale(0.1 -0.1)"
               id="g32">
              <use
                 xlink:href="#DejaVuSerif-30"
                 transform="translate(0 0.78125)"
                 id="use32" />
            </g>
          </g>
        </g>
        <g
           id="ytick_2">
          <g
             id="line2d_14">
            <g
               id="g33">
              <use
                 xlink:href="#mfc7c05a85d"
                 x="42.160588"
                 y="195.172561"
                 style="stroke: #000000; stroke-width: 0.5"
                 id="use33" />
            </g>
          </g>
          <g
             id="line2d_15">
            <g
               id="g34">
              <use
                 xlink:href="#md302557786"
                 x="429.165354"
                 y="195.172561"
                 style="stroke: #000000; stroke-width: 0.5"
                 id="use34" />
            </g>
          </g>
          <g
             id="text_8">
            <!-- $3$ -->
            <g
               transform="translate(32.260588 198.97178) scale(0.1 -0.1)"
               id="g35">
              <defs
                 id="defs34">
                <path
                   id="DejaVuSerif-33"
                   d="M 622 4469  Q 988 4606 1323 4678  Q 1659 4750 1953 4750  Q 2638 4750 3022 4454  Q 3406 4159 3406 3634  Q 3406 3213 3140 2930  Q 2875 2647 2388 2547  Q 2963 2466 3280 2130  Q 3597 1794 3597 1259  Q 3597 606 3158 257  Q 2719 -91 1894 -91  Q 1528 -91 1179 -12  Q 831 66 488 225  L 488 1131  L 838 1131  Q 869 681 1141 450  Q 1413 219 1906 219  Q 2384 219 2661 495  Q 2938 772 2938 1253  Q 2938 1803 2653 2086  Q 2369 2369 1819 2369  L 1522 2369  L 1522 2688  L 1678 2688  Q 2225 2688 2498 2914  Q 2772 3141 2772 3597  Q 2772 4006 2547 4223  Q 2322 4441 1900 4441  Q 1478 4441 1245 4241  Q 1013 4041 972 3647  L 622 3647  L 622 4469  z "
                   transform="scale(0.015625)" />
              </defs>
              <use
                 xlink:href="#DejaVuSerif-33"
                 transform="translate(0 0.78125)"
                 id="use35" />
            </g>
          </g>
        </g>
        <g
           id="ytick_3">
          <g
             id="line2d_16">
            <g
               id="g36">
              <use
                 xlink:href="#mfc7c05a85d"
                 x="42.160588"
                 y="146.402335"
                 style="stroke: #000000; stroke-width: 0.5"
                 id="use36" />
            </g>
          </g>
          <g
             id="line2d_17">
            <g
               id="g37">
              <use
                 xlink:href="#md302557786"
                 x="429.165354"
                 y="146.402335"
                 style="stroke: #000000; stroke-width: 0.5"
                 id="use37" />
            </g>
          </g>
          <g
             id="text_9">
            <!-- $6$ -->
            <g
               transform="translate(32.260588 150.201554) scale(0.1 -0.1)"
               id="g38">
              <defs
                 id="defs37">
                <path
                   id="DejaVuSerif-36"
                   d="M 2094 219  Q 2534 219 2771 542  Q 3009 866 3009 1472  Q 3009 2078 2771 2401  Q 2534 2725 2094 2725  Q 1647 2725 1412 2412  Q 1178 2100 1178 1509  Q 1178 888 1415 553  Q 1653 219 2094 219  z M 1075 2569  Q 1288 2803 1556 2918  Q 1825 3034 2163 3034  Q 2859 3034 3264 2615  Q 3669 2197 3669 1472  Q 3669 763 3233 336  Q 2797 -91 2069 -91  Q 1278 -91 853 498  Q 428 1088 428 2181  Q 428 3406 931 4078  Q 1434 4750 2350 4750  Q 2597 4750 2869 4703  Q 3141 4656 3425 4563  L 3425 3794  L 3072 3794  Q 3034 4109 2831 4275  Q 2628 4441 2284 4441  Q 1678 4441 1381 3981  Q 1084 3522 1075 2569  z "
                   transform="scale(0.015625)" />
              </defs>
              <use
                 xlink:href="#DejaVuSerif-36"
                 transform="translate(0 0.78125)"
                 id="use38" />
            </g>
          </g>
        </g>
        <g
           id="ytick_4">
          <g
             id="line2d_18">
            <g
               id="g39">
              <use
                 xlink:href="#mfc7c05a85d"
                 x="42.160588"
                 y="97.632109"
                 style="stroke: #000000; stroke-width: 0.5"
                 id="use39" />
            </g>
          </g>
          <g
             id="line2d_19">
            <g
               id="g40">
              <use
                 xlink:href="#md302557786"
                 x="429.165354"
                 y="97.632109"
                 style="stroke: #000000; stroke-width: 0.5"
                 id="use40" />
            </g>
          </g>
          <g
             id="text_10">
            <!-- $9$ -->
            <g
               transform="translate(32.260588 101.431328) scale(0.1 -0.1)"
               id="g41">
              <defs
                 id="defs40">
                <path
                   id="DejaVuSerif-39"
                   d="M 2994 2091  Q 2784 1856 2512 1740  Q 2241 1625 1900 1625  Q 1206 1625 804 2044  Q 403 2463 403 3188  Q 403 3897 839 4323  Q 1275 4750 2003 4750  Q 2794 4750 3217 4161  Q 3641 3572 3641 2478  Q 3641 1253 3137 581  Q 2634 -91 1722 -91  Q 1475 -91 1203 -44  Q 931 3 647 97  L 647 872  L 997 872  Q 1038 556 1241 387  Q 1444 219 1784 219  Q 2391 219 2687 676  Q 2984 1134 2994 2091  z M 1978 4441  Q 1534 4441 1298 4117  Q 1063 3794 1063 3188  Q 1063 2581 1298 2256  Q 1534 1931 1978 1931  Q 2422 1931 2658 2245  Q 2894 2559 2894 3150  Q 2894 3772 2656 4106  Q 2419 4441 1978 4441  z "
                   transform="scale(0.015625)" />
              </defs>
              <use
                 xlink:href="#DejaVuSerif-39"
                 transform="translate(0 0.78125)"
                 id="use41" />
            </g>
          </g>
        </g>
        <g
           id="ytick_5">
          <g
             id="line2d_20">
            <g
               id="g42">
              <use
                 xlink:href="#mfc7c05a85d"
                 x="42.160588"
                 y="48.861883"
                 style="stroke: #000000; stroke-width: 0.5"
                 id="use42" />
            </g>
          </g>
          <g
             id="line2d_21">
            <g
               id="g43">
              <use
                 xlink:href="#md302557786"
                 x="429.165354"
                 y="48.861883"
                 style="stroke: #000000; stroke-width: 0.5"
                 id="use43" />
            </g>
          </g>
          <g
             id="text_11">
            <!-- $12$ -->
            <g
               transform="translate(25.860588 52.661102) scale(0.1 -0.1)"
               id="g45">
              <use
                 xlink:href="#DejaVuSerif-31"
                 transform="translate(0 0.78125)"
                 id="use44" />
              <use
                 xlink:href="#DejaVuSerif-32"
                 transform="translate(63.623047 0.78125)"
                 id="use45" />
            </g>
          </g>
        </g>
        <g
           id="text_12">
          <!-- $p(\sqrt{\lambda})$ -->
          <g
             transform="translate(19.340588 144.48) rotate(-90) scale(0.12 -0.12)"
             id="g50">
            <defs
               id="defs45">
              <path
                 id="DejaVuSerif-Italic-70"
                 d="M 1466 1825  L 1400 1497  Q 1353 1250 1353 1053  Q 1353 769 1453 581  Q 1622 269 2059 269  Q 2500 269 2795 622  Q 3091 975 3225 1663  Q 3284 1978 3284 2225  Q 3284 2513 3200 2703  Q 3041 3053 2600 3053  Q 2163 3053 1872 2737  Q 1581 2422 1466 1825  z M 1116 2988  L 563 2988  L 628 3322  L 1756 3322  L 1656 2803  Q 1884 3116 2175 3264  Q 2466 3413 2850 3413  Q 3463 3413 3753 2928  Q 3947 2609 3947 2163  Q 3947 1928 3897 1663  Q 3744 881 3262 395  Q 2781 -91 2169 -91  Q 1784 -91 1551 57  Q 1319 206 1213 519  L 850 -1331  L 275 -1331  L 1116 2988  z "
                 transform="scale(0.015625)" />
              <path
                 id="DejaVuSerif-28"
                 d="M 2041 -997  Q 1281 -656 893 83  Q 506 822 506 1931  Q 506 3044 893 3783  Q 1281 4522 2041 4863  L 2041 4556  Q 1559 4225 1350 3623  Q 1141 3022 1141 1931  Q 1141 844 1350 242  Q 1559 -359 2041 -691  L 2041 -997  z "
                 transform="scale(0.015625)" />
              <path
                 id="DejaVuSerif-29"
                 d="M 453 -997  L 453 -691  Q 934 -359 1145 242  Q 1356 844 1356 1931  Q 1356 3022 1145 3623  Q 934 4225 453 4556  L 453 4863  Q 1216 4522 1603 3783  Q 1991 3044 1991 1931  Q 1991 822 1603 83  Q 1216 -656 453 -997  z "
                 transform="scale(0.015625)" />
            </defs>
            <use
               xlink:href="#DejaVuSerif-Italic-70"
               transform="translate(0 0.875)"
               id="use46" />
            <use
               xlink:href="#DejaVuSerif-28"
               transform="translate(64.013672 0.875)"
               id="use47" />
            <use
               xlink:href="#STIXSizeOneSym-Regular-221a"
               transform="translate(103.027344 17.984375) scale(0.583453)"
               id="use48" />
            <use
               xlink:href="#DejaVuSerif-Italic-3bb"
               transform="translate(177.229706 1.234375)"
               id="use49" />
            <use
               xlink:href="#DejaVuSerif-29"
               transform="translate(253.108612 0.875)"
               id="use50" />
            <path
               d="M 164.729706 101.5  L 164.729706 107.75  L 253.108612 107.75  L 253.108612 101.5  L 164.729706 101.5  z "
               id="path50" />
          </g>
        </g>
      </g>
      <g
         id="line2d_22">
        <path
           d="M 42.160588 243.942787  L 42.160588 9.857213  L 47.74577 9.857213  L 47.74577 243.942787  L 70.0865 243.891998  L 70.0865 243.809955  L 75.671683 243.809955  L 75.671683 243.62438  L 81.256865 243.62438  L 81.256865 243.505222  L 86.842047 243.505222  L 86.842047 243.261045  L 92.42723 243.261045  L 92.42723 242.913337  L 98.012412 242.913337  L 98.012412 242.678927  L 103.597595 242.678927  L 103.597595 242.391775  L 109.182777 242.391775  L 109.182777 242.518747  L 114.76796 242.518747  L 114.76796 242.079229  L 120.353142 242.079229  L 120.353142 240.770441  L 125.938324 240.770441  L 125.938324 242.012813  L 131.523507 242.012813  L 131.523507 240.645422  L 137.108689 240.645422  L 137.108689 241.583061  L 142.693872 241.583061  L 142.693872 242.309732  L 148.279054 242.309732  L 148.279054 232.155879  L 153.864237 232.155879  L 153.864237 241.819425  L 159.449419 241.819425  L 159.449419 241.241214  L 165.034601 241.241214  L 165.034601 241.70222  L 170.619784 241.70222  L 170.619784 242.053834  L 176.204966 242.053834  L 176.204966 237.740693  L 181.790149 237.740693  L 181.790149 241.653384  L 187.375331 241.653384  L 187.375331 241.364279  L 192.960513 241.364279  L 192.960513 242.014766  L 198.545696 242.014766  L 198.545696 242.485539  L 204.130878 242.485539  L 204.130878 243.089145  L 209.716061 243.089145  L 209.716061 243.587266  L 215.301243 243.587266  L 215.301243 161.426616  L 220.886426 161.426616  L 220.886426 243.569685  L 226.471608 243.569685  L 226.471608 243.046169  L 232.05679 243.046169  L 232.05679 242.684788  L 237.641973 242.684788  L 237.641973 242.249176  L 243.227155 242.249176  L 243.227155 242.376148  L 248.812338 242.376148  L 248.812338 240.733326  L 254.39752 240.733326  L 254.39752 241.665105  L 259.982703 241.665105  L 259.982703 240.473521  L 265.567885 240.473521  L 265.567885 241.282235  L 271.153067 241.282235  L 271.153067 241.895608  L 276.73825 241.895608  L 276.73825 242.165179  L 282.323432 242.165179  L 282.323432 242.966079  L 287.908615 242.966079  L 287.908615 211.897008  L 293.493797 211.897008  L 293.493797 242.946545  L 299.078979 242.946545  L 299.078979 242.264803  L 304.664162 242.264803  L 304.664162 242.071415  L 310.249344 242.071415  L 310.249344 241.887794  L 315.834527 241.887794  L 315.834527 242.120251  L 321.419709 242.120251  L 321.419709 231.829659  L 327.004892 231.829659  L 327.004892 242.700415  L 332.590074 242.700415  L 332.590074 242.130018  L 338.175256 242.130018  L 338.175256 242.333173  L 343.760439 242.333173  L 343.760439 235.058654  L 349.345621 235.058654  L 349.345621 242.467959  L 354.930804 242.467959  L 354.930804 240.887646  L 360.515986 240.887646  L 360.515986 242.477726  L 366.101169 242.477726  L 366.101169 238.232954  L 371.686351 238.232954  L 371.686351 240.858344  L 382.856716 240.930621  L 382.856716 242.505073  L 388.441898 242.505073  L 388.441898 239.737084  L 394.027081 239.737084  L 394.027081 242.409356  L 399.612263 242.409356  L 399.612263 241.848726  L 405.197446 241.848726  L 405.197446 241.454136  L 410.782628 241.454136  L 410.782628 242.122204  L 416.36781 242.122204  L 416.36781 241.690499  L 421.952993 241.690499  L 421.952993 242.165179  L 427.538175 242.165179  L 427.538175 242.305825  L 433 242.305825  L 433 242.305825  "
           clip-path="url(#p28470ac3fe)"
           style="fill: none; stroke: #dd8452; stroke-width: 2"
           id="path51" />
      </g>
      <g
         id="patch_3">
        <path
           d="M 42.160588 250.965354  L 42.160588 2.834646  "
           style="fill: none; stroke: #000000; stroke-linejoin: miter; stroke-linecap: square"
           id="path52" />
      </g>
      <g
         id="patch_4">
        <path
           d="M 429.165354 250.965354  L 429.165354 2.834646  "
           style="fill: none; stroke: #000000; stroke-linejoin: miter; stroke-linecap: square"
           id="path53" />
      </g>
      <g
         id="patch_5">
        <path
           d="M 42.160588 250.965354  L 429.165354 250.965354  "
           style="fill: none; stroke: #000000; stroke-linejoin: miter; stroke-linecap: square"
           id="path54" />
      </g>
      <g
         id="patch_6">
        <path
           d="M 42.160588 2.834646  L 429.165354 2.834646  "
           style="fill: none; stroke: #000000; stroke-linejoin: miter; stroke-linecap: square"
           id="path55" />
      </g>
      <g
         id="line2d_23">
        <path
           d="M 42.160588 243.942787  L 42.160588 13.597802  L 47.74577 13.597802  L 47.74577 243.942787  L 70.0865 243.915442  L 70.0865 243.80606  L 75.671683 243.80606  L 75.671683 243.651753  L 81.256865 243.651753  L 81.256865 243.454474  L 86.842047 243.454474  L 86.842047 243.155627  L 92.42723 243.155627  L 92.42723 242.946629  L 98.012412 242.946629  L 98.012412 242.657548  L 103.597595 242.657548  L 103.597595 242.44855  L 109.182777 242.44855  L 109.182777 242.302056  L 114.76796 242.302056  L 114.76796 242.0579  L 120.353142 242.0579  L 120.353142 240.981658  L 125.938324 240.981658  L 125.938324 241.700454  L 131.523507 241.700454  L 131.523507 240.276534  L 137.108689 240.276534  L 137.108689 241.450438  L 142.693872 241.450438  L 142.693872 242.268851  L 148.279054 242.268851  L 148.279054 231.943964  L 153.864237 231.943964  L 153.864237 241.950471  L 159.449419 241.950471  L 159.449419 241.130105  L 165.034601 241.130105  L 165.034601 241.608652  L 170.619784 241.608652  L 170.619784 241.942658  L 176.204966 241.942658  L 176.204966 237.797858  L 181.790149 237.797858  L 181.790149 241.700454  L 187.375331 241.700454  L 187.375331 241.346916  L 192.960513 241.346916  L 192.960513 242.042273  L 198.545696 242.042273  L 198.545696 242.567698  L 204.130878 242.567698  L 204.130878 243.098982  L 209.716061 243.098982  L 209.716061 243.54823  L 215.301243 243.54823  L 215.301243 158.146219  L 220.886426 158.146219  L 220.886426 243.577529  L 226.471608 243.577529  L 226.471608 243.077497  L 232.05679 243.077497  L 232.05679 242.548166  L 237.641973 242.548166  L 237.641973 242.288383  L 248.812338 242.2083  L 248.812338 240.846884  L 254.39752 240.846884  L 254.39752 241.606698  L 259.982703 241.606698  L 259.982703 240.567569  L 265.567885 240.567569  L 265.567885 241.122292  L 271.153067 241.122292  L 271.153067 241.776631  L 276.73825 241.776631  L 276.73825 242.141889  L 282.323432 242.141889  L 282.323432 242.85092  L 287.908615 242.85092  L 287.908615 212.858744  L 293.493797 212.858744  L 293.493797 243.06773  L 299.078979 243.06773  L 299.078979 242.145796  L 304.664162 242.145796  L 304.664162 241.940704  L 321.419709 242.009068  L 321.419709 231.777937  L 327.004892 231.777937  L 327.004892 242.61067  L 332.590074 242.61067  L 332.590074 242.061806  L 338.175256 242.061806  L 338.175256 242.276664  L 343.760439 242.276664  L 343.760439 235.467629  L 349.345621 235.467629  L 349.345621 242.37042  L 354.930804 242.37042  L 354.930804 241.147684  L 360.515986 241.147684  L 360.515986 242.647781  L 366.101169 242.647781  L 366.101169 238.329143  L 371.686351 238.329143  L 371.686351 240.864463  L 377.271533 240.864463  L 377.271533 240.657418  L 382.856716 240.657418  L 382.856716 242.423158  L 388.441898 242.423158  L 388.441898 239.827286  L 394.027081 239.827286  L 394.027081 242.229786  L 399.612263 242.229786  L 399.612263 241.829369  L 405.197446 241.829369  L 405.197446 241.428953  L 410.782628 241.428953  L 410.782628 241.893826  L 421.952993 241.991489  L 421.952993 242.147749  L 427.538175 242.147749  L 427.538175 242.284477  L 433 242.284477  L 433 242.284477  "
           clip-path="url(#p28470ac3fe)"
           style="fill: none; stroke: #55a868; stroke-width: 2"
           id="path56" />
      </g>
      <g
         id="line2d_24">
        <path
           d="M 42.160588 243.942787  L 42.160588 13.182255  L 47.74577 13.182255  L 47.74577 243.942787  L 75.671683 243.942787  L 75.671683 242.942741  L 81.256865 242.942741  L 81.256865 243.692776  L 86.842047 243.692776  L 86.842047 243.442764  L 92.42723 243.442764  L 92.42723 242.567724  L 98.012412 242.567724  L 98.012412 242.817736  L 103.597595 242.817736  L 103.597595 241.81769  L 109.182777 241.81769  L 109.182777 242.69273  L 120.353142 242.69273  L 120.353142 241.067656  L 125.938324 241.067656  L 125.938324 242.442719  L 131.523507 242.442719  L 131.523507 241.567679  L 142.693872 241.567679  L 142.693872 242.442719  L 148.279054 242.442719  L 148.279054 230.942194  L 153.864237 230.942194  L 153.864237 242.067702  L 159.449419 242.067702  L 159.449419 240.192616  L 165.034601 240.192616  L 165.034601 241.81769  L 170.619784 241.81769  L 170.619784 241.067656  L 176.204966 241.067656  L 176.204966 236.317439  L 181.790149 236.317439  L 181.790149 242.817736  L 187.375331 242.817736  L 187.375331 240.817644  L 192.960513 240.817644  L 192.960513 242.317713  L 198.545696 242.317713  L 198.545696 243.192753  L 204.130878 243.192753  L 204.130878 243.317759  L 209.716061 243.317759  L 209.716061 243.692776  L 215.301243 243.692776  L 215.301243 155.93877  L 220.886426 155.93877  L 220.886426 243.442764  L 226.471608 243.442764  L 226.471608 243.317759  L 232.05679 243.317759  L 232.05679 242.942741  L 237.641973 242.942741  L 237.641973 242.192707  L 243.227155 242.192707  L 243.227155 242.317713  L 248.812338 242.317713  L 248.812338 241.81769  L 254.39752 241.81769  L 254.39752 242.067702  L 259.982703 242.067702  L 259.982703 240.817644  L 265.567885 240.817644  L 265.567885 240.692639  L 271.153067 240.692639  L 271.153067 241.317667  L 276.73825 241.317667  L 276.73825 242.817736  L 282.323432 242.817736  L 282.323432 243.192753  L 287.908615 243.192753  L 287.908615 212.691361  L 293.493797 212.691361  L 293.493797 242.817736  L 299.078979 242.817736  L 299.078979 241.81769  L 304.664162 241.81769  L 304.664162 242.942741  L 310.249344 242.942741  L 310.249344 242.69273  L 315.834527 242.69273  L 315.834527 242.442719  L 321.419709 242.442719  L 321.419709 230.567177  L 327.004892 230.567177  L 327.004892 242.442719  L 332.590074 242.442719  L 332.590074 240.317622  L 338.175256 240.317622  L 338.175256 241.192662  L 343.760439 241.192662  L 343.760439 236.442445  L 349.345621 236.442445  L 349.345621 242.942741  L 354.930804 242.942741  L 354.930804 241.067656  L 360.515986 241.067656  L 360.515986 242.69273  L 366.101169 242.69273  L 366.101169 238.067519  L 371.686351 238.067519  L 371.686351 242.69273  L 377.271533 242.69273  L 377.271533 241.567679  L 382.856716 241.567679  L 382.856716 242.442719  L 388.441898 242.442719  L 388.441898 239.567587  L 394.027081 239.567587  L 394.027081 241.942696  L 399.612263 241.942696  L 399.612263 241.567679  L 405.197446 241.567679  L 405.197446 241.192662  L 410.782628 241.192662  L 410.782628 242.192707  L 416.36781 242.192707  L 416.36781 240.817644  L 421.952993 240.817644  L 421.952993 242.317713  L 427.538175 242.317713  L 427.538175 242.817736  L 433 242.817736  L 433 242.817736  "
           clip-path="url(#p28470ac3fe)"
           style="fill: none; stroke: #c44e52; stroke-width: 2"
           id="path57" />
      </g>
      <g
         id="line2d_25">
        <path
           d="m -1,24.817517 77.752514,0"
           clip-path="url(#p28470ac3fe)"
           style="fill:none;stroke:#000000;stroke-width:2.9;stroke-dasharray:5.8, 2.9;stroke-dashoffset:0;stroke-opacity:1"
           id="path58"
           sodipodi:nodetypes="cc" />
      </g>
      <g
         id="legend_1">
        <g
           id="patch_7"
           transform="matrix(1.0006352,0,0,0.83270425,-0.22582181,1.267111)">
          <path
             d="m 286.90285,94.033083 h 137.2625 V 7.834646 h -137.2625 z"
             style="fill:#ffffff;stroke:#000000;stroke-linejoin:miter"
             id="path59" />
        </g>
        <g
           id="line2d_26">
          <path
             d="M 294.902854 19.933083  L 304.902854 19.933083  L 314.902854 19.933083  "
             style="fill: none; stroke: #4c72b0; stroke-width: 1.25; stroke-linejoin: miter"
             id="path60" />
        </g>
        <g
           id="text_13">
          <!-- Bernoulli avg OES -->
          <g
             transform="translate(322.902854 23.433083) scale(0.1 -0.1)"
             id="g76">
            <defs
               id="defs60">
              <path
                 id="DejaVuSerif-42"
                 d="M 1581 331  L 2516 331  Q 3078 331 3337 575  Q 3597 819 3597 1350  Q 3597 1878 3339 2120  Q 3081 2363 2516 2363  L 1581 2363  L 1581 331  z M 1581 2694  L 2375 2694  Q 2888 2694 3123 2891  Q 3359 3088 3359 3513  Q 3359 3941 3123 4136  Q 2888 4331 2375 4331  L 1581 4331  L 1581 2694  z M 353 0  L 353 331  L 947 331  L 947 4331  L 353 4331  L 353 4666  L 2656 4666  Q 3363 4666 3720 4377  Q 4078 4088 4078 3513  Q 4078 3097 3829 2850  Q 3581 2603 3103 2547  Q 3697 2472 4005 2167  Q 4313 1863 4313 1350  Q 4313 656 3875 328  Q 3438 0 2509 0  L 353 0  z "
                 transform="scale(0.015625)" />
              <path
                 id="DejaVuSerif-65"
                 d="M 3469 1600  L 991 1600  L 991 1575  Q 991 903 1244 561  Q 1497 219 1991 219  Q 2369 219 2611 417  Q 2853 616 2950 1006  L 3413 1006  Q 3275 459 2904 184  Q 2534 -91 1931 -91  Q 1203 -91 761 389  Q 319 869 319 1663  Q 319 2450 753 2931  Q 1188 3413 1894 3413  Q 2647 3413 3050 2948  Q 3453 2484 3469 1600  z M 2791 1931  Q 2772 2513 2545 2808  Q 2319 3103 1894 3103  Q 1497 3103 1269 2806  Q 1041 2509 991 1931  L 2791 1931  z "
                 transform="scale(0.015625)" />
              <path
                 id="DejaVuSerif-72"
                 d="M 3059 3328  L 3059 2497  L 2728 2497  Q 2713 2744 2591 2866  Q 2469 2988 2234 2988  Q 1809 2988 1582 2694  Q 1356 2400 1356 1850  L 1356 331  L 2022 331  L 2022 0  L 263 0  L 263 331  L 781 331  L 781 2994  L 231 2994  L 231 3322  L 1356 3322  L 1356 2731  Q 1525 3078 1790 3245  Q 2056 3413 2438 3413  Q 2578 3413 2733 3391  Q 2888 3369 3059 3328  z "
                 transform="scale(0.015625)" />
              <path
                 id="DejaVuSerif-6e"
                 d="M 263 0  L 263 331  L 781 331  L 781 2988  L 231 2988  L 231 3322  L 1356 3322  L 1356 2731  Q 1516 3069 1770 3241  Q 2025 3413 2363 3413  Q 2913 3413 3172 3097  Q 3431 2781 3431 2113  L 3431 331  L 3944 331  L 3944 0  L 2356 0  L 2356 331  L 2853 331  L 2853 1931  Q 2853 2541 2703 2767  Q 2553 2994 2175 2994  Q 1775 2994 1565 2701  Q 1356 2409 1356 1850  L 1356 331  L 1856 331  L 1856 0  L 263 0  z "
                 transform="scale(0.015625)" />
              <path
                 id="DejaVuSerif-6f"
                 d="M 1925 219  Q 2388 219 2623 584  Q 2859 950 2859 1663  Q 2859 2375 2623 2739  Q 2388 3103 1925 3103  Q 1463 3103 1227 2739  Q 991 2375 991 1663  Q 991 950 1228 584  Q 1466 219 1925 219  z M 1925 -91  Q 1200 -91 759 389  Q 319 869 319 1663  Q 319 2456 758 2934  Q 1197 3413 1925 3413  Q 2653 3413 3092 2934  Q 3531 2456 3531 1663  Q 3531 869 3092 389  Q 2653 -91 1925 -91  z "
                 transform="scale(0.015625)" />
              <path
                 id="DejaVuSerif-75"
                 d="M 2266 3322  L 3341 3322  L 3341 331  L 3884 331  L 3884 0  L 2766 0  L 2766 588  Q 2606 256 2353 82  Q 2100 -91 1766 -91  Q 1213 -91 952 223  Q 691 538 691 1209  L 691 2988  L 172 2988  L 172 3322  L 1269 3322  L 1269 1388  Q 1269 781 1417 556  Q 1566 331 1947 331  Q 2347 331 2556 625  Q 2766 919 2766 1478  L 2766 2988  L 2266 2988  L 2266 3322  z "
                 transform="scale(0.015625)" />
              <path
                 id="DejaVuSerif-6c"
                 d="M 1313 331  L 1856 331  L 1856 0  L 184 0  L 184 331  L 738 331  L 738 4531  L 184 4531  L 184 4863  L 1313 4863  L 1313 331  z "
                 transform="scale(0.015625)" />
              <path
                 id="DejaVuSerif-69"
                 d="M 622 4353  Q 622 4497 726 4603  Q 831 4709 978 4709  Q 1122 4709 1226 4603  Q 1331 4497 1331 4353  Q 1331 4206 1228 4103  Q 1125 4000 978 4000  Q 831 4000 726 4103  Q 622 4206 622 4353  z M 1356 331  L 1900 331  L 1900 0  L 231 0  L 231 331  L 781 331  L 781 2988  L 231 2988  L 231 3322  L 1356 3322  L 1356 331  z "
                 transform="scale(0.015625)" />
              <path
                 id="DejaVuSerif-20"
                 transform="scale(0.015625)" />
              <path
                 id="DejaVuSerif-61"
                 d="M 2547 1044  L 2547 1747  L 1806 1747  Q 1378 1747 1168 1562  Q 959 1378 959 997  Q 959 650 1171 447  Q 1384 244 1747 244  Q 2106 244 2326 466  Q 2547 688 2547 1044  z M 3122 2075  L 3122 331  L 3634 331  L 3634 0  L 2547 0  L 2547 359  Q 2356 128 2106 18  Q 1856 -91 1522 -91  Q 969 -91 644 203  Q 319 497 319 997  Q 319 1513 691 1797  Q 1063 2081 1741 2081  L 2547 2081  L 2547 2309  Q 2547 2688 2317 2895  Q 2088 3103 1672 3103  Q 1328 3103 1125 2947  Q 922 2791 872 2484  L 575 2484  L 575 3156  Q 875 3284 1158 3348  Q 1441 3413 1709 3413  Q 2400 3413 2761 3070  Q 3122 2728 3122 2075  z "
                 transform="scale(0.015625)" />
              <path
                 id="DejaVuSerif-76"
                 d="M 1581 0  L 359 2988  L -19 2988  L -19 3322  L 1509 3322  L 1509 2988  L 978 2988  L 1913 703  L 2847 2988  L 2350 2988  L 2350 3322  L 3597 3322  L 3597 2988  L 3225 2988  L 2003 0  L 1581 0  z "
                 transform="scale(0.015625)" />
              <path
                 id="DejaVuSerif-67"
                 d="M 3359 2988  L 3359 72  Q 3359 -644 2965 -1033  Q 2572 -1422 1844 -1422  Q 1516 -1422 1216 -1362  Q 916 -1303 641 -1184  L 641 -488  L 941 -488  Q 997 -813 1206 -963  Q 1416 -1113 1806 -1113  Q 2313 -1113 2548 -827  Q 2784 -541 2784 72  L 2784 519  Q 2616 206 2355 57  Q 2094 -91 1709 -91  Q 1097 -91 708 395  Q 319 881 319 1663  Q 319 2444 706 2928  Q 1094 3413 1709 3413  Q 2094 3413 2355 3264  Q 2616 3116 2784 2803  L 2784 3322  L 3909 3322  L 3909 2988  L 3359 2988  z M 2784 1825  Q 2784 2422 2554 2737  Q 2325 3053 1888 3053  Q 1444 3053 1217 2703  Q 991 2353 991 1663  Q 991 975 1217 622  Q 1444 269 1888 269  Q 2325 269 2554 583  Q 2784 897 2784 1497  L 2784 1825  z "
                 transform="scale(0.015625)" />
              <path
                 id="DejaVuSerif-4f"
                 d="M 2625 244  Q 3391 244 3781 770  Q 4172 1297 4172 2328  Q 4172 3363 3781 3889  Q 3391 4416 2625 4416  Q 1856 4416 1465 3889  Q 1075 3363 1075 2328  Q 1075 1297 1465 770  Q 1856 244 2625 244  z M 2625 -91  Q 2150 -91 1751 65  Q 1353 222 1050 525  Q 700 875 529 1319  Q 359 1763 359 2328  Q 359 2894 529 3339  Q 700 3784 1050 4134  Q 1356 4441 1750 4595  Q 2144 4750 2625 4750  Q 3641 4750 4266 4084  Q 4891 3419 4891 2328  Q 4891 1769 4719 1320  Q 4547 872 4197 525  Q 3891 219 3497 64  Q 3103 -91 2625 -91  z "
                 transform="scale(0.015625)" />
              <path
                 id="DejaVuSerif-45"
                 d="M 353 0  L 353 331  L 947 331  L 947 4331  L 353 4331  L 353 4666  L 4109 4666  L 4109 3628  L 3725 3628  L 3725 4281  L 1581 4281  L 1581 2719  L 3109 2719  L 3109 3303  L 3494 3303  L 3494 1753  L 3109 1753  L 3109 2338  L 1581 2338  L 1581 384  L 3775 384  L 3775 1038  L 4159 1038  L 4159 0  L 353 0  z "
                 transform="scale(0.015625)" />
              <path
                 id="DejaVuSerif-53"
                 d="M 594 225  L 594 1288  L 953 1284  Q 969 753 1261 498  Q 1553 244 2150 244  Q 2706 244 2998 464  Q 3291 684 3291 1106  Q 3291 1444 3114 1625  Q 2938 1806 2369 1978  L 1753 2163  Q 1084 2366 811 2669  Q 538 2972 538 3500  Q 538 4094 959 4422  Q 1381 4750 2144 4750  Q 2469 4750 2856 4679  Q 3244 4609 3681 4475  L 3681 3481  L 3328 3481  Q 3275 3975 2998 4195  Q 2722 4416 2156 4416  Q 1663 4416 1405 4214  Q 1147 4013 1147 3628  Q 1147 3294 1340 3103  Q 1534 2913 2163 2725  L 2741 2553  Q 3375 2363 3645 2067  Q 3916 1772 3916 1275  Q 3916 597 3481 253  Q 3047 -91 2188 -91  Q 1803 -91 1404 -12  Q 1006 66 594 225  z "
                 transform="scale(0.015625)" />
            </defs>
            <use
               xlink:href="#DejaVuSerif-42"
               id="use60" />
            <use
               xlink:href="#DejaVuSerif-65"
               x="73.486328"
               id="use61" />
            <use
               xlink:href="#DejaVuSerif-72"
               x="132.666016"
               id="use62" />
            <use
               xlink:href="#DejaVuSerif-6e"
               x="180.46875"
               id="use63" />
            <use
               xlink:href="#DejaVuSerif-6f"
               x="244.873047"
               id="use64" />
            <use
               xlink:href="#DejaVuSerif-75"
               x="305.078125"
               id="use65" />
            <use
               xlink:href="#DejaVuSerif-6c"
               x="369.482422"
               id="use66" />
            <use
               xlink:href="#DejaVuSerif-6c"
               x="401.464844"
               id="use67" />
            <use
               xlink:href="#DejaVuSerif-69"
               x="433.447266"
               id="use68" />
            <use
               xlink:href="#DejaVuSerif-20"
               x="465.429688"
               id="use69" />
            <use
               xlink:href="#DejaVuSerif-61"
               x="497.216797"
               id="use70" />
            <use
               xlink:href="#DejaVuSerif-76"
               x="556.835938"
               id="use71" />
            <use
               xlink:href="#DejaVuSerif-67"
               x="613.330078"
               id="use72" />
            <use
               xlink:href="#DejaVuSerif-20"
               x="677.34375"
               id="use73" />
            <use
               xlink:href="#DejaVuSerif-4f"
               x="709.130859"
               id="use74" />
            <use
               xlink:href="#DejaVuSerif-45"
               x="791.113281"
               id="use75" />
            <use
               xlink:href="#DejaVuSerif-53"
               x="864.111328"
               id="use76" />
          </g>
        </g>
        <g
           id="line2d_27">
          <path
             d="M 294.902854 35.954958  L 304.902854 35.954958  L 314.902854 35.954958  "
             style="fill: none; stroke: #dd8452; stroke-width: 1.25; stroke-linejoin: miter"
             id="path76" />
        </g>
        <g
           id="text_14">
          <!-- $\{P^tXP\}_P$ avg OES -->
          <g
             transform="translate(322.902854 39.454958) scale(0.1 -0.1)"
             id="g91">
            <defs
               id="defs76">
              <path
                 id="DejaVuSans-7b"
                 d="M 3272 -594  L 3272 -1044  L 3078 -1044  Q 2300 -1044 2036 -812  Q 1772 -581 1772 109  L 1772 856  Q 1772 1328 1603 1509  Q 1434 1691 991 1691  L 800 1691  L 800 2138  L 991 2138  Q 1438 2138 1605 2317  Q 1772 2497 1772 2963  L 1772 3713  Q 1772 4403 2036 4633  Q 2300 4863 3078 4863  L 3272 4863  L 3272 4416  L 3059 4416  Q 2619 4416 2484 4278  Q 2350 4141 2350 3700  L 2350 2925  Q 2350 2434 2208 2212  Q 2066 1991 1722 1913  Q 2069 1828 2209 1606  Q 2350 1384 2350 897  L 2350 122  Q 2350 -319 2484 -456  Q 2619 -594 3059 -594  L 3272 -594  z "
                 transform="scale(0.015625)" />
              <path
                 id="DejaVuSans-Oblique-50"
                 d="M 1081 4666  L 2541 4666  Q 3178 4666 3512 4369  Q 3847 4072 3847 3500  Q 3847 2731 3353 2303  Q 2859 1875 1966 1875  L 1172 1875  L 806 0  L 172 0  L 1081 4666  z M 1613 4147  L 1275 2394  L 2069 2394  Q 2606 2394 2893 2669  Q 3181 2944 3181 3456  Q 3181 3784 2986 3965  Q 2791 4147 2438 4147  L 1613 4147  z "
                 transform="scale(0.015625)" />
              <path
                 id="DejaVuSans-Oblique-74"
                 d="M 2706 3500  L 2619 3053  L 1472 3053  L 1100 1153  Q 1081 1047 1072 975  Q 1063 903 1063 863  Q 1063 663 1183 572  Q 1303 481 1569 481  L 2150 481  L 2053 0  L 1503 0  Q 991 0 739 200  Q 488 400 488 806  Q 488 878 497 964  Q 506 1050 525 1153  L 897 3053  L 409 3053  L 500 3500  L 978 3500  L 1172 4494  L 1747 4494  L 1556 3500  L 2706 3500  z "
                 transform="scale(0.015625)" />
              <path
                 id="DejaVuSans-Oblique-58"
                 d="M 878 4666  L 1516 4666  L 2316 2981  L 3763 4666  L 4500 4666  L 2578 2438  L 3738 0  L 3103 0  L 2163 1966  L 459 0  L -275 0  L 1906 2509  L 878 4666  z "
                 transform="scale(0.015625)" />
              <path
                 id="DejaVuSans-7d"
                 d="M 800 -594  L 1019 -594  Q 1456 -594 1589 -459  Q 1722 -325 1722 122  L 1722 897  Q 1722 1384 1862 1606  Q 2003 1828 2350 1913  Q 2003 1991 1862 2212  Q 1722 2434 1722 2925  L 1722 3700  Q 1722 4144 1589 4280  Q 1456 4416 1019 4416  L 800 4416  L 800 4863  L 997 4863  Q 1775 4863 2036 4633  Q 2297 4403 2297 3713  L 2297 2963  Q 2297 2497 2465 2317  Q 2634 2138 3078 2138  L 3272 2138  L 3272 1691  L 3078 1691  Q 2634 1691 2465 1509  Q 2297 1328 2297 856  L 2297 109  Q 2297 -581 2036 -812  Q 1775 -1044 997 -1044  L 800 -1044  L 800 -594  z "
                 transform="scale(0.015625)" />
            </defs>
            <use
               xlink:href="#DejaVuSans-7b"
               transform="translate(0 0.565625)"
               id="use77" />
            <use
               xlink:href="#DejaVuSans-Oblique-50"
               transform="translate(63.623047 0.565625)"
               id="use78" />
            <use
               xlink:href="#DejaVuSans-Oblique-74"
               transform="translate(130.942552 38.846875) scale(0.7)"
               id="use79" />
            <use
               xlink:href="#DejaVuSans-Oblique-58"
               transform="translate(161.123216 0.565625)"
               id="use80" />
            <use
               xlink:href="#DejaVuSans-Oblique-50"
               transform="translate(229.629076 0.565625)"
               id="use81" />
            <use
               xlink:href="#DejaVuSans-7d"
               transform="translate(289.93181 0.565625)"
               id="use82" />
            <use
               xlink:href="#DejaVuSans-Oblique-50"
               transform="translate(354.511888 -15.840625) scale(0.7)"
               id="use83" />
            <use
               xlink:href="#DejaVuSerif-20"
               transform="translate(399.458177 0.565625)"
               id="use84" />
            <use
               xlink:href="#DejaVuSerif-61"
               transform="translate(431.245286 0.565625)"
               id="use85" />
            <use
               xlink:href="#DejaVuSerif-76"
               transform="translate(490.864427 0.565625)"
               id="use86" />
            <use
               xlink:href="#DejaVuSerif-67"
               transform="translate(547.358568 0.565625)"
               id="use87" />
            <use
               xlink:href="#DejaVuSerif-20"
               transform="translate(611.37224 0.565625)"
               id="use88" />
            <use
               xlink:href="#DejaVuSerif-4f"
               transform="translate(643.159349 0.565625)"
               id="use89" />
            <use
               xlink:href="#DejaVuSerif-45"
               transform="translate(725.141771 0.565625)"
               id="use90" />
            <use
               xlink:href="#DejaVuSerif-53"
               transform="translate(798.139818 0.565625)"
               id="use91" />
          </g>
        </g>
        <g
           id="line2d_28">
          <path
             d="M 294.902854 50.854958  L 304.902854 50.854958  L 314.902854 50.854958  "
             style="fill: none; stroke: #55a868; stroke-width: 1.25; stroke-linejoin: miter"
             id="path91" />
        </g>
        <g
           id="text_15">
          <!-- $\{P\}$ avg OES -->
          <g
             transform="translate(322.902854 54.354958) scale(0.1 -0.1)"
             id="g102">
            <use
               xlink:href="#DejaVuSans-7b"
               transform="translate(0 0.015625)"
               id="use92" />
            <use
               xlink:href="#DejaVuSans-Oblique-50"
               transform="translate(63.623047 0.015625)"
               id="use93" />
            <use
               xlink:href="#DejaVuSans-7d"
               transform="translate(123.925781 0.015625)"
               id="use94" />
            <use
               xlink:href="#DejaVuSerif-20"
               transform="translate(187.548828 0.015625)"
               id="use95" />
            <use
               xlink:href="#DejaVuSerif-61"
               transform="translate(219.335938 0.015625)"
               id="use96" />
            <use
               xlink:href="#DejaVuSerif-76"
               transform="translate(278.955078 0.015625)"
               id="use97" />
            <use
               xlink:href="#DejaVuSerif-67"
               transform="translate(335.449219 0.015625)"
               id="use98" />
            <use
               xlink:href="#DejaVuSerif-20"
               transform="translate(399.462891 0.015625)"
               id="use99" />
            <use
               xlink:href="#DejaVuSerif-4f"
               transform="translate(431.25 0.015625)"
               id="use100" />
            <use
               xlink:href="#DejaVuSerif-45"
               transform="translate(513.232422 0.015625)"
               id="use101" />
            <use
               xlink:href="#DejaVuSerif-53"
               transform="translate(586.230469 0.015625)"
               id="use102" />
          </g>
        </g>
        <g
           id="line2d_29">
          <path
             d="M 294.902854 65.753396  L 304.902854 65.753396  L 314.902854 65.753396  "
             style="fill: none; stroke: #c44e52; stroke-width: 1.25; stroke-linejoin: miter"
             id="path102" />
        </g>
        <g
           id="text_16">
          <!-- $P^tXP$ OES -->
          <g
             transform="translate(322.902854 69.253396) scale(0.1 -0.1)"
             id="g110">
            <use
               xlink:href="#DejaVuSans-Oblique-50"
               transform="translate(0 0.565625)"
               id="use103" />
            <use
               xlink:href="#DejaVuSans-Oblique-74"
               transform="translate(67.319505 38.846875) scale(0.7)"
               id="use104" />
            <use
               xlink:href="#DejaVuSans-Oblique-58"
               transform="translate(97.500169 0.565625)"
               id="use105" />
            <use
               xlink:href="#DejaVuSans-Oblique-50"
               transform="translate(166.006029 0.565625)"
               id="use106" />
            <use
               xlink:href="#DejaVuSerif-20"
               transform="translate(226.308763 0.565625)"
               id="use107" />
            <use
               xlink:href="#DejaVuSerif-4f"
               transform="translate(258.095872 0.565625)"
               id="use108" />
            <use
               xlink:href="#DejaVuSerif-45"
               transform="translate(340.078294 0.565625)"
               id="use109" />
            <use
               xlink:href="#DejaVuSerif-53"
               transform="translate(413.076341 0.565625)"
               id="use110" />
          </g>
        </g>
        <g
           id="text_17"
           transform="translate(-242.33426,-56.419285)">
          <!-- $p(\{0\})$ pred. -->
          <g
             transform="matrix(0.1,0,0,-0.1,322.90285,83.933083)"
             id="g122">
            <defs
               id="defs110">
              <path
                 id="DejaVuSans-Oblique-70"
                 d="m 3175,2156 q 0,460 -200,703 -200,244 -575,244 -256,0 -489,-131 -233,-131 -414,-381 -178,-247 -285,-597 -106,-350 -106,-694 0,-437 200,-673 200,-236 569,-236 272,0 505,128 233,128 398,372 178,256 287,603 110,347 110,662 z m -1781,813 q 231,303 545,459 314,156 699,156 537,0 834,-352 297,-351 297,-985 0,-519 -185,-989 Q 3400,788 3053,416 2822,169 2531,39 2241,-91 1919,-91 1547,-91 1294,64 1041,219 916,525 L 556,-1331 H -19 l 941,4831 h 575 z"
                 transform="scale(0.015625)" />
              <path
                 id="DejaVuSans-28"
                 d="m 1984,4856 q -418,-718 -622,-1422 -203,-703 -203,-1425 0,-721 205,-1429 205,-708 620,-1424 h -500 q -468,735 -701,1444 -233,709 -233,1409 0,697 231,1403 232,707 703,1444 z"
                 transform="scale(0.015625)" />
              <path
                 id="DejaVuSans-30"
                 d="m 2034,4250 q -487,0 -733,-480 -245,-479 -245,-1442 0,-959 245,-1439 246,-480 733,-480 491,0 736,480 246,480 246,1439 0,963 -246,1442 -245,480 -736,480 z m 0,500 q 785,0 1199,-621 414,-620 414,-1801 0,-1178 -414,-1799 -414,-620 -1199,-620 -784,0 -1198,620 -414,621 -414,1799 0,1181 414,1801 414,621 1198,621 z"
                 transform="scale(0.015625)" />
              <path
                 id="DejaVuSans-29"
                 d="m 513,4856 h 500 q 468,-737 701,-1444 233,-706 233,-1403 0,-700 -233,-1409 -233,-709 -701,-1444 H 513 q 415,716 620,1424 205,708 205,1429 0,722 -205,1425 -205,704 -620,1422 z"
                 transform="scale(0.015625)" />
              <path
                 id="DejaVuSerif-70"
                 d="m 1313,1825 v -328 q 0,-600 229,-914 230,-314 667,-314 441,0 667,353 227,353 227,1041 0,690 -227,1040 -226,350 -667,350 -437,0 -667,-316 -229,-315 -229,-912 z M 738,2988 H 184 v 334 h 1129 v -519 q 168,313 429,461 261,149 646,149 612,0 999,-485 388,-484 388,-1265 0,-782 -388,-1268 -387,-486 -999,-486 -385,0 -646,148 -261,149 -429,462 V -997 h 543 v -334 H 184 v 334 h 554 z"
                 transform="scale(0.015625)" />
              <path
                 id="DejaVuSerif-64"
                 d="m 3359,331 h 550 V 0 H 2784 V 519 Q 2616,206 2355,57 2094,-91 1709,-91 1097,-91 708,395 319,881 319,1663 q 0,781 387,1265 388,485 1003,485 385,0 646,-149 261,-148 429,-461 v 1728 h -543 v 332 h 1118 z m -575,1166 v 328 q 0,597 -230,912 -229,316 -666,316 -444,0 -671,-350 -226,-350 -226,-1040 0,-688 226,-1041 227,-353 671,-353 437,0 666,314 230,314 230,914 z"
                 transform="scale(0.015625)" />
            </defs>
            <use
               xlink:href="#DejaVuSans-Oblique-70"
               transform="translate(0,0.015625)"
               id="use111" />
            <use
               xlink:href="#DejaVuSans-28"
               transform="translate(63.476562,0.015625)"
               id="use112" />
            <use
               xlink:href="#DejaVuSans-7b"
               transform="translate(102.49023,0.015625)"
               id="use113" />
            <use
               xlink:href="#DejaVuSans-30"
               transform="translate(166.11328,0.015625)"
               id="use114" />
            <use
               xlink:href="#DejaVuSans-7d"
               transform="translate(229.73633,0.015625)"
               id="use115" />
            <use
               xlink:href="#DejaVuSans-29"
               transform="translate(293.35937,0.015625)"
               id="use116" />
            <use
               xlink:href="#DejaVuSerif-20"
               transform="translate(332.37305,0.015625)"
               id="use117" />
            <use
               xlink:href="#DejaVuSerif-70"
               transform="translate(364.16016,0.015625)"
               id="use118" />
            <use
               xlink:href="#DejaVuSerif-72"
               transform="translate(428.17383,0.015625)"
               id="use119" />
            <use
               xlink:href="#DejaVuSerif-65"
               transform="translate(475.97656,0.015625)"
               id="use120" />
            <use
               xlink:href="#DejaVuSerif-64"
               transform="translate(535.15625,0.015625)"
               id="use121" />
            <use
               xlink:href="#DejaVuSerif-2e"
               transform="translate(599.16992,0.015625)"
               id="use122" />
          </g>
        </g>
      </g>
    </g>
  </g>
  <defs
     id="defs122">
    <clipPath
       id="p28470ac3fe">
      <rect
         x="42.160588"
         y="2.834646"
         width="387.004766"
         height="248.130709"
         id="rect122" />
    </clipPath>
  </defs>
</svg>
