<?xml version="1.0" encoding="utf-8" standalone="no"?>
<!DOCTYPE svg PUBLIC "-//W3C//DTD SVG 1.1//EN"
  "http://www.w3.org/Graphics/SVG/1.1/DTD/svg11.dtd">
<svg xmlns:xlink="http://www.w3.org/1999/xlink" width="432pt" height="288pt" viewBox="0 0 432 288" xmlns="http://www.w3.org/2000/svg" version="1.1">
 <metadata>
  <rdf:RDF xmlns:dc="http://purl.org/dc/elements/1.1/" xmlns:cc="http://creativecommons.org/ns#" xmlns:rdf="http://www.w3.org/1999/02/22-rdf-syntax-ns#">
   <cc:Work>
    <dc:type rdf:resource="http://purl.org/dc/dcmitype/StillImage"/>
    <dc:date>2024-09-02T12:52:12.219562</dc:date>
    <dc:format>image/svg+xml</dc:format>
    <dc:creator>
     <cc:Agent>
      <dc:title>Matplotlib v3.9.2, https://matplotlib.org/</dc:title>
     </cc:Agent>
    </dc:creator>
   </cc:Work>
  </rdf:RDF>
 </metadata>
 <defs>
  <style type="text/css">*{stroke-linejoin: round; stroke-linecap: butt}</style>
 </defs>
 <g id="figure_1">
  <g id="patch_1">
   <path d="M 0 288 
L 432 288 
L 432 0 
L 0 0 
z
" style="fill: #ffffff"/>
  </g>
  <g id="axes_1">
   <g id="patch_2">
    <path d="M 30.5867 253.185354 
L 420.844617 253.185354 
L 420.844617 2.834646 
L 30.5867 2.834646 
z
" style="fill: #ffffff"/>
   </g>
   <g id="line2d_1">
    <path d="M 63.108193 74.689911 
L 95.629686 111.08105 
L 128.151179 172.091197 
L 160.672672 194.170761 
L 193.194165 206.796195 
L 225.715658 212.936629 
L 258.237151 215.76283 
L 290.758645 218.980048 
L 323.280138 220.246551 
L 355.801631 218.283864 
L 388.323124 216.931251 
L 420.844617 218.587127 
L 433 219.812564 
" clip-path="url(#pdc885e679d)" style="fill: none; stroke: #4c8df7"/>
   </g>
   <g id="PathCollection_1">
    <defs>
     <path id="mdb9aa83580" d="M -0.765367 -1.847759 
L -1.847759 -0.765367 
L -1.847759 0.765367 
L -0.765367 1.847759 
L 0.765367 1.847759 
L 1.847759 0.765367 
L 1.847759 -0.765367 
L 0.765367 -1.847759 
z
"/>
    </defs>
    <g clip-path="url(#pdc885e679d)">
     <use xlink:href="#mdb9aa83580" x="63.108193" y="74.689911" style="fill: #4c8df7"/>
     <use xlink:href="#mdb9aa83580" x="95.629686" y="111.08105" style="fill: #4c8df7"/>
     <use xlink:href="#mdb9aa83580" x="128.151179" y="172.091197" style="fill: #4c8df7"/>
     <use xlink:href="#mdb9aa83580" x="160.672672" y="194.170761" style="fill: #4c8df7"/>
     <use xlink:href="#mdb9aa83580" x="193.194165" y="206.796195" style="fill: #4c8df7"/>
     <use xlink:href="#mdb9aa83580" x="225.715658" y="212.936629" style="fill: #4c8df7"/>
     <use xlink:href="#mdb9aa83580" x="258.237151" y="215.76283" style="fill: #4c8df7"/>
     <use xlink:href="#mdb9aa83580" x="290.758645" y="218.980048" style="fill: #4c8df7"/>
     <use xlink:href="#mdb9aa83580" x="323.280138" y="220.246551" style="fill: #4c8df7"/>
     <use xlink:href="#mdb9aa83580" x="355.801631" y="218.283864" style="fill: #4c8df7"/>
     <use xlink:href="#mdb9aa83580" x="388.323124" y="216.931251" style="fill: #4c8df7"/>
     <use xlink:href="#mdb9aa83580" x="420.844617" y="218.587127" style="fill: #4c8df7"/>
     <use xlink:href="#mdb9aa83580" x="453.36611" y="221.865762" style="fill: #4c8df7"/>
     <use xlink:href="#mdb9aa83580" x="485.887603" y="219.212717" style="fill: #4c8df7"/>
     <use xlink:href="#mdb9aa83580" x="518.409096" y="217.842373" style="fill: #4c8df7"/>
    </g>
   </g>
   <g id="matplotlib.axis_1">
    <g id="xtick_1">
     <g id="line2d_2">
      <defs>
       <path id="m00e630212e" d="M 0 0 
L 0 -2.5 
" style="stroke: #000000; stroke-width: 0.5"/>
      </defs>
      <g>
       <use xlink:href="#m00e630212e" x="30.5867" y="253.185354" style="stroke: #000000; stroke-width: 0.5"/>
      </g>
     </g>
     <g id="line2d_3">
      <defs>
       <path id="mcfd5ddaa88" d="M 0 0 
L 0 2.5 
" style="stroke: #000000; stroke-width: 0.5"/>
      </defs>
      <g>
       <use xlink:href="#mcfd5ddaa88" x="30.5867" y="2.834646" style="stroke: #000000; stroke-width: 0.5"/>
      </g>
     </g>
     <g id="text_1">
      <!-- $0.0$ -->
      <g transform="translate(22.5867 264.283792) scale(0.1 -0.1)">
       <defs>
        <path id="DejaVuSerif-30" d="M 2034 219 
Q 2513 219 2750 744 
Q 2988 1269 2988 2328 
Q 2988 3391 2750 3916 
Q 2513 4441 2034 4441 
Q 1556 4441 1318 3916 
Q 1081 3391 1081 2328 
Q 1081 1269 1318 744 
Q 1556 219 2034 219 
z
M 2034 -91 
Q 1275 -91 848 546 
Q 422 1184 422 2328 
Q 422 3475 848 4112 
Q 1275 4750 2034 4750 
Q 2797 4750 3222 4112 
Q 3647 3475 3647 2328 
Q 3647 1184 3222 546 
Q 2797 -91 2034 -91 
z
" transform="scale(0.015625)"/>
        <path id="DejaVuSerif-2e" d="M 603 325 
Q 603 500 722 622 
Q 841 744 1019 744 
Q 1191 744 1312 622 
Q 1434 500 1434 325 
Q 1434 153 1312 31 
Q 1191 -91 1019 -91 
Q 841 -91 722 29 
Q 603 150 603 325 
z
" transform="scale(0.015625)"/>
       </defs>
       <use xlink:href="#DejaVuSerif-30" transform="translate(0 0.78125)"/>
       <use xlink:href="#DejaVuSerif-2e" transform="translate(63.623047 0.78125)"/>
       <use xlink:href="#DejaVuSerif-30" transform="translate(95.410156 0.78125)"/>
      </g>
     </g>
    </g>
    <g id="xtick_2">
     <g id="line2d_4">
      <g>
       <use xlink:href="#m00e630212e" x="128.151179" y="253.185354" style="stroke: #000000; stroke-width: 0.5"/>
      </g>
     </g>
     <g id="line2d_5">
      <g>
       <use xlink:href="#mcfd5ddaa88" x="128.151179" y="2.834646" style="stroke: #000000; stroke-width: 0.5"/>
      </g>
     </g>
     <g id="text_2">
      <!-- $0.5$ -->
      <g transform="translate(120.151179 264.283792) scale(0.1 -0.1)">
       <defs>
        <path id="DejaVuSerif-35" d="M 3219 4666 
L 3219 4153 
L 1081 4153 
L 1081 2816 
Q 1244 2928 1461 2984 
Q 1678 3041 1947 3041 
Q 2703 3041 3140 2622 
Q 3578 2203 3578 1478 
Q 3578 738 3136 323 
Q 2694 -91 1894 -91 
Q 1572 -91 1234 -12 
Q 897 66 544 225 
L 544 1131 
L 897 1131 
Q 925 688 1179 453 
Q 1434 219 1894 219 
Q 2388 219 2653 544 
Q 2919 869 2919 1478 
Q 2919 2084 2655 2407 
Q 2391 2731 1894 2731 
Q 1613 2731 1398 2631 
Q 1184 2531 1019 2322 
L 750 2322 
L 750 4666 
L 3219 4666 
z
" transform="scale(0.015625)"/>
       </defs>
       <use xlink:href="#DejaVuSerif-30" transform="translate(0 0.78125)"/>
       <use xlink:href="#DejaVuSerif-2e" transform="translate(63.623047 0.78125)"/>
       <use xlink:href="#DejaVuSerif-35" transform="translate(95.410156 0.78125)"/>
      </g>
     </g>
    </g>
    <g id="xtick_3">
     <g id="line2d_6">
      <g>
       <use xlink:href="#m00e630212e" x="225.715658" y="253.185354" style="stroke: #000000; stroke-width: 0.5"/>
      </g>
     </g>
     <g id="line2d_7">
      <g>
       <use xlink:href="#mcfd5ddaa88" x="225.715658" y="2.834646" style="stroke: #000000; stroke-width: 0.5"/>
      </g>
     </g>
     <g id="text_3">
      <!-- $1.0$ -->
      <g transform="translate(217.715658 264.283792) scale(0.1 -0.1)">
       <defs>
        <path id="DejaVuSerif-31" d="M 909 0 
L 909 331 
L 1722 331 
L 1722 4213 
L 781 3603 
L 781 4013 
L 1919 4750 
L 2350 4750 
L 2350 331 
L 3163 331 
L 3163 0 
L 909 0 
z
" transform="scale(0.015625)"/>
       </defs>
       <use xlink:href="#DejaVuSerif-31" transform="translate(0 0.78125)"/>
       <use xlink:href="#DejaVuSerif-2e" transform="translate(63.623047 0.78125)"/>
       <use xlink:href="#DejaVuSerif-30" transform="translate(95.410156 0.78125)"/>
      </g>
     </g>
    </g>
    <g id="xtick_4">
     <g id="line2d_8">
      <g>
       <use xlink:href="#m00e630212e" x="323.280138" y="253.185354" style="stroke: #000000; stroke-width: 0.5"/>
      </g>
     </g>
     <g id="line2d_9">
      <g>
       <use xlink:href="#mcfd5ddaa88" x="323.280138" y="2.834646" style="stroke: #000000; stroke-width: 0.5"/>
      </g>
     </g>
     <g id="text_4">
      <!-- $1.5$ -->
      <g transform="translate(315.280138 264.283792) scale(0.1 -0.1)">
       <use xlink:href="#DejaVuSerif-31" transform="translate(0 0.78125)"/>
       <use xlink:href="#DejaVuSerif-2e" transform="translate(63.623047 0.78125)"/>
       <use xlink:href="#DejaVuSerif-35" transform="translate(95.410156 0.78125)"/>
      </g>
     </g>
    </g>
    <g id="xtick_5">
     <g id="line2d_10">
      <g>
       <use xlink:href="#m00e630212e" x="420.844617" y="253.185354" style="stroke: #000000; stroke-width: 0.5"/>
      </g>
     </g>
     <g id="line2d_11">
      <g>
       <use xlink:href="#mcfd5ddaa88" x="420.844617" y="2.834646" style="stroke: #000000; stroke-width: 0.5"/>
      </g>
     </g>
     <g id="text_5">
      <!-- $2.0$ -->
      <g transform="translate(412.844617 264.283792) scale(0.1 -0.1)">
       <defs>
        <path id="DejaVuSerif-32" d="M 819 3553 
L 469 3553 
L 469 4384 
Q 803 4563 1142 4656 
Q 1481 4750 1806 4750 
Q 2534 4750 2956 4397 
Q 3378 4044 3378 3438 
Q 3378 2753 2422 1800 
Q 2347 1728 2309 1691 
L 1131 513 
L 3078 513 
L 3078 1088 
L 3444 1088 
L 3444 0 
L 434 0 
L 434 341 
L 1850 1753 
Q 2319 2222 2519 2614 
Q 2719 3006 2719 3438 
Q 2719 3909 2473 4175 
Q 2228 4441 1797 4441 
Q 1350 4441 1106 4219 
Q 863 3997 819 3553 
z
" transform="scale(0.015625)"/>
       </defs>
       <use xlink:href="#DejaVuSerif-32" transform="translate(0 0.78125)"/>
       <use xlink:href="#DejaVuSerif-2e" transform="translate(63.623047 0.78125)"/>
       <use xlink:href="#DejaVuSerif-30" transform="translate(95.410156 0.78125)"/>
      </g>
     </g>
    </g>
    <g id="text_6">
     <!-- $l/N$ -->
     <g transform="translate(216.475658 279.481604) scale(0.12 -0.12)">
      <defs>
       <path id="DejaVuSerif-Italic-6c" d="M 903 331 
L 1447 331 
L 1384 0 
L 266 0 
L 1147 4531 
L 594 4531 
L 656 4863 
L 1784 4863 
L 903 331 
z
" transform="scale(0.015625)"/>
       <path id="DejaVuSerif-2f" d="M 1656 4666 
L 2156 4666 
L 500 -594 
L 0 -594 
L 1656 4666 
z
" transform="scale(0.015625)"/>
       <path id="DejaVuSerif-Italic-4e" d="M -128 0 
L -66 331 
L 563 331 
L 1341 4331 
L 713 4331 
L 778 4666 
L 1975 4666 
L 4056 984 
L 4706 4331 
L 4081 4331 
L 4147 4666 
L 5784 4666 
L 5719 4331 
L 5091 4331 
L 4231 -91 
L 3853 -91 
L 1631 3841 
L 947 331 
L 1575 331 
L 1513 0 
L -128 0 
z
" transform="scale(0.015625)"/>
      </defs>
      <use xlink:href="#DejaVuSerif-Italic-6c" transform="translate(0 0.015625)"/>
      <use xlink:href="#DejaVuSerif-2f" transform="translate(31.982422 0.015625)"/>
      <use xlink:href="#DejaVuSerif-Italic-4e" transform="translate(65.673828 0.015625)"/>
     </g>
    </g>
   </g>
   <g id="matplotlib.axis_2">
    <g id="ytick_1">
     <g id="line2d_12">
      <defs>
       <path id="m2f90231b93" d="M 0 0 
L 2.5 0 
" style="stroke: #000000; stroke-width: 0.5"/>
      </defs>
      <g>
       <use xlink:href="#m2f90231b93" x="30.5867" y="44.371482" style="stroke: #000000; stroke-width: 0.5"/>
      </g>
     </g>
     <g id="line2d_13">
      <defs>
       <path id="m5a9e48ee04" d="M 0 0 
L -2.5 0 
" style="stroke: #000000; stroke-width: 0.5"/>
      </defs>
      <g>
       <use xlink:href="#m5a9e48ee04" x="420.844617" y="44.371482" style="stroke: #000000; stroke-width: 0.5"/>
      </g>
     </g>
     <g id="text_7">
      <!-- $10^{0}$ -->
      <g transform="translate(9.4867 48.170701) scale(0.1 -0.1)">
       <use xlink:href="#DejaVuSerif-31" transform="translate(0 0.7125)"/>
       <use xlink:href="#DejaVuSerif-30" transform="translate(63.623047 0.7125)"/>
       <use xlink:href="#DejaVuSerif-30" transform="translate(128.154453 37.046875) scale(0.7)"/>
      </g>
     </g>
    </g>
    <g id="ytick_2">
     <g id="line2d_14">
      <g>
       <use xlink:href="#m2f90231b93" x="30.5867" y="93.244211" style="stroke: #000000; stroke-width: 0.5"/>
      </g>
     </g>
     <g id="line2d_15">
      <g>
       <use xlink:href="#m5a9e48ee04" x="420.844617" y="93.244211" style="stroke: #000000; stroke-width: 0.5"/>
      </g>
     </g>
     <g id="text_8">
      <!-- $10^{-1}$ -->
      <g transform="translate(3.6867 97.04343) scale(0.1 -0.1)">
       <defs>
        <path id="DejaVuSerif-2212" d="M 678 2259 
L 4684 2259 
L 4684 1753 
L 678 1753 
L 678 2259 
z
" transform="scale(0.015625)"/>
       </defs>
       <use xlink:href="#DejaVuSerif-31" transform="translate(0 0.7125)"/>
       <use xlink:href="#DejaVuSerif-30" transform="translate(63.623047 0.7125)"/>
       <use xlink:href="#DejaVuSerif-2212" transform="translate(128.154453 37.046875) scale(0.7)"/>
       <use xlink:href="#DejaVuSerif-31" transform="translate(186.806797 37.046875) scale(0.7)"/>
      </g>
     </g>
    </g>
    <g id="ytick_3">
     <g id="line2d_16">
      <g>
       <use xlink:href="#m2f90231b93" x="30.5867" y="142.11694" style="stroke: #000000; stroke-width: 0.5"/>
      </g>
     </g>
     <g id="line2d_17">
      <g>
       <use xlink:href="#m5a9e48ee04" x="420.844617" y="142.11694" style="stroke: #000000; stroke-width: 0.5"/>
      </g>
     </g>
     <g id="text_9">
      <!-- $10^{-2}$ -->
      <g transform="translate(3.6867 145.916158) scale(0.1 -0.1)">
       <use xlink:href="#DejaVuSerif-31" transform="translate(0 0.7125)"/>
       <use xlink:href="#DejaVuSerif-30" transform="translate(63.623047 0.7125)"/>
       <use xlink:href="#DejaVuSerif-2212" transform="translate(128.154453 37.046875) scale(0.7)"/>
       <use xlink:href="#DejaVuSerif-32" transform="translate(186.806797 37.046875) scale(0.7)"/>
      </g>
     </g>
    </g>
    <g id="ytick_4">
     <g id="line2d_18">
      <g>
       <use xlink:href="#m2f90231b93" x="30.5867" y="190.989668" style="stroke: #000000; stroke-width: 0.5"/>
      </g>
     </g>
     <g id="line2d_19">
      <g>
       <use xlink:href="#m5a9e48ee04" x="420.844617" y="190.989668" style="stroke: #000000; stroke-width: 0.5"/>
      </g>
     </g>
     <g id="text_10">
      <!-- $10^{-3}$ -->
      <g transform="translate(3.6867 194.788887) scale(0.1 -0.1)">
       <defs>
        <path id="DejaVuSerif-33" d="M 622 4469 
Q 988 4606 1323 4678 
Q 1659 4750 1953 4750 
Q 2638 4750 3022 4454 
Q 3406 4159 3406 3634 
Q 3406 3213 3140 2930 
Q 2875 2647 2388 2547 
Q 2963 2466 3280 2130 
Q 3597 1794 3597 1259 
Q 3597 606 3158 257 
Q 2719 -91 1894 -91 
Q 1528 -91 1179 -12 
Q 831 66 488 225 
L 488 1131 
L 838 1131 
Q 869 681 1141 450 
Q 1413 219 1906 219 
Q 2384 219 2661 495 
Q 2938 772 2938 1253 
Q 2938 1803 2653 2086 
Q 2369 2369 1819 2369 
L 1522 2369 
L 1522 2688 
L 1678 2688 
Q 2225 2688 2498 2914 
Q 2772 3141 2772 3597 
Q 2772 4006 2547 4223 
Q 2322 4441 1900 4441 
Q 1478 4441 1245 4241 
Q 1013 4041 972 3647 
L 622 3647 
L 622 4469 
z
" transform="scale(0.015625)"/>
       </defs>
       <use xlink:href="#DejaVuSerif-31" transform="translate(0 0.7125)"/>
       <use xlink:href="#DejaVuSerif-30" transform="translate(63.623047 0.7125)"/>
       <use xlink:href="#DejaVuSerif-2212" transform="translate(128.154453 37.046875) scale(0.7)"/>
       <use xlink:href="#DejaVuSerif-33" transform="translate(186.806797 37.046875) scale(0.7)"/>
      </g>
     </g>
    </g>
    <g id="ytick_5">
     <g id="line2d_20">
      <g>
       <use xlink:href="#m2f90231b93" x="30.5867" y="239.862397" style="stroke: #000000; stroke-width: 0.5"/>
      </g>
     </g>
     <g id="line2d_21">
      <g>
       <use xlink:href="#m5a9e48ee04" x="420.844617" y="239.862397" style="stroke: #000000; stroke-width: 0.5"/>
      </g>
     </g>
     <g id="text_11">
      <!-- $10^{-4}$ -->
      <g transform="translate(3.6867 243.661616) scale(0.1 -0.1)">
       <defs>
        <path id="DejaVuSerif-34" d="M 2234 1581 
L 2234 4063 
L 641 1581 
L 2234 1581 
z
M 3609 0 
L 1484 0 
L 1484 331 
L 2234 331 
L 2234 1247 
L 197 1247 
L 197 1588 
L 2241 4750 
L 2859 4750 
L 2859 1581 
L 3750 1581 
L 3750 1247 
L 2859 1247 
L 2859 331 
L 3609 331 
L 3609 0 
z
" transform="scale(0.015625)"/>
       </defs>
       <use xlink:href="#DejaVuSerif-31" transform="translate(0 0.7125)"/>
       <use xlink:href="#DejaVuSerif-30" transform="translate(63.623047 0.7125)"/>
       <use xlink:href="#DejaVuSerif-2212" transform="translate(128.154453 37.046875) scale(0.7)"/>
       <use xlink:href="#DejaVuSerif-34" transform="translate(186.806797 37.046875) scale(0.7)"/>
      </g>
     </g>
    </g>
   </g>
   <g id="line2d_22">
    <path d="M 54.977819 76.619351 
L 79.368939 115.848701 
L 103.760059 157.613795 
L 128.151179 213.009973 
L 152.542299 222.773287 
L 176.933419 229.328373 
L 201.324538 231.88874 
L 225.715658 230.877757 
L 250.106778 237.788945 
L 274.497898 240.051055 
L 298.889018 237.039103 
L 323.280138 239.394633 
L 347.671258 240.785937 
L 372.062377 239.808857 
L 396.453497 236.034218 
" clip-path="url(#pdc885e679d)" style="fill: none; stroke: #3d70c4"/>
   </g>
   <g id="PathCollection_2">
    <defs>
     <path id="m6cb251bc7b" d="M -0.765367 -1.847759 
L -1.847759 -0.765367 
L -1.847759 0.765367 
L -0.765367 1.847759 
L 0.765367 1.847759 
L 1.847759 0.765367 
L 1.847759 -0.765367 
L 0.765367 -1.847759 
z
"/>
    </defs>
    <g clip-path="url(#pdc885e679d)">
     <use xlink:href="#m6cb251bc7b" x="54.977819" y="76.619351" style="fill: #3d70c4"/>
     <use xlink:href="#m6cb251bc7b" x="79.368939" y="115.848701" style="fill: #3d70c4"/>
     <use xlink:href="#m6cb251bc7b" x="103.760059" y="157.613795" style="fill: #3d70c4"/>
     <use xlink:href="#m6cb251bc7b" x="128.151179" y="213.009973" style="fill: #3d70c4"/>
     <use xlink:href="#m6cb251bc7b" x="152.542299" y="222.773287" style="fill: #3d70c4"/>
     <use xlink:href="#m6cb251bc7b" x="176.933419" y="229.328373" style="fill: #3d70c4"/>
     <use xlink:href="#m6cb251bc7b" x="201.324538" y="231.88874" style="fill: #3d70c4"/>
     <use xlink:href="#m6cb251bc7b" x="225.715658" y="230.877757" style="fill: #3d70c4"/>
     <use xlink:href="#m6cb251bc7b" x="250.106778" y="237.788945" style="fill: #3d70c4"/>
     <use xlink:href="#m6cb251bc7b" x="274.497898" y="240.051055" style="fill: #3d70c4"/>
     <use xlink:href="#m6cb251bc7b" x="298.889018" y="237.039103" style="fill: #3d70c4"/>
     <use xlink:href="#m6cb251bc7b" x="323.280138" y="239.394633" style="fill: #3d70c4"/>
     <use xlink:href="#m6cb251bc7b" x="347.671258" y="240.785937" style="fill: #3d70c4"/>
     <use xlink:href="#m6cb251bc7b" x="372.062377" y="239.808857" style="fill: #3d70c4"/>
     <use xlink:href="#m6cb251bc7b" x="396.453497" y="236.034218" style="fill: #3d70c4"/>
    </g>
   </g>
   <g id="patch_3">
    <path d="M 30.5867 253.185354 
L 30.5867 2.834646 
" style="fill: none; stroke: #000000; stroke-linejoin: miter; stroke-linecap: square"/>
   </g>
   <g id="patch_4">
    <path d="M 420.844617 253.185354 
L 420.844617 2.834646 
" style="fill: none; stroke: #000000; stroke-linejoin: miter; stroke-linecap: square"/>
   </g>
   <g id="patch_5">
    <path d="M 30.5867 253.185354 
L 420.844617 253.185354 
" style="fill: none; stroke: #000000; stroke-linejoin: miter; stroke-linecap: square"/>
   </g>
   <g id="patch_6">
    <path d="M 30.5867 2.834646 
L 420.844617 2.834646 
" style="fill: none; stroke: #000000; stroke-linejoin: miter; stroke-linecap: square"/>
   </g>
   <g id="line2d_23">
    <path d="M 50.099595 70.527976 
L 69.612491 106.673344 
L 89.125387 149.593157 
L 108.638283 187.175319 
L 128.151179 227.945858 
L 147.664075 236.720255 
L 167.176971 244.384826 
L 186.689867 239.02575 
L 206.202762 245.286516 
L 225.715658 241.801783 
L 245.228554 232.643225 
L 264.74145 237.518976 
L 284.254346 243.96267 
L 303.767242 238.315576 
L 323.280138 238.221817 
" clip-path="url(#pdc885e679d)" style="fill: none; stroke: #2d5391"/>
   </g>
   <g id="PathCollection_3">
    <defs>
     <path id="m4a2167db21" d="M -0.765367 -1.847759 
L -1.847759 -0.765367 
L -1.847759 0.765367 
L -0.765367 1.847759 
L 0.765367 1.847759 
L 1.847759 0.765367 
L 1.847759 -0.765367 
L 0.765367 -1.847759 
z
"/>
    </defs>
    <g clip-path="url(#pdc885e679d)">
     <use xlink:href="#m4a2167db21" x="50.099595" y="70.527976" style="fill: #2d5391"/>
     <use xlink:href="#m4a2167db21" x="69.612491" y="106.673344" style="fill: #2d5391"/>
     <use xlink:href="#m4a2167db21" x="89.125387" y="149.593157" style="fill: #2d5391"/>
     <use xlink:href="#m4a2167db21" x="108.638283" y="187.175319" style="fill: #2d5391"/>
     <use xlink:href="#m4a2167db21" x="128.151179" y="227.945858" style="fill: #2d5391"/>
     <use xlink:href="#m4a2167db21" x="147.664075" y="236.720255" style="fill: #2d5391"/>
     <use xlink:href="#m4a2167db21" x="167.176971" y="244.384826" style="fill: #2d5391"/>
     <use xlink:href="#m4a2167db21" x="186.689867" y="239.02575" style="fill: #2d5391"/>
     <use xlink:href="#m4a2167db21" x="206.202762" y="245.286516" style="fill: #2d5391"/>
     <use xlink:href="#m4a2167db21" x="225.715658" y="241.801783" style="fill: #2d5391"/>
     <use xlink:href="#m4a2167db21" x="245.228554" y="232.643225" style="fill: #2d5391"/>
     <use xlink:href="#m4a2167db21" x="264.74145" y="237.518976" style="fill: #2d5391"/>
     <use xlink:href="#m4a2167db21" x="284.254346" y="243.96267" style="fill: #2d5391"/>
     <use xlink:href="#m4a2167db21" x="303.767242" y="238.315576" style="fill: #2d5391"/>
     <use xlink:href="#m4a2167db21" x="323.280138" y="238.221817" style="fill: #2d5391"/>
    </g>
   </g>
   <g id="line2d_24">
    <path d="M 46.847446 69.533458 
L 63.108193 102.328779 
L 79.368939 141.686042 
L 95.629686 169.656592 
L 111.890432 208.741173 
L 128.151179 245.040463 
L 144.411925 236.3498 
L 160.672672 239.60819 
L 176.933419 246.099957 
L 193.194165 242.215914 
L 209.454912 240.965547 
L 225.715658 236.646563 
L 241.976405 243.753046 
L 258.237151 239.199427 
L 274.497898 246.003957 
" clip-path="url(#pdc885e679d)" style="fill: none; stroke: #1d365e"/>
   </g>
   <g id="PathCollection_4">
    <defs>
     <path id="mf51bd72fb5" d="M -0.765367 -1.847759 
L -1.847759 -0.765367 
L -1.847759 0.765367 
L -0.765367 1.847759 
L 0.765367 1.847759 
L 1.847759 0.765367 
L 1.847759 -0.765367 
L 0.765367 -1.847759 
z
"/>
    </defs>
    <g clip-path="url(#pdc885e679d)">
     <use xlink:href="#mf51bd72fb5" x="46.847446" y="69.533458" style="fill: #1d365e"/>
     <use xlink:href="#mf51bd72fb5" x="63.108193" y="102.328779" style="fill: #1d365e"/>
     <use xlink:href="#mf51bd72fb5" x="79.368939" y="141.686042" style="fill: #1d365e"/>
     <use xlink:href="#mf51bd72fb5" x="95.629686" y="169.656592" style="fill: #1d365e"/>
     <use xlink:href="#mf51bd72fb5" x="111.890432" y="208.741173" style="fill: #1d365e"/>
     <use xlink:href="#mf51bd72fb5" x="128.151179" y="245.040463" style="fill: #1d365e"/>
     <use xlink:href="#mf51bd72fb5" x="144.411925" y="236.3498" style="fill: #1d365e"/>
     <use xlink:href="#mf51bd72fb5" x="160.672672" y="239.60819" style="fill: #1d365e"/>
     <use xlink:href="#mf51bd72fb5" x="176.933419" y="246.099957" style="fill: #1d365e"/>
     <use xlink:href="#mf51bd72fb5" x="193.194165" y="242.215914" style="fill: #1d365e"/>
     <use xlink:href="#mf51bd72fb5" x="209.454912" y="240.965547" style="fill: #1d365e"/>
     <use xlink:href="#mf51bd72fb5" x="225.715658" y="236.646563" style="fill: #1d365e"/>
     <use xlink:href="#mf51bd72fb5" x="241.976405" y="243.753046" style="fill: #1d365e"/>
     <use xlink:href="#mf51bd72fb5" x="258.237151" y="239.199427" style="fill: #1d365e"/>
     <use xlink:href="#mf51bd72fb5" x="274.497898" y="246.003957" style="fill: #1d365e"/>
    </g>
   </g>
   <g id="line2d_25">
    <path d="M 63.108193 15.363814 
L 95.629686 32.625513 
L 128.151179 63.24903 
L 160.672672 93.02674 
L 193.194165 121.860981 
L 225.715658 153.940769 
L 258.237151 183.459973 
L 290.758645 187.638877 
L 323.280138 189.687027 
L 355.801631 187.036859 
L 388.323124 188.187971 
L 420.844617 187.390069 
L 433 187.246243 
" clip-path="url(#pdc885e679d)" style="fill: none; stroke: #ff3b42"/>
   </g>
   <g id="PathCollection_5">
    <defs>
     <path id="m139988cda7" d="M -0.765367 -1.847759 
L -1.847759 -0.765367 
L -1.847759 0.765367 
L -0.765367 1.847759 
L 0.765367 1.847759 
L 1.847759 0.765367 
L 1.847759 -0.765367 
L 0.765367 -1.847759 
z
"/>
    </defs>
    <g clip-path="url(#pdc885e679d)">
     <use xlink:href="#m139988cda7" x="63.108193" y="15.363814" style="fill: #ff3b42"/>
     <use xlink:href="#m139988cda7" x="95.629686" y="32.625513" style="fill: #ff3b42"/>
     <use xlink:href="#m139988cda7" x="128.151179" y="63.24903" style="fill: #ff3b42"/>
     <use xlink:href="#m139988cda7" x="160.672672" y="93.02674" style="fill: #ff3b42"/>
     <use xlink:href="#m139988cda7" x="193.194165" y="121.860981" style="fill: #ff3b42"/>
     <use xlink:href="#m139988cda7" x="225.715658" y="153.940769" style="fill: #ff3b42"/>
     <use xlink:href="#m139988cda7" x="258.237151" y="183.459973" style="fill: #ff3b42"/>
     <use xlink:href="#m139988cda7" x="290.758645" y="187.638877" style="fill: #ff3b42"/>
     <use xlink:href="#m139988cda7" x="323.280138" y="189.687027" style="fill: #ff3b42"/>
     <use xlink:href="#m139988cda7" x="355.801631" y="187.036859" style="fill: #ff3b42"/>
     <use xlink:href="#m139988cda7" x="388.323124" y="188.187971" style="fill: #ff3b42"/>
     <use xlink:href="#m139988cda7" x="420.844617" y="187.390069" style="fill: #ff3b42"/>
     <use xlink:href="#m139988cda7" x="453.36611" y="187.005264" style="fill: #ff3b42"/>
     <use xlink:href="#m139988cda7" x="485.887603" y="188.390914" style="fill: #ff3b42"/>
     <use xlink:href="#m139988cda7" x="518.409096" y="189.025494" style="fill: #ff3b42"/>
    </g>
   </g>
   <g id="line2d_26">
    <path d="M 79.368939 14.803986 
L 103.760059 34.546187 
L 128.151179 59.449982 
L 152.542299 81.583985 
L 176.933419 101.391401 
L 201.324538 121.78181 
L 225.715658 144.454047 
L 250.106778 171.204177 
L 274.497898 197.64818 
L 298.889018 224.186799 
L 323.280138 219.842631 
L 347.671258 237.628226 
L 372.062377 234.235405 
L 396.453497 230.839141 
" clip-path="url(#pdc885e679d)" style="fill: none; stroke: #cd2f35"/>
   </g>
   <g id="PathCollection_6">
    <defs>
     <path id="m13dba0243e" d="M -0.765367 -1.847759 
L -1.847759 -0.765367 
L -1.847759 0.765367 
L -0.765367 1.847759 
L 0.765367 1.847759 
L 1.847759 0.765367 
L 1.847759 -0.765367 
L 0.765367 -1.847759 
z
"/>
    </defs>
    <g clip-path="url(#pdc885e679d)">
     <use xlink:href="#m13dba0243e" x="79.368939" y="14.803986" style="fill: #cd2f35"/>
     <use xlink:href="#m13dba0243e" x="103.760059" y="34.546187" style="fill: #cd2f35"/>
     <use xlink:href="#m13dba0243e" x="128.151179" y="59.449982" style="fill: #cd2f35"/>
     <use xlink:href="#m13dba0243e" x="152.542299" y="81.583985" style="fill: #cd2f35"/>
     <use xlink:href="#m13dba0243e" x="176.933419" y="101.391401" style="fill: #cd2f35"/>
     <use xlink:href="#m13dba0243e" x="201.324538" y="121.78181" style="fill: #cd2f35"/>
     <use xlink:href="#m13dba0243e" x="225.715658" y="144.454047" style="fill: #cd2f35"/>
     <use xlink:href="#m13dba0243e" x="250.106778" y="171.204177" style="fill: #cd2f35"/>
     <use xlink:href="#m13dba0243e" x="274.497898" y="197.64818" style="fill: #cd2f35"/>
     <use xlink:href="#m13dba0243e" x="298.889018" y="224.186799" style="fill: #cd2f35"/>
     <use xlink:href="#m13dba0243e" x="323.280138" y="219.842631" style="fill: #cd2f35"/>
     <use xlink:href="#m13dba0243e" x="347.671258" y="237.628226" style="fill: #cd2f35"/>
     <use xlink:href="#m13dba0243e" x="372.062377" y="234.235405" style="fill: #cd2f35"/>
     <use xlink:href="#m13dba0243e" x="396.453497" y="230.839141" style="fill: #cd2f35"/>
    </g>
   </g>
   <g id="line2d_27">
    <path d="M 69.612491 10.052541 
L 89.125387 19.299359 
L 108.638283 29.473557 
L 128.151179 42.424228 
L 147.664075 57.944993 
L 167.176971 74.3027 
L 186.689867 90.588369 
L 206.202762 106.689988 
L 225.715658 123.59368 
L 245.228554 143.279572 
L 264.74145 167.769112 
L 284.254346 195.349054 
L 303.767242 224.93484 
L 323.280138 243.496168 
" clip-path="url(#pdc885e679d)" style="fill: none; stroke: #9a2428"/>
   </g>
   <g id="PathCollection_7">
    <defs>
     <path id="madae938bbb" d="M -0.765367 -1.847759 
L -1.847759 -0.765367 
L -1.847759 0.765367 
L -0.765367 1.847759 
L 0.765367 1.847759 
L 1.847759 0.765367 
L 1.847759 -0.765367 
L 0.765367 -1.847759 
z
"/>
    </defs>
    <g clip-path="url(#pdc885e679d)">
     <use xlink:href="#madae938bbb" x="69.612491" y="10.052541" style="fill: #9a2428"/>
     <use xlink:href="#madae938bbb" x="89.125387" y="19.299359" style="fill: #9a2428"/>
     <use xlink:href="#madae938bbb" x="108.638283" y="29.473557" style="fill: #9a2428"/>
     <use xlink:href="#madae938bbb" x="128.151179" y="42.424228" style="fill: #9a2428"/>
     <use xlink:href="#madae938bbb" x="147.664075" y="57.944993" style="fill: #9a2428"/>
     <use xlink:href="#madae938bbb" x="167.176971" y="74.3027" style="fill: #9a2428"/>
     <use xlink:href="#madae938bbb" x="186.689867" y="90.588369" style="fill: #9a2428"/>
     <use xlink:href="#madae938bbb" x="206.202762" y="106.689988" style="fill: #9a2428"/>
     <use xlink:href="#madae938bbb" x="225.715658" y="123.59368" style="fill: #9a2428"/>
     <use xlink:href="#madae938bbb" x="245.228554" y="143.279572" style="fill: #9a2428"/>
     <use xlink:href="#madae938bbb" x="264.74145" y="167.769112" style="fill: #9a2428"/>
     <use xlink:href="#madae938bbb" x="284.254346" y="195.349054" style="fill: #9a2428"/>
     <use xlink:href="#madae938bbb" x="303.767242" y="224.93484" style="fill: #9a2428"/>
     <use xlink:href="#madae938bbb" x="323.280138" y="243.496168" style="fill: #9a2428"/>
    </g>
   </g>
   <g id="line2d_28">
    <path d="M 79.368939 9.920043 
L 95.629686 20.349559 
L 111.890432 29.69044 
L 128.151179 40.526323 
L 144.411925 52.675104 
L 160.672672 66.212591 
L 176.933419 81.063683 
L 193.194165 94.946981 
L 209.454912 108.014324 
L 225.715658 123.360941 
L 241.976405 141.145657 
L 258.237151 161.359255 
L 274.497898 183.561145 
" clip-path="url(#pdc885e679d)" style="fill: none; stroke: #67181a"/>
   </g>
   <g id="PathCollection_8">
    <defs>
     <path id="m7449dcd6ed" d="M -0.765367 -1.847759 
L -1.847759 -0.765367 
L -1.847759 0.765367 
L -0.765367 1.847759 
L 0.765367 1.847759 
L 1.847759 0.765367 
L 1.847759 -0.765367 
L 0.765367 -1.847759 
z
"/>
    </defs>
    <g clip-path="url(#pdc885e679d)">
     <use xlink:href="#m7449dcd6ed" x="79.368939" y="9.920043" style="fill: #67181a"/>
     <use xlink:href="#m7449dcd6ed" x="95.629686" y="20.349559" style="fill: #67181a"/>
     <use xlink:href="#m7449dcd6ed" x="111.890432" y="29.69044" style="fill: #67181a"/>
     <use xlink:href="#m7449dcd6ed" x="128.151179" y="40.526323" style="fill: #67181a"/>
     <use xlink:href="#m7449dcd6ed" x="144.411925" y="52.675104" style="fill: #67181a"/>
     <use xlink:href="#m7449dcd6ed" x="160.672672" y="66.212591" style="fill: #67181a"/>
     <use xlink:href="#m7449dcd6ed" x="176.933419" y="81.063683" style="fill: #67181a"/>
     <use xlink:href="#m7449dcd6ed" x="193.194165" y="94.946981" style="fill: #67181a"/>
     <use xlink:href="#m7449dcd6ed" x="209.454912" y="108.014324" style="fill: #67181a"/>
     <use xlink:href="#m7449dcd6ed" x="225.715658" y="123.360941" style="fill: #67181a"/>
     <use xlink:href="#m7449dcd6ed" x="241.976405" y="141.145657" style="fill: #67181a"/>
     <use xlink:href="#m7449dcd6ed" x="258.237151" y="161.359255" style="fill: #67181a"/>
     <use xlink:href="#m7449dcd6ed" x="274.497898" y="183.561145" style="fill: #67181a"/>
    </g>
   </g>
   <g id="legend_1">
    <g id="patch_7">
     <path d="M 341.98993 136.259646 
L 415.844617 136.259646 
L 415.844617 7.834646 
L 341.98993 7.834646 
z
" style="fill: #ffffff; stroke: #000000; stroke-linejoin: miter"/>
    </g>
    <g id="line2d_29">
     <path d="M 349.98993 19.933083 
L 359.98993 19.933083 
L 369.98993 19.933083 
" style="fill: none; stroke: #4c8df7; stroke-width: 1.25; stroke-linejoin: miter"/>
     <defs>
      <path id="mb0ad566eb6" d="M -1.530734 -3.695518 
L -3.695518 -1.530734 
L -3.695518 1.530734 
L -1.530734 3.695518 
L 1.530734 3.695518 
L 3.695518 1.530734 
L 3.695518 -1.530734 
L 1.530734 -3.695518 
z
"/>
     </defs>
     <g>
      <use xlink:href="#mb0ad566eb6" x="359.98993" y="19.933083" style="fill: #4c8df7"/>
     </g>
    </g>
    <g id="text_12">
     <!-- N=6 -->
     <g transform="translate(377.98993 23.433083) scale(0.1 -0.1)">
      <defs>
       <path id="DejaVuSerif-4e" d="M 313 0 
L 313 331 
L 941 331 
L 941 4331 
L 313 4331 
L 313 4666 
L 1509 4666 
L 4306 984 
L 4306 4331 
L 3681 4331 
L 3681 4666 
L 5319 4666 
L 5319 4331 
L 4691 4331 
L 4691 -91 
L 4313 -91 
L 1325 3841 
L 1325 331 
L 1953 331 
L 1953 0 
L 313 0 
z
" transform="scale(0.015625)"/>
       <path id="DejaVuSerif-3d" d="M 678 2894 
L 4684 2894 
L 4684 2394 
L 678 2394 
L 678 2894 
z
M 678 1619 
L 4684 1619 
L 4684 1119 
L 678 1119 
L 678 1619 
z
" transform="scale(0.015625)"/>
       <path id="DejaVuSerif-36" d="M 2094 219 
Q 2534 219 2771 542 
Q 3009 866 3009 1472 
Q 3009 2078 2771 2401 
Q 2534 2725 2094 2725 
Q 1647 2725 1412 2412 
Q 1178 2100 1178 1509 
Q 1178 888 1415 553 
Q 1653 219 2094 219 
z
M 1075 2569 
Q 1288 2803 1556 2918 
Q 1825 3034 2163 3034 
Q 2859 3034 3264 2615 
Q 3669 2197 3669 1472 
Q 3669 763 3233 336 
Q 2797 -91 2069 -91 
Q 1278 -91 853 498 
Q 428 1088 428 2181 
Q 428 3406 931 4078 
Q 1434 4750 2350 4750 
Q 2597 4750 2869 4703 
Q 3141 4656 3425 4563 
L 3425 3794 
L 3072 3794 
Q 3034 4109 2831 4275 
Q 2628 4441 2284 4441 
Q 1678 4441 1381 3981 
Q 1084 3522 1075 2569 
z
" transform="scale(0.015625)"/>
      </defs>
      <use xlink:href="#DejaVuSerif-4e"/>
      <use xlink:href="#DejaVuSerif-3d" x="87.5"/>
      <use xlink:href="#DejaVuSerif-36" x="171.289062"/>
     </g>
    </g>
    <g id="line2d_30">
     <path d="M 349.98993 34.611208 
L 359.98993 34.611208 
L 369.98993 34.611208 
" style="fill: none; stroke: #3d70c4; stroke-width: 1.25; stroke-linejoin: miter"/>
     <defs>
      <path id="mb9313d37a2" d="M -1.530734 -3.695518 
L -3.695518 -1.530734 
L -3.695518 1.530734 
L -1.530734 3.695518 
L 1.530734 3.695518 
L 3.695518 1.530734 
L 3.695518 -1.530734 
L 1.530734 -3.695518 
z
"/>
     </defs>
     <g>
      <use xlink:href="#mb9313d37a2" x="359.98993" y="34.611208" style="fill: #3d70c4"/>
     </g>
    </g>
    <g id="text_13">
     <!-- N=8 -->
     <g transform="translate(377.98993 38.111208) scale(0.1 -0.1)">
      <defs>
       <path id="DejaVuSerif-38" d="M 2981 1275 
Q 2981 1775 2732 2051 
Q 2484 2328 2034 2328 
Q 1584 2328 1336 2051 
Q 1088 1775 1088 1275 
Q 1088 772 1336 495 
Q 1584 219 2034 219 
Q 2484 219 2732 495 
Q 2981 772 2981 1275 
z
M 2853 3541 
Q 2853 3966 2637 4203 
Q 2422 4441 2034 4441 
Q 1650 4441 1433 4203 
Q 1216 3966 1216 3541 
Q 1216 3113 1433 2875 
Q 1650 2638 2034 2638 
Q 2422 2638 2637 2875 
Q 2853 3113 2853 3541 
z
M 2516 2484 
Q 3047 2413 3344 2092 
Q 3641 1772 3641 1275 
Q 3641 619 3225 264 
Q 2809 -91 2034 -91 
Q 1263 -91 845 264 
Q 428 619 428 1275 
Q 428 1772 725 2092 
Q 1022 2413 1556 2484 
Q 1084 2569 832 2842 
Q 581 3116 581 3541 
Q 581 4103 968 4426 
Q 1356 4750 2034 4750 
Q 2713 4750 3100 4426 
Q 3488 4103 3488 3541 
Q 3488 3116 3236 2842 
Q 2984 2569 2516 2484 
z
" transform="scale(0.015625)"/>
      </defs>
      <use xlink:href="#DejaVuSerif-4e"/>
      <use xlink:href="#DejaVuSerif-3d" x="87.5"/>
      <use xlink:href="#DejaVuSerif-38" x="171.289062"/>
     </g>
    </g>
    <g id="line2d_31">
     <path d="M 349.98993 49.289333 
L 359.98993 49.289333 
L 369.98993 49.289333 
" style="fill: none; stroke: #2d5391; stroke-width: 1.25; stroke-linejoin: miter"/>
     <defs>
      <path id="m30b4b771ac" d="M -1.530734 -3.695518 
L -3.695518 -1.530734 
L -3.695518 1.530734 
L -1.530734 3.695518 
L 1.530734 3.695518 
L 3.695518 1.530734 
L 3.695518 -1.530734 
L 1.530734 -3.695518 
z
"/>
     </defs>
     <g>
      <use xlink:href="#m30b4b771ac" x="359.98993" y="49.289333" style="fill: #2d5391"/>
     </g>
    </g>
    <g id="text_14">
     <!-- N=10 -->
     <g transform="translate(377.98993 52.789333) scale(0.1 -0.1)">
      <use xlink:href="#DejaVuSerif-4e"/>
      <use xlink:href="#DejaVuSerif-3d" x="87.5"/>
      <use xlink:href="#DejaVuSerif-31" x="171.289062"/>
      <use xlink:href="#DejaVuSerif-30" x="234.912109"/>
     </g>
    </g>
    <g id="line2d_32">
     <path d="M 349.98993 63.967458 
L 359.98993 63.967458 
L 369.98993 63.967458 
" style="fill: none; stroke: #1d365e; stroke-width: 1.25; stroke-linejoin: miter"/>
     <defs>
      <path id="m27d553ad55" d="M -1.530734 -3.695518 
L -3.695518 -1.530734 
L -3.695518 1.530734 
L -1.530734 3.695518 
L 1.530734 3.695518 
L 3.695518 1.530734 
L 3.695518 -1.530734 
L 1.530734 -3.695518 
z
"/>
     </defs>
     <g>
      <use xlink:href="#m27d553ad55" x="359.98993" y="63.967458" style="fill: #1d365e"/>
     </g>
    </g>
    <g id="text_15">
     <!-- N=12 -->
     <g transform="translate(377.98993 67.467458) scale(0.1 -0.1)">
      <use xlink:href="#DejaVuSerif-4e"/>
      <use xlink:href="#DejaVuSerif-3d" x="87.5"/>
      <use xlink:href="#DejaVuSerif-31" x="171.289062"/>
      <use xlink:href="#DejaVuSerif-32" x="234.912109"/>
     </g>
    </g>
    <g id="line2d_33">
     <path d="M 349.98993 78.645583 
L 359.98993 78.645583 
L 369.98993 78.645583 
" style="fill: none; stroke: #ff3b42; stroke-width: 1.25; stroke-linejoin: miter"/>
     <defs>
      <path id="mcdeb779527" d="M -1.530734 -3.695518 
L -3.695518 -1.530734 
L -3.695518 1.530734 
L -1.530734 3.695518 
L 1.530734 3.695518 
L 3.695518 1.530734 
L 3.695518 -1.530734 
L 1.530734 -3.695518 
z
"/>
     </defs>
     <g>
      <use xlink:href="#mcdeb779527" x="359.98993" y="78.645583" style="fill: #ff3b42"/>
     </g>
    </g>
    <g id="text_16">
     <!-- N=6 -->
     <g transform="translate(377.98993 82.145583) scale(0.1 -0.1)">
      <use xlink:href="#DejaVuSerif-4e"/>
      <use xlink:href="#DejaVuSerif-3d" x="87.5"/>
      <use xlink:href="#DejaVuSerif-36" x="171.289062"/>
     </g>
    </g>
    <g id="line2d_34">
     <path d="M 349.98993 93.323708 
L 359.98993 93.323708 
L 369.98993 93.323708 
" style="fill: none; stroke: #cd2f35; stroke-width: 1.25; stroke-linejoin: miter"/>
     <defs>
      <path id="m6d515be8bd" d="M -1.530734 -3.695518 
L -3.695518 -1.530734 
L -3.695518 1.530734 
L -1.530734 3.695518 
L 1.530734 3.695518 
L 3.695518 1.530734 
L 3.695518 -1.530734 
L 1.530734 -3.695518 
z
"/>
     </defs>
     <g>
      <use xlink:href="#m6d515be8bd" x="359.98993" y="93.323708" style="fill: #cd2f35"/>
     </g>
    </g>
    <g id="text_17">
     <!-- N=8 -->
     <g transform="translate(377.98993 96.823708) scale(0.1 -0.1)">
      <use xlink:href="#DejaVuSerif-4e"/>
      <use xlink:href="#DejaVuSerif-3d" x="87.5"/>
      <use xlink:href="#DejaVuSerif-38" x="171.289062"/>
     </g>
    </g>
    <g id="line2d_35">
     <path d="M 349.98993 108.001833 
L 359.98993 108.001833 
L 369.98993 108.001833 
" style="fill: none; stroke: #9a2428; stroke-width: 1.25; stroke-linejoin: miter"/>
     <defs>
      <path id="md8ef96a59e" d="M -1.530734 -3.695518 
L -3.695518 -1.530734 
L -3.695518 1.530734 
L -1.530734 3.695518 
L 1.530734 3.695518 
L 3.695518 1.530734 
L 3.695518 -1.530734 
L 1.530734 -3.695518 
z
"/>
     </defs>
     <g>
      <use xlink:href="#md8ef96a59e" x="359.98993" y="108.001833" style="fill: #9a2428"/>
     </g>
    </g>
    <g id="text_18">
     <!-- N=10 -->
     <g transform="translate(377.98993 111.501833) scale(0.1 -0.1)">
      <use xlink:href="#DejaVuSerif-4e"/>
      <use xlink:href="#DejaVuSerif-3d" x="87.5"/>
      <use xlink:href="#DejaVuSerif-31" x="171.289062"/>
      <use xlink:href="#DejaVuSerif-30" x="234.912109"/>
     </g>
    </g>
    <g id="line2d_36">
     <path d="M 349.98993 122.679958 
L 359.98993 122.679958 
L 369.98993 122.679958 
" style="fill: none; stroke: #67181a; stroke-width: 1.25; stroke-linejoin: miter"/>
     <defs>
      <path id="m2e37962d3d" d="M -1.530734 -3.695518 
L -3.695518 -1.530734 
L -3.695518 1.530734 
L -1.530734 3.695518 
L 1.530734 3.695518 
L 3.695518 1.530734 
L 3.695518 -1.530734 
L 1.530734 -3.695518 
z
"/>
     </defs>
     <g>
      <use xlink:href="#m2e37962d3d" x="359.98993" y="122.679958" style="fill: #67181a"/>
     </g>
    </g>
    <g id="text_19">
     <!-- N=12 -->
     <g transform="translate(377.98993 126.179958) scale(0.1 -0.1)">
      <use xlink:href="#DejaVuSerif-4e"/>
      <use xlink:href="#DejaVuSerif-3d" x="87.5"/>
      <use xlink:href="#DejaVuSerif-31" x="171.289062"/>
      <use xlink:href="#DejaVuSerif-32" x="234.912109"/>
     </g>
    </g>
   </g>
  </g>
 </g>
 <defs>
  <clipPath id="pdc885e679d">
   <rect x="30.5867" y="2.834646" width="390.257917" height="250.350709"/>
  </clipPath>
 </defs>
</svg>
