<?xml version="1.0" encoding="utf-8" standalone="no"?>
<!DOCTYPE svg PUBLIC "-//W3C//DTD SVG 1.1//EN"
  "http://www.w3.org/Graphics/SVG/1.1/DTD/svg11.dtd">
<svg xmlns:xlink="http://www.w3.org/1999/xlink" width="432pt" height="288pt" viewBox="0 0 432 288" xmlns="http://www.w3.org/2000/svg" version="1.1">
 <metadata>
  <rdf:RDF xmlns:dc="http://purl.org/dc/elements/1.1/" xmlns:cc="http://creativecommons.org/ns#" xmlns:rdf="http://www.w3.org/1999/02/22-rdf-syntax-ns#">
   <cc:Work>
    <dc:type rdf:resource="http://purl.org/dc/dcmitype/StillImage"/>
    <dc:date>2024-12-08T00:14:58.428103</dc:date>
    <dc:format>image/svg+xml</dc:format>
    <dc:creator>
     <cc:Agent>
      <dc:title>Matplotlib v3.9.2, https://matplotlib.org/</dc:title>
     </cc:Agent>
    </dc:creator>
   </cc:Work>
  </rdf:RDF>
 </metadata>
 <defs>
  <style type="text/css">*{stroke-linejoin: round; stroke-linecap: butt}</style>
 </defs>
 <g id="figure_1">
  <g id="patch_1">
   <path d="M 0 288 
L 432 288 
L 432 0 
L 0 0 
z
" style="fill: #ffffff"/>
  </g>
  <g id="axes_1">
   <g id="patch_2">
    <path d="M 45.92112 250.965354 
L 429.165354 250.965354 
L 429.165354 2.834646 
L 45.92112 2.834646 
z
" style="fill: #ffffff"/>
   </g>
   <g id="line2d_1">
    <path d="M 56.767655 243.942787 
L 56.767655 9.857213 
L 60.312274 9.857213 
L 60.312274 11.682747 
L 63.856894 11.682747 
L 63.856894 11.926151 
L 67.401513 11.926151 
L 67.401513 11.769677 
L 70.946132 11.769677 
L 70.946132 12.273872 
L 74.490751 12.273872 
L 74.490751 11.717519 
L 78.035371 11.717519 
L 78.035371 12.638978 
L 85.124609 12.638978 
L 85.124609 12.899769 
L 88.669229 12.899769 
L 88.669229 12.482504 
L 92.213848 12.482504 
L 92.213848 13.629982 
L 102.847706 13.664755 
L 102.847706 13.977703 
L 106.392325 13.977703 
L 106.392325 14.099405 
L 109.936944 14.099405 
L 109.936944 14.725303 
L 113.481563 14.725303 
L 113.481563 14.481898 
L 117.026183 14.481898 
L 117.026183 15.838009 
L 120.570802 15.838009 
L 120.570802 16.35959 
L 124.115421 16.35959 
L 124.115421 16.064027 
L 127.66004 16.064027 
L 127.66004 16.794241 
L 131.20466 16.794241 
L 131.20466 17.228892 
L 134.749279 17.228892 
L 134.749279 17.889561 
L 138.293898 17.889561 
L 138.293898 18.55023 
L 141.838517 18.55023 
L 141.838517 18.811021 
L 145.383137 18.811021 
L 145.383137 19.454304 
L 148.927756 19.454304 
L 148.927756 20.184518 
L 152.472375 20.184518 
L 152.472375 20.740871 
L 156.016994 20.740871 
L 156.016994 21.679717 
L 159.561614 21.679717 
L 159.561614 22.270842 
L 163.106233 22.270842 
L 163.106233 21.940507 
L 166.650852 21.940507 
L 166.650852 24.600571 
L 170.195471 24.600571 
L 170.195471 24.218078 
L 173.740091 24.218078 
L 173.740091 25.069993 
L 177.28471 25.069993 
L 177.28471 26.147928 
L 180.829329 26.147928 
L 180.829329 26.669509 
L 184.373948 26.669509 
L 184.373948 28.234252 
L 187.918568 28.234252 
L 187.918568 28.5472 
L 191.463187 28.5472 
L 191.463187 29.659907 
L 195.007806 29.659907 
L 195.007806 30.946473 
L 198.552425 30.946473 
L 198.552425 31.433282 
L 202.097045 31.433282 
L 202.097045 33.137114 
L 205.641664 33.137114 
L 205.641664 33.450062 
L 209.186283 33.450062 
L 209.186283 35.240824 
L 212.730903 35.240824 
L 212.730903 36.405688 
L 216.275522 36.405688 
L 216.275522 37.257604 
L 219.820141 37.257604 
L 219.820141 38.613715 
L 223.36476 38.613715 
L 223.36476 39.517788 
L 226.90938 39.517788 
L 226.90938 40.647881 
L 230.453999 40.647881 
L 230.453999 42.334326 
L 233.998618 42.334326 
L 233.998618 43.41226 
L 237.543237 43.41226 
L 237.543237 45.185636 
L 241.087857 45.185636 
L 241.087857 46.541747 
L 244.632476 46.541747 
L 244.632476 47.550137 
L 248.177095 47.550137 
L 248.177095 49.566917 
L 251.721714 49.566917 
L 251.721714 50.610079 
L 255.266334 50.610079 
L 255.266334 52.279138 
L 258.810953 52.279138 
L 258.810953 54.834885 
L 262.355572 54.834885 
L 262.355572 54.99136 
L 265.900191 54.99136 
L 265.900191 57.338474 
L 269.444811 57.338474 
L 269.444811 59.442184 
L 272.98943 59.442184 
L 272.98943 60.502733 
L 276.534049 60.502733 
L 276.534049 63.093252 
L 280.078668 63.093252 
L 280.078668 64.571065 
L 283.623288 64.571065 
L 283.623288 66.448757 
L 287.167907 66.448757 
L 287.167907 68.865415 
L 290.712526 68.865415 
L 290.712526 70.273684 
L 294.257145 70.273684 
L 294.257145 72.759887 
L 297.801765 72.759887 
L 297.801765 75.124388 
L 301.346384 75.124388 
L 301.346384 77.054238 
L 304.891003 77.054238 
L 304.891003 79.071018 
L 308.435622 79.071018 
L 308.435622 82.113574 
L 311.980242 82.113574 
L 311.980242 83.347983 
L 315.524861 83.347983 
L 315.524861 86.581785 
L 319.06948 86.581785 
L 319.06948 88.650723 
L 322.614099 88.650723 
L 322.614099 92.21486 
L 326.158719 92.21486 
L 326.158719 94.544589 
L 329.703338 94.544589 
L 329.703338 97.239424 
L 333.247957 97.239424 
L 333.247957 100.577543 
L 336.792576 100.577543 
L 336.792576 102.229216 
L 340.337196 102.229216 
L 340.337196 107.07992 
L 343.881815 107.07992 
L 343.881815 109.166244 
L 347.426434 109.166244 
L 347.426434 113.008558 
L 350.971054 113.008558 
L 350.971054 116.485765 
L 354.515673 116.485765 
L 354.515673 119.876042 
L 358.060292 119.876042 
L 358.060292 123.440179 
L 361.604911 123.440179 
L 361.604911 127.491125 
L 365.149531 127.491125 
L 365.149531 132.02888 
L 368.69415 132.02888 
L 368.69415 135.593017 
L 372.238769 135.593017 
L 372.238769 140.895758 
L 375.783388 140.895758 
L 375.783388 145.259653 
L 379.328008 145.259653 
L 379.328008 151.049203 
L 382.872627 151.049203 
L 382.872627 155.986836 
L 386.417246 155.986836 
L 386.417246 162.350125 
L 389.961865 162.350125 
L 389.961865 168.209219 
L 393.506485 168.209219 
L 393.506485 176.085093 
L 397.051104 176.085093 
L 397.051104 183.491544 
L 400.595723 183.491544 
L 400.595723 193.784076 
L 404.140342 193.784076 
L 404.140342 206.458496 
L 407.684962 206.458496 
L 407.684962 224.070549 
L 411.229581 224.070549 
L 411.229581 235.232384 
L 414.7742 235.232384 
L 414.7742 243.560294 
L 418.318819 243.560294 
L 418.318819 243.942787 
L 418.318819 243.942787 
" clip-path="url(#p1392aa0292)" style="fill: none; stroke: #4c72b0; stroke-width: 3"/>
   </g>
   <g id="matplotlib.axis_1">
    <g id="xtick_1">
     <g id="line2d_2">
      <defs>
       <path id="mc0de02f4ce" d="M 0 0 
L 0 -2.5 
" style="stroke: #000000; stroke-width: 0.5"/>
      </defs>
      <g>
       <use xlink:href="#mc0de02f4ce" x="56.767655" y="250.965354" style="stroke: #000000; stroke-width: 0.5"/>
      </g>
     </g>
     <g id="line2d_3">
      <defs>
       <path id="m68430af644" d="M 0 0 
L 0 2.5 
" style="stroke: #000000; stroke-width: 0.5"/>
      </defs>
      <g>
       <use xlink:href="#m68430af644" x="56.767655" y="2.834646" style="stroke: #000000; stroke-width: 0.5"/>
      </g>
     </g>
     <g id="text_1">
      <!-- $0.0$ -->
      <g transform="translate(48.767655 262.063792) scale(0.1 -0.1)">
       <defs>
        <path id="DejaVuSerif-30" d="M 2034 219 
Q 2513 219 2750 744 
Q 2988 1269 2988 2328 
Q 2988 3391 2750 3916 
Q 2513 4441 2034 4441 
Q 1556 4441 1318 3916 
Q 1081 3391 1081 2328 
Q 1081 1269 1318 744 
Q 1556 219 2034 219 
z
M 2034 -91 
Q 1275 -91 848 546 
Q 422 1184 422 2328 
Q 422 3475 848 4112 
Q 1275 4750 2034 4750 
Q 2797 4750 3222 4112 
Q 3647 3475 3647 2328 
Q 3647 1184 3222 546 
Q 2797 -91 2034 -91 
z
" transform="scale(0.015625)"/>
        <path id="DejaVuSerif-2e" d="M 603 325 
Q 603 500 722 622 
Q 841 744 1019 744 
Q 1191 744 1312 622 
Q 1434 500 1434 325 
Q 1434 153 1312 31 
Q 1191 -91 1019 -91 
Q 841 -91 722 29 
Q 603 150 603 325 
z
" transform="scale(0.015625)"/>
       </defs>
       <use xlink:href="#DejaVuSerif-30" transform="translate(0 0.78125)"/>
       <use xlink:href="#DejaVuSerif-2e" transform="translate(63.623047 0.78125)"/>
       <use xlink:href="#DejaVuSerif-30" transform="translate(95.410156 0.78125)"/>
      </g>
     </g>
    </g>
    <g id="xtick_2">
     <g id="line2d_4">
      <g>
       <use xlink:href="#mc0de02f4ce" x="145.383137" y="250.965354" style="stroke: #000000; stroke-width: 0.5"/>
      </g>
     </g>
     <g id="line2d_5">
      <g>
       <use xlink:href="#m68430af644" x="145.383137" y="2.834646" style="stroke: #000000; stroke-width: 0.5"/>
      </g>
     </g>
     <g id="text_2">
      <!-- $0.5$ -->
      <g transform="translate(137.383137 262.063792) scale(0.1 -0.1)">
       <defs>
        <path id="DejaVuSerif-35" d="M 3219 4666 
L 3219 4153 
L 1081 4153 
L 1081 2816 
Q 1244 2928 1461 2984 
Q 1678 3041 1947 3041 
Q 2703 3041 3140 2622 
Q 3578 2203 3578 1478 
Q 3578 738 3136 323 
Q 2694 -91 1894 -91 
Q 1572 -91 1234 -12 
Q 897 66 544 225 
L 544 1131 
L 897 1131 
Q 925 688 1179 453 
Q 1434 219 1894 219 
Q 2388 219 2653 544 
Q 2919 869 2919 1478 
Q 2919 2084 2655 2407 
Q 2391 2731 1894 2731 
Q 1613 2731 1398 2631 
Q 1184 2531 1019 2322 
L 750 2322 
L 750 4666 
L 3219 4666 
z
" transform="scale(0.015625)"/>
       </defs>
       <use xlink:href="#DejaVuSerif-30" transform="translate(0 0.78125)"/>
       <use xlink:href="#DejaVuSerif-2e" transform="translate(63.623047 0.78125)"/>
       <use xlink:href="#DejaVuSerif-35" transform="translate(95.410156 0.78125)"/>
      </g>
     </g>
    </g>
    <g id="xtick_3">
     <g id="line2d_6">
      <g>
       <use xlink:href="#mc0de02f4ce" x="233.998618" y="250.965354" style="stroke: #000000; stroke-width: 0.5"/>
      </g>
     </g>
     <g id="line2d_7">
      <g>
       <use xlink:href="#m68430af644" x="233.998618" y="2.834646" style="stroke: #000000; stroke-width: 0.5"/>
      </g>
     </g>
     <g id="text_3">
      <!-- $1.0$ -->
      <g transform="translate(225.998618 262.063792) scale(0.1 -0.1)">
       <defs>
        <path id="DejaVuSerif-31" d="M 909 0 
L 909 331 
L 1722 331 
L 1722 4213 
L 781 3603 
L 781 4013 
L 1919 4750 
L 2350 4750 
L 2350 331 
L 3163 331 
L 3163 0 
L 909 0 
z
" transform="scale(0.015625)"/>
       </defs>
       <use xlink:href="#DejaVuSerif-31" transform="translate(0 0.78125)"/>
       <use xlink:href="#DejaVuSerif-2e" transform="translate(63.623047 0.78125)"/>
       <use xlink:href="#DejaVuSerif-30" transform="translate(95.410156 0.78125)"/>
      </g>
     </g>
    </g>
    <g id="xtick_4">
     <g id="line2d_8">
      <g>
       <use xlink:href="#mc0de02f4ce" x="322.614099" y="250.965354" style="stroke: #000000; stroke-width: 0.5"/>
      </g>
     </g>
     <g id="line2d_9">
      <g>
       <use xlink:href="#m68430af644" x="322.614099" y="2.834646" style="stroke: #000000; stroke-width: 0.5"/>
      </g>
     </g>
     <g id="text_4">
      <!-- $1.5$ -->
      <g transform="translate(314.614099 262.063792) scale(0.1 -0.1)">
       <use xlink:href="#DejaVuSerif-31" transform="translate(0 0.78125)"/>
       <use xlink:href="#DejaVuSerif-2e" transform="translate(63.623047 0.78125)"/>
       <use xlink:href="#DejaVuSerif-35" transform="translate(95.410156 0.78125)"/>
      </g>
     </g>
    </g>
    <g id="xtick_5">
     <g id="line2d_10">
      <g>
       <use xlink:href="#mc0de02f4ce" x="411.229581" y="250.965354" style="stroke: #000000; stroke-width: 0.5"/>
      </g>
     </g>
     <g id="line2d_11">
      <g>
       <use xlink:href="#m68430af644" x="411.229581" y="2.834646" style="stroke: #000000; stroke-width: 0.5"/>
      </g>
     </g>
     <g id="text_5">
      <!-- $2.0$ -->
      <g transform="translate(403.229581 262.063792) scale(0.1 -0.1)">
       <defs>
        <path id="DejaVuSerif-32" d="M 819 3553 
L 469 3553 
L 469 4384 
Q 803 4563 1142 4656 
Q 1481 4750 1806 4750 
Q 2534 4750 2956 4397 
Q 3378 4044 3378 3438 
Q 3378 2753 2422 1800 
Q 2347 1728 2309 1691 
L 1131 513 
L 3078 513 
L 3078 1088 
L 3444 1088 
L 3444 0 
L 434 0 
L 434 341 
L 1850 1753 
Q 2319 2222 2519 2614 
Q 2719 3006 2719 3438 
Q 2719 3909 2473 4175 
Q 2228 4441 1797 4441 
Q 1350 4441 1106 4219 
Q 863 3997 819 3553 
z
" transform="scale(0.015625)"/>
       </defs>
       <use xlink:href="#DejaVuSerif-32" transform="translate(0 0.78125)"/>
       <use xlink:href="#DejaVuSerif-2e" transform="translate(63.623047 0.78125)"/>
       <use xlink:href="#DejaVuSerif-30" transform="translate(95.410156 0.78125)"/>
      </g>
     </g>
    </g>
    <g id="text_6">
     <!-- $\sqrt{\lambda}$ -->
     <g transform="translate(228.483237 279.327854) scale(0.12 -0.12)">
      <defs>
       <path id="STIXSizeOneSym-Regular-221a" d="M 6970 9933 
L 3373 -1888 
L 3104 -1888 
L 1626 2918 
Q 1555 3149 1465 3251 
Q 1376 3354 1229 3354 
Q 1011 3354 794 3181 
L 717 3309 
L 1766 4115 
L 1926 4115 
L 3379 -602 
L 3405 -602 
L 6605 9933 
L 6970 9933 
z
" transform="scale(0.015625)"/>
       <path id="DejaVuSerif-Italic-3bb" d="M 1984 4084 
Q 1925 4372 1834 4466 
Q 1744 4563 1578 4563 
Q 1391 4563 1288 4472 
Q 1178 4378 1119 4166 
L 825 4166 
L 947 4800 
Q 1113 4847 1272 4872 
Q 1431 4897 1578 4897 
Q 1925 4897 2088 4753 
Q 2253 4613 2334 4225 
L 3100 334 
L 3472 334 
L 3406 0 
L 2159 0 
L 2225 334 
L 2722 334 
L 2281 2628 
L 853 334 
L 1384 334 
L 1319 0 
L -209 0 
L -144 334 
L 234 334 
L 2116 3388 
L 1984 4084 
z
" transform="scale(0.015625)"/>
      </defs>
      <use xlink:href="#STIXSizeOneSym-Regular-221a" transform="translate(0 17.984375) scale(0.583453)"/>
      <use xlink:href="#DejaVuSerif-Italic-3bb" transform="translate(74.202362 1.234375)"/>
      <path d="M 61.702362 101.5 
L 61.702362 107.75 
L 150.081268 107.75 
L 150.081268 101.5 
L 61.702362 101.5 
z
"/>
     </g>
    </g>
   </g>
   <g id="matplotlib.axis_2">
    <g id="ytick_1">
     <g id="line2d_12">
      <defs>
       <path id="m5ad0427761" d="M 0 0 
L 2.5 0 
" style="stroke: #000000; stroke-width: 0.5"/>
      </defs>
      <g>
       <use xlink:href="#m5ad0427761" x="45.92112" y="243.942787" style="stroke: #000000; stroke-width: 0.5"/>
      </g>
     </g>
     <g id="line2d_13">
      <defs>
       <path id="m9e919e1019" d="M 0 0 
L -2.5 0 
" style="stroke: #000000; stroke-width: 0.5"/>
      </defs>
      <g>
       <use xlink:href="#m9e919e1019" x="429.165354" y="243.942787" style="stroke: #000000; stroke-width: 0.5"/>
      </g>
     </g>
     <g id="text_7">
      <!-- $0.0$ -->
      <g transform="translate(26.42112 247.742006) scale(0.1 -0.1)">
       <use xlink:href="#DejaVuSerif-30" transform="translate(0 0.78125)"/>
       <use xlink:href="#DejaVuSerif-2e" transform="translate(63.623047 0.78125)"/>
       <use xlink:href="#DejaVuSerif-30" transform="translate(95.410156 0.78125)"/>
      </g>
     </g>
    </g>
    <g id="ytick_2">
     <g id="line2d_14">
      <g>
       <use xlink:href="#m5ad0427761" x="45.92112" y="207.481629" style="stroke: #000000; stroke-width: 0.5"/>
      </g>
     </g>
     <g id="line2d_15">
      <g>
       <use xlink:href="#m9e919e1019" x="429.165354" y="207.481629" style="stroke: #000000; stroke-width: 0.5"/>
      </g>
     </g>
     <g id="text_8">
      <!-- $0.1$ -->
      <g transform="translate(26.42112 211.280848) scale(0.1 -0.1)">
       <use xlink:href="#DejaVuSerif-30" transform="translate(0 0.78125)"/>
       <use xlink:href="#DejaVuSerif-2e" transform="translate(63.623047 0.78125)"/>
       <use xlink:href="#DejaVuSerif-31" transform="translate(95.410156 0.78125)"/>
      </g>
     </g>
    </g>
    <g id="ytick_3">
     <g id="line2d_16">
      <g>
       <use xlink:href="#m5ad0427761" x="45.92112" y="171.020471" style="stroke: #000000; stroke-width: 0.5"/>
      </g>
     </g>
     <g id="line2d_17">
      <g>
       <use xlink:href="#m9e919e1019" x="429.165354" y="171.020471" style="stroke: #000000; stroke-width: 0.5"/>
      </g>
     </g>
     <g id="text_9">
      <!-- $0.2$ -->
      <g transform="translate(26.72112 174.81969) scale(0.1 -0.1)">
       <use xlink:href="#DejaVuSerif-30" transform="translate(0 0.78125)"/>
       <use xlink:href="#DejaVuSerif-2e" transform="translate(63.623047 0.78125)"/>
       <use xlink:href="#DejaVuSerif-32" transform="translate(92.785156 0.78125)"/>
      </g>
     </g>
    </g>
    <g id="ytick_4">
     <g id="line2d_18">
      <g>
       <use xlink:href="#m5ad0427761" x="45.92112" y="134.559313" style="stroke: #000000; stroke-width: 0.5"/>
      </g>
     </g>
     <g id="line2d_19">
      <g>
       <use xlink:href="#m9e919e1019" x="429.165354" y="134.559313" style="stroke: #000000; stroke-width: 0.5"/>
      </g>
     </g>
     <g id="text_10">
      <!-- $0.3$ -->
      <g transform="translate(26.42112 138.358532) scale(0.1 -0.1)">
       <defs>
        <path id="DejaVuSerif-33" d="M 622 4469 
Q 988 4606 1323 4678 
Q 1659 4750 1953 4750 
Q 2638 4750 3022 4454 
Q 3406 4159 3406 3634 
Q 3406 3213 3140 2930 
Q 2875 2647 2388 2547 
Q 2963 2466 3280 2130 
Q 3597 1794 3597 1259 
Q 3597 606 3158 257 
Q 2719 -91 1894 -91 
Q 1528 -91 1179 -12 
Q 831 66 488 225 
L 488 1131 
L 838 1131 
Q 869 681 1141 450 
Q 1413 219 1906 219 
Q 2384 219 2661 495 
Q 2938 772 2938 1253 
Q 2938 1803 2653 2086 
Q 2369 2369 1819 2369 
L 1522 2369 
L 1522 2688 
L 1678 2688 
Q 2225 2688 2498 2914 
Q 2772 3141 2772 3597 
Q 2772 4006 2547 4223 
Q 2322 4441 1900 4441 
Q 1478 4441 1245 4241 
Q 1013 4041 972 3647 
L 622 3647 
L 622 4469 
z
" transform="scale(0.015625)"/>
       </defs>
       <use xlink:href="#DejaVuSerif-30" transform="translate(0 0.78125)"/>
       <use xlink:href="#DejaVuSerif-2e" transform="translate(63.623047 0.78125)"/>
       <use xlink:href="#DejaVuSerif-33" transform="translate(95.410156 0.78125)"/>
      </g>
     </g>
    </g>
    <g id="ytick_5">
     <g id="line2d_20">
      <g>
       <use xlink:href="#m5ad0427761" x="45.92112" y="98.098155" style="stroke: #000000; stroke-width: 0.5"/>
      </g>
     </g>
     <g id="line2d_21">
      <g>
       <use xlink:href="#m9e919e1019" x="429.165354" y="98.098155" style="stroke: #000000; stroke-width: 0.5"/>
      </g>
     </g>
     <g id="text_11">
      <!-- $0.4$ -->
      <g transform="translate(26.42112 101.897374) scale(0.1 -0.1)">
       <defs>
        <path id="DejaVuSerif-34" d="M 2234 1581 
L 2234 4063 
L 641 1581 
L 2234 1581 
z
M 3609 0 
L 1484 0 
L 1484 331 
L 2234 331 
L 2234 1247 
L 197 1247 
L 197 1588 
L 2241 4750 
L 2859 4750 
L 2859 1581 
L 3750 1581 
L 3750 1247 
L 2859 1247 
L 2859 331 
L 3609 331 
L 3609 0 
z
" transform="scale(0.015625)"/>
       </defs>
       <use xlink:href="#DejaVuSerif-30" transform="translate(0 0.78125)"/>
       <use xlink:href="#DejaVuSerif-2e" transform="translate(63.623047 0.78125)"/>
       <use xlink:href="#DejaVuSerif-34" transform="translate(95.410156 0.78125)"/>
      </g>
     </g>
    </g>
    <g id="ytick_6">
     <g id="line2d_22">
      <g>
       <use xlink:href="#m5ad0427761" x="45.92112" y="61.636998" style="stroke: #000000; stroke-width: 0.5"/>
      </g>
     </g>
     <g id="line2d_23">
      <g>
       <use xlink:href="#m9e919e1019" x="429.165354" y="61.636998" style="stroke: #000000; stroke-width: 0.5"/>
      </g>
     </g>
     <g id="text_12">
      <!-- $0.5$ -->
      <g transform="translate(26.42112 65.436216) scale(0.1 -0.1)">
       <use xlink:href="#DejaVuSerif-30" transform="translate(0 0.78125)"/>
       <use xlink:href="#DejaVuSerif-2e" transform="translate(63.623047 0.78125)"/>
       <use xlink:href="#DejaVuSerif-35" transform="translate(95.410156 0.78125)"/>
      </g>
     </g>
    </g>
    <g id="ytick_7">
     <g id="line2d_24">
      <g>
       <use xlink:href="#m5ad0427761" x="45.92112" y="25.17584" style="stroke: #000000; stroke-width: 0.5"/>
      </g>
     </g>
     <g id="line2d_25">
      <g>
       <use xlink:href="#m9e919e1019" x="429.165354" y="25.17584" style="stroke: #000000; stroke-width: 0.5"/>
      </g>
     </g>
     <g id="text_13">
      <!-- $0.6$ -->
      <g transform="translate(26.42112 28.975058) scale(0.1 -0.1)">
       <defs>
        <path id="DejaVuSerif-36" d="M 2094 219 
Q 2534 219 2771 542 
Q 3009 866 3009 1472 
Q 3009 2078 2771 2401 
Q 2534 2725 2094 2725 
Q 1647 2725 1412 2412 
Q 1178 2100 1178 1509 
Q 1178 888 1415 553 
Q 1653 219 2094 219 
z
M 1075 2569 
Q 1288 2803 1556 2918 
Q 1825 3034 2163 3034 
Q 2859 3034 3264 2615 
Q 3669 2197 3669 1472 
Q 3669 763 3233 336 
Q 2797 -91 2069 -91 
Q 1278 -91 853 498 
Q 428 1088 428 2181 
Q 428 3406 931 4078 
Q 1434 4750 2350 4750 
Q 2597 4750 2869 4703 
Q 3141 4656 3425 4563 
L 3425 3794 
L 3072 3794 
Q 3034 4109 2831 4275 
Q 2628 4441 2284 4441 
Q 1678 4441 1381 3981 
Q 1084 3522 1075 2569 
z
" transform="scale(0.015625)"/>
       </defs>
       <use xlink:href="#DejaVuSerif-30" transform="translate(0 0.78125)"/>
       <use xlink:href="#DejaVuSerif-2e" transform="translate(63.623047 0.78125)"/>
       <use xlink:href="#DejaVuSerif-36" transform="translate(95.410156 0.78125)"/>
      </g>
     </g>
    </g>
    <g id="text_14">
     <!-- $p(\left\{\sqrt{\lambda}\right\})$ -->
     <g transform="translate(19.90112 150.78) rotate(-90) scale(0.12 -0.12)">
      <defs>
       <path id="DejaVuSerif-Italic-70" d="M 1466 1825 
L 1400 1497 
Q 1353 1250 1353 1053 
Q 1353 769 1453 581 
Q 1622 269 2059 269 
Q 2500 269 2795 622 
Q 3091 975 3225 1663 
Q 3284 1978 3284 2225 
Q 3284 2513 3200 2703 
Q 3041 3053 2600 3053 
Q 2163 3053 1872 2737 
Q 1581 2422 1466 1825 
z
M 1116 2988 
L 563 2988 
L 628 3322 
L 1756 3322 
L 1656 2803 
Q 1884 3116 2175 3264 
Q 2466 3413 2850 3413 
Q 3463 3413 3753 2928 
Q 3947 2609 3947 2163 
Q 3947 1928 3897 1663 
Q 3744 881 3262 395 
Q 2781 -91 2169 -91 
Q 1784 -91 1551 57 
Q 1319 206 1213 519 
L 850 -1331 
L 275 -1331 
L 1116 2988 
z
" transform="scale(0.015625)"/>
       <path id="DejaVuSerif-28" d="M 2041 -997 
Q 1281 -656 893 83 
Q 506 822 506 1931 
Q 506 3044 893 3783 
Q 1281 4522 2041 4863 
L 2041 4556 
Q 1559 4225 1350 3623 
Q 1141 3022 1141 1931 
Q 1141 844 1350 242 
Q 1559 -359 2041 -691 
L 2041 -997 
z
" transform="scale(0.015625)"/>
       <path id="STIXSizeOneSym-Regular-7b" d="M 2982 -870 
L 2982 -1050 
Q 1581 -877 1581 723 
L 1581 1798 
Q 1581 2125 1357 2441 
Q 1133 2758 730 2822 
L 730 2957 
Q 1133 3014 1357 3334 
Q 1581 3654 1581 3981 
L 1581 5056 
Q 1581 6650 2982 6822 
L 2982 6643 
Q 2573 6579 2323 6313 
Q 2074 6048 2074 5715 
Q 2074 5645 2090 5257 
Q 2106 4870 2106 4851 
L 2106 4282 
Q 2106 3277 1062 2893 
L 1062 2880 
Q 2106 2496 2106 1498 
L 2106 928 
Q 2106 915 2096 784 
Q 2086 653 2080 451 
Q 2074 250 2074 58 
Q 2074 -646 2982 -870 
z
" transform="scale(0.015625)"/>
       <path id="STIXSizeOneSym-Regular-7d" d="M 2950 2950 
L 2950 2816 
Q 2547 2758 2323 2438 
Q 2099 2118 2099 1792 
L 2099 717 
Q 2099 -877 698 -1050 
L 698 -870 
Q 1107 -806 1356 -540 
Q 1606 -275 1606 58 
Q 1606 128 1590 518 
Q 1574 909 1574 922 
L 1574 1491 
Q 1574 2496 2618 2880 
L 2618 2893 
Q 1574 3277 1574 4275 
L 1574 4845 
Q 1574 4858 1580 4989 
Q 1587 5120 1596 5321 
Q 1606 5523 1606 5715 
Q 1606 6419 698 6643 
L 698 6822 
Q 2099 6650 2099 5050 
L 2099 3974 
Q 2099 3648 2323 3331 
Q 2547 3014 2950 2950 
z
" transform="scale(0.015625)"/>
       <path id="DejaVuSerif-29" d="M 453 -997 
L 453 -691 
Q 934 -359 1145 242 
Q 1356 844 1356 1931 
Q 1356 3022 1145 3623 
Q 934 4225 453 4556 
L 453 4863 
Q 1216 4522 1603 3783 
Q 1991 3044 1991 1931 
Q 1991 822 1603 83 
Q 1216 -656 453 -997 
z
" transform="scale(0.015625)"/>
      </defs>
      <use xlink:href="#DejaVuSerif-Italic-70" transform="translate(0 0.828125)"/>
      <use xlink:href="#DejaVuSerif-28" transform="translate(64.013672 0.828125)"/>
      <use xlink:href="#STIXSizeOneSym-Regular-7b" transform="translate(103.027344 15.921875) scale(0.919715)"/>
      <use xlink:href="#STIXSizeOneSym-Regular-221a" transform="translate(155.927338 17.9375) scale(0.583453)"/>
      <use xlink:href="#DejaVuSerif-Italic-3bb" transform="translate(230.1297 1.1875)"/>
      <use xlink:href="#STIXSizeOneSym-Regular-7d" transform="translate(306.008606 15.921875) scale(0.919715)"/>
      <use xlink:href="#DejaVuSerif-29" transform="translate(358.9086 0.828125)"/>
      <path d="M 217.6297 101.453125 
L 217.6297 107.703125 
L 306.008606 107.703125 
L 306.008606 101.453125 
L 217.6297 101.453125 
z
"/>
     </g>
    </g>
   </g>
   <g id="line2d_26">
    <path d="M 56.767655 11.823847 
L 60.348079 11.835689 
L 63.928502 11.871218 
L 67.508926 11.930445 
L 71.089349 12.01339 
L 74.669773 12.120075 
L 78.250196 12.250536 
L 81.83062 12.404812 
L 85.411043 12.58295 
L 88.991467 12.785006 
L 92.57189 13.011042 
L 96.152314 13.261129 
L 99.732737 13.535346 
L 103.313161 13.833778 
L 106.893584 14.15652 
L 110.474008 14.503675 
L 114.054431 14.875353 
L 117.634855 15.271674 
L 121.215278 15.692767 
L 124.795702 16.138768 
L 128.376125 16.609825 
L 131.956549 17.106093 
L 135.536972 17.627739 
L 139.117396 18.174937 
L 142.697819 18.747876 
L 146.278242 19.346751 
L 149.858666 19.97177 
L 153.439089 20.623154 
L 157.019513 21.301133 
L 160.599936 22.005951 
L 164.18036 22.737865 
L 167.760783 23.497145 
L 171.341207 24.284074 
L 174.92163 25.098951 
L 178.502054 25.942089 
L 182.082477 26.813818 
L 185.662901 27.714482 
L 189.243324 28.644446 
L 192.823748 29.60409 
L 196.404171 30.593816 
L 199.984595 31.614043 
L 203.565018 32.665214 
L 207.145442 33.747793 
L 210.725865 34.862268 
L 214.306289 36.009151 
L 217.886712 37.188982 
L 221.467136 38.402329 
L 225.047559 39.649788 
L 228.627983 40.931988 
L 232.208406 42.249592 
L 235.78883 43.603299 
L 239.369253 44.993845 
L 242.949677 46.422009 
L 246.5301 47.888612 
L 250.110524 49.394524 
L 253.690947 50.940665 
L 257.271371 52.52801 
L 260.851794 54.157593 
L 264.432218 55.83051 
L 268.012641 57.547931 
L 271.593065 59.311095 
L 275.173488 61.121326 
L 278.753912 62.980038 
L 282.334335 64.88874 
L 285.914759 66.849047 
L 289.495182 68.862695 
L 293.075606 70.931544 
L 296.656029 73.0576 
L 300.236453 75.243026 
L 303.816876 77.49016 
L 307.3973 79.801537 
L 310.977723 82.17991 
L 314.558147 84.628281 
L 318.13857 87.149927 
L 321.718994 89.748444 
L 325.299417 92.427787 
L 328.879841 95.192324 
L 332.460264 98.046897 
L 336.040688 100.9969 
L 339.621111 104.04837 
L 343.201535 107.2081 
L 346.781958 110.48378 
L 350.362382 113.88417 
L 353.942805 117.419324 
L 357.523229 121.100877 
L 361.103652 124.942416 
L 364.684075 128.959975 
L 368.264499 133.172704 
L 371.844922 137.603797 
L 375.425346 142.281803 
L 379.005769 147.242549 
L 382.586193 152.532057 
L 386.166616 158.211156 
L 389.74704 164.36321 
L 393.327463 171.107969 
L 396.907887 178.628793 
L 400.48831 187.233614 
L 404.068734 197.521367 
L 407.649157 211.034256 
L 411.229581 243.942787 
" clip-path="url(#p1392aa0292)" style="fill: none; stroke: #c44e52; stroke-width: 3"/>
   </g>
   <g id="patch_3">
    <path d="M 45.92112 250.965354 
L 45.92112 2.834646 
" style="fill: none; stroke: #000000; stroke-linejoin: miter; stroke-linecap: square"/>
   </g>
   <g id="patch_4">
    <path d="M 429.165354 250.965354 
L 429.165354 2.834646 
" style="fill: none; stroke: #000000; stroke-linejoin: miter; stroke-linecap: square"/>
   </g>
   <g id="patch_5">
    <path d="M 45.92112 250.965354 
L 429.165354 250.965354 
" style="fill: none; stroke: #000000; stroke-linejoin: miter; stroke-linecap: square"/>
   </g>
   <g id="patch_6">
    <path d="M 45.92112 2.834646 
L 429.165354 2.834646 
" style="fill: none; stroke: #000000; stroke-linejoin: miter; stroke-linecap: square"/>
   </g>
   <g id="legend_1">
    <g id="patch_7">
     <path d="M 304.841917 48.190896 
L 424.165354 48.190896 
L 424.165354 7.834646 
L 304.841917 7.834646 
z
" style="fill: #ffffff; stroke: #000000; stroke-linejoin: miter"/>
    </g>
    <g id="line2d_27">
     <path d="M 312.841917 19.933083 
L 322.841917 19.933083 
L 332.841917 19.933083 
" style="fill: none; stroke: #4c72b0; stroke-width: 1.25; stroke-linejoin: miter"/>
    </g>
    <g id="text_15">
     <!-- emperical PDF -->
     <g transform="translate(340.841917 23.433083) scale(0.1 -0.1)">
      <defs>
       <path id="DejaVuSerif-65" d="M 3469 1600 
L 991 1600 
L 991 1575 
Q 991 903 1244 561 
Q 1497 219 1991 219 
Q 2369 219 2611 417 
Q 2853 616 2950 1006 
L 3413 1006 
Q 3275 459 2904 184 
Q 2534 -91 1931 -91 
Q 1203 -91 761 389 
Q 319 869 319 1663 
Q 319 2450 753 2931 
Q 1188 3413 1894 3413 
Q 2647 3413 3050 2948 
Q 3453 2484 3469 1600 
z
M 2791 1931 
Q 2772 2513 2545 2808 
Q 2319 3103 1894 3103 
Q 1497 3103 1269 2806 
Q 1041 2509 991 1931 
L 2791 1931 
z
" transform="scale(0.015625)"/>
       <path id="DejaVuSerif-6d" d="M 3316 2675 
Q 3481 3041 3739 3227 
Q 3997 3413 4341 3413 
Q 4863 3413 5119 3089 
Q 5375 2766 5375 2113 
L 5375 331 
L 5894 331 
L 5894 0 
L 4300 0 
L 4300 331 
L 4800 331 
L 4800 2047 
Q 4800 2556 4650 2772 
Q 4500 2988 4153 2988 
Q 3769 2988 3567 2697 
Q 3366 2406 3366 1850 
L 3366 331 
L 3866 331 
L 3866 0 
L 2291 0 
L 2291 331 
L 2791 331 
L 2791 2069 
Q 2791 2566 2641 2777 
Q 2491 2988 2144 2988 
Q 1759 2988 1557 2697 
Q 1356 2406 1356 1850 
L 1356 331 
L 1856 331 
L 1856 0 
L 263 0 
L 263 331 
L 781 331 
L 781 2994 
L 231 2994 
L 231 3322 
L 1356 3322 
L 1356 2731 
Q 1516 3063 1762 3238 
Q 2009 3413 2322 3413 
Q 2709 3413 2968 3220 
Q 3228 3028 3316 2675 
z
" transform="scale(0.015625)"/>
       <path id="DejaVuSerif-70" d="M 1313 1825 
L 1313 1497 
Q 1313 897 1542 583 
Q 1772 269 2209 269 
Q 2650 269 2876 622 
Q 3103 975 3103 1663 
Q 3103 2353 2876 2703 
Q 2650 3053 2209 3053 
Q 1772 3053 1542 2737 
Q 1313 2422 1313 1825 
z
M 738 2988 
L 184 2988 
L 184 3322 
L 1313 3322 
L 1313 2803 
Q 1481 3116 1742 3264 
Q 2003 3413 2388 3413 
Q 3000 3413 3387 2928 
Q 3775 2444 3775 1663 
Q 3775 881 3387 395 
Q 3000 -91 2388 -91 
Q 2003 -91 1742 57 
Q 1481 206 1313 519 
L 1313 -997 
L 1856 -997 
L 1856 -1331 
L 184 -1331 
L 184 -997 
L 738 -997 
L 738 2988 
z
" transform="scale(0.015625)"/>
       <path id="DejaVuSerif-72" d="M 3059 3328 
L 3059 2497 
L 2728 2497 
Q 2713 2744 2591 2866 
Q 2469 2988 2234 2988 
Q 1809 2988 1582 2694 
Q 1356 2400 1356 1850 
L 1356 331 
L 2022 331 
L 2022 0 
L 263 0 
L 263 331 
L 781 331 
L 781 2994 
L 231 2994 
L 231 3322 
L 1356 3322 
L 1356 2731 
Q 1525 3078 1790 3245 
Q 2056 3413 2438 3413 
Q 2578 3413 2733 3391 
Q 2888 3369 3059 3328 
z
" transform="scale(0.015625)"/>
       <path id="DejaVuSerif-69" d="M 622 4353 
Q 622 4497 726 4603 
Q 831 4709 978 4709 
Q 1122 4709 1226 4603 
Q 1331 4497 1331 4353 
Q 1331 4206 1228 4103 
Q 1125 4000 978 4000 
Q 831 4000 726 4103 
Q 622 4206 622 4353 
z
M 1356 331 
L 1900 331 
L 1900 0 
L 231 0 
L 231 331 
L 781 331 
L 781 2988 
L 231 2988 
L 231 3322 
L 1356 3322 
L 1356 331 
z
" transform="scale(0.015625)"/>
       <path id="DejaVuSerif-63" d="M 3291 997 
Q 3169 466 2822 187 
Q 2475 -91 1925 -91 
Q 1200 -91 759 389 
Q 319 869 319 1663 
Q 319 2459 759 2936 
Q 1200 3413 1925 3413 
Q 2241 3413 2553 3339 
Q 2866 3266 3181 3116 
L 3181 2266 
L 2847 2266 
Q 2781 2703 2561 2903 
Q 2341 3103 1931 3103 
Q 1466 3103 1228 2742 
Q 991 2381 991 1663 
Q 991 944 1227 581 
Q 1463 219 1931 219 
Q 2303 219 2525 412 
Q 2747 606 2828 997 
L 3291 997 
z
" transform="scale(0.015625)"/>
       <path id="DejaVuSerif-61" d="M 2547 1044 
L 2547 1747 
L 1806 1747 
Q 1378 1747 1168 1562 
Q 959 1378 959 997 
Q 959 650 1171 447 
Q 1384 244 1747 244 
Q 2106 244 2326 466 
Q 2547 688 2547 1044 
z
M 3122 2075 
L 3122 331 
L 3634 331 
L 3634 0 
L 2547 0 
L 2547 359 
Q 2356 128 2106 18 
Q 1856 -91 1522 -91 
Q 969 -91 644 203 
Q 319 497 319 997 
Q 319 1513 691 1797 
Q 1063 2081 1741 2081 
L 2547 2081 
L 2547 2309 
Q 2547 2688 2317 2895 
Q 2088 3103 1672 3103 
Q 1328 3103 1125 2947 
Q 922 2791 872 2484 
L 575 2484 
L 575 3156 
Q 875 3284 1158 3348 
Q 1441 3413 1709 3413 
Q 2400 3413 2761 3070 
Q 3122 2728 3122 2075 
z
" transform="scale(0.015625)"/>
       <path id="DejaVuSerif-6c" d="M 1313 331 
L 1856 331 
L 1856 0 
L 184 0 
L 184 331 
L 738 331 
L 738 4531 
L 184 4531 
L 184 4863 
L 1313 4863 
L 1313 331 
z
" transform="scale(0.015625)"/>
       <path id="DejaVuSerif-20" transform="scale(0.015625)"/>
       <path id="DejaVuSerif-50" d="M 1581 2375 
L 2406 2375 
Q 2872 2375 3115 2626 
Q 3359 2878 3359 3353 
Q 3359 3831 3115 4081 
Q 2872 4331 2406 4331 
L 1581 4331 
L 1581 2375 
z
M 353 0 
L 353 331 
L 947 331 
L 947 4331 
L 353 4331 
L 353 4666 
L 2559 4666 
Q 3259 4666 3668 4311 
Q 4078 3956 4078 3353 
Q 4078 2753 3668 2397 
Q 3259 2041 2559 2041 
L 1581 2041 
L 1581 331 
L 2303 331 
L 2303 0 
L 353 0 
z
" transform="scale(0.015625)"/>
       <path id="DejaVuSerif-44" d="M 1581 331 
L 2163 331 
Q 3072 331 3558 850 
Q 4044 1369 4044 2338 
Q 4044 3306 3559 3818 
Q 3075 4331 2163 4331 
L 1581 4331 
L 1581 331 
z
M 353 0 
L 353 331 
L 947 331 
L 947 4331 
L 353 4331 
L 353 4666 
L 2209 4666 
Q 3416 4666 4089 4050 
Q 4763 3434 4763 2338 
Q 4763 1238 4088 619 
Q 3413 0 2209 0 
L 353 0 
z
" transform="scale(0.015625)"/>
       <path id="DejaVuSerif-46" d="M 353 0 
L 353 331 
L 947 331 
L 947 4331 
L 353 4331 
L 353 4666 
L 4172 4666 
L 4172 3628 
L 3788 3628 
L 3788 4281 
L 1581 4281 
L 1581 2719 
L 3175 2719 
L 3175 3303 
L 3559 3303 
L 3559 1753 
L 3175 1753 
L 3175 2338 
L 1581 2338 
L 1581 331 
L 2328 331 
L 2328 0 
L 353 0 
z
" transform="scale(0.015625)"/>
      </defs>
      <use xlink:href="#DejaVuSerif-65"/>
      <use xlink:href="#DejaVuSerif-6d" x="59.179688"/>
      <use xlink:href="#DejaVuSerif-70" x="154.003906"/>
      <use xlink:href="#DejaVuSerif-65" x="218.017578"/>
      <use xlink:href="#DejaVuSerif-72" x="277.197266"/>
      <use xlink:href="#DejaVuSerif-69" x="325"/>
      <use xlink:href="#DejaVuSerif-63" x="356.982422"/>
      <use xlink:href="#DejaVuSerif-61" x="412.988281"/>
      <use xlink:href="#DejaVuSerif-6c" x="472.607422"/>
      <use xlink:href="#DejaVuSerif-20" x="504.589844"/>
      <use xlink:href="#DejaVuSerif-50" x="536.376953"/>
      <use xlink:href="#DejaVuSerif-44" x="603.662109"/>
      <use xlink:href="#DejaVuSerif-46" x="683.837891"/>
     </g>
    </g>
    <g id="line2d_28">
     <path d="M 312.841917 34.611208 
L 322.841917 34.611208 
L 332.841917 34.611208 
" style="fill: none; stroke: #c44e52; stroke-width: 1.25; stroke-linejoin: miter"/>
    </g>
    <g id="text_16">
     <!-- semicircle -->
     <g transform="translate(340.841917 38.111208) scale(0.1 -0.1)">
      <defs>
       <path id="DejaVuSerif-73" d="M 359 184 
L 359 959 
L 691 959 
Q 703 588 923 403 
Q 1144 219 1575 219 
Q 1963 219 2166 364 
Q 2369 509 2369 788 
Q 2369 1006 2220 1140 
Q 2072 1275 1594 1428 
L 1178 1569 
Q 750 1706 558 1912 
Q 366 2119 366 2438 
Q 366 2894 700 3153 
Q 1034 3413 1625 3413 
Q 1888 3413 2178 3344 
Q 2469 3275 2778 3144 
L 2778 2419 
L 2447 2419 
Q 2434 2741 2221 2922 
Q 2009 3103 1644 3103 
Q 1281 3103 1095 2975 
Q 909 2847 909 2591 
Q 909 2381 1050 2254 
Q 1191 2128 1613 1997 
L 2069 1856 
Q 2541 1709 2748 1489 
Q 2956 1269 2956 922 
Q 2956 450 2595 179 
Q 2234 -91 1600 -91 
Q 1278 -91 972 -22 
Q 666 47 359 184 
z
" transform="scale(0.015625)"/>
      </defs>
      <use xlink:href="#DejaVuSerif-73"/>
      <use xlink:href="#DejaVuSerif-65" x="51.318359"/>
      <use xlink:href="#DejaVuSerif-6d" x="110.498047"/>
      <use xlink:href="#DejaVuSerif-69" x="205.322266"/>
      <use xlink:href="#DejaVuSerif-63" x="237.304688"/>
      <use xlink:href="#DejaVuSerif-69" x="293.310547"/>
      <use xlink:href="#DejaVuSerif-72" x="325.292969"/>
      <use xlink:href="#DejaVuSerif-63" x="373.095703"/>
      <use xlink:href="#DejaVuSerif-6c" x="429.101562"/>
      <use xlink:href="#DejaVuSerif-65" x="461.083984"/>
     </g>
    </g>
   </g>
  </g>
 </g>
 <defs>
  <clipPath id="p1392aa0292">
   <rect x="45.92112" y="2.834646" width="383.244234" height="248.130709"/>
  </clipPath>
 </defs>
</svg>
