<?xml version="1.0" encoding="utf-8" standalone="no"?>
<!DOCTYPE svg PUBLIC "-//W3C//DTD SVG 1.1//EN"
  "http://www.w3.org/Graphics/SVG/1.1/DTD/svg11.dtd">
<svg xmlns:xlink="http://www.w3.org/1999/xlink" width="432pt" height="288pt" viewBox="0 0 432 288" xmlns="http://www.w3.org/2000/svg" version="1.1">
 <metadata>
  <rdf:RDF xmlns:dc="http://purl.org/dc/elements/1.1/" xmlns:cc="http://creativecommons.org/ns#" xmlns:rdf="http://www.w3.org/1999/02/22-rdf-syntax-ns#">
   <cc:Work>
    <dc:type rdf:resource="http://purl.org/dc/dcmitype/StillImage"/>
    <dc:date>2024-12-08T00:13:24.151743</dc:date>
    <dc:format>image/svg+xml</dc:format>
    <dc:creator>
     <cc:Agent>
      <dc:title>Matplotlib v3.9.2, https://matplotlib.org/</dc:title>
     </cc:Agent>
    </dc:creator>
   </cc:Work>
  </rdf:RDF>
 </metadata>
 <defs>
  <style type="text/css">*{stroke-linejoin: round; stroke-linecap: butt}</style>
 </defs>
 <g id="figure_1">
  <g id="patch_1">
   <path d="M 0 288 
L 432 288 
L 432 0 
L 0 0 
z
" style="fill: #ffffff"/>
  </g>
  <g id="axes_1">
   <g id="patch_2">
    <path d="M 45.92112 250.965354 
L 429.165354 250.965354 
L 429.165354 2.834646 
L 45.92112 2.834646 
z
" style="fill: #ffffff"/>
   </g>
   <g id="line2d_1">
    <path d="M 56.767655 243.942787 
L 56.767655 9.857213 
L 60.34737 9.857213 
L 60.34737 10.590804 
L 63.927084 10.590804 
L 63.927084 11.079865 
L 67.506799 11.079865 
L 67.506799 10.887734 
L 71.086513 10.887734 
L 71.086513 10.678137 
L 74.666228 10.678137 
L 74.666228 11.184664 
L 78.245942 11.184664 
L 78.245942 11.568927 
L 81.825657 11.568927 
L 81.825657 10.852801 
L 85.405371 10.852801 
L 85.405371 12.354918 
L 88.985086 12.354918 
L 88.985086 11.970655 
L 96.144515 11.970655 
L 96.144515 12.092921 
L 99.724229 12.092921 
L 99.724229 12.809046 
L 106.883658 12.756646 
L 106.883658 13.402905 
L 110.463373 13.402905 
L 110.463373 13.140908 
L 114.043087 13.140908 
L 114.043087 14.625558 
L 117.622802 14.625558 
L 117.622802 13.979299 
L 121.202516 13.979299 
L 121.202516 14.905022 
L 128.361945 14.887555 
L 128.361945 15.760878 
L 131.94166 15.760878 
L 131.94166 16.075275 
L 135.521374 16.075275 
L 135.521374 16.49447 
L 139.101089 16.49447 
L 139.101089 17.821921 
L 142.680803 17.821921 
L 142.680803 18.014052 
L 146.260518 18.014052 
L 146.260518 18.363382 
L 149.840232 18.363382 
L 149.840232 19.306571 
L 153.419947 19.306571 
L 153.419947 19.498702 
L 156.999661 19.498702 
L 156.999661 20.54669 
L 160.579376 20.54669 
L 160.579376 21.105617 
L 164.15909 21.105617 
L 164.15909 21.559745 
L 167.738805 21.559745 
L 167.738805 22.86973 
L 171.318519 22.86973 
L 171.318519 23.201593 
L 174.898234 23.201593 
L 174.898234 24.721175 
L 178.477948 24.721175 
L 178.477948 24.843441 
L 182.057663 24.843441 
L 182.057663 26.135959 
L 185.637377 26.135959 
L 185.637377 26.555154 
L 189.217092 26.555154 
L 189.217092 27.882606 
L 192.796806 27.882606 
L 192.796806 28.336734 
L 196.376521 28.336734 
L 196.376521 30.467643 
L 199.956235 30.467643 
L 199.956235 30.659774 
L 203.53595 30.659774 
L 203.53595 31.917359 
L 207.115664 31.917359 
L 207.115664 32.650951 
L 210.695379 32.650951 
L 210.695379 33.83867 
L 214.275093 33.83867 
L 214.275093 35.463052 
L 217.854808 35.463052 
L 217.854808 36.074378 
L 221.434522 36.074378 
L 221.434522 37.593961 
L 225.014237 37.593961 
L 225.014237 38.362485 
L 228.593951 38.362485 
L 228.593951 39.899534 
L 232.173666 39.899534 
L 232.173666 42.047909 
L 239.333095 42.117775 
L 239.333095 44.283617 
L 242.912809 44.283617 
L 242.912809 45.366538 
L 246.492524 45.366538 
L 246.492524 46.64159 
L 250.072238 46.64159 
L 250.072238 48.807432 
L 253.651953 48.807432 
L 253.651953 50.257148 
L 257.231667 50.257148 
L 257.231667 51.497267 
L 260.811382 51.497267 
L 260.811382 53.55831 
L 264.391096 53.55831 
L 264.391096 54.169637 
L 267.970811 54.169637 
L 267.970811 56.807073 
L 271.550525 56.807073 
L 271.550525 57.802661 
L 275.13024 57.802661 
L 275.13024 60.195567 
L 278.709954 60.195567 
L 278.709954 62.01208 
L 282.289669 62.01208 
L 282.289669 63.968324 
L 285.869383 63.968324 
L 285.869383 65.802303 
L 289.449098 65.802303 
L 289.449098 67.339352 
L 293.028812 67.339352 
L 293.028812 70.308651 
L 296.608527 70.308651 
L 296.608527 71.793301 
L 300.188241 71.793301 
L 300.188241 74.063941 
L 303.767955 74.063941 
L 303.767955 75.461258 
L 307.34767 75.461258 
L 307.34767 78.867219 
L 310.927384 78.867219 
L 310.927384 81.522122 
L 314.507099 81.522122 
L 314.507099 82.954372 
L 318.086813 82.954372 
L 318.086813 85.958604 
L 321.666528 85.958604 
L 321.666528 87.914848 
L 325.246242 87.914848 
L 325.246242 91.181078 
L 328.825957 91.181078 
L 328.825957 94.010645 
L 332.405671 94.010645 
L 332.405671 96.490883 
L 335.985386 96.490883 
L 335.985386 99.285518 
L 339.5651 99.285518 
L 339.5651 102.429481 
L 343.144815 102.429481 
L 343.144815 105.695711 
L 346.724529 105.695711 
L 346.724529 109.346202 
L 350.304244 109.346202 
L 350.304244 111.861373 
L 353.883958 111.861373 
L 353.883958 115.476931 
L 357.463673 115.476931 
L 357.463673 119.38942 
L 361.043387 119.38942 
L 361.043387 123.127243 
L 364.623102 123.127243 
L 364.623102 126.969866 
L 368.202816 126.969866 
L 368.202816 131.336482 
L 371.782531 131.336482 
L 371.782531 134.952041 
L 375.362245 134.952041 
L 375.362245 139.807718 
L 378.94196 139.807718 
L 378.94196 145.169923 
L 382.521674 145.169923 
L 382.521674 149.519073 
L 386.101389 149.519073 
L 386.101389 155.352873 
L 389.681103 155.352873 
L 389.681103 161.832932 
L 393.260818 161.832932 
L 393.260818 167.649265 
L 396.840532 167.649265 
L 396.840532 174.496119 
L 400.420247 174.496119 
L 400.420247 183.08962 
L 403.999961 183.08962 
L 403.999961 192.958174 
L 407.579676 192.958174 
L 407.579676 203.734983 
L 411.15939 203.734983 
L 411.15939 221.725443 
L 414.739105 221.725443 
L 414.739105 243.279061 
L 418.318819 243.279061 
L 418.318819 243.942787 
L 418.318819 243.942787 
" clip-path="url(#p17d0b8e468)" style="fill: none; stroke: #4c72b0; stroke-width: 3"/>
   </g>
   <g id="matplotlib.axis_1">
    <g id="xtick_1">
     <g id="line2d_2">
      <defs>
       <path id="mbbe3a55b65" d="M 0 0 
L 0 -2.5 
" style="stroke: #000000; stroke-width: 0.5"/>
      </defs>
      <g>
       <use xlink:href="#mbbe3a55b65" x="56.767655" y="250.965354" style="stroke: #000000; stroke-width: 0.5"/>
      </g>
     </g>
     <g id="line2d_3">
      <defs>
       <path id="m393faa84e2" d="M 0 0 
L 0 2.5 
" style="stroke: #000000; stroke-width: 0.5"/>
      </defs>
      <g>
       <use xlink:href="#m393faa84e2" x="56.767655" y="2.834646" style="stroke: #000000; stroke-width: 0.5"/>
      </g>
     </g>
     <g id="text_1">
      <!-- $0.0$ -->
      <g transform="translate(48.767655 262.063792) scale(0.1 -0.1)">
       <defs>
        <path id="DejaVuSerif-30" d="M 2034 219 
Q 2513 219 2750 744 
Q 2988 1269 2988 2328 
Q 2988 3391 2750 3916 
Q 2513 4441 2034 4441 
Q 1556 4441 1318 3916 
Q 1081 3391 1081 2328 
Q 1081 1269 1318 744 
Q 1556 219 2034 219 
z
M 2034 -91 
Q 1275 -91 848 546 
Q 422 1184 422 2328 
Q 422 3475 848 4112 
Q 1275 4750 2034 4750 
Q 2797 4750 3222 4112 
Q 3647 3475 3647 2328 
Q 3647 1184 3222 546 
Q 2797 -91 2034 -91 
z
" transform="scale(0.015625)"/>
        <path id="DejaVuSerif-2e" d="M 603 325 
Q 603 500 722 622 
Q 841 744 1019 744 
Q 1191 744 1312 622 
Q 1434 500 1434 325 
Q 1434 153 1312 31 
Q 1191 -91 1019 -91 
Q 841 -91 722 29 
Q 603 150 603 325 
z
" transform="scale(0.015625)"/>
       </defs>
       <use xlink:href="#DejaVuSerif-30" transform="translate(0 0.78125)"/>
       <use xlink:href="#DejaVuSerif-2e" transform="translate(63.623047 0.78125)"/>
       <use xlink:href="#DejaVuSerif-30" transform="translate(95.410156 0.78125)"/>
      </g>
     </g>
    </g>
    <g id="xtick_2">
     <g id="line2d_4">
      <g>
       <use xlink:href="#mbbe3a55b65" x="146.260518" y="250.965354" style="stroke: #000000; stroke-width: 0.5"/>
      </g>
     </g>
     <g id="line2d_5">
      <g>
       <use xlink:href="#m393faa84e2" x="146.260518" y="2.834646" style="stroke: #000000; stroke-width: 0.5"/>
      </g>
     </g>
     <g id="text_2">
      <!-- $0.5$ -->
      <g transform="translate(138.260518 262.063792) scale(0.1 -0.1)">
       <defs>
        <path id="DejaVuSerif-35" d="M 3219 4666 
L 3219 4153 
L 1081 4153 
L 1081 2816 
Q 1244 2928 1461 2984 
Q 1678 3041 1947 3041 
Q 2703 3041 3140 2622 
Q 3578 2203 3578 1478 
Q 3578 738 3136 323 
Q 2694 -91 1894 -91 
Q 1572 -91 1234 -12 
Q 897 66 544 225 
L 544 1131 
L 897 1131 
Q 925 688 1179 453 
Q 1434 219 1894 219 
Q 2388 219 2653 544 
Q 2919 869 2919 1478 
Q 2919 2084 2655 2407 
Q 2391 2731 1894 2731 
Q 1613 2731 1398 2631 
Q 1184 2531 1019 2322 
L 750 2322 
L 750 4666 
L 3219 4666 
z
" transform="scale(0.015625)"/>
       </defs>
       <use xlink:href="#DejaVuSerif-30" transform="translate(0 0.78125)"/>
       <use xlink:href="#DejaVuSerif-2e" transform="translate(63.623047 0.78125)"/>
       <use xlink:href="#DejaVuSerif-35" transform="translate(95.410156 0.78125)"/>
      </g>
     </g>
    </g>
    <g id="xtick_3">
     <g id="line2d_6">
      <g>
       <use xlink:href="#mbbe3a55b65" x="235.75338" y="250.965354" style="stroke: #000000; stroke-width: 0.5"/>
      </g>
     </g>
     <g id="line2d_7">
      <g>
       <use xlink:href="#m393faa84e2" x="235.75338" y="2.834646" style="stroke: #000000; stroke-width: 0.5"/>
      </g>
     </g>
     <g id="text_3">
      <!-- $1.0$ -->
      <g transform="translate(227.75338 262.063792) scale(0.1 -0.1)">
       <defs>
        <path id="DejaVuSerif-31" d="M 909 0 
L 909 331 
L 1722 331 
L 1722 4213 
L 781 3603 
L 781 4013 
L 1919 4750 
L 2350 4750 
L 2350 331 
L 3163 331 
L 3163 0 
L 909 0 
z
" transform="scale(0.015625)"/>
       </defs>
       <use xlink:href="#DejaVuSerif-31" transform="translate(0 0.78125)"/>
       <use xlink:href="#DejaVuSerif-2e" transform="translate(63.623047 0.78125)"/>
       <use xlink:href="#DejaVuSerif-30" transform="translate(95.410156 0.78125)"/>
      </g>
     </g>
    </g>
    <g id="xtick_4">
     <g id="line2d_8">
      <g>
       <use xlink:href="#mbbe3a55b65" x="325.246242" y="250.965354" style="stroke: #000000; stroke-width: 0.5"/>
      </g>
     </g>
     <g id="line2d_9">
      <g>
       <use xlink:href="#m393faa84e2" x="325.246242" y="2.834646" style="stroke: #000000; stroke-width: 0.5"/>
      </g>
     </g>
     <g id="text_4">
      <!-- $1.5$ -->
      <g transform="translate(317.246242 262.063792) scale(0.1 -0.1)">
       <use xlink:href="#DejaVuSerif-31" transform="translate(0 0.78125)"/>
       <use xlink:href="#DejaVuSerif-2e" transform="translate(63.623047 0.78125)"/>
       <use xlink:href="#DejaVuSerif-35" transform="translate(95.410156 0.78125)"/>
      </g>
     </g>
    </g>
    <g id="xtick_5">
     <g id="line2d_10">
      <g>
       <use xlink:href="#mbbe3a55b65" x="414.739105" y="250.965354" style="stroke: #000000; stroke-width: 0.5"/>
      </g>
     </g>
     <g id="line2d_11">
      <g>
       <use xlink:href="#m393faa84e2" x="414.739105" y="2.834646" style="stroke: #000000; stroke-width: 0.5"/>
      </g>
     </g>
     <g id="text_5">
      <!-- $2.0$ -->
      <g transform="translate(406.739105 262.063792) scale(0.1 -0.1)">
       <defs>
        <path id="DejaVuSerif-32" d="M 819 3553 
L 469 3553 
L 469 4384 
Q 803 4563 1142 4656 
Q 1481 4750 1806 4750 
Q 2534 4750 2956 4397 
Q 3378 4044 3378 3438 
Q 3378 2753 2422 1800 
Q 2347 1728 2309 1691 
L 1131 513 
L 3078 513 
L 3078 1088 
L 3444 1088 
L 3444 0 
L 434 0 
L 434 341 
L 1850 1753 
Q 2319 2222 2519 2614 
Q 2719 3006 2719 3438 
Q 2719 3909 2473 4175 
Q 2228 4441 1797 4441 
Q 1350 4441 1106 4219 
Q 863 3997 819 3553 
z
" transform="scale(0.015625)"/>
       </defs>
       <use xlink:href="#DejaVuSerif-32" transform="translate(0 0.78125)"/>
       <use xlink:href="#DejaVuSerif-2e" transform="translate(63.623047 0.78125)"/>
       <use xlink:href="#DejaVuSerif-30" transform="translate(95.410156 0.78125)"/>
      </g>
     </g>
    </g>
    <g id="text_6">
     <!-- $\sqrt{\lambda}$ -->
     <g transform="translate(228.483237 279.327854) scale(0.12 -0.12)">
      <defs>
       <path id="STIXSizeOneSym-Regular-221a" d="M 6970 9933 
L 3373 -1888 
L 3104 -1888 
L 1626 2918 
Q 1555 3149 1465 3251 
Q 1376 3354 1229 3354 
Q 1011 3354 794 3181 
L 717 3309 
L 1766 4115 
L 1926 4115 
L 3379 -602 
L 3405 -602 
L 6605 9933 
L 6970 9933 
z
" transform="scale(0.015625)"/>
       <path id="DejaVuSerif-Italic-3bb" d="M 1984 4084 
Q 1925 4372 1834 4466 
Q 1744 4563 1578 4563 
Q 1391 4563 1288 4472 
Q 1178 4378 1119 4166 
L 825 4166 
L 947 4800 
Q 1113 4847 1272 4872 
Q 1431 4897 1578 4897 
Q 1925 4897 2088 4753 
Q 2253 4613 2334 4225 
L 3100 334 
L 3472 334 
L 3406 0 
L 2159 0 
L 2225 334 
L 2722 334 
L 2281 2628 
L 853 334 
L 1384 334 
L 1319 0 
L -209 0 
L -144 334 
L 234 334 
L 2116 3388 
L 1984 4084 
z
" transform="scale(0.015625)"/>
      </defs>
      <use xlink:href="#STIXSizeOneSym-Regular-221a" transform="translate(0 17.984375) scale(0.583453)"/>
      <use xlink:href="#DejaVuSerif-Italic-3bb" transform="translate(74.202362 1.234375)"/>
      <path d="M 61.702362 101.5 
L 61.702362 107.75 
L 150.081268 107.75 
L 150.081268 101.5 
L 61.702362 101.5 
z
"/>
     </g>
    </g>
   </g>
   <g id="matplotlib.axis_2">
    <g id="ytick_1">
     <g id="line2d_12">
      <defs>
       <path id="m5a095f402f" d="M 0 0 
L 2.5 0 
" style="stroke: #000000; stroke-width: 0.5"/>
      </defs>
      <g>
       <use xlink:href="#m5a095f402f" x="45.92112" y="243.942787" style="stroke: #000000; stroke-width: 0.5"/>
      </g>
     </g>
     <g id="line2d_13">
      <defs>
       <path id="m0c1a165d9f" d="M 0 0 
L -2.5 0 
" style="stroke: #000000; stroke-width: 0.5"/>
      </defs>
      <g>
       <use xlink:href="#m0c1a165d9f" x="429.165354" y="243.942787" style="stroke: #000000; stroke-width: 0.5"/>
      </g>
     </g>
     <g id="text_7">
      <!-- $0.0$ -->
      <g transform="translate(26.42112 247.742006) scale(0.1 -0.1)">
       <use xlink:href="#DejaVuSerif-30" transform="translate(0 0.78125)"/>
       <use xlink:href="#DejaVuSerif-2e" transform="translate(63.623047 0.78125)"/>
       <use xlink:href="#DejaVuSerif-30" transform="translate(95.410156 0.78125)"/>
      </g>
     </g>
    </g>
    <g id="ytick_2">
     <g id="line2d_14">
      <g>
       <use xlink:href="#m5a095f402f" x="45.92112" y="207.312953" style="stroke: #000000; stroke-width: 0.5"/>
      </g>
     </g>
     <g id="line2d_15">
      <g>
       <use xlink:href="#m0c1a165d9f" x="429.165354" y="207.312953" style="stroke: #000000; stroke-width: 0.5"/>
      </g>
     </g>
     <g id="text_8">
      <!-- $0.1$ -->
      <g transform="translate(26.42112 211.112172) scale(0.1 -0.1)">
       <use xlink:href="#DejaVuSerif-30" transform="translate(0 0.78125)"/>
       <use xlink:href="#DejaVuSerif-2e" transform="translate(63.623047 0.78125)"/>
       <use xlink:href="#DejaVuSerif-31" transform="translate(95.410156 0.78125)"/>
      </g>
     </g>
    </g>
    <g id="ytick_3">
     <g id="line2d_16">
      <g>
       <use xlink:href="#m5a095f402f" x="45.92112" y="170.68312" style="stroke: #000000; stroke-width: 0.5"/>
      </g>
     </g>
     <g id="line2d_17">
      <g>
       <use xlink:href="#m0c1a165d9f" x="429.165354" y="170.68312" style="stroke: #000000; stroke-width: 0.5"/>
      </g>
     </g>
     <g id="text_9">
      <!-- $0.2$ -->
      <g transform="translate(26.72112 174.482339) scale(0.1 -0.1)">
       <use xlink:href="#DejaVuSerif-30" transform="translate(0 0.78125)"/>
       <use xlink:href="#DejaVuSerif-2e" transform="translate(63.623047 0.78125)"/>
       <use xlink:href="#DejaVuSerif-32" transform="translate(92.785156 0.78125)"/>
      </g>
     </g>
    </g>
    <g id="ytick_4">
     <g id="line2d_18">
      <g>
       <use xlink:href="#m5a095f402f" x="45.92112" y="134.053286" style="stroke: #000000; stroke-width: 0.5"/>
      </g>
     </g>
     <g id="line2d_19">
      <g>
       <use xlink:href="#m0c1a165d9f" x="429.165354" y="134.053286" style="stroke: #000000; stroke-width: 0.5"/>
      </g>
     </g>
     <g id="text_10">
      <!-- $0.3$ -->
      <g transform="translate(26.42112 137.852505) scale(0.1 -0.1)">
       <defs>
        <path id="DejaVuSerif-33" d="M 622 4469 
Q 988 4606 1323 4678 
Q 1659 4750 1953 4750 
Q 2638 4750 3022 4454 
Q 3406 4159 3406 3634 
Q 3406 3213 3140 2930 
Q 2875 2647 2388 2547 
Q 2963 2466 3280 2130 
Q 3597 1794 3597 1259 
Q 3597 606 3158 257 
Q 2719 -91 1894 -91 
Q 1528 -91 1179 -12 
Q 831 66 488 225 
L 488 1131 
L 838 1131 
Q 869 681 1141 450 
Q 1413 219 1906 219 
Q 2384 219 2661 495 
Q 2938 772 2938 1253 
Q 2938 1803 2653 2086 
Q 2369 2369 1819 2369 
L 1522 2369 
L 1522 2688 
L 1678 2688 
Q 2225 2688 2498 2914 
Q 2772 3141 2772 3597 
Q 2772 4006 2547 4223 
Q 2322 4441 1900 4441 
Q 1478 4441 1245 4241 
Q 1013 4041 972 3647 
L 622 3647 
L 622 4469 
z
" transform="scale(0.015625)"/>
       </defs>
       <use xlink:href="#DejaVuSerif-30" transform="translate(0 0.78125)"/>
       <use xlink:href="#DejaVuSerif-2e" transform="translate(63.623047 0.78125)"/>
       <use xlink:href="#DejaVuSerif-33" transform="translate(95.410156 0.78125)"/>
      </g>
     </g>
    </g>
    <g id="ytick_5">
     <g id="line2d_20">
      <g>
       <use xlink:href="#m5a095f402f" x="45.92112" y="97.423453" style="stroke: #000000; stroke-width: 0.5"/>
      </g>
     </g>
     <g id="line2d_21">
      <g>
       <use xlink:href="#m0c1a165d9f" x="429.165354" y="97.423453" style="stroke: #000000; stroke-width: 0.5"/>
      </g>
     </g>
     <g id="text_11">
      <!-- $0.4$ -->
      <g transform="translate(26.42112 101.222671) scale(0.1 -0.1)">
       <defs>
        <path id="DejaVuSerif-34" d="M 2234 1581 
L 2234 4063 
L 641 1581 
L 2234 1581 
z
M 3609 0 
L 1484 0 
L 1484 331 
L 2234 331 
L 2234 1247 
L 197 1247 
L 197 1588 
L 2241 4750 
L 2859 4750 
L 2859 1581 
L 3750 1581 
L 3750 1247 
L 2859 1247 
L 2859 331 
L 3609 331 
L 3609 0 
z
" transform="scale(0.015625)"/>
       </defs>
       <use xlink:href="#DejaVuSerif-30" transform="translate(0 0.78125)"/>
       <use xlink:href="#DejaVuSerif-2e" transform="translate(63.623047 0.78125)"/>
       <use xlink:href="#DejaVuSerif-34" transform="translate(95.410156 0.78125)"/>
      </g>
     </g>
    </g>
    <g id="ytick_6">
     <g id="line2d_22">
      <g>
       <use xlink:href="#m5a095f402f" x="45.92112" y="60.793619" style="stroke: #000000; stroke-width: 0.5"/>
      </g>
     </g>
     <g id="line2d_23">
      <g>
       <use xlink:href="#m0c1a165d9f" x="429.165354" y="60.793619" style="stroke: #000000; stroke-width: 0.5"/>
      </g>
     </g>
     <g id="text_12">
      <!-- $0.5$ -->
      <g transform="translate(26.42112 64.592838) scale(0.1 -0.1)">
       <use xlink:href="#DejaVuSerif-30" transform="translate(0 0.78125)"/>
       <use xlink:href="#DejaVuSerif-2e" transform="translate(63.623047 0.78125)"/>
       <use xlink:href="#DejaVuSerif-35" transform="translate(95.410156 0.78125)"/>
      </g>
     </g>
    </g>
    <g id="ytick_7">
     <g id="line2d_24">
      <g>
       <use xlink:href="#m5a095f402f" x="45.92112" y="24.163785" style="stroke: #000000; stroke-width: 0.5"/>
      </g>
     </g>
     <g id="line2d_25">
      <g>
       <use xlink:href="#m0c1a165d9f" x="429.165354" y="24.163785" style="stroke: #000000; stroke-width: 0.5"/>
      </g>
     </g>
     <g id="text_13">
      <!-- $0.6$ -->
      <g transform="translate(26.42112 27.963004) scale(0.1 -0.1)">
       <defs>
        <path id="DejaVuSerif-36" d="M 2094 219 
Q 2534 219 2771 542 
Q 3009 866 3009 1472 
Q 3009 2078 2771 2401 
Q 2534 2725 2094 2725 
Q 1647 2725 1412 2412 
Q 1178 2100 1178 1509 
Q 1178 888 1415 553 
Q 1653 219 2094 219 
z
M 1075 2569 
Q 1288 2803 1556 2918 
Q 1825 3034 2163 3034 
Q 2859 3034 3264 2615 
Q 3669 2197 3669 1472 
Q 3669 763 3233 336 
Q 2797 -91 2069 -91 
Q 1278 -91 853 498 
Q 428 1088 428 2181 
Q 428 3406 931 4078 
Q 1434 4750 2350 4750 
Q 2597 4750 2869 4703 
Q 3141 4656 3425 4563 
L 3425 3794 
L 3072 3794 
Q 3034 4109 2831 4275 
Q 2628 4441 2284 4441 
Q 1678 4441 1381 3981 
Q 1084 3522 1075 2569 
z
" transform="scale(0.015625)"/>
       </defs>
       <use xlink:href="#DejaVuSerif-30" transform="translate(0 0.78125)"/>
       <use xlink:href="#DejaVuSerif-2e" transform="translate(63.623047 0.78125)"/>
       <use xlink:href="#DejaVuSerif-36" transform="translate(95.410156 0.78125)"/>
      </g>
     </g>
    </g>
    <g id="text_14">
     <!-- $p(\left\{\sqrt{\lambda}\right\})$ -->
     <g transform="translate(19.90112 150.78) rotate(-90) scale(0.12 -0.12)">
      <defs>
       <path id="DejaVuSerif-Italic-70" d="M 1466 1825 
L 1400 1497 
Q 1353 1250 1353 1053 
Q 1353 769 1453 581 
Q 1622 269 2059 269 
Q 2500 269 2795 622 
Q 3091 975 3225 1663 
Q 3284 1978 3284 2225 
Q 3284 2513 3200 2703 
Q 3041 3053 2600 3053 
Q 2163 3053 1872 2737 
Q 1581 2422 1466 1825 
z
M 1116 2988 
L 563 2988 
L 628 3322 
L 1756 3322 
L 1656 2803 
Q 1884 3116 2175 3264 
Q 2466 3413 2850 3413 
Q 3463 3413 3753 2928 
Q 3947 2609 3947 2163 
Q 3947 1928 3897 1663 
Q 3744 881 3262 395 
Q 2781 -91 2169 -91 
Q 1784 -91 1551 57 
Q 1319 206 1213 519 
L 850 -1331 
L 275 -1331 
L 1116 2988 
z
" transform="scale(0.015625)"/>
       <path id="DejaVuSerif-28" d="M 2041 -997 
Q 1281 -656 893 83 
Q 506 822 506 1931 
Q 506 3044 893 3783 
Q 1281 4522 2041 4863 
L 2041 4556 
Q 1559 4225 1350 3623 
Q 1141 3022 1141 1931 
Q 1141 844 1350 242 
Q 1559 -359 2041 -691 
L 2041 -997 
z
" transform="scale(0.015625)"/>
       <path id="STIXSizeOneSym-Regular-7b" d="M 2982 -870 
L 2982 -1050 
Q 1581 -877 1581 723 
L 1581 1798 
Q 1581 2125 1357 2441 
Q 1133 2758 730 2822 
L 730 2957 
Q 1133 3014 1357 3334 
Q 1581 3654 1581 3981 
L 1581 5056 
Q 1581 6650 2982 6822 
L 2982 6643 
Q 2573 6579 2323 6313 
Q 2074 6048 2074 5715 
Q 2074 5645 2090 5257 
Q 2106 4870 2106 4851 
L 2106 4282 
Q 2106 3277 1062 2893 
L 1062 2880 
Q 2106 2496 2106 1498 
L 2106 928 
Q 2106 915 2096 784 
Q 2086 653 2080 451 
Q 2074 250 2074 58 
Q 2074 -646 2982 -870 
z
" transform="scale(0.015625)"/>
       <path id="STIXSizeOneSym-Regular-7d" d="M 2950 2950 
L 2950 2816 
Q 2547 2758 2323 2438 
Q 2099 2118 2099 1792 
L 2099 717 
Q 2099 -877 698 -1050 
L 698 -870 
Q 1107 -806 1356 -540 
Q 1606 -275 1606 58 
Q 1606 128 1590 518 
Q 1574 909 1574 922 
L 1574 1491 
Q 1574 2496 2618 2880 
L 2618 2893 
Q 1574 3277 1574 4275 
L 1574 4845 
Q 1574 4858 1580 4989 
Q 1587 5120 1596 5321 
Q 1606 5523 1606 5715 
Q 1606 6419 698 6643 
L 698 6822 
Q 2099 6650 2099 5050 
L 2099 3974 
Q 2099 3648 2323 3331 
Q 2547 3014 2950 2950 
z
" transform="scale(0.015625)"/>
       <path id="DejaVuSerif-29" d="M 453 -997 
L 453 -691 
Q 934 -359 1145 242 
Q 1356 844 1356 1931 
Q 1356 3022 1145 3623 
Q 934 4225 453 4556 
L 453 4863 
Q 1216 4522 1603 3783 
Q 1991 3044 1991 1931 
Q 1991 822 1603 83 
Q 1216 -656 453 -997 
z
" transform="scale(0.015625)"/>
      </defs>
      <use xlink:href="#DejaVuSerif-Italic-70" transform="translate(0 0.828125)"/>
      <use xlink:href="#DejaVuSerif-28" transform="translate(64.013672 0.828125)"/>
      <use xlink:href="#STIXSizeOneSym-Regular-7b" transform="translate(103.027344 15.921875) scale(0.919715)"/>
      <use xlink:href="#STIXSizeOneSym-Regular-221a" transform="translate(155.927338 17.9375) scale(0.583453)"/>
      <use xlink:href="#DejaVuSerif-Italic-3bb" transform="translate(230.1297 1.1875)"/>
      <use xlink:href="#STIXSizeOneSym-Regular-7d" transform="translate(306.008606 15.921875) scale(0.919715)"/>
      <use xlink:href="#DejaVuSerif-29" transform="translate(358.9086 0.828125)"/>
      <path d="M 217.6297 101.453125 
L 217.6297 107.703125 
L 306.008606 107.703125 
L 306.008606 101.453125 
L 217.6297 101.453125 
z
"/>
     </g>
    </g>
   </g>
   <g id="line2d_26">
    <path d="M 56.767655 10.750024 
L 60.383528 10.76192 
L 63.999402 10.797614 
L 67.615275 10.857116 
L 71.231148 10.940443 
L 74.847021 11.047623 
L 78.462895 11.178687 
L 82.078768 11.333677 
L 85.694641 11.512639 
L 89.310514 11.715629 
L 92.926387 11.942711 
L 96.542261 12.193956 
L 100.158134 12.469441 
L 103.774007 12.769254 
L 107.38988 13.093489 
L 111.005754 13.442249 
L 114.621627 13.815647 
L 118.2375 14.213801 
L 121.853373 14.636842 
L 125.469247 15.084907 
L 129.08512 15.558143 
L 132.700993 16.056707 
L 136.316866 16.580766 
L 139.932739 17.130496 
L 143.548613 17.706085 
L 147.164486 18.30773 
L 150.780359 18.935641 
L 154.396232 19.590038 
L 158.012106 20.271154 
L 161.627979 20.979233 
L 165.243852 21.714533 
L 168.859725 22.477325 
L 172.475599 23.267895 
L 176.091472 24.086541 
L 179.707345 24.93358 
L 183.323218 25.809341 
L 186.939091 26.714172 
L 190.554965 27.648438 
L 194.170838 28.612522 
L 197.786711 29.606826 
L 201.402584 30.631773 
L 205.018458 31.687807 
L 208.634331 32.775394 
L 212.250204 33.895024 
L 215.866077 35.047213 
L 219.481951 36.232503 
L 223.097824 37.451462 
L 226.713697 38.704693 
L 230.32957 39.992825 
L 233.945443 41.316524 
L 237.561317 42.676494 
L 241.17719 44.073473 
L 244.793063 45.508243 
L 248.408936 46.981631 
L 252.02481 48.49451 
L 255.640683 50.047804 
L 259.256556 51.642492 
L 262.872429 53.279613 
L 266.488303 54.96027 
L 270.104176 56.685635 
L 273.720049 58.456956 
L 277.335922 60.275562 
L 280.951795 62.142873 
L 284.567669 64.060404 
L 288.183542 66.029781 
L 291.799415 68.052743 
L 295.415288 70.131164 
L 299.031162 72.267055 
L 302.647035 74.462591 
L 306.262908 76.720121 
L 309.878781 79.042191 
L 313.494654 81.431567 
L 317.110528 83.891264 
L 320.726401 86.424576 
L 324.342274 89.035114 
L 327.958147 91.726852 
L 331.574021 94.504178 
L 335.189894 97.371957 
L 338.805767 100.335607 
L 342.42164 103.401194 
L 346.037514 106.575541 
L 349.653387 109.866375 
L 353.26926 113.282496 
L 356.885133 116.834004 
L 360.501006 120.532589 
L 364.11688 124.3919 
L 367.732753 128.428045 
L 371.348626 132.660263 
L 374.964499 137.111854 
L 378.580373 141.811501 
L 382.196246 146.795197 
L 385.812119 152.109175 
L 389.427992 157.814546 
L 393.043866 163.995061 
L 396.659739 170.771022 
L 400.275612 178.326639 
L 403.891485 186.971267 
L 407.507358 197.306614 
L 411.123232 210.882015 
L 414.739105 243.942787 
" clip-path="url(#p17d0b8e468)" style="fill: none; stroke: #c44e52; stroke-width: 3"/>
   </g>
   <g id="patch_3">
    <path d="M 45.92112 250.965354 
L 45.92112 2.834646 
" style="fill: none; stroke: #000000; stroke-linejoin: miter; stroke-linecap: square"/>
   </g>
   <g id="patch_4">
    <path d="M 429.165354 250.965354 
L 429.165354 2.834646 
" style="fill: none; stroke: #000000; stroke-linejoin: miter; stroke-linecap: square"/>
   </g>
   <g id="patch_5">
    <path d="M 45.92112 250.965354 
L 429.165354 250.965354 
" style="fill: none; stroke: #000000; stroke-linejoin: miter; stroke-linecap: square"/>
   </g>
   <g id="patch_6">
    <path d="M 45.92112 2.834646 
L 429.165354 2.834646 
" style="fill: none; stroke: #000000; stroke-linejoin: miter; stroke-linecap: square"/>
   </g>
   <g id="legend_1">
    <g id="patch_7">
     <path d="M 304.841917 48.190896 
L 424.165354 48.190896 
L 424.165354 7.834646 
L 304.841917 7.834646 
z
" style="fill: #ffffff; stroke: #000000; stroke-linejoin: miter"/>
    </g>
    <g id="line2d_27">
     <path d="M 312.841917 19.933083 
L 322.841917 19.933083 
L 332.841917 19.933083 
" style="fill: none; stroke: #4c72b0; stroke-width: 1.25; stroke-linejoin: miter"/>
    </g>
    <g id="text_15">
     <!-- emperical PDF -->
     <g transform="translate(340.841917 23.433083) scale(0.1 -0.1)">
      <defs>
       <path id="DejaVuSerif-65" d="M 3469 1600 
L 991 1600 
L 991 1575 
Q 991 903 1244 561 
Q 1497 219 1991 219 
Q 2369 219 2611 417 
Q 2853 616 2950 1006 
L 3413 1006 
Q 3275 459 2904 184 
Q 2534 -91 1931 -91 
Q 1203 -91 761 389 
Q 319 869 319 1663 
Q 319 2450 753 2931 
Q 1188 3413 1894 3413 
Q 2647 3413 3050 2948 
Q 3453 2484 3469 1600 
z
M 2791 1931 
Q 2772 2513 2545 2808 
Q 2319 3103 1894 3103 
Q 1497 3103 1269 2806 
Q 1041 2509 991 1931 
L 2791 1931 
z
" transform="scale(0.015625)"/>
       <path id="DejaVuSerif-6d" d="M 3316 2675 
Q 3481 3041 3739 3227 
Q 3997 3413 4341 3413 
Q 4863 3413 5119 3089 
Q 5375 2766 5375 2113 
L 5375 331 
L 5894 331 
L 5894 0 
L 4300 0 
L 4300 331 
L 4800 331 
L 4800 2047 
Q 4800 2556 4650 2772 
Q 4500 2988 4153 2988 
Q 3769 2988 3567 2697 
Q 3366 2406 3366 1850 
L 3366 331 
L 3866 331 
L 3866 0 
L 2291 0 
L 2291 331 
L 2791 331 
L 2791 2069 
Q 2791 2566 2641 2777 
Q 2491 2988 2144 2988 
Q 1759 2988 1557 2697 
Q 1356 2406 1356 1850 
L 1356 331 
L 1856 331 
L 1856 0 
L 263 0 
L 263 331 
L 781 331 
L 781 2994 
L 231 2994 
L 231 3322 
L 1356 3322 
L 1356 2731 
Q 1516 3063 1762 3238 
Q 2009 3413 2322 3413 
Q 2709 3413 2968 3220 
Q 3228 3028 3316 2675 
z
" transform="scale(0.015625)"/>
       <path id="DejaVuSerif-70" d="M 1313 1825 
L 1313 1497 
Q 1313 897 1542 583 
Q 1772 269 2209 269 
Q 2650 269 2876 622 
Q 3103 975 3103 1663 
Q 3103 2353 2876 2703 
Q 2650 3053 2209 3053 
Q 1772 3053 1542 2737 
Q 1313 2422 1313 1825 
z
M 738 2988 
L 184 2988 
L 184 3322 
L 1313 3322 
L 1313 2803 
Q 1481 3116 1742 3264 
Q 2003 3413 2388 3413 
Q 3000 3413 3387 2928 
Q 3775 2444 3775 1663 
Q 3775 881 3387 395 
Q 3000 -91 2388 -91 
Q 2003 -91 1742 57 
Q 1481 206 1313 519 
L 1313 -997 
L 1856 -997 
L 1856 -1331 
L 184 -1331 
L 184 -997 
L 738 -997 
L 738 2988 
z
" transform="scale(0.015625)"/>
       <path id="DejaVuSerif-72" d="M 3059 3328 
L 3059 2497 
L 2728 2497 
Q 2713 2744 2591 2866 
Q 2469 2988 2234 2988 
Q 1809 2988 1582 2694 
Q 1356 2400 1356 1850 
L 1356 331 
L 2022 331 
L 2022 0 
L 263 0 
L 263 331 
L 781 331 
L 781 2994 
L 231 2994 
L 231 3322 
L 1356 3322 
L 1356 2731 
Q 1525 3078 1790 3245 
Q 2056 3413 2438 3413 
Q 2578 3413 2733 3391 
Q 2888 3369 3059 3328 
z
" transform="scale(0.015625)"/>
       <path id="DejaVuSerif-69" d="M 622 4353 
Q 622 4497 726 4603 
Q 831 4709 978 4709 
Q 1122 4709 1226 4603 
Q 1331 4497 1331 4353 
Q 1331 4206 1228 4103 
Q 1125 4000 978 4000 
Q 831 4000 726 4103 
Q 622 4206 622 4353 
z
M 1356 331 
L 1900 331 
L 1900 0 
L 231 0 
L 231 331 
L 781 331 
L 781 2988 
L 231 2988 
L 231 3322 
L 1356 3322 
L 1356 331 
z
" transform="scale(0.015625)"/>
       <path id="DejaVuSerif-63" d="M 3291 997 
Q 3169 466 2822 187 
Q 2475 -91 1925 -91 
Q 1200 -91 759 389 
Q 319 869 319 1663 
Q 319 2459 759 2936 
Q 1200 3413 1925 3413 
Q 2241 3413 2553 3339 
Q 2866 3266 3181 3116 
L 3181 2266 
L 2847 2266 
Q 2781 2703 2561 2903 
Q 2341 3103 1931 3103 
Q 1466 3103 1228 2742 
Q 991 2381 991 1663 
Q 991 944 1227 581 
Q 1463 219 1931 219 
Q 2303 219 2525 412 
Q 2747 606 2828 997 
L 3291 997 
z
" transform="scale(0.015625)"/>
       <path id="DejaVuSerif-61" d="M 2547 1044 
L 2547 1747 
L 1806 1747 
Q 1378 1747 1168 1562 
Q 959 1378 959 997 
Q 959 650 1171 447 
Q 1384 244 1747 244 
Q 2106 244 2326 466 
Q 2547 688 2547 1044 
z
M 3122 2075 
L 3122 331 
L 3634 331 
L 3634 0 
L 2547 0 
L 2547 359 
Q 2356 128 2106 18 
Q 1856 -91 1522 -91 
Q 969 -91 644 203 
Q 319 497 319 997 
Q 319 1513 691 1797 
Q 1063 2081 1741 2081 
L 2547 2081 
L 2547 2309 
Q 2547 2688 2317 2895 
Q 2088 3103 1672 3103 
Q 1328 3103 1125 2947 
Q 922 2791 872 2484 
L 575 2484 
L 575 3156 
Q 875 3284 1158 3348 
Q 1441 3413 1709 3413 
Q 2400 3413 2761 3070 
Q 3122 2728 3122 2075 
z
" transform="scale(0.015625)"/>
       <path id="DejaVuSerif-6c" d="M 1313 331 
L 1856 331 
L 1856 0 
L 184 0 
L 184 331 
L 738 331 
L 738 4531 
L 184 4531 
L 184 4863 
L 1313 4863 
L 1313 331 
z
" transform="scale(0.015625)"/>
       <path id="DejaVuSerif-20" transform="scale(0.015625)"/>
       <path id="DejaVuSerif-50" d="M 1581 2375 
L 2406 2375 
Q 2872 2375 3115 2626 
Q 3359 2878 3359 3353 
Q 3359 3831 3115 4081 
Q 2872 4331 2406 4331 
L 1581 4331 
L 1581 2375 
z
M 353 0 
L 353 331 
L 947 331 
L 947 4331 
L 353 4331 
L 353 4666 
L 2559 4666 
Q 3259 4666 3668 4311 
Q 4078 3956 4078 3353 
Q 4078 2753 3668 2397 
Q 3259 2041 2559 2041 
L 1581 2041 
L 1581 331 
L 2303 331 
L 2303 0 
L 353 0 
z
" transform="scale(0.015625)"/>
       <path id="DejaVuSerif-44" d="M 1581 331 
L 2163 331 
Q 3072 331 3558 850 
Q 4044 1369 4044 2338 
Q 4044 3306 3559 3818 
Q 3075 4331 2163 4331 
L 1581 4331 
L 1581 331 
z
M 353 0 
L 353 331 
L 947 331 
L 947 4331 
L 353 4331 
L 353 4666 
L 2209 4666 
Q 3416 4666 4089 4050 
Q 4763 3434 4763 2338 
Q 4763 1238 4088 619 
Q 3413 0 2209 0 
L 353 0 
z
" transform="scale(0.015625)"/>
       <path id="DejaVuSerif-46" d="M 353 0 
L 353 331 
L 947 331 
L 947 4331 
L 353 4331 
L 353 4666 
L 4172 4666 
L 4172 3628 
L 3788 3628 
L 3788 4281 
L 1581 4281 
L 1581 2719 
L 3175 2719 
L 3175 3303 
L 3559 3303 
L 3559 1753 
L 3175 1753 
L 3175 2338 
L 1581 2338 
L 1581 331 
L 2328 331 
L 2328 0 
L 353 0 
z
" transform="scale(0.015625)"/>
      </defs>
      <use xlink:href="#DejaVuSerif-65"/>
      <use xlink:href="#DejaVuSerif-6d" x="59.179688"/>
      <use xlink:href="#DejaVuSerif-70" x="154.003906"/>
      <use xlink:href="#DejaVuSerif-65" x="218.017578"/>
      <use xlink:href="#DejaVuSerif-72" x="277.197266"/>
      <use xlink:href="#DejaVuSerif-69" x="325"/>
      <use xlink:href="#DejaVuSerif-63" x="356.982422"/>
      <use xlink:href="#DejaVuSerif-61" x="412.988281"/>
      <use xlink:href="#DejaVuSerif-6c" x="472.607422"/>
      <use xlink:href="#DejaVuSerif-20" x="504.589844"/>
      <use xlink:href="#DejaVuSerif-50" x="536.376953"/>
      <use xlink:href="#DejaVuSerif-44" x="603.662109"/>
      <use xlink:href="#DejaVuSerif-46" x="683.837891"/>
     </g>
    </g>
    <g id="line2d_28">
     <path d="M 312.841917 34.611208 
L 322.841917 34.611208 
L 332.841917 34.611208 
" style="fill: none; stroke: #c44e52; stroke-width: 1.25; stroke-linejoin: miter"/>
    </g>
    <g id="text_16">
     <!-- semicircle -->
     <g transform="translate(340.841917 38.111208) scale(0.1 -0.1)">
      <defs>
       <path id="DejaVuSerif-73" d="M 359 184 
L 359 959 
L 691 959 
Q 703 588 923 403 
Q 1144 219 1575 219 
Q 1963 219 2166 364 
Q 2369 509 2369 788 
Q 2369 1006 2220 1140 
Q 2072 1275 1594 1428 
L 1178 1569 
Q 750 1706 558 1912 
Q 366 2119 366 2438 
Q 366 2894 700 3153 
Q 1034 3413 1625 3413 
Q 1888 3413 2178 3344 
Q 2469 3275 2778 3144 
L 2778 2419 
L 2447 2419 
Q 2434 2741 2221 2922 
Q 2009 3103 1644 3103 
Q 1281 3103 1095 2975 
Q 909 2847 909 2591 
Q 909 2381 1050 2254 
Q 1191 2128 1613 1997 
L 2069 1856 
Q 2541 1709 2748 1489 
Q 2956 1269 2956 922 
Q 2956 450 2595 179 
Q 2234 -91 1600 -91 
Q 1278 -91 972 -22 
Q 666 47 359 184 
z
" transform="scale(0.015625)"/>
      </defs>
      <use xlink:href="#DejaVuSerif-73"/>
      <use xlink:href="#DejaVuSerif-65" x="51.318359"/>
      <use xlink:href="#DejaVuSerif-6d" x="110.498047"/>
      <use xlink:href="#DejaVuSerif-69" x="205.322266"/>
      <use xlink:href="#DejaVuSerif-63" x="237.304688"/>
      <use xlink:href="#DejaVuSerif-69" x="293.310547"/>
      <use xlink:href="#DejaVuSerif-72" x="325.292969"/>
      <use xlink:href="#DejaVuSerif-63" x="373.095703"/>
      <use xlink:href="#DejaVuSerif-6c" x="429.101562"/>
      <use xlink:href="#DejaVuSerif-65" x="461.083984"/>
     </g>
    </g>
   </g>
  </g>
 </g>
 <defs>
  <clipPath id="p17d0b8e468">
   <rect x="45.92112" y="2.834646" width="383.244234" height="248.130709"/>
  </clipPath>
 </defs>
</svg>
