<?xml version="1.0" encoding="utf-8" standalone="no"?>
<!DOCTYPE svg PUBLIC "-//W3C//DTD SVG 1.1//EN"
  "http://www.w3.org/Graphics/SVG/1.1/DTD/svg11.dtd">
<svg xmlns:xlink="http://www.w3.org/1999/xlink" width="432pt" height="288pt" viewBox="0 0 432 288" xmlns="http://www.w3.org/2000/svg" version="1.1">
 <metadata>
  <rdf:RDF xmlns:dc="http://purl.org/dc/elements/1.1/" xmlns:cc="http://creativecommons.org/ns#" xmlns:rdf="http://www.w3.org/1999/02/22-rdf-syntax-ns#">
   <cc:Work>
    <dc:type rdf:resource="http://purl.org/dc/dcmitype/StillImage"/>
    <dc:date>2025-01-19T09:44:04.965338</dc:date>
    <dc:format>image/svg+xml</dc:format>
    <dc:creator>
     <cc:Agent>
      <dc:title>Matplotlib v3.9.2, https://matplotlib.org/</dc:title>
     </cc:Agent>
    </dc:creator>
   </cc:Work>
  </rdf:RDF>
 </metadata>
 <defs>
  <style type="text/css">*{stroke-linejoin: round; stroke-linecap: butt}</style>
 </defs>
 <g id="figure_1">
  <g id="patch_1">
   <path d="M 0 288 
L 432 288 
L 432 0 
L 0 0 
z
" style="fill: #ffffff"/>
  </g>
  <g id="axes_1">
   <g id="patch_2">
    <path d="M 41.160173 251.745354 
L 429.165354 251.745354 
L 429.165354 2.834646 
L 41.160173 2.834646 
z
" style="fill: #ffffff"/>
   </g>
   <g id="line2d_1">
    <path d="M 52.141452 9.879288 
L 128.706187 51.195426 
L 164.306762 63.998668 
L 187.756261 72.645014 
L 205.270922 79.368045 
L 219.25611 84.867875 
L 230.898481 89.565385 
L 240.871497 93.787478 
L 249.594395 97.509579 
L 257.345957 100.950907 
L 264.320996 104.071772 
L 270.661022 106.899804 
L 276.472071 109.937117 
L 281.835658 112.367359 
L 286.815792 115.123397 
L 291.463662 117.003366 
L 295.820845 119.470763 
L 299.92157 121.820838 
L 303.794357 123.624466 
L 307.463216 126.23989 
L 310.948553 127.602092 
L 314.267858 130.921441 
L 317.436232 131.919577 
L 320.466806 133.832092 
L 323.371069 135.401746 
L 326.15913 137.035798 
L 328.839931 139.651222 
L 331.42142 141.150486 
L 333.910692 143.694854 
L 336.314111 145.217428 
L 338.6374 147.624062 
L 340.885731 147.882045 
L 343.06379 151.909539 
L 345.175838 151.909539 
L 347.225757 155.405226 
L 349.217099 155.792208 
L 351.153118 158.515941 
L 353.036807 161.163955 
L 354.870919 164.847007 
L 356.657997 165.161623 
L 358.400393 165.161623 
L 360.100288 168.250221 
L 361.759705 174.835002 
L 363.380527 175.910194 
L 364.96451 177.048667 
L 366.513289 186.737899 
L 368.028397 179.548715 
L 369.511267 182.420414 
L 370.963241 195.072886 
L 372.38558 189.88239 
L 373.779471 193.63901 
L 375.146029 202.187795 
L 376.486306 195.072886 
L 377.801292 223.444253 
L 379.091926 196.621589 
L 380.359092 210.032921 
L 381.603629 213.560563 
L 382.826331 213.560563 
L 384.027951 231.28938 
L 385.209204 223.444253 
L 386.370768 217.878047 
L 387.513289 244.700712 
L 388.637381 223.444253 
" clip-path="url(#p16d6a4613f)" style="fill: none; stroke: #ff3b42"/>
   </g>
   <g id="line2d_2">
    <path d="M 390.832593 244.700712 
" clip-path="url(#p16d6a4613f)" style="fill: none; stroke: #ff3b42"/>
   </g>
   <g id="line2d_3">
    <path d="M 392.960766 244.700712 
" clip-path="url(#p16d6a4613f)" style="fill: none; stroke: #ff3b42"/>
   </g>
   <g id="line2d_4">
    <path d="M 398.013139 244.700712 
L 398.981102 244.700712 
" clip-path="url(#p16d6a4613f)" style="fill: none; stroke: #ff3b42"/>
   </g>
   <g id="line2d_5">
    <path d="M 405.404666 244.700712 
" clip-path="url(#p16d6a4613f)" style="fill: none; stroke: #ff3b42"/>
   </g>
   <g id="line2d_6">
    <path d="M 418.184076 244.700712 
" clip-path="url(#p16d6a4613f)" style="fill: none; stroke: #ff3b42"/>
   </g>
   <g id="PathCollection_1">
    <defs>
     <path id="me607463cc7" d="M -0.765367 -1.847759 
L -1.847759 -0.765367 
L -1.847759 0.765367 
L -0.765367 1.847759 
L 0.765367 1.847759 
L 1.847759 0.765367 
L 1.847759 -0.765367 
L 0.765367 -1.847759 
z
"/>
    </defs>
    <g clip-path="url(#p16d6a4613f)">
     <use xlink:href="#me607463cc7" x="52.141452" y="9.879288" style="fill: #ff3b42"/>
     <use xlink:href="#me607463cc7" x="128.706187" y="51.195426" style="fill: #ff3b42"/>
     <use xlink:href="#me607463cc7" x="164.306762" y="63.998668" style="fill: #ff3b42"/>
     <use xlink:href="#me607463cc7" x="187.756261" y="72.645014" style="fill: #ff3b42"/>
     <use xlink:href="#me607463cc7" x="205.270922" y="79.368045" style="fill: #ff3b42"/>
     <use xlink:href="#me607463cc7" x="219.25611" y="84.867875" style="fill: #ff3b42"/>
     <use xlink:href="#me607463cc7" x="230.898481" y="89.565385" style="fill: #ff3b42"/>
     <use xlink:href="#me607463cc7" x="240.871497" y="93.787478" style="fill: #ff3b42"/>
     <use xlink:href="#me607463cc7" x="249.594395" y="97.509579" style="fill: #ff3b42"/>
     <use xlink:href="#me607463cc7" x="257.345957" y="100.950907" style="fill: #ff3b42"/>
     <use xlink:href="#me607463cc7" x="264.320996" y="104.071772" style="fill: #ff3b42"/>
     <use xlink:href="#me607463cc7" x="270.661022" y="106.899804" style="fill: #ff3b42"/>
     <use xlink:href="#me607463cc7" x="276.472071" y="109.937117" style="fill: #ff3b42"/>
     <use xlink:href="#me607463cc7" x="281.835658" y="112.367359" style="fill: #ff3b42"/>
     <use xlink:href="#me607463cc7" x="286.815792" y="115.123397" style="fill: #ff3b42"/>
     <use xlink:href="#me607463cc7" x="291.463662" y="117.003366" style="fill: #ff3b42"/>
     <use xlink:href="#me607463cc7" x="295.820845" y="119.470763" style="fill: #ff3b42"/>
     <use xlink:href="#me607463cc7" x="299.92157" y="121.820838" style="fill: #ff3b42"/>
     <use xlink:href="#me607463cc7" x="303.794357" y="123.624466" style="fill: #ff3b42"/>
     <use xlink:href="#me607463cc7" x="307.463216" y="126.23989" style="fill: #ff3b42"/>
     <use xlink:href="#me607463cc7" x="310.948553" y="127.602092" style="fill: #ff3b42"/>
     <use xlink:href="#me607463cc7" x="314.267858" y="130.921441" style="fill: #ff3b42"/>
     <use xlink:href="#me607463cc7" x="317.436232" y="131.919577" style="fill: #ff3b42"/>
     <use xlink:href="#me607463cc7" x="320.466806" y="133.832092" style="fill: #ff3b42"/>
     <use xlink:href="#me607463cc7" x="323.371069" y="135.401746" style="fill: #ff3b42"/>
     <use xlink:href="#me607463cc7" x="326.15913" y="137.035798" style="fill: #ff3b42"/>
     <use xlink:href="#me607463cc7" x="328.839931" y="139.651222" style="fill: #ff3b42"/>
     <use xlink:href="#me607463cc7" x="331.42142" y="141.150486" style="fill: #ff3b42"/>
     <use xlink:href="#me607463cc7" x="333.910692" y="143.694854" style="fill: #ff3b42"/>
     <use xlink:href="#me607463cc7" x="336.314111" y="145.217428" style="fill: #ff3b42"/>
     <use xlink:href="#me607463cc7" x="338.6374" y="147.624062" style="fill: #ff3b42"/>
     <use xlink:href="#me607463cc7" x="340.885731" y="147.882045" style="fill: #ff3b42"/>
     <use xlink:href="#me607463cc7" x="343.06379" y="151.909539" style="fill: #ff3b42"/>
     <use xlink:href="#me607463cc7" x="345.175838" y="151.909539" style="fill: #ff3b42"/>
     <use xlink:href="#me607463cc7" x="347.225757" y="155.405226" style="fill: #ff3b42"/>
     <use xlink:href="#me607463cc7" x="349.217099" y="155.792208" style="fill: #ff3b42"/>
     <use xlink:href="#me607463cc7" x="351.153118" y="158.515941" style="fill: #ff3b42"/>
     <use xlink:href="#me607463cc7" x="353.036807" y="161.163955" style="fill: #ff3b42"/>
     <use xlink:href="#me607463cc7" x="354.870919" y="164.847007" style="fill: #ff3b42"/>
     <use xlink:href="#me607463cc7" x="356.657997" y="165.161623" style="fill: #ff3b42"/>
     <use xlink:href="#me607463cc7" x="358.400393" y="165.161623" style="fill: #ff3b42"/>
     <use xlink:href="#me607463cc7" x="360.100288" y="168.250221" style="fill: #ff3b42"/>
     <use xlink:href="#me607463cc7" x="361.759705" y="174.835002" style="fill: #ff3b42"/>
     <use xlink:href="#me607463cc7" x="363.380527" y="175.910194" style="fill: #ff3b42"/>
     <use xlink:href="#me607463cc7" x="364.96451" y="177.048667" style="fill: #ff3b42"/>
     <use xlink:href="#me607463cc7" x="366.513289" y="186.737899" style="fill: #ff3b42"/>
     <use xlink:href="#me607463cc7" x="368.028397" y="179.548715" style="fill: #ff3b42"/>
     <use xlink:href="#me607463cc7" x="369.511267" y="182.420414" style="fill: #ff3b42"/>
     <use xlink:href="#me607463cc7" x="370.963241" y="195.072886" style="fill: #ff3b42"/>
     <use xlink:href="#me607463cc7" x="372.38558" y="189.88239" style="fill: #ff3b42"/>
     <use xlink:href="#me607463cc7" x="373.779471" y="193.63901" style="fill: #ff3b42"/>
     <use xlink:href="#me607463cc7" x="375.146029" y="202.187795" style="fill: #ff3b42"/>
     <use xlink:href="#me607463cc7" x="376.486306" y="195.072886" style="fill: #ff3b42"/>
     <use xlink:href="#me607463cc7" x="377.801292" y="223.444253" style="fill: #ff3b42"/>
     <use xlink:href="#me607463cc7" x="379.091926" y="196.621589" style="fill: #ff3b42"/>
     <use xlink:href="#me607463cc7" x="380.359092" y="210.032921" style="fill: #ff3b42"/>
     <use xlink:href="#me607463cc7" x="381.603629" y="213.560563" style="fill: #ff3b42"/>
     <use xlink:href="#me607463cc7" x="382.826331" y="213.560563" style="fill: #ff3b42"/>
     <use xlink:href="#me607463cc7" x="384.027951" y="231.28938" style="fill: #ff3b42"/>
     <use xlink:href="#me607463cc7" x="385.209204" y="223.444253" style="fill: #ff3b42"/>
     <use xlink:href="#me607463cc7" x="386.370768" y="217.878047" style="fill: #ff3b42"/>
     <use xlink:href="#me607463cc7" x="387.513289" y="244.700712" style="fill: #ff3b42"/>
     <use xlink:href="#me607463cc7" x="388.637381" y="223.444253" style="fill: #ff3b42"/>
    </g>
   </g>
   <g id="PathCollection_2">
    <g clip-path="url(#p16d6a4613f)">
     <use xlink:href="#me607463cc7" x="390.832593" y="244.700712" style="fill: #ff3b42"/>
    </g>
   </g>
   <g id="PathCollection_3">
    <g clip-path="url(#p16d6a4613f)">
     <use xlink:href="#me607463cc7" x="392.960766" y="244.700712" style="fill: #ff3b42"/>
    </g>
   </g>
   <g id="PathCollection_4">
    <g clip-path="url(#p16d6a4613f)">
     <use xlink:href="#me607463cc7" x="398.013139" y="244.700712" style="fill: #ff3b42"/>
     <use xlink:href="#me607463cc7" x="398.981102" y="244.700712" style="fill: #ff3b42"/>
    </g>
   </g>
   <g id="PathCollection_5">
    <g clip-path="url(#p16d6a4613f)">
     <use xlink:href="#me607463cc7" x="405.404666" y="244.700712" style="fill: #ff3b42"/>
    </g>
   </g>
   <g id="PathCollection_6">
    <g clip-path="url(#p16d6a4613f)">
     <use xlink:href="#me607463cc7" x="418.184076" y="244.700712" style="fill: #ff3b42"/>
    </g>
   </g>
   <g id="matplotlib.axis_1">
    <g id="xtick_1">
     <g id="line2d_7">
      <defs>
       <path id="m146f469b53" d="M 0 0 
L 0 -2.5 
" style="stroke: #000000; stroke-width: 0.5"/>
      </defs>
      <g>
       <use xlink:href="#m146f469b53" x="52.141452" y="251.745354" style="stroke: #000000; stroke-width: 0.5"/>
      </g>
     </g>
     <g id="line2d_8">
      <defs>
       <path id="mb2813a8968" d="M 0 0 
L 0 2.5 
" style="stroke: #000000; stroke-width: 0.5"/>
      </defs>
      <g>
       <use xlink:href="#mb2813a8968" x="52.141452" y="2.834646" style="stroke: #000000; stroke-width: 0.5"/>
      </g>
     </g>
     <g id="text_1">
      <!-- $-1.0$ -->
      <g transform="translate(39.991452 262.843792) scale(0.1 -0.1)">
       <defs>
        <path id="DejaVuSerif-2212" d="M 678 2259 
L 4684 2259 
L 4684 1753 
L 678 1753 
L 678 2259 
z
" transform="scale(0.015625)"/>
        <path id="DejaVuSerif-31" d="M 909 0 
L 909 331 
L 1722 331 
L 1722 4213 
L 781 3603 
L 781 4013 
L 1919 4750 
L 2350 4750 
L 2350 331 
L 3163 331 
L 3163 0 
L 909 0 
z
" transform="scale(0.015625)"/>
        <path id="DejaVuSerif-2e" d="M 603 325 
Q 603 500 722 622 
Q 841 744 1019 744 
Q 1191 744 1312 622 
Q 1434 500 1434 325 
Q 1434 153 1312 31 
Q 1191 -91 1019 -91 
Q 841 -91 722 29 
Q 603 150 603 325 
z
" transform="scale(0.015625)"/>
        <path id="DejaVuSerif-30" d="M 2034 219 
Q 2513 219 2750 744 
Q 2988 1269 2988 2328 
Q 2988 3391 2750 3916 
Q 2513 4441 2034 4441 
Q 1556 4441 1318 3916 
Q 1081 3391 1081 2328 
Q 1081 1269 1318 744 
Q 1556 219 2034 219 
z
M 2034 -91 
Q 1275 -91 848 546 
Q 422 1184 422 2328 
Q 422 3475 848 4112 
Q 1275 4750 2034 4750 
Q 2797 4750 3222 4112 
Q 3647 3475 3647 2328 
Q 3647 1184 3222 546 
Q 2797 -91 2034 -91 
z
" transform="scale(0.015625)"/>
       </defs>
       <use xlink:href="#DejaVuSerif-2212" transform="translate(0 0.78125)"/>
       <use xlink:href="#DejaVuSerif-31" transform="translate(83.789062 0.78125)"/>
       <use xlink:href="#DejaVuSerif-2e" transform="translate(147.412109 0.78125)"/>
       <use xlink:href="#DejaVuSerif-30" transform="translate(179.199219 0.78125)"/>
      </g>
     </g>
    </g>
    <g id="xtick_2">
     <g id="line2d_9">
      <g>
       <use xlink:href="#m146f469b53" x="132.377591" y="251.745354" style="stroke: #000000; stroke-width: 0.5"/>
      </g>
     </g>
     <g id="line2d_10">
      <g>
       <use xlink:href="#mb2813a8968" x="132.377591" y="2.834646" style="stroke: #000000; stroke-width: 0.5"/>
      </g>
     </g>
     <g id="text_2">
      <!-- $-0.5$ -->
      <g transform="translate(120.227591 262.843792) scale(0.1 -0.1)">
       <defs>
        <path id="DejaVuSerif-35" d="M 3219 4666 
L 3219 4153 
L 1081 4153 
L 1081 2816 
Q 1244 2928 1461 2984 
Q 1678 3041 1947 3041 
Q 2703 3041 3140 2622 
Q 3578 2203 3578 1478 
Q 3578 738 3136 323 
Q 2694 -91 1894 -91 
Q 1572 -91 1234 -12 
Q 897 66 544 225 
L 544 1131 
L 897 1131 
Q 925 688 1179 453 
Q 1434 219 1894 219 
Q 2388 219 2653 544 
Q 2919 869 2919 1478 
Q 2919 2084 2655 2407 
Q 2391 2731 1894 2731 
Q 1613 2731 1398 2631 
Q 1184 2531 1019 2322 
L 750 2322 
L 750 4666 
L 3219 4666 
z
" transform="scale(0.015625)"/>
       </defs>
       <use xlink:href="#DejaVuSerif-2212" transform="translate(0 0.78125)"/>
       <use xlink:href="#DejaVuSerif-30" transform="translate(83.789062 0.78125)"/>
       <use xlink:href="#DejaVuSerif-2e" transform="translate(147.412109 0.78125)"/>
       <use xlink:href="#DejaVuSerif-35" transform="translate(179.199219 0.78125)"/>
      </g>
     </g>
    </g>
    <g id="xtick_3">
     <g id="line2d_11">
      <g>
       <use xlink:href="#m146f469b53" x="212.613731" y="251.745354" style="stroke: #000000; stroke-width: 0.5"/>
      </g>
     </g>
     <g id="line2d_12">
      <g>
       <use xlink:href="#mb2813a8968" x="212.613731" y="2.834646" style="stroke: #000000; stroke-width: 0.5"/>
      </g>
     </g>
     <g id="text_3">
      <!-- $0.0$ -->
      <g transform="translate(204.613731 262.843792) scale(0.1 -0.1)">
       <use xlink:href="#DejaVuSerif-30" transform="translate(0 0.78125)"/>
       <use xlink:href="#DejaVuSerif-2e" transform="translate(63.623047 0.78125)"/>
       <use xlink:href="#DejaVuSerif-30" transform="translate(95.410156 0.78125)"/>
      </g>
     </g>
    </g>
    <g id="xtick_4">
     <g id="line2d_13">
      <g>
       <use xlink:href="#m146f469b53" x="292.849871" y="251.745354" style="stroke: #000000; stroke-width: 0.5"/>
      </g>
     </g>
     <g id="line2d_14">
      <g>
       <use xlink:href="#mb2813a8968" x="292.849871" y="2.834646" style="stroke: #000000; stroke-width: 0.5"/>
      </g>
     </g>
     <g id="text_4">
      <!-- $0.5$ -->
      <g transform="translate(284.849871 262.843792) scale(0.1 -0.1)">
       <use xlink:href="#DejaVuSerif-30" transform="translate(0 0.78125)"/>
       <use xlink:href="#DejaVuSerif-2e" transform="translate(63.623047 0.78125)"/>
       <use xlink:href="#DejaVuSerif-35" transform="translate(95.410156 0.78125)"/>
      </g>
     </g>
    </g>
    <g id="xtick_5">
     <g id="line2d_15">
      <g>
       <use xlink:href="#m146f469b53" x="373.086011" y="251.745354" style="stroke: #000000; stroke-width: 0.5"/>
      </g>
     </g>
     <g id="line2d_16">
      <g>
       <use xlink:href="#mb2813a8968" x="373.086011" y="2.834646" style="stroke: #000000; stroke-width: 0.5"/>
      </g>
     </g>
     <g id="text_5">
      <!-- $1.0$ -->
      <g transform="translate(365.086011 262.843792) scale(0.1 -0.1)">
       <use xlink:href="#DejaVuSerif-31" transform="translate(0 0.78125)"/>
       <use xlink:href="#DejaVuSerif-2e" transform="translate(63.623047 0.78125)"/>
       <use xlink:href="#DejaVuSerif-30" transform="translate(95.410156 0.78125)"/>
      </g>
     </g>
    </g>
    <g id="text_6">
     <!-- $\log(r)$ -->
     <g transform="translate(218.182764 278.043479) scale(0.12 -0.12)">
      <defs>
       <path id="DejaVuSerif-6c" d="M 1313 331 
L 1856 331 
L 1856 0 
L 184 0 
L 184 331 
L 738 331 
L 738 4531 
L 184 4531 
L 184 4863 
L 1313 4863 
L 1313 331 
z
" transform="scale(0.015625)"/>
       <path id="DejaVuSerif-6f" d="M 1925 219 
Q 2388 219 2623 584 
Q 2859 950 2859 1663 
Q 2859 2375 2623 2739 
Q 2388 3103 1925 3103 
Q 1463 3103 1227 2739 
Q 991 2375 991 1663 
Q 991 950 1228 584 
Q 1466 219 1925 219 
z
M 1925 -91 
Q 1200 -91 759 389 
Q 319 869 319 1663 
Q 319 2456 758 2934 
Q 1197 3413 1925 3413 
Q 2653 3413 3092 2934 
Q 3531 2456 3531 1663 
Q 3531 869 3092 389 
Q 2653 -91 1925 -91 
z
" transform="scale(0.015625)"/>
       <path id="DejaVuSerif-67" d="M 3359 2988 
L 3359 72 
Q 3359 -644 2965 -1033 
Q 2572 -1422 1844 -1422 
Q 1516 -1422 1216 -1362 
Q 916 -1303 641 -1184 
L 641 -488 
L 941 -488 
Q 997 -813 1206 -963 
Q 1416 -1113 1806 -1113 
Q 2313 -1113 2548 -827 
Q 2784 -541 2784 72 
L 2784 519 
Q 2616 206 2355 57 
Q 2094 -91 1709 -91 
Q 1097 -91 708 395 
Q 319 881 319 1663 
Q 319 2444 706 2928 
Q 1094 3413 1709 3413 
Q 2094 3413 2355 3264 
Q 2616 3116 2784 2803 
L 2784 3322 
L 3909 3322 
L 3909 2988 
L 3359 2988 
z
M 2784 1825 
Q 2784 2422 2554 2737 
Q 2325 3053 1888 3053 
Q 1444 3053 1217 2703 
Q 991 2353 991 1663 
Q 991 975 1217 622 
Q 1444 269 1888 269 
Q 2325 269 2554 583 
Q 2784 897 2784 1497 
L 2784 1825 
z
" transform="scale(0.015625)"/>
       <path id="DejaVuSerif-28" d="M 2041 -997 
Q 1281 -656 893 83 
Q 506 822 506 1931 
Q 506 3044 893 3783 
Q 1281 4522 2041 4863 
L 2041 4556 
Q 1559 4225 1350 3623 
Q 1141 3022 1141 1931 
Q 1141 844 1350 242 
Q 1559 -359 2041 -691 
L 2041 -997 
z
" transform="scale(0.015625)"/>
       <path id="DejaVuSerif-Italic-72" d="M 3375 3328 
L 3213 2497 
L 2881 2497 
Q 2891 2559 2891 2613 
Q 2891 2775 2816 2866 
Q 2719 2988 2484 2988 
Q 2059 2988 1775 2694 
Q 1491 2400 1384 1850 
L 1025 0 
L 450 0 
L 1031 2994 
L 481 2994 
L 544 3322 
L 1669 3322 
L 1556 2731 
Q 1791 3078 2089 3245 
Q 2388 3413 2769 3413 
Q 2909 3413 3059 3391 
Q 3209 3369 3375 3328 
z
" transform="scale(0.015625)"/>
       <path id="DejaVuSerif-29" d="M 453 -997 
L 453 -691 
Q 934 -359 1145 242 
Q 1356 844 1356 1931 
Q 1356 3022 1145 3623 
Q 934 4225 453 4556 
L 453 4863 
Q 1216 4522 1603 3783 
Q 1991 3044 1991 1931 
Q 1991 822 1603 83 
Q 1216 -656 453 -997 
z
" transform="scale(0.015625)"/>
      </defs>
      <use xlink:href="#DejaVuSerif-6c" transform="translate(0 0.015625)"/>
      <use xlink:href="#DejaVuSerif-6f" transform="translate(31.982422 0.015625)"/>
      <use xlink:href="#DejaVuSerif-67" transform="translate(92.1875 0.015625)"/>
      <use xlink:href="#DejaVuSerif-28" transform="translate(156.201172 0.015625)"/>
      <use xlink:href="#DejaVuSerif-Italic-72" transform="translate(195.214844 0.015625)"/>
      <use xlink:href="#DejaVuSerif-29" transform="translate(243.017578 0.015625)"/>
     </g>
    </g>
   </g>
   <g id="matplotlib.axis_2">
    <g id="ytick_1">
     <g id="line2d_17">
      <defs>
       <path id="m6a2da5d172" d="M 0 0 
L 2.5 0 
" style="stroke: #000000; stroke-width: 0.5"/>
      </defs>
      <g>
       <use xlink:href="#m6a2da5d172" x="41.160173" y="212.947513" style="stroke: #000000; stroke-width: 0.5"/>
      </g>
     </g>
     <g id="line2d_18">
      <defs>
       <path id="m7d7b15aeda" d="M 0 0 
L -2.5 0 
" style="stroke: #000000; stroke-width: 0.5"/>
      </defs>
      <g>
       <use xlink:href="#m7d7b15aeda" x="429.165354" y="212.947513" style="stroke: #000000; stroke-width: 0.5"/>
      </g>
     </g>
     <g id="text_7">
      <!-- $-4$ -->
      <g transform="translate(22.860173 216.746731) scale(0.1 -0.1)">
       <defs>
        <path id="DejaVuSerif-34" d="M 2234 1581 
L 2234 4063 
L 641 1581 
L 2234 1581 
z
M 3609 0 
L 1484 0 
L 1484 331 
L 2234 331 
L 2234 1247 
L 197 1247 
L 197 1588 
L 2241 4750 
L 2859 4750 
L 2859 1581 
L 3750 1581 
L 3750 1247 
L 2859 1247 
L 2859 331 
L 3609 331 
L 3609 0 
z
" transform="scale(0.015625)"/>
       </defs>
       <use xlink:href="#DejaVuSerif-2212" transform="translate(0 0.78125)"/>
       <use xlink:href="#DejaVuSerif-34" transform="translate(83.789062 0.78125)"/>
      </g>
     </g>
    </g>
    <g id="ytick_2">
     <g id="line2d_19">
      <g>
       <use xlink:href="#m6a2da5d172" x="41.160173" y="168.396032" style="stroke: #000000; stroke-width: 0.5"/>
      </g>
     </g>
     <g id="line2d_20">
      <g>
       <use xlink:href="#m7d7b15aeda" x="429.165354" y="168.396032" style="stroke: #000000; stroke-width: 0.5"/>
      </g>
     </g>
     <g id="text_8">
      <!-- $-3$ -->
      <g transform="translate(22.860173 172.19525) scale(0.1 -0.1)">
       <defs>
        <path id="DejaVuSerif-33" d="M 622 4469 
Q 988 4606 1323 4678 
Q 1659 4750 1953 4750 
Q 2638 4750 3022 4454 
Q 3406 4159 3406 3634 
Q 3406 3213 3140 2930 
Q 2875 2647 2388 2547 
Q 2963 2466 3280 2130 
Q 3597 1794 3597 1259 
Q 3597 606 3158 257 
Q 2719 -91 1894 -91 
Q 1528 -91 1179 -12 
Q 831 66 488 225 
L 488 1131 
L 838 1131 
Q 869 681 1141 450 
Q 1413 219 1906 219 
Q 2384 219 2661 495 
Q 2938 772 2938 1253 
Q 2938 1803 2653 2086 
Q 2369 2369 1819 2369 
L 1522 2369 
L 1522 2688 
L 1678 2688 
Q 2225 2688 2498 2914 
Q 2772 3141 2772 3597 
Q 2772 4006 2547 4223 
Q 2322 4441 1900 4441 
Q 1478 4441 1245 4241 
Q 1013 4041 972 3647 
L 622 3647 
L 622 4469 
z
" transform="scale(0.015625)"/>
       </defs>
       <use xlink:href="#DejaVuSerif-2212" transform="translate(0 0.78125)"/>
       <use xlink:href="#DejaVuSerif-33" transform="translate(83.789062 0.78125)"/>
      </g>
     </g>
    </g>
    <g id="ytick_3">
     <g id="line2d_21">
      <g>
       <use xlink:href="#m6a2da5d172" x="41.160173" y="123.844551" style="stroke: #000000; stroke-width: 0.5"/>
      </g>
     </g>
     <g id="line2d_22">
      <g>
       <use xlink:href="#m7d7b15aeda" x="429.165354" y="123.844551" style="stroke: #000000; stroke-width: 0.5"/>
      </g>
     </g>
     <g id="text_9">
      <!-- $-2$ -->
      <g transform="translate(22.860173 127.643769) scale(0.1 -0.1)">
       <defs>
        <path id="DejaVuSerif-32" d="M 819 3553 
L 469 3553 
L 469 4384 
Q 803 4563 1142 4656 
Q 1481 4750 1806 4750 
Q 2534 4750 2956 4397 
Q 3378 4044 3378 3438 
Q 3378 2753 2422 1800 
Q 2347 1728 2309 1691 
L 1131 513 
L 3078 513 
L 3078 1088 
L 3444 1088 
L 3444 0 
L 434 0 
L 434 341 
L 1850 1753 
Q 2319 2222 2519 2614 
Q 2719 3006 2719 3438 
Q 2719 3909 2473 4175 
Q 2228 4441 1797 4441 
Q 1350 4441 1106 4219 
Q 863 3997 819 3553 
z
" transform="scale(0.015625)"/>
       </defs>
       <use xlink:href="#DejaVuSerif-2212" transform="translate(0 0.78125)"/>
       <use xlink:href="#DejaVuSerif-32" transform="translate(83.789062 0.78125)"/>
      </g>
     </g>
    </g>
    <g id="ytick_4">
     <g id="line2d_23">
      <g>
       <use xlink:href="#m6a2da5d172" x="41.160173" y="79.29307" style="stroke: #000000; stroke-width: 0.5"/>
      </g>
     </g>
     <g id="line2d_24">
      <g>
       <use xlink:href="#m7d7b15aeda" x="429.165354" y="79.29307" style="stroke: #000000; stroke-width: 0.5"/>
      </g>
     </g>
     <g id="text_10">
      <!-- $-1$ -->
      <g transform="translate(22.860173 83.092288) scale(0.1 -0.1)">
       <use xlink:href="#DejaVuSerif-2212" transform="translate(0 0.78125)"/>
       <use xlink:href="#DejaVuSerif-31" transform="translate(83.789062 0.78125)"/>
      </g>
     </g>
    </g>
    <g id="ytick_5">
     <g id="line2d_25">
      <g>
       <use xlink:href="#m6a2da5d172" x="41.160173" y="34.741589" style="stroke: #000000; stroke-width: 0.5"/>
      </g>
     </g>
     <g id="line2d_26">
      <g>
       <use xlink:href="#m7d7b15aeda" x="429.165354" y="34.741589" style="stroke: #000000; stroke-width: 0.5"/>
      </g>
     </g>
     <g id="text_11">
      <!-- $0$ -->
      <g transform="translate(31.260173 38.540808) scale(0.1 -0.1)">
       <use xlink:href="#DejaVuSerif-30" transform="translate(0 0.78125)"/>
      </g>
     </g>
    </g>
    <g id="text_12">
     <!-- $\log(p(r))$ -->
     <g transform="translate(16.100173 152.79) rotate(-90) scale(0.12 -0.12)">
      <defs>
       <path id="DejaVuSerif-Italic-70" d="M 1466 1825 
L 1400 1497 
Q 1353 1250 1353 1053 
Q 1353 769 1453 581 
Q 1622 269 2059 269 
Q 2500 269 2795 622 
Q 3091 975 3225 1663 
Q 3284 1978 3284 2225 
Q 3284 2513 3200 2703 
Q 3041 3053 2600 3053 
Q 2163 3053 1872 2737 
Q 1581 2422 1466 1825 
z
M 1116 2988 
L 563 2988 
L 628 3322 
L 1756 3322 
L 1656 2803 
Q 1884 3116 2175 3264 
Q 2466 3413 2850 3413 
Q 3463 3413 3753 2928 
Q 3947 2609 3947 2163 
Q 3947 1928 3897 1663 
Q 3744 881 3262 395 
Q 2781 -91 2169 -91 
Q 1784 -91 1551 57 
Q 1319 206 1213 519 
L 850 -1331 
L 275 -1331 
L 1116 2988 
z
" transform="scale(0.015625)"/>
      </defs>
      <use xlink:href="#DejaVuSerif-6c" transform="translate(0 0.015625)"/>
      <use xlink:href="#DejaVuSerif-6f" transform="translate(31.982422 0.015625)"/>
      <use xlink:href="#DejaVuSerif-67" transform="translate(92.1875 0.015625)"/>
      <use xlink:href="#DejaVuSerif-28" transform="translate(156.201172 0.015625)"/>
      <use xlink:href="#DejaVuSerif-Italic-70" transform="translate(195.214844 0.015625)"/>
      <use xlink:href="#DejaVuSerif-28" transform="translate(259.228516 0.015625)"/>
      <use xlink:href="#DejaVuSerif-Italic-72" transform="translate(298.242188 0.015625)"/>
      <use xlink:href="#DejaVuSerif-29" transform="translate(346.044922 0.015625)"/>
      <use xlink:href="#DejaVuSerif-29" transform="translate(385.058594 0.015625)"/>
     </g>
    </g>
   </g>
   <g id="line2d_27">
    <path d="M 52.141452 13.829268 
L 128.706187 46.570677 
L 164.306762 61.794565 
L 187.756261 71.822284 
L 205.270922 79.312086 
L 219.25611 85.292577 
L 230.898481 90.271209 
L 240.871497 94.535974 
L 249.594395 98.26615 
L 257.345957 101.580954 
L 264.320996 104.563693 
L 270.661022 107.274881 
L 276.472071 109.759862 
L 281.835658 112.053495 
L 286.815792 114.183152 
L 291.463662 116.170722 
L 295.820845 118.033986 
L 299.92157 119.787581 
L 303.794357 121.443702 
L 307.463216 123.012618 
L 310.948553 124.503054 
L 314.267858 125.92249 
L 317.436232 127.277383 
L 320.466806 128.573349 
L 323.371069 129.8153 
L 326.15913 131.007559 
L 328.839931 132.153951 
L 331.42142 133.257874 
L 333.910692 134.322363 
L 336.314111 135.350138 
L 338.6374 136.343647 
L 340.885731 137.305102 
L 343.06379 138.236506 
L 345.175838 139.139682 
L 347.225757 140.01629 
L 349.217099 140.867848 
L 351.153118 141.695749 
L 353.036807 142.501271 
L 354.870919 143.285593 
L 356.657997 144.049802 
L 358.400393 144.794904 
L 360.100288 145.52183 
L 361.759705 146.231448 
L 363.380527 146.924561 
L 364.96451 147.60192 
L 366.513289 148.264225 
L 368.028397 148.912131 
L 369.511267 149.546251 
L 370.963241 150.167159 
L 372.38558 150.775395 
L 373.779471 151.371465 
L 375.146029 151.955847 
L 376.486306 152.52899 
L 377.801292 153.091318 
L 379.091926 153.643232 
L 380.359092 154.185111 
L 381.603629 154.717313 
L 382.826331 155.240178 
L 384.027951 155.754027 
L 385.209204 156.259166 
L 386.370768 156.755886 
L 387.513289 157.244463 
L 388.637381 157.725159 
L 389.74363 158.198225 
L 390.832593 158.663899 
L 391.904803 159.122408 
L 392.960766 159.57397 
L 394.000967 160.018792 
L 395.025872 160.457072 
L 396.035922 160.889 
L 397.031542 161.314758 
L 398.013139 161.734518 
L 398.981102 162.148449 
L 399.935805 162.556709 
L 400.877606 162.959452 
L 401.806849 163.356824 
L 402.723865 163.748968 
L 403.628972 164.136019 
L 404.522474 164.518108 
L 405.404666 164.89536 
L 406.27583 165.267896 
L 407.136239 165.635833 
L 407.986155 165.999283 
L 408.82583 166.358354 
L 409.65551 166.71315 
L 410.475428 167.063772 
L 411.285811 167.410317 
L 412.08688 167.752878 
L 412.878846 168.091547 
L 413.661913 168.42641 
L 414.436279 168.757552 
L 415.202135 169.085056 
L 415.959667 169.408999 
L 416.709053 169.72946 
L 417.450466 170.046511 
L 418.184076 170.360224 
" clip-path="url(#p16d6a4613f)" style="fill: none; stroke-dasharray: 11.1,4.8; stroke-dashoffset: 0; stroke: #000000; stroke-width: 3"/>
   </g>
   <g id="patch_3">
    <path d="M 41.160173 251.745354 
L 41.160173 2.834646 
" style="fill: none; stroke: #000000; stroke-linejoin: miter; stroke-linecap: square"/>
   </g>
   <g id="patch_4">
    <path d="M 429.165354 251.745354 
L 429.165354 2.834646 
" style="fill: none; stroke: #000000; stroke-linejoin: miter; stroke-linecap: square"/>
   </g>
   <g id="patch_5">
    <path d="M 41.160173 251.745354 
L 429.165354 251.745354 
" style="fill: none; stroke: #000000; stroke-linejoin: miter; stroke-linecap: square"/>
   </g>
   <g id="patch_6">
    <path d="M 41.160173 2.834646 
L 429.165354 2.834646 
" style="fill: none; stroke: #000000; stroke-linejoin: miter; stroke-linecap: square"/>
   </g>
   <g id="legend_1">
    <g id="patch_7">
     <path d="M 350.310667 48.190896 
L 424.165354 48.190896 
L 424.165354 7.834646 
L 350.310667 7.834646 
z
" style="fill: #ffffff; stroke: #000000; stroke-linejoin: miter"/>
    </g>
    <g id="line2d_28">
     <path d="M 358.310667 19.933083 
L 368.310667 19.933083 
L 378.310667 19.933083 
" style="fill: none; stroke: #ff3b42; stroke-width: 1.25; stroke-linejoin: miter"/>
     <defs>
      <path id="m93367a5350" d="M -1.530734 -3.695518 
L -3.695518 -1.530734 
L -3.695518 1.530734 
L -1.530734 3.695518 
L 1.530734 3.695518 
L 3.695518 1.530734 
L 3.695518 -1.530734 
L 1.530734 -3.695518 
z
"/>
     </defs>
     <g>
      <use xlink:href="#m93367a5350" x="368.310667" y="19.933083" style="fill: #ff3b42"/>
     </g>
    </g>
    <g id="text_13">
     <!-- N=12 -->
     <g transform="translate(386.310667 23.433083) scale(0.1 -0.1)">
      <defs>
       <path id="DejaVuSerif-4e" d="M 313 0 
L 313 331 
L 941 331 
L 941 4331 
L 313 4331 
L 313 4666 
L 1509 4666 
L 4306 984 
L 4306 4331 
L 3681 4331 
L 3681 4666 
L 5319 4666 
L 5319 4331 
L 4691 4331 
L 4691 -91 
L 4313 -91 
L 1325 3841 
L 1325 331 
L 1953 331 
L 1953 0 
L 313 0 
z
" transform="scale(0.015625)"/>
       <path id="DejaVuSerif-3d" d="M 678 2894 
L 4684 2894 
L 4684 2394 
L 678 2394 
L 678 2894 
z
M 678 1619 
L 4684 1619 
L 4684 1119 
L 678 1119 
L 678 1619 
z
" transform="scale(0.015625)"/>
      </defs>
      <use xlink:href="#DejaVuSerif-4e"/>
      <use xlink:href="#DejaVuSerif-3d" x="87.5"/>
      <use xlink:href="#DejaVuSerif-31" x="171.289062"/>
      <use xlink:href="#DejaVuSerif-32" x="234.912109"/>
     </g>
    </g>
    <g id="line2d_29">
     <path d="M 358.310667 34.611208 
L 368.310667 34.611208 
L 378.310667 34.611208 
" style="fill: none; stroke-dasharray: 4.625,2; stroke-dashoffset: 0; stroke: #000000; stroke-width: 1.25; stroke-linejoin: miter"/>
    </g>
    <g id="text_14">
     <!-- $ax^\beta$ -->
     <g transform="translate(386.310667 38.111208) scale(0.1 -0.1)">
      <defs>
       <path id="DejaVuSans-Oblique-61" d="M 3438 1997 
L 3047 0 
L 2472 0 
L 2578 531 
Q 2325 219 2001 64 
Q 1678 -91 1281 -91 
Q 834 -91 548 182 
Q 263 456 263 884 
Q 263 1497 752 1853 
Q 1241 2209 2100 2209 
L 2900 2209 
L 2931 2363 
Q 2938 2388 2941 2417 
Q 2944 2447 2944 2509 
Q 2944 2788 2717 2942 
Q 2491 3097 2081 3097 
Q 1800 3097 1504 3025 
Q 1209 2953 897 2809 
L 997 3341 
Q 1322 3463 1633 3523 
Q 1944 3584 2234 3584 
Q 2853 3584 3176 3315 
Q 3500 3047 3500 2534 
Q 3500 2431 3484 2292 
Q 3469 2153 3438 1997 
z
M 2816 1759 
L 2241 1759 
Q 1534 1759 1195 1570 
Q 856 1381 856 984 
Q 856 709 1029 553 
Q 1203 397 1509 397 
Q 1978 397 2328 733 
Q 2678 1069 2791 1631 
L 2816 1759 
z
" transform="scale(0.015625)"/>
       <path id="DejaVuSans-Oblique-78" d="M 3841 3500 
L 2234 1784 
L 3219 0 
L 2559 0 
L 1819 1388 
L 531 0 
L -166 0 
L 1556 1844 
L 641 3500 
L 1300 3500 
L 1972 2234 
L 3144 3500 
L 3841 3500 
z
" transform="scale(0.015625)"/>
       <path id="DejaVuSans-Oblique-3b2" d="M 872 216 
L 572 -1331 
L -6 -1331 
L 928 3478 
Q 1206 4903 2538 4903 
Q 3888 4903 3659 3700 
Q 3503 2844 2894 2531 
Q 3713 2250 3553 1416 
Q 3272 -69 1759 -66 
Q 1097 -63 872 216 
z
M 1019 966 
Q 1259 422 1875 425 
Q 2775 425 2966 1406 
Q 3138 2288 1675 2219 
L 1778 2750 
Q 2909 2731 3106 3750 
Q 3241 4438 2509 4434 
Q 1691 4434 1503 3459 
L 1019 966 
z
" transform="scale(0.015625)"/>
      </defs>
      <use xlink:href="#DejaVuSans-Oblique-61" transform="translate(0 0.092187)"/>
      <use xlink:href="#DejaVuSans-Oblique-78" transform="translate(61.279297 0.092187)"/>
      <use xlink:href="#DejaVuSans-Oblique-3b2" transform="translate(124.92513 38.373437) scale(0.7)"/>
     </g>
    </g>
   </g>
  </g>
 </g>
 <defs>
  <clipPath id="p16d6a4613f">
   <rect x="41.160173" y="2.834646" width="388.005181" height="248.910709"/>
  </clipPath>
 </defs>
</svg>
