<?xml version="1.0" encoding="utf-8" standalone="no"?>
<!DOCTYPE svg PUBLIC "-//W3C//DTD SVG 1.1//EN"
  "http://www.w3.org/Graphics/SVG/1.1/DTD/svg11.dtd">
<svg xmlns:xlink="http://www.w3.org/1999/xlink" width="432pt" height="288pt" viewBox="0 0 432 288" xmlns="http://www.w3.org/2000/svg" version="1.1">
 <metadata>
  <rdf:RDF xmlns:dc="http://purl.org/dc/elements/1.1/" xmlns:cc="http://creativecommons.org/ns#" xmlns:rdf="http://www.w3.org/1999/02/22-rdf-syntax-ns#">
   <cc:Work>
    <dc:type rdf:resource="http://purl.org/dc/dcmitype/StillImage"/>
    <dc:date>2024-12-08T11:44:10.166878</dc:date>
    <dc:format>image/svg+xml</dc:format>
    <dc:creator>
     <cc:Agent>
      <dc:title>Matplotlib v3.9.2, https://matplotlib.org/</dc:title>
     </cc:Agent>
    </dc:creator>
   </cc:Work>
  </rdf:RDF>
 </metadata>
 <defs>
  <style type="text/css">*{stroke-linejoin: round; stroke-linecap: butt}</style>
 </defs>
 <g id="figure_1">
  <g id="patch_1">
   <path d="M 0 288 
L 432 288 
L 432 0 
L 0 0 
z
" style="fill: #ffffff"/>
  </g>
  <g id="axes_1">
   <g id="patch_2">
    <path d="M 24.56983 270.865354 
L 429.165354 270.865354 
L 429.165354 2.834646 
L 24.56983 2.834646 
z
" style="fill: #ffffff"/>
   </g>
   <g id="line2d_1">
    <path d="M -1 259.697998 
L 433 259.697998 
" clip-path="url(#p028d7f4fee)" style="fill: none; stroke-dasharray: 11.1,4.8; stroke-dashoffset: 0; stroke: #8c8c8c; stroke-width: 3"/>
   </g>
   <g id="matplotlib.axis_1">
    <g id="xtick_1">
     <g id="line2d_2">
      <defs>
       <path id="m3e7747e8b4" d="M 0 0 
L 0 -2.5 
" style="stroke: #000000; stroke-width: 0.5"/>
      </defs>
      <g>
       <use xlink:href="#m3e7747e8b4" x="40.685133" y="270.865354" style="stroke: #000000; stroke-width: 0.5"/>
      </g>
     </g>
     <g id="line2d_3">
      <defs>
       <path id="me65edd34fe" d="M 0 0 
L 0 2.5 
" style="stroke: #000000; stroke-width: 0.5"/>
      </defs>
      <g>
       <use xlink:href="#me65edd34fe" x="40.685133" y="2.834646" style="stroke: #000000; stroke-width: 0.5"/>
      </g>
     </g>
     <g id="text_1">
      <!-- $-2.5$ -->
      <g transform="translate(28.535133 281.963792) scale(0.1 -0.1)">
       <defs>
        <path id="DejaVuSerif-2212" d="M 678 2259 
L 4684 2259 
L 4684 1753 
L 678 1753 
L 678 2259 
z
" transform="scale(0.015625)"/>
        <path id="DejaVuSerif-32" d="M 819 3553 
L 469 3553 
L 469 4384 
Q 803 4563 1142 4656 
Q 1481 4750 1806 4750 
Q 2534 4750 2956 4397 
Q 3378 4044 3378 3438 
Q 3378 2753 2422 1800 
Q 2347 1728 2309 1691 
L 1131 513 
L 3078 513 
L 3078 1088 
L 3444 1088 
L 3444 0 
L 434 0 
L 434 341 
L 1850 1753 
Q 2319 2222 2519 2614 
Q 2719 3006 2719 3438 
Q 2719 3909 2473 4175 
Q 2228 4441 1797 4441 
Q 1350 4441 1106 4219 
Q 863 3997 819 3553 
z
" transform="scale(0.015625)"/>
        <path id="DejaVuSerif-2e" d="M 603 325 
Q 603 500 722 622 
Q 841 744 1019 744 
Q 1191 744 1312 622 
Q 1434 500 1434 325 
Q 1434 153 1312 31 
Q 1191 -91 1019 -91 
Q 841 -91 722 29 
Q 603 150 603 325 
z
" transform="scale(0.015625)"/>
        <path id="DejaVuSerif-35" d="M 3219 4666 
L 3219 4153 
L 1081 4153 
L 1081 2816 
Q 1244 2928 1461 2984 
Q 1678 3041 1947 3041 
Q 2703 3041 3140 2622 
Q 3578 2203 3578 1478 
Q 3578 738 3136 323 
Q 2694 -91 1894 -91 
Q 1572 -91 1234 -12 
Q 897 66 544 225 
L 544 1131 
L 897 1131 
Q 925 688 1179 453 
Q 1434 219 1894 219 
Q 2388 219 2653 544 
Q 2919 869 2919 1478 
Q 2919 2084 2655 2407 
Q 2391 2731 1894 2731 
Q 1613 2731 1398 2631 
Q 1184 2531 1019 2322 
L 750 2322 
L 750 4666 
L 3219 4666 
z
" transform="scale(0.015625)"/>
       </defs>
       <use xlink:href="#DejaVuSerif-2212" transform="translate(0 0.78125)"/>
       <use xlink:href="#DejaVuSerif-32" transform="translate(83.789062 0.78125)"/>
       <use xlink:href="#DejaVuSerif-2e" transform="translate(147.412109 0.78125)"/>
       <use xlink:href="#DejaVuSerif-35" transform="translate(179.199219 0.78125)"/>
      </g>
     </g>
    </g>
    <g id="xtick_2">
     <g id="line2d_4">
      <g>
       <use xlink:href="#m3e7747e8b4" x="127.433745" y="270.865354" style="stroke: #000000; stroke-width: 0.5"/>
      </g>
     </g>
     <g id="line2d_5">
      <g>
       <use xlink:href="#me65edd34fe" x="127.433745" y="2.834646" style="stroke: #000000; stroke-width: 0.5"/>
      </g>
     </g>
     <g id="text_2">
      <!-- $0.0$ -->
      <g transform="translate(119.433745 281.963792) scale(0.1 -0.1)">
       <defs>
        <path id="DejaVuSerif-30" d="M 2034 219 
Q 2513 219 2750 744 
Q 2988 1269 2988 2328 
Q 2988 3391 2750 3916 
Q 2513 4441 2034 4441 
Q 1556 4441 1318 3916 
Q 1081 3391 1081 2328 
Q 1081 1269 1318 744 
Q 1556 219 2034 219 
z
M 2034 -91 
Q 1275 -91 848 546 
Q 422 1184 422 2328 
Q 422 3475 848 4112 
Q 1275 4750 2034 4750 
Q 2797 4750 3222 4112 
Q 3647 3475 3647 2328 
Q 3647 1184 3222 546 
Q 2797 -91 2034 -91 
z
" transform="scale(0.015625)"/>
       </defs>
       <use xlink:href="#DejaVuSerif-30" transform="translate(0 0.78125)"/>
       <use xlink:href="#DejaVuSerif-2e" transform="translate(63.623047 0.78125)"/>
       <use xlink:href="#DejaVuSerif-30" transform="translate(95.410156 0.78125)"/>
      </g>
     </g>
    </g>
    <g id="xtick_3">
     <g id="line2d_6">
      <g>
       <use xlink:href="#m3e7747e8b4" x="214.182356" y="270.865354" style="stroke: #000000; stroke-width: 0.5"/>
      </g>
     </g>
     <g id="line2d_7">
      <g>
       <use xlink:href="#me65edd34fe" x="214.182356" y="2.834646" style="stroke: #000000; stroke-width: 0.5"/>
      </g>
     </g>
     <g id="text_3">
      <!-- $2.5$ -->
      <g transform="translate(206.182356 281.963792) scale(0.1 -0.1)">
       <use xlink:href="#DejaVuSerif-32" transform="translate(0 0.78125)"/>
       <use xlink:href="#DejaVuSerif-2e" transform="translate(63.623047 0.78125)"/>
       <use xlink:href="#DejaVuSerif-35" transform="translate(95.410156 0.78125)"/>
      </g>
     </g>
    </g>
    <g id="xtick_4">
     <g id="line2d_8">
      <g>
       <use xlink:href="#m3e7747e8b4" x="300.930968" y="270.865354" style="stroke: #000000; stroke-width: 0.5"/>
      </g>
     </g>
     <g id="line2d_9">
      <g>
       <use xlink:href="#me65edd34fe" x="300.930968" y="2.834646" style="stroke: #000000; stroke-width: 0.5"/>
      </g>
     </g>
     <g id="text_4">
      <!-- $5.0$ -->
      <g transform="translate(292.930968 281.963792) scale(0.1 -0.1)">
       <use xlink:href="#DejaVuSerif-35" transform="translate(0 0.78125)"/>
       <use xlink:href="#DejaVuSerif-2e" transform="translate(63.623047 0.78125)"/>
       <use xlink:href="#DejaVuSerif-30" transform="translate(95.410156 0.78125)"/>
      </g>
     </g>
    </g>
    <g id="xtick_5">
     <g id="line2d_10">
      <g>
       <use xlink:href="#m3e7747e8b4" x="387.679579" y="270.865354" style="stroke: #000000; stroke-width: 0.5"/>
      </g>
     </g>
     <g id="line2d_11">
      <g>
       <use xlink:href="#me65edd34fe" x="387.679579" y="2.834646" style="stroke: #000000; stroke-width: 0.5"/>
      </g>
     </g>
     <g id="text_5">
      <!-- $7.5$ -->
      <g transform="translate(379.679579 281.963792) scale(0.1 -0.1)">
       <defs>
        <path id="DejaVuSerif-37" d="M 3609 4347 
L 1784 0 
L 1319 0 
L 3059 4153 
L 903 4153 
L 903 3578 
L 538 3578 
L 538 4666 
L 3609 4666 
L 3609 4347 
z
" transform="scale(0.015625)"/>
       </defs>
       <use xlink:href="#DejaVuSerif-37" transform="translate(0 0.09375)"/>
       <use xlink:href="#DejaVuSerif-2e" transform="translate(63.623047 0.09375)"/>
       <use xlink:href="#DejaVuSerif-35" transform="translate(95.410156 0.09375)"/>
      </g>
     </g>
    </g>
   </g>
   <g id="matplotlib.axis_2">
    <g id="ytick_1">
     <g id="line2d_12">
      <defs>
       <path id="m0b2247ec71" d="M 0 0 
L 2.5 0 
" style="stroke: #000000; stroke-width: 0.5"/>
      </defs>
      <g>
       <use xlink:href="#m0b2247ec71" x="24.56983" y="182.215689" style="stroke: #000000; stroke-width: 0.5"/>
      </g>
     </g>
     <g id="line2d_13">
      <defs>
       <path id="m23cd473ae6" d="M 0 0 
L -2.5 0 
" style="stroke: #000000; stroke-width: 0.5"/>
      </defs>
      <g>
       <use xlink:href="#m23cd473ae6" x="429.165354" y="182.215689" style="stroke: #000000; stroke-width: 0.5"/>
      </g>
     </g>
     <g id="text_6">
      <!-- $10^{0}$ -->
      <g transform="translate(3.46983 186.014908) scale(0.1 -0.1)">
       <defs>
        <path id="DejaVuSerif-31" d="M 909 0 
L 909 331 
L 1722 331 
L 1722 4213 
L 781 3603 
L 781 4013 
L 1919 4750 
L 2350 4750 
L 2350 331 
L 3163 331 
L 3163 0 
L 909 0 
z
" transform="scale(0.015625)"/>
       </defs>
       <use xlink:href="#DejaVuSerif-31" transform="translate(0 0.7125)"/>
       <use xlink:href="#DejaVuSerif-30" transform="translate(63.623047 0.7125)"/>
       <use xlink:href="#DejaVuSerif-30" transform="translate(128.154453 37.046875) scale(0.7)"/>
      </g>
     </g>
    </g>
    <g id="ytick_2">
     <g id="line2d_14">
      <g>
       <use xlink:href="#m0b2247ec71" x="24.56983" y="58.984653" style="stroke: #000000; stroke-width: 0.5"/>
      </g>
     </g>
     <g id="line2d_15">
      <g>
       <use xlink:href="#m23cd473ae6" x="429.165354" y="58.984653" style="stroke: #000000; stroke-width: 0.5"/>
      </g>
     </g>
     <g id="text_7">
      <!-- $10^{1}$ -->
      <g transform="translate(3.46983 62.783872) scale(0.1 -0.1)">
       <use xlink:href="#DejaVuSerif-31" transform="translate(0 0.7125)"/>
       <use xlink:href="#DejaVuSerif-30" transform="translate(63.623047 0.7125)"/>
       <use xlink:href="#DejaVuSerif-31" transform="translate(128.154453 37.046875) scale(0.7)"/>
      </g>
     </g>
    </g>
   </g>
   <g id="line2d_16">
    <path d="M 40.685133 25.698411 
L 41.561382 28.063349 
L 42.43763 30.428287 
L 43.313879 32.793225 
L 44.190128 35.158163 
L 45.066376 37.523101 
L 45.942625 39.888039 
L 46.818873 42.252977 
L 47.695122 44.617914 
L 48.571371 46.982852 
L 49.447619 49.34779 
L 50.323868 51.712728 
L 51.200116 54.077666 
L 52.076365 56.442604 
L 52.952614 58.807542 
L 53.828862 61.17248 
L 54.705111 63.537418 
L 55.581359 65.902356 
L 56.457608 68.267294 
L 57.333857 70.632232 
L 58.210105 72.99717 
L 59.086354 75.362107 
L 59.962603 77.727045 
L 60.838851 80.091983 
L 61.7151 82.456921 
L 62.591348 84.821859 
L 63.467597 87.186797 
L 64.343846 89.551735 
L 65.220094 91.916673 
L 66.096343 94.281611 
L 66.972591 96.646549 
L 67.84884 99.011487 
L 68.725089 101.376425 
L 69.601337 103.741363 
L 70.477586 106.106301 
L 71.353834 108.471238 
L 72.230083 110.836176 
L 73.106332 113.201114 
L 73.98258 115.566052 
L 74.858829 117.93099 
L 75.735077 120.295928 
L 76.611326 122.660866 
L 77.487575 125.025804 
L 78.363823 127.390742 
L 79.240072 129.75568 
L 80.11632 132.120618 
L 80.992569 134.485556 
L 81.868818 136.850494 
L 82.745066 139.215431 
L 83.621315 141.580369 
L 84.497563 143.945307 
L 85.373812 146.310245 
L 86.250061 148.675183 
L 87.126309 151.040121 
L 88.002558 153.405059 
L 88.878806 155.769997 
L 89.755055 158.134935 
L 90.631304 160.499873 
L 91.507552 162.864811 
L 92.383801 165.229749 
L 93.260049 167.594687 
L 94.136298 169.959625 
L 95.012547 172.324562 
L 95.888795 174.6895 
L 96.765044 177.054438 
L 97.641292 179.419376 
L 98.517541 181.784314 
L 99.39379 184.149252 
L 100.270038 186.51419 
L 101.146287 188.879128 
L 102.022535 191.244066 
L 102.898784 193.609004 
L 103.775033 195.973942 
L 104.651281 198.33888 
L 105.52753 200.703818 
L 106.403778 203.068755 
L 107.280027 205.433693 
L 108.156276 207.798631 
L 109.032524 210.163569 
L 109.908773 212.528507 
L 110.785021 214.893445 
L 111.66127 217.258383 
L 112.537519 219.623321 
L 113.413767 221.988259 
L 114.290016 224.353197 
L 115.166264 226.718135 
L 116.042513 229.083073 
L 116.918762 231.448011 
L 117.79501 233.812949 
L 118.671259 236.177886 
L 119.547507 238.542824 
L 120.423756 240.907762 
L 121.300005 243.2727 
L 122.176253 245.637638 
L 123.052502 248.002576 
L 123.92875 250.367514 
L 124.804999 252.732452 
L 125.681248 255.09739 
L 126.557496 257.462328 
L 127.433745 259.827266 
" clip-path="url(#p028d7f4fee)" style="fill: none; stroke-dasharray: 11.1,4.8; stroke-dashoffset: 0; stroke: #8c8c8c; stroke-width: 3"/>
   </g>
   <g id="patch_3">
    <path d="M 24.56983 270.865354 
L 24.56983 2.834646 
" style="fill: none; stroke: #000000; stroke-linejoin: miter; stroke-linecap: square"/>
   </g>
   <g id="patch_4">
    <path d="M 429.165354 270.865354 
L 429.165354 2.834646 
" style="fill: none; stroke: #000000; stroke-linejoin: miter; stroke-linecap: square"/>
   </g>
   <g id="patch_5">
    <path d="M 24.56983 270.865354 
L 429.165354 270.865354 
" style="fill: none; stroke: #000000; stroke-linejoin: miter; stroke-linecap: square"/>
   </g>
   <g id="patch_6">
    <path d="M 24.56983 2.834646 
L 429.165354 2.834646 
" style="fill: none; stroke: #000000; stroke-linejoin: miter; stroke-linecap: square"/>
   </g>
   <g id="PathCollection_1">
    <defs>
     <path id="m031252bfad" d="M 7 0 
L -7 -0 
"/>
    </defs>
    <g clip-path="url(#p028d7f4fee)">
     <use xlink:href="#m031252bfad" x="99.076918" y="160.876284"/>
     <use xlink:href="#m031252bfad" x="99.076918" y="160.864228"/>
    </g>
   </g>
   <g id="PathCollection_2">
    <g clip-path="url(#p028d7f4fee)">
     <use xlink:href="#m031252bfad" x="133.776363" y="249.443785"/>
     <use xlink:href="#m031252bfad" x="133.776363" y="249.423166"/>
    </g>
   </g>
   <g id="PathCollection_3">
    <g clip-path="url(#p028d7f4fee)">
     <use xlink:href="#m031252bfad" x="168.475807" y="261.471459"/>
     <use xlink:href="#m031252bfad" x="168.475807" y="261.433993"/>
    </g>
   </g>
   <g id="PathCollection_4">
    <g clip-path="url(#p028d7f4fee)">
     <use xlink:href="#m031252bfad" x="203.175252" y="262.850912"/>
     <use xlink:href="#m031252bfad" x="203.175252" y="262.817877"/>
    </g>
   </g>
   <g id="PathCollection_5">
    <g clip-path="url(#p028d7f4fee)">
     <use xlink:href="#m031252bfad" x="237.874697" y="260.715043"/>
     <use xlink:href="#m031252bfad" x="237.874697" y="260.66269"/>
    </g>
   </g>
   <g id="PathCollection_6">
    <g clip-path="url(#p028d7f4fee)">
     <use xlink:href="#m031252bfad" x="272.574141" y="254.995191"/>
     <use xlink:href="#m031252bfad" x="272.574141" y="254.965295"/>
    </g>
   </g>
   <g id="PathCollection_7">
    <defs>
     <path id="m81b8b048f6" d="M -2.678784 -6.467157 
L -6.467157 -2.678784 
L -6.467157 2.678784 
L -2.678784 6.467157 
L 2.678784 6.467157 
L 6.467157 2.678784 
L 6.467157 -2.678784 
L 2.678784 -6.467157 
z
"/>
    </defs>
    <g clip-path="url(#p028d7f4fee)">
     <use xlink:href="#m81b8b048f6" x="99.076918" y="160.870256" style="fill: #4c72b0"/>
     <use xlink:href="#m81b8b048f6" x="133.776363" y="249.433474" style="fill: #4c72b0"/>
     <use xlink:href="#m81b8b048f6" x="168.475807" y="261.452723" style="fill: #4c72b0"/>
     <use xlink:href="#m81b8b048f6" x="203.175252" y="262.834392" style="fill: #4c72b0"/>
     <use xlink:href="#m81b8b048f6" x="237.874697" y="260.68886" style="fill: #4c72b0"/>
     <use xlink:href="#m81b8b048f6" x="272.574141" y="254.980241" style="fill: #4c72b0"/>
    </g>
   </g>
   <g id="PathCollection_8">
    <g clip-path="url(#p028d7f4fee)">
     <use xlink:href="#m031252bfad" x="78.058161" y="120.120539"/>
     <use xlink:href="#m031252bfad" x="78.058161" y="120.11374"/>
    </g>
   </g>
   <g id="PathCollection_9">
    <g clip-path="url(#p028d7f4fee)">
     <use xlink:href="#m031252bfad" x="112.757606" y="216.477368"/>
     <use xlink:href="#m031252bfad" x="112.757606" y="216.470507"/>
    </g>
   </g>
   <g id="PathCollection_10">
    <g clip-path="url(#p028d7f4fee)">
     <use xlink:href="#m031252bfad" x="147.45705" y="246.082413"/>
     <use xlink:href="#m031252bfad" x="147.45705" y="246.067554"/>
    </g>
   </g>
   <g id="PathCollection_11">
    <g clip-path="url(#p028d7f4fee)">
     <use xlink:href="#m031252bfad" x="182.156495" y="254.340911"/>
     <use xlink:href="#m031252bfad" x="182.156495" y="254.323668"/>
    </g>
   </g>
   <g id="PathCollection_12">
    <g clip-path="url(#p028d7f4fee)">
     <use xlink:href="#m031252bfad" x="216.85594" y="257.012882"/>
     <use xlink:href="#m031252bfad" x="216.85594" y="256.994484"/>
    </g>
   </g>
   <g id="PathCollection_13">
    <g clip-path="url(#p028d7f4fee)">
     <use xlink:href="#m031252bfad" x="251.555384" y="256.765211"/>
     <use xlink:href="#m031252bfad" x="251.555384" y="256.742236"/>
    </g>
   </g>
   <g id="PathCollection_14">
    <g clip-path="url(#p028d7f4fee)">
     <use xlink:href="#m031252bfad" x="286.254829" y="253.639459"/>
     <use xlink:href="#m031252bfad" x="286.254829" y="253.622973"/>
    </g>
   </g>
   <g id="PathCollection_15">
    <g clip-path="url(#p028d7f4fee)">
     <use xlink:href="#m031252bfad" x="320.954273" y="246.194396"/>
     <use xlink:href="#m031252bfad" x="320.954273" y="246.178685"/>
    </g>
   </g>
   <g id="PathCollection_16">
    <defs>
     <path id="mb316c10fbf" d="M -2.678784 -6.467157 
L -6.467157 -2.678784 
L -6.467157 2.678784 
L -2.678784 6.467157 
L 2.678784 6.467157 
L 6.467157 2.678784 
L 6.467157 -2.678784 
L 2.678784 -6.467157 
z
"/>
    </defs>
    <g clip-path="url(#p028d7f4fee)">
     <use xlink:href="#mb316c10fbf" x="78.058161" y="120.117139" style="fill: #dd8452"/>
     <use xlink:href="#mb316c10fbf" x="112.757606" y="216.473938" style="fill: #dd8452"/>
     <use xlink:href="#mb316c10fbf" x="147.45705" y="246.074983" style="fill: #dd8452"/>
     <use xlink:href="#mb316c10fbf" x="182.156495" y="254.332289" style="fill: #dd8452"/>
     <use xlink:href="#mb316c10fbf" x="216.85594" y="257.003682" style="fill: #dd8452"/>
     <use xlink:href="#mb316c10fbf" x="251.555384" y="256.753722" style="fill: #dd8452"/>
     <use xlink:href="#mb316c10fbf" x="286.254829" y="253.631215" style="fill: #dd8452"/>
     <use xlink:href="#mb316c10fbf" x="320.954273" y="246.18654" style="fill: #dd8452"/>
    </g>
   </g>
   <g id="PathCollection_17">
    <g clip-path="url(#p028d7f4fee)">
     <use xlink:href="#m031252bfad" x="57.039404" y="67.006935"/>
     <use xlink:href="#m031252bfad" x="57.039404" y="67.005362"/>
    </g>
   </g>
   <g id="PathCollection_18">
    <g clip-path="url(#p028d7f4fee)">
     <use xlink:href="#m031252bfad" x="91.738849" y="169.153642"/>
     <use xlink:href="#m031252bfad" x="91.738849" y="169.150657"/>
    </g>
   </g>
   <g id="PathCollection_19">
    <g clip-path="url(#p028d7f4fee)">
     <use xlink:href="#m031252bfad" x="126.438293" y="229.815262"/>
     <use xlink:href="#m031252bfad" x="126.438293" y="229.809444"/>
    </g>
   </g>
   <g id="PathCollection_20">
    <g clip-path="url(#p028d7f4fee)">
     <use xlink:href="#m031252bfad" x="161.137738" y="251.817888"/>
     <use xlink:href="#m031252bfad" x="161.137738" y="251.805455"/>
    </g>
   </g>
   <g id="PathCollection_21">
    <g clip-path="url(#p028d7f4fee)">
     <use xlink:href="#m031252bfad" x="195.837183" y="254.403724"/>
     <use xlink:href="#m031252bfad" x="195.837183" y="254.391522"/>
    </g>
   </g>
   <g id="PathCollection_22">
    <g clip-path="url(#p028d7f4fee)">
     <use xlink:href="#m031252bfad" x="230.536627" y="255.680882"/>
     <use xlink:href="#m031252bfad" x="230.536627" y="255.674008"/>
    </g>
   </g>
   <g id="PathCollection_23">
    <g clip-path="url(#p028d7f4fee)">
     <use xlink:href="#m031252bfad" x="265.236072" y="253.269214"/>
     <use xlink:href="#m031252bfad" x="265.236072" y="253.255213"/>
    </g>
   </g>
   <g id="PathCollection_24">
    <g clip-path="url(#p028d7f4fee)">
     <use xlink:href="#m031252bfad" x="299.935516" y="253.998095"/>
     <use xlink:href="#m031252bfad" x="299.935516" y="253.984875"/>
    </g>
   </g>
   <g id="PathCollection_25">
    <g clip-path="url(#p028d7f4fee)">
     <use xlink:href="#m031252bfad" x="334.634961" y="251.253093"/>
     <use xlink:href="#m031252bfad" x="334.634961" y="251.244791"/>
    </g>
   </g>
   <g id="PathCollection_26">
    <g clip-path="url(#p028d7f4fee)">
     <use xlink:href="#m031252bfad" x="369.334405" y="246.396554"/>
     <use xlink:href="#m031252bfad" x="369.334405" y="246.38271"/>
    </g>
   </g>
   <g id="PathCollection_27">
    <defs>
     <path id="m0f9b0265a7" d="M -2.678784 -6.467157 
L -6.467157 -2.678784 
L -6.467157 2.678784 
L -2.678784 6.467157 
L 2.678784 6.467157 
L 6.467157 2.678784 
L 6.467157 -2.678784 
L 2.678784 -6.467157 
z
"/>
    </defs>
    <g clip-path="url(#p028d7f4fee)">
     <use xlink:href="#m0f9b0265a7" x="57.039404" y="67.006149" style="fill: #55a868"/>
     <use xlink:href="#m0f9b0265a7" x="91.738849" y="169.152149" style="fill: #55a868"/>
     <use xlink:href="#m0f9b0265a7" x="126.438293" y="229.812353" style="fill: #55a868"/>
     <use xlink:href="#m0f9b0265a7" x="161.137738" y="251.811671" style="fill: #55a868"/>
     <use xlink:href="#m0f9b0265a7" x="195.837183" y="254.397622" style="fill: #55a868"/>
     <use xlink:href="#m0f9b0265a7" x="230.536627" y="255.677445" style="fill: #55a868"/>
     <use xlink:href="#m0f9b0265a7" x="265.236072" y="253.262213" style="fill: #55a868"/>
     <use xlink:href="#m0f9b0265a7" x="299.935516" y="253.991484" style="fill: #55a868"/>
     <use xlink:href="#m0f9b0265a7" x="334.634961" y="251.248942" style="fill: #55a868"/>
     <use xlink:href="#m0f9b0265a7" x="369.334405" y="246.389632" style="fill: #55a868"/>
    </g>
   </g>
   <g id="PathCollection_28">
    <g clip-path="url(#p028d7f4fee)">
     <use xlink:href="#m031252bfad" x="36.020647" y="10.421132"/>
     <use xlink:href="#m031252bfad" x="36.020647" y="10.42042"/>
    </g>
   </g>
   <g id="PathCollection_29">
    <g clip-path="url(#p028d7f4fee)">
     <use xlink:href="#m031252bfad" x="70.720092" y="112.138213"/>
     <use xlink:href="#m031252bfad" x="70.720092" y="112.137366"/>
    </g>
   </g>
   <g id="PathCollection_30">
    <g clip-path="url(#p028d7f4fee)">
     <use xlink:href="#m031252bfad" x="105.419536" y="197.725497"/>
     <use xlink:href="#m031252bfad" x="105.419536" y="197.722223"/>
    </g>
   </g>
   <g id="PathCollection_31">
    <g clip-path="url(#p028d7f4fee)">
     <use xlink:href="#m031252bfad" x="140.118981" y="245.379694"/>
     <use xlink:href="#m031252bfad" x="140.118981" y="245.370839"/>
    </g>
   </g>
   <g id="PathCollection_32">
    <g clip-path="url(#p028d7f4fee)">
     <use xlink:href="#m031252bfad" x="174.818426" y="254.580293"/>
     <use xlink:href="#m031252bfad" x="174.818426" y="254.575466"/>
    </g>
   </g>
   <g id="PathCollection_33">
    <g clip-path="url(#p028d7f4fee)">
     <use xlink:href="#m031252bfad" x="209.51787" y="259.25106"/>
     <use xlink:href="#m031252bfad" x="209.51787" y="259.246118"/>
    </g>
   </g>
   <g id="PathCollection_34">
    <g clip-path="url(#p028d7f4fee)">
     <use xlink:href="#m031252bfad" x="244.217315" y="263.201266"/>
     <use xlink:href="#m031252bfad" x="244.217315" y="263.194518"/>
    </g>
   </g>
   <g id="PathCollection_35">
    <g clip-path="url(#p028d7f4fee)">
     <use xlink:href="#m031252bfad" x="278.916759" y="263.27958"/>
     <use xlink:href="#m031252bfad" x="278.916759" y="263.273363"/>
    </g>
   </g>
   <g id="PathCollection_36">
    <g clip-path="url(#p028d7f4fee)">
     <use xlink:href="#m031252bfad" x="313.616204" y="260.175168"/>
     <use xlink:href="#m031252bfad" x="313.616204" y="260.169561"/>
    </g>
   </g>
   <g id="PathCollection_37">
    <g clip-path="url(#p028d7f4fee)">
     <use xlink:href="#m031252bfad" x="348.315648" y="261.102179"/>
     <use xlink:href="#m031252bfad" x="348.315648" y="261.097668"/>
    </g>
   </g>
   <g id="PathCollection_38">
    <g clip-path="url(#p028d7f4fee)">
     <use xlink:href="#m031252bfad" x="383.015093" y="258.446754"/>
     <use xlink:href="#m031252bfad" x="383.015093" y="258.441128"/>
    </g>
   </g>
   <g id="PathCollection_39">
    <g clip-path="url(#p028d7f4fee)">
     <use xlink:href="#m031252bfad" x="417.714538" y="248.689979"/>
     <use xlink:href="#m031252bfad" x="417.714538" y="248.679154"/>
    </g>
   </g>
   <g id="PathCollection_40">
    <defs>
     <path id="m66206cbbb3" d="M -2.678784 -6.467157 
L -6.467157 -2.678784 
L -6.467157 2.678784 
L -2.678784 6.467157 
L 2.678784 6.467157 
L 6.467157 2.678784 
L 6.467157 -2.678784 
L 2.678784 -6.467157 
z
"/>
    </defs>
    <g clip-path="url(#p028d7f4fee)">
     <use xlink:href="#m66206cbbb3" x="36.020647" y="10.420776" style="fill: #c44e52"/>
     <use xlink:href="#m66206cbbb3" x="70.720092" y="112.13779" style="fill: #c44e52"/>
     <use xlink:href="#m66206cbbb3" x="105.419536" y="197.72386" style="fill: #c44e52"/>
     <use xlink:href="#m66206cbbb3" x="140.118981" y="245.375266" style="fill: #c44e52"/>
     <use xlink:href="#m66206cbbb3" x="174.818426" y="254.57788" style="fill: #c44e52"/>
     <use xlink:href="#m66206cbbb3" x="209.51787" y="259.248589" style="fill: #c44e52"/>
     <use xlink:href="#m66206cbbb3" x="244.217315" y="263.197892" style="fill: #c44e52"/>
     <use xlink:href="#m66206cbbb3" x="278.916759" y="263.276471" style="fill: #c44e52"/>
     <use xlink:href="#m66206cbbb3" x="313.616204" y="260.172364" style="fill: #c44e52"/>
     <use xlink:href="#m66206cbbb3" x="348.315648" y="261.099924" style="fill: #c44e52"/>
     <use xlink:href="#m66206cbbb3" x="383.015093" y="258.443941" style="fill: #c44e52"/>
     <use xlink:href="#m66206cbbb3" x="417.714538" y="248.684566" style="fill: #c44e52"/>
    </g>
   </g>
   <g id="legend_1">
    <g id="patch_7">
     <path d="M 312.765354 107.067458 
L 424.165354 107.067458 
L 424.165354 7.834646 
L 312.765354 7.834646 
z
" style="fill: #ffffff; stroke: #000000; stroke-linejoin: miter"/>
    </g>
    <g id="line2d_17">
     <path d="M 320.765354 19.933083 
L 330.765354 19.933083 
L 340.765354 19.933083 
" style="fill: none; stroke-dasharray: 4.625,2; stroke-dashoffset: 0; stroke: #8c8c8c; stroke-width: 1.25; stroke-linejoin: miter"/>
    </g>
    <g id="text_8">
     <!-- y1 -->
     <g transform="translate(348.765354 23.433083) scale(0.1 -0.1)">
      <defs>
       <path id="DejaVuSerif-79" d="M 1381 -609 
L 1600 -56 
L 359 2988 
L -19 2988 
L -19 3322 
L 1509 3322 
L 1509 2988 
L 978 2988 
L 1913 703 
L 2847 2988 
L 2350 2988 
L 2350 3322 
L 3597 3322 
L 3597 2988 
L 3225 2988 
L 1703 -750 
Q 1547 -1138 1356 -1280 
Q 1166 -1422 819 -1422 
Q 672 -1422 517 -1397 
Q 363 -1372 206 -1325 
L 206 -691 
L 500 -691 
Q 519 -903 608 -995 
Q 697 -1088 884 -1088 
Q 1056 -1088 1161 -992 
Q 1266 -897 1381 -609 
z
" transform="scale(0.015625)"/>
      </defs>
      <use xlink:href="#DejaVuSerif-79"/>
      <use xlink:href="#DejaVuSerif-31" x="56.494141"/>
     </g>
    </g>
    <g id="line2d_18">
     <path d="M 320.765354 34.754958 
L 330.765354 34.754958 
L 340.765354 34.754958 
" style="fill: none; stroke-dasharray: 4.625,2; stroke-dashoffset: 0; stroke: #8c8c8c; stroke-width: 1.25; stroke-linejoin: miter"/>
    </g>
    <g id="text_9">
     <!-- $c_2\exp(-\gamma_1 n_H)$ -->
     <g transform="translate(348.765354 38.254958) scale(0.1 -0.1)">
      <defs>
       <path id="DejaVuSans-Oblique-63" d="M 3431 3366 
L 3316 2797 
Q 3109 2947 2876 3022 
Q 2644 3097 2394 3097 
Q 2119 3097 1870 3000 
Q 1622 2903 1453 2725 
Q 1184 2453 1037 2087 
Q 891 1722 891 1331 
Q 891 859 1127 628 
Q 1363 397 1844 397 
Q 2081 397 2348 469 
Q 2616 541 2906 684 
L 2797 116 
Q 2547 13 2283 -39 
Q 2019 -91 1741 -91 
Q 1044 -91 669 257 
Q 294 606 294 1253 
Q 294 1797 489 2255 
Q 684 2713 1069 3078 
Q 1331 3328 1684 3456 
Q 2038 3584 2456 3584 
Q 2700 3584 2940 3529 
Q 3181 3475 3431 3366 
z
" transform="scale(0.015625)"/>
       <path id="DejaVuSans-32" d="M 1228 531 
L 3431 531 
L 3431 0 
L 469 0 
L 469 531 
Q 828 903 1448 1529 
Q 2069 2156 2228 2338 
Q 2531 2678 2651 2914 
Q 2772 3150 2772 3378 
Q 2772 3750 2511 3984 
Q 2250 4219 1831 4219 
Q 1534 4219 1204 4116 
Q 875 4013 500 3803 
L 500 4441 
Q 881 4594 1212 4672 
Q 1544 4750 1819 4750 
Q 2544 4750 2975 4387 
Q 3406 4025 3406 3419 
Q 3406 3131 3298 2873 
Q 3191 2616 2906 2266 
Q 2828 2175 2409 1742 
Q 1991 1309 1228 531 
z
" transform="scale(0.015625)"/>
       <path id="DejaVuSans-65" d="M 3597 1894 
L 3597 1613 
L 953 1613 
Q 991 1019 1311 708 
Q 1631 397 2203 397 
Q 2534 397 2845 478 
Q 3156 559 3463 722 
L 3463 178 
Q 3153 47 2828 -22 
Q 2503 -91 2169 -91 
Q 1331 -91 842 396 
Q 353 884 353 1716 
Q 353 2575 817 3079 
Q 1281 3584 2069 3584 
Q 2775 3584 3186 3129 
Q 3597 2675 3597 1894 
z
M 3022 2063 
Q 3016 2534 2758 2815 
Q 2500 3097 2075 3097 
Q 1594 3097 1305 2825 
Q 1016 2553 972 2059 
L 3022 2063 
z
" transform="scale(0.015625)"/>
       <path id="DejaVuSans-78" d="M 3513 3500 
L 2247 1797 
L 3578 0 
L 2900 0 
L 1881 1375 
L 863 0 
L 184 0 
L 1544 1831 
L 300 3500 
L 978 3500 
L 1906 2253 
L 2834 3500 
L 3513 3500 
z
" transform="scale(0.015625)"/>
       <path id="DejaVuSans-70" d="M 1159 525 
L 1159 -1331 
L 581 -1331 
L 581 3500 
L 1159 3500 
L 1159 2969 
Q 1341 3281 1617 3432 
Q 1894 3584 2278 3584 
Q 2916 3584 3314 3078 
Q 3713 2572 3713 1747 
Q 3713 922 3314 415 
Q 2916 -91 2278 -91 
Q 1894 -91 1617 61 
Q 1341 213 1159 525 
z
M 3116 1747 
Q 3116 2381 2855 2742 
Q 2594 3103 2138 3103 
Q 1681 3103 1420 2742 
Q 1159 2381 1159 1747 
Q 1159 1113 1420 752 
Q 1681 391 2138 391 
Q 2594 391 2855 752 
Q 3116 1113 3116 1747 
z
" transform="scale(0.015625)"/>
       <path id="DejaVuSans-28" d="M 1984 4856 
Q 1566 4138 1362 3434 
Q 1159 2731 1159 2009 
Q 1159 1288 1364 580 
Q 1569 -128 1984 -844 
L 1484 -844 
Q 1016 -109 783 600 
Q 550 1309 550 2009 
Q 550 2706 781 3412 
Q 1013 4119 1484 4856 
L 1984 4856 
z
" transform="scale(0.015625)"/>
       <path id="DejaVuSans-2212" d="M 678 2272 
L 4684 2272 
L 4684 1741 
L 678 1741 
L 678 2272 
z
" transform="scale(0.015625)"/>
       <path id="DejaVuSans-Oblique-3b3" d="M 1491 2950 
L 1838 788 
L 3456 3500 
L 4066 3500 
L 1972 0 
L 1713 -1331 
L 1138 -1331 
L 1397 0 
L 988 2613 
Q 925 3006 628 3006 
L 475 3006 
L 569 3500 
L 788 3500 
Q 1403 3500 1491 2950 
z
" transform="scale(0.015625)"/>
       <path id="DejaVuSans-31" d="M 794 531 
L 1825 531 
L 1825 4091 
L 703 3866 
L 703 4441 
L 1819 4666 
L 2450 4666 
L 2450 531 
L 3481 531 
L 3481 0 
L 794 0 
L 794 531 
z
" transform="scale(0.015625)"/>
       <path id="DejaVuSans-Oblique-6e" d="M 3566 2113 
L 3156 0 
L 2578 0 
L 2988 2091 
Q 3016 2238 3031 2350 
Q 3047 2463 3047 2528 
Q 3047 2791 2881 2937 
Q 2716 3084 2419 3084 
Q 1956 3084 1622 2776 
Q 1288 2469 1184 1941 
L 800 0 
L 225 0 
L 903 3500 
L 1478 3500 
L 1363 2950 
Q 1603 3253 1940 3418 
Q 2278 3584 2650 3584 
Q 3113 3584 3367 3334 
Q 3622 3084 3622 2631 
Q 3622 2519 3608 2391 
Q 3594 2263 3566 2113 
z
" transform="scale(0.015625)"/>
       <path id="DejaVuSans-Oblique-48" d="M 1081 4666 
L 1716 4666 
L 1344 2753 
L 3634 2753 
L 4006 4666 
L 4641 4666 
L 3731 0 
L 3097 0 
L 3531 2222 
L 1241 2222 
L 806 0 
L 172 0 
L 1081 4666 
z
" transform="scale(0.015625)"/>
       <path id="DejaVuSans-29" d="M 513 4856 
L 1013 4856 
Q 1481 4119 1714 3412 
Q 1947 2706 1947 2009 
Q 1947 1309 1714 600 
Q 1481 -109 1013 -844 
L 513 -844 
Q 928 -128 1133 580 
Q 1338 1288 1338 2009 
Q 1338 2731 1133 3434 
Q 928 4138 513 4856 
z
" transform="scale(0.015625)"/>
      </defs>
      <use xlink:href="#DejaVuSans-Oblique-63" transform="translate(0 0.125)"/>
      <use xlink:href="#DejaVuSans-32" transform="translate(54.980469 -16.28125) scale(0.7)"/>
      <use xlink:href="#DejaVuSans-65" transform="translate(102.250977 0.125)"/>
      <use xlink:href="#DejaVuSans-78" transform="translate(163.774414 0.125)"/>
      <use xlink:href="#DejaVuSans-70" transform="translate(222.954102 0.125)"/>
      <use xlink:href="#DejaVuSans-28" transform="translate(286.430664 0.125)"/>
      <use xlink:href="#DejaVuSans-2212" transform="translate(325.444336 0.125)"/>
      <use xlink:href="#DejaVuSans-Oblique-3b3" transform="translate(409.233398 0.125)"/>
      <use xlink:href="#DejaVuSans-31" transform="translate(468.413086 -16.28125) scale(0.7)"/>
      <use xlink:href="#DejaVuSans-Oblique-6e" transform="translate(515.683594 0.125)"/>
      <use xlink:href="#DejaVuSans-Oblique-48" transform="translate(579.0625 -16.28125) scale(0.7)"/>
      <use xlink:href="#DejaVuSans-29" transform="translate(634.433594 0.125)"/>
     </g>
    </g>
    <g id="line2d_19">
     <path d="M 320.765354 49.453396 
L 330.765354 49.453396 
L 340.765354 49.453396 
" style="fill: none"/>
     <defs>
      <path id="m3325212098" d="M -1.530734 -3.695518 
L -3.695518 -1.530734 
L -3.695518 1.530734 
L -1.530734 3.695518 
L 1.530734 3.695518 
L 3.695518 1.530734 
L 3.695518 -1.530734 
L 1.530734 -3.695518 
z
"/>
     </defs>
     <g>
      <use xlink:href="#m3325212098" x="330.765354" y="49.453396" style="fill: #4c72b0"/>
     </g>
    </g>
    <g id="text_10">
     <!-- N=6 -->
     <g transform="translate(348.765354 52.953396) scale(0.1 -0.1)">
      <defs>
       <path id="DejaVuSerif-4e" d="M 313 0 
L 313 331 
L 941 331 
L 941 4331 
L 313 4331 
L 313 4666 
L 1509 4666 
L 4306 984 
L 4306 4331 
L 3681 4331 
L 3681 4666 
L 5319 4666 
L 5319 4331 
L 4691 4331 
L 4691 -91 
L 4313 -91 
L 1325 3841 
L 1325 331 
L 1953 331 
L 1953 0 
L 313 0 
z
" transform="scale(0.015625)"/>
       <path id="DejaVuSerif-3d" d="M 678 2894 
L 4684 2894 
L 4684 2394 
L 678 2394 
L 678 2894 
z
M 678 1619 
L 4684 1619 
L 4684 1119 
L 678 1119 
L 678 1619 
z
" transform="scale(0.015625)"/>
       <path id="DejaVuSerif-36" d="M 2094 219 
Q 2534 219 2771 542 
Q 3009 866 3009 1472 
Q 3009 2078 2771 2401 
Q 2534 2725 2094 2725 
Q 1647 2725 1412 2412 
Q 1178 2100 1178 1509 
Q 1178 888 1415 553 
Q 1653 219 2094 219 
z
M 1075 2569 
Q 1288 2803 1556 2918 
Q 1825 3034 2163 3034 
Q 2859 3034 3264 2615 
Q 3669 2197 3669 1472 
Q 3669 763 3233 336 
Q 2797 -91 2069 -91 
Q 1278 -91 853 498 
Q 428 1088 428 2181 
Q 428 3406 931 4078 
Q 1434 4750 2350 4750 
Q 2597 4750 2869 4703 
Q 3141 4656 3425 4563 
L 3425 3794 
L 3072 3794 
Q 3034 4109 2831 4275 
Q 2628 4441 2284 4441 
Q 1678 4441 1381 3981 
Q 1084 3522 1075 2569 
z
" transform="scale(0.015625)"/>
      </defs>
      <use xlink:href="#DejaVuSerif-4e"/>
      <use xlink:href="#DejaVuSerif-3d" x="87.5"/>
      <use xlink:href="#DejaVuSerif-36" x="171.289062"/>
     </g>
    </g>
    <g id="line2d_20">
     <path d="M 320.765354 64.131521 
L 330.765354 64.131521 
L 340.765354 64.131521 
" style="fill: none"/>
     <defs>
      <path id="mcd22cc0953" d="M -1.530734 -3.695518 
L -3.695518 -1.530734 
L -3.695518 1.530734 
L -1.530734 3.695518 
L 1.530734 3.695518 
L 3.695518 1.530734 
L 3.695518 -1.530734 
L 1.530734 -3.695518 
z
"/>
     </defs>
     <g>
      <use xlink:href="#mcd22cc0953" x="330.765354" y="64.131521" style="fill: #dd8452"/>
     </g>
    </g>
    <g id="text_11">
     <!-- N=8 -->
     <g transform="translate(348.765354 67.631521) scale(0.1 -0.1)">
      <defs>
       <path id="DejaVuSerif-38" d="M 2981 1275 
Q 2981 1775 2732 2051 
Q 2484 2328 2034 2328 
Q 1584 2328 1336 2051 
Q 1088 1775 1088 1275 
Q 1088 772 1336 495 
Q 1584 219 2034 219 
Q 2484 219 2732 495 
Q 2981 772 2981 1275 
z
M 2853 3541 
Q 2853 3966 2637 4203 
Q 2422 4441 2034 4441 
Q 1650 4441 1433 4203 
Q 1216 3966 1216 3541 
Q 1216 3113 1433 2875 
Q 1650 2638 2034 2638 
Q 2422 2638 2637 2875 
Q 2853 3113 2853 3541 
z
M 2516 2484 
Q 3047 2413 3344 2092 
Q 3641 1772 3641 1275 
Q 3641 619 3225 264 
Q 2809 -91 2034 -91 
Q 1263 -91 845 264 
Q 428 619 428 1275 
Q 428 1772 725 2092 
Q 1022 2413 1556 2484 
Q 1084 2569 832 2842 
Q 581 3116 581 3541 
Q 581 4103 968 4426 
Q 1356 4750 2034 4750 
Q 2713 4750 3100 4426 
Q 3488 4103 3488 3541 
Q 3488 3116 3236 2842 
Q 2984 2569 2516 2484 
z
" transform="scale(0.015625)"/>
      </defs>
      <use xlink:href="#DejaVuSerif-4e"/>
      <use xlink:href="#DejaVuSerif-3d" x="87.5"/>
      <use xlink:href="#DejaVuSerif-38" x="171.289062"/>
     </g>
    </g>
    <g id="line2d_21">
     <path d="M 320.765354 78.809646 
L 330.765354 78.809646 
L 340.765354 78.809646 
" style="fill: none"/>
     <defs>
      <path id="mad3813d446" d="M -1.530734 -3.695518 
L -3.695518 -1.530734 
L -3.695518 1.530734 
L -1.530734 3.695518 
L 1.530734 3.695518 
L 3.695518 1.530734 
L 3.695518 -1.530734 
L 1.530734 -3.695518 
z
"/>
     </defs>
     <g>
      <use xlink:href="#mad3813d446" x="330.765354" y="78.809646" style="fill: #55a868"/>
     </g>
    </g>
    <g id="text_12">
     <!-- N=10 -->
     <g transform="translate(348.765354 82.309646) scale(0.1 -0.1)">
      <use xlink:href="#DejaVuSerif-4e"/>
      <use xlink:href="#DejaVuSerif-3d" x="87.5"/>
      <use xlink:href="#DejaVuSerif-31" x="171.289062"/>
      <use xlink:href="#DejaVuSerif-30" x="234.912109"/>
     </g>
    </g>
    <g id="line2d_22">
     <path d="M 320.765354 93.487771 
L 330.765354 93.487771 
L 340.765354 93.487771 
" style="fill: none"/>
     <defs>
      <path id="m37ab18b9c5" d="M -1.530734 -3.695518 
L -3.695518 -1.530734 
L -3.695518 1.530734 
L -1.530734 3.695518 
L 1.530734 3.695518 
L 3.695518 1.530734 
L 3.695518 -1.530734 
L 1.530734 -3.695518 
z
"/>
     </defs>
     <g>
      <use xlink:href="#m37ab18b9c5" x="330.765354" y="93.487771" style="fill: #c44e52"/>
     </g>
    </g>
    <g id="text_13">
     <!-- N=12 -->
     <g transform="translate(348.765354 96.987771) scale(0.1 -0.1)">
      <use xlink:href="#DejaVuSerif-4e"/>
      <use xlink:href="#DejaVuSerif-3d" x="87.5"/>
      <use xlink:href="#DejaVuSerif-31" x="171.289062"/>
      <use xlink:href="#DejaVuSerif-32" x="234.912109"/>
     </g>
    </g>
   </g>
  </g>
 </g>
 <defs>
  <clipPath id="p028d7f4fee">
   <rect x="24.56983" y="2.834646" width="404.595524" height="268.030709"/>
  </clipPath>
 </defs>
</svg>
