<?xml version="1.0" encoding="utf-8" standalone="no"?>
<!DOCTYPE svg PUBLIC "-//W3C//DTD SVG 1.1//EN"
  "http://www.w3.org/Graphics/SVG/1.1/DTD/svg11.dtd">
<svg xmlns:xlink="http://www.w3.org/1999/xlink" width="432pt" height="288pt" viewBox="0 0 432 288" xmlns="http://www.w3.org/2000/svg" version="1.1">
 <metadata>
  <rdf:RDF xmlns:dc="http://purl.org/dc/elements/1.1/" xmlns:cc="http://creativecommons.org/ns#" xmlns:rdf="http://www.w3.org/1999/02/22-rdf-syntax-ns#">
   <cc:Work>
    <dc:type rdf:resource="http://purl.org/dc/dcmitype/StillImage"/>
    <dc:date>2024-12-08T11:40:51.581579</dc:date>
    <dc:format>image/svg+xml</dc:format>
    <dc:creator>
     <cc:Agent>
      <dc:title>Matplotlib v3.9.2, https://matplotlib.org/</dc:title>
     </cc:Agent>
    </dc:creator>
   </cc:Work>
  </rdf:RDF>
 </metadata>
 <defs>
  <style type="text/css">*{stroke-linejoin: round; stroke-linecap: butt}</style>
 </defs>
 <g id="figure_1">
  <g id="patch_1">
   <path d="M 0 288 
L 432 288 
L 432 0 
L 0 0 
z
" style="fill: #ffffff"/>
  </g>
  <g id="axes_1">
   <g id="patch_2">
    <path d="M 24.56983 270.865354 
L 429.165354 270.865354 
L 429.165354 2.834646 
L 24.56983 2.834646 
z
" style="fill: #ffffff"/>
   </g>
   <g id="line2d_1">
    <path d="M -1 260.17246 
L 433 260.17246 
" clip-path="url(#p4190ed3116)" style="fill: none; stroke-dasharray: 11.1,4.8; stroke-dashoffset: 0; stroke: #8c8c8c; stroke-width: 3"/>
   </g>
   <g id="matplotlib.axis_1">
    <g id="xtick_1">
     <g id="line2d_2">
      <defs>
       <path id="m28f9449ad8" d="M 0 0 
L 0 -2.5 
" style="stroke: #000000; stroke-width: 0.5"/>
      </defs>
      <g>
       <use xlink:href="#m28f9449ad8" x="36.020647" y="270.865354" style="stroke: #000000; stroke-width: 0.5"/>
      </g>
     </g>
     <g id="line2d_3">
      <defs>
       <path id="m7c2fa97550" d="M 0 0 
L 0 2.5 
" style="stroke: #000000; stroke-width: 0.5"/>
      </defs>
      <g>
       <use xlink:href="#m7c2fa97550" x="36.020647" y="2.834646" style="stroke: #000000; stroke-width: 0.5"/>
      </g>
     </g>
     <g id="text_1">
      <!-- $-6$ -->
      <g transform="translate(28.620647 281.963792) scale(0.1 -0.1)">
       <defs>
        <path id="DejaVuSerif-2212" d="M 678 2259 
L 4684 2259 
L 4684 1753 
L 678 1753 
L 678 2259 
z
" transform="scale(0.015625)"/>
        <path id="DejaVuSerif-36" d="M 2094 219 
Q 2534 219 2771 542 
Q 3009 866 3009 1472 
Q 3009 2078 2771 2401 
Q 2534 2725 2094 2725 
Q 1647 2725 1412 2412 
Q 1178 2100 1178 1509 
Q 1178 888 1415 553 
Q 1653 219 2094 219 
z
M 1075 2569 
Q 1288 2803 1556 2918 
Q 1825 3034 2163 3034 
Q 2859 3034 3264 2615 
Q 3669 2197 3669 1472 
Q 3669 763 3233 336 
Q 2797 -91 2069 -91 
Q 1278 -91 853 498 
Q 428 1088 428 2181 
Q 428 3406 931 4078 
Q 1434 4750 2350 4750 
Q 2597 4750 2869 4703 
Q 3141 4656 3425 4563 
L 3425 3794 
L 3072 3794 
Q 3034 4109 2831 4275 
Q 2628 4441 2284 4441 
Q 1678 4441 1381 3981 
Q 1084 3522 1075 2569 
z
" transform="scale(0.015625)"/>
       </defs>
       <use xlink:href="#DejaVuSerif-2212" transform="translate(0 0.78125)"/>
       <use xlink:href="#DejaVuSerif-36" transform="translate(83.789062 0.78125)"/>
      </g>
     </g>
    </g>
    <g id="xtick_2">
     <g id="line2d_4">
      <g>
       <use xlink:href="#m28f9449ad8" x="118.615701" y="270.865354" style="stroke: #000000; stroke-width: 0.5"/>
      </g>
     </g>
     <g id="line2d_5">
      <g>
       <use xlink:href="#m7c2fa97550" x="118.615701" y="2.834646" style="stroke: #000000; stroke-width: 0.5"/>
      </g>
     </g>
     <g id="text_2">
      <!-- $-4$ -->
      <g transform="translate(111.215701 281.963792) scale(0.1 -0.1)">
       <defs>
        <path id="DejaVuSerif-34" d="M 2234 1581 
L 2234 4063 
L 641 1581 
L 2234 1581 
z
M 3609 0 
L 1484 0 
L 1484 331 
L 2234 331 
L 2234 1247 
L 197 1247 
L 197 1588 
L 2241 4750 
L 2859 4750 
L 2859 1581 
L 3750 1581 
L 3750 1247 
L 2859 1247 
L 2859 331 
L 3609 331 
L 3609 0 
z
" transform="scale(0.015625)"/>
       </defs>
       <use xlink:href="#DejaVuSerif-2212" transform="translate(0 0.78125)"/>
       <use xlink:href="#DejaVuSerif-34" transform="translate(83.789062 0.78125)"/>
      </g>
     </g>
    </g>
    <g id="xtick_3">
     <g id="line2d_6">
      <g>
       <use xlink:href="#m28f9449ad8" x="201.210755" y="270.865354" style="stroke: #000000; stroke-width: 0.5"/>
      </g>
     </g>
     <g id="line2d_7">
      <g>
       <use xlink:href="#m7c2fa97550" x="201.210755" y="2.834646" style="stroke: #000000; stroke-width: 0.5"/>
      </g>
     </g>
     <g id="text_3">
      <!-- $-2$ -->
      <g transform="translate(193.810755 281.963792) scale(0.1 -0.1)">
       <defs>
        <path id="DejaVuSerif-32" d="M 819 3553 
L 469 3553 
L 469 4384 
Q 803 4563 1142 4656 
Q 1481 4750 1806 4750 
Q 2534 4750 2956 4397 
Q 3378 4044 3378 3438 
Q 3378 2753 2422 1800 
Q 2347 1728 2309 1691 
L 1131 513 
L 3078 513 
L 3078 1088 
L 3444 1088 
L 3444 0 
L 434 0 
L 434 341 
L 1850 1753 
Q 2319 2222 2519 2614 
Q 2719 3006 2719 3438 
Q 2719 3909 2473 4175 
Q 2228 4441 1797 4441 
Q 1350 4441 1106 4219 
Q 863 3997 819 3553 
z
" transform="scale(0.015625)"/>
       </defs>
       <use xlink:href="#DejaVuSerif-2212" transform="translate(0 0.78125)"/>
       <use xlink:href="#DejaVuSerif-32" transform="translate(83.789062 0.78125)"/>
      </g>
     </g>
    </g>
    <g id="xtick_4">
     <g id="line2d_8">
      <g>
       <use xlink:href="#m28f9449ad8" x="283.805809" y="270.865354" style="stroke: #000000; stroke-width: 0.5"/>
      </g>
     </g>
     <g id="line2d_9">
      <g>
       <use xlink:href="#m7c2fa97550" x="283.805809" y="2.834646" style="stroke: #000000; stroke-width: 0.5"/>
      </g>
     </g>
     <g id="text_4">
      <!-- $0$ -->
      <g transform="translate(280.605809 281.963792) scale(0.1 -0.1)">
       <defs>
        <path id="DejaVuSerif-30" d="M 2034 219 
Q 2513 219 2750 744 
Q 2988 1269 2988 2328 
Q 2988 3391 2750 3916 
Q 2513 4441 2034 4441 
Q 1556 4441 1318 3916 
Q 1081 3391 1081 2328 
Q 1081 1269 1318 744 
Q 1556 219 2034 219 
z
M 2034 -91 
Q 1275 -91 848 546 
Q 422 1184 422 2328 
Q 422 3475 848 4112 
Q 1275 4750 2034 4750 
Q 2797 4750 3222 4112 
Q 3647 3475 3647 2328 
Q 3647 1184 3222 546 
Q 2797 -91 2034 -91 
z
" transform="scale(0.015625)"/>
       </defs>
       <use xlink:href="#DejaVuSerif-30" transform="translate(0 0.78125)"/>
      </g>
     </g>
    </g>
    <g id="xtick_5">
     <g id="line2d_10">
      <g>
       <use xlink:href="#m28f9449ad8" x="366.400863" y="270.865354" style="stroke: #000000; stroke-width: 0.5"/>
      </g>
     </g>
     <g id="line2d_11">
      <g>
       <use xlink:href="#m7c2fa97550" x="366.400863" y="2.834646" style="stroke: #000000; stroke-width: 0.5"/>
      </g>
     </g>
     <g id="text_5">
      <!-- $2$ -->
      <g transform="translate(363.200863 281.963792) scale(0.1 -0.1)">
       <use xlink:href="#DejaVuSerif-32" transform="translate(0 0.78125)"/>
      </g>
     </g>
    </g>
   </g>
   <g id="matplotlib.axis_2">
    <g id="ytick_1">
     <g id="line2d_12">
      <defs>
       <path id="me788d5d7a4" d="M 0 0 
L 2.5 0 
" style="stroke: #000000; stroke-width: 0.5"/>
      </defs>
      <g>
       <use xlink:href="#me788d5d7a4" x="24.56983" y="180.274038" style="stroke: #000000; stroke-width: 0.5"/>
      </g>
     </g>
     <g id="line2d_13">
      <defs>
       <path id="me7e76c1a75" d="M 0 0 
L -2.5 0 
" style="stroke: #000000; stroke-width: 0.5"/>
      </defs>
      <g>
       <use xlink:href="#me7e76c1a75" x="429.165354" y="180.274038" style="stroke: #000000; stroke-width: 0.5"/>
      </g>
     </g>
     <g id="text_6">
      <!-- $10^{0}$ -->
      <g transform="translate(3.46983 184.073256) scale(0.1 -0.1)">
       <defs>
        <path id="DejaVuSerif-31" d="M 909 0 
L 909 331 
L 1722 331 
L 1722 4213 
L 781 3603 
L 781 4013 
L 1919 4750 
L 2350 4750 
L 2350 331 
L 3163 331 
L 3163 0 
L 909 0 
z
" transform="scale(0.015625)"/>
       </defs>
       <use xlink:href="#DejaVuSerif-31" transform="translate(0 0.7125)"/>
       <use xlink:href="#DejaVuSerif-30" transform="translate(63.623047 0.7125)"/>
       <use xlink:href="#DejaVuSerif-30" transform="translate(128.154453 37.046875) scale(0.7)"/>
      </g>
     </g>
    </g>
    <g id="ytick_2">
     <g id="line2d_14">
      <g>
       <use xlink:href="#me788d5d7a4" x="24.56983" y="60.40885" style="stroke: #000000; stroke-width: 0.5"/>
      </g>
     </g>
     <g id="line2d_15">
      <g>
       <use xlink:href="#me7e76c1a75" x="429.165354" y="60.40885" style="stroke: #000000; stroke-width: 0.5"/>
      </g>
     </g>
     <g id="text_7">
      <!-- $10^{1}$ -->
      <g transform="translate(3.46983 64.208069) scale(0.1 -0.1)">
       <use xlink:href="#DejaVuSerif-31" transform="translate(0 0.7125)"/>
       <use xlink:href="#DejaVuSerif-30" transform="translate(63.623047 0.7125)"/>
       <use xlink:href="#DejaVuSerif-31" transform="translate(128.154453 37.046875) scale(0.7)"/>
      </g>
     </g>
    </g>
   </g>
   <g id="line2d_16">
    <path d="M 36.020647 10.42042 
L 38.940674 12.971745 
L 41.860701 15.523069 
L 44.780729 18.074394 
L 47.700756 20.625718 
L 50.620783 23.177043 
L 53.54081 25.728367 
L 56.460837 28.279691 
L 59.380864 30.831016 
L 62.300892 33.38234 
L 65.220919 35.933665 
L 68.140946 38.484989 
L 71.060973 41.036314 
L 73.981 43.587638 
L 76.901027 46.138962 
L 79.821055 48.690287 
L 82.741082 51.241611 
L 85.661109 53.792936 
L 88.581136 56.34426 
L 91.501163 58.895585 
L 94.42119 61.446909 
L 97.341218 63.998233 
L 100.261245 66.549558 
L 103.181272 69.100882 
L 106.101299 71.652207 
L 109.021326 74.203531 
L 111.941353 76.754856 
L 114.861381 79.30618 
L 117.781408 81.857504 
L 120.701435 84.408829 
L 123.621462 86.960153 
L 126.541489 89.511478 
L 129.461516 92.062802 
L 132.381543 94.614126 
L 135.301571 97.165451 
L 138.221598 99.716775 
L 141.141625 102.2681 
L 144.061652 104.819424 
L 146.981679 107.370749 
L 149.901706 109.922073 
L 152.821734 112.473397 
L 155.741761 115.024722 
L 158.661788 117.576046 
L 161.581815 120.127371 
L 164.501842 122.678695 
L 167.421869 125.23002 
L 170.341897 127.781344 
L 173.261924 130.332668 
L 176.181951 132.883993 
L 179.101978 135.435317 
L 182.022005 137.986642 
L 184.942032 140.537966 
L 187.86206 143.089291 
L 190.782087 145.640615 
L 193.702114 148.191939 
L 196.622141 150.743264 
L 199.542168 153.294588 
L 202.462195 155.845913 
L 205.382223 158.397237 
L 208.30225 160.948562 
L 211.222277 163.499886 
L 214.142304 166.05121 
L 217.062331 168.602535 
L 219.982358 171.153859 
L 222.902385 173.705184 
L 225.822413 176.256508 
L 228.74244 178.807833 
L 231.662467 181.359157 
L 234.582494 183.910481 
L 237.502521 186.461806 
L 240.422548 189.01313 
L 243.342576 191.564455 
L 246.262603 194.115779 
L 249.18263 196.667104 
L 252.102657 199.218428 
L 255.022684 201.769752 
L 257.942711 204.321077 
L 260.862739 206.872401 
L 263.782766 209.423726 
L 266.702793 211.97505 
L 269.62282 214.526374 
L 272.542847 217.077699 
L 275.462874 219.629023 
L 278.382902 222.180348 
L 281.302929 224.731672 
L 284.222956 227.282997 
L 287.142983 229.834321 
L 290.06301 232.385645 
L 292.983037 234.93697 
L 295.903065 237.488294 
L 298.823092 240.039619 
L 301.743119 242.590943 
L 304.663146 245.142268 
L 307.583173 247.693592 
L 310.5032 250.244916 
L 313.423227 252.796241 
L 316.343255 255.347565 
L 319.263282 257.89889 
L 322.183309 260.450214 
L 325.103336 263.001539 
" clip-path="url(#p4190ed3116)" style="fill: none; stroke-dasharray: 11.1,4.8; stroke-dashoffset: 0; stroke: #8c8c8c; stroke-width: 3"/>
   </g>
   <g id="patch_3">
    <path d="M 24.56983 270.865354 
L 24.56983 2.834646 
" style="fill: none; stroke: #000000; stroke-linejoin: miter; stroke-linecap: square"/>
   </g>
   <g id="patch_4">
    <path d="M 429.165354 270.865354 
L 429.165354 2.834646 
" style="fill: none; stroke: #000000; stroke-linejoin: miter; stroke-linecap: square"/>
   </g>
   <g id="patch_5">
    <path d="M 24.56983 270.865354 
L 429.165354 270.865354 
" style="fill: none; stroke: #000000; stroke-linejoin: miter; stroke-linecap: square"/>
   </g>
   <g id="patch_6">
    <path d="M 24.56983 2.834646 
L 429.165354 2.834646 
" style="fill: none; stroke: #000000; stroke-linejoin: miter; stroke-linecap: square"/>
   </g>
   <g id="PathCollection_1">
    <defs>
     <path id="m9101791176" d="M 7 0 
L -7 -0 
"/>
    </defs>
    <g clip-path="url(#p4190ed3116)">
     <use xlink:href="#m9101791176" x="226.867592" y="177.151541"/>
     <use xlink:href="#m9101791176" x="226.867592" y="176.739573"/>
    </g>
   </g>
   <g id="PathCollection_2">
    <g clip-path="url(#p4190ed3116)">
     <use xlink:href="#m9101791176" x="268.165119" y="224.380169"/>
     <use xlink:href="#m9101791176" x="268.165119" y="224.126357"/>
    </g>
   </g>
   <g id="PathCollection_3">
    <g clip-path="url(#p4190ed3116)">
     <use xlink:href="#m9101791176" x="309.462646" y="251.744159"/>
     <use xlink:href="#m9101791176" x="309.462646" y="251.662065"/>
    </g>
   </g>
   <g id="PathCollection_4">
    <g clip-path="url(#p4190ed3116)">
     <use xlink:href="#m9101791176" x="350.760173" y="263.27958"/>
     <use xlink:href="#m9101791176" x="350.760173" y="263.212631"/>
    </g>
   </g>
   <g id="PathCollection_5">
    <defs>
     <path id="md925ff24cd" d="M -2.678784 -6.467157 
L -6.467157 -2.678784 
L -6.467157 2.678784 
L -2.678784 6.467157 
L 2.678784 6.467157 
L 6.467157 2.678784 
L 6.467157 -2.678784 
L 2.678784 -6.467157 
z
"/>
    </defs>
    <g clip-path="url(#p4190ed3116)">
     <use xlink:href="#md925ff24cd" x="226.867592" y="176.94515" style="fill: #4c72b0"/>
     <use xlink:href="#md925ff24cd" x="268.165119" y="224.253108" style="fill: #4c72b0"/>
     <use xlink:href="#md925ff24cd" x="309.462646" y="251.703096" style="fill: #4c72b0"/>
     <use xlink:href="#md925ff24cd" x="350.760173" y="263.246095" style="fill: #4c72b0"/>
    </g>
   </g>
   <g id="PathCollection_6">
    <g clip-path="url(#p4190ed3116)">
     <use xlink:href="#m9101791176" x="166.59066" y="119.479297"/>
     <use xlink:href="#m9101791176" x="166.59066" y="119.265766"/>
    </g>
   </g>
   <g id="PathCollection_7">
    <g clip-path="url(#p4190ed3116)">
     <use xlink:href="#m9101791176" x="207.888187" y="160.651045"/>
     <use xlink:href="#m9101791176" x="207.888187" y="160.56517"/>
    </g>
   </g>
   <g id="PathCollection_8">
    <g clip-path="url(#p4190ed3116)">
     <use xlink:href="#m9101791176" x="249.185714" y="198.966245"/>
     <use xlink:href="#m9101791176" x="249.185714" y="198.938641"/>
    </g>
   </g>
   <g id="PathCollection_9">
    <g clip-path="url(#p4190ed3116)">
     <use xlink:href="#m9101791176" x="290.483241" y="231.841294"/>
     <use xlink:href="#m9101791176" x="290.483241" y="231.811108"/>
    </g>
   </g>
   <g id="PathCollection_10">
    <g clip-path="url(#p4190ed3116)">
     <use xlink:href="#m9101791176" x="331.780768" y="253.347076"/>
     <use xlink:href="#m9101791176" x="331.780768" y="253.303713"/>
    </g>
   </g>
   <g id="PathCollection_11">
    <g clip-path="url(#p4190ed3116)">
     <use xlink:href="#m9101791176" x="373.078295" y="256.895024"/>
     <use xlink:href="#m9101791176" x="373.078295" y="256.866715"/>
    </g>
   </g>
   <g id="PathCollection_12">
    <defs>
     <path id="m131b15bca6" d="M -2.678784 -6.467157 
L -6.467157 -2.678784 
L -6.467157 2.678784 
L -2.678784 6.467157 
L 2.678784 6.467157 
L 6.467157 2.678784 
L 6.467157 -2.678784 
L 2.678784 -6.467157 
z
"/>
    </defs>
    <g clip-path="url(#p4190ed3116)">
     <use xlink:href="#m131b15bca6" x="166.59066" y="119.372422" style="fill: #dd8452"/>
     <use xlink:href="#m131b15bca6" x="207.888187" y="160.60809" style="fill: #dd8452"/>
     <use xlink:href="#m131b15bca6" x="249.185714" y="198.952441" style="fill: #dd8452"/>
     <use xlink:href="#m131b15bca6" x="290.483241" y="231.826199" style="fill: #dd8452"/>
     <use xlink:href="#m131b15bca6" x="331.780768" y="253.32539" style="fill: #dd8452"/>
     <use xlink:href="#m131b15bca6" x="373.078295" y="256.880868" style="fill: #dd8452"/>
    </g>
   </g>
   <g id="PathCollection_13">
    <g clip-path="url(#p4190ed3116)">
     <use xlink:href="#m9101791176" x="106.313727" y="69.744736"/>
     <use xlink:href="#m9101791176" x="106.313727" y="69.630091"/>
    </g>
   </g>
   <g id="PathCollection_14">
    <g clip-path="url(#p4190ed3116)">
     <use xlink:href="#m9101791176" x="147.611254" y="106.560634"/>
     <use xlink:href="#m9101791176" x="147.611254" y="106.532158"/>
    </g>
   </g>
   <g id="PathCollection_15">
    <g clip-path="url(#p4190ed3116)">
     <use xlink:href="#m9101791176" x="188.908781" y="138.700662"/>
     <use xlink:href="#m9101791176" x="188.908781" y="138.687657"/>
    </g>
   </g>
   <g id="PathCollection_16">
    <g clip-path="url(#p4190ed3116)">
     <use xlink:href="#m9101791176" x="230.206308" y="176.859802"/>
     <use xlink:href="#m9101791176" x="230.206308" y="176.852554"/>
    </g>
   </g>
   <g id="PathCollection_17">
    <g clip-path="url(#p4190ed3116)">
     <use xlink:href="#m9101791176" x="271.503835" y="218.585902"/>
     <use xlink:href="#m9101791176" x="271.503835" y="218.572157"/>
    </g>
   </g>
   <g id="PathCollection_18">
    <g clip-path="url(#p4190ed3116)">
     <use xlink:href="#m9101791176" x="312.801362" y="244.900815"/>
     <use xlink:href="#m9101791176" x="312.801362" y="244.879869"/>
    </g>
   </g>
   <g id="PathCollection_19">
    <g clip-path="url(#p4190ed3116)">
     <use xlink:href="#m9101791176" x="354.098889" y="257.025765"/>
     <use xlink:href="#m9101791176" x="354.098889" y="257.010282"/>
    </g>
   </g>
   <g id="PathCollection_20">
    <g clip-path="url(#p4190ed3116)">
     <use xlink:href="#m9101791176" x="395.396416" y="257.541076"/>
     <use xlink:href="#m9101791176" x="395.396416" y="257.528401"/>
    </g>
   </g>
   <g id="PathCollection_21">
    <defs>
     <path id="m4a6124ab1e" d="M -2.678784 -6.467157 
L -6.467157 -2.678784 
L -6.467157 2.678784 
L -2.678784 6.467157 
L 2.678784 6.467157 
L 6.467157 2.678784 
L 6.467157 -2.678784 
L 2.678784 -6.467157 
z
"/>
    </defs>
    <g clip-path="url(#p4190ed3116)">
     <use xlink:href="#m4a6124ab1e" x="106.313727" y="69.687382" style="fill: #55a868"/>
     <use xlink:href="#m4a6124ab1e" x="147.611254" y="106.546394" style="fill: #55a868"/>
     <use xlink:href="#m4a6124ab1e" x="188.908781" y="138.694159" style="fill: #55a868"/>
     <use xlink:href="#m4a6124ab1e" x="230.206308" y="176.856178" style="fill: #55a868"/>
     <use xlink:href="#m4a6124ab1e" x="271.503835" y="218.579029" style="fill: #55a868"/>
     <use xlink:href="#m4a6124ab1e" x="312.801362" y="244.890341" style="fill: #55a868"/>
     <use xlink:href="#m4a6124ab1e" x="354.098889" y="257.018023" style="fill: #55a868"/>
     <use xlink:href="#m4a6124ab1e" x="395.396416" y="257.534738" style="fill: #55a868"/>
    </g>
   </g>
   <g id="PathCollection_22">
    <g clip-path="url(#p4190ed3116)">
     <use xlink:href="#m9101791176" x="46.036795" y="21.700035"/>
     <use xlink:href="#m9101791176" x="46.036795" y="21.653494"/>
    </g>
   </g>
   <g id="PathCollection_23">
    <g clip-path="url(#p4190ed3116)">
     <use xlink:href="#m9101791176" x="87.334322" y="59.852037"/>
     <use xlink:href="#m9101791176" x="87.334322" y="59.844138"/>
    </g>
   </g>
   <g id="PathCollection_24">
    <g clip-path="url(#p4190ed3116)">
     <use xlink:href="#m9101791176" x="128.631849" y="90.179591"/>
     <use xlink:href="#m9101791176" x="128.631849" y="90.176807"/>
    </g>
   </g>
   <g id="PathCollection_25">
    <g clip-path="url(#p4190ed3116)">
     <use xlink:href="#m9101791176" x="169.929376" y="121.484818"/>
     <use xlink:href="#m9101791176" x="169.929376" y="121.480173"/>
    </g>
   </g>
   <g id="PathCollection_26">
    <g clip-path="url(#p4190ed3116)">
     <use xlink:href="#m9101791176" x="211.226903" y="160.185378"/>
     <use xlink:href="#m9101791176" x="211.226903" y="160.179961"/>
    </g>
   </g>
   <g id="PathCollection_27">
    <g clip-path="url(#p4190ed3116)">
     <use xlink:href="#m9101791176" x="252.52443" y="208.900656"/>
     <use xlink:href="#m9101791176" x="252.52443" y="208.892128"/>
    </g>
   </g>
   <g id="PathCollection_28">
    <g clip-path="url(#p4190ed3116)">
     <use xlink:href="#m9101791176" x="293.821957" y="243.237327"/>
     <use xlink:href="#m9101791176" x="293.821957" y="243.224582"/>
    </g>
   </g>
   <g id="PathCollection_29">
    <g clip-path="url(#p4190ed3116)">
     <use xlink:href="#m9101791176" x="335.119484" y="263.036075"/>
     <use xlink:href="#m9101791176" x="335.119484" y="263.020202"/>
    </g>
   </g>
   <g id="PathCollection_30">
    <g clip-path="url(#p4190ed3116)">
     <use xlink:href="#m9101791176" x="376.417011" y="259.899112"/>
     <use xlink:href="#m9101791176" x="376.417011" y="259.883656"/>
    </g>
   </g>
   <g id="PathCollection_31">
    <g clip-path="url(#p4190ed3116)">
     <use xlink:href="#m9101791176" x="417.714538" y="258.218785"/>
     <use xlink:href="#m9101791176" x="417.714538" y="258.21387"/>
    </g>
   </g>
   <g id="PathCollection_32">
    <defs>
     <path id="m185621d8ec" d="M -2.678784 -6.467157 
L -6.467157 -2.678784 
L -6.467157 2.678784 
L -2.678784 6.467157 
L 2.678784 6.467157 
L 6.467157 2.678784 
L 6.467157 -2.678784 
L 2.678784 -6.467157 
z
"/>
    </defs>
    <g clip-path="url(#p4190ed3116)">
     <use xlink:href="#m185621d8ec" x="46.036795" y="21.67676" style="fill: #c44e52"/>
     <use xlink:href="#m185621d8ec" x="87.334322" y="59.848087" style="fill: #c44e52"/>
     <use xlink:href="#m185621d8ec" x="128.631849" y="90.178199" style="fill: #c44e52"/>
     <use xlink:href="#m185621d8ec" x="169.929376" y="121.482496" style="fill: #c44e52"/>
     <use xlink:href="#m185621d8ec" x="211.226903" y="160.18267" style="fill: #c44e52"/>
     <use xlink:href="#m185621d8ec" x="252.52443" y="208.896392" style="fill: #c44e52"/>
     <use xlink:href="#m185621d8ec" x="293.821957" y="243.230954" style="fill: #c44e52"/>
     <use xlink:href="#m185621d8ec" x="335.119484" y="263.028138" style="fill: #c44e52"/>
     <use xlink:href="#m185621d8ec" x="376.417011" y="259.891384" style="fill: #c44e52"/>
     <use xlink:href="#m185621d8ec" x="417.714538" y="258.216328" style="fill: #c44e52"/>
    </g>
   </g>
   <g id="legend_1">
    <g id="patch_7">
     <path d="M 312.765354 107.067458 
L 424.165354 107.067458 
L 424.165354 7.834646 
L 312.765354 7.834646 
z
" style="fill: #ffffff; stroke: #000000; stroke-linejoin: miter"/>
    </g>
    <g id="line2d_17">
     <path d="M 320.765354 19.933083 
L 330.765354 19.933083 
L 340.765354 19.933083 
" style="fill: none; stroke-dasharray: 4.625,2; stroke-dashoffset: 0; stroke: #8c8c8c; stroke-width: 1.25; stroke-linejoin: miter"/>
    </g>
    <g id="text_8">
     <!-- y1 -->
     <g transform="translate(348.765354 23.433083) scale(0.1 -0.1)">
      <defs>
       <path id="DejaVuSerif-79" d="M 1381 -609 
L 1600 -56 
L 359 2988 
L -19 2988 
L -19 3322 
L 1509 3322 
L 1509 2988 
L 978 2988 
L 1913 703 
L 2847 2988 
L 2350 2988 
L 2350 3322 
L 3597 3322 
L 3597 2988 
L 3225 2988 
L 1703 -750 
Q 1547 -1138 1356 -1280 
Q 1166 -1422 819 -1422 
Q 672 -1422 517 -1397 
Q 363 -1372 206 -1325 
L 206 -691 
L 500 -691 
Q 519 -903 608 -995 
Q 697 -1088 884 -1088 
Q 1056 -1088 1161 -992 
Q 1266 -897 1381 -609 
z
" transform="scale(0.015625)"/>
      </defs>
      <use xlink:href="#DejaVuSerif-79"/>
      <use xlink:href="#DejaVuSerif-31" x="56.494141"/>
     </g>
    </g>
    <g id="line2d_18">
     <path d="M 320.765354 34.754958 
L 330.765354 34.754958 
L 340.765354 34.754958 
" style="fill: none; stroke-dasharray: 4.625,2; stroke-dashoffset: 0; stroke: #8c8c8c; stroke-width: 1.25; stroke-linejoin: miter"/>
    </g>
    <g id="text_9">
     <!-- $c_2\exp(-\gamma_1 n_H)$ -->
     <g transform="translate(348.765354 38.254958) scale(0.1 -0.1)">
      <defs>
       <path id="DejaVuSans-Oblique-63" d="M 3431 3366 
L 3316 2797 
Q 3109 2947 2876 3022 
Q 2644 3097 2394 3097 
Q 2119 3097 1870 3000 
Q 1622 2903 1453 2725 
Q 1184 2453 1037 2087 
Q 891 1722 891 1331 
Q 891 859 1127 628 
Q 1363 397 1844 397 
Q 2081 397 2348 469 
Q 2616 541 2906 684 
L 2797 116 
Q 2547 13 2283 -39 
Q 2019 -91 1741 -91 
Q 1044 -91 669 257 
Q 294 606 294 1253 
Q 294 1797 489 2255 
Q 684 2713 1069 3078 
Q 1331 3328 1684 3456 
Q 2038 3584 2456 3584 
Q 2700 3584 2940 3529 
Q 3181 3475 3431 3366 
z
" transform="scale(0.015625)"/>
       <path id="DejaVuSans-32" d="M 1228 531 
L 3431 531 
L 3431 0 
L 469 0 
L 469 531 
Q 828 903 1448 1529 
Q 2069 2156 2228 2338 
Q 2531 2678 2651 2914 
Q 2772 3150 2772 3378 
Q 2772 3750 2511 3984 
Q 2250 4219 1831 4219 
Q 1534 4219 1204 4116 
Q 875 4013 500 3803 
L 500 4441 
Q 881 4594 1212 4672 
Q 1544 4750 1819 4750 
Q 2544 4750 2975 4387 
Q 3406 4025 3406 3419 
Q 3406 3131 3298 2873 
Q 3191 2616 2906 2266 
Q 2828 2175 2409 1742 
Q 1991 1309 1228 531 
z
" transform="scale(0.015625)"/>
       <path id="DejaVuSans-65" d="M 3597 1894 
L 3597 1613 
L 953 1613 
Q 991 1019 1311 708 
Q 1631 397 2203 397 
Q 2534 397 2845 478 
Q 3156 559 3463 722 
L 3463 178 
Q 3153 47 2828 -22 
Q 2503 -91 2169 -91 
Q 1331 -91 842 396 
Q 353 884 353 1716 
Q 353 2575 817 3079 
Q 1281 3584 2069 3584 
Q 2775 3584 3186 3129 
Q 3597 2675 3597 1894 
z
M 3022 2063 
Q 3016 2534 2758 2815 
Q 2500 3097 2075 3097 
Q 1594 3097 1305 2825 
Q 1016 2553 972 2059 
L 3022 2063 
z
" transform="scale(0.015625)"/>
       <path id="DejaVuSans-78" d="M 3513 3500 
L 2247 1797 
L 3578 0 
L 2900 0 
L 1881 1375 
L 863 0 
L 184 0 
L 1544 1831 
L 300 3500 
L 978 3500 
L 1906 2253 
L 2834 3500 
L 3513 3500 
z
" transform="scale(0.015625)"/>
       <path id="DejaVuSans-70" d="M 1159 525 
L 1159 -1331 
L 581 -1331 
L 581 3500 
L 1159 3500 
L 1159 2969 
Q 1341 3281 1617 3432 
Q 1894 3584 2278 3584 
Q 2916 3584 3314 3078 
Q 3713 2572 3713 1747 
Q 3713 922 3314 415 
Q 2916 -91 2278 -91 
Q 1894 -91 1617 61 
Q 1341 213 1159 525 
z
M 3116 1747 
Q 3116 2381 2855 2742 
Q 2594 3103 2138 3103 
Q 1681 3103 1420 2742 
Q 1159 2381 1159 1747 
Q 1159 1113 1420 752 
Q 1681 391 2138 391 
Q 2594 391 2855 752 
Q 3116 1113 3116 1747 
z
" transform="scale(0.015625)"/>
       <path id="DejaVuSans-28" d="M 1984 4856 
Q 1566 4138 1362 3434 
Q 1159 2731 1159 2009 
Q 1159 1288 1364 580 
Q 1569 -128 1984 -844 
L 1484 -844 
Q 1016 -109 783 600 
Q 550 1309 550 2009 
Q 550 2706 781 3412 
Q 1013 4119 1484 4856 
L 1984 4856 
z
" transform="scale(0.015625)"/>
       <path id="DejaVuSans-2212" d="M 678 2272 
L 4684 2272 
L 4684 1741 
L 678 1741 
L 678 2272 
z
" transform="scale(0.015625)"/>
       <path id="DejaVuSans-Oblique-3b3" d="M 1491 2950 
L 1838 788 
L 3456 3500 
L 4066 3500 
L 1972 0 
L 1713 -1331 
L 1138 -1331 
L 1397 0 
L 988 2613 
Q 925 3006 628 3006 
L 475 3006 
L 569 3500 
L 788 3500 
Q 1403 3500 1491 2950 
z
" transform="scale(0.015625)"/>
       <path id="DejaVuSans-31" d="M 794 531 
L 1825 531 
L 1825 4091 
L 703 3866 
L 703 4441 
L 1819 4666 
L 2450 4666 
L 2450 531 
L 3481 531 
L 3481 0 
L 794 0 
L 794 531 
z
" transform="scale(0.015625)"/>
       <path id="DejaVuSans-Oblique-6e" d="M 3566 2113 
L 3156 0 
L 2578 0 
L 2988 2091 
Q 3016 2238 3031 2350 
Q 3047 2463 3047 2528 
Q 3047 2791 2881 2937 
Q 2716 3084 2419 3084 
Q 1956 3084 1622 2776 
Q 1288 2469 1184 1941 
L 800 0 
L 225 0 
L 903 3500 
L 1478 3500 
L 1363 2950 
Q 1603 3253 1940 3418 
Q 2278 3584 2650 3584 
Q 3113 3584 3367 3334 
Q 3622 3084 3622 2631 
Q 3622 2519 3608 2391 
Q 3594 2263 3566 2113 
z
" transform="scale(0.015625)"/>
       <path id="DejaVuSans-Oblique-48" d="M 1081 4666 
L 1716 4666 
L 1344 2753 
L 3634 2753 
L 4006 4666 
L 4641 4666 
L 3731 0 
L 3097 0 
L 3531 2222 
L 1241 2222 
L 806 0 
L 172 0 
L 1081 4666 
z
" transform="scale(0.015625)"/>
       <path id="DejaVuSans-29" d="M 513 4856 
L 1013 4856 
Q 1481 4119 1714 3412 
Q 1947 2706 1947 2009 
Q 1947 1309 1714 600 
Q 1481 -109 1013 -844 
L 513 -844 
Q 928 -128 1133 580 
Q 1338 1288 1338 2009 
Q 1338 2731 1133 3434 
Q 928 4138 513 4856 
z
" transform="scale(0.015625)"/>
      </defs>
      <use xlink:href="#DejaVuSans-Oblique-63" transform="translate(0 0.125)"/>
      <use xlink:href="#DejaVuSans-32" transform="translate(54.980469 -16.28125) scale(0.7)"/>
      <use xlink:href="#DejaVuSans-65" transform="translate(102.250977 0.125)"/>
      <use xlink:href="#DejaVuSans-78" transform="translate(163.774414 0.125)"/>
      <use xlink:href="#DejaVuSans-70" transform="translate(222.954102 0.125)"/>
      <use xlink:href="#DejaVuSans-28" transform="translate(286.430664 0.125)"/>
      <use xlink:href="#DejaVuSans-2212" transform="translate(325.444336 0.125)"/>
      <use xlink:href="#DejaVuSans-Oblique-3b3" transform="translate(409.233398 0.125)"/>
      <use xlink:href="#DejaVuSans-31" transform="translate(468.413086 -16.28125) scale(0.7)"/>
      <use xlink:href="#DejaVuSans-Oblique-6e" transform="translate(515.683594 0.125)"/>
      <use xlink:href="#DejaVuSans-Oblique-48" transform="translate(579.0625 -16.28125) scale(0.7)"/>
      <use xlink:href="#DejaVuSans-29" transform="translate(634.433594 0.125)"/>
     </g>
    </g>
    <g id="line2d_19">
     <path d="M 320.765354 49.453396 
L 330.765354 49.453396 
L 340.765354 49.453396 
" style="fill: none"/>
     <defs>
      <path id="m3562359a70" d="M -1.530734 -3.695518 
L -3.695518 -1.530734 
L -3.695518 1.530734 
L -1.530734 3.695518 
L 1.530734 3.695518 
L 3.695518 1.530734 
L 3.695518 -1.530734 
L 1.530734 -3.695518 
z
"/>
     </defs>
     <g>
      <use xlink:href="#m3562359a70" x="330.765354" y="49.453396" style="fill: #4c72b0"/>
     </g>
    </g>
    <g id="text_10">
     <!-- N=6 -->
     <g transform="translate(348.765354 52.953396) scale(0.1 -0.1)">
      <defs>
       <path id="DejaVuSerif-4e" d="M 313 0 
L 313 331 
L 941 331 
L 941 4331 
L 313 4331 
L 313 4666 
L 1509 4666 
L 4306 984 
L 4306 4331 
L 3681 4331 
L 3681 4666 
L 5319 4666 
L 5319 4331 
L 4691 4331 
L 4691 -91 
L 4313 -91 
L 1325 3841 
L 1325 331 
L 1953 331 
L 1953 0 
L 313 0 
z
" transform="scale(0.015625)"/>
       <path id="DejaVuSerif-3d" d="M 678 2894 
L 4684 2894 
L 4684 2394 
L 678 2394 
L 678 2894 
z
M 678 1619 
L 4684 1619 
L 4684 1119 
L 678 1119 
L 678 1619 
z
" transform="scale(0.015625)"/>
      </defs>
      <use xlink:href="#DejaVuSerif-4e"/>
      <use xlink:href="#DejaVuSerif-3d" x="87.5"/>
      <use xlink:href="#DejaVuSerif-36" x="171.289062"/>
     </g>
    </g>
    <g id="line2d_20">
     <path d="M 320.765354 64.131521 
L 330.765354 64.131521 
L 340.765354 64.131521 
" style="fill: none"/>
     <defs>
      <path id="mb675906908" d="M -1.530734 -3.695518 
L -3.695518 -1.530734 
L -3.695518 1.530734 
L -1.530734 3.695518 
L 1.530734 3.695518 
L 3.695518 1.530734 
L 3.695518 -1.530734 
L 1.530734 -3.695518 
z
"/>
     </defs>
     <g>
      <use xlink:href="#mb675906908" x="330.765354" y="64.131521" style="fill: #dd8452"/>
     </g>
    </g>
    <g id="text_11">
     <!-- N=8 -->
     <g transform="translate(348.765354 67.631521) scale(0.1 -0.1)">
      <defs>
       <path id="DejaVuSerif-38" d="M 2981 1275 
Q 2981 1775 2732 2051 
Q 2484 2328 2034 2328 
Q 1584 2328 1336 2051 
Q 1088 1775 1088 1275 
Q 1088 772 1336 495 
Q 1584 219 2034 219 
Q 2484 219 2732 495 
Q 2981 772 2981 1275 
z
M 2853 3541 
Q 2853 3966 2637 4203 
Q 2422 4441 2034 4441 
Q 1650 4441 1433 4203 
Q 1216 3966 1216 3541 
Q 1216 3113 1433 2875 
Q 1650 2638 2034 2638 
Q 2422 2638 2637 2875 
Q 2853 3113 2853 3541 
z
M 2516 2484 
Q 3047 2413 3344 2092 
Q 3641 1772 3641 1275 
Q 3641 619 3225 264 
Q 2809 -91 2034 -91 
Q 1263 -91 845 264 
Q 428 619 428 1275 
Q 428 1772 725 2092 
Q 1022 2413 1556 2484 
Q 1084 2569 832 2842 
Q 581 3116 581 3541 
Q 581 4103 968 4426 
Q 1356 4750 2034 4750 
Q 2713 4750 3100 4426 
Q 3488 4103 3488 3541 
Q 3488 3116 3236 2842 
Q 2984 2569 2516 2484 
z
" transform="scale(0.015625)"/>
      </defs>
      <use xlink:href="#DejaVuSerif-4e"/>
      <use xlink:href="#DejaVuSerif-3d" x="87.5"/>
      <use xlink:href="#DejaVuSerif-38" x="171.289062"/>
     </g>
    </g>
    <g id="line2d_21">
     <path d="M 320.765354 78.809646 
L 330.765354 78.809646 
L 340.765354 78.809646 
" style="fill: none"/>
     <defs>
      <path id="m80cb5fe742" d="M -1.530734 -3.695518 
L -3.695518 -1.530734 
L -3.695518 1.530734 
L -1.530734 3.695518 
L 1.530734 3.695518 
L 3.695518 1.530734 
L 3.695518 -1.530734 
L 1.530734 -3.695518 
z
"/>
     </defs>
     <g>
      <use xlink:href="#m80cb5fe742" x="330.765354" y="78.809646" style="fill: #55a868"/>
     </g>
    </g>
    <g id="text_12">
     <!-- N=10 -->
     <g transform="translate(348.765354 82.309646) scale(0.1 -0.1)">
      <use xlink:href="#DejaVuSerif-4e"/>
      <use xlink:href="#DejaVuSerif-3d" x="87.5"/>
      <use xlink:href="#DejaVuSerif-31" x="171.289062"/>
      <use xlink:href="#DejaVuSerif-30" x="234.912109"/>
     </g>
    </g>
    <g id="line2d_22">
     <path d="M 320.765354 93.487771 
L 330.765354 93.487771 
L 340.765354 93.487771 
" style="fill: none"/>
     <defs>
      <path id="m1f593e6fbd" d="M -1.530734 -3.695518 
L -3.695518 -1.530734 
L -3.695518 1.530734 
L -1.530734 3.695518 
L 1.530734 3.695518 
L 3.695518 1.530734 
L 3.695518 -1.530734 
L 1.530734 -3.695518 
z
"/>
     </defs>
     <g>
      <use xlink:href="#m1f593e6fbd" x="330.765354" y="93.487771" style="fill: #c44e52"/>
     </g>
    </g>
    <g id="text_13">
     <!-- N=12 -->
     <g transform="translate(348.765354 96.987771) scale(0.1 -0.1)">
      <use xlink:href="#DejaVuSerif-4e"/>
      <use xlink:href="#DejaVuSerif-3d" x="87.5"/>
      <use xlink:href="#DejaVuSerif-31" x="171.289062"/>
      <use xlink:href="#DejaVuSerif-32" x="234.912109"/>
     </g>
    </g>
   </g>
  </g>
 </g>
 <defs>
  <clipPath id="p4190ed3116">
   <rect x="24.56983" y="2.834646" width="404.595524" height="268.030709"/>
  </clipPath>
 </defs>
</svg>
