<?xml version="1.0" encoding="utf-8" standalone="no"?>
<!DOCTYPE svg PUBLIC "-//W3C//DTD SVG 1.1//EN"
  "http://www.w3.org/Graphics/SVG/1.1/DTD/svg11.dtd">
<svg xmlns:xlink="http://www.w3.org/1999/xlink" width="432pt" height="288pt" viewBox="0 0 432 288" xmlns="http://www.w3.org/2000/svg" version="1.1">
 <metadata>
  <rdf:RDF xmlns:dc="http://purl.org/dc/elements/1.1/" xmlns:cc="http://creativecommons.org/ns#" xmlns:rdf="http://www.w3.org/1999/02/22-rdf-syntax-ns#">
   <cc:Work>
    <dc:type rdf:resource="http://purl.org/dc/dcmitype/StillImage"/>
    <dc:date>2024-07-25T09:20:30.627506</dc:date>
    <dc:format>image/svg+xml</dc:format>
    <dc:creator>
     <cc:Agent>
      <dc:title>Matplotlib v3.9.1, https://matplotlib.org/</dc:title>
     </cc:Agent>
    </dc:creator>
   </cc:Work>
  </rdf:RDF>
 </metadata>
 <defs>
  <style type="text/css">*{stroke-linejoin: round; stroke-linecap: butt}</style>
 </defs>
 <g id="figure_1">
  <g id="patch_1">
   <path d="M 0 288 
L 432 288 
L 432 0 
L 0 0 
z
" style="fill: #ffffff"/>
  </g>
  <g id="axes_1">
   <g id="patch_2">
    <path d="M 48.0507 254.625354 
L 423.033423 254.625354 
L 423.033423 19.634646 
L 48.0507 19.634646 
z
" style="fill: #ffffff"/>
   </g>
   <g id="line2d_1">
    <path d="M -1 69.172636 
L 433 69.172636 
" clip-path="url(#pebe401352d)" style="fill: none; stroke-dasharray: 3.7,1.6; stroke-dashoffset: 0; stroke: #8c8c8c"/>
   </g>
   <g id="line2d_2">
    <path d="M -1 91.45651 
L 433 91.45651 
" clip-path="url(#pebe401352d)" style="fill: none; stroke-dasharray: 3.7,1.6; stroke-dashoffset: 0; stroke: #8c8c8c"/>
   </g>
   <g id="line2d_3">
    <path d="M -1 113.740384 
L 433 113.740384 
" clip-path="url(#pebe401352d)" style="fill: none; stroke-dasharray: 3.7,1.6; stroke-dashoffset: 0; stroke: #8c8c8c"/>
   </g>
   <g id="line2d_4">
    <path d="M -1 136.024259 
L 433 136.024259 
" clip-path="url(#pebe401352d)" style="fill: none; stroke-dasharray: 3.7,1.6; stroke-dashoffset: 0; stroke: #8c8c8c"/>
   </g>
   <g id="matplotlib.axis_1">
    <g id="xtick_1">
     <g id="line2d_5">
      <defs>
       <path id="m7688c4b001" d="M 0 0 
L 0 -2.5 
" style="stroke: #000000; stroke-width: 0.5"/>
      </defs>
      <g>
       <use xlink:href="#m7688c4b001" x="58.663418" y="254.625354" style="stroke: #000000; stroke-width: 0.5"/>
      </g>
     </g>
     <g id="line2d_6">
      <defs>
       <path id="mc0748b9f5b" d="M 0 0 
L 0 2.5 
" style="stroke: #000000; stroke-width: 0.5"/>
      </defs>
      <g>
       <use xlink:href="#mc0748b9f5b" x="58.663418" y="19.634646" style="stroke: #000000; stroke-width: 0.5"/>
      </g>
     </g>
     <g id="text_1">
      <!-- $1$ -->
      <g transform="translate(55.463418 265.723792) scale(0.1 -0.1)">
       <defs>
        <path id="DejaVuSerif-31" d="M 909 0 
L 909 331 
L 1722 331 
L 1722 4213 
L 781 3603 
L 781 4013 
L 1919 4750 
L 2350 4750 
L 2350 331 
L 3163 331 
L 3163 0 
L 909 0 
z
" transform="scale(0.015625)"/>
       </defs>
       <use xlink:href="#DejaVuSerif-31" transform="translate(0 0.78125)"/>
      </g>
     </g>
    </g>
    <g id="xtick_2">
     <g id="line2d_7">
      <g>
       <use xlink:href="#m7688c4b001" x="90.823171" y="254.625354" style="stroke: #000000; stroke-width: 0.5"/>
      </g>
     </g>
     <g id="line2d_8">
      <g>
       <use xlink:href="#mc0748b9f5b" x="90.823171" y="19.634646" style="stroke: #000000; stroke-width: 0.5"/>
      </g>
     </g>
     <g id="text_2">
      <!-- $2$ -->
      <g transform="translate(87.623171 265.723792) scale(0.1 -0.1)">
       <defs>
        <path id="DejaVuSerif-32" d="M 819 3553 
L 469 3553 
L 469 4384 
Q 803 4563 1142 4656 
Q 1481 4750 1806 4750 
Q 2534 4750 2956 4397 
Q 3378 4044 3378 3438 
Q 3378 2753 2422 1800 
Q 2347 1728 2309 1691 
L 1131 513 
L 3078 513 
L 3078 1088 
L 3444 1088 
L 3444 0 
L 434 0 
L 434 341 
L 1850 1753 
Q 2319 2222 2519 2614 
Q 2719 3006 2719 3438 
Q 2719 3909 2473 4175 
Q 2228 4441 1797 4441 
Q 1350 4441 1106 4219 
Q 863 3997 819 3553 
z
" transform="scale(0.015625)"/>
       </defs>
       <use xlink:href="#DejaVuSerif-32" transform="translate(0 0.78125)"/>
      </g>
     </g>
    </g>
    <g id="xtick_3">
     <g id="line2d_9">
      <g>
       <use xlink:href="#m7688c4b001" x="122.982925" y="254.625354" style="stroke: #000000; stroke-width: 0.5"/>
      </g>
     </g>
     <g id="line2d_10">
      <g>
       <use xlink:href="#mc0748b9f5b" x="122.982925" y="19.634646" style="stroke: #000000; stroke-width: 0.5"/>
      </g>
     </g>
     <g id="text_3">
      <!-- $3$ -->
      <g transform="translate(119.782925 265.723792) scale(0.1 -0.1)">
       <defs>
        <path id="DejaVuSerif-33" d="M 622 4469 
Q 988 4606 1323 4678 
Q 1659 4750 1953 4750 
Q 2638 4750 3022 4454 
Q 3406 4159 3406 3634 
Q 3406 3213 3140 2930 
Q 2875 2647 2388 2547 
Q 2963 2466 3280 2130 
Q 3597 1794 3597 1259 
Q 3597 606 3158 257 
Q 2719 -91 1894 -91 
Q 1528 -91 1179 -12 
Q 831 66 488 225 
L 488 1131 
L 838 1131 
Q 869 681 1141 450 
Q 1413 219 1906 219 
Q 2384 219 2661 495 
Q 2938 772 2938 1253 
Q 2938 1803 2653 2086 
Q 2369 2369 1819 2369 
L 1522 2369 
L 1522 2688 
L 1678 2688 
Q 2225 2688 2498 2914 
Q 2772 3141 2772 3597 
Q 2772 4006 2547 4223 
Q 2322 4441 1900 4441 
Q 1478 4441 1245 4241 
Q 1013 4041 972 3647 
L 622 3647 
L 622 4469 
z
" transform="scale(0.015625)"/>
       </defs>
       <use xlink:href="#DejaVuSerif-33" transform="translate(0 0.78125)"/>
      </g>
     </g>
    </g>
    <g id="xtick_4">
     <g id="line2d_11">
      <g>
       <use xlink:href="#m7688c4b001" x="155.142678" y="254.625354" style="stroke: #000000; stroke-width: 0.5"/>
      </g>
     </g>
     <g id="line2d_12">
      <g>
       <use xlink:href="#mc0748b9f5b" x="155.142678" y="19.634646" style="stroke: #000000; stroke-width: 0.5"/>
      </g>
     </g>
     <g id="text_4">
      <!-- $4$ -->
      <g transform="translate(151.942678 265.723792) scale(0.1 -0.1)">
       <defs>
        <path id="DejaVuSerif-34" d="M 2234 1581 
L 2234 4063 
L 641 1581 
L 2234 1581 
z
M 3609 0 
L 1484 0 
L 1484 331 
L 2234 331 
L 2234 1247 
L 197 1247 
L 197 1588 
L 2241 4750 
L 2859 4750 
L 2859 1581 
L 3750 1581 
L 3750 1247 
L 2859 1247 
L 2859 331 
L 3609 331 
L 3609 0 
z
" transform="scale(0.015625)"/>
       </defs>
       <use xlink:href="#DejaVuSerif-34" transform="translate(0 0.78125)"/>
      </g>
     </g>
    </g>
    <g id="xtick_5">
     <g id="line2d_13">
      <g>
       <use xlink:href="#m7688c4b001" x="187.302431" y="254.625354" style="stroke: #000000; stroke-width: 0.5"/>
      </g>
     </g>
     <g id="line2d_14">
      <g>
       <use xlink:href="#mc0748b9f5b" x="187.302431" y="19.634646" style="stroke: #000000; stroke-width: 0.5"/>
      </g>
     </g>
     <g id="text_5">
      <!-- $5$ -->
      <g transform="translate(184.102431 265.723792) scale(0.1 -0.1)">
       <defs>
        <path id="DejaVuSerif-35" d="M 3219 4666 
L 3219 4153 
L 1081 4153 
L 1081 2816 
Q 1244 2928 1461 2984 
Q 1678 3041 1947 3041 
Q 2703 3041 3140 2622 
Q 3578 2203 3578 1478 
Q 3578 738 3136 323 
Q 2694 -91 1894 -91 
Q 1572 -91 1234 -12 
Q 897 66 544 225 
L 544 1131 
L 897 1131 
Q 925 688 1179 453 
Q 1434 219 1894 219 
Q 2388 219 2653 544 
Q 2919 869 2919 1478 
Q 2919 2084 2655 2407 
Q 2391 2731 1894 2731 
Q 1613 2731 1398 2631 
Q 1184 2531 1019 2322 
L 750 2322 
L 750 4666 
L 3219 4666 
z
" transform="scale(0.015625)"/>
       </defs>
       <use xlink:href="#DejaVuSerif-35" transform="translate(0 0.09375)"/>
      </g>
     </g>
    </g>
    <g id="xtick_6">
     <g id="line2d_15">
      <g>
       <use xlink:href="#m7688c4b001" x="219.462185" y="254.625354" style="stroke: #000000; stroke-width: 0.5"/>
      </g>
     </g>
     <g id="line2d_16">
      <g>
       <use xlink:href="#mc0748b9f5b" x="219.462185" y="19.634646" style="stroke: #000000; stroke-width: 0.5"/>
      </g>
     </g>
     <g id="text_6">
      <!-- $6$ -->
      <g transform="translate(216.262185 265.723792) scale(0.1 -0.1)">
       <defs>
        <path id="DejaVuSerif-36" d="M 2094 219 
Q 2534 219 2771 542 
Q 3009 866 3009 1472 
Q 3009 2078 2771 2401 
Q 2534 2725 2094 2725 
Q 1647 2725 1412 2412 
Q 1178 2100 1178 1509 
Q 1178 888 1415 553 
Q 1653 219 2094 219 
z
M 1075 2569 
Q 1288 2803 1556 2918 
Q 1825 3034 2163 3034 
Q 2859 3034 3264 2615 
Q 3669 2197 3669 1472 
Q 3669 763 3233 336 
Q 2797 -91 2069 -91 
Q 1278 -91 853 498 
Q 428 1088 428 2181 
Q 428 3406 931 4078 
Q 1434 4750 2350 4750 
Q 2597 4750 2869 4703 
Q 3141 4656 3425 4563 
L 3425 3794 
L 3072 3794 
Q 3034 4109 2831 4275 
Q 2628 4441 2284 4441 
Q 1678 4441 1381 3981 
Q 1084 3522 1075 2569 
z
" transform="scale(0.015625)"/>
       </defs>
       <use xlink:href="#DejaVuSerif-36" transform="translate(0 0.78125)"/>
      </g>
     </g>
    </g>
    <g id="xtick_7">
     <g id="line2d_17">
      <g>
       <use xlink:href="#m7688c4b001" x="251.621938" y="254.625354" style="stroke: #000000; stroke-width: 0.5"/>
      </g>
     </g>
     <g id="line2d_18">
      <g>
       <use xlink:href="#mc0748b9f5b" x="251.621938" y="19.634646" style="stroke: #000000; stroke-width: 0.5"/>
      </g>
     </g>
     <g id="text_7">
      <!-- $7$ -->
      <g transform="translate(248.421938 265.723792) scale(0.1 -0.1)">
       <defs>
        <path id="DejaVuSerif-37" d="M 3609 4347 
L 1784 0 
L 1319 0 
L 3059 4153 
L 903 4153 
L 903 3578 
L 538 3578 
L 538 4666 
L 3609 4666 
L 3609 4347 
z
" transform="scale(0.015625)"/>
       </defs>
       <use xlink:href="#DejaVuSerif-37" transform="translate(0 0.09375)"/>
      </g>
     </g>
    </g>
    <g id="xtick_8">
     <g id="line2d_19">
      <g>
       <use xlink:href="#m7688c4b001" x="283.781691" y="254.625354" style="stroke: #000000; stroke-width: 0.5"/>
      </g>
     </g>
     <g id="line2d_20">
      <g>
       <use xlink:href="#mc0748b9f5b" x="283.781691" y="19.634646" style="stroke: #000000; stroke-width: 0.5"/>
      </g>
     </g>
     <g id="text_8">
      <!-- $8$ -->
      <g transform="translate(280.581691 265.723792) scale(0.1 -0.1)">
       <defs>
        <path id="DejaVuSerif-38" d="M 2981 1275 
Q 2981 1775 2732 2051 
Q 2484 2328 2034 2328 
Q 1584 2328 1336 2051 
Q 1088 1775 1088 1275 
Q 1088 772 1336 495 
Q 1584 219 2034 219 
Q 2484 219 2732 495 
Q 2981 772 2981 1275 
z
M 2853 3541 
Q 2853 3966 2637 4203 
Q 2422 4441 2034 4441 
Q 1650 4441 1433 4203 
Q 1216 3966 1216 3541 
Q 1216 3113 1433 2875 
Q 1650 2638 2034 2638 
Q 2422 2638 2637 2875 
Q 2853 3113 2853 3541 
z
M 2516 2484 
Q 3047 2413 3344 2092 
Q 3641 1772 3641 1275 
Q 3641 619 3225 264 
Q 2809 -91 2034 -91 
Q 1263 -91 845 264 
Q 428 619 428 1275 
Q 428 1772 725 2092 
Q 1022 2413 1556 2484 
Q 1084 2569 832 2842 
Q 581 3116 581 3541 
Q 581 4103 968 4426 
Q 1356 4750 2034 4750 
Q 2713 4750 3100 4426 
Q 3488 4103 3488 3541 
Q 3488 3116 3236 2842 
Q 2984 2569 2516 2484 
z
" transform="scale(0.015625)"/>
       </defs>
       <use xlink:href="#DejaVuSerif-38" transform="translate(0 0.78125)"/>
      </g>
     </g>
    </g>
    <g id="xtick_9">
     <g id="line2d_21">
      <g>
       <use xlink:href="#m7688c4b001" x="315.941445" y="254.625354" style="stroke: #000000; stroke-width: 0.5"/>
      </g>
     </g>
     <g id="line2d_22">
      <g>
       <use xlink:href="#mc0748b9f5b" x="315.941445" y="19.634646" style="stroke: #000000; stroke-width: 0.5"/>
      </g>
     </g>
     <g id="text_9">
      <!-- $9$ -->
      <g transform="translate(312.741445 265.723792) scale(0.1 -0.1)">
       <defs>
        <path id="DejaVuSerif-39" d="M 2994 2091 
Q 2784 1856 2512 1740 
Q 2241 1625 1900 1625 
Q 1206 1625 804 2044 
Q 403 2463 403 3188 
Q 403 3897 839 4323 
Q 1275 4750 2003 4750 
Q 2794 4750 3217 4161 
Q 3641 3572 3641 2478 
Q 3641 1253 3137 581 
Q 2634 -91 1722 -91 
Q 1475 -91 1203 -44 
Q 931 3 647 97 
L 647 872 
L 997 872 
Q 1038 556 1241 387 
Q 1444 219 1784 219 
Q 2391 219 2687 676 
Q 2984 1134 2994 2091 
z
M 1978 4441 
Q 1534 4441 1298 4117 
Q 1063 3794 1063 3188 
Q 1063 2581 1298 2256 
Q 1534 1931 1978 1931 
Q 2422 1931 2658 2245 
Q 2894 2559 2894 3150 
Q 2894 3772 2656 4106 
Q 2419 4441 1978 4441 
z
" transform="scale(0.015625)"/>
       </defs>
       <use xlink:href="#DejaVuSerif-39" transform="translate(0 0.78125)"/>
      </g>
     </g>
    </g>
    <g id="xtick_10">
     <g id="line2d_23">
      <g>
       <use xlink:href="#m7688c4b001" x="348.101198" y="254.625354" style="stroke: #000000; stroke-width: 0.5"/>
      </g>
     </g>
     <g id="line2d_24">
      <g>
       <use xlink:href="#mc0748b9f5b" x="348.101198" y="19.634646" style="stroke: #000000; stroke-width: 0.5"/>
      </g>
     </g>
     <g id="text_10">
      <!-- $10$ -->
      <g transform="translate(341.701198 265.723792) scale(0.1 -0.1)">
       <defs>
        <path id="DejaVuSerif-30" d="M 2034 219 
Q 2513 219 2750 744 
Q 2988 1269 2988 2328 
Q 2988 3391 2750 3916 
Q 2513 4441 2034 4441 
Q 1556 4441 1318 3916 
Q 1081 3391 1081 2328 
Q 1081 1269 1318 744 
Q 1556 219 2034 219 
z
M 2034 -91 
Q 1275 -91 848 546 
Q 422 1184 422 2328 
Q 422 3475 848 4112 
Q 1275 4750 2034 4750 
Q 2797 4750 3222 4112 
Q 3647 3475 3647 2328 
Q 3647 1184 3222 546 
Q 2797 -91 2034 -91 
z
" transform="scale(0.015625)"/>
       </defs>
       <use xlink:href="#DejaVuSerif-31" transform="translate(0 0.78125)"/>
       <use xlink:href="#DejaVuSerif-30" transform="translate(63.623047 0.78125)"/>
      </g>
     </g>
    </g>
    <g id="xtick_11">
     <g id="line2d_25">
      <g>
       <use xlink:href="#m7688c4b001" x="380.260951" y="254.625354" style="stroke: #000000; stroke-width: 0.5"/>
      </g>
     </g>
     <g id="line2d_26">
      <g>
       <use xlink:href="#mc0748b9f5b" x="380.260951" y="19.634646" style="stroke: #000000; stroke-width: 0.5"/>
      </g>
     </g>
     <g id="text_11">
      <!-- $11$ -->
      <g transform="translate(373.860951 265.723792) scale(0.1 -0.1)">
       <use xlink:href="#DejaVuSerif-31" transform="translate(0 0.78125)"/>
       <use xlink:href="#DejaVuSerif-31" transform="translate(63.623047 0.78125)"/>
      </g>
     </g>
    </g>
    <g id="xtick_12">
     <g id="line2d_27">
      <g>
       <use xlink:href="#m7688c4b001" x="412.420705" y="254.625354" style="stroke: #000000; stroke-width: 0.5"/>
      </g>
     </g>
     <g id="line2d_28">
      <g>
       <use xlink:href="#mc0748b9f5b" x="412.420705" y="19.634646" style="stroke: #000000; stroke-width: 0.5"/>
      </g>
     </g>
     <g id="text_12">
      <!-- $12$ -->
      <g transform="translate(406.020705 265.723792) scale(0.1 -0.1)">
       <use xlink:href="#DejaVuSerif-31" transform="translate(0 0.78125)"/>
       <use xlink:href="#DejaVuSerif-32" transform="translate(63.623047 0.78125)"/>
      </g>
     </g>
    </g>
    <g id="text_13">
     <!-- $n_H$ -->
     <g transform="translate(227.802061 280.921604) scale(0.12 -0.12)">
      <defs>
       <path id="DejaVuSerif-Italic-6e" d="M 450 0 
L 1031 2988 
L 481 2988 
L 544 3322 
L 1669 3322 
L 1556 2731 
Q 1781 3069 2068 3241 
Q 2356 3413 2694 3413 
Q 3244 3413 3444 3097 
Q 3563 2906 3563 2588 
Q 3563 2378 3509 2113 
L 3163 331 
L 3675 331 
L 3613 0 
L 2522 0 
L 2897 1931 
Q 2959 2253 2959 2469 
Q 2959 2659 2909 2769 
Q 2803 2994 2425 2994 
Q 2025 2994 1759 2701 
Q 1494 2409 1384 1850 
L 1025 0 
L 450 0 
z
" transform="scale(0.015625)"/>
       <path id="DejaVuSerif-Italic-48" d="M -97 0 
L -34 331 
L 559 331 
L 1338 4331 
L 744 4331 
L 809 4666 
L 2631 4666 
L 2566 4331 
L 1972 4331 
L 1659 2719 
L 4078 2719 
L 4391 4331 
L 3797 4331 
L 3863 4666 
L 5684 4666 
L 5619 4331 
L 5025 4331 
L 4247 331 
L 4841 331 
L 4778 0 
L 2956 0 
L 3019 331 
L 3616 331 
L 4003 2338 
L 1584 2338 
L 1194 331 
L 1788 331 
L 1725 0 
L -97 0 
z
" transform="scale(0.015625)"/>
      </defs>
      <use xlink:href="#DejaVuSerif-Italic-6e" transform="translate(0 0.671875)"/>
      <use xlink:href="#DejaVuSerif-Italic-48" transform="translate(64.404297 -14.9) scale(0.7)"/>
     </g>
    </g>
   </g>
   <g id="matplotlib.axis_2">
    <g id="ytick_1">
     <g id="line2d_29">
      <defs>
       <path id="me9f027530c" d="M 0 0 
L 2.5 0 
" style="stroke: #000000; stroke-width: 0.5"/>
      </defs>
      <g>
       <use xlink:href="#me9f027530c" x="48.0507" y="48.333013" style="stroke: #000000; stroke-width: 0.5"/>
      </g>
     </g>
     <g id="line2d_30">
      <defs>
       <path id="m2fd92704f9" d="M 0 0 
L -2.5 0 
" style="stroke: #000000; stroke-width: 0.5"/>
      </defs>
      <g>
       <use xlink:href="#m2fd92704f9" x="423.033423" y="48.333013" style="stroke: #000000; stroke-width: 0.5"/>
      </g>
     </g>
     <g id="text_14">
      <!-- $10^{-2}$ -->
      <g transform="translate(21.1507 52.132232) scale(0.1 -0.1)">
       <defs>
        <path id="DejaVuSerif-2212" d="M 678 2259 
L 4684 2259 
L 4684 1753 
L 678 1753 
L 678 2259 
z
" transform="scale(0.015625)"/>
       </defs>
       <use xlink:href="#DejaVuSerif-31" transform="translate(0 0.7125)"/>
       <use xlink:href="#DejaVuSerif-30" transform="translate(63.623047 0.7125)"/>
       <use xlink:href="#DejaVuSerif-2212" transform="translate(128.154453 37.046875) scale(0.7)"/>
       <use xlink:href="#DejaVuSerif-32" transform="translate(186.806797 37.046875) scale(0.7)"/>
      </g>
     </g>
    </g>
    <g id="ytick_2">
     <g id="line2d_31">
      <g>
       <use xlink:href="#me9f027530c" x="48.0507" y="78.145721" style="stroke: #000000; stroke-width: 0.5"/>
      </g>
     </g>
     <g id="line2d_32">
      <g>
       <use xlink:href="#m2fd92704f9" x="423.033423" y="78.145721" style="stroke: #000000; stroke-width: 0.5"/>
      </g>
     </g>
     <g id="text_15">
      <!-- $10^{-3}$ -->
      <g transform="translate(21.1507 81.94494) scale(0.1 -0.1)">
       <use xlink:href="#DejaVuSerif-31" transform="translate(0 0.7125)"/>
       <use xlink:href="#DejaVuSerif-30" transform="translate(63.623047 0.7125)"/>
       <use xlink:href="#DejaVuSerif-2212" transform="translate(128.154453 37.046875) scale(0.7)"/>
       <use xlink:href="#DejaVuSerif-33" transform="translate(186.806797 37.046875) scale(0.7)"/>
      </g>
     </g>
    </g>
    <g id="ytick_3">
     <g id="line2d_33">
      <g>
       <use xlink:href="#me9f027530c" x="48.0507" y="107.958428" style="stroke: #000000; stroke-width: 0.5"/>
      </g>
     </g>
     <g id="line2d_34">
      <g>
       <use xlink:href="#m2fd92704f9" x="423.033423" y="107.958428" style="stroke: #000000; stroke-width: 0.5"/>
      </g>
     </g>
     <g id="text_16">
      <!-- $10^{-4}$ -->
      <g transform="translate(21.1507 111.757647) scale(0.1 -0.1)">
       <use xlink:href="#DejaVuSerif-31" transform="translate(0 0.7125)"/>
       <use xlink:href="#DejaVuSerif-30" transform="translate(63.623047 0.7125)"/>
       <use xlink:href="#DejaVuSerif-2212" transform="translate(128.154453 37.046875) scale(0.7)"/>
       <use xlink:href="#DejaVuSerif-34" transform="translate(186.806797 37.046875) scale(0.7)"/>
      </g>
     </g>
    </g>
    <g id="ytick_4">
     <g id="line2d_35">
      <g>
       <use xlink:href="#me9f027530c" x="48.0507" y="137.771136" style="stroke: #000000; stroke-width: 0.5"/>
      </g>
     </g>
     <g id="line2d_36">
      <g>
       <use xlink:href="#m2fd92704f9" x="423.033423" y="137.771136" style="stroke: #000000; stroke-width: 0.5"/>
      </g>
     </g>
     <g id="text_17">
      <!-- $10^{-5}$ -->
      <g transform="translate(21.1507 141.570355) scale(0.1 -0.1)">
       <use xlink:href="#DejaVuSerif-31" transform="translate(0 0.63125)"/>
       <use xlink:href="#DejaVuSerif-30" transform="translate(63.623047 0.63125)"/>
       <use xlink:href="#DejaVuSerif-2212" transform="translate(128.154453 36.965625) scale(0.7)"/>
       <use xlink:href="#DejaVuSerif-35" transform="translate(186.806797 36.965625) scale(0.7)"/>
      </g>
     </g>
    </g>
    <g id="ytick_5">
     <g id="line2d_37">
      <defs>
       <path id="md2678eb195" d="M 0 0 
L -2 0 
" style="stroke: #000000; stroke-width: 0.6"/>
      </defs>
      <g>
       <use xlink:href="#md2678eb195" x="48.0507" y="227.209259" style="stroke: #000000; stroke-width: 0.6"/>
      </g>
     </g>
    </g>
    <g id="ytick_6">
     <g id="line2d_38">
      <g>
       <use xlink:href="#md2678eb195" x="48.0507" y="197.396551" style="stroke: #000000; stroke-width: 0.6"/>
      </g>
     </g>
    </g>
    <g id="ytick_7">
     <g id="line2d_39">
      <g>
       <use xlink:href="#md2678eb195" x="48.0507" y="167.583844" style="stroke: #000000; stroke-width: 0.6"/>
      </g>
     </g>
    </g>
    <g id="text_18">
     <!-- $D_{\text{KL}}$ -->
     <g transform="translate(14.655075 148.05) rotate(-90) scale(0.12 -0.12)">
      <defs>
       <path id="DejaVuSerif-Italic-44" d="M 1194 331 
L 1775 331 
Q 2684 331 3271 850 
Q 3859 1369 4048 2337 
Q 4238 3306 3852 3818 
Q 3466 4331 2553 4331 
L 1972 4331 
L 1194 331 
z
M -97 0 
L -34 331 
L 559 331 
L 1338 4331 
L 744 4331 
L 809 4666 
L 2666 4666 
Q 3872 4666 4426 4050 
Q 4981 3434 4766 2338 
Q 4553 1238 3758 619 
Q 2963 0 1759 0 
L -97 0 
z
" transform="scale(0.015625)"/>
       <path id="DejaVuSerif-4b" d="M 353 0 
L 353 331 
L 947 331 
L 947 4331 
L 353 4331 
L 353 4666 
L 2175 4666 
L 2175 4331 
L 1581 4331 
L 1581 2566 
L 3591 4331 
L 3084 4331 
L 3084 4666 
L 4634 4666 
L 4634 4331 
L 4109 4331 
L 2106 2572 
L 4347 331 
L 4878 331 
L 4878 0 
L 3794 0 
L 1581 2216 
L 1581 331 
L 2175 331 
L 2175 0 
L 353 0 
z
" transform="scale(0.015625)"/>
       <path id="DejaVuSerif-4c" d="M 353 0 
L 353 331 
L 947 331 
L 947 4331 
L 353 4331 
L 353 4666 
L 2175 4666 
L 2175 4331 
L 1581 4331 
L 1581 384 
L 3713 384 
L 3713 1166 
L 4097 1166 
L 4097 0 
L 353 0 
z
" transform="scale(0.015625)"/>
      </defs>
      <use xlink:href="#DejaVuSerif-Italic-44" transform="translate(0 0.09375)"/>
      <use xlink:href="#DejaVuSerif-4b" transform="translate(80.175781 -15.478125) scale(0.7)"/>
      <use xlink:href="#DejaVuSerif-4c" transform="translate(132.470703 -15.478125) scale(0.7)"/>
     </g>
    </g>
   </g>
   <g id="line2d_40">
    <path d="M 58.663418 29.813689 
L 61.587032 32.017335 
L 64.510646 34.220982 
L 67.43426 36.424628 
L 70.357874 38.628274 
L 73.281488 40.831921 
L 76.205102 43.035567 
L 79.128716 45.239213 
L 82.05233 47.44286 
L 84.975944 49.646506 
L 87.899558 51.850152 
L 90.823171 54.053798 
L 93.746785 56.257445 
L 96.670399 58.461091 
L 99.594013 60.664737 
L 102.517627 62.868384 
L 105.441241 65.07203 
L 108.364855 67.275676 
L 111.288469 69.479323 
L 114.212083 71.682969 
L 117.135697 73.886615 
L 120.059311 76.090262 
L 122.982925 78.293908 
L 125.906539 80.497554 
L 128.830153 82.701201 
L 131.753767 84.904847 
L 134.677381 87.108493 
L 137.600994 89.312139 
L 140.524608 91.515786 
L 143.448222 93.719432 
L 146.371836 95.923078 
L 149.29545 98.126725 
L 152.219064 100.330371 
L 155.142678 102.534017 
L 158.066292 104.737664 
L 160.989906 106.94131 
L 163.91352 109.144956 
L 166.837134 111.348603 
L 169.760748 113.552249 
L 172.684362 115.755895 
L 175.607976 117.959542 
L 178.53159 120.163188 
L 181.455204 122.366834 
L 184.378817 124.57048 
L 187.302431 126.774127 
L 190.226045 128.977773 
L 193.149659 131.181419 
L 196.073273 133.385066 
L 198.996887 135.588712 
L 201.920501 137.792358 
L 204.844115 139.996005 
L 207.767729 142.199651 
L 210.691343 144.403297 
L 213.614957 146.606944 
L 216.538571 148.81059 
L 219.462185 151.014236 
L 222.385799 153.217882 
L 225.309413 155.421529 
L 228.233027 157.625175 
L 231.15664 159.828821 
L 234.080254 162.032468 
L 237.003868 164.236114 
L 239.927482 166.43976 
L 242.851096 168.643407 
L 245.77471 170.847053 
L 248.698324 173.050699 
L 251.621938 175.254346 
L 254.545552 177.457992 
L 257.469166 179.661638 
L 260.39278 181.865285 
L 263.316394 184.068931 
L 266.240008 186.272577 
L 269.163622 188.476223 
L 272.087236 190.67987 
L 275.01085 192.883516 
L 277.934463 195.087162 
L 280.858077 197.290809 
L 283.781691 199.494455 
L 286.705305 201.698101 
L 289.628919 203.901748 
L 292.552533 206.105394 
L 295.476147 208.30904 
L 298.399761 210.512687 
L 301.323375 212.716333 
L 304.246989 214.919979 
L 307.170603 217.123626 
L 310.094217 219.327272 
L 313.017831 221.530918 
L 315.941445 223.734564 
L 318.865059 225.938211 
L 321.788673 228.141857 
L 324.712286 230.345503 
L 327.6359 232.54915 
L 330.559514 234.752796 
L 333.483128 236.956442 
L 336.406742 239.160089 
L 339.330356 241.363735 
L 342.25397 243.567381 
L 345.177584 245.771028 
L 348.101198 247.974674 
" clip-path="url(#pebe401352d)" style="fill: none; stroke-dasharray: 3.7,1.6; stroke-dashoffset: 0; stroke: #8c8c8c"/>
   </g>
   <g id="patch_3">
    <path d="M 48.0507 254.625354 
L 48.0507 19.634646 
" style="fill: none; stroke: #000000; stroke-linejoin: miter; stroke-linecap: square"/>
   </g>
   <g id="patch_4">
    <path d="M 423.033423 254.625354 
L 423.033423 19.634646 
" style="fill: none; stroke: #000000; stroke-linejoin: miter; stroke-linecap: square"/>
   </g>
   <g id="patch_5">
    <path d="M 48.0507 254.625354 
L 423.033423 254.625354 
" style="fill: none; stroke: #000000; stroke-linejoin: miter; stroke-linecap: square"/>
   </g>
   <g id="patch_6">
    <path d="M 48.0507 19.634646 
L 423.033423 19.634646 
" style="fill: none; stroke: #000000; stroke-linejoin: miter; stroke-linecap: square"/>
   </g>
   <g id="line2d_41">
    <path d="M 58.663418 26.305882 
L 90.823171 57.307803 
L 122.982925 68.162419 
L 155.142678 70.912993 
L 187.302431 70.729214 
L 219.462185 71.292951 
" clip-path="url(#pebe401352d)" style="fill: none; stroke: #4c72b0"/>
   </g>
   <g id="line2d_42">
    <path d="M 58.663418 26.326471 
L 58.663418 26.285326 
" clip-path="url(#pebe401352d)" style="fill: none; stroke: #000000"/>
   </g>
   <g id="line2d_43">
    <path d="M 90.823171 57.452119 
L 90.823171 57.165078 
" clip-path="url(#pebe401352d)" style="fill: none; stroke: #000000"/>
   </g>
   <g id="line2d_44">
    <path d="M 122.982925 68.384914 
L 122.982925 67.943684 
" clip-path="url(#pebe401352d)" style="fill: none; stroke: #000000"/>
   </g>
   <g id="line2d_45">
    <path d="M 155.142678 71.143974 
L 155.142678 70.686061 
" clip-path="url(#pebe401352d)" style="fill: none; stroke: #000000"/>
   </g>
   <g id="line2d_46">
    <path d="M 187.302431 70.942769 
L 187.302431 70.519124 
" clip-path="url(#pebe401352d)" style="fill: none; stroke: #000000"/>
   </g>
   <g id="line2d_47">
    <path d="M 219.462185 71.496244 
L 219.462185 71.092801 
" clip-path="url(#pebe401352d)" style="fill: none; stroke: #000000"/>
   </g>
   <g id="text_19">
    <!-- OES scaling of $X(\tau)$ to MP in $H$-doped automaton circuits -->
    <g transform="translate(61.962061 13.634646) scale(0.12 -0.12)">
     <defs>
      <path id="DejaVuSerif-4f" d="M 2625 244 
Q 3391 244 3781 770 
Q 4172 1297 4172 2328 
Q 4172 3363 3781 3889 
Q 3391 4416 2625 4416 
Q 1856 4416 1465 3889 
Q 1075 3363 1075 2328 
Q 1075 1297 1465 770 
Q 1856 244 2625 244 
z
M 2625 -91 
Q 2150 -91 1751 65 
Q 1353 222 1050 525 
Q 700 875 529 1319 
Q 359 1763 359 2328 
Q 359 2894 529 3339 
Q 700 3784 1050 4134 
Q 1356 4441 1750 4595 
Q 2144 4750 2625 4750 
Q 3641 4750 4266 4084 
Q 4891 3419 4891 2328 
Q 4891 1769 4719 1320 
Q 4547 872 4197 525 
Q 3891 219 3497 64 
Q 3103 -91 2625 -91 
z
" transform="scale(0.015625)"/>
      <path id="DejaVuSerif-45" d="M 353 0 
L 353 331 
L 947 331 
L 947 4331 
L 353 4331 
L 353 4666 
L 4109 4666 
L 4109 3628 
L 3725 3628 
L 3725 4281 
L 1581 4281 
L 1581 2719 
L 3109 2719 
L 3109 3303 
L 3494 3303 
L 3494 1753 
L 3109 1753 
L 3109 2338 
L 1581 2338 
L 1581 384 
L 3775 384 
L 3775 1038 
L 4159 1038 
L 4159 0 
L 353 0 
z
" transform="scale(0.015625)"/>
      <path id="DejaVuSerif-53" d="M 594 225 
L 594 1288 
L 953 1284 
Q 969 753 1261 498 
Q 1553 244 2150 244 
Q 2706 244 2998 464 
Q 3291 684 3291 1106 
Q 3291 1444 3114 1625 
Q 2938 1806 2369 1978 
L 1753 2163 
Q 1084 2366 811 2669 
Q 538 2972 538 3500 
Q 538 4094 959 4422 
Q 1381 4750 2144 4750 
Q 2469 4750 2856 4679 
Q 3244 4609 3681 4475 
L 3681 3481 
L 3328 3481 
Q 3275 3975 2998 4195 
Q 2722 4416 2156 4416 
Q 1663 4416 1405 4214 
Q 1147 4013 1147 3628 
Q 1147 3294 1340 3103 
Q 1534 2913 2163 2725 
L 2741 2553 
Q 3375 2363 3645 2067 
Q 3916 1772 3916 1275 
Q 3916 597 3481 253 
Q 3047 -91 2188 -91 
Q 1803 -91 1404 -12 
Q 1006 66 594 225 
z
" transform="scale(0.015625)"/>
      <path id="DejaVuSerif-20" transform="scale(0.015625)"/>
      <path id="DejaVuSerif-73" d="M 359 184 
L 359 959 
L 691 959 
Q 703 588 923 403 
Q 1144 219 1575 219 
Q 1963 219 2166 364 
Q 2369 509 2369 788 
Q 2369 1006 2220 1140 
Q 2072 1275 1594 1428 
L 1178 1569 
Q 750 1706 558 1912 
Q 366 2119 366 2438 
Q 366 2894 700 3153 
Q 1034 3413 1625 3413 
Q 1888 3413 2178 3344 
Q 2469 3275 2778 3144 
L 2778 2419 
L 2447 2419 
Q 2434 2741 2221 2922 
Q 2009 3103 1644 3103 
Q 1281 3103 1095 2975 
Q 909 2847 909 2591 
Q 909 2381 1050 2254 
Q 1191 2128 1613 1997 
L 2069 1856 
Q 2541 1709 2748 1489 
Q 2956 1269 2956 922 
Q 2956 450 2595 179 
Q 2234 -91 1600 -91 
Q 1278 -91 972 -22 
Q 666 47 359 184 
z
" transform="scale(0.015625)"/>
      <path id="DejaVuSerif-63" d="M 3291 997 
Q 3169 466 2822 187 
Q 2475 -91 1925 -91 
Q 1200 -91 759 389 
Q 319 869 319 1663 
Q 319 2459 759 2936 
Q 1200 3413 1925 3413 
Q 2241 3413 2553 3339 
Q 2866 3266 3181 3116 
L 3181 2266 
L 2847 2266 
Q 2781 2703 2561 2903 
Q 2341 3103 1931 3103 
Q 1466 3103 1228 2742 
Q 991 2381 991 1663 
Q 991 944 1227 581 
Q 1463 219 1931 219 
Q 2303 219 2525 412 
Q 2747 606 2828 997 
L 3291 997 
z
" transform="scale(0.015625)"/>
      <path id="DejaVuSerif-61" d="M 2547 1044 
L 2547 1747 
L 1806 1747 
Q 1378 1747 1168 1562 
Q 959 1378 959 997 
Q 959 650 1171 447 
Q 1384 244 1747 244 
Q 2106 244 2326 466 
Q 2547 688 2547 1044 
z
M 3122 2075 
L 3122 331 
L 3634 331 
L 3634 0 
L 2547 0 
L 2547 359 
Q 2356 128 2106 18 
Q 1856 -91 1522 -91 
Q 969 -91 644 203 
Q 319 497 319 997 
Q 319 1513 691 1797 
Q 1063 2081 1741 2081 
L 2547 2081 
L 2547 2309 
Q 2547 2688 2317 2895 
Q 2088 3103 1672 3103 
Q 1328 3103 1125 2947 
Q 922 2791 872 2484 
L 575 2484 
L 575 3156 
Q 875 3284 1158 3348 
Q 1441 3413 1709 3413 
Q 2400 3413 2761 3070 
Q 3122 2728 3122 2075 
z
" transform="scale(0.015625)"/>
      <path id="DejaVuSerif-6c" d="M 1313 331 
L 1856 331 
L 1856 0 
L 184 0 
L 184 331 
L 738 331 
L 738 4531 
L 184 4531 
L 184 4863 
L 1313 4863 
L 1313 331 
z
" transform="scale(0.015625)"/>
      <path id="DejaVuSerif-69" d="M 622 4353 
Q 622 4497 726 4603 
Q 831 4709 978 4709 
Q 1122 4709 1226 4603 
Q 1331 4497 1331 4353 
Q 1331 4206 1228 4103 
Q 1125 4000 978 4000 
Q 831 4000 726 4103 
Q 622 4206 622 4353 
z
M 1356 331 
L 1900 331 
L 1900 0 
L 231 0 
L 231 331 
L 781 331 
L 781 2988 
L 231 2988 
L 231 3322 
L 1356 3322 
L 1356 331 
z
" transform="scale(0.015625)"/>
      <path id="DejaVuSerif-6e" d="M 263 0 
L 263 331 
L 781 331 
L 781 2988 
L 231 2988 
L 231 3322 
L 1356 3322 
L 1356 2731 
Q 1516 3069 1770 3241 
Q 2025 3413 2363 3413 
Q 2913 3413 3172 3097 
Q 3431 2781 3431 2113 
L 3431 331 
L 3944 331 
L 3944 0 
L 2356 0 
L 2356 331 
L 2853 331 
L 2853 1931 
Q 2853 2541 2703 2767 
Q 2553 2994 2175 2994 
Q 1775 2994 1565 2701 
Q 1356 2409 1356 1850 
L 1356 331 
L 1856 331 
L 1856 0 
L 263 0 
z
" transform="scale(0.015625)"/>
      <path id="DejaVuSerif-67" d="M 3359 2988 
L 3359 72 
Q 3359 -644 2965 -1033 
Q 2572 -1422 1844 -1422 
Q 1516 -1422 1216 -1362 
Q 916 -1303 641 -1184 
L 641 -488 
L 941 -488 
Q 997 -813 1206 -963 
Q 1416 -1113 1806 -1113 
Q 2313 -1113 2548 -827 
Q 2784 -541 2784 72 
L 2784 519 
Q 2616 206 2355 57 
Q 2094 -91 1709 -91 
Q 1097 -91 708 395 
Q 319 881 319 1663 
Q 319 2444 706 2928 
Q 1094 3413 1709 3413 
Q 2094 3413 2355 3264 
Q 2616 3116 2784 2803 
L 2784 3322 
L 3909 3322 
L 3909 2988 
L 3359 2988 
z
M 2784 1825 
Q 2784 2422 2554 2737 
Q 2325 3053 1888 3053 
Q 1444 3053 1217 2703 
Q 991 2353 991 1663 
Q 991 975 1217 622 
Q 1444 269 1888 269 
Q 2325 269 2554 583 
Q 2784 897 2784 1497 
L 2784 1825 
z
" transform="scale(0.015625)"/>
      <path id="DejaVuSerif-6f" d="M 1925 219 
Q 2388 219 2623 584 
Q 2859 950 2859 1663 
Q 2859 2375 2623 2739 
Q 2388 3103 1925 3103 
Q 1463 3103 1227 2739 
Q 991 2375 991 1663 
Q 991 950 1228 584 
Q 1466 219 1925 219 
z
M 1925 -91 
Q 1200 -91 759 389 
Q 319 869 319 1663 
Q 319 2456 758 2934 
Q 1197 3413 1925 3413 
Q 2653 3413 3092 2934 
Q 3531 2456 3531 1663 
Q 3531 869 3092 389 
Q 2653 -91 1925 -91 
z
" transform="scale(0.015625)"/>
      <path id="DejaVuSerif-66" d="M 2753 4078 
L 2450 4078 
Q 2447 4313 2317 4434 
Q 2188 4556 1941 4556 
Q 1619 4556 1487 4379 
Q 1356 4203 1356 3750 
L 1356 3322 
L 2284 3322 
L 2284 2988 
L 1356 2988 
L 1356 331 
L 2094 331 
L 2094 0 
L 231 0 
L 231 331 
L 781 331 
L 781 2988 
L 231 2988 
L 231 3322 
L 781 3322 
L 781 3738 
Q 781 4294 1070 4578 
Q 1359 4863 1919 4863 
Q 2128 4863 2337 4825 
Q 2547 4788 2753 4709 
L 2753 4078 
z
" transform="scale(0.015625)"/>
      <path id="DejaVuSerif-Italic-58" d="M 2056 1997 
L 591 331 
L 1194 331 
L 1131 0 
L -413 0 
L -350 331 
L 188 331 
L 1913 2291 
L 947 4331 
L 447 4331 
L 513 4666 
L 2363 4666 
L 2297 4331 
L 1747 4331 
L 2456 2828 
L 3775 4331 
L 3175 4331 
L 3241 4666 
L 4769 4666 
L 4703 4331 
L 4178 4331 
L 2597 2534 
L 3641 331 
L 4141 331 
L 4075 0 
L 2225 0 
L 2288 331 
L 2844 331 
L 2056 1997 
z
" transform="scale(0.015625)"/>
      <path id="DejaVuSerif-28" d="M 2041 -997 
Q 1281 -656 893 83 
Q 506 822 506 1931 
Q 506 3044 893 3783 
Q 1281 4522 2041 4863 
L 2041 4556 
Q 1559 4225 1350 3623 
Q 1141 3022 1141 1931 
Q 1141 844 1350 242 
Q 1559 -359 2041 -691 
L 2041 -997 
z
" transform="scale(0.015625)"/>
      <path id="DejaVuSerif-Italic-3c4" d="M 2328 2988 
L 1922 906 
Q 1838 469 2047 363 
Q 2203 284 2641 519 
L 2569 141 
Q 1859 -225 1491 156 
Q 1247 406 1347 906 
L 1753 2988 
L 850 2988 
L 753 2488 
L 425 2488 
L 588 3322 
L 3625 3322 
L 3559 2988 
L 2328 2988 
z
" transform="scale(0.015625)"/>
      <path id="DejaVuSerif-29" d="M 453 -997 
L 453 -691 
Q 934 -359 1145 242 
Q 1356 844 1356 1931 
Q 1356 3022 1145 3623 
Q 934 4225 453 4556 
L 453 4863 
Q 1216 4522 1603 3783 
Q 1991 3044 1991 1931 
Q 1991 822 1603 83 
Q 1216 -656 453 -997 
z
" transform="scale(0.015625)"/>
      <path id="DejaVuSerif-74" d="M 691 2988 
L 184 2988 
L 184 3322 
L 691 3322 
L 691 4353 
L 1269 4353 
L 1269 3322 
L 2350 3322 
L 2350 2988 
L 1269 2988 
L 1269 878 
Q 1269 456 1350 337 
Q 1431 219 1650 219 
Q 1875 219 1978 351 
Q 2081 484 2088 781 
L 2522 781 
Q 2497 328 2275 118 
Q 2053 -91 1600 -91 
Q 1103 -91 897 129 
Q 691 350 691 878 
L 691 2988 
z
" transform="scale(0.015625)"/>
      <path id="DejaVuSerif-4d" d="M 353 0 
L 353 331 
L 947 331 
L 947 4331 
L 319 4331 
L 319 4666 
L 1678 4666 
L 3316 1344 
L 4953 4666 
L 6228 4666 
L 6228 4331 
L 5606 4331 
L 5606 331 
L 6203 331 
L 6203 0 
L 4378 0 
L 4378 331 
L 4972 331 
L 4972 3938 
L 3372 684 
L 2931 684 
L 1331 3938 
L 1331 331 
L 1925 331 
L 1925 0 
L 353 0 
z
" transform="scale(0.015625)"/>
      <path id="DejaVuSerif-50" d="M 1581 2375 
L 2406 2375 
Q 2872 2375 3115 2626 
Q 3359 2878 3359 3353 
Q 3359 3831 3115 4081 
Q 2872 4331 2406 4331 
L 1581 4331 
L 1581 2375 
z
M 353 0 
L 353 331 
L 947 331 
L 947 4331 
L 353 4331 
L 353 4666 
L 2559 4666 
Q 3259 4666 3668 4311 
Q 4078 3956 4078 3353 
Q 4078 2753 3668 2397 
Q 3259 2041 2559 2041 
L 1581 2041 
L 1581 331 
L 2303 331 
L 2303 0 
L 353 0 
z
" transform="scale(0.015625)"/>
      <path id="DejaVuSerif-2d" d="M 281 1959 
L 1881 1959 
L 1881 1472 
L 281 1472 
L 281 1959 
z
" transform="scale(0.015625)"/>
      <path id="DejaVuSerif-64" d="M 3359 331 
L 3909 331 
L 3909 0 
L 2784 0 
L 2784 519 
Q 2616 206 2355 57 
Q 2094 -91 1709 -91 
Q 1097 -91 708 395 
Q 319 881 319 1663 
Q 319 2444 706 2928 
Q 1094 3413 1709 3413 
Q 2094 3413 2355 3264 
Q 2616 3116 2784 2803 
L 2784 4531 
L 2241 4531 
L 2241 4863 
L 3359 4863 
L 3359 331 
z
M 2784 1497 
L 2784 1825 
Q 2784 2422 2554 2737 
Q 2325 3053 1888 3053 
Q 1444 3053 1217 2703 
Q 991 2353 991 1663 
Q 991 975 1217 622 
Q 1444 269 1888 269 
Q 2325 269 2554 583 
Q 2784 897 2784 1497 
z
" transform="scale(0.015625)"/>
      <path id="DejaVuSerif-70" d="M 1313 1825 
L 1313 1497 
Q 1313 897 1542 583 
Q 1772 269 2209 269 
Q 2650 269 2876 622 
Q 3103 975 3103 1663 
Q 3103 2353 2876 2703 
Q 2650 3053 2209 3053 
Q 1772 3053 1542 2737 
Q 1313 2422 1313 1825 
z
M 738 2988 
L 184 2988 
L 184 3322 
L 1313 3322 
L 1313 2803 
Q 1481 3116 1742 3264 
Q 2003 3413 2388 3413 
Q 3000 3413 3387 2928 
Q 3775 2444 3775 1663 
Q 3775 881 3387 395 
Q 3000 -91 2388 -91 
Q 2003 -91 1742 57 
Q 1481 206 1313 519 
L 1313 -997 
L 1856 -997 
L 1856 -1331 
L 184 -1331 
L 184 -997 
L 738 -997 
L 738 2988 
z
" transform="scale(0.015625)"/>
      <path id="DejaVuSerif-65" d="M 3469 1600 
L 991 1600 
L 991 1575 
Q 991 903 1244 561 
Q 1497 219 1991 219 
Q 2369 219 2611 417 
Q 2853 616 2950 1006 
L 3413 1006 
Q 3275 459 2904 184 
Q 2534 -91 1931 -91 
Q 1203 -91 761 389 
Q 319 869 319 1663 
Q 319 2450 753 2931 
Q 1188 3413 1894 3413 
Q 2647 3413 3050 2948 
Q 3453 2484 3469 1600 
z
M 2791 1931 
Q 2772 2513 2545 2808 
Q 2319 3103 1894 3103 
Q 1497 3103 1269 2806 
Q 1041 2509 991 1931 
L 2791 1931 
z
" transform="scale(0.015625)"/>
      <path id="DejaVuSerif-75" d="M 2266 3322 
L 3341 3322 
L 3341 331 
L 3884 331 
L 3884 0 
L 2766 0 
L 2766 588 
Q 2606 256 2353 82 
Q 2100 -91 1766 -91 
Q 1213 -91 952 223 
Q 691 538 691 1209 
L 691 2988 
L 172 2988 
L 172 3322 
L 1269 3322 
L 1269 1388 
Q 1269 781 1417 556 
Q 1566 331 1947 331 
Q 2347 331 2556 625 
Q 2766 919 2766 1478 
L 2766 2988 
L 2266 2988 
L 2266 3322 
z
" transform="scale(0.015625)"/>
      <path id="DejaVuSerif-6d" d="M 3316 2675 
Q 3481 3041 3739 3227 
Q 3997 3413 4341 3413 
Q 4863 3413 5119 3089 
Q 5375 2766 5375 2113 
L 5375 331 
L 5894 331 
L 5894 0 
L 4300 0 
L 4300 331 
L 4800 331 
L 4800 2047 
Q 4800 2556 4650 2772 
Q 4500 2988 4153 2988 
Q 3769 2988 3567 2697 
Q 3366 2406 3366 1850 
L 3366 331 
L 3866 331 
L 3866 0 
L 2291 0 
L 2291 331 
L 2791 331 
L 2791 2069 
Q 2791 2566 2641 2777 
Q 2491 2988 2144 2988 
Q 1759 2988 1557 2697 
Q 1356 2406 1356 1850 
L 1356 331 
L 1856 331 
L 1856 0 
L 263 0 
L 263 331 
L 781 331 
L 781 2994 
L 231 2994 
L 231 3322 
L 1356 3322 
L 1356 2731 
Q 1516 3063 1762 3238 
Q 2009 3413 2322 3413 
Q 2709 3413 2968 3220 
Q 3228 3028 3316 2675 
z
" transform="scale(0.015625)"/>
      <path id="DejaVuSerif-72" d="M 3059 3328 
L 3059 2497 
L 2728 2497 
Q 2713 2744 2591 2866 
Q 2469 2988 2234 2988 
Q 1809 2988 1582 2694 
Q 1356 2400 1356 1850 
L 1356 331 
L 2022 331 
L 2022 0 
L 263 0 
L 263 331 
L 781 331 
L 781 2994 
L 231 2994 
L 231 3322 
L 1356 3322 
L 1356 2731 
Q 1525 3078 1790 3245 
Q 2056 3413 2438 3413 
Q 2578 3413 2733 3391 
Q 2888 3369 3059 3328 
z
" transform="scale(0.015625)"/>
     </defs>
     <use xlink:href="#DejaVuSerif-4f" transform="translate(0 0.015625)"/>
     <use xlink:href="#DejaVuSerif-45" transform="translate(81.982422 0.015625)"/>
     <use xlink:href="#DejaVuSerif-53" transform="translate(154.980469 0.015625)"/>
     <use xlink:href="#DejaVuSerif-20" transform="translate(223.486328 0.015625)"/>
     <use xlink:href="#DejaVuSerif-73" transform="translate(255.273438 0.015625)"/>
     <use xlink:href="#DejaVuSerif-63" transform="translate(306.591797 0.015625)"/>
     <use xlink:href="#DejaVuSerif-61" transform="translate(362.597656 0.015625)"/>
     <use xlink:href="#DejaVuSerif-6c" transform="translate(422.216797 0.015625)"/>
     <use xlink:href="#DejaVuSerif-69" transform="translate(454.199219 0.015625)"/>
     <use xlink:href="#DejaVuSerif-6e" transform="translate(486.181641 0.015625)"/>
     <use xlink:href="#DejaVuSerif-67" transform="translate(550.585938 0.015625)"/>
     <use xlink:href="#DejaVuSerif-20" transform="translate(614.599609 0.015625)"/>
     <use xlink:href="#DejaVuSerif-6f" transform="translate(646.386719 0.015625)"/>
     <use xlink:href="#DejaVuSerif-66" transform="translate(706.591797 0.015625)"/>
     <use xlink:href="#DejaVuSerif-20" transform="translate(743.603516 0.015625)"/>
     <use xlink:href="#DejaVuSerif-Italic-58" transform="translate(775.390625 0.015625)"/>
     <use xlink:href="#DejaVuSerif-28" transform="translate(846.582031 0.015625)"/>
     <use xlink:href="#DejaVuSerif-Italic-3c4" transform="translate(885.595703 0.015625)"/>
     <use xlink:href="#DejaVuSerif-29" transform="translate(940.917969 0.015625)"/>
     <use xlink:href="#DejaVuSerif-20" transform="translate(979.931641 0.015625)"/>
     <use xlink:href="#DejaVuSerif-74" transform="translate(1011.71875 0.015625)"/>
     <use xlink:href="#DejaVuSerif-6f" transform="translate(1051.904297 0.015625)"/>
     <use xlink:href="#DejaVuSerif-20" transform="translate(1112.109375 0.015625)"/>
     <use xlink:href="#DejaVuSerif-4d" transform="translate(1143.896484 0.015625)"/>
     <use xlink:href="#DejaVuSerif-50" transform="translate(1246.289062 0.015625)"/>
     <use xlink:href="#DejaVuSerif-20" transform="translate(1313.574219 0.015625)"/>
     <use xlink:href="#DejaVuSerif-69" transform="translate(1345.361328 0.015625)"/>
     <use xlink:href="#DejaVuSerif-6e" transform="translate(1377.34375 0.015625)"/>
     <use xlink:href="#DejaVuSerif-20" transform="translate(1441.748047 0.015625)"/>
     <use xlink:href="#DejaVuSerif-Italic-48" transform="translate(1473.535156 0.015625)"/>
     <use xlink:href="#DejaVuSerif-2d" transform="translate(1560.742188 0.015625)"/>
     <use xlink:href="#DejaVuSerif-64" transform="translate(1594.53125 0.015625)"/>
     <use xlink:href="#DejaVuSerif-6f" transform="translate(1658.544922 0.015625)"/>
     <use xlink:href="#DejaVuSerif-70" transform="translate(1718.75 0.015625)"/>
     <use xlink:href="#DejaVuSerif-65" transform="translate(1782.763672 0.015625)"/>
     <use xlink:href="#DejaVuSerif-64" transform="translate(1841.943359 0.015625)"/>
     <use xlink:href="#DejaVuSerif-20" transform="translate(1905.957031 0.015625)"/>
     <use xlink:href="#DejaVuSerif-61" transform="translate(1937.744141 0.015625)"/>
     <use xlink:href="#DejaVuSerif-75" transform="translate(1997.363281 0.015625)"/>
     <use xlink:href="#DejaVuSerif-74" transform="translate(2061.767578 0.015625)"/>
     <use xlink:href="#DejaVuSerif-6f" transform="translate(2101.953125 0.015625)"/>
     <use xlink:href="#DejaVuSerif-6d" transform="translate(2162.158203 0.015625)"/>
     <use xlink:href="#DejaVuSerif-61" transform="translate(2256.982422 0.015625)"/>
     <use xlink:href="#DejaVuSerif-74" transform="translate(2316.601562 0.015625)"/>
     <use xlink:href="#DejaVuSerif-6f" transform="translate(2356.787109 0.015625)"/>
     <use xlink:href="#DejaVuSerif-6e" transform="translate(2416.992188 0.015625)"/>
     <use xlink:href="#DejaVuSerif-20" transform="translate(2481.396484 0.015625)"/>
     <use xlink:href="#DejaVuSerif-63" transform="translate(2513.183594 0.015625)"/>
     <use xlink:href="#DejaVuSerif-69" transform="translate(2569.189453 0.015625)"/>
     <use xlink:href="#DejaVuSerif-72" transform="translate(2601.171875 0.015625)"/>
     <use xlink:href="#DejaVuSerif-63" transform="translate(2648.974609 0.015625)"/>
     <use xlink:href="#DejaVuSerif-75" transform="translate(2704.980469 0.015625)"/>
     <use xlink:href="#DejaVuSerif-69" transform="translate(2769.384766 0.015625)"/>
     <use xlink:href="#DejaVuSerif-74" transform="translate(2801.367188 0.015625)"/>
     <use xlink:href="#DejaVuSerif-73" transform="translate(2841.552734 0.015625)"/>
    </g>
   </g>
   <g id="PathCollection_1">
    <defs>
     <path id="m2639d63746" d="M 2 0 
L -2 -0 
" style="stroke: #000000"/>
    </defs>
    <g clip-path="url(#pebe401352d)">
     <use xlink:href="#m2639d63746" x="58.663418" y="26.326471" style="stroke: #000000"/>
     <use xlink:href="#m2639d63746" x="58.663418" y="26.285326" style="stroke: #000000"/>
    </g>
   </g>
   <g id="PathCollection_2">
    <g clip-path="url(#pebe401352d)">
     <use xlink:href="#m2639d63746" x="90.823171" y="57.452119" style="stroke: #000000"/>
     <use xlink:href="#m2639d63746" x="90.823171" y="57.165078" style="stroke: #000000"/>
    </g>
   </g>
   <g id="PathCollection_3">
    <g clip-path="url(#pebe401352d)">
     <use xlink:href="#m2639d63746" x="122.982925" y="68.384914" style="stroke: #000000"/>
     <use xlink:href="#m2639d63746" x="122.982925" y="67.943684" style="stroke: #000000"/>
    </g>
   </g>
   <g id="PathCollection_4">
    <g clip-path="url(#pebe401352d)">
     <use xlink:href="#m2639d63746" x="155.142678" y="71.143974" style="stroke: #000000"/>
     <use xlink:href="#m2639d63746" x="155.142678" y="70.686061" style="stroke: #000000"/>
    </g>
   </g>
   <g id="PathCollection_5">
    <g clip-path="url(#pebe401352d)">
     <use xlink:href="#m2639d63746" x="187.302431" y="70.942769" style="stroke: #000000"/>
     <use xlink:href="#m2639d63746" x="187.302431" y="70.519124" style="stroke: #000000"/>
    </g>
   </g>
   <g id="PathCollection_6">
    <g clip-path="url(#pebe401352d)">
     <use xlink:href="#m2639d63746" x="219.462185" y="71.496244" style="stroke: #000000"/>
     <use xlink:href="#m2639d63746" x="219.462185" y="71.092801" style="stroke: #000000"/>
    </g>
   </g>
   <g id="line2d_48">
    <path d="M 58.663418 28.969424 
L 90.823171 55.838872 
L 122.982925 76.302734 
L 155.142678 86.435046 
L 187.302431 87.80008 
L 219.462185 88.336338 
L 251.621938 90.15411 
L 283.781691 90.40245 
" clip-path="url(#pebe401352d)" style="fill: none; stroke: #dd8452"/>
   </g>
   <g id="line2d_49">
    <path d="M 58.663418 28.990354 
L 58.663418 28.948528 
" clip-path="url(#pebe401352d)" style="fill: none; stroke: #000000"/>
   </g>
   <g id="line2d_50">
    <path d="M 90.823171 55.939164 
L 90.823171 55.739351 
" clip-path="url(#pebe401352d)" style="fill: none; stroke: #000000"/>
   </g>
   <g id="line2d_51">
    <path d="M 122.982925 76.613759 
L 122.982925 75.999005 
" clip-path="url(#pebe401352d)" style="fill: none; stroke: #000000"/>
   </g>
   <g id="line2d_52">
    <path d="M 155.142678 86.929728 
L 155.142678 85.958571 
" clip-path="url(#pebe401352d)" style="fill: none; stroke: #000000"/>
   </g>
   <g id="line2d_53">
    <path d="M 187.302431 88.321935 
L 187.302431 87.298445 
" clip-path="url(#pebe401352d)" style="fill: none; stroke: #000000"/>
   </g>
   <g id="line2d_54">
    <path d="M 219.462185 88.837541 
L 219.462185 87.853816 
" clip-path="url(#pebe401352d)" style="fill: none; stroke: #000000"/>
   </g>
   <g id="line2d_55">
    <path d="M 251.621938 90.717754 
L 251.621938 89.613983 
" clip-path="url(#pebe401352d)" style="fill: none; stroke: #000000"/>
   </g>
   <g id="line2d_56">
    <path d="M 283.781691 90.966909 
L 283.781691 89.861575 
" clip-path="url(#pebe401352d)" style="fill: none; stroke: #000000"/>
   </g>
   <g id="PathCollection_7">
    <g clip-path="url(#pebe401352d)">
     <use xlink:href="#m2639d63746" x="58.663418" y="28.990354" style="stroke: #000000"/>
     <use xlink:href="#m2639d63746" x="58.663418" y="28.948528" style="stroke: #000000"/>
    </g>
   </g>
   <g id="PathCollection_8">
    <g clip-path="url(#pebe401352d)">
     <use xlink:href="#m2639d63746" x="90.823171" y="55.939164" style="stroke: #000000"/>
     <use xlink:href="#m2639d63746" x="90.823171" y="55.739351" style="stroke: #000000"/>
    </g>
   </g>
   <g id="PathCollection_9">
    <g clip-path="url(#pebe401352d)">
     <use xlink:href="#m2639d63746" x="122.982925" y="76.613759" style="stroke: #000000"/>
     <use xlink:href="#m2639d63746" x="122.982925" y="75.999005" style="stroke: #000000"/>
    </g>
   </g>
   <g id="PathCollection_10">
    <g clip-path="url(#pebe401352d)">
     <use xlink:href="#m2639d63746" x="155.142678" y="86.929728" style="stroke: #000000"/>
     <use xlink:href="#m2639d63746" x="155.142678" y="85.958571" style="stroke: #000000"/>
    </g>
   </g>
   <g id="PathCollection_11">
    <g clip-path="url(#pebe401352d)">
     <use xlink:href="#m2639d63746" x="187.302431" y="88.321935" style="stroke: #000000"/>
     <use xlink:href="#m2639d63746" x="187.302431" y="87.298445" style="stroke: #000000"/>
    </g>
   </g>
   <g id="PathCollection_12">
    <g clip-path="url(#pebe401352d)">
     <use xlink:href="#m2639d63746" x="219.462185" y="88.837541" style="stroke: #000000"/>
     <use xlink:href="#m2639d63746" x="219.462185" y="87.853816" style="stroke: #000000"/>
    </g>
   </g>
   <g id="PathCollection_13">
    <g clip-path="url(#pebe401352d)">
     <use xlink:href="#m2639d63746" x="251.621938" y="90.717754" style="stroke: #000000"/>
     <use xlink:href="#m2639d63746" x="251.621938" y="89.613983" style="stroke: #000000"/>
    </g>
   </g>
   <g id="PathCollection_14">
    <g clip-path="url(#pebe401352d)">
     <use xlink:href="#m2639d63746" x="283.781691" y="90.966909" style="stroke: #000000"/>
     <use xlink:href="#m2639d63746" x="283.781691" y="89.861575" style="stroke: #000000"/>
    </g>
   </g>
   <g id="line2d_57">
    <path d="M 58.663418 29.466438 
L 90.823171 54.761634 
L 122.982925 78.684996 
L 155.142678 96.667659 
L 187.302431 101.918074 
L 219.462185 104.902879 
L 251.621938 107.418089 
L 283.781691 109.487561 
L 315.941445 108.707882 
L 348.101198 108.145298 
" clip-path="url(#pebe401352d)" style="fill: none; stroke: #55a868"/>
   </g>
   <g id="line2d_58">
    <path d="M 58.663418 29.486465 
L 58.663418 29.446442 
" clip-path="url(#pebe401352d)" style="fill: none; stroke: #000000"/>
   </g>
   <g id="line2d_59">
    <path d="M 90.823171 54.827348 
L 90.823171 54.696251 
" clip-path="url(#pebe401352d)" style="fill: none; stroke: #000000"/>
   </g>
   <g id="line2d_60">
    <path d="M 122.982925 78.938859 
L 122.982925 78.436014 
" clip-path="url(#pebe401352d)" style="fill: none; stroke: #000000"/>
   </g>
   <g id="line2d_61">
    <path d="M 155.142678 97.372013 
L 155.142678 95.999652 
" clip-path="url(#pebe401352d)" style="fill: none; stroke: #000000"/>
   </g>
   <g id="line2d_62">
    <path d="M 187.302431 102.812092 
L 187.302431 101.081821 
" clip-path="url(#pebe401352d)" style="fill: none; stroke: #000000"/>
   </g>
   <g id="line2d_63">
    <path d="M 219.462185 105.975174 
L 219.462185 103.912637 
" clip-path="url(#pebe401352d)" style="fill: none; stroke: #000000"/>
   </g>
   <g id="line2d_64">
    <path d="M 251.621938 108.677654 
L 251.621938 106.270268 
" clip-path="url(#pebe401352d)" style="fill: none; stroke: #000000"/>
   </g>
   <g id="line2d_65">
    <path d="M 283.781691 111.054915 
L 283.781691 108.089618 
" clip-path="url(#pebe401352d)" style="fill: none; stroke: #000000"/>
   </g>
   <g id="line2d_66">
    <path d="M 315.941445 110.024221 
L 315.941445 107.513107 
" clip-path="url(#pebe401352d)" style="fill: none; stroke: #000000"/>
   </g>
   <g id="line2d_67">
    <path d="M 348.101198 109.46178 
L 348.101198 106.950407 
" clip-path="url(#pebe401352d)" style="fill: none; stroke: #000000"/>
   </g>
   <g id="PathCollection_15">
    <g clip-path="url(#pebe401352d)">
     <use xlink:href="#m2639d63746" x="58.663418" y="29.486465" style="stroke: #000000"/>
     <use xlink:href="#m2639d63746" x="58.663418" y="29.446442" style="stroke: #000000"/>
    </g>
   </g>
   <g id="PathCollection_16">
    <g clip-path="url(#pebe401352d)">
     <use xlink:href="#m2639d63746" x="90.823171" y="54.827348" style="stroke: #000000"/>
     <use xlink:href="#m2639d63746" x="90.823171" y="54.696251" style="stroke: #000000"/>
    </g>
   </g>
   <g id="PathCollection_17">
    <g clip-path="url(#pebe401352d)">
     <use xlink:href="#m2639d63746" x="122.982925" y="78.938859" style="stroke: #000000"/>
     <use xlink:href="#m2639d63746" x="122.982925" y="78.436014" style="stroke: #000000"/>
    </g>
   </g>
   <g id="PathCollection_18">
    <g clip-path="url(#pebe401352d)">
     <use xlink:href="#m2639d63746" x="155.142678" y="97.372013" style="stroke: #000000"/>
     <use xlink:href="#m2639d63746" x="155.142678" y="95.999652" style="stroke: #000000"/>
    </g>
   </g>
   <g id="PathCollection_19">
    <g clip-path="url(#pebe401352d)">
     <use xlink:href="#m2639d63746" x="187.302431" y="102.812092" style="stroke: #000000"/>
     <use xlink:href="#m2639d63746" x="187.302431" y="101.081821" style="stroke: #000000"/>
    </g>
   </g>
   <g id="PathCollection_20">
    <g clip-path="url(#pebe401352d)">
     <use xlink:href="#m2639d63746" x="219.462185" y="105.975174" style="stroke: #000000"/>
     <use xlink:href="#m2639d63746" x="219.462185" y="103.912637" style="stroke: #000000"/>
    </g>
   </g>
   <g id="PathCollection_21">
    <g clip-path="url(#pebe401352d)">
     <use xlink:href="#m2639d63746" x="251.621938" y="108.677654" style="stroke: #000000"/>
     <use xlink:href="#m2639d63746" x="251.621938" y="106.270268" style="stroke: #000000"/>
    </g>
   </g>
   <g id="PathCollection_22">
    <g clip-path="url(#pebe401352d)">
     <use xlink:href="#m2639d63746" x="283.781691" y="111.054915" style="stroke: #000000"/>
     <use xlink:href="#m2639d63746" x="283.781691" y="108.089618" style="stroke: #000000"/>
    </g>
   </g>
   <g id="PathCollection_23">
    <g clip-path="url(#pebe401352d)">
     <use xlink:href="#m2639d63746" x="315.941445" y="110.024221" style="stroke: #000000"/>
     <use xlink:href="#m2639d63746" x="315.941445" y="107.513107" style="stroke: #000000"/>
    </g>
   </g>
   <g id="PathCollection_24">
    <g clip-path="url(#pebe401352d)">
     <use xlink:href="#m2639d63746" x="348.101198" y="109.46178" style="stroke: #000000"/>
     <use xlink:href="#m2639d63746" x="348.101198" y="106.950407" style="stroke: #000000"/>
    </g>
   </g>
   <g id="line2d_68">
    <path d="M 58.663418 29.595414 
L 90.823171 54.265129 
L 122.982925 78.526074 
L 155.142678 102.308797 
L 187.302431 122.183391 
L 219.462185 135.901082 
L 251.621938 129.222228 
L 283.781691 133.526773 
L 315.941445 134.899839 
L 348.101198 135.285768 
L 380.260951 135.407205 
L 412.420705 139.210828 
" clip-path="url(#pebe401352d)" style="fill: none; stroke: #c44e52"/>
   </g>
   <g id="line2d_69">
    <path d="M 58.663418 29.614686 
L 58.663418 29.57617 
" clip-path="url(#pebe401352d)" style="fill: none; stroke: #000000"/>
   </g>
   <g id="line2d_70">
    <path d="M 90.823171 54.313366 
L 90.823171 54.217071 
" clip-path="url(#pebe401352d)" style="fill: none; stroke: #000000"/>
   </g>
   <g id="line2d_71">
    <path d="M 122.982925 78.679062 
L 122.982925 78.374872 
" clip-path="url(#pebe401352d)" style="fill: none; stroke: #000000"/>
   </g>
   <g id="line2d_72">
    <path d="M 155.142678 103.023542 
L 155.142678 101.631452 
" clip-path="url(#pebe401352d)" style="fill: none; stroke: #000000"/>
   </g>
   <g id="line2d_73">
    <path d="M 187.302431 124.831206 
L 187.302431 119.986209 
" clip-path="url(#pebe401352d)" style="fill: none; stroke: #000000"/>
   </g>
   <g id="line2d_74">
    <path d="M 219.462185 144.132423 
L 219.462185 130.908842 
" clip-path="url(#pebe401352d)" style="fill: none; stroke: #000000"/>
   </g>
   <g id="line2d_75">
    <path d="M 251.621938 133.703298 
L 251.621938 125.899629 
" clip-path="url(#pebe401352d)" style="fill: none; stroke: #000000"/>
   </g>
   <g id="line2d_76">
    <path d="M 283.781691 140.227132 
L 283.781691 129.133427 
" clip-path="url(#pebe401352d)" style="fill: none; stroke: #000000"/>
   </g>
   <g id="line2d_77">
    <path d="M 315.941445 141.136605 
L 315.941445 130.708426 
" clip-path="url(#pebe401352d)" style="fill: none; stroke: #000000"/>
   </g>
   <g id="line2d_78">
    <path d="M 348.101198 141.767246 
L 348.101198 130.98647 
" clip-path="url(#pebe401352d)" style="fill: none; stroke: #000000"/>
   </g>
   <g id="line2d_79">
    <path d="M 380.260951 144.326146 
L 380.260951 130.176028 
" clip-path="url(#pebe401352d)" style="fill: none; stroke: #000000"/>
   </g>
   <g id="line2d_80">
    <path d="M 412.420705 151.967569 
L 412.420705 132.911494 
" clip-path="url(#pebe401352d)" style="fill: none; stroke: #000000"/>
   </g>
   <g id="PathCollection_25">
    <g clip-path="url(#pebe401352d)">
     <use xlink:href="#m2639d63746" x="58.663418" y="29.614686" style="stroke: #000000"/>
     <use xlink:href="#m2639d63746" x="58.663418" y="29.57617" style="stroke: #000000"/>
    </g>
   </g>
   <g id="PathCollection_26">
    <g clip-path="url(#pebe401352d)">
     <use xlink:href="#m2639d63746" x="90.823171" y="54.313366" style="stroke: #000000"/>
     <use xlink:href="#m2639d63746" x="90.823171" y="54.217071" style="stroke: #000000"/>
    </g>
   </g>
   <g id="PathCollection_27">
    <g clip-path="url(#pebe401352d)">
     <use xlink:href="#m2639d63746" x="122.982925" y="78.679062" style="stroke: #000000"/>
     <use xlink:href="#m2639d63746" x="122.982925" y="78.374872" style="stroke: #000000"/>
    </g>
   </g>
   <g id="PathCollection_28">
    <g clip-path="url(#pebe401352d)">
     <use xlink:href="#m2639d63746" x="155.142678" y="103.023542" style="stroke: #000000"/>
     <use xlink:href="#m2639d63746" x="155.142678" y="101.631452" style="stroke: #000000"/>
    </g>
   </g>
   <g id="PathCollection_29">
    <g clip-path="url(#pebe401352d)">
     <use xlink:href="#m2639d63746" x="187.302431" y="124.831206" style="stroke: #000000"/>
     <use xlink:href="#m2639d63746" x="187.302431" y="119.986209" style="stroke: #000000"/>
    </g>
   </g>
   <g id="PathCollection_30">
    <g clip-path="url(#pebe401352d)">
     <use xlink:href="#m2639d63746" x="219.462185" y="144.132423" style="stroke: #000000"/>
     <use xlink:href="#m2639d63746" x="219.462185" y="130.908842" style="stroke: #000000"/>
    </g>
   </g>
   <g id="PathCollection_31">
    <g clip-path="url(#pebe401352d)">
     <use xlink:href="#m2639d63746" x="251.621938" y="133.703298" style="stroke: #000000"/>
     <use xlink:href="#m2639d63746" x="251.621938" y="125.899629" style="stroke: #000000"/>
    </g>
   </g>
   <g id="PathCollection_32">
    <g clip-path="url(#pebe401352d)">
     <use xlink:href="#m2639d63746" x="283.781691" y="140.227132" style="stroke: #000000"/>
     <use xlink:href="#m2639d63746" x="283.781691" y="129.133427" style="stroke: #000000"/>
    </g>
   </g>
   <g id="PathCollection_33">
    <g clip-path="url(#pebe401352d)">
     <use xlink:href="#m2639d63746" x="315.941445" y="141.136605" style="stroke: #000000"/>
     <use xlink:href="#m2639d63746" x="315.941445" y="130.708426" style="stroke: #000000"/>
    </g>
   </g>
   <g id="PathCollection_34">
    <g clip-path="url(#pebe401352d)">
     <use xlink:href="#m2639d63746" x="348.101198" y="141.767246" style="stroke: #000000"/>
     <use xlink:href="#m2639d63746" x="348.101198" y="130.98647" style="stroke: #000000"/>
    </g>
   </g>
   <g id="PathCollection_35">
    <g clip-path="url(#pebe401352d)">
     <use xlink:href="#m2639d63746" x="380.260951" y="144.326146" style="stroke: #000000"/>
     <use xlink:href="#m2639d63746" x="380.260951" y="130.176028" style="stroke: #000000"/>
    </g>
   </g>
   <g id="PathCollection_36">
    <g clip-path="url(#pebe401352d)">
     <use xlink:href="#m2639d63746" x="412.420705" y="151.967569" style="stroke: #000000"/>
     <use xlink:href="#m2639d63746" x="412.420705" y="132.911494" style="stroke: #000000"/>
    </g>
   </g>
   <g id="line2d_81">
    <path d="M -1 69.172636 
L 433 69.172636 
" clip-path="url(#pebe401352d)" style="fill: none; stroke-dasharray: 3.7,1.6; stroke-dashoffset: 0; stroke: #8c8c8c"/>
   </g>
   <g id="line2d_82">
    <path d="M -1 91.45651 
L 433 91.45651 
" clip-path="url(#pebe401352d)" style="fill: none; stroke-dasharray: 3.7,1.6; stroke-dashoffset: 0; stroke: #8c8c8c"/>
   </g>
   <g id="line2d_83">
    <path d="M -1 113.740384 
L 433 113.740384 
" clip-path="url(#pebe401352d)" style="fill: none; stroke-dasharray: 3.7,1.6; stroke-dashoffset: 0; stroke: #8c8c8c"/>
   </g>
   <g id="line2d_84">
    <path d="M -1 136.024259 
L 433 136.024259 
" clip-path="url(#pebe401352d)" style="fill: none; stroke-dasharray: 3.7,1.6; stroke-dashoffset: 0; stroke: #8c8c8c"/>
   </g>
   <g id="line2d_85">
    <path d="M 58.663418 29.813689 
L 60.287648 31.037937 
L 61.911878 32.262185 
L 63.536108 33.486433 
L 65.160338 34.710681 
L 66.784568 35.934929 
L 68.408798 37.159177 
L 70.033028 38.383425 
L 71.657258 39.607673 
L 73.281488 40.831921 
L 74.905718 42.056169 
L 76.529948 43.280416 
L 78.154178 44.504664 
L 79.778408 45.728912 
L 81.402638 46.95316 
L 83.026868 48.177408 
L 84.651098 49.401656 
L 86.275328 50.625904 
L 87.899558 51.850152 
L 89.523788 53.0744 
L 91.148017 54.298648 
L 92.772247 55.522896 
L 94.396477 56.747144 
L 96.020707 57.971392 
L 97.644937 59.19564 
L 99.269167 60.419888 
L 100.893397 61.644136 
L 102.517627 62.868384 
L 104.141857 64.092632 
L 105.766087 65.31688 
L 107.390317 66.541128 
L 109.014547 67.765376 
L 110.638777 68.989623 
L 112.263007 70.213871 
L 113.887237 71.438119 
L 115.511467 72.662367 
L 117.135697 73.886615 
L 118.759927 75.110863 
L 120.384157 76.335111 
L 122.008387 77.559359 
L 123.632617 78.783607 
L 125.256847 80.007855 
L 126.881077 81.232103 
L 128.505307 82.456351 
L 130.129537 83.680599 
L 131.753767 84.904847 
L 133.377997 86.129095 
L 135.002227 87.353343 
L 136.626456 88.577591 
L 138.250686 89.801839 
L 139.874916 91.026087 
L 141.499146 92.250335 
L 143.123376 93.474582 
L 144.747606 94.69883 
L 146.371836 95.923078 
L 147.996066 97.147326 
L 149.620296 98.371574 
L 151.244526 99.595822 
L 152.868756 100.82007 
L 154.492986 102.044318 
L 156.117216 103.268566 
L 157.741446 104.492814 
L 159.365676 105.717062 
L 160.989906 106.94131 
L 162.614136 108.165558 
L 164.238366 109.389806 
L 165.862596 110.614054 
L 167.486826 111.838302 
L 169.111056 113.06255 
L 170.735286 114.286798 
L 172.359516 115.511046 
L 173.983746 116.735294 
L 175.607976 117.959542 
L 177.232206 119.183789 
L 178.856436 120.408037 
L 180.480666 121.632285 
L 182.104896 122.856533 
L 183.729125 124.080781 
L 185.353355 125.305029 
L 186.977585 126.529277 
L 188.601815 127.753525 
L 190.226045 128.977773 
L 191.850275 130.202021 
L 193.474505 131.426269 
L 195.098735 132.650517 
L 196.722965 133.874765 
L 198.347195 135.099013 
L 199.971425 136.323261 
L 201.595655 137.547509 
L 203.219885 138.771757 
L 204.844115 139.996005 
L 206.468345 141.220253 
L 208.092575 142.444501 
L 209.716805 143.668748 
L 211.341035 144.892996 
L 212.965265 146.117244 
L 214.589495 147.341492 
L 216.213725 148.56574 
L 217.837955 149.789988 
L 219.462185 151.014236 
" clip-path="url(#pebe401352d)" style="fill: none; stroke-dasharray: 3.7,1.6; stroke-dashoffset: 0; stroke: #8c8c8c"/>
   </g>
   <g id="line2d_86">
    <path d="M 58.663418 26.305882 
L 90.823171 57.307803 
L 122.982925 68.162419 
L 155.142678 70.912993 
L 187.302431 70.729214 
L 219.462185 71.292951 
" clip-path="url(#pebe401352d)" style="fill: none; stroke: #4c72b0"/>
   </g>
   <g id="line2d_87">
    <path d="M 58.663418 26.326471 
L 58.663418 26.285326 
" clip-path="url(#pebe401352d)" style="fill: none; stroke: #000000"/>
   </g>
   <g id="line2d_88">
    <path d="M 90.823171 57.452119 
L 90.823171 57.165078 
" clip-path="url(#pebe401352d)" style="fill: none; stroke: #000000"/>
   </g>
   <g id="line2d_89">
    <path d="M 122.982925 68.384914 
L 122.982925 67.943684 
" clip-path="url(#pebe401352d)" style="fill: none; stroke: #000000"/>
   </g>
   <g id="line2d_90">
    <path d="M 155.142678 71.143974 
L 155.142678 70.686061 
" clip-path="url(#pebe401352d)" style="fill: none; stroke: #000000"/>
   </g>
   <g id="line2d_91">
    <path d="M 187.302431 70.942769 
L 187.302431 70.519124 
" clip-path="url(#pebe401352d)" style="fill: none; stroke: #000000"/>
   </g>
   <g id="line2d_92">
    <path d="M 219.462185 71.496244 
L 219.462185 71.092801 
" clip-path="url(#pebe401352d)" style="fill: none; stroke: #000000"/>
   </g>
   <g id="PathCollection_37">
    <g clip-path="url(#pebe401352d)">
     <use xlink:href="#m2639d63746" x="58.663418" y="26.326471" style="stroke: #000000"/>
     <use xlink:href="#m2639d63746" x="58.663418" y="26.285326" style="stroke: #000000"/>
    </g>
   </g>
   <g id="PathCollection_38">
    <g clip-path="url(#pebe401352d)">
     <use xlink:href="#m2639d63746" x="90.823171" y="57.452119" style="stroke: #000000"/>
     <use xlink:href="#m2639d63746" x="90.823171" y="57.165078" style="stroke: #000000"/>
    </g>
   </g>
   <g id="PathCollection_39">
    <g clip-path="url(#pebe401352d)">
     <use xlink:href="#m2639d63746" x="122.982925" y="68.384914" style="stroke: #000000"/>
     <use xlink:href="#m2639d63746" x="122.982925" y="67.943684" style="stroke: #000000"/>
    </g>
   </g>
   <g id="PathCollection_40">
    <g clip-path="url(#pebe401352d)">
     <use xlink:href="#m2639d63746" x="155.142678" y="71.143974" style="stroke: #000000"/>
     <use xlink:href="#m2639d63746" x="155.142678" y="70.686061" style="stroke: #000000"/>
    </g>
   </g>
   <g id="PathCollection_41">
    <g clip-path="url(#pebe401352d)">
     <use xlink:href="#m2639d63746" x="187.302431" y="70.942769" style="stroke: #000000"/>
     <use xlink:href="#m2639d63746" x="187.302431" y="70.519124" style="stroke: #000000"/>
    </g>
   </g>
   <g id="PathCollection_42">
    <g clip-path="url(#pebe401352d)">
     <use xlink:href="#m2639d63746" x="219.462185" y="71.496244" style="stroke: #000000"/>
     <use xlink:href="#m2639d63746" x="219.462185" y="71.092801" style="stroke: #000000"/>
    </g>
   </g>
   <g id="line2d_93">
    <path d="M 58.663418 28.969424 
L 90.823171 55.838872 
L 122.982925 76.302734 
L 155.142678 86.435046 
L 187.302431 87.80008 
L 219.462185 88.336338 
L 251.621938 90.15411 
L 283.781691 90.40245 
" clip-path="url(#pebe401352d)" style="fill: none; stroke: #dd8452"/>
   </g>
   <g id="line2d_94">
    <path d="M 58.663418 28.990354 
L 58.663418 28.948528 
" clip-path="url(#pebe401352d)" style="fill: none; stroke: #000000"/>
   </g>
   <g id="line2d_95">
    <path d="M 90.823171 55.939164 
L 90.823171 55.739351 
" clip-path="url(#pebe401352d)" style="fill: none; stroke: #000000"/>
   </g>
   <g id="line2d_96">
    <path d="M 122.982925 76.613759 
L 122.982925 75.999005 
" clip-path="url(#pebe401352d)" style="fill: none; stroke: #000000"/>
   </g>
   <g id="line2d_97">
    <path d="M 155.142678 86.929728 
L 155.142678 85.958571 
" clip-path="url(#pebe401352d)" style="fill: none; stroke: #000000"/>
   </g>
   <g id="line2d_98">
    <path d="M 187.302431 88.321935 
L 187.302431 87.298445 
" clip-path="url(#pebe401352d)" style="fill: none; stroke: #000000"/>
   </g>
   <g id="line2d_99">
    <path d="M 219.462185 88.837541 
L 219.462185 87.853816 
" clip-path="url(#pebe401352d)" style="fill: none; stroke: #000000"/>
   </g>
   <g id="line2d_100">
    <path d="M 251.621938 90.717754 
L 251.621938 89.613983 
" clip-path="url(#pebe401352d)" style="fill: none; stroke: #000000"/>
   </g>
   <g id="line2d_101">
    <path d="M 283.781691 90.966909 
L 283.781691 89.861575 
" clip-path="url(#pebe401352d)" style="fill: none; stroke: #000000"/>
   </g>
   <g id="PathCollection_43">
    <g clip-path="url(#pebe401352d)">
     <use xlink:href="#m2639d63746" x="58.663418" y="28.990354" style="stroke: #000000"/>
     <use xlink:href="#m2639d63746" x="58.663418" y="28.948528" style="stroke: #000000"/>
    </g>
   </g>
   <g id="PathCollection_44">
    <g clip-path="url(#pebe401352d)">
     <use xlink:href="#m2639d63746" x="90.823171" y="55.939164" style="stroke: #000000"/>
     <use xlink:href="#m2639d63746" x="90.823171" y="55.739351" style="stroke: #000000"/>
    </g>
   </g>
   <g id="PathCollection_45">
    <g clip-path="url(#pebe401352d)">
     <use xlink:href="#m2639d63746" x="122.982925" y="76.613759" style="stroke: #000000"/>
     <use xlink:href="#m2639d63746" x="122.982925" y="75.999005" style="stroke: #000000"/>
    </g>
   </g>
   <g id="PathCollection_46">
    <g clip-path="url(#pebe401352d)">
     <use xlink:href="#m2639d63746" x="155.142678" y="86.929728" style="stroke: #000000"/>
     <use xlink:href="#m2639d63746" x="155.142678" y="85.958571" style="stroke: #000000"/>
    </g>
   </g>
   <g id="PathCollection_47">
    <g clip-path="url(#pebe401352d)">
     <use xlink:href="#m2639d63746" x="187.302431" y="88.321935" style="stroke: #000000"/>
     <use xlink:href="#m2639d63746" x="187.302431" y="87.298445" style="stroke: #000000"/>
    </g>
   </g>
   <g id="PathCollection_48">
    <g clip-path="url(#pebe401352d)">
     <use xlink:href="#m2639d63746" x="219.462185" y="88.837541" style="stroke: #000000"/>
     <use xlink:href="#m2639d63746" x="219.462185" y="87.853816" style="stroke: #000000"/>
    </g>
   </g>
   <g id="PathCollection_49">
    <g clip-path="url(#pebe401352d)">
     <use xlink:href="#m2639d63746" x="251.621938" y="90.717754" style="stroke: #000000"/>
     <use xlink:href="#m2639d63746" x="251.621938" y="89.613983" style="stroke: #000000"/>
    </g>
   </g>
   <g id="PathCollection_50">
    <g clip-path="url(#pebe401352d)">
     <use xlink:href="#m2639d63746" x="283.781691" y="90.966909" style="stroke: #000000"/>
     <use xlink:href="#m2639d63746" x="283.781691" y="89.861575" style="stroke: #000000"/>
    </g>
   </g>
   <g id="line2d_102">
    <path d="M 58.663418 29.466438 
L 90.823171 54.761634 
L 122.982925 78.684996 
L 155.142678 96.667659 
L 187.302431 101.918074 
L 219.462185 104.902879 
L 251.621938 107.418089 
L 283.781691 109.487561 
L 315.941445 108.707882 
L 348.101198 108.145298 
" clip-path="url(#pebe401352d)" style="fill: none; stroke: #55a868"/>
   </g>
   <g id="line2d_103">
    <path d="M 58.663418 29.486465 
L 58.663418 29.446442 
" clip-path="url(#pebe401352d)" style="fill: none; stroke: #000000"/>
   </g>
   <g id="line2d_104">
    <path d="M 90.823171 54.827348 
L 90.823171 54.696251 
" clip-path="url(#pebe401352d)" style="fill: none; stroke: #000000"/>
   </g>
   <g id="line2d_105">
    <path d="M 122.982925 78.938859 
L 122.982925 78.436014 
" clip-path="url(#pebe401352d)" style="fill: none; stroke: #000000"/>
   </g>
   <g id="line2d_106">
    <path d="M 155.142678 97.372013 
L 155.142678 95.999652 
" clip-path="url(#pebe401352d)" style="fill: none; stroke: #000000"/>
   </g>
   <g id="line2d_107">
    <path d="M 187.302431 102.812092 
L 187.302431 101.081821 
" clip-path="url(#pebe401352d)" style="fill: none; stroke: #000000"/>
   </g>
   <g id="line2d_108">
    <path d="M 219.462185 105.975174 
L 219.462185 103.912637 
" clip-path="url(#pebe401352d)" style="fill: none; stroke: #000000"/>
   </g>
   <g id="line2d_109">
    <path d="M 251.621938 108.677654 
L 251.621938 106.270268 
" clip-path="url(#pebe401352d)" style="fill: none; stroke: #000000"/>
   </g>
   <g id="line2d_110">
    <path d="M 283.781691 111.054915 
L 283.781691 108.089618 
" clip-path="url(#pebe401352d)" style="fill: none; stroke: #000000"/>
   </g>
   <g id="line2d_111">
    <path d="M 315.941445 110.024221 
L 315.941445 107.513107 
" clip-path="url(#pebe401352d)" style="fill: none; stroke: #000000"/>
   </g>
   <g id="line2d_112">
    <path d="M 348.101198 109.46178 
L 348.101198 106.950407 
" clip-path="url(#pebe401352d)" style="fill: none; stroke: #000000"/>
   </g>
   <g id="PathCollection_51">
    <g clip-path="url(#pebe401352d)">
     <use xlink:href="#m2639d63746" x="58.663418" y="29.486465" style="stroke: #000000"/>
     <use xlink:href="#m2639d63746" x="58.663418" y="29.446442" style="stroke: #000000"/>
    </g>
   </g>
   <g id="PathCollection_52">
    <g clip-path="url(#pebe401352d)">
     <use xlink:href="#m2639d63746" x="90.823171" y="54.827348" style="stroke: #000000"/>
     <use xlink:href="#m2639d63746" x="90.823171" y="54.696251" style="stroke: #000000"/>
    </g>
   </g>
   <g id="PathCollection_53">
    <g clip-path="url(#pebe401352d)">
     <use xlink:href="#m2639d63746" x="122.982925" y="78.938859" style="stroke: #000000"/>
     <use xlink:href="#m2639d63746" x="122.982925" y="78.436014" style="stroke: #000000"/>
    </g>
   </g>
   <g id="PathCollection_54">
    <g clip-path="url(#pebe401352d)">
     <use xlink:href="#m2639d63746" x="155.142678" y="97.372013" style="stroke: #000000"/>
     <use xlink:href="#m2639d63746" x="155.142678" y="95.999652" style="stroke: #000000"/>
    </g>
   </g>
   <g id="PathCollection_55">
    <g clip-path="url(#pebe401352d)">
     <use xlink:href="#m2639d63746" x="187.302431" y="102.812092" style="stroke: #000000"/>
     <use xlink:href="#m2639d63746" x="187.302431" y="101.081821" style="stroke: #000000"/>
    </g>
   </g>
   <g id="PathCollection_56">
    <g clip-path="url(#pebe401352d)">
     <use xlink:href="#m2639d63746" x="219.462185" y="105.975174" style="stroke: #000000"/>
     <use xlink:href="#m2639d63746" x="219.462185" y="103.912637" style="stroke: #000000"/>
    </g>
   </g>
   <g id="PathCollection_57">
    <g clip-path="url(#pebe401352d)">
     <use xlink:href="#m2639d63746" x="251.621938" y="108.677654" style="stroke: #000000"/>
     <use xlink:href="#m2639d63746" x="251.621938" y="106.270268" style="stroke: #000000"/>
    </g>
   </g>
   <g id="PathCollection_58">
    <g clip-path="url(#pebe401352d)">
     <use xlink:href="#m2639d63746" x="283.781691" y="111.054915" style="stroke: #000000"/>
     <use xlink:href="#m2639d63746" x="283.781691" y="108.089618" style="stroke: #000000"/>
    </g>
   </g>
   <g id="PathCollection_59">
    <g clip-path="url(#pebe401352d)">
     <use xlink:href="#m2639d63746" x="315.941445" y="110.024221" style="stroke: #000000"/>
     <use xlink:href="#m2639d63746" x="315.941445" y="107.513107" style="stroke: #000000"/>
    </g>
   </g>
   <g id="PathCollection_60">
    <g clip-path="url(#pebe401352d)">
     <use xlink:href="#m2639d63746" x="348.101198" y="109.46178" style="stroke: #000000"/>
     <use xlink:href="#m2639d63746" x="348.101198" y="106.950407" style="stroke: #000000"/>
    </g>
   </g>
   <g id="line2d_113">
    <path d="M 58.663418 29.595414 
L 90.823171 54.265129 
L 122.982925 78.526074 
L 155.142678 102.308797 
L 187.302431 122.183391 
L 219.462185 135.901082 
L 251.621938 129.222228 
L 283.781691 133.526773 
L 315.941445 134.899839 
L 348.101198 135.285768 
L 380.260951 135.407205 
L 412.420705 139.210828 
" clip-path="url(#pebe401352d)" style="fill: none; stroke: #c44e52"/>
   </g>
   <g id="line2d_114">
    <path d="M 58.663418 29.614686 
L 58.663418 29.57617 
" clip-path="url(#pebe401352d)" style="fill: none; stroke: #000000"/>
   </g>
   <g id="line2d_115">
    <path d="M 90.823171 54.313366 
L 90.823171 54.217071 
" clip-path="url(#pebe401352d)" style="fill: none; stroke: #000000"/>
   </g>
   <g id="line2d_116">
    <path d="M 122.982925 78.679062 
L 122.982925 78.374872 
" clip-path="url(#pebe401352d)" style="fill: none; stroke: #000000"/>
   </g>
   <g id="line2d_117">
    <path d="M 155.142678 103.023542 
L 155.142678 101.631452 
" clip-path="url(#pebe401352d)" style="fill: none; stroke: #000000"/>
   </g>
   <g id="line2d_118">
    <path d="M 187.302431 124.831206 
L 187.302431 119.986209 
" clip-path="url(#pebe401352d)" style="fill: none; stroke: #000000"/>
   </g>
   <g id="line2d_119">
    <path d="M 219.462185 144.132423 
L 219.462185 130.908842 
" clip-path="url(#pebe401352d)" style="fill: none; stroke: #000000"/>
   </g>
   <g id="line2d_120">
    <path d="M 251.621938 133.703298 
L 251.621938 125.899629 
" clip-path="url(#pebe401352d)" style="fill: none; stroke: #000000"/>
   </g>
   <g id="line2d_121">
    <path d="M 283.781691 140.227132 
L 283.781691 129.133427 
" clip-path="url(#pebe401352d)" style="fill: none; stroke: #000000"/>
   </g>
   <g id="line2d_122">
    <path d="M 315.941445 141.136605 
L 315.941445 130.708426 
" clip-path="url(#pebe401352d)" style="fill: none; stroke: #000000"/>
   </g>
   <g id="line2d_123">
    <path d="M 348.101198 141.767246 
L 348.101198 130.98647 
" clip-path="url(#pebe401352d)" style="fill: none; stroke: #000000"/>
   </g>
   <g id="line2d_124">
    <path d="M 380.260951 144.326146 
L 380.260951 130.176028 
" clip-path="url(#pebe401352d)" style="fill: none; stroke: #000000"/>
   </g>
   <g id="line2d_125">
    <path d="M 412.420705 151.967569 
L 412.420705 132.911494 
" clip-path="url(#pebe401352d)" style="fill: none; stroke: #000000"/>
   </g>
   <g id="PathCollection_61">
    <g clip-path="url(#pebe401352d)">
     <use xlink:href="#m2639d63746" x="58.663418" y="29.614686" style="stroke: #000000"/>
     <use xlink:href="#m2639d63746" x="58.663418" y="29.57617" style="stroke: #000000"/>
    </g>
   </g>
   <g id="PathCollection_62">
    <g clip-path="url(#pebe401352d)">
     <use xlink:href="#m2639d63746" x="90.823171" y="54.313366" style="stroke: #000000"/>
     <use xlink:href="#m2639d63746" x="90.823171" y="54.217071" style="stroke: #000000"/>
    </g>
   </g>
   <g id="PathCollection_63">
    <g clip-path="url(#pebe401352d)">
     <use xlink:href="#m2639d63746" x="122.982925" y="78.679062" style="stroke: #000000"/>
     <use xlink:href="#m2639d63746" x="122.982925" y="78.374872" style="stroke: #000000"/>
    </g>
   </g>
   <g id="PathCollection_64">
    <g clip-path="url(#pebe401352d)">
     <use xlink:href="#m2639d63746" x="155.142678" y="103.023542" style="stroke: #000000"/>
     <use xlink:href="#m2639d63746" x="155.142678" y="101.631452" style="stroke: #000000"/>
    </g>
   </g>
   <g id="PathCollection_65">
    <g clip-path="url(#pebe401352d)">
     <use xlink:href="#m2639d63746" x="187.302431" y="124.831206" style="stroke: #000000"/>
     <use xlink:href="#m2639d63746" x="187.302431" y="119.986209" style="stroke: #000000"/>
    </g>
   </g>
   <g id="PathCollection_66">
    <g clip-path="url(#pebe401352d)">
     <use xlink:href="#m2639d63746" x="219.462185" y="144.132423" style="stroke: #000000"/>
     <use xlink:href="#m2639d63746" x="219.462185" y="130.908842" style="stroke: #000000"/>
    </g>
   </g>
   <g id="PathCollection_67">
    <g clip-path="url(#pebe401352d)">
     <use xlink:href="#m2639d63746" x="251.621938" y="133.703298" style="stroke: #000000"/>
     <use xlink:href="#m2639d63746" x="251.621938" y="125.899629" style="stroke: #000000"/>
    </g>
   </g>
   <g id="PathCollection_68">
    <g clip-path="url(#pebe401352d)">
     <use xlink:href="#m2639d63746" x="283.781691" y="140.227132" style="stroke: #000000"/>
     <use xlink:href="#m2639d63746" x="283.781691" y="129.133427" style="stroke: #000000"/>
    </g>
   </g>
   <g id="PathCollection_69">
    <g clip-path="url(#pebe401352d)">
     <use xlink:href="#m2639d63746" x="315.941445" y="141.136605" style="stroke: #000000"/>
     <use xlink:href="#m2639d63746" x="315.941445" y="130.708426" style="stroke: #000000"/>
    </g>
   </g>
   <g id="PathCollection_70">
    <g clip-path="url(#pebe401352d)">
     <use xlink:href="#m2639d63746" x="348.101198" y="141.767246" style="stroke: #000000"/>
     <use xlink:href="#m2639d63746" x="348.101198" y="130.98647" style="stroke: #000000"/>
    </g>
   </g>
   <g id="PathCollection_71">
    <g clip-path="url(#pebe401352d)">
     <use xlink:href="#m2639d63746" x="380.260951" y="144.326146" style="stroke: #000000"/>
     <use xlink:href="#m2639d63746" x="380.260951" y="130.176028" style="stroke: #000000"/>
    </g>
   </g>
   <g id="PathCollection_72">
    <g clip-path="url(#pebe401352d)">
     <use xlink:href="#m2639d63746" x="412.420705" y="151.967569" style="stroke: #000000"/>
     <use xlink:href="#m2639d63746" x="412.420705" y="132.911494" style="stroke: #000000"/>
    </g>
   </g>
   <g id="legend_1">
    <g id="patch_7">
     <path d="M 311.333423 211.859646 
L 418.033423 211.859646 
L 418.033423 24.634646 
L 311.333423 24.634646 
z
" style="fill: #ffffff; stroke: #000000; stroke-linejoin: miter"/>
    </g>
    <g id="line2d_126">
     <path d="M 319.333423 36.734646 
L 329.333423 36.734646 
L 339.333423 36.734646 
" style="fill: none; stroke-dasharray: 4.625,2; stroke-dashoffset: 0; stroke: #8c8c8c; stroke-width: 1.25; stroke-linejoin: miter"/>
    </g>
    <g id="text_20">
     <!-- $c_1\exp(-\gamma N)$ -->
     <g transform="translate(347.333423 40.234646) scale(0.1 -0.1)">
      <defs>
       <path id="DejaVuSans-Oblique-63" d="M 3431 3366 
L 3316 2797 
Q 3109 2947 2876 3022 
Q 2644 3097 2394 3097 
Q 2119 3097 1870 3000 
Q 1622 2903 1453 2725 
Q 1184 2453 1037 2087 
Q 891 1722 891 1331 
Q 891 859 1127 628 
Q 1363 397 1844 397 
Q 2081 397 2348 469 
Q 2616 541 2906 684 
L 2797 116 
Q 2547 13 2283 -39 
Q 2019 -91 1741 -91 
Q 1044 -91 669 257 
Q 294 606 294 1253 
Q 294 1797 489 2255 
Q 684 2713 1069 3078 
Q 1331 3328 1684 3456 
Q 2038 3584 2456 3584 
Q 2700 3584 2940 3529 
Q 3181 3475 3431 3366 
z
" transform="scale(0.015625)"/>
       <path id="DejaVuSans-31" d="M 794 531 
L 1825 531 
L 1825 4091 
L 703 3866 
L 703 4441 
L 1819 4666 
L 2450 4666 
L 2450 531 
L 3481 531 
L 3481 0 
L 794 0 
L 794 531 
z
" transform="scale(0.015625)"/>
       <path id="DejaVuSans-65" d="M 3597 1894 
L 3597 1613 
L 953 1613 
Q 991 1019 1311 708 
Q 1631 397 2203 397 
Q 2534 397 2845 478 
Q 3156 559 3463 722 
L 3463 178 
Q 3153 47 2828 -22 
Q 2503 -91 2169 -91 
Q 1331 -91 842 396 
Q 353 884 353 1716 
Q 353 2575 817 3079 
Q 1281 3584 2069 3584 
Q 2775 3584 3186 3129 
Q 3597 2675 3597 1894 
z
M 3022 2063 
Q 3016 2534 2758 2815 
Q 2500 3097 2075 3097 
Q 1594 3097 1305 2825 
Q 1016 2553 972 2059 
L 3022 2063 
z
" transform="scale(0.015625)"/>
       <path id="DejaVuSans-78" d="M 3513 3500 
L 2247 1797 
L 3578 0 
L 2900 0 
L 1881 1375 
L 863 0 
L 184 0 
L 1544 1831 
L 300 3500 
L 978 3500 
L 1906 2253 
L 2834 3500 
L 3513 3500 
z
" transform="scale(0.015625)"/>
       <path id="DejaVuSans-70" d="M 1159 525 
L 1159 -1331 
L 581 -1331 
L 581 3500 
L 1159 3500 
L 1159 2969 
Q 1341 3281 1617 3432 
Q 1894 3584 2278 3584 
Q 2916 3584 3314 3078 
Q 3713 2572 3713 1747 
Q 3713 922 3314 415 
Q 2916 -91 2278 -91 
Q 1894 -91 1617 61 
Q 1341 213 1159 525 
z
M 3116 1747 
Q 3116 2381 2855 2742 
Q 2594 3103 2138 3103 
Q 1681 3103 1420 2742 
Q 1159 2381 1159 1747 
Q 1159 1113 1420 752 
Q 1681 391 2138 391 
Q 2594 391 2855 752 
Q 3116 1113 3116 1747 
z
" transform="scale(0.015625)"/>
       <path id="DejaVuSans-28" d="M 1984 4856 
Q 1566 4138 1362 3434 
Q 1159 2731 1159 2009 
Q 1159 1288 1364 580 
Q 1569 -128 1984 -844 
L 1484 -844 
Q 1016 -109 783 600 
Q 550 1309 550 2009 
Q 550 2706 781 3412 
Q 1013 4119 1484 4856 
L 1984 4856 
z
" transform="scale(0.015625)"/>
       <path id="DejaVuSans-2212" d="M 678 2272 
L 4684 2272 
L 4684 1741 
L 678 1741 
L 678 2272 
z
" transform="scale(0.015625)"/>
       <path id="DejaVuSans-Oblique-3b3" d="M 1491 2950 
L 1838 788 
L 3456 3500 
L 4066 3500 
L 1972 0 
L 1713 -1331 
L 1138 -1331 
L 1397 0 
L 988 2613 
Q 925 3006 628 3006 
L 475 3006 
L 569 3500 
L 788 3500 
Q 1403 3500 1491 2950 
z
" transform="scale(0.015625)"/>
       <path id="DejaVuSans-Oblique-4e" d="M 1081 4666 
L 1931 4666 
L 3219 666 
L 4000 4666 
L 4616 4666 
L 3706 0 
L 2853 0 
L 1569 4025 
L 788 0 
L 172 0 
L 1081 4666 
z
" transform="scale(0.015625)"/>
       <path id="DejaVuSans-29" d="M 513 4856 
L 1013 4856 
Q 1481 4119 1714 3412 
Q 1947 2706 1947 2009 
Q 1947 1309 1714 600 
Q 1481 -109 1013 -844 
L 513 -844 
Q 928 -128 1133 580 
Q 1338 1288 1338 2009 
Q 1338 2731 1133 3434 
Q 928 4138 513 4856 
z
" transform="scale(0.015625)"/>
      </defs>
      <use xlink:href="#DejaVuSans-Oblique-63" transform="translate(0 0.125)"/>
      <use xlink:href="#DejaVuSans-31" transform="translate(54.980469 -16.28125) scale(0.7)"/>
      <use xlink:href="#DejaVuSans-65" transform="translate(102.250977 0.125)"/>
      <use xlink:href="#DejaVuSans-78" transform="translate(163.774414 0.125)"/>
      <use xlink:href="#DejaVuSans-70" transform="translate(222.954102 0.125)"/>
      <use xlink:href="#DejaVuSans-28" transform="translate(286.430664 0.125)"/>
      <use xlink:href="#DejaVuSans-2212" transform="translate(325.444336 0.125)"/>
      <use xlink:href="#DejaVuSans-Oblique-3b3" transform="translate(409.233398 0.125)"/>
      <use xlink:href="#DejaVuSans-Oblique-4e" transform="translate(468.413086 0.125)"/>
      <use xlink:href="#DejaVuSans-29" transform="translate(543.217773 0.125)"/>
     </g>
    </g>
    <g id="line2d_127">
     <path d="M 319.333423 51.434646 
L 329.333423 51.434646 
L 339.333423 51.434646 
" style="fill: none; stroke-dasharray: 4.625,2; stroke-dashoffset: 0; stroke: #8c8c8c; stroke-width: 1.25; stroke-linejoin: miter"/>
    </g>
    <g id="text_21">
     <!-- $c_2\exp(-\gamma n_H)$ -->
     <g transform="translate(347.333423 54.934646) scale(0.1 -0.1)">
      <defs>
       <path id="DejaVuSans-32" d="M 1228 531 
L 3431 531 
L 3431 0 
L 469 0 
L 469 531 
Q 828 903 1448 1529 
Q 2069 2156 2228 2338 
Q 2531 2678 2651 2914 
Q 2772 3150 2772 3378 
Q 2772 3750 2511 3984 
Q 2250 4219 1831 4219 
Q 1534 4219 1204 4116 
Q 875 4013 500 3803 
L 500 4441 
Q 881 4594 1212 4672 
Q 1544 4750 1819 4750 
Q 2544 4750 2975 4387 
Q 3406 4025 3406 3419 
Q 3406 3131 3298 2873 
Q 3191 2616 2906 2266 
Q 2828 2175 2409 1742 
Q 1991 1309 1228 531 
z
" transform="scale(0.015625)"/>
       <path id="DejaVuSans-Oblique-6e" d="M 3566 2113 
L 3156 0 
L 2578 0 
L 2988 2091 
Q 3016 2238 3031 2350 
Q 3047 2463 3047 2528 
Q 3047 2791 2881 2937 
Q 2716 3084 2419 3084 
Q 1956 3084 1622 2776 
Q 1288 2469 1184 1941 
L 800 0 
L 225 0 
L 903 3500 
L 1478 3500 
L 1363 2950 
Q 1603 3253 1940 3418 
Q 2278 3584 2650 3584 
Q 3113 3584 3367 3334 
Q 3622 3084 3622 2631 
Q 3622 2519 3608 2391 
Q 3594 2263 3566 2113 
z
" transform="scale(0.015625)"/>
       <path id="DejaVuSans-Oblique-48" d="M 1081 4666 
L 1716 4666 
L 1344 2753 
L 3634 2753 
L 4006 4666 
L 4641 4666 
L 3731 0 
L 3097 0 
L 3531 2222 
L 1241 2222 
L 806 0 
L 172 0 
L 1081 4666 
z
" transform="scale(0.015625)"/>
      </defs>
      <use xlink:href="#DejaVuSans-Oblique-63" transform="translate(0 0.125)"/>
      <use xlink:href="#DejaVuSans-32" transform="translate(54.980469 -16.28125) scale(0.7)"/>
      <use xlink:href="#DejaVuSans-65" transform="translate(102.250977 0.125)"/>
      <use xlink:href="#DejaVuSans-78" transform="translate(163.774414 0.125)"/>
      <use xlink:href="#DejaVuSans-70" transform="translate(222.954102 0.125)"/>
      <use xlink:href="#DejaVuSans-28" transform="translate(286.430664 0.125)"/>
      <use xlink:href="#DejaVuSans-2212" transform="translate(325.444336 0.125)"/>
      <use xlink:href="#DejaVuSans-Oblique-3b3" transform="translate(409.233398 0.125)"/>
      <use xlink:href="#DejaVuSans-Oblique-6e" transform="translate(468.413086 0.125)"/>
      <use xlink:href="#DejaVuSans-Oblique-48" transform="translate(531.791992 -16.28125) scale(0.7)"/>
      <use xlink:href="#DejaVuSans-29" transform="translate(587.163086 0.125)"/>
     </g>
    </g>
    <g id="line2d_128">
     <path d="M 319.333423 66.133083 
L 329.333423 66.133083 
L 339.333423 66.133083 
" style="fill: none; stroke: #4c72b0; stroke-width: 1.25; stroke-linejoin: miter"/>
    </g>
    <g id="text_22">
     <!-- N=6 -->
     <g transform="translate(347.333423 69.633083) scale(0.1 -0.1)">
      <defs>
       <path id="DejaVuSerif-4e" d="M 313 0 
L 313 331 
L 941 331 
L 941 4331 
L 313 4331 
L 313 4666 
L 1509 4666 
L 4306 984 
L 4306 4331 
L 3681 4331 
L 3681 4666 
L 5319 4666 
L 5319 4331 
L 4691 4331 
L 4691 -91 
L 4313 -91 
L 1325 3841 
L 1325 331 
L 1953 331 
L 1953 0 
L 313 0 
z
" transform="scale(0.015625)"/>
       <path id="DejaVuSerif-3d" d="M 678 2894 
L 4684 2894 
L 4684 2394 
L 678 2394 
L 678 2894 
z
M 678 1619 
L 4684 1619 
L 4684 1119 
L 678 1119 
L 678 1619 
z
" transform="scale(0.015625)"/>
      </defs>
      <use xlink:href="#DejaVuSerif-4e"/>
      <use xlink:href="#DejaVuSerif-3d" x="87.5"/>
      <use xlink:href="#DejaVuSerif-36" x="171.289062"/>
     </g>
    </g>
    <g id="line2d_129">
     <path d="M 319.333423 80.811208 
L 329.333423 80.811208 
L 339.333423 80.811208 
" style="fill: none; stroke: #dd8452; stroke-width: 1.25; stroke-linejoin: miter"/>
    </g>
    <g id="text_23">
     <!-- N=8 -->
     <g transform="translate(347.333423 84.311208) scale(0.1 -0.1)">
      <use xlink:href="#DejaVuSerif-4e"/>
      <use xlink:href="#DejaVuSerif-3d" x="87.5"/>
      <use xlink:href="#DejaVuSerif-38" x="171.289062"/>
     </g>
    </g>
    <g id="line2d_130">
     <path d="M 319.333423 95.489333 
L 329.333423 95.489333 
L 339.333423 95.489333 
" style="fill: none; stroke: #55a868; stroke-width: 1.25; stroke-linejoin: miter"/>
    </g>
    <g id="text_24">
     <!-- N=10 -->
     <g transform="translate(347.333423 98.989333) scale(0.1 -0.1)">
      <use xlink:href="#DejaVuSerif-4e"/>
      <use xlink:href="#DejaVuSerif-3d" x="87.5"/>
      <use xlink:href="#DejaVuSerif-31" x="171.289062"/>
      <use xlink:href="#DejaVuSerif-30" x="234.912109"/>
     </g>
    </g>
    <g id="line2d_131">
     <path d="M 319.333423 110.167458 
L 329.333423 110.167458 
L 339.333423 110.167458 
" style="fill: none; stroke: #c44e52; stroke-width: 1.25; stroke-linejoin: miter"/>
    </g>
    <g id="text_25">
     <!-- N=12 -->
     <g transform="translate(347.333423 113.667458) scale(0.1 -0.1)">
      <use xlink:href="#DejaVuSerif-4e"/>
      <use xlink:href="#DejaVuSerif-3d" x="87.5"/>
      <use xlink:href="#DejaVuSerif-31" x="171.289062"/>
      <use xlink:href="#DejaVuSerif-32" x="234.912109"/>
     </g>
    </g>
    <g id="line2d_132">
     <path d="M 319.333423 124.847146 
L 329.333423 124.847146 
L 339.333423 124.847146 
" style="fill: none; stroke-dasharray: 4.625,2; stroke-dashoffset: 0; stroke: #8c8c8c; stroke-width: 1.25; stroke-linejoin: miter"/>
    </g>
    <g id="text_26">
     <!-- $c_1\exp(-\gamma N)$ -->
     <g transform="translate(347.333423 128.347146) scale(0.1 -0.1)">
      <use xlink:href="#DejaVuSans-Oblique-63" transform="translate(0 0.125)"/>
      <use xlink:href="#DejaVuSans-31" transform="translate(54.980469 -16.28125) scale(0.7)"/>
      <use xlink:href="#DejaVuSans-65" transform="translate(102.250977 0.125)"/>
      <use xlink:href="#DejaVuSans-78" transform="translate(163.774414 0.125)"/>
      <use xlink:href="#DejaVuSans-70" transform="translate(222.954102 0.125)"/>
      <use xlink:href="#DejaVuSans-28" transform="translate(286.430664 0.125)"/>
      <use xlink:href="#DejaVuSans-2212" transform="translate(325.444336 0.125)"/>
      <use xlink:href="#DejaVuSans-Oblique-3b3" transform="translate(409.233398 0.125)"/>
      <use xlink:href="#DejaVuSans-Oblique-4e" transform="translate(468.413086 0.125)"/>
      <use xlink:href="#DejaVuSans-29" transform="translate(543.217773 0.125)"/>
     </g>
    </g>
    <g id="line2d_133">
     <path d="M 319.333423 139.547146 
L 329.333423 139.547146 
L 339.333423 139.547146 
" style="fill: none; stroke-dasharray: 4.625,2; stroke-dashoffset: 0; stroke: #8c8c8c; stroke-width: 1.25; stroke-linejoin: miter"/>
    </g>
    <g id="text_27">
     <!-- $c_2\exp(-\gamma n_H)$ -->
     <g transform="translate(347.333423 143.047146) scale(0.1 -0.1)">
      <use xlink:href="#DejaVuSans-Oblique-63" transform="translate(0 0.125)"/>
      <use xlink:href="#DejaVuSans-32" transform="translate(54.980469 -16.28125) scale(0.7)"/>
      <use xlink:href="#DejaVuSans-65" transform="translate(102.250977 0.125)"/>
      <use xlink:href="#DejaVuSans-78" transform="translate(163.774414 0.125)"/>
      <use xlink:href="#DejaVuSans-70" transform="translate(222.954102 0.125)"/>
      <use xlink:href="#DejaVuSans-28" transform="translate(286.430664 0.125)"/>
      <use xlink:href="#DejaVuSans-2212" transform="translate(325.444336 0.125)"/>
      <use xlink:href="#DejaVuSans-Oblique-3b3" transform="translate(409.233398 0.125)"/>
      <use xlink:href="#DejaVuSans-Oblique-6e" transform="translate(468.413086 0.125)"/>
      <use xlink:href="#DejaVuSans-Oblique-48" transform="translate(531.791992 -16.28125) scale(0.7)"/>
      <use xlink:href="#DejaVuSans-29" transform="translate(587.163086 0.125)"/>
     </g>
    </g>
    <g id="line2d_134">
     <path d="M 319.333423 154.245583 
L 329.333423 154.245583 
L 339.333423 154.245583 
" style="fill: none; stroke: #4c72b0; stroke-width: 1.25; stroke-linejoin: miter"/>
    </g>
    <g id="text_28">
     <!-- N=6 -->
     <g transform="translate(347.333423 157.745583) scale(0.1 -0.1)">
      <use xlink:href="#DejaVuSerif-4e"/>
      <use xlink:href="#DejaVuSerif-3d" x="87.5"/>
      <use xlink:href="#DejaVuSerif-36" x="171.289062"/>
     </g>
    </g>
    <g id="line2d_135">
     <path d="M 319.333423 168.923708 
L 329.333423 168.923708 
L 339.333423 168.923708 
" style="fill: none; stroke: #dd8452; stroke-width: 1.25; stroke-linejoin: miter"/>
    </g>
    <g id="text_29">
     <!-- N=8 -->
     <g transform="translate(347.333423 172.423708) scale(0.1 -0.1)">
      <use xlink:href="#DejaVuSerif-4e"/>
      <use xlink:href="#DejaVuSerif-3d" x="87.5"/>
      <use xlink:href="#DejaVuSerif-38" x="171.289062"/>
     </g>
    </g>
    <g id="line2d_136">
     <path d="M 319.333423 183.601833 
L 329.333423 183.601833 
L 339.333423 183.601833 
" style="fill: none; stroke: #55a868; stroke-width: 1.25; stroke-linejoin: miter"/>
    </g>
    <g id="text_30">
     <!-- N=10 -->
     <g transform="translate(347.333423 187.101833) scale(0.1 -0.1)">
      <use xlink:href="#DejaVuSerif-4e"/>
      <use xlink:href="#DejaVuSerif-3d" x="87.5"/>
      <use xlink:href="#DejaVuSerif-31" x="171.289062"/>
      <use xlink:href="#DejaVuSerif-30" x="234.912109"/>
     </g>
    </g>
    <g id="line2d_137">
     <path d="M 319.333423 198.279958 
L 329.333423 198.279958 
L 339.333423 198.279958 
" style="fill: none; stroke: #c44e52; stroke-width: 1.25; stroke-linejoin: miter"/>
    </g>
    <g id="text_31">
     <!-- N=12 -->
     <g transform="translate(347.333423 201.779958) scale(0.1 -0.1)">
      <use xlink:href="#DejaVuSerif-4e"/>
      <use xlink:href="#DejaVuSerif-3d" x="87.5"/>
      <use xlink:href="#DejaVuSerif-31" x="171.289062"/>
      <use xlink:href="#DejaVuSerif-32" x="234.912109"/>
     </g>
    </g>
   </g>
  </g>
 </g>
 <defs>
  <clipPath id="pebe401352d">
   <rect x="48.0507" y="19.634646" width="374.982724" height="234.990709"/>
  </clipPath>
 </defs>
</svg>
