<?xml version="1.0" encoding="utf-8" standalone="no"?>
<!DOCTYPE svg PUBLIC "-//W3C//DTD SVG 1.1//EN"
  "http://www.w3.org/Graphics/SVG/1.1/DTD/svg11.dtd">
<svg xmlns:xlink="http://www.w3.org/1999/xlink" width="432pt" height="288pt" viewBox="0 0 432 288" xmlns="http://www.w3.org/2000/svg" version="1.1">
 <metadata>
  <rdf:RDF xmlns:dc="http://purl.org/dc/elements/1.1/" xmlns:cc="http://creativecommons.org/ns#" xmlns:rdf="http://www.w3.org/1999/02/22-rdf-syntax-ns#">
   <cc:Work>
    <dc:type rdf:resource="http://purl.org/dc/dcmitype/StillImage"/>
    <dc:date>2024-07-29T18:29:25.113935</dc:date>
    <dc:format>image/svg+xml</dc:format>
    <dc:creator>
     <cc:Agent>
      <dc:title>Matplotlib v3.9.1, https://matplotlib.org/</dc:title>
     </cc:Agent>
    </dc:creator>
   </cc:Work>
  </rdf:RDF>
 </metadata>
 <defs>
  <style type="text/css">*{stroke-linejoin: round; stroke-linecap: butt}</style>
 </defs>
 <g id="figure_1">
  <g id="patch_1">
   <path d="M 0 288 
L 432 288 
L 432 0 
L 0 0 
z
" style="fill: #ffffff"/>
  </g>
  <g id="axes_1">
   <g id="patch_2">
    <path d="M 30.5867 249.081354 
L 422.432383 249.081354 
L 422.432383 2.834646 
L 30.5867 2.834646 
z
" style="fill: #ffffff"/>
   </g>
   <g id="line2d_1">
    <path d="M 40.371734 9.817463 
L 93.695177 47.278231 
L 147.018621 122.365013 
L 200.342064 188.517064 
L 253.665508 197.040727 
L 306.988951 198.807367 
" clip-path="url(#pb87a43a657)" style="fill: none; stroke-dasharray: 3.7,1.6; stroke-dashoffset: 0; stroke: #dd8452"/>
   </g>
   <g id="matplotlib.axis_1">
    <g id="xtick_1">
     <g id="line2d_2">
      <defs>
       <path id="mce3bac30e3" d="M 0 0 
L 0 -2.5 
" style="stroke: #000000; stroke-width: 0.5"/>
      </defs>
      <g>
       <use xlink:href="#mce3bac30e3" x="95.894314" y="249.081354" style="stroke: #000000; stroke-width: 0.5"/>
      </g>
     </g>
     <g id="line2d_3">
      <defs>
       <path id="m0f544ec950" d="M 0 0 
L 0 2.5 
" style="stroke: #000000; stroke-width: 0.5"/>
      </defs>
      <g>
       <use xlink:href="#m0f544ec950" x="95.894314" y="2.834646" style="stroke: #000000; stroke-width: 0.5"/>
      </g>
     </g>
     <g id="text_1">
      <!-- $5$ -->
      <g transform="translate(92.694314 260.179792) scale(0.1 -0.1)">
       <defs>
        <path id="DejaVuSerif-35" d="M 3219 4666 
L 3219 4153 
L 1081 4153 
L 1081 2816 
Q 1244 2928 1461 2984 
Q 1678 3041 1947 3041 
Q 2703 3041 3140 2622 
Q 3578 2203 3578 1478 
Q 3578 738 3136 323 
Q 2694 -91 1894 -91 
Q 1572 -91 1234 -12 
Q 897 66 544 225 
L 544 1131 
L 897 1131 
Q 925 688 1179 453 
Q 1434 219 1894 219 
Q 2388 219 2653 544 
Q 2919 869 2919 1478 
Q 2919 2084 2655 2407 
Q 2391 2731 1894 2731 
Q 1613 2731 1398 2631 
Q 1184 2531 1019 2322 
L 750 2322 
L 750 4666 
L 3219 4666 
z
" transform="scale(0.015625)"/>
       </defs>
       <use xlink:href="#DejaVuSerif-35" transform="translate(0 0.09375)"/>
      </g>
     </g>
    </g>
    <g id="xtick_2">
     <g id="line2d_4">
      <g>
       <use xlink:href="#mce3bac30e3" x="204.740337" y="249.081354" style="stroke: #000000; stroke-width: 0.5"/>
      </g>
     </g>
     <g id="line2d_5">
      <g>
       <use xlink:href="#m0f544ec950" x="204.740337" y="2.834646" style="stroke: #000000; stroke-width: 0.5"/>
      </g>
     </g>
     <g id="text_2">
      <!-- $10$ -->
      <g transform="translate(198.340337 260.179792) scale(0.1 -0.1)">
       <defs>
        <path id="DejaVuSerif-31" d="M 909 0 
L 909 331 
L 1722 331 
L 1722 4213 
L 781 3603 
L 781 4013 
L 1919 4750 
L 2350 4750 
L 2350 331 
L 3163 331 
L 3163 0 
L 909 0 
z
" transform="scale(0.015625)"/>
        <path id="DejaVuSerif-30" d="M 2034 219 
Q 2513 219 2750 744 
Q 2988 1269 2988 2328 
Q 2988 3391 2750 3916 
Q 2513 4441 2034 4441 
Q 1556 4441 1318 3916 
Q 1081 3391 1081 2328 
Q 1081 1269 1318 744 
Q 1556 219 2034 219 
z
M 2034 -91 
Q 1275 -91 848 546 
Q 422 1184 422 2328 
Q 422 3475 848 4112 
Q 1275 4750 2034 4750 
Q 2797 4750 3222 4112 
Q 3647 3475 3647 2328 
Q 3647 1184 3222 546 
Q 2797 -91 2034 -91 
z
" transform="scale(0.015625)"/>
       </defs>
       <use xlink:href="#DejaVuSerif-31" transform="translate(0 0.78125)"/>
       <use xlink:href="#DejaVuSerif-30" transform="translate(63.623047 0.78125)"/>
      </g>
     </g>
    </g>
    <g id="xtick_3">
     <g id="line2d_6">
      <g>
       <use xlink:href="#mce3bac30e3" x="313.58636" y="249.081354" style="stroke: #000000; stroke-width: 0.5"/>
      </g>
     </g>
     <g id="line2d_7">
      <g>
       <use xlink:href="#m0f544ec950" x="313.58636" y="2.834646" style="stroke: #000000; stroke-width: 0.5"/>
      </g>
     </g>
     <g id="text_3">
      <!-- $15$ -->
      <g transform="translate(307.18636 260.179792) scale(0.1 -0.1)">
       <use xlink:href="#DejaVuSerif-31" transform="translate(0 0.78125)"/>
       <use xlink:href="#DejaVuSerif-35" transform="translate(63.623047 0.78125)"/>
      </g>
     </g>
    </g>
    <g id="xtick_4">
     <g id="line2d_8">
      <g>
       <use xlink:href="#mce3bac30e3" x="422.432383" y="249.081354" style="stroke: #000000; stroke-width: 0.5"/>
      </g>
     </g>
     <g id="line2d_9">
      <g>
       <use xlink:href="#m0f544ec950" x="422.432383" y="2.834646" style="stroke: #000000; stroke-width: 0.5"/>
      </g>
     </g>
     <g id="text_4">
      <!-- $20$ -->
      <g transform="translate(416.032383 260.179792) scale(0.1 -0.1)">
       <defs>
        <path id="DejaVuSerif-32" d="M 819 3553 
L 469 3553 
L 469 4384 
Q 803 4563 1142 4656 
Q 1481 4750 1806 4750 
Q 2534 4750 2956 4397 
Q 3378 4044 3378 3438 
Q 3378 2753 2422 1800 
Q 2347 1728 2309 1691 
L 1131 513 
L 3078 513 
L 3078 1088 
L 3444 1088 
L 3444 0 
L 434 0 
L 434 341 
L 1850 1753 
Q 2319 2222 2519 2614 
Q 2719 3006 2719 3438 
Q 2719 3909 2473 4175 
Q 2228 4441 1797 4441 
Q 1350 4441 1106 4219 
Q 863 3997 819 3553 
z
" transform="scale(0.015625)"/>
       </defs>
       <use xlink:href="#DejaVuSerif-32" transform="translate(0 0.78125)"/>
       <use xlink:href="#DejaVuSerif-30" transform="translate(63.623047 0.78125)"/>
      </g>
     </g>
    </g>
    <g id="text_5">
     <!-- $n_H \sqrt{N}$ -->
     <g transform="translate(208.449541 278.883854) scale(0.12 -0.12)">
      <defs>
       <path id="DejaVuSerif-Italic-6e" d="M 450 0 
L 1031 2988 
L 481 2988 
L 544 3322 
L 1669 3322 
L 1556 2731 
Q 1781 3069 2068 3241 
Q 2356 3413 2694 3413 
Q 3244 3413 3444 3097 
Q 3563 2906 3563 2588 
Q 3563 2378 3509 2113 
L 3163 331 
L 3675 331 
L 3613 0 
L 2522 0 
L 2897 1931 
Q 2959 2253 2959 2469 
Q 2959 2659 2909 2769 
Q 2803 2994 2425 2994 
Q 2025 2994 1759 2701 
Q 1494 2409 1384 1850 
L 1025 0 
L 450 0 
z
" transform="scale(0.015625)"/>
       <path id="DejaVuSerif-Italic-48" d="M -97 0 
L -34 331 
L 559 331 
L 1338 4331 
L 744 4331 
L 809 4666 
L 2631 4666 
L 2566 4331 
L 1972 4331 
L 1659 2719 
L 4078 2719 
L 4391 4331 
L 3797 4331 
L 3863 4666 
L 5684 4666 
L 5619 4331 
L 5025 4331 
L 4247 331 
L 4841 331 
L 4778 0 
L 2956 0 
L 3019 331 
L 3616 331 
L 4003 2338 
L 1584 2338 
L 1194 331 
L 1788 331 
L 1725 0 
L -97 0 
z
" transform="scale(0.015625)"/>
       <path id="STIXSizeOneSym-Regular-221a" d="M 6970 9933 
L 3373 -1888 
L 3104 -1888 
L 1626 2918 
Q 1555 3149 1465 3251 
Q 1376 3354 1229 3354 
Q 1011 3354 794 3181 
L 717 3309 
L 1766 4115 
L 1926 4115 
L 3379 -602 
L 3405 -602 
L 6605 9933 
L 6970 9933 
z
" transform="scale(0.015625)"/>
       <path id="DejaVuSerif-Italic-4e" d="M -128 0 
L -66 331 
L 563 331 
L 1341 4331 
L 713 4331 
L 778 4666 
L 1975 4666 
L 4056 984 
L 4706 4331 
L 4081 4331 
L 4147 4666 
L 5784 4666 
L 5719 4331 
L 5091 4331 
L 4231 -91 
L 3853 -91 
L 1631 3841 
L 947 331 
L 1575 331 
L 1513 0 
L -128 0 
z
" transform="scale(0.015625)"/>
      </defs>
      <use xlink:href="#DejaVuSerif-Italic-6e" transform="translate(0 0.140625)"/>
      <use xlink:href="#DejaVuSerif-Italic-48" transform="translate(64.404297 -15.43125) scale(0.7)"/>
      <use xlink:href="#STIXSizeOneSym-Regular-221a" transform="translate(128.044531 15.53125) scale(0.57161)"/>
      <use xlink:href="#DejaVuSerif-Italic-4e" transform="translate(200.92565 -0.15625)"/>
      <path d="M 188.42565 97.5 
L 188.42565 103.75 
L 300.92565 103.75 
L 300.92565 97.5 
L 188.42565 97.5 
z
"/>
     </g>
    </g>
   </g>
   <g id="matplotlib.axis_2">
    <g id="ytick_1">
     <g id="line2d_10">
      <defs>
       <path id="m3f90ac1743" d="M 0 0 
L 2.5 0 
" style="stroke: #000000; stroke-width: 0.5"/>
      </defs>
      <g>
       <use xlink:href="#m3f90ac1743" x="30.5867" y="224.910338" style="stroke: #000000; stroke-width: 0.5"/>
      </g>
     </g>
     <g id="line2d_11">
      <defs>
       <path id="m9ad222b738" d="M 0 0 
L -2.5 0 
" style="stroke: #000000; stroke-width: 0.5"/>
      </defs>
      <g>
       <use xlink:href="#m9ad222b738" x="422.432383" y="224.910338" style="stroke: #000000; stroke-width: 0.5"/>
      </g>
     </g>
     <g id="text_6">
      <!-- $10^{-4}$ -->
      <g transform="translate(3.6867 228.709557) scale(0.1 -0.1)">
       <defs>
        <path id="DejaVuSerif-2212" d="M 678 2259 
L 4684 2259 
L 4684 1753 
L 678 1753 
L 678 2259 
z
" transform="scale(0.015625)"/>
        <path id="DejaVuSerif-34" d="M 2234 1581 
L 2234 4063 
L 641 1581 
L 2234 1581 
z
M 3609 0 
L 1484 0 
L 1484 331 
L 2234 331 
L 2234 1247 
L 197 1247 
L 197 1588 
L 2241 4750 
L 2859 4750 
L 2859 1581 
L 3750 1581 
L 3750 1247 
L 2859 1247 
L 2859 331 
L 3609 331 
L 3609 0 
z
" transform="scale(0.015625)"/>
       </defs>
       <use xlink:href="#DejaVuSerif-31" transform="translate(0 0.7125)"/>
       <use xlink:href="#DejaVuSerif-30" transform="translate(63.623047 0.7125)"/>
       <use xlink:href="#DejaVuSerif-2212" transform="translate(128.154453 37.046875) scale(0.7)"/>
       <use xlink:href="#DejaVuSerif-34" transform="translate(186.806797 37.046875) scale(0.7)"/>
      </g>
     </g>
    </g>
    <g id="ytick_2">
     <g id="line2d_12">
      <g>
       <use xlink:href="#m3f90ac1743" x="30.5867" y="172.775464" style="stroke: #000000; stroke-width: 0.5"/>
      </g>
     </g>
     <g id="line2d_13">
      <g>
       <use xlink:href="#m9ad222b738" x="422.432383" y="172.775464" style="stroke: #000000; stroke-width: 0.5"/>
      </g>
     </g>
     <g id="text_7">
      <!-- $10^{-3}$ -->
      <g transform="translate(3.6867 176.574682) scale(0.1 -0.1)">
       <defs>
        <path id="DejaVuSerif-33" d="M 622 4469 
Q 988 4606 1323 4678 
Q 1659 4750 1953 4750 
Q 2638 4750 3022 4454 
Q 3406 4159 3406 3634 
Q 3406 3213 3140 2930 
Q 2875 2647 2388 2547 
Q 2963 2466 3280 2130 
Q 3597 1794 3597 1259 
Q 3597 606 3158 257 
Q 2719 -91 1894 -91 
Q 1528 -91 1179 -12 
Q 831 66 488 225 
L 488 1131 
L 838 1131 
Q 869 681 1141 450 
Q 1413 219 1906 219 
Q 2384 219 2661 495 
Q 2938 772 2938 1253 
Q 2938 1803 2653 2086 
Q 2369 2369 1819 2369 
L 1522 2369 
L 1522 2688 
L 1678 2688 
Q 2225 2688 2498 2914 
Q 2772 3141 2772 3597 
Q 2772 4006 2547 4223 
Q 2322 4441 1900 4441 
Q 1478 4441 1245 4241 
Q 1013 4041 972 3647 
L 622 3647 
L 622 4469 
z
" transform="scale(0.015625)"/>
       </defs>
       <use xlink:href="#DejaVuSerif-31" transform="translate(0 0.7125)"/>
       <use xlink:href="#DejaVuSerif-30" transform="translate(63.623047 0.7125)"/>
       <use xlink:href="#DejaVuSerif-2212" transform="translate(128.154453 37.046875) scale(0.7)"/>
       <use xlink:href="#DejaVuSerif-33" transform="translate(186.806797 37.046875) scale(0.7)"/>
      </g>
     </g>
    </g>
    <g id="ytick_3">
     <g id="line2d_14">
      <g>
       <use xlink:href="#m3f90ac1743" x="30.5867" y="120.640589" style="stroke: #000000; stroke-width: 0.5"/>
      </g>
     </g>
     <g id="line2d_15">
      <g>
       <use xlink:href="#m9ad222b738" x="422.432383" y="120.640589" style="stroke: #000000; stroke-width: 0.5"/>
      </g>
     </g>
     <g id="text_8">
      <!-- $10^{-2}$ -->
      <g transform="translate(3.6867 124.439808) scale(0.1 -0.1)">
       <use xlink:href="#DejaVuSerif-31" transform="translate(0 0.7125)"/>
       <use xlink:href="#DejaVuSerif-30" transform="translate(63.623047 0.7125)"/>
       <use xlink:href="#DejaVuSerif-2212" transform="translate(128.154453 37.046875) scale(0.7)"/>
       <use xlink:href="#DejaVuSerif-32" transform="translate(186.806797 37.046875) scale(0.7)"/>
      </g>
     </g>
    </g>
    <g id="ytick_4">
     <g id="line2d_16">
      <g>
       <use xlink:href="#m3f90ac1743" x="30.5867" y="68.505715" style="stroke: #000000; stroke-width: 0.5"/>
      </g>
     </g>
     <g id="line2d_17">
      <g>
       <use xlink:href="#m9ad222b738" x="422.432383" y="68.505715" style="stroke: #000000; stroke-width: 0.5"/>
      </g>
     </g>
     <g id="text_9">
      <!-- $10^{-1}$ -->
      <g transform="translate(3.6867 72.304933) scale(0.1 -0.1)">
       <use xlink:href="#DejaVuSerif-31" transform="translate(0 0.7125)"/>
       <use xlink:href="#DejaVuSerif-30" transform="translate(63.623047 0.7125)"/>
       <use xlink:href="#DejaVuSerif-2212" transform="translate(128.154453 37.046875) scale(0.7)"/>
       <use xlink:href="#DejaVuSerif-31" transform="translate(186.806797 37.046875) scale(0.7)"/>
      </g>
     </g>
    </g>
    <g id="ytick_5">
     <g id="line2d_18">
      <g>
       <use xlink:href="#m3f90ac1743" x="30.5867" y="16.37084" style="stroke: #000000; stroke-width: 0.5"/>
      </g>
     </g>
     <g id="line2d_19">
      <g>
       <use xlink:href="#m9ad222b738" x="422.432383" y="16.37084" style="stroke: #000000; stroke-width: 0.5"/>
      </g>
     </g>
     <g id="text_10">
      <!-- $10^{0}$ -->
      <g transform="translate(9.4867 20.170059) scale(0.1 -0.1)">
       <use xlink:href="#DejaVuSerif-31" transform="translate(0 0.7125)"/>
       <use xlink:href="#DejaVuSerif-30" transform="translate(63.623047 0.7125)"/>
       <use xlink:href="#DejaVuSerif-30" transform="translate(128.154453 37.046875) scale(0.7)"/>
      </g>
     </g>
    </g>
   </g>
   <g id="line2d_20">
    <path d="M 40.371734 9.831041 
L 40.371734 9.803892 
" clip-path="url(#pb87a43a657)" style="fill: none; stroke: #000000"/>
   </g>
   <g id="line2d_21">
    <path d="M 93.695177 47.318071 
L 93.695177 47.238462 
" clip-path="url(#pb87a43a657)" style="fill: none; stroke: #000000"/>
   </g>
   <g id="line2d_22">
    <path d="M 147.018621 122.61891 
L 147.018621 122.113931 
" clip-path="url(#pb87a43a657)" style="fill: none; stroke: #000000"/>
   </g>
   <g id="line2d_23">
    <path d="M 200.342064 193.53127 
L 200.342064 184.414452 
" clip-path="url(#pb87a43a657)" style="fill: none; stroke: #000000"/>
   </g>
   <g id="line2d_24">
    <path d="M 253.665508 204.982258 
L 253.665508 191.172931 
" clip-path="url(#pb87a43a657)" style="fill: none; stroke: #000000"/>
   </g>
   <g id="line2d_25">
    <path d="M 306.988951 207.46088 
L 306.988951 192.561866 
" clip-path="url(#pb87a43a657)" style="fill: none; stroke: #000000"/>
   </g>
   <g id="PathCollection_1">
    <defs>
     <path id="m58cd1c71c2" d="M 3.5 0 
L -3.5 -0 
" style="stroke: #000000"/>
    </defs>
    <g clip-path="url(#pb87a43a657)">
     <use xlink:href="#m58cd1c71c2" x="40.371734" y="9.831041" style="stroke: #000000"/>
     <use xlink:href="#m58cd1c71c2" x="40.371734" y="9.803892" style="stroke: #000000"/>
    </g>
   </g>
   <g id="PathCollection_2">
    <g clip-path="url(#pb87a43a657)">
     <use xlink:href="#m58cd1c71c2" x="93.695177" y="47.318071" style="stroke: #000000"/>
     <use xlink:href="#m58cd1c71c2" x="93.695177" y="47.238462" style="stroke: #000000"/>
    </g>
   </g>
   <g id="PathCollection_3">
    <g clip-path="url(#pb87a43a657)">
     <use xlink:href="#m58cd1c71c2" x="147.018621" y="122.61891" style="stroke: #000000"/>
     <use xlink:href="#m58cd1c71c2" x="147.018621" y="122.113931" style="stroke: #000000"/>
    </g>
   </g>
   <g id="PathCollection_4">
    <g clip-path="url(#pb87a43a657)">
     <use xlink:href="#m58cd1c71c2" x="200.342064" y="193.53127" style="stroke: #000000"/>
     <use xlink:href="#m58cd1c71c2" x="200.342064" y="184.414452" style="stroke: #000000"/>
    </g>
   </g>
   <g id="PathCollection_5">
    <g clip-path="url(#pb87a43a657)">
     <use xlink:href="#m58cd1c71c2" x="253.665508" y="204.982258" style="stroke: #000000"/>
     <use xlink:href="#m58cd1c71c2" x="253.665508" y="191.172931" style="stroke: #000000"/>
    </g>
   </g>
   <g id="PathCollection_6">
    <g clip-path="url(#pb87a43a657)">
     <use xlink:href="#m58cd1c71c2" x="306.988951" y="207.46088" style="stroke: #000000"/>
     <use xlink:href="#m58cd1c71c2" x="306.988951" y="192.561866" style="stroke: #000000"/>
    </g>
   </g>
   <g id="PathCollection_7">
    <defs>
     <path id="mc1984fe777" d="M -1.339392 -3.233578 
L -3.233578 -1.339392 
L -3.233578 1.339392 
L -1.339392 3.233578 
L 1.339392 3.233578 
L 3.233578 1.339392 
L 3.233578 -1.339392 
L 1.339392 -3.233578 
z
" style="stroke: #000000"/>
    </defs>
    <g clip-path="url(#pb87a43a657)">
     <use xlink:href="#mc1984fe777" x="40.371734" y="9.817463" style="fill: #dd8452; stroke: #000000"/>
     <use xlink:href="#mc1984fe777" x="93.695177" y="47.278231" style="fill: #dd8452; stroke: #000000"/>
     <use xlink:href="#mc1984fe777" x="147.018621" y="122.365013" style="fill: #dd8452; stroke: #000000"/>
     <use xlink:href="#mc1984fe777" x="200.342064" y="188.517064" style="fill: #dd8452; stroke: #000000"/>
     <use xlink:href="#mc1984fe777" x="253.665508" y="197.040727" style="fill: #dd8452; stroke: #000000"/>
     <use xlink:href="#mc1984fe777" x="306.988951" y="198.807367" style="fill: #dd8452; stroke: #000000"/>
    </g>
   </g>
   <g id="patch_3">
    <path d="M 30.5867 249.081354 
L 30.5867 2.834646 
" style="fill: none; stroke: #000000; stroke-linejoin: miter; stroke-linecap: square"/>
   </g>
   <g id="patch_4">
    <path d="M 422.432383 249.081354 
L 422.432383 2.834646 
" style="fill: none; stroke: #000000; stroke-linejoin: miter; stroke-linecap: square"/>
   </g>
   <g id="patch_5">
    <path d="M 30.5867 249.081354 
L 422.432383 249.081354 
" style="fill: none; stroke: #000000; stroke-linejoin: miter; stroke-linecap: square"/>
   </g>
   <g id="patch_6">
    <path d="M 30.5867 2.834646 
L 422.432383 2.834646 
" style="fill: none; stroke: #000000; stroke-linejoin: miter; stroke-linecap: square"/>
   </g>
   <g id="line2d_26">
    <path d="M 48.620899 13.316511 
L 110.193508 65.769573 
L 171.766117 146.639349 
L 233.338726 210.747616 
L 294.911335 217.001157 
L 356.483944 215.641596 
L 418.056553 220.522045 
L 433 220.392727 
" clip-path="url(#pb87a43a657)" style="fill: none; stroke-dasharray: 3.7,1.6; stroke-dashoffset: 0; stroke: #55a868"/>
   </g>
   <g id="line2d_27">
    <path d="M 48.620899 13.33272 
L 48.620899 13.300313 
" clip-path="url(#pb87a43a657)" style="fill: none; stroke: #000000"/>
   </g>
   <g id="line2d_28">
    <path d="M 110.193508 65.848813 
L 110.193508 65.690609 
" clip-path="url(#pb87a43a657)" style="fill: none; stroke: #000000"/>
   </g>
   <g id="line2d_29">
    <path d="M 171.766117 147.165668 
L 171.766117 146.124987 
" clip-path="url(#pb87a43a657)" style="fill: none; stroke: #000000"/>
   </g>
   <g id="line2d_30">
    <path d="M 233.338726 219.360958 
L 233.338726 204.522946 
" clip-path="url(#pb87a43a657)" style="fill: none; stroke: #000000"/>
   </g>
   <g id="line2d_31">
    <path d="M 294.911335 230.556336 
L 294.911335 208.581046 
" clip-path="url(#pb87a43a657)" style="fill: none; stroke: #000000"/>
   </g>
   <g id="line2d_32">
    <path d="M 356.483944 228.355421 
L 356.483944 207.548598 
" clip-path="url(#pb87a43a657)" style="fill: none; stroke: #000000"/>
   </g>
   <g id="line2d_33">
    <path d="M 418.056553 238.306798 
L 418.056553 210.685487 
" clip-path="url(#pb87a43a657)" style="fill: none; stroke: #000000"/>
   </g>
   <g id="line2d_34">
    <path clip-path="url(#pb87a43a657)" style="fill: none; stroke: #000000"/>
   </g>
   <g id="PathCollection_8">
    <g clip-path="url(#pb87a43a657)">
     <use xlink:href="#m58cd1c71c2" x="48.620899" y="13.33272" style="stroke: #000000"/>
     <use xlink:href="#m58cd1c71c2" x="48.620899" y="13.300313" style="stroke: #000000"/>
    </g>
   </g>
   <g id="PathCollection_9">
    <g clip-path="url(#pb87a43a657)">
     <use xlink:href="#m58cd1c71c2" x="110.193508" y="65.848813" style="stroke: #000000"/>
     <use xlink:href="#m58cd1c71c2" x="110.193508" y="65.690609" style="stroke: #000000"/>
    </g>
   </g>
   <g id="PathCollection_10">
    <g clip-path="url(#pb87a43a657)">
     <use xlink:href="#m58cd1c71c2" x="171.766117" y="147.165668" style="stroke: #000000"/>
     <use xlink:href="#m58cd1c71c2" x="171.766117" y="146.124987" style="stroke: #000000"/>
    </g>
   </g>
   <g id="PathCollection_11">
    <g clip-path="url(#pb87a43a657)">
     <use xlink:href="#m58cd1c71c2" x="233.338726" y="219.360958" style="stroke: #000000"/>
     <use xlink:href="#m58cd1c71c2" x="233.338726" y="204.522946" style="stroke: #000000"/>
    </g>
   </g>
   <g id="PathCollection_12">
    <g clip-path="url(#pb87a43a657)">
     <use xlink:href="#m58cd1c71c2" x="294.911335" y="230.556336" style="stroke: #000000"/>
     <use xlink:href="#m58cd1c71c2" x="294.911335" y="208.581046" style="stroke: #000000"/>
    </g>
   </g>
   <g id="PathCollection_13">
    <g clip-path="url(#pb87a43a657)">
     <use xlink:href="#m58cd1c71c2" x="356.483944" y="228.355421" style="stroke: #000000"/>
     <use xlink:href="#m58cd1c71c2" x="356.483944" y="207.548598" style="stroke: #000000"/>
    </g>
   </g>
   <g id="PathCollection_14">
    <g clip-path="url(#pb87a43a657)">
     <use xlink:href="#m58cd1c71c2" x="418.056553" y="238.306798" style="stroke: #000000"/>
     <use xlink:href="#m58cd1c71c2" x="418.056553" y="210.685487" style="stroke: #000000"/>
    </g>
   </g>
   <g id="PathCollection_15">
    <g clip-path="url(#pb87a43a657)">
     <use xlink:href="#m58cd1c71c2" x="479.629161" y="235.417825" style="stroke: #000000"/>
     <use xlink:href="#m58cd1c71c2" x="479.629161" y="210.897924" style="stroke: #000000"/>
    </g>
   </g>
   <g id="PathCollection_16">
    <defs>
     <path id="m68d5efc644" d="M -1.339392 -3.233578 
L -3.233578 -1.339392 
L -3.233578 1.339392 
L -1.339392 3.233578 
L 1.339392 3.233578 
L 3.233578 1.339392 
L 3.233578 -1.339392 
L 1.339392 -3.233578 
z
" style="stroke: #000000"/>
    </defs>
    <g clip-path="url(#pb87a43a657)">
     <use xlink:href="#m68d5efc644" x="48.620899" y="13.316511" style="fill: #55a868; stroke: #000000"/>
     <use xlink:href="#m68d5efc644" x="110.193508" y="65.769573" style="fill: #55a868; stroke: #000000"/>
     <use xlink:href="#m68d5efc644" x="171.766117" y="146.639349" style="fill: #55a868; stroke: #000000"/>
     <use xlink:href="#m68d5efc644" x="233.338726" y="210.747616" style="fill: #55a868; stroke: #000000"/>
     <use xlink:href="#m68d5efc644" x="294.911335" y="217.001157" style="fill: #55a868; stroke: #000000"/>
     <use xlink:href="#m68d5efc644" x="356.483944" y="215.641596" style="fill: #55a868; stroke: #000000"/>
     <use xlink:href="#m68d5efc644" x="418.056553" y="220.522045" style="fill: #55a868; stroke: #000000"/>
     <use xlink:href="#m68d5efc644" x="479.629161" y="219.989208" style="fill: #55a868; stroke: #000000"/>
    </g>
   </g>
   <g id="line2d_35">
    <path d="M 55.88856 14.367458 
L 124.728829 84.214256 
L 193.569099 185.806727 
L 262.409368 221.039442 
L 331.249638 226.017443 
L 400.089907 223.284308 
L 433 225.006175 
" clip-path="url(#pb87a43a657)" style="fill: none; stroke-dasharray: 3.7,1.6; stroke-dashoffset: 0; stroke: #c44e52"/>
   </g>
   <g id="line2d_36">
    <path d="M 55.88856 14.387935 
L 55.88856 14.346999 
" clip-path="url(#pb87a43a657)" style="fill: none; stroke: #000000"/>
   </g>
   <g id="line2d_37">
    <path d="M 124.728829 84.401437 
L 124.728829 84.028611 
" clip-path="url(#pb87a43a657)" style="fill: none; stroke: #000000"/>
   </g>
   <g id="line2d_38">
    <path d="M 193.569099 187.390758 
L 193.569099 184.326307 
" clip-path="url(#pb87a43a657)" style="fill: none; stroke: #000000"/>
   </g>
   <g id="line2d_39">
    <path d="M 262.409368 230.77563 
L 262.409368 214.252963 
" clip-path="url(#pb87a43a657)" style="fill: none; stroke: #000000"/>
   </g>
   <g id="line2d_40">
    <path d="M 331.249638 239.199049 
L 331.249638 217.740493 
" clip-path="url(#pb87a43a657)" style="fill: none; stroke: #000000"/>
   </g>
   <g id="line2d_41">
    <path d="M 400.089907 231.68317 
L 400.089907 217.171817 
" clip-path="url(#pb87a43a657)" style="fill: none; stroke: #000000"/>
   </g>
   <g id="line2d_42">
    <path clip-path="url(#pb87a43a657)" style="fill: none; stroke: #000000"/>
   </g>
   <g id="line2d_43">
    <path clip-path="url(#pb87a43a657)" style="fill: none; stroke: #000000"/>
   </g>
   <g id="line2d_44">
    <path clip-path="url(#pb87a43a657)" style="fill: none; stroke: #000000"/>
   </g>
   <g id="line2d_45">
    <path clip-path="url(#pb87a43a657)" style="fill: none; stroke: #000000"/>
   </g>
   <g id="PathCollection_17">
    <g clip-path="url(#pb87a43a657)">
     <use xlink:href="#m58cd1c71c2" x="55.88856" y="14.387935" style="stroke: #000000"/>
     <use xlink:href="#m58cd1c71c2" x="55.88856" y="14.346999" style="stroke: #000000"/>
    </g>
   </g>
   <g id="PathCollection_18">
    <g clip-path="url(#pb87a43a657)">
     <use xlink:href="#m58cd1c71c2" x="124.728829" y="84.401437" style="stroke: #000000"/>
     <use xlink:href="#m58cd1c71c2" x="124.728829" y="84.028611" style="stroke: #000000"/>
    </g>
   </g>
   <g id="PathCollection_19">
    <g clip-path="url(#pb87a43a657)">
     <use xlink:href="#m58cd1c71c2" x="193.569099" y="187.390758" style="stroke: #000000"/>
     <use xlink:href="#m58cd1c71c2" x="193.569099" y="184.326307" style="stroke: #000000"/>
    </g>
   </g>
   <g id="PathCollection_20">
    <g clip-path="url(#pb87a43a657)">
     <use xlink:href="#m58cd1c71c2" x="262.409368" y="230.77563" style="stroke: #000000"/>
     <use xlink:href="#m58cd1c71c2" x="262.409368" y="214.252963" style="stroke: #000000"/>
    </g>
   </g>
   <g id="PathCollection_21">
    <g clip-path="url(#pb87a43a657)">
     <use xlink:href="#m58cd1c71c2" x="331.249638" y="239.199049" style="stroke: #000000"/>
     <use xlink:href="#m58cd1c71c2" x="331.249638" y="217.740493" style="stroke: #000000"/>
    </g>
   </g>
   <g id="PathCollection_22">
    <g clip-path="url(#pb87a43a657)">
     <use xlink:href="#m58cd1c71c2" x="400.089907" y="231.68317" style="stroke: #000000"/>
     <use xlink:href="#m58cd1c71c2" x="400.089907" y="217.171817" style="stroke: #000000"/>
    </g>
   </g>
   <g id="PathCollection_23">
    <g clip-path="url(#pb87a43a657)">
     <use xlink:href="#m58cd1c71c2" x="468.930177" y="238.856528" style="stroke: #000000"/>
     <use xlink:href="#m58cd1c71c2" x="468.930177" y="219.096553" style="stroke: #000000"/>
    </g>
   </g>
   <g id="PathCollection_24">
    <g clip-path="url(#pb87a43a657)">
     <use xlink:href="#m58cd1c71c2" x="537.770446" y="232.001114" style="stroke: #000000"/>
     <use xlink:href="#m58cd1c71c2" x="537.770446" y="214.588694" style="stroke: #000000"/>
    </g>
   </g>
   <g id="PathCollection_25">
    <g clip-path="url(#pb87a43a657)">
     <use xlink:href="#m58cd1c71c2" x="606.610716" y="242.112108" style="stroke: #000000"/>
     <use xlink:href="#m58cd1c71c2" x="606.610716" y="219.751776" style="stroke: #000000"/>
    </g>
   </g>
   <g id="PathCollection_26">
    <g clip-path="url(#pb87a43a657)">
     <use xlink:href="#m58cd1c71c2" x="675.450985" y="231.35512" style="stroke: #000000"/>
     <use xlink:href="#m58cd1c71c2" x="675.450985" y="216.544538" style="stroke: #000000"/>
    </g>
   </g>
   <g id="PathCollection_27">
    <defs>
     <path id="mf4b81ccc07" d="M -1.339392 -3.233578 
L -3.233578 -1.339392 
L -3.233578 1.339392 
L -1.339392 3.233578 
L 1.339392 3.233578 
L 3.233578 1.339392 
L 3.233578 -1.339392 
L 1.339392 -3.233578 
z
" style="stroke: #000000"/>
    </defs>
    <g clip-path="url(#pb87a43a657)">
     <use xlink:href="#mf4b81ccc07" x="55.88856" y="14.367458" style="fill: #c44e52; stroke: #000000"/>
     <use xlink:href="#mf4b81ccc07" x="124.728829" y="84.214256" style="fill: #c44e52; stroke: #000000"/>
     <use xlink:href="#mf4b81ccc07" x="193.569099" y="185.806727" style="fill: #c44e52; stroke: #000000"/>
     <use xlink:href="#mf4b81ccc07" x="262.409368" y="221.039442" style="fill: #c44e52; stroke: #000000"/>
     <use xlink:href="#mf4b81ccc07" x="331.249638" y="226.017443" style="fill: #c44e52; stroke: #000000"/>
     <use xlink:href="#mf4b81ccc07" x="400.089907" y="223.284308" style="fill: #c44e52; stroke: #000000"/>
     <use xlink:href="#mf4b81ccc07" x="468.930177" y="226.886054" style="fill: #c44e52; stroke: #000000"/>
     <use xlink:href="#mf4b81ccc07" x="537.770446" y="221.660748" style="fill: #c44e52; stroke: #000000"/>
     <use xlink:href="#mf4b81ccc07" x="606.610716" y="228.277034" style="fill: #c44e52; stroke: #000000"/>
     <use xlink:href="#mf4b81ccc07" x="675.450985" y="222.759829" style="fill: #c44e52; stroke: #000000"/>
    </g>
   </g>
   <g id="line2d_46">
    <path d="M 62.459027 12.846696 
L 137.869764 101.970885 
L 213.280501 213.075699 
L 288.691238 224.28414 
L 364.101975 226.590452 
L 433 228.834874 
" clip-path="url(#pb87a43a657)" style="fill: none; stroke-dasharray: 3.7,1.6; stroke-dashoffset: 0; stroke: #8172b3"/>
   </g>
   <g id="line2d_47">
    <path d="M 62.459027 12.857903 
L 62.459027 12.835494 
" clip-path="url(#pb87a43a657)" style="fill: none; stroke: #000000"/>
   </g>
   <g id="line2d_48">
    <path d="M 137.869764 102.293117 
L 137.869764 101.653175 
" clip-path="url(#pb87a43a657)" style="fill: none; stroke: #000000"/>
   </g>
   <g id="line2d_49">
    <path d="M 213.280501 217.546226 
L 213.280501 209.34398 
" clip-path="url(#pb87a43a657)" style="fill: none; stroke: #000000"/>
   </g>
   <g id="line2d_50">
    <path d="M 288.691238 231.37246 
L 288.691238 218.89383 
" clip-path="url(#pb87a43a657)" style="fill: none; stroke: #000000"/>
   </g>
   <g id="line2d_51">
    <path d="M 364.101975 232.440406 
L 364.101975 221.945832 
" clip-path="url(#pb87a43a657)" style="fill: none; stroke: #000000"/>
   </g>
   <g id="line2d_52">
    <path clip-path="url(#pb87a43a657)" style="fill: none; stroke: #000000"/>
   </g>
   <g id="line2d_53">
    <path clip-path="url(#pb87a43a657)" style="fill: none; stroke: #000000"/>
   </g>
   <g id="line2d_54">
    <path clip-path="url(#pb87a43a657)" style="fill: none; stroke: #000000"/>
   </g>
   <g id="line2d_55">
    <path clip-path="url(#pb87a43a657)" style="fill: none; stroke: #000000"/>
   </g>
   <g id="line2d_56">
    <path clip-path="url(#pb87a43a657)" style="fill: none; stroke: #000000"/>
   </g>
   <g id="line2d_57">
    <path clip-path="url(#pb87a43a657)" style="fill: none; stroke: #000000"/>
   </g>
   <g id="line2d_58">
    <path clip-path="url(#pb87a43a657)" style="fill: none; stroke: #000000"/>
   </g>
   <g id="PathCollection_28">
    <g clip-path="url(#pb87a43a657)">
     <use xlink:href="#m58cd1c71c2" x="62.459027" y="12.857903" style="stroke: #000000"/>
     <use xlink:href="#m58cd1c71c2" x="62.459027" y="12.835494" style="stroke: #000000"/>
    </g>
   </g>
   <g id="PathCollection_29">
    <g clip-path="url(#pb87a43a657)">
     <use xlink:href="#m58cd1c71c2" x="137.869764" y="102.293117" style="stroke: #000000"/>
     <use xlink:href="#m58cd1c71c2" x="137.869764" y="101.653175" style="stroke: #000000"/>
    </g>
   </g>
   <g id="PathCollection_30">
    <g clip-path="url(#pb87a43a657)">
     <use xlink:href="#m58cd1c71c2" x="213.280501" y="217.546226" style="stroke: #000000"/>
     <use xlink:href="#m58cd1c71c2" x="213.280501" y="209.34398" style="stroke: #000000"/>
    </g>
   </g>
   <g id="PathCollection_31">
    <g clip-path="url(#pb87a43a657)">
     <use xlink:href="#m58cd1c71c2" x="288.691238" y="231.37246" style="stroke: #000000"/>
     <use xlink:href="#m58cd1c71c2" x="288.691238" y="218.89383" style="stroke: #000000"/>
    </g>
   </g>
   <g id="PathCollection_32">
    <g clip-path="url(#pb87a43a657)">
     <use xlink:href="#m58cd1c71c2" x="364.101975" y="232.440406" style="stroke: #000000"/>
     <use xlink:href="#m58cd1c71c2" x="364.101975" y="221.945832" style="stroke: #000000"/>
    </g>
   </g>
   <g id="PathCollection_33">
    <g clip-path="url(#pb87a43a657)">
     <use xlink:href="#m58cd1c71c2" x="439.512712" y="239.352304" style="stroke: #000000"/>
     <use xlink:href="#m58cd1c71c2" x="439.512712" y="221.991261" style="stroke: #000000"/>
    </g>
   </g>
   <g id="PathCollection_34">
    <g clip-path="url(#pb87a43a657)">
     <use xlink:href="#m58cd1c71c2" x="514.923449" y="226.550686" style="stroke: #000000"/>
     <use xlink:href="#m58cd1c71c2" x="514.923449" y="215.976846" style="stroke: #000000"/>
    </g>
   </g>
   <g id="PathCollection_35">
    <g clip-path="url(#pb87a43a657)">
     <use xlink:href="#m58cd1c71c2" x="590.334186" y="231.142959" style="stroke: #000000"/>
     <use xlink:href="#m58cd1c71c2" x="590.334186" y="220.502462" style="stroke: #000000"/>
    </g>
   </g>
   <g id="PathCollection_36">
    <g clip-path="url(#pb87a43a657)">
     <use xlink:href="#m58cd1c71c2" x="665.744923" y="230.67696" style="stroke: #000000"/>
     <use xlink:href="#m58cd1c71c2" x="665.744923" y="219.340301" style="stroke: #000000"/>
    </g>
   </g>
   <g id="PathCollection_37">
    <g clip-path="url(#pb87a43a657)">
     <use xlink:href="#m58cd1c71c2" x="741.15566" y="233.644554" style="stroke: #000000"/>
     <use xlink:href="#m58cd1c71c2" x="741.15566" y="220.893537" style="stroke: #000000"/>
    </g>
   </g>
   <g id="PathCollection_38">
    <g clip-path="url(#pb87a43a657)">
     <use xlink:href="#m58cd1c71c2" x="816.566397" y="236.222075" style="stroke: #000000"/>
     <use xlink:href="#m58cd1c71c2" x="816.566397" y="222.642187" style="stroke: #000000"/>
    </g>
   </g>
   <g id="PathCollection_39">
    <g clip-path="url(#pb87a43a657)">
     <use xlink:href="#m58cd1c71c2" x="891.977134" y="230.285127" style="stroke: #000000"/>
     <use xlink:href="#m58cd1c71c2" x="891.977134" y="218.060642" style="stroke: #000000"/>
    </g>
   </g>
   <g id="PathCollection_40">
    <defs>
     <path id="m94e92c9bb3" d="M -1.339392 -3.233578 
L -3.233578 -1.339392 
L -3.233578 1.339392 
L -1.339392 3.233578 
L 1.339392 3.233578 
L 3.233578 1.339392 
L 3.233578 -1.339392 
L 1.339392 -3.233578 
z
" style="stroke: #000000"/>
    </defs>
    <g clip-path="url(#pb87a43a657)">
     <use xlink:href="#m94e92c9bb3" x="62.459027" y="12.846696" style="fill: #8172b3; stroke: #000000"/>
     <use xlink:href="#m94e92c9bb3" x="137.869764" y="101.970885" style="fill: #8172b3; stroke: #000000"/>
     <use xlink:href="#m94e92c9bb3" x="213.280501" y="213.075699" style="fill: #8172b3; stroke: #000000"/>
     <use xlink:href="#m94e92c9bb3" x="288.691238" y="224.28414" style="fill: #8172b3; stroke: #000000"/>
     <use xlink:href="#m94e92c9bb3" x="364.101975" y="226.590452" style="fill: #8172b3; stroke: #000000"/>
     <use xlink:href="#m94e92c9bb3" x="439.512712" y="229.047033" style="fill: #8172b3; stroke: #000000"/>
     <use xlink:href="#m94e92c9bb3" x="514.923449" y="220.652043" style="fill: #8172b3; stroke: #000000"/>
     <use xlink:href="#m94e92c9bb3" x="590.334186" y="225.20332" style="fill: #8172b3; stroke: #000000"/>
     <use xlink:href="#m94e92c9bb3" x="665.744923" y="224.306395" style="fill: #8172b3; stroke: #000000"/>
     <use xlink:href="#m94e92c9bb3" x="741.15566" y="226.383054" style="fill: #8172b3; stroke: #000000"/>
     <use xlink:href="#m94e92c9bb3" x="816.566397" y="228.428936" style="fill: #8172b3; stroke: #000000"/>
     <use xlink:href="#m94e92c9bb3" x="891.977134" y="223.357706" style="fill: #8172b3; stroke: #000000"/>
    </g>
   </g>
   <g id="legend_1">
    <g id="patch_7">
     <path d="M 343.577696 77.547146 
L 417.432383 77.547146 
L 417.432383 7.834646 
L 343.577696 7.834646 
z
" style="fill: #ffffff; stroke: #000000; stroke-linejoin: miter"/>
    </g>
    <g id="line2d_59">
     <path d="M 351.577696 19.933083 
L 361.577696 19.933083 
L 371.577696 19.933083 
" style="fill: none"/>
     <defs>
      <path id="m56f1b52961" d="M -1.530734 -3.695518 
L -3.695518 -1.530734 
L -3.695518 1.530734 
L -1.530734 3.695518 
L 1.530734 3.695518 
L 3.695518 1.530734 
L 3.695518 -1.530734 
L 1.530734 -3.695518 
z
" style="stroke: #000000; stroke-width: 1.142857; stroke-linejoin: miter"/>
     </defs>
     <g>
      <use xlink:href="#m56f1b52961" x="361.577696" y="19.933083" style="fill: #dd8452; stroke: #000000; stroke-width: 1.142857; stroke-linejoin: miter"/>
     </g>
    </g>
    <g id="text_11">
     <!-- N=6 -->
     <g transform="translate(379.577696 23.433083) scale(0.1 -0.1)">
      <defs>
       <path id="DejaVuSerif-4e" d="M 313 0 
L 313 331 
L 941 331 
L 941 4331 
L 313 4331 
L 313 4666 
L 1509 4666 
L 4306 984 
L 4306 4331 
L 3681 4331 
L 3681 4666 
L 5319 4666 
L 5319 4331 
L 4691 4331 
L 4691 -91 
L 4313 -91 
L 1325 3841 
L 1325 331 
L 1953 331 
L 1953 0 
L 313 0 
z
" transform="scale(0.015625)"/>
       <path id="DejaVuSerif-3d" d="M 678 2894 
L 4684 2894 
L 4684 2394 
L 678 2394 
L 678 2894 
z
M 678 1619 
L 4684 1619 
L 4684 1119 
L 678 1119 
L 678 1619 
z
" transform="scale(0.015625)"/>
       <path id="DejaVuSerif-36" d="M 2094 219 
Q 2534 219 2771 542 
Q 3009 866 3009 1472 
Q 3009 2078 2771 2401 
Q 2534 2725 2094 2725 
Q 1647 2725 1412 2412 
Q 1178 2100 1178 1509 
Q 1178 888 1415 553 
Q 1653 219 2094 219 
z
M 1075 2569 
Q 1288 2803 1556 2918 
Q 1825 3034 2163 3034 
Q 2859 3034 3264 2615 
Q 3669 2197 3669 1472 
Q 3669 763 3233 336 
Q 2797 -91 2069 -91 
Q 1278 -91 853 498 
Q 428 1088 428 2181 
Q 428 3406 931 4078 
Q 1434 4750 2350 4750 
Q 2597 4750 2869 4703 
Q 3141 4656 3425 4563 
L 3425 3794 
L 3072 3794 
Q 3034 4109 2831 4275 
Q 2628 4441 2284 4441 
Q 1678 4441 1381 3981 
Q 1084 3522 1075 2569 
z
" transform="scale(0.015625)"/>
      </defs>
      <use xlink:href="#DejaVuSerif-4e"/>
      <use xlink:href="#DejaVuSerif-3d" x="87.5"/>
      <use xlink:href="#DejaVuSerif-36" x="171.289062"/>
     </g>
    </g>
    <g id="line2d_60">
     <path d="M 351.577696 34.611208 
L 361.577696 34.611208 
L 371.577696 34.611208 
" style="fill: none"/>
     <defs>
      <path id="m2d05568f24" d="M -1.530734 -3.695518 
L -3.695518 -1.530734 
L -3.695518 1.530734 
L -1.530734 3.695518 
L 1.530734 3.695518 
L 3.695518 1.530734 
L 3.695518 -1.530734 
L 1.530734 -3.695518 
z
" style="stroke: #000000; stroke-width: 1.142857; stroke-linejoin: miter"/>
     </defs>
     <g>
      <use xlink:href="#m2d05568f24" x="361.577696" y="34.611208" style="fill: #55a868; stroke: #000000; stroke-width: 1.142857; stroke-linejoin: miter"/>
     </g>
    </g>
    <g id="text_12">
     <!-- N=8 -->
     <g transform="translate(379.577696 38.111208) scale(0.1 -0.1)">
      <defs>
       <path id="DejaVuSerif-38" d="M 2981 1275 
Q 2981 1775 2732 2051 
Q 2484 2328 2034 2328 
Q 1584 2328 1336 2051 
Q 1088 1775 1088 1275 
Q 1088 772 1336 495 
Q 1584 219 2034 219 
Q 2484 219 2732 495 
Q 2981 772 2981 1275 
z
M 2853 3541 
Q 2853 3966 2637 4203 
Q 2422 4441 2034 4441 
Q 1650 4441 1433 4203 
Q 1216 3966 1216 3541 
Q 1216 3113 1433 2875 
Q 1650 2638 2034 2638 
Q 2422 2638 2637 2875 
Q 2853 3113 2853 3541 
z
M 2516 2484 
Q 3047 2413 3344 2092 
Q 3641 1772 3641 1275 
Q 3641 619 3225 264 
Q 2809 -91 2034 -91 
Q 1263 -91 845 264 
Q 428 619 428 1275 
Q 428 1772 725 2092 
Q 1022 2413 1556 2484 
Q 1084 2569 832 2842 
Q 581 3116 581 3541 
Q 581 4103 968 4426 
Q 1356 4750 2034 4750 
Q 2713 4750 3100 4426 
Q 3488 4103 3488 3541 
Q 3488 3116 3236 2842 
Q 2984 2569 2516 2484 
z
" transform="scale(0.015625)"/>
      </defs>
      <use xlink:href="#DejaVuSerif-4e"/>
      <use xlink:href="#DejaVuSerif-3d" x="87.5"/>
      <use xlink:href="#DejaVuSerif-38" x="171.289062"/>
     </g>
    </g>
    <g id="line2d_61">
     <path d="M 351.577696 49.289333 
L 361.577696 49.289333 
L 371.577696 49.289333 
" style="fill: none"/>
     <defs>
      <path id="medb7d6a9ea" d="M -1.530734 -3.695518 
L -3.695518 -1.530734 
L -3.695518 1.530734 
L -1.530734 3.695518 
L 1.530734 3.695518 
L 3.695518 1.530734 
L 3.695518 -1.530734 
L 1.530734 -3.695518 
z
" style="stroke: #000000; stroke-width: 1.142857; stroke-linejoin: miter"/>
     </defs>
     <g>
      <use xlink:href="#medb7d6a9ea" x="361.577696" y="49.289333" style="fill: #c44e52; stroke: #000000; stroke-width: 1.142857; stroke-linejoin: miter"/>
     </g>
    </g>
    <g id="text_13">
     <!-- N=10 -->
     <g transform="translate(379.577696 52.789333) scale(0.1 -0.1)">
      <use xlink:href="#DejaVuSerif-4e"/>
      <use xlink:href="#DejaVuSerif-3d" x="87.5"/>
      <use xlink:href="#DejaVuSerif-31" x="171.289062"/>
      <use xlink:href="#DejaVuSerif-30" x="234.912109"/>
     </g>
    </g>
    <g id="line2d_62">
     <path d="M 351.577696 63.967458 
L 361.577696 63.967458 
L 371.577696 63.967458 
" style="fill: none"/>
     <defs>
      <path id="m190e364c6e" d="M -1.530734 -3.695518 
L -3.695518 -1.530734 
L -3.695518 1.530734 
L -1.530734 3.695518 
L 1.530734 3.695518 
L 3.695518 1.530734 
L 3.695518 -1.530734 
L 1.530734 -3.695518 
z
" style="stroke: #000000; stroke-width: 1.142857; stroke-linejoin: miter"/>
     </defs>
     <g>
      <use xlink:href="#m190e364c6e" x="361.577696" y="63.967458" style="fill: #8172b3; stroke: #000000; stroke-width: 1.142857; stroke-linejoin: miter"/>
     </g>
    </g>
    <g id="text_14">
     <!-- N=12 -->
     <g transform="translate(379.577696 67.467458) scale(0.1 -0.1)">
      <use xlink:href="#DejaVuSerif-4e"/>
      <use xlink:href="#DejaVuSerif-3d" x="87.5"/>
      <use xlink:href="#DejaVuSerif-31" x="171.289062"/>
      <use xlink:href="#DejaVuSerif-32" x="234.912109"/>
     </g>
    </g>
   </g>
  </g>
 </g>
 <defs>
  <clipPath id="pb87a43a657">
   <rect x="30.5867" y="2.834646" width="391.845684" height="246.246709"/>
  </clipPath>
 </defs>
</svg>
