<?xml version="1.0" encoding="utf-8" standalone="no"?>
<!DOCTYPE svg PUBLIC "-//W3C//DTD SVG 1.1//EN"
  "http://www.w3.org/Graphics/SVG/1.1/DTD/svg11.dtd">
<svg xmlns:xlink="http://www.w3.org/1999/xlink" width="432pt" height="288pt" viewBox="0 0 432 288" xmlns="http://www.w3.org/2000/svg" version="1.1">
 <metadata>
  <rdf:RDF xmlns:dc="http://purl.org/dc/elements/1.1/" xmlns:cc="http://creativecommons.org/ns#" xmlns:rdf="http://www.w3.org/1999/02/22-rdf-syntax-ns#">
   <cc:Work>
    <dc:type rdf:resource="http://purl.org/dc/dcmitype/StillImage"/>
    <dc:date>2024-07-12T14:52:36.200465</dc:date>
    <dc:format>image/svg+xml</dc:format>
    <dc:creator>
     <cc:Agent>
      <dc:title>Matplotlib v3.9.1, https://matplotlib.org/</dc:title>
     </cc:Agent>
    </dc:creator>
   </cc:Work>
  </rdf:RDF>
 </metadata>
 <defs>
  <style type="text/css">*{stroke-linejoin: round; stroke-linecap: butt}</style>
 </defs>
 <g id="figure_1">
  <g id="patch_1">
   <path d="M 0 288 
L 432 288 
L 432 0 
L 0 0 
z
" style="fill: #ffffff"/>
  </g>
  <g id="axes_1">
   <g id="patch_2">
    <path d="M 48.2667 254.409354 
L 429.165354 254.409354 
L 429.165354 19.634646 
L 48.2667 19.634646 
z
" style="fill: #ffffff"/>
   </g>
   <g id="line2d_1">
    <path d="M 59.04685 26.279213 
L 115.886844 213.534483 
L 149.136109 196.433924 
L 172.726838 190.615927 
L 191.025229 180.283322 
L 205.976103 179.113058 
L 218.616886 180.767897 
L 229.566831 179.808343 
L 239.225368 177.997246 
L 247.865222 178.437362 
L 255.680922 182.023976 
L 262.816096 182.545424 
L 269.379821 181.513624 
L 275.45688 185.043295 
L 281.114487 185.043295 
L 286.406825 187.183561 
L 291.378213 186.865866 
L 296.065361 188.162703 
L 300.499024 185.937273 
L 304.705216 192.139337 
L 308.706145 192.139337 
L 312.520916 189.183523 
L 316.166084 191.749318 
L 319.65609 192.938932 
L 323.003607 189.889034 
L 326.219814 198.908864 
L 329.314626 196.908903 
L 332.296874 197.393478 
L 335.17446 194.622827 
L 337.954481 198.908864 
L 340.643338 202.868408 
L 343.246819 200.526487 
L 345.770181 198.393024 
L 348.218206 205.46398 
L 350.595265 204.788284 
L 352.905355 202.261144 
L 355.152147 205.46398 
L 357.339017 205.46398 
L 359.469079 208.374899 
L 361.54521 210.816222 
L 363.570073 205.46398 
L 365.546139 209.974534 
L 367.475705 212.593749 
L 369.360909 209.974534 
L 371.203746 204.788284 
L 373.006077 217.716462 
L 374.769646 212.593749 
L 376.496084 211.688523 
L 378.186923 210.816222 
L 379.843601 217.716462 
L 381.467471 206.159265 
L 383.059808 215.534445 
L 384.621813 209.161384 
L 386.15462 216.600649 
L 387.6593 214.513625 
L 389.136868 211.688523 
L 390.588282 213.534483 
L 392.014453 220.117028 
L 393.416244 215.534445 
L 394.794475 217.716462 
L 396.149924 224.238967 
L 397.483331 224.238967 
L 398.795404 215.534445 
L 400.086813 233.22623 
L 401.358199 216.600649 
L 402.610174 225.786965 
L 403.843322 227.441803 
L 405.0582 213.534483 
L 406.255342 233.22623 
L 407.435259 214.513625 
L 408.598438 238.039446 
L 409.745349 218.886725 
L 410.87644 233.22623 
L 411.992141 235.512306 
L 413.092866 227.441803 
L 414.179011 227.441803 
L 415.250958 233.22623 
L 416.309073 225.786965 
L 417.353709 225.786965 
L 418.385204 227.441803 
" clip-path="url(#p68488ec9d6)" style="fill: none; stroke: #937860"/>
   </g>
   <g id="matplotlib.axis_1">
    <g id="xtick_1">
     <g id="line2d_2">
      <defs>
       <path id="m5c4e83ed48" d="M 0 0 
L 0 -2.5 
" style="stroke: #000000; stroke-width: 0.5"/>
      </defs>
      <g>
       <use xlink:href="#m5c4e83ed48" x="59.04685" y="254.409354" style="stroke: #000000; stroke-width: 0.5"/>
      </g>
     </g>
     <g id="line2d_3">
      <defs>
       <path id="m73dcaa792f" d="M 0 0 
L 0 2.5 
" style="stroke: #000000; stroke-width: 0.5"/>
      </defs>
      <g>
       <use xlink:href="#m73dcaa792f" x="59.04685" y="19.634646" style="stroke: #000000; stroke-width: 0.5"/>
      </g>
     </g>
     <g id="text_1">
      <!-- $10^{0}$ -->
      <g transform="translate(50.24685 265.507792) scale(0.1 -0.1)">
       <defs>
        <path id="DejaVuSerif-31" d="M 909 0 
L 909 331 
L 1722 331 
L 1722 4213 
L 781 3603 
L 781 4013 
L 1919 4750 
L 2350 4750 
L 2350 331 
L 3163 331 
L 3163 0 
L 909 0 
z
" transform="scale(0.015625)"/>
        <path id="DejaVuSerif-30" d="M 2034 219 
Q 2513 219 2750 744 
Q 2988 1269 2988 2328 
Q 2988 3391 2750 3916 
Q 2513 4441 2034 4441 
Q 1556 4441 1318 3916 
Q 1081 3391 1081 2328 
Q 1081 1269 1318 744 
Q 1556 219 2034 219 
z
M 2034 -91 
Q 1275 -91 848 546 
Q 422 1184 422 2328 
Q 422 3475 848 4112 
Q 1275 4750 2034 4750 
Q 2797 4750 3222 4112 
Q 3647 3475 3647 2328 
Q 3647 1184 3222 546 
Q 2797 -91 2034 -91 
z
" transform="scale(0.015625)"/>
       </defs>
       <use xlink:href="#DejaVuSerif-31" transform="translate(0 0.7125)"/>
       <use xlink:href="#DejaVuSerif-30" transform="translate(63.623047 0.7125)"/>
       <use xlink:href="#DejaVuSerif-30" transform="translate(128.154453 37.046875) scale(0.7)"/>
      </g>
     </g>
    </g>
    <g id="xtick_2">
     <g id="line2d_4">
      <g>
       <use xlink:href="#m5c4e83ed48" x="247.865222" y="254.409354" style="stroke: #000000; stroke-width: 0.5"/>
      </g>
     </g>
     <g id="line2d_5">
      <g>
       <use xlink:href="#m73dcaa792f" x="247.865222" y="19.634646" style="stroke: #000000; stroke-width: 0.5"/>
      </g>
     </g>
     <g id="text_2">
      <!-- $10^{1}$ -->
      <g transform="translate(239.065222 265.507792) scale(0.1 -0.1)">
       <use xlink:href="#DejaVuSerif-31" transform="translate(0 0.7125)"/>
       <use xlink:href="#DejaVuSerif-30" transform="translate(63.623047 0.7125)"/>
       <use xlink:href="#DejaVuSerif-31" transform="translate(128.154453 37.046875) scale(0.7)"/>
      </g>
     </g>
    </g>
    <g id="text_3">
     <!-- $\lambda$ -->
     <g transform="translate(235.516027 279.185917) scale(0.1 -0.1)">
      <defs>
       <path id="DejaVuSerif-Italic-3bb" d="M 1984 4084 
Q 1925 4372 1834 4466 
Q 1744 4563 1578 4563 
Q 1391 4563 1288 4472 
Q 1178 4378 1119 4166 
L 825 4166 
L 947 4800 
Q 1113 4847 1272 4872 
Q 1431 4897 1578 4897 
Q 1925 4897 2088 4753 
Q 2253 4613 2334 4225 
L 3100 334 
L 3472 334 
L 3406 0 
L 2159 0 
L 2225 334 
L 2722 334 
L 2281 2628 
L 853 334 
L 1384 334 
L 1319 0 
L -209 0 
L -144 334 
L 234 334 
L 2116 3388 
L 1984 4084 
z
" transform="scale(0.015625)"/>
      </defs>
      <use xlink:href="#DejaVuSerif-Italic-3bb" transform="translate(0 0.484375)"/>
     </g>
    </g>
   </g>
   <g id="matplotlib.axis_2">
    <g id="ytick_1">
     <g id="line2d_6">
      <defs>
       <path id="m0806cbcf7b" d="M 0 0 
L 2.5 0 
" style="stroke: #000000; stroke-width: 0.5"/>
      </defs>
      <g>
       <use xlink:href="#m0806cbcf7b" x="48.2667" y="245.647933" style="stroke: #000000; stroke-width: 0.5"/>
      </g>
     </g>
     <g id="line2d_7">
      <defs>
       <path id="m759cff263e" d="M 0 0 
L -2.5 0 
" style="stroke: #000000; stroke-width: 0.5"/>
      </defs>
      <g>
       <use xlink:href="#m759cff263e" x="429.165354" y="245.647933" style="stroke: #000000; stroke-width: 0.5"/>
      </g>
     </g>
     <g id="text_4">
      <!-- $10^{-4}$ -->
      <g transform="translate(21.3667 249.447152) scale(0.1 -0.1)">
       <defs>
        <path id="DejaVuSerif-2212" d="M 678 2259 
L 4684 2259 
L 4684 1753 
L 678 1753 
L 678 2259 
z
" transform="scale(0.015625)"/>
        <path id="DejaVuSerif-34" d="M 2234 1581 
L 2234 4063 
L 641 1581 
L 2234 1581 
z
M 3609 0 
L 1484 0 
L 1484 331 
L 2234 331 
L 2234 1247 
L 197 1247 
L 197 1588 
L 2241 4750 
L 2859 4750 
L 2859 1581 
L 3750 1581 
L 3750 1247 
L 2859 1247 
L 2859 331 
L 3609 331 
L 3609 0 
z
" transform="scale(0.015625)"/>
       </defs>
       <use xlink:href="#DejaVuSerif-31" transform="translate(0 0.7125)"/>
       <use xlink:href="#DejaVuSerif-30" transform="translate(63.623047 0.7125)"/>
       <use xlink:href="#DejaVuSerif-2212" transform="translate(128.154453 37.046875) scale(0.7)"/>
       <use xlink:href="#DejaVuSerif-34" transform="translate(186.806797 37.046875) scale(0.7)"/>
      </g>
     </g>
    </g>
    <g id="ytick_2">
     <g id="line2d_8">
      <g>
       <use xlink:href="#m0806cbcf7b" x="48.2667" y="190.418949" style="stroke: #000000; stroke-width: 0.5"/>
      </g>
     </g>
     <g id="line2d_9">
      <g>
       <use xlink:href="#m759cff263e" x="429.165354" y="190.418949" style="stroke: #000000; stroke-width: 0.5"/>
      </g>
     </g>
     <g id="text_5">
      <!-- $10^{-3}$ -->
      <g transform="translate(21.3667 194.218167) scale(0.1 -0.1)">
       <defs>
        <path id="DejaVuSerif-33" d="M 622 4469 
Q 988 4606 1323 4678 
Q 1659 4750 1953 4750 
Q 2638 4750 3022 4454 
Q 3406 4159 3406 3634 
Q 3406 3213 3140 2930 
Q 2875 2647 2388 2547 
Q 2963 2466 3280 2130 
Q 3597 1794 3597 1259 
Q 3597 606 3158 257 
Q 2719 -91 1894 -91 
Q 1528 -91 1179 -12 
Q 831 66 488 225 
L 488 1131 
L 838 1131 
Q 869 681 1141 450 
Q 1413 219 1906 219 
Q 2384 219 2661 495 
Q 2938 772 2938 1253 
Q 2938 1803 2653 2086 
Q 2369 2369 1819 2369 
L 1522 2369 
L 1522 2688 
L 1678 2688 
Q 2225 2688 2498 2914 
Q 2772 3141 2772 3597 
Q 2772 4006 2547 4223 
Q 2322 4441 1900 4441 
Q 1478 4441 1245 4241 
Q 1013 4041 972 3647 
L 622 3647 
L 622 4469 
z
" transform="scale(0.015625)"/>
       </defs>
       <use xlink:href="#DejaVuSerif-31" transform="translate(0 0.7125)"/>
       <use xlink:href="#DejaVuSerif-30" transform="translate(63.623047 0.7125)"/>
       <use xlink:href="#DejaVuSerif-2212" transform="translate(128.154453 37.046875) scale(0.7)"/>
       <use xlink:href="#DejaVuSerif-33" transform="translate(186.806797 37.046875) scale(0.7)"/>
      </g>
     </g>
    </g>
    <g id="ytick_3">
     <g id="line2d_10">
      <g>
       <use xlink:href="#m0806cbcf7b" x="48.2667" y="135.189964" style="stroke: #000000; stroke-width: 0.5"/>
      </g>
     </g>
     <g id="line2d_11">
      <g>
       <use xlink:href="#m759cff263e" x="429.165354" y="135.189964" style="stroke: #000000; stroke-width: 0.5"/>
      </g>
     </g>
     <g id="text_6">
      <!-- $10^{-2}$ -->
      <g transform="translate(21.3667 138.989183) scale(0.1 -0.1)">
       <defs>
        <path id="DejaVuSerif-32" d="M 819 3553 
L 469 3553 
L 469 4384 
Q 803 4563 1142 4656 
Q 1481 4750 1806 4750 
Q 2534 4750 2956 4397 
Q 3378 4044 3378 3438 
Q 3378 2753 2422 1800 
Q 2347 1728 2309 1691 
L 1131 513 
L 3078 513 
L 3078 1088 
L 3444 1088 
L 3444 0 
L 434 0 
L 434 341 
L 1850 1753 
Q 2319 2222 2519 2614 
Q 2719 3006 2719 3438 
Q 2719 3909 2473 4175 
Q 2228 4441 1797 4441 
Q 1350 4441 1106 4219 
Q 863 3997 819 3553 
z
" transform="scale(0.015625)"/>
       </defs>
       <use xlink:href="#DejaVuSerif-31" transform="translate(0 0.7125)"/>
       <use xlink:href="#DejaVuSerif-30" transform="translate(63.623047 0.7125)"/>
       <use xlink:href="#DejaVuSerif-2212" transform="translate(128.154453 37.046875) scale(0.7)"/>
       <use xlink:href="#DejaVuSerif-32" transform="translate(186.806797 37.046875) scale(0.7)"/>
      </g>
     </g>
    </g>
    <g id="ytick_4">
     <g id="line2d_12">
      <g>
       <use xlink:href="#m0806cbcf7b" x="48.2667" y="79.96098" style="stroke: #000000; stroke-width: 0.5"/>
      </g>
     </g>
     <g id="line2d_13">
      <g>
       <use xlink:href="#m759cff263e" x="429.165354" y="79.96098" style="stroke: #000000; stroke-width: 0.5"/>
      </g>
     </g>
     <g id="text_7">
      <!-- $10^{-1}$ -->
      <g transform="translate(21.3667 83.760199) scale(0.1 -0.1)">
       <use xlink:href="#DejaVuSerif-31" transform="translate(0 0.7125)"/>
       <use xlink:href="#DejaVuSerif-30" transform="translate(63.623047 0.7125)"/>
       <use xlink:href="#DejaVuSerif-2212" transform="translate(128.154453 37.046875) scale(0.7)"/>
       <use xlink:href="#DejaVuSerif-31" transform="translate(186.806797 37.046875) scale(0.7)"/>
      </g>
     </g>
    </g>
    <g id="ytick_5">
     <g id="line2d_14">
      <g>
       <use xlink:href="#m0806cbcf7b" x="48.2667" y="24.731996" style="stroke: #000000; stroke-width: 0.5"/>
      </g>
     </g>
     <g id="line2d_15">
      <g>
       <use xlink:href="#m759cff263e" x="429.165354" y="24.731996" style="stroke: #000000; stroke-width: 0.5"/>
      </g>
     </g>
     <g id="text_8">
      <!-- $10^{0}$ -->
      <g transform="translate(27.1667 28.531214) scale(0.1 -0.1)">
       <use xlink:href="#DejaVuSerif-31" transform="translate(0 0.7125)"/>
       <use xlink:href="#DejaVuSerif-30" transform="translate(63.623047 0.7125)"/>
       <use xlink:href="#DejaVuSerif-30" transform="translate(128.154453 37.046875) scale(0.7)"/>
      </g>
     </g>
    </g>
    <g id="text_9">
     <!-- $p(\lambda)$ -->
     <g transform="translate(15.2667 147.322) rotate(-90) scale(0.1 -0.1)">
      <defs>
       <path id="DejaVuSerif-Italic-70" d="M 1466 1825 
L 1400 1497 
Q 1353 1250 1353 1053 
Q 1353 769 1453 581 
Q 1622 269 2059 269 
Q 2500 269 2795 622 
Q 3091 975 3225 1663 
Q 3284 1978 3284 2225 
Q 3284 2513 3200 2703 
Q 3041 3053 2600 3053 
Q 2163 3053 1872 2737 
Q 1581 2422 1466 1825 
z
M 1116 2988 
L 563 2988 
L 628 3322 
L 1756 3322 
L 1656 2803 
Q 1884 3116 2175 3264 
Q 2466 3413 2850 3413 
Q 3463 3413 3753 2928 
Q 3947 2609 3947 2163 
Q 3947 1928 3897 1663 
Q 3744 881 3262 395 
Q 2781 -91 2169 -91 
Q 1784 -91 1551 57 
Q 1319 206 1213 519 
L 850 -1331 
L 275 -1331 
L 1116 2988 
z
" transform="scale(0.015625)"/>
       <path id="DejaVuSerif-28" d="M 2041 -997 
Q 1281 -656 893 83 
Q 506 822 506 1931 
Q 506 3044 893 3783 
Q 1281 4522 2041 4863 
L 2041 4556 
Q 1559 4225 1350 3623 
Q 1141 3022 1141 1931 
Q 1141 844 1350 242 
Q 1559 -359 2041 -691 
L 2041 -997 
z
" transform="scale(0.015625)"/>
       <path id="DejaVuSerif-29" d="M 453 -997 
L 453 -691 
Q 934 -359 1145 242 
Q 1356 844 1356 1931 
Q 1356 3022 1145 3623 
Q 934 4225 453 4556 
L 453 4863 
Q 1216 4522 1603 3783 
Q 1991 3044 1991 1931 
Q 1991 822 1603 83 
Q 1216 -656 453 -997 
z
" transform="scale(0.015625)"/>
      </defs>
      <use xlink:href="#DejaVuSerif-Italic-70" transform="translate(0 0.484375)"/>
      <use xlink:href="#DejaVuSerif-28" transform="translate(64.013672 0.484375)"/>
      <use xlink:href="#DejaVuSerif-Italic-3bb" transform="translate(103.027344 0.484375)"/>
      <use xlink:href="#DejaVuSerif-29" transform="translate(166.40625 0.484375)"/>
     </g>
    </g>
   </g>
   <g id="PathCollection_1">
    <defs>
     <path id="m9a0f926593" d="M -0.574025 -1.385819 
L -1.385819 -0.574025 
L -1.385819 0.574025 
L -0.574025 1.385819 
L 0.574025 1.385819 
L 1.385819 0.574025 
L 1.385819 -0.574025 
L 0.574025 -1.385819 
z
"/>
    </defs>
    <g clip-path="url(#p68488ec9d6)">
     <use xlink:href="#m9a0f926593" x="59.04685" y="26.279213" style="fill: #937860"/>
     <use xlink:href="#m9a0f926593" x="115.886844" y="213.534483" style="fill: #937860"/>
     <use xlink:href="#m9a0f926593" x="149.136109" y="196.433924" style="fill: #937860"/>
     <use xlink:href="#m9a0f926593" x="172.726838" y="190.615927" style="fill: #937860"/>
     <use xlink:href="#m9a0f926593" x="191.025229" y="180.283322" style="fill: #937860"/>
     <use xlink:href="#m9a0f926593" x="205.976103" y="179.113058" style="fill: #937860"/>
     <use xlink:href="#m9a0f926593" x="218.616886" y="180.767897" style="fill: #937860"/>
     <use xlink:href="#m9a0f926593" x="229.566831" y="179.808343" style="fill: #937860"/>
     <use xlink:href="#m9a0f926593" x="239.225368" y="177.997246" style="fill: #937860"/>
     <use xlink:href="#m9a0f926593" x="247.865222" y="178.437362" style="fill: #937860"/>
     <use xlink:href="#m9a0f926593" x="255.680922" y="182.023976" style="fill: #937860"/>
     <use xlink:href="#m9a0f926593" x="262.816096" y="182.545424" style="fill: #937860"/>
     <use xlink:href="#m9a0f926593" x="269.379821" y="181.513624" style="fill: #937860"/>
     <use xlink:href="#m9a0f926593" x="275.45688" y="185.043295" style="fill: #937860"/>
     <use xlink:href="#m9a0f926593" x="281.114487" y="185.043295" style="fill: #937860"/>
     <use xlink:href="#m9a0f926593" x="286.406825" y="187.183561" style="fill: #937860"/>
     <use xlink:href="#m9a0f926593" x="291.378213" y="186.865866" style="fill: #937860"/>
     <use xlink:href="#m9a0f926593" x="296.065361" y="188.162703" style="fill: #937860"/>
     <use xlink:href="#m9a0f926593" x="300.499024" y="185.937273" style="fill: #937860"/>
     <use xlink:href="#m9a0f926593" x="304.705216" y="192.139337" style="fill: #937860"/>
     <use xlink:href="#m9a0f926593" x="308.706145" y="192.139337" style="fill: #937860"/>
     <use xlink:href="#m9a0f926593" x="312.520916" y="189.183523" style="fill: #937860"/>
     <use xlink:href="#m9a0f926593" x="316.166084" y="191.749318" style="fill: #937860"/>
     <use xlink:href="#m9a0f926593" x="319.65609" y="192.938932" style="fill: #937860"/>
     <use xlink:href="#m9a0f926593" x="323.003607" y="189.889034" style="fill: #937860"/>
     <use xlink:href="#m9a0f926593" x="326.219814" y="198.908864" style="fill: #937860"/>
     <use xlink:href="#m9a0f926593" x="329.314626" y="196.908903" style="fill: #937860"/>
     <use xlink:href="#m9a0f926593" x="332.296874" y="197.393478" style="fill: #937860"/>
     <use xlink:href="#m9a0f926593" x="335.17446" y="194.622827" style="fill: #937860"/>
     <use xlink:href="#m9a0f926593" x="337.954481" y="198.908864" style="fill: #937860"/>
     <use xlink:href="#m9a0f926593" x="340.643338" y="202.868408" style="fill: #937860"/>
     <use xlink:href="#m9a0f926593" x="343.246819" y="200.526487" style="fill: #937860"/>
     <use xlink:href="#m9a0f926593" x="345.770181" y="198.393024" style="fill: #937860"/>
     <use xlink:href="#m9a0f926593" x="348.218206" y="205.46398" style="fill: #937860"/>
     <use xlink:href="#m9a0f926593" x="350.595265" y="204.788284" style="fill: #937860"/>
     <use xlink:href="#m9a0f926593" x="352.905355" y="202.261144" style="fill: #937860"/>
     <use xlink:href="#m9a0f926593" x="355.152147" y="205.46398" style="fill: #937860"/>
     <use xlink:href="#m9a0f926593" x="357.339017" y="205.46398" style="fill: #937860"/>
     <use xlink:href="#m9a0f926593" x="359.469079" y="208.374899" style="fill: #937860"/>
     <use xlink:href="#m9a0f926593" x="361.54521" y="210.816222" style="fill: #937860"/>
     <use xlink:href="#m9a0f926593" x="363.570073" y="205.46398" style="fill: #937860"/>
     <use xlink:href="#m9a0f926593" x="365.546139" y="209.974534" style="fill: #937860"/>
     <use xlink:href="#m9a0f926593" x="367.475705" y="212.593749" style="fill: #937860"/>
     <use xlink:href="#m9a0f926593" x="369.360909" y="209.974534" style="fill: #937860"/>
     <use xlink:href="#m9a0f926593" x="371.203746" y="204.788284" style="fill: #937860"/>
     <use xlink:href="#m9a0f926593" x="373.006077" y="217.716462" style="fill: #937860"/>
     <use xlink:href="#m9a0f926593" x="374.769646" y="212.593749" style="fill: #937860"/>
     <use xlink:href="#m9a0f926593" x="376.496084" y="211.688523" style="fill: #937860"/>
     <use xlink:href="#m9a0f926593" x="378.186923" y="210.816222" style="fill: #937860"/>
     <use xlink:href="#m9a0f926593" x="379.843601" y="217.716462" style="fill: #937860"/>
     <use xlink:href="#m9a0f926593" x="381.467471" y="206.159265" style="fill: #937860"/>
     <use xlink:href="#m9a0f926593" x="383.059808" y="215.534445" style="fill: #937860"/>
     <use xlink:href="#m9a0f926593" x="384.621813" y="209.161384" style="fill: #937860"/>
     <use xlink:href="#m9a0f926593" x="386.15462" y="216.600649" style="fill: #937860"/>
     <use xlink:href="#m9a0f926593" x="387.6593" y="214.513625" style="fill: #937860"/>
     <use xlink:href="#m9a0f926593" x="389.136868" y="211.688523" style="fill: #937860"/>
     <use xlink:href="#m9a0f926593" x="390.588282" y="213.534483" style="fill: #937860"/>
     <use xlink:href="#m9a0f926593" x="392.014453" y="220.117028" style="fill: #937860"/>
     <use xlink:href="#m9a0f926593" x="393.416244" y="215.534445" style="fill: #937860"/>
     <use xlink:href="#m9a0f926593" x="394.794475" y="217.716462" style="fill: #937860"/>
     <use xlink:href="#m9a0f926593" x="396.149924" y="224.238967" style="fill: #937860"/>
     <use xlink:href="#m9a0f926593" x="397.483331" y="224.238967" style="fill: #937860"/>
     <use xlink:href="#m9a0f926593" x="398.795404" y="215.534445" style="fill: #937860"/>
     <use xlink:href="#m9a0f926593" x="400.086813" y="233.22623" style="fill: #937860"/>
     <use xlink:href="#m9a0f926593" x="401.358199" y="216.600649" style="fill: #937860"/>
     <use xlink:href="#m9a0f926593" x="402.610174" y="225.786965" style="fill: #937860"/>
     <use xlink:href="#m9a0f926593" x="403.843322" y="227.441803" style="fill: #937860"/>
     <use xlink:href="#m9a0f926593" x="405.0582" y="213.534483" style="fill: #937860"/>
     <use xlink:href="#m9a0f926593" x="406.255342" y="233.22623" style="fill: #937860"/>
     <use xlink:href="#m9a0f926593" x="407.435259" y="214.513625" style="fill: #937860"/>
     <use xlink:href="#m9a0f926593" x="408.598438" y="238.039446" style="fill: #937860"/>
     <use xlink:href="#m9a0f926593" x="409.745349" y="218.886725" style="fill: #937860"/>
     <use xlink:href="#m9a0f926593" x="410.87644" y="233.22623" style="fill: #937860"/>
     <use xlink:href="#m9a0f926593" x="411.992141" y="235.512306" style="fill: #937860"/>
     <use xlink:href="#m9a0f926593" x="413.092866" y="227.441803" style="fill: #937860"/>
     <use xlink:href="#m9a0f926593" x="414.179011" y="227.441803" style="fill: #937860"/>
     <use xlink:href="#m9a0f926593" x="415.250958" y="233.22623" style="fill: #937860"/>
     <use xlink:href="#m9a0f926593" x="416.309073" y="225.786965" style="fill: #937860"/>
     <use xlink:href="#m9a0f926593" x="417.353709" y="225.786965" style="fill: #937860"/>
     <use xlink:href="#m9a0f926593" x="418.385204" y="227.441803" style="fill: #937860"/>
    </g>
   </g>
   <g id="patch_3">
    <path d="M 48.2667 254.409354 
L 48.2667 19.634646 
" style="fill: none; stroke: #000000; stroke-linejoin: miter; stroke-linecap: square"/>
   </g>
   <g id="patch_4">
    <path d="M 429.165354 254.409354 
L 429.165354 19.634646 
" style="fill: none; stroke: #000000; stroke-linejoin: miter; stroke-linecap: square"/>
   </g>
   <g id="patch_5">
    <path d="M 48.2667 254.409354 
L 429.165354 254.409354 
" style="fill: none; stroke: #000000; stroke-linejoin: miter; stroke-linecap: square"/>
   </g>
   <g id="patch_6">
    <path d="M 48.2667 19.634646 
L 429.165354 19.634646 
" style="fill: none; stroke: #000000; stroke-linejoin: miter; stroke-linecap: square"/>
   </g>
   <g id="line2d_16">
    <path d="M 59.04685 31.159668 
L 115.886844 115.650956 
L 149.136109 117.856136 
L 172.726838 121.974744 
L 191.025229 126.48748 
L 205.976103 131.26112 
L 218.616886 134.517277 
L 229.566831 138.411212 
L 239.225368 142.559327 
L 247.865222 145.130742 
L 255.680922 148.073846 
L 262.816096 150.441474 
L 269.379821 153.379164 
L 275.45688 154.99497 
L 281.114487 157.457195 
L 286.406825 157.643132 
L 291.378213 159.485359 
L 296.065361 161.700992 
L 300.499024 164.636883 
L 304.705216 166.723906 
L 308.706145 166.318506 
L 312.520916 167.555862 
L 316.166084 170.240285 
L 319.65609 170.71842 
L 323.003607 171.537122 
L 326.219814 174.739958 
L 329.314626 175.317954 
L 332.296874 175.910222 
L 335.17446 174.93108 
L 337.954481 177.78018 
L 340.643338 178.660485 
L 343.246819 180.524385 
L 345.770181 181.513624 
L 348.218206 181.262463 
L 350.595265 183.07846 
L 352.905355 186.552324 
L 355.152147 185.635563 
L 357.339017 187.831861 
L 359.469079 185.635563 
L 361.54521 186.242827 
L 363.570073 187.831861 
L 365.546139 186.865866 
L 367.475705 190.615927 
L 369.360909 190.615927 
L 371.203746 192.139337 
L 373.006077 194.190641 
L 374.769646 192.139337 
L 376.496084 200.526487 
L 378.186923 192.535803 
L 379.843601 192.535803 
L 381.467471 197.393478 
L 383.059808 197.393478 
L 384.621813 196.908903 
L 386.15462 196.433924 
L 387.6593 202.868408 
L 389.136868 206.159265 
L 390.588282 197.888044 
L 392.014453 196.433924 
L 393.416244 205.46398 
L 394.794475 203.491447 
L 396.149924 206.159265 
L 397.483331 198.393024 
L 398.795404 204.788284 
L 400.086813 199.975068 
L 401.358199 209.974534 
L 402.610174 205.46398 
L 403.843322 209.161384 
L 405.0582 206.875308 
L 406.255342 206.875308 
L 407.435259 211.688523 
L 408.598438 209.161384 
L 409.745349 215.534445 
L 410.87644 209.161384 
L 411.992141 216.600649 
L 413.092866 211.688523 
L 414.179011 215.534445 
L 415.250958 210.816222 
L 416.309073 216.600649 
L 417.353709 211.688523 
L 418.385204 215.534445 
" clip-path="url(#p68488ec9d6)" style="fill: none; stroke: #da8bc3"/>
   </g>
   <g id="text_10">
    <!-- Power-law in DOS around depth $d=7$ -->
    <g transform="translate(123.576027 13.634646) scale(0.12 -0.12)">
     <defs>
      <path id="DejaVuSerif-50" d="M 1581 2375 
L 2406 2375 
Q 2872 2375 3115 2626 
Q 3359 2878 3359 3353 
Q 3359 3831 3115 4081 
Q 2872 4331 2406 4331 
L 1581 4331 
L 1581 2375 
z
M 353 0 
L 353 331 
L 947 331 
L 947 4331 
L 353 4331 
L 353 4666 
L 2559 4666 
Q 3259 4666 3668 4311 
Q 4078 3956 4078 3353 
Q 4078 2753 3668 2397 
Q 3259 2041 2559 2041 
L 1581 2041 
L 1581 331 
L 2303 331 
L 2303 0 
L 353 0 
z
" transform="scale(0.015625)"/>
      <path id="DejaVuSerif-6f" d="M 1925 219 
Q 2388 219 2623 584 
Q 2859 950 2859 1663 
Q 2859 2375 2623 2739 
Q 2388 3103 1925 3103 
Q 1463 3103 1227 2739 
Q 991 2375 991 1663 
Q 991 950 1228 584 
Q 1466 219 1925 219 
z
M 1925 -91 
Q 1200 -91 759 389 
Q 319 869 319 1663 
Q 319 2456 758 2934 
Q 1197 3413 1925 3413 
Q 2653 3413 3092 2934 
Q 3531 2456 3531 1663 
Q 3531 869 3092 389 
Q 2653 -91 1925 -91 
z
" transform="scale(0.015625)"/>
      <path id="DejaVuSerif-77" d="M 3072 3322 
L 3922 728 
L 4672 2988 
L 4191 2988 
L 4191 3322 
L 5394 3322 
L 5394 2988 
L 5025 2988 
L 4038 0 
L 3559 0 
L 2741 2484 
L 1919 0 
L 1459 0 
L 475 2988 
L 103 2988 
L 103 3322 
L 1606 3322 
L 1606 2988 
L 1069 2988 
L 1813 728 
L 2669 3322 
L 3072 3322 
z
" transform="scale(0.015625)"/>
      <path id="DejaVuSerif-65" d="M 3469 1600 
L 991 1600 
L 991 1575 
Q 991 903 1244 561 
Q 1497 219 1991 219 
Q 2369 219 2611 417 
Q 2853 616 2950 1006 
L 3413 1006 
Q 3275 459 2904 184 
Q 2534 -91 1931 -91 
Q 1203 -91 761 389 
Q 319 869 319 1663 
Q 319 2450 753 2931 
Q 1188 3413 1894 3413 
Q 2647 3413 3050 2948 
Q 3453 2484 3469 1600 
z
M 2791 1931 
Q 2772 2513 2545 2808 
Q 2319 3103 1894 3103 
Q 1497 3103 1269 2806 
Q 1041 2509 991 1931 
L 2791 1931 
z
" transform="scale(0.015625)"/>
      <path id="DejaVuSerif-72" d="M 3059 3328 
L 3059 2497 
L 2728 2497 
Q 2713 2744 2591 2866 
Q 2469 2988 2234 2988 
Q 1809 2988 1582 2694 
Q 1356 2400 1356 1850 
L 1356 331 
L 2022 331 
L 2022 0 
L 263 0 
L 263 331 
L 781 331 
L 781 2994 
L 231 2994 
L 231 3322 
L 1356 3322 
L 1356 2731 
Q 1525 3078 1790 3245 
Q 2056 3413 2438 3413 
Q 2578 3413 2733 3391 
Q 2888 3369 3059 3328 
z
" transform="scale(0.015625)"/>
      <path id="DejaVuSerif-2d" d="M 281 1959 
L 1881 1959 
L 1881 1472 
L 281 1472 
L 281 1959 
z
" transform="scale(0.015625)"/>
      <path id="DejaVuSerif-6c" d="M 1313 331 
L 1856 331 
L 1856 0 
L 184 0 
L 184 331 
L 738 331 
L 738 4531 
L 184 4531 
L 184 4863 
L 1313 4863 
L 1313 331 
z
" transform="scale(0.015625)"/>
      <path id="DejaVuSerif-61" d="M 2547 1044 
L 2547 1747 
L 1806 1747 
Q 1378 1747 1168 1562 
Q 959 1378 959 997 
Q 959 650 1171 447 
Q 1384 244 1747 244 
Q 2106 244 2326 466 
Q 2547 688 2547 1044 
z
M 3122 2075 
L 3122 331 
L 3634 331 
L 3634 0 
L 2547 0 
L 2547 359 
Q 2356 128 2106 18 
Q 1856 -91 1522 -91 
Q 969 -91 644 203 
Q 319 497 319 997 
Q 319 1513 691 1797 
Q 1063 2081 1741 2081 
L 2547 2081 
L 2547 2309 
Q 2547 2688 2317 2895 
Q 2088 3103 1672 3103 
Q 1328 3103 1125 2947 
Q 922 2791 872 2484 
L 575 2484 
L 575 3156 
Q 875 3284 1158 3348 
Q 1441 3413 1709 3413 
Q 2400 3413 2761 3070 
Q 3122 2728 3122 2075 
z
" transform="scale(0.015625)"/>
      <path id="DejaVuSerif-20" transform="scale(0.015625)"/>
      <path id="DejaVuSerif-69" d="M 622 4353 
Q 622 4497 726 4603 
Q 831 4709 978 4709 
Q 1122 4709 1226 4603 
Q 1331 4497 1331 4353 
Q 1331 4206 1228 4103 
Q 1125 4000 978 4000 
Q 831 4000 726 4103 
Q 622 4206 622 4353 
z
M 1356 331 
L 1900 331 
L 1900 0 
L 231 0 
L 231 331 
L 781 331 
L 781 2988 
L 231 2988 
L 231 3322 
L 1356 3322 
L 1356 331 
z
" transform="scale(0.015625)"/>
      <path id="DejaVuSerif-6e" d="M 263 0 
L 263 331 
L 781 331 
L 781 2988 
L 231 2988 
L 231 3322 
L 1356 3322 
L 1356 2731 
Q 1516 3069 1770 3241 
Q 2025 3413 2363 3413 
Q 2913 3413 3172 3097 
Q 3431 2781 3431 2113 
L 3431 331 
L 3944 331 
L 3944 0 
L 2356 0 
L 2356 331 
L 2853 331 
L 2853 1931 
Q 2853 2541 2703 2767 
Q 2553 2994 2175 2994 
Q 1775 2994 1565 2701 
Q 1356 2409 1356 1850 
L 1356 331 
L 1856 331 
L 1856 0 
L 263 0 
z
" transform="scale(0.015625)"/>
      <path id="DejaVuSerif-44" d="M 1581 331 
L 2163 331 
Q 3072 331 3558 850 
Q 4044 1369 4044 2338 
Q 4044 3306 3559 3818 
Q 3075 4331 2163 4331 
L 1581 4331 
L 1581 331 
z
M 353 0 
L 353 331 
L 947 331 
L 947 4331 
L 353 4331 
L 353 4666 
L 2209 4666 
Q 3416 4666 4089 4050 
Q 4763 3434 4763 2338 
Q 4763 1238 4088 619 
Q 3413 0 2209 0 
L 353 0 
z
" transform="scale(0.015625)"/>
      <path id="DejaVuSerif-4f" d="M 2625 244 
Q 3391 244 3781 770 
Q 4172 1297 4172 2328 
Q 4172 3363 3781 3889 
Q 3391 4416 2625 4416 
Q 1856 4416 1465 3889 
Q 1075 3363 1075 2328 
Q 1075 1297 1465 770 
Q 1856 244 2625 244 
z
M 2625 -91 
Q 2150 -91 1751 65 
Q 1353 222 1050 525 
Q 700 875 529 1319 
Q 359 1763 359 2328 
Q 359 2894 529 3339 
Q 700 3784 1050 4134 
Q 1356 4441 1750 4595 
Q 2144 4750 2625 4750 
Q 3641 4750 4266 4084 
Q 4891 3419 4891 2328 
Q 4891 1769 4719 1320 
Q 4547 872 4197 525 
Q 3891 219 3497 64 
Q 3103 -91 2625 -91 
z
" transform="scale(0.015625)"/>
      <path id="DejaVuSerif-53" d="M 594 225 
L 594 1288 
L 953 1284 
Q 969 753 1261 498 
Q 1553 244 2150 244 
Q 2706 244 2998 464 
Q 3291 684 3291 1106 
Q 3291 1444 3114 1625 
Q 2938 1806 2369 1978 
L 1753 2163 
Q 1084 2366 811 2669 
Q 538 2972 538 3500 
Q 538 4094 959 4422 
Q 1381 4750 2144 4750 
Q 2469 4750 2856 4679 
Q 3244 4609 3681 4475 
L 3681 3481 
L 3328 3481 
Q 3275 3975 2998 4195 
Q 2722 4416 2156 4416 
Q 1663 4416 1405 4214 
Q 1147 4013 1147 3628 
Q 1147 3294 1340 3103 
Q 1534 2913 2163 2725 
L 2741 2553 
Q 3375 2363 3645 2067 
Q 3916 1772 3916 1275 
Q 3916 597 3481 253 
Q 3047 -91 2188 -91 
Q 1803 -91 1404 -12 
Q 1006 66 594 225 
z
" transform="scale(0.015625)"/>
      <path id="DejaVuSerif-75" d="M 2266 3322 
L 3341 3322 
L 3341 331 
L 3884 331 
L 3884 0 
L 2766 0 
L 2766 588 
Q 2606 256 2353 82 
Q 2100 -91 1766 -91 
Q 1213 -91 952 223 
Q 691 538 691 1209 
L 691 2988 
L 172 2988 
L 172 3322 
L 1269 3322 
L 1269 1388 
Q 1269 781 1417 556 
Q 1566 331 1947 331 
Q 2347 331 2556 625 
Q 2766 919 2766 1478 
L 2766 2988 
L 2266 2988 
L 2266 3322 
z
" transform="scale(0.015625)"/>
      <path id="DejaVuSerif-64" d="M 3359 331 
L 3909 331 
L 3909 0 
L 2784 0 
L 2784 519 
Q 2616 206 2355 57 
Q 2094 -91 1709 -91 
Q 1097 -91 708 395 
Q 319 881 319 1663 
Q 319 2444 706 2928 
Q 1094 3413 1709 3413 
Q 2094 3413 2355 3264 
Q 2616 3116 2784 2803 
L 2784 4531 
L 2241 4531 
L 2241 4863 
L 3359 4863 
L 3359 331 
z
M 2784 1497 
L 2784 1825 
Q 2784 2422 2554 2737 
Q 2325 3053 1888 3053 
Q 1444 3053 1217 2703 
Q 991 2353 991 1663 
Q 991 975 1217 622 
Q 1444 269 1888 269 
Q 2325 269 2554 583 
Q 2784 897 2784 1497 
z
" transform="scale(0.015625)"/>
      <path id="DejaVuSerif-70" d="M 1313 1825 
L 1313 1497 
Q 1313 897 1542 583 
Q 1772 269 2209 269 
Q 2650 269 2876 622 
Q 3103 975 3103 1663 
Q 3103 2353 2876 2703 
Q 2650 3053 2209 3053 
Q 1772 3053 1542 2737 
Q 1313 2422 1313 1825 
z
M 738 2988 
L 184 2988 
L 184 3322 
L 1313 3322 
L 1313 2803 
Q 1481 3116 1742 3264 
Q 2003 3413 2388 3413 
Q 3000 3413 3387 2928 
Q 3775 2444 3775 1663 
Q 3775 881 3387 395 
Q 3000 -91 2388 -91 
Q 2003 -91 1742 57 
Q 1481 206 1313 519 
L 1313 -997 
L 1856 -997 
L 1856 -1331 
L 184 -1331 
L 184 -997 
L 738 -997 
L 738 2988 
z
" transform="scale(0.015625)"/>
      <path id="DejaVuSerif-74" d="M 691 2988 
L 184 2988 
L 184 3322 
L 691 3322 
L 691 4353 
L 1269 4353 
L 1269 3322 
L 2350 3322 
L 2350 2988 
L 1269 2988 
L 1269 878 
Q 1269 456 1350 337 
Q 1431 219 1650 219 
Q 1875 219 1978 351 
Q 2081 484 2088 781 
L 2522 781 
Q 2497 328 2275 118 
Q 2053 -91 1600 -91 
Q 1103 -91 897 129 
Q 691 350 691 878 
L 691 2988 
z
" transform="scale(0.015625)"/>
      <path id="DejaVuSerif-68" d="M 263 0 
L 263 331 
L 781 331 
L 781 4531 
L 231 4531 
L 231 4863 
L 1356 4863 
L 1356 2731 
Q 1516 3069 1770 3241 
Q 2025 3413 2363 3413 
Q 2913 3413 3172 3097 
Q 3431 2781 3431 2113 
L 3431 331 
L 3944 331 
L 3944 0 
L 2356 0 
L 2356 331 
L 2853 331 
L 2853 1931 
Q 2853 2541 2704 2764 
Q 2556 2988 2175 2988 
Q 1775 2988 1565 2697 
Q 1356 2406 1356 1850 
L 1356 331 
L 1856 331 
L 1856 0 
L 263 0 
z
" transform="scale(0.015625)"/>
      <path id="DejaVuSerif-Italic-64" d="M 3841 4863 
L 2897 0 
L 2322 0 
L 2422 519 
Q 2191 206 1902 57 
Q 1613 -91 1228 -91 
Q 616 -91 322 394 
Q 125 716 125 1166 
Q 125 1397 178 1663 
Q 331 2444 812 2928 
Q 1294 3413 1909 3413 
Q 2294 3413 2525 3264 
Q 2756 3116 2866 2803 
L 3200 4531 
L 2656 4531 
L 2722 4863 
L 3841 4863 
z
M 2613 1497 
L 2675 1825 
Q 2722 2069 2722 2266 
Q 2722 2550 2622 2738 
Q 2456 3053 2019 3053 
Q 1575 3053 1279 2703 
Q 984 2353 850 1663 
Q 788 1347 788 1103 
Q 788 813 875 622 
Q 1031 269 1475 269 
Q 1913 269 2203 583 
Q 2494 897 2613 1497 
z
" transform="scale(0.015625)"/>
      <path id="DejaVuSerif-3d" d="M 678 2894 
L 4684 2894 
L 4684 2394 
L 678 2394 
L 678 2894 
z
M 678 1619 
L 4684 1619 
L 4684 1119 
L 678 1119 
L 678 1619 
z
" transform="scale(0.015625)"/>
      <path id="DejaVuSerif-37" d="M 3609 4347 
L 1784 0 
L 1319 0 
L 3059 4153 
L 903 4153 
L 903 3578 
L 538 3578 
L 538 4666 
L 3609 4666 
L 3609 4347 
z
" transform="scale(0.015625)"/>
     </defs>
     <use xlink:href="#DejaVuSerif-50" transform="translate(0 0.015625)"/>
     <use xlink:href="#DejaVuSerif-6f" transform="translate(67.285156 0.015625)"/>
     <use xlink:href="#DejaVuSerif-77" transform="translate(127.490234 0.015625)"/>
     <use xlink:href="#DejaVuSerif-65" transform="translate(213.085938 0.015625)"/>
     <use xlink:href="#DejaVuSerif-72" transform="translate(272.265625 0.015625)"/>
     <use xlink:href="#DejaVuSerif-2d" transform="translate(320.068359 0.015625)"/>
     <use xlink:href="#DejaVuSerif-6c" transform="translate(353.857422 0.015625)"/>
     <use xlink:href="#DejaVuSerif-61" transform="translate(385.839844 0.015625)"/>
     <use xlink:href="#DejaVuSerif-77" transform="translate(445.458984 0.015625)"/>
     <use xlink:href="#DejaVuSerif-20" transform="translate(531.054688 0.015625)"/>
     <use xlink:href="#DejaVuSerif-69" transform="translate(562.841797 0.015625)"/>
     <use xlink:href="#DejaVuSerif-6e" transform="translate(594.824219 0.015625)"/>
     <use xlink:href="#DejaVuSerif-20" transform="translate(659.228516 0.015625)"/>
     <use xlink:href="#DejaVuSerif-44" transform="translate(691.015625 0.015625)"/>
     <use xlink:href="#DejaVuSerif-4f" transform="translate(771.191406 0.015625)"/>
     <use xlink:href="#DejaVuSerif-53" transform="translate(853.173828 0.015625)"/>
     <use xlink:href="#DejaVuSerif-20" transform="translate(921.679688 0.015625)"/>
     <use xlink:href="#DejaVuSerif-61" transform="translate(953.466797 0.015625)"/>
     <use xlink:href="#DejaVuSerif-72" transform="translate(1013.085938 0.015625)"/>
     <use xlink:href="#DejaVuSerif-6f" transform="translate(1060.888672 0.015625)"/>
     <use xlink:href="#DejaVuSerif-75" transform="translate(1121.09375 0.015625)"/>
     <use xlink:href="#DejaVuSerif-6e" transform="translate(1185.498047 0.015625)"/>
     <use xlink:href="#DejaVuSerif-64" transform="translate(1249.902344 0.015625)"/>
     <use xlink:href="#DejaVuSerif-20" transform="translate(1313.916016 0.015625)"/>
     <use xlink:href="#DejaVuSerif-64" transform="translate(1345.703125 0.015625)"/>
     <use xlink:href="#DejaVuSerif-65" transform="translate(1409.716797 0.015625)"/>
     <use xlink:href="#DejaVuSerif-70" transform="translate(1468.896484 0.015625)"/>
     <use xlink:href="#DejaVuSerif-74" transform="translate(1532.910156 0.015625)"/>
     <use xlink:href="#DejaVuSerif-68" transform="translate(1573.095703 0.015625)"/>
     <use xlink:href="#DejaVuSerif-20" transform="translate(1637.5 0.015625)"/>
     <use xlink:href="#DejaVuSerif-Italic-64" transform="translate(1669.287109 0.015625)"/>
     <use xlink:href="#DejaVuSerif-3d" transform="translate(1752.265625 0.015625)"/>
     <use xlink:href="#DejaVuSerif-37" transform="translate(1855.019531 0.015625)"/>
    </g>
   </g>
   <g id="PathCollection_2">
    <defs>
     <path id="mce09332957" d="M -0.574025 -1.385819 
L -1.385819 -0.574025 
L -1.385819 0.574025 
L -0.574025 1.385819 
L 0.574025 1.385819 
L 1.385819 0.574025 
L 1.385819 -0.574025 
L 0.574025 -1.385819 
z
"/>
    </defs>
    <g clip-path="url(#p68488ec9d6)">
     <use xlink:href="#mce09332957" x="59.04685" y="31.159668" style="fill: #da8bc3"/>
     <use xlink:href="#mce09332957" x="115.886844" y="115.650956" style="fill: #da8bc3"/>
     <use xlink:href="#mce09332957" x="149.136109" y="117.856136" style="fill: #da8bc3"/>
     <use xlink:href="#mce09332957" x="172.726838" y="121.974744" style="fill: #da8bc3"/>
     <use xlink:href="#mce09332957" x="191.025229" y="126.48748" style="fill: #da8bc3"/>
     <use xlink:href="#mce09332957" x="205.976103" y="131.26112" style="fill: #da8bc3"/>
     <use xlink:href="#mce09332957" x="218.616886" y="134.517277" style="fill: #da8bc3"/>
     <use xlink:href="#mce09332957" x="229.566831" y="138.411212" style="fill: #da8bc3"/>
     <use xlink:href="#mce09332957" x="239.225368" y="142.559327" style="fill: #da8bc3"/>
     <use xlink:href="#mce09332957" x="247.865222" y="145.130742" style="fill: #da8bc3"/>
     <use xlink:href="#mce09332957" x="255.680922" y="148.073846" style="fill: #da8bc3"/>
     <use xlink:href="#mce09332957" x="262.816096" y="150.441474" style="fill: #da8bc3"/>
     <use xlink:href="#mce09332957" x="269.379821" y="153.379164" style="fill: #da8bc3"/>
     <use xlink:href="#mce09332957" x="275.45688" y="154.99497" style="fill: #da8bc3"/>
     <use xlink:href="#mce09332957" x="281.114487" y="157.457195" style="fill: #da8bc3"/>
     <use xlink:href="#mce09332957" x="286.406825" y="157.643132" style="fill: #da8bc3"/>
     <use xlink:href="#mce09332957" x="291.378213" y="159.485359" style="fill: #da8bc3"/>
     <use xlink:href="#mce09332957" x="296.065361" y="161.700992" style="fill: #da8bc3"/>
     <use xlink:href="#mce09332957" x="300.499024" y="164.636883" style="fill: #da8bc3"/>
     <use xlink:href="#mce09332957" x="304.705216" y="166.723906" style="fill: #da8bc3"/>
     <use xlink:href="#mce09332957" x="308.706145" y="166.318506" style="fill: #da8bc3"/>
     <use xlink:href="#mce09332957" x="312.520916" y="167.555862" style="fill: #da8bc3"/>
     <use xlink:href="#mce09332957" x="316.166084" y="170.240285" style="fill: #da8bc3"/>
     <use xlink:href="#mce09332957" x="319.65609" y="170.71842" style="fill: #da8bc3"/>
     <use xlink:href="#mce09332957" x="323.003607" y="171.537122" style="fill: #da8bc3"/>
     <use xlink:href="#mce09332957" x="326.219814" y="174.739958" style="fill: #da8bc3"/>
     <use xlink:href="#mce09332957" x="329.314626" y="175.317954" style="fill: #da8bc3"/>
     <use xlink:href="#mce09332957" x="332.296874" y="175.910222" style="fill: #da8bc3"/>
     <use xlink:href="#mce09332957" x="335.17446" y="174.93108" style="fill: #da8bc3"/>
     <use xlink:href="#mce09332957" x="337.954481" y="177.78018" style="fill: #da8bc3"/>
     <use xlink:href="#mce09332957" x="340.643338" y="178.660485" style="fill: #da8bc3"/>
     <use xlink:href="#mce09332957" x="343.246819" y="180.524385" style="fill: #da8bc3"/>
     <use xlink:href="#mce09332957" x="345.770181" y="181.513624" style="fill: #da8bc3"/>
     <use xlink:href="#mce09332957" x="348.218206" y="181.262463" style="fill: #da8bc3"/>
     <use xlink:href="#mce09332957" x="350.595265" y="183.07846" style="fill: #da8bc3"/>
     <use xlink:href="#mce09332957" x="352.905355" y="186.552324" style="fill: #da8bc3"/>
     <use xlink:href="#mce09332957" x="355.152147" y="185.635563" style="fill: #da8bc3"/>
     <use xlink:href="#mce09332957" x="357.339017" y="187.831861" style="fill: #da8bc3"/>
     <use xlink:href="#mce09332957" x="359.469079" y="185.635563" style="fill: #da8bc3"/>
     <use xlink:href="#mce09332957" x="361.54521" y="186.242827" style="fill: #da8bc3"/>
     <use xlink:href="#mce09332957" x="363.570073" y="187.831861" style="fill: #da8bc3"/>
     <use xlink:href="#mce09332957" x="365.546139" y="186.865866" style="fill: #da8bc3"/>
     <use xlink:href="#mce09332957" x="367.475705" y="190.615927" style="fill: #da8bc3"/>
     <use xlink:href="#mce09332957" x="369.360909" y="190.615927" style="fill: #da8bc3"/>
     <use xlink:href="#mce09332957" x="371.203746" y="192.139337" style="fill: #da8bc3"/>
     <use xlink:href="#mce09332957" x="373.006077" y="194.190641" style="fill: #da8bc3"/>
     <use xlink:href="#mce09332957" x="374.769646" y="192.139337" style="fill: #da8bc3"/>
     <use xlink:href="#mce09332957" x="376.496084" y="200.526487" style="fill: #da8bc3"/>
     <use xlink:href="#mce09332957" x="378.186923" y="192.535803" style="fill: #da8bc3"/>
     <use xlink:href="#mce09332957" x="379.843601" y="192.535803" style="fill: #da8bc3"/>
     <use xlink:href="#mce09332957" x="381.467471" y="197.393478" style="fill: #da8bc3"/>
     <use xlink:href="#mce09332957" x="383.059808" y="197.393478" style="fill: #da8bc3"/>
     <use xlink:href="#mce09332957" x="384.621813" y="196.908903" style="fill: #da8bc3"/>
     <use xlink:href="#mce09332957" x="386.15462" y="196.433924" style="fill: #da8bc3"/>
     <use xlink:href="#mce09332957" x="387.6593" y="202.868408" style="fill: #da8bc3"/>
     <use xlink:href="#mce09332957" x="389.136868" y="206.159265" style="fill: #da8bc3"/>
     <use xlink:href="#mce09332957" x="390.588282" y="197.888044" style="fill: #da8bc3"/>
     <use xlink:href="#mce09332957" x="392.014453" y="196.433924" style="fill: #da8bc3"/>
     <use xlink:href="#mce09332957" x="393.416244" y="205.46398" style="fill: #da8bc3"/>
     <use xlink:href="#mce09332957" x="394.794475" y="203.491447" style="fill: #da8bc3"/>
     <use xlink:href="#mce09332957" x="396.149924" y="206.159265" style="fill: #da8bc3"/>
     <use xlink:href="#mce09332957" x="397.483331" y="198.393024" style="fill: #da8bc3"/>
     <use xlink:href="#mce09332957" x="398.795404" y="204.788284" style="fill: #da8bc3"/>
     <use xlink:href="#mce09332957" x="400.086813" y="199.975068" style="fill: #da8bc3"/>
     <use xlink:href="#mce09332957" x="401.358199" y="209.974534" style="fill: #da8bc3"/>
     <use xlink:href="#mce09332957" x="402.610174" y="205.46398" style="fill: #da8bc3"/>
     <use xlink:href="#mce09332957" x="403.843322" y="209.161384" style="fill: #da8bc3"/>
     <use xlink:href="#mce09332957" x="405.0582" y="206.875308" style="fill: #da8bc3"/>
     <use xlink:href="#mce09332957" x="406.255342" y="206.875308" style="fill: #da8bc3"/>
     <use xlink:href="#mce09332957" x="407.435259" y="211.688523" style="fill: #da8bc3"/>
     <use xlink:href="#mce09332957" x="408.598438" y="209.161384" style="fill: #da8bc3"/>
     <use xlink:href="#mce09332957" x="409.745349" y="215.534445" style="fill: #da8bc3"/>
     <use xlink:href="#mce09332957" x="410.87644" y="209.161384" style="fill: #da8bc3"/>
     <use xlink:href="#mce09332957" x="411.992141" y="216.600649" style="fill: #da8bc3"/>
     <use xlink:href="#mce09332957" x="413.092866" y="211.688523" style="fill: #da8bc3"/>
     <use xlink:href="#mce09332957" x="414.179011" y="215.534445" style="fill: #da8bc3"/>
     <use xlink:href="#mce09332957" x="415.250958" y="210.816222" style="fill: #da8bc3"/>
     <use xlink:href="#mce09332957" x="416.309073" y="216.600649" style="fill: #da8bc3"/>
     <use xlink:href="#mce09332957" x="417.353709" y="211.688523" style="fill: #da8bc3"/>
     <use xlink:href="#mce09332957" x="418.385204" y="215.534445" style="fill: #da8bc3"/>
    </g>
   </g>
   <g id="line2d_17">
    <path d="M 59.04685 48.625638 
L 115.886844 74.311933 
L 149.136109 86.935509 
L 172.726838 95.511575 
L 191.025229 101.68795 
L 205.976103 107.019828 
L 218.616886 111.769047 
L 229.566831 115.928061 
L 239.225368 119.415981 
L 247.865222 122.768261 
L 255.680922 125.760206 
L 262.816096 128.422213 
L 269.379821 131.199061 
L 275.45688 133.575175 
L 281.114487 135.946944 
L 286.406825 137.83222 
L 291.378213 140.831615 
L 296.065361 142.213493 
L 300.499024 144.367498 
L 304.705216 146.616042 
L 308.706145 148.262462 
L 312.520916 148.967031 
L 316.166084 152.012524 
L 319.65609 152.610328 
L 323.003607 154.335529 
L 326.219814 155.845613 
L 329.314626 157.364765 
L 332.296874 158.692373 
L 335.17446 161.700992 
L 337.954481 160.097791 
L 340.643338 162.717007 
L 343.246819 165.014617 
L 345.770181 166.452879 
L 348.218206 169.009982 
L 350.595265 167.69737 
L 352.905355 167.982917 
L 355.152147 171.537122 
L 357.339017 173.443121 
L 359.469079 171.872591 
L 361.54521 175.513756 
L 363.570073 175.123737 
L 365.546139 177.351853 
L 367.475705 175.513756 
L 369.360909 177.78018 
L 371.203746 178.885704 
L 373.006077 179.342588 
L 374.769646 181.013905 
L 376.496084 182.810461 
L 378.186923 181.262463 
L 379.843601 185.043295 
L 381.467471 185.635563 
L 383.059808 185.937273 
L 384.621813 185.043295 
L 386.15462 187.505521 
L 387.6593 190.249727 
L 389.136868 189.533684 
L 390.588282 188.162703 
L 392.014453 192.535803 
L 393.416244 194.622827 
L 394.794475 190.249727 
L 396.149924 198.393024 
L 397.483331 195.968169 
L 398.795404 192.139337 
L 400.086813 199.436042 
L 401.358199 195.968169 
L 402.610174 195.511285 
L 403.843322 202.261144 
L 405.0582 199.436042 
L 406.255342 199.975068 
L 407.435259 195.511285 
L 408.598438 206.159265 
L 409.745349 207.613386 
L 410.87644 204.788284 
L 411.992141 199.436042 
L 413.092866 208.374899 
L 414.179011 202.261144 
L 415.250958 215.534445 
L 416.309073 208.374899 
L 417.353709 206.159265 
L 418.385204 211.688523 
" clip-path="url(#p68488ec9d6)" style="fill: none; stroke: #8c8c8c"/>
   </g>
   <g id="PathCollection_3">
    <defs>
     <path id="m55b6469dcd" d="M -0.574025 -1.385819 
L -1.385819 -0.574025 
L -1.385819 0.574025 
L -0.574025 1.385819 
L 0.574025 1.385819 
L 1.385819 0.574025 
L 1.385819 -0.574025 
L 0.574025 -1.385819 
z
"/>
    </defs>
    <g clip-path="url(#p68488ec9d6)">
     <use xlink:href="#m55b6469dcd" x="59.04685" y="48.625638" style="fill: #8c8c8c"/>
     <use xlink:href="#m55b6469dcd" x="115.886844" y="74.311933" style="fill: #8c8c8c"/>
     <use xlink:href="#m55b6469dcd" x="149.136109" y="86.935509" style="fill: #8c8c8c"/>
     <use xlink:href="#m55b6469dcd" x="172.726838" y="95.511575" style="fill: #8c8c8c"/>
     <use xlink:href="#m55b6469dcd" x="191.025229" y="101.68795" style="fill: #8c8c8c"/>
     <use xlink:href="#m55b6469dcd" x="205.976103" y="107.019828" style="fill: #8c8c8c"/>
     <use xlink:href="#m55b6469dcd" x="218.616886" y="111.769047" style="fill: #8c8c8c"/>
     <use xlink:href="#m55b6469dcd" x="229.566831" y="115.928061" style="fill: #8c8c8c"/>
     <use xlink:href="#m55b6469dcd" x="239.225368" y="119.415981" style="fill: #8c8c8c"/>
     <use xlink:href="#m55b6469dcd" x="247.865222" y="122.768261" style="fill: #8c8c8c"/>
     <use xlink:href="#m55b6469dcd" x="255.680922" y="125.760206" style="fill: #8c8c8c"/>
     <use xlink:href="#m55b6469dcd" x="262.816096" y="128.422213" style="fill: #8c8c8c"/>
     <use xlink:href="#m55b6469dcd" x="269.379821" y="131.199061" style="fill: #8c8c8c"/>
     <use xlink:href="#m55b6469dcd" x="275.45688" y="133.575175" style="fill: #8c8c8c"/>
     <use xlink:href="#m55b6469dcd" x="281.114487" y="135.946944" style="fill: #8c8c8c"/>
     <use xlink:href="#m55b6469dcd" x="286.406825" y="137.83222" style="fill: #8c8c8c"/>
     <use xlink:href="#m55b6469dcd" x="291.378213" y="140.831615" style="fill: #8c8c8c"/>
     <use xlink:href="#m55b6469dcd" x="296.065361" y="142.213493" style="fill: #8c8c8c"/>
     <use xlink:href="#m55b6469dcd" x="300.499024" y="144.367498" style="fill: #8c8c8c"/>
     <use xlink:href="#m55b6469dcd" x="304.705216" y="146.616042" style="fill: #8c8c8c"/>
     <use xlink:href="#m55b6469dcd" x="308.706145" y="148.262462" style="fill: #8c8c8c"/>
     <use xlink:href="#m55b6469dcd" x="312.520916" y="148.967031" style="fill: #8c8c8c"/>
     <use xlink:href="#m55b6469dcd" x="316.166084" y="152.012524" style="fill: #8c8c8c"/>
     <use xlink:href="#m55b6469dcd" x="319.65609" y="152.610328" style="fill: #8c8c8c"/>
     <use xlink:href="#m55b6469dcd" x="323.003607" y="154.335529" style="fill: #8c8c8c"/>
     <use xlink:href="#m55b6469dcd" x="326.219814" y="155.845613" style="fill: #8c8c8c"/>
     <use xlink:href="#m55b6469dcd" x="329.314626" y="157.364765" style="fill: #8c8c8c"/>
     <use xlink:href="#m55b6469dcd" x="332.296874" y="158.692373" style="fill: #8c8c8c"/>
     <use xlink:href="#m55b6469dcd" x="335.17446" y="161.700992" style="fill: #8c8c8c"/>
     <use xlink:href="#m55b6469dcd" x="337.954481" y="160.097791" style="fill: #8c8c8c"/>
     <use xlink:href="#m55b6469dcd" x="340.643338" y="162.717007" style="fill: #8c8c8c"/>
     <use xlink:href="#m55b6469dcd" x="343.246819" y="165.014617" style="fill: #8c8c8c"/>
     <use xlink:href="#m55b6469dcd" x="345.770181" y="166.452879" style="fill: #8c8c8c"/>
     <use xlink:href="#m55b6469dcd" x="348.218206" y="169.009982" style="fill: #8c8c8c"/>
     <use xlink:href="#m55b6469dcd" x="350.595265" y="167.69737" style="fill: #8c8c8c"/>
     <use xlink:href="#m55b6469dcd" x="352.905355" y="167.982917" style="fill: #8c8c8c"/>
     <use xlink:href="#m55b6469dcd" x="355.152147" y="171.537122" style="fill: #8c8c8c"/>
     <use xlink:href="#m55b6469dcd" x="357.339017" y="173.443121" style="fill: #8c8c8c"/>
     <use xlink:href="#m55b6469dcd" x="359.469079" y="171.872591" style="fill: #8c8c8c"/>
     <use xlink:href="#m55b6469dcd" x="361.54521" y="175.513756" style="fill: #8c8c8c"/>
     <use xlink:href="#m55b6469dcd" x="363.570073" y="175.123737" style="fill: #8c8c8c"/>
     <use xlink:href="#m55b6469dcd" x="365.546139" y="177.351853" style="fill: #8c8c8c"/>
     <use xlink:href="#m55b6469dcd" x="367.475705" y="175.513756" style="fill: #8c8c8c"/>
     <use xlink:href="#m55b6469dcd" x="369.360909" y="177.78018" style="fill: #8c8c8c"/>
     <use xlink:href="#m55b6469dcd" x="371.203746" y="178.885704" style="fill: #8c8c8c"/>
     <use xlink:href="#m55b6469dcd" x="373.006077" y="179.342588" style="fill: #8c8c8c"/>
     <use xlink:href="#m55b6469dcd" x="374.769646" y="181.013905" style="fill: #8c8c8c"/>
     <use xlink:href="#m55b6469dcd" x="376.496084" y="182.810461" style="fill: #8c8c8c"/>
     <use xlink:href="#m55b6469dcd" x="378.186923" y="181.262463" style="fill: #8c8c8c"/>
     <use xlink:href="#m55b6469dcd" x="379.843601" y="185.043295" style="fill: #8c8c8c"/>
     <use xlink:href="#m55b6469dcd" x="381.467471" y="185.635563" style="fill: #8c8c8c"/>
     <use xlink:href="#m55b6469dcd" x="383.059808" y="185.937273" style="fill: #8c8c8c"/>
     <use xlink:href="#m55b6469dcd" x="384.621813" y="185.043295" style="fill: #8c8c8c"/>
     <use xlink:href="#m55b6469dcd" x="386.15462" y="187.505521" style="fill: #8c8c8c"/>
     <use xlink:href="#m55b6469dcd" x="387.6593" y="190.249727" style="fill: #8c8c8c"/>
     <use xlink:href="#m55b6469dcd" x="389.136868" y="189.533684" style="fill: #8c8c8c"/>
     <use xlink:href="#m55b6469dcd" x="390.588282" y="188.162703" style="fill: #8c8c8c"/>
     <use xlink:href="#m55b6469dcd" x="392.014453" y="192.535803" style="fill: #8c8c8c"/>
     <use xlink:href="#m55b6469dcd" x="393.416244" y="194.622827" style="fill: #8c8c8c"/>
     <use xlink:href="#m55b6469dcd" x="394.794475" y="190.249727" style="fill: #8c8c8c"/>
     <use xlink:href="#m55b6469dcd" x="396.149924" y="198.393024" style="fill: #8c8c8c"/>
     <use xlink:href="#m55b6469dcd" x="397.483331" y="195.968169" style="fill: #8c8c8c"/>
     <use xlink:href="#m55b6469dcd" x="398.795404" y="192.139337" style="fill: #8c8c8c"/>
     <use xlink:href="#m55b6469dcd" x="400.086813" y="199.436042" style="fill: #8c8c8c"/>
     <use xlink:href="#m55b6469dcd" x="401.358199" y="195.968169" style="fill: #8c8c8c"/>
     <use xlink:href="#m55b6469dcd" x="402.610174" y="195.511285" style="fill: #8c8c8c"/>
     <use xlink:href="#m55b6469dcd" x="403.843322" y="202.261144" style="fill: #8c8c8c"/>
     <use xlink:href="#m55b6469dcd" x="405.0582" y="199.436042" style="fill: #8c8c8c"/>
     <use xlink:href="#m55b6469dcd" x="406.255342" y="199.975068" style="fill: #8c8c8c"/>
     <use xlink:href="#m55b6469dcd" x="407.435259" y="195.511285" style="fill: #8c8c8c"/>
     <use xlink:href="#m55b6469dcd" x="408.598438" y="206.159265" style="fill: #8c8c8c"/>
     <use xlink:href="#m55b6469dcd" x="409.745349" y="207.613386" style="fill: #8c8c8c"/>
     <use xlink:href="#m55b6469dcd" x="410.87644" y="204.788284" style="fill: #8c8c8c"/>
     <use xlink:href="#m55b6469dcd" x="411.992141" y="199.436042" style="fill: #8c8c8c"/>
     <use xlink:href="#m55b6469dcd" x="413.092866" y="208.374899" style="fill: #8c8c8c"/>
     <use xlink:href="#m55b6469dcd" x="414.179011" y="202.261144" style="fill: #8c8c8c"/>
     <use xlink:href="#m55b6469dcd" x="415.250958" y="215.534445" style="fill: #8c8c8c"/>
     <use xlink:href="#m55b6469dcd" x="416.309073" y="208.374899" style="fill: #8c8c8c"/>
     <use xlink:href="#m55b6469dcd" x="417.353709" y="206.159265" style="fill: #8c8c8c"/>
     <use xlink:href="#m55b6469dcd" x="418.385204" y="211.688523" style="fill: #8c8c8c"/>
    </g>
   </g>
   <g id="line2d_18">
    <path d="M 59.04685 73.675551 
L 115.886844 77.728065 
L 149.136109 82.566489 
L 172.726838 87.280632 
L 191.025229 91.755252 
L 205.976103 95.814437 
L 218.616886 99.657585 
L 229.566831 103.191923 
L 239.225368 106.350729 
L 247.865222 109.420394 
L 255.680922 112.144156 
L 262.816096 115.011301 
L 269.379821 117.643872 
L 275.45688 120.128002 
L 281.114487 122.443394 
L 286.406825 124.934708 
L 291.378213 126.95024 
L 296.065361 128.83985 
L 300.499024 131.199061 
L 304.705216 133.575175 
L 308.706145 134.839718 
L 312.520916 137.266876 
L 316.166084 138.706035 
L 319.65609 141.393804 
L 323.003607 142.262594 
L 326.219814 144.047684 
L 329.314626 145.861896 
L 332.296874 147.39467 
L 335.17446 148.644205 
L 337.954481 151.07179 
L 340.643338 151.938835 
L 343.246819 153.693734 
L 345.770181 155.845613 
L 348.218206 156.637872 
L 350.595265 158.019385 
L 352.905355 159.485359 
L 355.152147 161.480939 
L 357.339017 164.020251 
L 359.469079 164.265005 
L 361.54521 166.318506 
L 363.570073 169.160363 
L 365.546139 167.555862 
L 367.475705 169.771495 
L 369.360909 170.87994 
L 371.203746 173.08512 
L 373.006077 171.042555 
L 374.769646 174.550348 
L 376.496084 175.513756 
L 378.186923 177.351853 
L 379.843601 175.910222 
L 381.467471 180.044657 
L 383.059808 179.342588 
L 384.621813 179.574335 
L 386.15462 182.023976 
L 387.6593 183.900906 
L 389.136868 185.635563 
L 390.588282 183.623612 
L 392.014453 185.043295 
L 393.416244 185.337601 
L 394.794475 188.8384 
L 396.149924 192.139337 
L 397.483331 190.615927 
L 398.795404 188.162703 
L 400.086813 196.433924 
L 401.358199 192.139337 
L 402.610174 197.393478 
L 403.843322 193.766105 
L 405.0582 201.668876 
L 406.255342 199.436042 
L 407.435259 195.968169 
L 408.598438 202.261144 
L 409.745349 201.090881 
L 410.87644 202.868408 
L 411.992141 206.875308 
L 413.092866 206.875308 
L 414.179011 206.875308 
L 415.250958 206.875308 
L 416.309073 209.161384 
L 417.353709 212.593749 
L 418.385204 209.974534 
" clip-path="url(#p68488ec9d6)" style="fill: none; stroke: #ccb974"/>
   </g>
   <g id="PathCollection_4">
    <defs>
     <path id="mcf6046a1b9" d="M -0.574025 -1.385819 
L -1.385819 -0.574025 
L -1.385819 0.574025 
L -0.574025 1.385819 
L 0.574025 1.385819 
L 1.385819 0.574025 
L 1.385819 -0.574025 
L 0.574025 -1.385819 
z
"/>
    </defs>
    <g clip-path="url(#p68488ec9d6)">
     <use xlink:href="#mcf6046a1b9" x="59.04685" y="73.675551" style="fill: #ccb974"/>
     <use xlink:href="#mcf6046a1b9" x="115.886844" y="77.728065" style="fill: #ccb974"/>
     <use xlink:href="#mcf6046a1b9" x="149.136109" y="82.566489" style="fill: #ccb974"/>
     <use xlink:href="#mcf6046a1b9" x="172.726838" y="87.280632" style="fill: #ccb974"/>
     <use xlink:href="#mcf6046a1b9" x="191.025229" y="91.755252" style="fill: #ccb974"/>
     <use xlink:href="#mcf6046a1b9" x="205.976103" y="95.814437" style="fill: #ccb974"/>
     <use xlink:href="#mcf6046a1b9" x="218.616886" y="99.657585" style="fill: #ccb974"/>
     <use xlink:href="#mcf6046a1b9" x="229.566831" y="103.191923" style="fill: #ccb974"/>
     <use xlink:href="#mcf6046a1b9" x="239.225368" y="106.350729" style="fill: #ccb974"/>
     <use xlink:href="#mcf6046a1b9" x="247.865222" y="109.420394" style="fill: #ccb974"/>
     <use xlink:href="#mcf6046a1b9" x="255.680922" y="112.144156" style="fill: #ccb974"/>
     <use xlink:href="#mcf6046a1b9" x="262.816096" y="115.011301" style="fill: #ccb974"/>
     <use xlink:href="#mcf6046a1b9" x="269.379821" y="117.643872" style="fill: #ccb974"/>
     <use xlink:href="#mcf6046a1b9" x="275.45688" y="120.128002" style="fill: #ccb974"/>
     <use xlink:href="#mcf6046a1b9" x="281.114487" y="122.443394" style="fill: #ccb974"/>
     <use xlink:href="#mcf6046a1b9" x="286.406825" y="124.934708" style="fill: #ccb974"/>
     <use xlink:href="#mcf6046a1b9" x="291.378213" y="126.95024" style="fill: #ccb974"/>
     <use xlink:href="#mcf6046a1b9" x="296.065361" y="128.83985" style="fill: #ccb974"/>
     <use xlink:href="#mcf6046a1b9" x="300.499024" y="131.199061" style="fill: #ccb974"/>
     <use xlink:href="#mcf6046a1b9" x="304.705216" y="133.575175" style="fill: #ccb974"/>
     <use xlink:href="#mcf6046a1b9" x="308.706145" y="134.839718" style="fill: #ccb974"/>
     <use xlink:href="#mcf6046a1b9" x="312.520916" y="137.266876" style="fill: #ccb974"/>
     <use xlink:href="#mcf6046a1b9" x="316.166084" y="138.706035" style="fill: #ccb974"/>
     <use xlink:href="#mcf6046a1b9" x="319.65609" y="141.393804" style="fill: #ccb974"/>
     <use xlink:href="#mcf6046a1b9" x="323.003607" y="142.262594" style="fill: #ccb974"/>
     <use xlink:href="#mcf6046a1b9" x="326.219814" y="144.047684" style="fill: #ccb974"/>
     <use xlink:href="#mcf6046a1b9" x="329.314626" y="145.861896" style="fill: #ccb974"/>
     <use xlink:href="#mcf6046a1b9" x="332.296874" y="147.39467" style="fill: #ccb974"/>
     <use xlink:href="#mcf6046a1b9" x="335.17446" y="148.644205" style="fill: #ccb974"/>
     <use xlink:href="#mcf6046a1b9" x="337.954481" y="151.07179" style="fill: #ccb974"/>
     <use xlink:href="#mcf6046a1b9" x="340.643338" y="151.938835" style="fill: #ccb974"/>
     <use xlink:href="#mcf6046a1b9" x="343.246819" y="153.693734" style="fill: #ccb974"/>
     <use xlink:href="#mcf6046a1b9" x="345.770181" y="155.845613" style="fill: #ccb974"/>
     <use xlink:href="#mcf6046a1b9" x="348.218206" y="156.637872" style="fill: #ccb974"/>
     <use xlink:href="#mcf6046a1b9" x="350.595265" y="158.019385" style="fill: #ccb974"/>
     <use xlink:href="#mcf6046a1b9" x="352.905355" y="159.485359" style="fill: #ccb974"/>
     <use xlink:href="#mcf6046a1b9" x="355.152147" y="161.480939" style="fill: #ccb974"/>
     <use xlink:href="#mcf6046a1b9" x="357.339017" y="164.020251" style="fill: #ccb974"/>
     <use xlink:href="#mcf6046a1b9" x="359.469079" y="164.265005" style="fill: #ccb974"/>
     <use xlink:href="#mcf6046a1b9" x="361.54521" y="166.318506" style="fill: #ccb974"/>
     <use xlink:href="#mcf6046a1b9" x="363.570073" y="169.160363" style="fill: #ccb974"/>
     <use xlink:href="#mcf6046a1b9" x="365.546139" y="167.555862" style="fill: #ccb974"/>
     <use xlink:href="#mcf6046a1b9" x="367.475705" y="169.771495" style="fill: #ccb974"/>
     <use xlink:href="#mcf6046a1b9" x="369.360909" y="170.87994" style="fill: #ccb974"/>
     <use xlink:href="#mcf6046a1b9" x="371.203746" y="173.08512" style="fill: #ccb974"/>
     <use xlink:href="#mcf6046a1b9" x="373.006077" y="171.042555" style="fill: #ccb974"/>
     <use xlink:href="#mcf6046a1b9" x="374.769646" y="174.550348" style="fill: #ccb974"/>
     <use xlink:href="#mcf6046a1b9" x="376.496084" y="175.513756" style="fill: #ccb974"/>
     <use xlink:href="#mcf6046a1b9" x="378.186923" y="177.351853" style="fill: #ccb974"/>
     <use xlink:href="#mcf6046a1b9" x="379.843601" y="175.910222" style="fill: #ccb974"/>
     <use xlink:href="#mcf6046a1b9" x="381.467471" y="180.044657" style="fill: #ccb974"/>
     <use xlink:href="#mcf6046a1b9" x="383.059808" y="179.342588" style="fill: #ccb974"/>
     <use xlink:href="#mcf6046a1b9" x="384.621813" y="179.574335" style="fill: #ccb974"/>
     <use xlink:href="#mcf6046a1b9" x="386.15462" y="182.023976" style="fill: #ccb974"/>
     <use xlink:href="#mcf6046a1b9" x="387.6593" y="183.900906" style="fill: #ccb974"/>
     <use xlink:href="#mcf6046a1b9" x="389.136868" y="185.635563" style="fill: #ccb974"/>
     <use xlink:href="#mcf6046a1b9" x="390.588282" y="183.623612" style="fill: #ccb974"/>
     <use xlink:href="#mcf6046a1b9" x="392.014453" y="185.043295" style="fill: #ccb974"/>
     <use xlink:href="#mcf6046a1b9" x="393.416244" y="185.337601" style="fill: #ccb974"/>
     <use xlink:href="#mcf6046a1b9" x="394.794475" y="188.8384" style="fill: #ccb974"/>
     <use xlink:href="#mcf6046a1b9" x="396.149924" y="192.139337" style="fill: #ccb974"/>
     <use xlink:href="#mcf6046a1b9" x="397.483331" y="190.615927" style="fill: #ccb974"/>
     <use xlink:href="#mcf6046a1b9" x="398.795404" y="188.162703" style="fill: #ccb974"/>
     <use xlink:href="#mcf6046a1b9" x="400.086813" y="196.433924" style="fill: #ccb974"/>
     <use xlink:href="#mcf6046a1b9" x="401.358199" y="192.139337" style="fill: #ccb974"/>
     <use xlink:href="#mcf6046a1b9" x="402.610174" y="197.393478" style="fill: #ccb974"/>
     <use xlink:href="#mcf6046a1b9" x="403.843322" y="193.766105" style="fill: #ccb974"/>
     <use xlink:href="#mcf6046a1b9" x="405.0582" y="201.668876" style="fill: #ccb974"/>
     <use xlink:href="#mcf6046a1b9" x="406.255342" y="199.436042" style="fill: #ccb974"/>
     <use xlink:href="#mcf6046a1b9" x="407.435259" y="195.968169" style="fill: #ccb974"/>
     <use xlink:href="#mcf6046a1b9" x="408.598438" y="202.261144" style="fill: #ccb974"/>
     <use xlink:href="#mcf6046a1b9" x="409.745349" y="201.090881" style="fill: #ccb974"/>
     <use xlink:href="#mcf6046a1b9" x="410.87644" y="202.868408" style="fill: #ccb974"/>
     <use xlink:href="#mcf6046a1b9" x="411.992141" y="206.875308" style="fill: #ccb974"/>
     <use xlink:href="#mcf6046a1b9" x="413.092866" y="206.875308" style="fill: #ccb974"/>
     <use xlink:href="#mcf6046a1b9" x="414.179011" y="206.875308" style="fill: #ccb974"/>
     <use xlink:href="#mcf6046a1b9" x="415.250958" y="206.875308" style="fill: #ccb974"/>
     <use xlink:href="#mcf6046a1b9" x="416.309073" y="209.161384" style="fill: #ccb974"/>
     <use xlink:href="#mcf6046a1b9" x="417.353709" y="212.593749" style="fill: #ccb974"/>
     <use xlink:href="#mcf6046a1b9" x="418.385204" y="209.974534" style="fill: #ccb974"/>
    </g>
   </g>
   <g id="line2d_19">
    <path d="M 59.04685 97.548385 
L 115.886844 97.693591 
L 149.136109 98.111147 
L 172.726838 98.48851 
L 191.025229 99.041587 
L 205.976103 99.59112 
L 218.616886 100.703377 
L 229.566831 101.319555 
L 239.225368 102.24674 
L 247.865222 103.307889 
L 255.680922 104.519844 
L 262.816096 105.476071 
L 269.379821 106.783514 
L 275.45688 108.17822 
L 281.114487 109.395409 
L 286.406825 110.55943 
L 291.378213 112.228316 
L 296.065361 113.453442 
L 300.499024 114.916807 
L 304.705216 116.224999 
L 308.706145 118.196109 
L 312.520916 119.530018 
L 316.166084 121.186217 
L 319.65609 122.724691 
L 323.003607 124.602885 
L 326.219814 126.234197 
L 329.314626 127.688318 
L 332.296874 129.9316 
L 335.17446 131.385721 
L 337.954481 133.575175 
L 340.643338 135.276494 
L 343.246819 137.187189 
L 345.770181 139.004527 
L 348.218206 141.631995 
L 350.595265 143.420573 
L 352.905355 145.241786 
L 355.152147 147.152389 
L 357.339017 148.967031 
L 359.469079 152.160584 
L 361.54521 154.254359 
L 363.570073 155.416521 
L 365.546139 157.736643 
L 367.475705 159.284641 
L 369.360909 163.419076 
L 371.203746 164.265005 
L 373.006077 166.860577 
L 374.769646 167.982917 
L 376.496084 169.009982 
L 378.186923 174.550348 
L 379.843601 175.317954 
L 381.467471 176.313351 
L 383.059808 183.349487 
L 384.621813 179.342588 
L 386.15462 183.349487 
L 387.6593 187.831861 
L 389.136868 186.552324 
L 390.588282 188.8384 
L 392.014453 195.511285 
L 393.416244 193.766105 
L 394.794475 196.433924 
L 396.149924 195.062943 
L 397.483331 198.908864 
L 398.795404 202.868408 
L 400.086813 198.393024 
L 401.358199 209.974534 
L 402.610174 202.868408 
L 403.843322 211.688523 
L 405.0582 210.816222 
L 406.255342 218.886725 
L 407.435259 215.534445 
L 408.598438 221.413865 
L 409.745349 229.21933 
L 410.87644 215.534445 
L 411.992141 225.786965 
L 413.092866 235.512306 
L 414.179011 221.413865 
L 415.250958 225.786965 
L 416.309073 247.764787 
L 417.353709 221.413865 
L 418.385204 240.864548 
" clip-path="url(#p68488ec9d6)" style="fill: none; stroke: #4c72b0"/>
   </g>
   <g id="PathCollection_5">
    <defs>
     <path id="md72780f3b3" d="M -0.574025 -1.385819 
L -1.385819 -0.574025 
L -1.385819 0.574025 
L -0.574025 1.385819 
L 0.574025 1.385819 
L 1.385819 0.574025 
L 1.385819 -0.574025 
L 0.574025 -1.385819 
z
"/>
    </defs>
    <g clip-path="url(#p68488ec9d6)">
     <use xlink:href="#md72780f3b3" x="59.04685" y="97.548385" style="fill: #4c72b0"/>
     <use xlink:href="#md72780f3b3" x="115.886844" y="97.693591" style="fill: #4c72b0"/>
     <use xlink:href="#md72780f3b3" x="149.136109" y="98.111147" style="fill: #4c72b0"/>
     <use xlink:href="#md72780f3b3" x="172.726838" y="98.48851" style="fill: #4c72b0"/>
     <use xlink:href="#md72780f3b3" x="191.025229" y="99.041587" style="fill: #4c72b0"/>
     <use xlink:href="#md72780f3b3" x="205.976103" y="99.59112" style="fill: #4c72b0"/>
     <use xlink:href="#md72780f3b3" x="218.616886" y="100.703377" style="fill: #4c72b0"/>
     <use xlink:href="#md72780f3b3" x="229.566831" y="101.319555" style="fill: #4c72b0"/>
     <use xlink:href="#md72780f3b3" x="239.225368" y="102.24674" style="fill: #4c72b0"/>
     <use xlink:href="#md72780f3b3" x="247.865222" y="103.307889" style="fill: #4c72b0"/>
     <use xlink:href="#md72780f3b3" x="255.680922" y="104.519844" style="fill: #4c72b0"/>
     <use xlink:href="#md72780f3b3" x="262.816096" y="105.476071" style="fill: #4c72b0"/>
     <use xlink:href="#md72780f3b3" x="269.379821" y="106.783514" style="fill: #4c72b0"/>
     <use xlink:href="#md72780f3b3" x="275.45688" y="108.17822" style="fill: #4c72b0"/>
     <use xlink:href="#md72780f3b3" x="281.114487" y="109.395409" style="fill: #4c72b0"/>
     <use xlink:href="#md72780f3b3" x="286.406825" y="110.55943" style="fill: #4c72b0"/>
     <use xlink:href="#md72780f3b3" x="291.378213" y="112.228316" style="fill: #4c72b0"/>
     <use xlink:href="#md72780f3b3" x="296.065361" y="113.453442" style="fill: #4c72b0"/>
     <use xlink:href="#md72780f3b3" x="300.499024" y="114.916807" style="fill: #4c72b0"/>
     <use xlink:href="#md72780f3b3" x="304.705216" y="116.224999" style="fill: #4c72b0"/>
     <use xlink:href="#md72780f3b3" x="308.706145" y="118.196109" style="fill: #4c72b0"/>
     <use xlink:href="#md72780f3b3" x="312.520916" y="119.530018" style="fill: #4c72b0"/>
     <use xlink:href="#md72780f3b3" x="316.166084" y="121.186217" style="fill: #4c72b0"/>
     <use xlink:href="#md72780f3b3" x="319.65609" y="122.724691" style="fill: #4c72b0"/>
     <use xlink:href="#md72780f3b3" x="323.003607" y="124.602885" style="fill: #4c72b0"/>
     <use xlink:href="#md72780f3b3" x="326.219814" y="126.234197" style="fill: #4c72b0"/>
     <use xlink:href="#md72780f3b3" x="329.314626" y="127.688318" style="fill: #4c72b0"/>
     <use xlink:href="#md72780f3b3" x="332.296874" y="129.9316" style="fill: #4c72b0"/>
     <use xlink:href="#md72780f3b3" x="335.17446" y="131.385721" style="fill: #4c72b0"/>
     <use xlink:href="#md72780f3b3" x="337.954481" y="133.575175" style="fill: #4c72b0"/>
     <use xlink:href="#md72780f3b3" x="340.643338" y="135.276494" style="fill: #4c72b0"/>
     <use xlink:href="#md72780f3b3" x="343.246819" y="137.187189" style="fill: #4c72b0"/>
     <use xlink:href="#md72780f3b3" x="345.770181" y="139.004527" style="fill: #4c72b0"/>
     <use xlink:href="#md72780f3b3" x="348.218206" y="141.631995" style="fill: #4c72b0"/>
     <use xlink:href="#md72780f3b3" x="350.595265" y="143.420573" style="fill: #4c72b0"/>
     <use xlink:href="#md72780f3b3" x="352.905355" y="145.241786" style="fill: #4c72b0"/>
     <use xlink:href="#md72780f3b3" x="355.152147" y="147.152389" style="fill: #4c72b0"/>
     <use xlink:href="#md72780f3b3" x="357.339017" y="148.967031" style="fill: #4c72b0"/>
     <use xlink:href="#md72780f3b3" x="359.469079" y="152.160584" style="fill: #4c72b0"/>
     <use xlink:href="#md72780f3b3" x="361.54521" y="154.254359" style="fill: #4c72b0"/>
     <use xlink:href="#md72780f3b3" x="363.570073" y="155.416521" style="fill: #4c72b0"/>
     <use xlink:href="#md72780f3b3" x="365.546139" y="157.736643" style="fill: #4c72b0"/>
     <use xlink:href="#md72780f3b3" x="367.475705" y="159.284641" style="fill: #4c72b0"/>
     <use xlink:href="#md72780f3b3" x="369.360909" y="163.419076" style="fill: #4c72b0"/>
     <use xlink:href="#md72780f3b3" x="371.203746" y="164.265005" style="fill: #4c72b0"/>
     <use xlink:href="#md72780f3b3" x="373.006077" y="166.860577" style="fill: #4c72b0"/>
     <use xlink:href="#md72780f3b3" x="374.769646" y="167.982917" style="fill: #4c72b0"/>
     <use xlink:href="#md72780f3b3" x="376.496084" y="169.009982" style="fill: #4c72b0"/>
     <use xlink:href="#md72780f3b3" x="378.186923" y="174.550348" style="fill: #4c72b0"/>
     <use xlink:href="#md72780f3b3" x="379.843601" y="175.317954" style="fill: #4c72b0"/>
     <use xlink:href="#md72780f3b3" x="381.467471" y="176.313351" style="fill: #4c72b0"/>
     <use xlink:href="#md72780f3b3" x="383.059808" y="183.349487" style="fill: #4c72b0"/>
     <use xlink:href="#md72780f3b3" x="384.621813" y="179.342588" style="fill: #4c72b0"/>
     <use xlink:href="#md72780f3b3" x="386.15462" y="183.349487" style="fill: #4c72b0"/>
     <use xlink:href="#md72780f3b3" x="387.6593" y="187.831861" style="fill: #4c72b0"/>
     <use xlink:href="#md72780f3b3" x="389.136868" y="186.552324" style="fill: #4c72b0"/>
     <use xlink:href="#md72780f3b3" x="390.588282" y="188.8384" style="fill: #4c72b0"/>
     <use xlink:href="#md72780f3b3" x="392.014453" y="195.511285" style="fill: #4c72b0"/>
     <use xlink:href="#md72780f3b3" x="393.416244" y="193.766105" style="fill: #4c72b0"/>
     <use xlink:href="#md72780f3b3" x="394.794475" y="196.433924" style="fill: #4c72b0"/>
     <use xlink:href="#md72780f3b3" x="396.149924" y="195.062943" style="fill: #4c72b0"/>
     <use xlink:href="#md72780f3b3" x="397.483331" y="198.908864" style="fill: #4c72b0"/>
     <use xlink:href="#md72780f3b3" x="398.795404" y="202.868408" style="fill: #4c72b0"/>
     <use xlink:href="#md72780f3b3" x="400.086813" y="198.393024" style="fill: #4c72b0"/>
     <use xlink:href="#md72780f3b3" x="401.358199" y="209.974534" style="fill: #4c72b0"/>
     <use xlink:href="#md72780f3b3" x="402.610174" y="202.868408" style="fill: #4c72b0"/>
     <use xlink:href="#md72780f3b3" x="403.843322" y="211.688523" style="fill: #4c72b0"/>
     <use xlink:href="#md72780f3b3" x="405.0582" y="210.816222" style="fill: #4c72b0"/>
     <use xlink:href="#md72780f3b3" x="406.255342" y="218.886725" style="fill: #4c72b0"/>
     <use xlink:href="#md72780f3b3" x="407.435259" y="215.534445" style="fill: #4c72b0"/>
     <use xlink:href="#md72780f3b3" x="408.598438" y="221.413865" style="fill: #4c72b0"/>
     <use xlink:href="#md72780f3b3" x="409.745349" y="229.21933" style="fill: #4c72b0"/>
     <use xlink:href="#md72780f3b3" x="410.87644" y="215.534445" style="fill: #4c72b0"/>
     <use xlink:href="#md72780f3b3" x="411.992141" y="225.786965" style="fill: #4c72b0"/>
     <use xlink:href="#md72780f3b3" x="413.092866" y="235.512306" style="fill: #4c72b0"/>
     <use xlink:href="#md72780f3b3" x="414.179011" y="221.413865" style="fill: #4c72b0"/>
     <use xlink:href="#md72780f3b3" x="415.250958" y="225.786965" style="fill: #4c72b0"/>
     <use xlink:href="#md72780f3b3" x="416.309073" y="247.764787" style="fill: #4c72b0"/>
     <use xlink:href="#md72780f3b3" x="417.353709" y="221.413865" style="fill: #4c72b0"/>
     <use xlink:href="#md72780f3b3" x="418.385204" y="240.864548" style="fill: #4c72b0"/>
    </g>
   </g>
   <g id="legend_1">
    <g id="patch_7">
     <path d="M 323.523167 109.025271 
L 424.165354 109.025271 
L 424.165354 24.634646 
L 323.523167 24.634646 
z
" style="fill: #ffffff; stroke: #000000; stroke-linejoin: miter"/>
    </g>
    <g id="line2d_20">
     <path d="M 331.523167 36.733083 
L 341.523167 36.733083 
L 351.523167 36.733083 
" style="fill: none; stroke: #937860; stroke-width: 1.25; stroke-linejoin: miter"/>
    </g>
    <g id="text_11">
     <!-- depth = 5 -->
     <g transform="translate(359.523167 40.233083) scale(0.1 -0.1)">
      <defs>
       <path id="DejaVuSerif-35" d="M 3219 4666 
L 3219 4153 
L 1081 4153 
L 1081 2816 
Q 1244 2928 1461 2984 
Q 1678 3041 1947 3041 
Q 2703 3041 3140 2622 
Q 3578 2203 3578 1478 
Q 3578 738 3136 323 
Q 2694 -91 1894 -91 
Q 1572 -91 1234 -12 
Q 897 66 544 225 
L 544 1131 
L 897 1131 
Q 925 688 1179 453 
Q 1434 219 1894 219 
Q 2388 219 2653 544 
Q 2919 869 2919 1478 
Q 2919 2084 2655 2407 
Q 2391 2731 1894 2731 
Q 1613 2731 1398 2631 
Q 1184 2531 1019 2322 
L 750 2322 
L 750 4666 
L 3219 4666 
z
" transform="scale(0.015625)"/>
      </defs>
      <use xlink:href="#DejaVuSerif-64"/>
      <use xlink:href="#DejaVuSerif-65" x="64.013672"/>
      <use xlink:href="#DejaVuSerif-70" x="123.193359"/>
      <use xlink:href="#DejaVuSerif-74" x="187.207031"/>
      <use xlink:href="#DejaVuSerif-68" x="227.392578"/>
      <use xlink:href="#DejaVuSerif-20" x="291.796875"/>
      <use xlink:href="#DejaVuSerif-3d" x="323.583984"/>
      <use xlink:href="#DejaVuSerif-20" x="407.373047"/>
      <use xlink:href="#DejaVuSerif-35" x="439.160156"/>
     </g>
    </g>
    <g id="line2d_21">
     <path d="M 331.523167 51.411208 
L 341.523167 51.411208 
L 351.523167 51.411208 
" style="fill: none; stroke: #da8bc3; stroke-width: 1.25; stroke-linejoin: miter"/>
    </g>
    <g id="text_12">
     <!-- depth = 6 -->
     <g transform="translate(359.523167 54.911208) scale(0.1 -0.1)">
      <defs>
       <path id="DejaVuSerif-36" d="M 2094 219 
Q 2534 219 2771 542 
Q 3009 866 3009 1472 
Q 3009 2078 2771 2401 
Q 2534 2725 2094 2725 
Q 1647 2725 1412 2412 
Q 1178 2100 1178 1509 
Q 1178 888 1415 553 
Q 1653 219 2094 219 
z
M 1075 2569 
Q 1288 2803 1556 2918 
Q 1825 3034 2163 3034 
Q 2859 3034 3264 2615 
Q 3669 2197 3669 1472 
Q 3669 763 3233 336 
Q 2797 -91 2069 -91 
Q 1278 -91 853 498 
Q 428 1088 428 2181 
Q 428 3406 931 4078 
Q 1434 4750 2350 4750 
Q 2597 4750 2869 4703 
Q 3141 4656 3425 4563 
L 3425 3794 
L 3072 3794 
Q 3034 4109 2831 4275 
Q 2628 4441 2284 4441 
Q 1678 4441 1381 3981 
Q 1084 3522 1075 2569 
z
" transform="scale(0.015625)"/>
      </defs>
      <use xlink:href="#DejaVuSerif-64"/>
      <use xlink:href="#DejaVuSerif-65" x="64.013672"/>
      <use xlink:href="#DejaVuSerif-70" x="123.193359"/>
      <use xlink:href="#DejaVuSerif-74" x="187.207031"/>
      <use xlink:href="#DejaVuSerif-68" x="227.392578"/>
      <use xlink:href="#DejaVuSerif-20" x="291.796875"/>
      <use xlink:href="#DejaVuSerif-3d" x="323.583984"/>
      <use xlink:href="#DejaVuSerif-20" x="407.373047"/>
      <use xlink:href="#DejaVuSerif-36" x="439.160156"/>
     </g>
    </g>
    <g id="line2d_22">
     <path d="M 331.523167 66.089333 
L 341.523167 66.089333 
L 351.523167 66.089333 
" style="fill: none; stroke: #8c8c8c; stroke-width: 1.25; stroke-linejoin: miter"/>
    </g>
    <g id="text_13">
     <!-- depth = 7 -->
     <g transform="translate(359.523167 69.589333) scale(0.1 -0.1)">
      <use xlink:href="#DejaVuSerif-64"/>
      <use xlink:href="#DejaVuSerif-65" x="64.013672"/>
      <use xlink:href="#DejaVuSerif-70" x="123.193359"/>
      <use xlink:href="#DejaVuSerif-74" x="187.207031"/>
      <use xlink:href="#DejaVuSerif-68" x="227.392578"/>
      <use xlink:href="#DejaVuSerif-20" x="291.796875"/>
      <use xlink:href="#DejaVuSerif-3d" x="323.583984"/>
      <use xlink:href="#DejaVuSerif-20" x="407.373047"/>
      <use xlink:href="#DejaVuSerif-37" x="439.160156"/>
     </g>
    </g>
    <g id="line2d_23">
     <path d="M 331.523167 80.767458 
L 341.523167 80.767458 
L 351.523167 80.767458 
" style="fill: none; stroke: #ccb974; stroke-width: 1.25; stroke-linejoin: miter"/>
    </g>
    <g id="text_14">
     <!-- depth = 8 -->
     <g transform="translate(359.523167 84.267458) scale(0.1 -0.1)">
      <defs>
       <path id="DejaVuSerif-38" d="M 2981 1275 
Q 2981 1775 2732 2051 
Q 2484 2328 2034 2328 
Q 1584 2328 1336 2051 
Q 1088 1775 1088 1275 
Q 1088 772 1336 495 
Q 1584 219 2034 219 
Q 2484 219 2732 495 
Q 2981 772 2981 1275 
z
M 2853 3541 
Q 2853 3966 2637 4203 
Q 2422 4441 2034 4441 
Q 1650 4441 1433 4203 
Q 1216 3966 1216 3541 
Q 1216 3113 1433 2875 
Q 1650 2638 2034 2638 
Q 2422 2638 2637 2875 
Q 2853 3113 2853 3541 
z
M 2516 2484 
Q 3047 2413 3344 2092 
Q 3641 1772 3641 1275 
Q 3641 619 3225 264 
Q 2809 -91 2034 -91 
Q 1263 -91 845 264 
Q 428 619 428 1275 
Q 428 1772 725 2092 
Q 1022 2413 1556 2484 
Q 1084 2569 832 2842 
Q 581 3116 581 3541 
Q 581 4103 968 4426 
Q 1356 4750 2034 4750 
Q 2713 4750 3100 4426 
Q 3488 4103 3488 3541 
Q 3488 3116 3236 2842 
Q 2984 2569 2516 2484 
z
" transform="scale(0.015625)"/>
      </defs>
      <use xlink:href="#DejaVuSerif-64"/>
      <use xlink:href="#DejaVuSerif-65" x="64.013672"/>
      <use xlink:href="#DejaVuSerif-70" x="123.193359"/>
      <use xlink:href="#DejaVuSerif-74" x="187.207031"/>
      <use xlink:href="#DejaVuSerif-68" x="227.392578"/>
      <use xlink:href="#DejaVuSerif-20" x="291.796875"/>
      <use xlink:href="#DejaVuSerif-3d" x="323.583984"/>
      <use xlink:href="#DejaVuSerif-20" x="407.373047"/>
      <use xlink:href="#DejaVuSerif-38" x="439.160156"/>
     </g>
    </g>
    <g id="line2d_24">
     <path d="M 331.523167 95.445583 
L 341.523167 95.445583 
L 351.523167 95.445583 
" style="fill: none; stroke: #4c72b0; stroke-width: 1.25; stroke-linejoin: miter"/>
    </g>
    <g id="text_15">
     <!-- depth = 10 -->
     <g transform="translate(359.523167 98.945583) scale(0.1 -0.1)">
      <use xlink:href="#DejaVuSerif-64"/>
      <use xlink:href="#DejaVuSerif-65" x="64.013672"/>
      <use xlink:href="#DejaVuSerif-70" x="123.193359"/>
      <use xlink:href="#DejaVuSerif-74" x="187.207031"/>
      <use xlink:href="#DejaVuSerif-68" x="227.392578"/>
      <use xlink:href="#DejaVuSerif-20" x="291.796875"/>
      <use xlink:href="#DejaVuSerif-3d" x="323.583984"/>
      <use xlink:href="#DejaVuSerif-20" x="407.373047"/>
      <use xlink:href="#DejaVuSerif-31" x="439.160156"/>
      <use xlink:href="#DejaVuSerif-30" x="502.783203"/>
     </g>
    </g>
   </g>
  </g>
 </g>
 <defs>
  <clipPath id="p68488ec9d6">
   <rect x="48.2667" y="19.634646" width="380.898655" height="234.774709"/>
  </clipPath>
 </defs>
</svg>
