<?xml version="1.0" encoding="utf-8"?>
<svg xmlns="http://www.w3.org/2000/svg" xmlns:xlink="http://www.w3.org/1999/xlink" width="600" height="400" viewBox="0 0 2400 1600">
<defs>
  <clipPath id="clip590">
    <rect x="0" y="0" width="2400" height="1600"/>
  </clipPath>
</defs>
<path clip-path="url(#clip590)" d="M0 1600 L2400 1600 L2400 0 L0 0  Z" fill="#ffffff" fill-rule="evenodd" fill-opacity="1"/>
<defs>
  <clipPath id="clip591">
    <rect x="480" y="0" width="1681" height="1600"/>
  </clipPath>
</defs>
<path clip-path="url(#clip590)" d="M229.259 1410.9 L2352.76 1410.9 L2352.76 123.472 L229.259 123.472  Z" fill="#ffffff" fill-rule="evenodd" fill-opacity="1"/>
<defs>
  <clipPath id="clip592">
    <rect x="229" y="123" width="2124" height="1288"/>
  </clipPath>
</defs>
<polyline clip-path="url(#clip592)" style="stroke:#000000; stroke-linecap:round; stroke-linejoin:round; stroke-width:2; stroke-opacity:0.1; fill:none" points="623.241,1410.9 623.241,123.472 "/>
<polyline clip-path="url(#clip592)" style="stroke:#000000; stroke-linecap:round; stroke-linejoin:round; stroke-width:2; stroke-opacity:0.1; fill:none" points="1457.95,1410.9 1457.95,123.472 "/>
<polyline clip-path="url(#clip592)" style="stroke:#000000; stroke-linecap:round; stroke-linejoin:round; stroke-width:2; stroke-opacity:0.1; fill:none" points="2292.66,1410.9 2292.66,123.472 "/>
<polyline clip-path="url(#clip590)" style="stroke:#000000; stroke-linecap:round; stroke-linejoin:round; stroke-width:4; stroke-opacity:1; fill:none" points="229.259,1410.9 2352.76,1410.9 "/>
<polyline clip-path="url(#clip590)" style="stroke:#000000; stroke-linecap:round; stroke-linejoin:round; stroke-width:4; stroke-opacity:1; fill:none" points="623.241,1410.9 623.241,1392 "/>
<polyline clip-path="url(#clip590)" style="stroke:#000000; stroke-linecap:round; stroke-linejoin:round; stroke-width:4; stroke-opacity:1; fill:none" points="1457.95,1410.9 1457.95,1392 "/>
<polyline clip-path="url(#clip590)" style="stroke:#000000; stroke-linecap:round; stroke-linejoin:round; stroke-width:4; stroke-opacity:1; fill:none" points="2292.66,1410.9 2292.66,1392 "/>
<path clip-path="url(#clip590)" d="M588.224 1485.02 L595.863 1485.02 L595.863 1458.66 L587.553 1460.32 L587.553 1456.06 L595.817 1454.4 L600.492 1454.4 L600.492 1485.02 L608.131 1485.02 L608.131 1488.96 L588.224 1488.96 L588.224 1485.02 Z" fill="#000000" fill-rule="nonzero" fill-opacity="1" /><path clip-path="url(#clip590)" d="M627.576 1457.48 Q623.965 1457.48 622.136 1461.04 Q620.33 1464.58 620.33 1471.71 Q620.33 1478.82 622.136 1482.38 Q623.965 1485.92 627.576 1485.92 Q631.21 1485.92 633.015 1482.38 Q634.844 1478.82 634.844 1471.71 Q634.844 1464.58 633.015 1461.04 Q631.21 1457.48 627.576 1457.48 M627.576 1453.77 Q633.386 1453.77 636.441 1458.38 Q639.52 1462.96 639.52 1471.71 Q639.52 1480.44 636.441 1485.04 Q633.386 1489.63 627.576 1489.63 Q621.766 1489.63 618.687 1485.04 Q615.631 1480.44 615.631 1471.71 Q615.631 1462.96 618.687 1458.38 Q621.766 1453.77 627.576 1453.77 Z" fill="#000000" fill-rule="nonzero" fill-opacity="1" /><path clip-path="url(#clip590)" d="M649.225 1435.97 Q646.291 1435.97 644.805 1438.86 Q643.338 1441.74 643.338 1447.53 Q643.338 1453.31 644.805 1456.2 Q646.291 1459.08 649.225 1459.08 Q652.178 1459.08 653.645 1456.2 Q655.13 1453.31 655.13 1447.53 Q655.13 1441.74 653.645 1438.86 Q652.178 1435.97 649.225 1435.97 M649.225 1432.96 Q653.946 1432.96 656.428 1436.7 Q658.93 1440.43 658.93 1447.53 Q658.93 1454.62 656.428 1458.37 Q653.946 1462.09 649.225 1462.09 Q644.504 1462.09 642.003 1458.37 Q639.52 1454.62 639.52 1447.53 Q639.52 1440.43 642.003 1436.7 Q644.504 1432.96 649.225 1432.96 Z" fill="#000000" fill-rule="nonzero" fill-opacity="1" /><path clip-path="url(#clip590)" d="M1423.55 1485.02 L1431.19 1485.02 L1431.19 1458.66 L1422.88 1460.32 L1422.88 1456.06 L1431.15 1454.4 L1435.82 1454.4 L1435.82 1485.02 L1443.46 1485.02 L1443.46 1488.96 L1423.55 1488.96 L1423.55 1485.02 Z" fill="#000000" fill-rule="nonzero" fill-opacity="1" /><path clip-path="url(#clip590)" d="M1462.9 1457.48 Q1459.29 1457.48 1457.46 1461.04 Q1455.66 1464.58 1455.66 1471.71 Q1455.66 1478.82 1457.46 1482.38 Q1459.29 1485.92 1462.9 1485.92 Q1466.54 1485.92 1468.34 1482.38 Q1470.17 1478.82 1470.17 1471.71 Q1470.17 1464.58 1468.34 1461.04 Q1466.54 1457.48 1462.9 1457.48 M1462.9 1453.77 Q1468.71 1453.77 1471.77 1458.38 Q1474.85 1462.96 1474.85 1471.71 Q1474.85 1480.44 1471.77 1485.04 Q1468.71 1489.63 1462.9 1489.63 Q1457.09 1489.63 1454.02 1485.04 Q1450.96 1480.44 1450.96 1471.71 Q1450.96 1462.96 1454.02 1458.38 Q1457.09 1453.77 1462.9 1453.77 Z" fill="#000000" fill-rule="nonzero" fill-opacity="1" /><path clip-path="url(#clip590)" d="M1476.03 1433.47 L1490.95 1433.47 L1490.95 1436.66 L1479.51 1436.66 L1479.51 1443.55 Q1480.34 1443.27 1481.17 1443.13 Q1482 1442.98 1482.82 1442.98 Q1487.53 1442.98 1490.27 1445.56 Q1493.02 1448.14 1493.02 1452.54 Q1493.02 1457.07 1490.2 1459.59 Q1487.37 1462.09 1482.24 1462.09 Q1480.47 1462.09 1478.63 1461.79 Q1476.8 1461.49 1474.85 1460.89 L1474.85 1457.07 Q1476.54 1457.99 1478.35 1458.44 Q1480.15 1458.89 1482.16 1458.89 Q1485.42 1458.89 1487.32 1457.18 Q1489.22 1455.47 1489.22 1452.54 Q1489.22 1449.6 1487.32 1447.89 Q1485.42 1446.18 1482.16 1446.18 Q1480.64 1446.18 1479.12 1446.52 Q1477.61 1446.86 1476.03 1447.57 L1476.03 1433.47 Z" fill="#000000" fill-rule="nonzero" fill-opacity="1" /><path clip-path="url(#clip590)" d="M2246.23 1485.02 L2253.87 1485.02 L2253.87 1458.66 L2245.56 1460.32 L2245.56 1456.06 L2253.83 1454.4 L2258.5 1454.4 L2258.5 1485.02 L2266.14 1485.02 L2266.14 1488.96 L2246.23 1488.96 L2246.23 1485.02 Z" fill="#000000" fill-rule="nonzero" fill-opacity="1" /><path clip-path="url(#clip590)" d="M2285.58 1457.48 Q2281.97 1457.48 2280.14 1461.04 Q2278.34 1464.58 2278.34 1471.71 Q2278.34 1478.82 2280.14 1482.38 Q2281.97 1485.92 2285.58 1485.92 Q2289.22 1485.92 2291.02 1482.38 Q2292.85 1478.82 2292.85 1471.71 Q2292.85 1464.58 2291.02 1461.04 Q2289.22 1457.48 2285.58 1457.48 M2285.58 1453.77 Q2291.39 1453.77 2294.45 1458.38 Q2297.53 1462.96 2297.53 1471.71 Q2297.53 1480.44 2294.45 1485.04 Q2291.39 1489.63 2285.58 1489.63 Q2279.77 1489.63 2276.7 1485.04 Q2273.64 1480.44 2273.64 1471.71 Q2273.64 1462.96 2276.7 1458.38 Q2279.77 1453.77 2285.58 1453.77 Z" fill="#000000" fill-rule="nonzero" fill-opacity="1" /><path clip-path="url(#clip590)" d="M2298.07 1458.35 L2304.28 1458.35 L2304.28 1436.93 L2297.53 1438.28 L2297.53 1434.82 L2304.24 1433.47 L2308.04 1433.47 L2308.04 1458.35 L2314.25 1458.35 L2314.25 1461.55 L2298.07 1461.55 L2298.07 1458.35 Z" fill="#000000" fill-rule="nonzero" fill-opacity="1" /><path clip-path="url(#clip590)" d="M2330.05 1435.97 Q2327.11 1435.97 2325.63 1438.86 Q2324.16 1441.74 2324.16 1447.53 Q2324.16 1453.31 2325.63 1456.2 Q2327.11 1459.08 2330.05 1459.08 Q2333 1459.08 2334.47 1456.2 Q2335.95 1453.31 2335.95 1447.53 Q2335.95 1441.74 2334.47 1438.86 Q2333 1435.97 2330.05 1435.97 M2330.05 1432.96 Q2334.77 1432.96 2337.25 1436.7 Q2339.75 1440.43 2339.75 1447.53 Q2339.75 1454.62 2337.25 1458.37 Q2334.77 1462.09 2330.05 1462.09 Q2325.33 1462.09 2322.83 1458.37 Q2320.34 1454.62 2320.34 1447.53 Q2320.34 1440.43 2322.83 1436.7 Q2325.33 1432.96 2330.05 1432.96 Z" fill="#000000" fill-rule="nonzero" fill-opacity="1" /><path clip-path="url(#clip590)" d="M1302.94 1535.36 Q1302.94 1540.77 1301.2 1546.86 Q1299.5 1552.91 1296.79 1557.81 Q1294.09 1562.67 1290.54 1565.89 Q1287 1569.08 1283.62 1569.08 Q1281.46 1569.08 1279.85 1567.89 Q1278.27 1566.66 1277.4 1564.63 Q1276.53 1562.57 1276.11 1560.32 Q1275.7 1558.03 1275.7 1555.55 Q1275.7 1551.85 1276.5 1547.82 Q1277.31 1543.76 1278.66 1540.09 Q1280.01 1536.39 1281.91 1533.04 Q1283.81 1529.66 1285.91 1527.21 Q1288.03 1524.73 1290.41 1523.28 Q1292.8 1521.83 1295.02 1521.83 Q1296.63 1521.83 1297.92 1522.54 Q1299.24 1523.22 1300.08 1524.41 Q1300.91 1525.57 1301.49 1526.95 Q1302.11 1528.34 1302.39 1529.95 Q1302.68 1531.53 1302.81 1532.85 Q1302.94 1534.13 1302.94 1535.36 M1298.59 1531.27 Q1298.59 1529.63 1298.47 1528.4 Q1298.34 1527.15 1297.98 1525.89 Q1297.63 1524.63 1296.86 1523.96 Q1296.11 1523.28 1294.96 1523.28 Q1291.57 1523.28 1287.77 1530.21 Q1286.55 1532.36 1285.45 1535.29 Q1284.36 1538.23 1283.97 1539.61 Q1283.59 1540.99 1282.68 1544.41 L1296.47 1544.41 Q1298.59 1535.62 1298.59 1531.27 M1295.89 1546.5 L1282.17 1546.5 Q1280.04 1554.55 1280.04 1559.58 Q1280.04 1563.96 1280.95 1565.79 Q1281.88 1567.6 1283.62 1567.6 Q1285.62 1567.6 1287.48 1565.6 Q1289.35 1563.57 1291.25 1559.9 Q1293.76 1555.13 1295.89 1546.5 Z" fill="#000000" fill-rule="nonzero" fill-opacity="1" /><polyline clip-path="url(#clip592)" style="stroke:#000000; stroke-linecap:round; stroke-linejoin:round; stroke-width:2; stroke-opacity:0.1; fill:none" points="229.259,1214.18 2352.76,1214.18 "/>
<polyline clip-path="url(#clip592)" style="stroke:#000000; stroke-linecap:round; stroke-linejoin:round; stroke-width:2; stroke-opacity:0.1; fill:none" points="229.259,976.131 2352.76,976.131 "/>
<polyline clip-path="url(#clip592)" style="stroke:#000000; stroke-linecap:round; stroke-linejoin:round; stroke-width:2; stroke-opacity:0.1; fill:none" points="229.259,738.083 2352.76,738.083 "/>
<polyline clip-path="url(#clip592)" style="stroke:#000000; stroke-linecap:round; stroke-linejoin:round; stroke-width:2; stroke-opacity:0.1; fill:none" points="229.259,500.035 2352.76,500.035 "/>
<polyline clip-path="url(#clip592)" style="stroke:#000000; stroke-linecap:round; stroke-linejoin:round; stroke-width:2; stroke-opacity:0.1; fill:none" points="229.259,261.988 2352.76,261.988 "/>
<polyline clip-path="url(#clip590)" style="stroke:#000000; stroke-linecap:round; stroke-linejoin:round; stroke-width:4; stroke-opacity:1; fill:none" points="229.259,1410.9 229.259,123.472 "/>
<polyline clip-path="url(#clip590)" style="stroke:#000000; stroke-linecap:round; stroke-linejoin:round; stroke-width:4; stroke-opacity:1; fill:none" points="229.259,1214.18 248.157,1214.18 "/>
<polyline clip-path="url(#clip590)" style="stroke:#000000; stroke-linecap:round; stroke-linejoin:round; stroke-width:4; stroke-opacity:1; fill:none" points="229.259,976.131 248.157,976.131 "/>
<polyline clip-path="url(#clip590)" style="stroke:#000000; stroke-linecap:round; stroke-linejoin:round; stroke-width:4; stroke-opacity:1; fill:none" points="229.259,738.083 248.157,738.083 "/>
<polyline clip-path="url(#clip590)" style="stroke:#000000; stroke-linecap:round; stroke-linejoin:round; stroke-width:4; stroke-opacity:1; fill:none" points="229.259,500.035 248.157,500.035 "/>
<polyline clip-path="url(#clip590)" style="stroke:#000000; stroke-linecap:round; stroke-linejoin:round; stroke-width:4; stroke-opacity:1; fill:none" points="229.259,261.988 248.157,261.988 "/>
<path clip-path="url(#clip590)" d="M121.5 1233.97 L129.139 1233.97 L129.139 1207.61 L120.829 1209.27 L120.829 1205.01 L129.093 1203.35 L133.769 1203.35 L133.769 1233.97 L141.408 1233.97 L141.408 1237.91 L121.5 1237.91 L121.5 1233.97 Z" fill="#000000" fill-rule="nonzero" fill-opacity="1" /><path clip-path="url(#clip590)" d="M160.852 1206.43 Q157.241 1206.43 155.412 1209.99 Q153.607 1213.53 153.607 1220.66 Q153.607 1227.77 155.412 1231.33 Q157.241 1234.87 160.852 1234.87 Q164.486 1234.87 166.292 1231.33 Q168.12 1227.77 168.12 1220.66 Q168.12 1213.53 166.292 1209.99 Q164.486 1206.43 160.852 1206.43 M160.852 1202.72 Q166.662 1202.72 169.718 1207.33 Q172.796 1211.91 172.796 1220.66 Q172.796 1229.39 169.718 1233.99 Q166.662 1238.58 160.852 1238.58 Q155.042 1238.58 151.963 1233.99 Q148.907 1229.39 148.907 1220.66 Q148.907 1211.91 151.963 1207.33 Q155.042 1202.72 160.852 1202.72 Z" fill="#000000" fill-rule="nonzero" fill-opacity="1" /><path clip-path="url(#clip590)" d="M185.473 1185.73 L175.881 1200.72 L185.473 1200.72 L185.473 1185.73 M184.476 1182.42 L189.253 1182.42 L189.253 1200.72 L193.259 1200.72 L193.259 1203.88 L189.253 1203.88 L189.253 1210.5 L185.473 1210.5 L185.473 1203.88 L172.796 1203.88 L172.796 1200.21 L184.476 1182.42 Z" fill="#000000" fill-rule="nonzero" fill-opacity="1" /><path clip-path="url(#clip590)" d="M123.795 995.924 L131.434 995.924 L131.434 969.558 L123.123 971.225 L123.123 966.966 L131.387 965.299 L136.063 965.299 L136.063 995.924 L143.702 995.924 L143.702 999.859 L123.795 999.859 L123.795 995.924 Z" fill="#000000" fill-rule="nonzero" fill-opacity="1" /><path clip-path="url(#clip590)" d="M163.146 968.378 Q159.535 968.378 157.707 971.942 Q155.901 975.484 155.901 982.614 Q155.901 989.72 157.707 993.285 Q159.535 996.827 163.146 996.827 Q166.781 996.827 168.586 993.285 Q170.415 989.72 170.415 982.614 Q170.415 975.484 168.586 971.942 Q166.781 968.378 163.146 968.378 M163.146 964.674 Q168.957 964.674 172.012 969.28 Q175.091 973.864 175.091 982.614 Q175.091 991.34 172.012 995.947 Q168.957 1000.53 163.146 1000.53 Q157.336 1000.53 154.258 995.947 Q151.202 991.34 151.202 982.614 Q151.202 973.864 154.258 969.28 Q157.336 964.674 163.146 964.674 Z" fill="#000000" fill-rule="nonzero" fill-opacity="1" /><path clip-path="url(#clip590)" d="M176.276 944.369 L191.19 944.369 L191.19 947.566 L179.755 947.566 L179.755 954.449 Q180.583 954.167 181.41 954.036 Q182.238 953.885 183.065 953.885 Q187.767 953.885 190.513 956.462 Q193.259 959.039 193.259 963.44 Q193.259 967.972 190.438 970.493 Q187.617 972.994 182.482 972.994 Q180.714 972.994 178.871 972.693 Q177.047 972.392 175.091 971.79 L175.091 967.972 Q176.783 968.894 178.589 969.345 Q180.395 969.797 182.407 969.797 Q185.661 969.797 187.56 968.085 Q189.46 966.374 189.46 963.44 Q189.46 960.506 187.56 958.794 Q185.661 957.083 182.407 957.083 Q180.884 957.083 179.36 957.421 Q177.856 957.76 176.276 958.474 L176.276 944.369 Z" fill="#000000" fill-rule="nonzero" fill-opacity="1" /><path clip-path="url(#clip590)" d="M122.572 757.876 L130.211 757.876 L130.211 731.51 L121.901 733.177 L121.901 728.918 L130.165 727.251 L134.841 727.251 L134.841 757.876 L142.48 757.876 L142.48 761.811 L122.572 761.811 L122.572 757.876 Z" fill="#000000" fill-rule="nonzero" fill-opacity="1" /><path clip-path="url(#clip590)" d="M161.924 730.33 Q158.313 730.33 156.484 733.894 Q154.679 737.436 154.679 744.566 Q154.679 751.672 156.484 755.237 Q158.313 758.779 161.924 758.779 Q165.558 758.779 167.364 755.237 Q169.192 751.672 169.192 744.566 Q169.192 737.436 167.364 733.894 Q165.558 730.33 161.924 730.33 M161.924 726.626 Q167.734 726.626 170.79 731.232 Q173.868 735.816 173.868 744.566 Q173.868 753.293 170.79 757.899 Q167.734 762.482 161.924 762.482 Q156.114 762.482 153.035 757.899 Q149.98 753.293 149.98 744.566 Q149.98 735.816 153.035 731.232 Q156.114 726.626 161.924 726.626 Z" fill="#000000" fill-rule="nonzero" fill-opacity="1" /><path clip-path="url(#clip590)" d="M183.893 718.847 Q181.335 718.847 179.83 720.596 Q178.345 722.345 178.345 725.392 Q178.345 728.42 179.83 730.188 Q181.335 731.937 183.893 731.937 Q186.451 731.937 187.936 730.188 Q189.441 728.42 189.441 725.392 Q189.441 722.345 187.936 720.596 Q186.451 718.847 183.893 718.847 M191.435 706.941 L191.435 710.402 Q190.005 709.725 188.538 709.367 Q187.09 709.01 185.661 709.01 Q181.899 709.01 179.906 711.549 Q177.931 714.088 177.649 719.223 Q178.758 717.586 180.432 716.721 Q182.106 715.837 184.118 715.837 Q188.35 715.837 190.795 718.414 Q193.259 720.972 193.259 725.392 Q193.259 729.717 190.701 732.332 Q188.143 734.946 183.893 734.946 Q179.022 734.946 176.445 731.222 Q173.868 727.479 173.868 720.389 Q173.868 713.731 177.028 709.781 Q180.188 705.813 185.51 705.813 Q186.94 705.813 188.388 706.095 Q189.855 706.377 191.435 706.941 Z" fill="#000000" fill-rule="nonzero" fill-opacity="1" /><path clip-path="url(#clip590)" d="M123.908 519.828 L131.546 519.828 L131.546 493.462 L123.236 495.129 L123.236 490.87 L131.5 489.203 L136.176 489.203 L136.176 519.828 L143.815 519.828 L143.815 523.763 L123.908 523.763 L123.908 519.828 Z" fill="#000000" fill-rule="nonzero" fill-opacity="1" /><path clip-path="url(#clip590)" d="M163.259 492.282 Q159.648 492.282 157.819 495.847 Q156.014 499.388 156.014 506.518 Q156.014 513.624 157.819 517.189 Q159.648 520.731 163.259 520.731 Q166.893 520.731 168.699 517.189 Q170.528 513.624 170.528 506.518 Q170.528 499.388 168.699 495.847 Q166.893 492.282 163.259 492.282 M163.259 488.578 Q169.069 488.578 172.125 493.185 Q175.204 497.768 175.204 506.518 Q175.204 515.245 172.125 519.851 Q169.069 524.434 163.259 524.434 Q157.449 524.434 154.37 519.851 Q151.315 515.245 151.315 506.518 Q151.315 497.768 154.37 493.185 Q157.449 488.578 163.259 488.578 Z" fill="#000000" fill-rule="nonzero" fill-opacity="1" /><path clip-path="url(#clip590)" d="M175.204 468.273 L193.259 468.273 L193.259 469.89 L183.065 496.353 L179.097 496.353 L188.689 471.47 L175.204 471.47 L175.204 468.273 Z" fill="#000000" fill-rule="nonzero" fill-opacity="1" /><path clip-path="url(#clip590)" d="M122.704 281.78 L130.343 281.78 L130.343 255.414 L122.033 257.081 L122.033 252.822 L130.296 251.155 L134.972 251.155 L134.972 281.78 L142.611 281.78 L142.611 285.715 L122.704 285.715 L122.704 281.78 Z" fill="#000000" fill-rule="nonzero" fill-opacity="1" /><path clip-path="url(#clip590)" d="M162.056 254.234 Q158.444 254.234 156.616 257.799 Q154.81 261.34 154.81 268.47 Q154.81 275.576 156.616 279.141 Q158.444 282.683 162.056 282.683 Q165.69 282.683 167.495 279.141 Q169.324 275.576 169.324 268.47 Q169.324 261.34 167.495 257.799 Q165.69 254.234 162.056 254.234 M162.056 250.53 Q167.866 250.53 170.921 255.137 Q174 259.72 174 268.47 Q174 277.197 170.921 281.803 Q167.866 286.386 162.056 286.386 Q156.245 286.386 153.167 281.803 Q150.111 277.197 150.111 268.47 Q150.111 259.72 153.167 255.137 Q156.245 250.53 162.056 250.53 Z" fill="#000000" fill-rule="nonzero" fill-opacity="1" /><path clip-path="url(#clip590)" d="M183.629 244.97 Q180.921 244.97 179.36 246.418 Q177.818 247.866 177.818 250.406 Q177.818 252.945 179.36 254.393 Q180.921 255.841 183.629 255.841 Q186.338 255.841 187.899 254.393 Q189.46 252.926 189.46 250.406 Q189.46 247.866 187.899 246.418 Q186.357 244.97 183.629 244.97 M179.83 243.353 Q177.385 242.751 176.012 241.077 Q174.658 239.403 174.658 236.996 Q174.658 233.629 177.047 231.673 Q179.454 229.717 183.629 229.717 Q187.824 229.717 190.212 231.673 Q192.601 233.629 192.601 236.996 Q192.601 239.403 191.228 241.077 Q189.874 242.751 187.447 243.353 Q190.193 243.992 191.717 245.854 Q193.259 247.716 193.259 250.406 Q193.259 254.487 190.758 256.669 Q188.275 258.85 183.629 258.85 Q178.984 258.85 176.483 256.669 Q174 254.487 174 250.406 Q174 247.716 175.542 245.854 Q177.084 243.992 179.83 243.353 M178.439 237.353 Q178.439 239.535 179.793 240.757 Q181.166 241.98 183.629 241.98 Q186.075 241.98 187.447 240.757 Q188.839 239.535 188.839 237.353 Q188.839 235.171 187.447 233.949 Q186.075 232.726 183.629 232.726 Q181.166 232.726 179.793 233.949 Q178.439 235.171 178.439 237.353 Z" fill="#000000" fill-rule="nonzero" fill-opacity="1" /><path clip-path="url(#clip590)" d="M75.9781 864.435 Q76.5256 864.435 76.912 864.822 Q77.2985 865.208 77.2985 865.756 Q77.2985 866.69 76.4289 867.012 L44.7706 879.282 Q44.6418 879.346 44.3197 879.346 Q43.9976 879.346 43.8688 879.282 L12.2105 867.012 Q11.3409 866.69 11.3409 865.756 Q11.3409 865.208 11.7274 864.822 Q12.1138 864.435 12.6613 864.435 Q12.9834 864.435 13.1122 864.5 L44.3197 876.641 L75.5272 864.5 Q75.656 864.435 75.9781 864.435 Z" fill="#000000" fill-rule="nonzero" fill-opacity="1" /><path clip-path="url(#clip590)" d="M34.7546 823.682 Q34.7868 823.682 35.9462 823.875 L65.2213 831.218 Q66.7672 831.604 68.3131 832.699 Q69.8911 833.762 71.2438 835.469 Q72.6286 837.144 73.466 839.72 Q74.3356 842.264 74.3356 845.195 Q74.3356 849.865 73.3372 851.926 Q72.371 853.955 70.3098 853.955 Q68.5063 853.955 67.4757 852.828 Q66.4773 851.701 66.4773 850.413 Q66.4773 849.189 67.1859 848.545 Q67.8944 847.901 68.7961 847.901 Q69.7945 847.901 70.7929 848.577 Q71.8235 849.253 72.21 850.606 Q72.8863 848.448 72.8863 845.324 Q72.8863 838.722 65.8976 835.888 Q65.801 835.823 65.7688 835.823 L57.041 833.633 L56.9766 833.73 Q57.6207 834.277 58.3614 835.147 Q59.07 835.984 59.9395 837.788 Q60.8091 839.591 60.8091 841.363 Q60.8091 845.066 57.975 847.611 Q55.1087 850.123 50.3744 850.123 Q46.9284 850.123 43.4823 848.738 Q40.0041 847.321 37.4598 845.131 Q34.8834 842.909 33.2731 840.074 Q31.6628 837.208 31.6628 834.438 Q31.6628 832.506 32.8222 830.864 Q33.9494 829.221 35.8173 828.319 Q34.2715 828.158 33.6273 827.289 Q32.9832 826.387 32.9832 825.614 Q32.9832 824.744 33.4663 824.229 Q33.9172 823.682 34.7546 823.682 M38.7803 829.092 Q38.5871 829.092 38.0718 829.221 Q37.5243 829.35 36.6547 829.736 Q35.7851 830.091 35.0122 830.638 Q34.2393 831.186 33.6918 832.184 Q33.1121 833.15 33.1121 834.374 Q33.1121 836.371 34.7868 838.368 Q36.4293 840.364 38.9735 841.749 Q41.4212 843.037 46.1554 844.261 Q50.8897 845.453 53.3051 845.453 Q55.6884 845.453 57.5241 844.422 Q59.3598 843.392 59.3598 841.169 Q59.3598 838.593 56.9766 835.823 Q54.4967 832.957 52.3712 832.474 L39.7787 829.286 Q39.0057 829.092 38.7803 829.092 Z" fill="#000000" fill-rule="nonzero" fill-opacity="1" /><path clip-path="url(#clip590)" d="M61.9215 770.67 Q62.5753 770.67 62.7106 770.963 Q62.8458 771.234 62.8458 772.136 Q62.8458 773.195 62.936 773.849 Q63.0037 774.503 63.1164 774.909 Q63.2065 775.314 63.5222 775.562 Q63.8378 775.788 64.1083 775.878 Q64.3563 775.968 64.965 776.126 L89.5606 782.258 Q90.3947 782.483 90.6878 782.483 Q90.9809 782.483 91.1612 782.303 Q91.3416 782.1 91.4318 781.604 Q91.4994 781.108 91.5219 780.725 Q91.5219 780.319 91.5219 779.485 Q91.5219 778.448 91.7023 778.29 Q91.815 778.2 92.0179 778.2 Q92.4462 778.2 92.6717 778.38 Q92.8746 778.561 92.9197 778.719 Q92.9422 778.854 92.9422 779.079 Q92.9422 780.026 92.8746 781.965 Q92.807 783.904 92.807 784.851 L92.9422 790.577 Q92.9422 791.253 92.3786 791.253 Q91.9503 791.253 91.7699 791.073 Q91.567 790.892 91.5445 790.689 Q91.5219 790.487 91.5219 789.968 Q91.5219 788.119 91.319 787.33 Q91.1161 786.519 90.7554 786.293 Q90.3722 786.045 89.3352 785.775 L62.8909 779.169 L62.8909 779.215 L92.1081 797.859 L92.311 797.994 Q92.4913 798.129 92.559 798.174 Q92.6041 798.219 92.7393 798.354 Q92.852 798.467 92.8971 798.602 Q92.9422 798.715 92.9422 798.873 Q92.9422 799.144 92.7619 799.301 Q92.5815 799.437 92.4462 799.482 Q92.2884 799.504 91.8826 799.572 L63.2516 803.54 L63.2516 803.585 L88.4109 809.875 Q89.1097 810.055 89.4704 810.055 Q90.3947 810.055 90.9583 809.401 Q91.4994 808.725 91.5219 806.921 Q91.5219 806.087 92.0179 806.087 Q92.9422 806.087 92.9422 806.921 Q92.9422 807.688 92.8746 809.288 Q92.807 810.889 92.807 811.678 Q92.807 812.445 92.8746 814 Q92.9422 815.533 92.9422 816.277 Q92.9422 816.931 92.3786 816.931 Q91.5219 816.931 91.5219 816.097 Q91.4769 814.744 91.2063 813.82 Q90.9358 812.895 90.4173 812.377 Q89.8988 811.836 89.3803 811.588 Q88.8392 811.317 88.0501 811.114 L64.5367 805.253 Q63.7927 805.073 63.68 805.073 Q63.2967 805.073 63.1615 805.298 Q63.0037 805.501 62.936 806.087 Q62.8458 807.214 62.8458 808.071 Q62.8458 808.635 62.8233 808.86 Q62.8008 809.063 62.688 809.243 Q62.5528 809.401 62.2822 809.401 Q61.8539 809.401 61.6735 809.221 Q61.4707 809.018 61.4481 808.792 Q61.403 808.567 61.403 808.026 L61.403 801.691 Q61.403 800.767 61.5608 800.564 Q61.6961 800.361 62.4626 800.271 L88.5912 796.664 L62.2822 779.801 Q61.6285 779.372 61.5157 779.147 Q61.403 778.921 61.403 778.02 L61.403 771.91 Q61.403 771.414 61.4256 771.211 Q61.4481 771.008 61.5608 770.851 Q61.6735 770.67 61.9215 770.67 Z" fill="#000000" fill-rule="nonzero" fill-opacity="1" /><path clip-path="url(#clip590)" d="M44.3197 764.074 Q33.1765 764.074 24.191 759.919 Q20.4229 758.148 17.2668 755.668 Q14.1106 753.188 12.7257 751.546 Q11.3409 749.903 11.3409 749.452 Q11.3409 748.808 11.985 748.776 Q12.3071 748.776 13.1122 749.645 Q23.9334 760.273 44.3197 760.241 Q64.7704 760.241 75.1729 749.903 Q76.3001 748.776 76.6544 748.776 Q77.2985 748.776 77.2985 749.452 Q77.2985 749.903 75.9781 751.481 Q74.6576 753.059 71.6303 755.507 Q68.6029 757.955 64.8992 759.726 Q55.9138 764.074 44.3197 764.074 Z" fill="#000000" fill-rule="nonzero" fill-opacity="1" /><path clip-path="url(#clip590)" d="M33.9494 711.814 Q36.2038 711.814 36.2038 715.067 L36.2038 726.146 L58.7801 730.558 Q59.3598 730.654 59.6819 730.783 Q60.0039 730.88 60.5514 731.17 Q61.0667 731.427 61.3244 731.975 Q61.6142 732.49 61.6142 733.263 Q61.6142 734.229 61.0345 734.712 Q60.487 735.163 59.8107 735.163 Q59.392 735.163 57.3953 734.519 L36.2038 728.046 L36.2038 733.521 Q36.2038 738.674 41.2923 741.894 Q41.9687 742.41 42.0331 742.699 Q42.0653 742.828 42.0653 742.957 Q42.0653 743.311 41.9043 743.537 Q41.7432 743.73 41.5822 743.73 L41.4212 743.762 Q41.1957 743.762 40.294 743.247 Q39.36 742.699 37.9751 741.733 Q36.5903 740.735 35.4953 739.737 Q34.0782 738.416 33.3375 736.935 Q32.5646 735.453 32.4679 734.712 Q32.3713 733.939 32.3713 732.941 L32.3713 714.455 Q32.3713 713.618 32.4357 713.167 Q32.4679 712.716 32.8544 712.265 Q33.2087 711.814 33.9494 711.814 Z" fill="#000000" fill-rule="nonzero" fill-opacity="1" /><path clip-path="url(#clip590)" d="M76.6544 705.741 Q76.3323 705.741 75.5272 704.904 Q64.706 694.276 44.3197 694.276 Q23.869 694.276 13.5309 704.485 Q12.3393 705.741 11.985 705.741 Q11.3409 705.741 11.3409 705.097 Q11.3409 704.646 12.6613 703.068 Q13.9818 701.458 17.0091 699.042 Q20.0365 696.595 23.7401 694.791 Q32.7256 690.443 44.3197 690.443 Q55.4629 690.443 64.4484 694.598 Q68.2164 696.369 71.3726 698.849 Q74.5288 701.329 75.9136 702.971 Q77.2985 704.614 77.2985 705.097 Q77.2985 705.741 76.6544 705.741 Z" fill="#000000" fill-rule="nonzero" fill-opacity="1" /><path clip-path="url(#clip590)" d="M43.8688 665.599 Q43.9976 665.534 44.3197 665.534 Q44.6418 665.534 44.7706 665.599 L76.4289 677.869 Q77.2985 678.191 77.2985 679.093 Q77.2985 679.641 76.912 680.027 Q76.5256 680.414 75.9781 680.414 Q75.656 680.414 75.5272 680.349 L44.3197 668.24 L13.1122 680.349 Q12.9834 680.414 12.6613 680.414 Q12.1138 680.414 11.7274 680.027 Q11.3409 679.641 11.3409 679.093 Q11.3409 678.191 12.2105 677.869 L43.8688 665.599 Z" fill="#000000" fill-rule="nonzero" fill-opacity="1" /><path clip-path="url(#clip590)" d="M916.805 14.0809 L916.805 22.0612 Q912.147 19.8332 908.015 18.7395 Q903.883 17.6457 900.034 17.6457 Q893.35 17.6457 889.705 20.2383 Q886.099 22.8309 886.099 27.611 Q886.099 31.6214 888.489 33.6873 Q890.92 35.7128 897.644 36.9686 L902.587 37.9813 Q911.742 39.7232 916.076 44.1387 Q920.451 48.5136 920.451 55.8863 Q920.451 64.6767 914.537 69.2137 Q908.663 73.7508 897.28 73.7508 Q892.986 73.7508 888.125 72.7785 Q883.304 71.8063 878.119 69.9024 L878.119 61.4765 Q883.102 64.2716 887.882 65.6895 Q892.662 67.1073 897.28 67.1073 Q904.288 67.1073 908.096 64.3527 Q911.904 61.598 911.904 56.4939 Q911.904 52.0379 909.149 49.5264 Q906.435 47.0148 900.197 45.759 L895.214 44.7868 Q886.059 42.9639 881.967 39.075 Q877.876 35.1862 877.876 28.2591 Q877.876 20.2383 883.507 15.6203 Q889.178 11.0023 899.103 11.0023 Q903.356 11.0023 907.772 11.7719 Q912.187 12.5416 916.805 14.0809 Z" fill="#000000" fill-rule="nonzero" fill-opacity="1" /><path clip-path="url(#clip590)" d="M940.098 65.7705 L940.098 89.8329 L932.604 89.8329 L932.604 27.2059 L940.098 27.2059 L940.098 34.0924 Q942.447 30.0415 946.012 28.0971 Q949.618 26.1121 954.6 26.1121 Q962.864 26.1121 968.009 32.6746 Q973.194 39.2371 973.194 49.9314 Q973.194 60.6258 968.009 67.1883 Q962.864 73.7508 954.6 73.7508 Q949.618 73.7508 946.012 71.8063 Q942.447 69.8214 940.098 65.7705 M965.457 49.9314 Q965.457 41.7081 962.054 37.0496 Q958.692 32.3505 952.777 32.3505 Q946.863 32.3505 943.46 37.0496 Q940.098 41.7081 940.098 49.9314 Q940.098 58.1548 943.46 62.8538 Q946.863 67.5124 952.777 67.5124 Q958.692 67.5124 962.054 62.8538 Q965.457 58.1548 965.457 49.9314 Z" fill="#000000" fill-rule="nonzero" fill-opacity="1" /><path clip-path="url(#clip590)" d="M1024.36 48.0275 L1024.36 51.6733 L990.086 51.6733 Q990.572 59.3701 994.704 63.421 Q998.877 67.4314 1006.29 67.4314 Q1010.58 67.4314 1014.59 66.3781 Q1018.64 65.3249 1022.61 63.2184 L1022.61 70.267 Q1018.6 71.9684 1014.39 72.8596 Q1010.18 73.7508 1005.84 73.7508 Q994.988 73.7508 988.628 67.4314 Q982.308 61.1119 982.308 50.3365 Q982.308 39.1965 988.304 32.6746 Q994.34 26.1121 1004.55 26.1121 Q1013.7 26.1121 1019.01 32.0264 Q1024.36 37.9003 1024.36 48.0275 M1016.9 45.84 Q1016.82 39.7232 1013.46 36.0774 Q1010.14 32.4315 1004.63 32.4315 Q998.39 32.4315 994.623 35.9558 Q990.896 39.4801 990.329 45.8805 L1016.9 45.84 Z" fill="#000000" fill-rule="nonzero" fill-opacity="1" /><path clip-path="url(#clip590)" d="M1069.24 28.9478 L1069.24 35.9153 Q1066.08 34.1734 1062.88 33.3227 Q1059.72 32.4315 1056.48 32.4315 Q1049.23 32.4315 1045.22 37.0496 Q1041.21 41.6271 1041.21 49.9314 Q1041.21 58.2358 1045.22 62.8538 Q1049.23 67.4314 1056.48 67.4314 Q1059.72 67.4314 1062.88 66.5807 Q1066.08 65.6895 1069.24 63.9476 L1069.24 70.8341 Q1066.12 72.2924 1062.76 73.0216 Q1059.44 73.7508 1055.67 73.7508 Q1045.42 73.7508 1039.39 67.3098 Q1033.35 60.8689 1033.35 49.9314 Q1033.35 38.832 1039.43 32.472 Q1045.54 26.1121 1056.16 26.1121 Q1059.6 26.1121 1062.88 26.8413 Q1066.16 27.5299 1069.24 28.9478 Z" fill="#000000" fill-rule="nonzero" fill-opacity="1" /><path clip-path="url(#clip590)" d="M1089.58 14.324 L1089.58 27.2059 L1104.93 27.2059 L1104.93 32.9987 L1089.58 32.9987 L1089.58 57.6282 Q1089.58 63.1779 1091.08 64.7578 Q1092.61 66.3376 1097.27 66.3376 L1104.93 66.3376 L1104.93 72.576 L1097.27 72.576 Q1088.64 72.576 1085.36 69.3758 Q1082.08 66.1351 1082.08 57.6282 L1082.08 32.9987 L1076.61 32.9987 L1076.61 27.2059 L1082.08 27.2059 L1082.08 14.324 L1089.58 14.324 Z" fill="#000000" fill-rule="nonzero" fill-opacity="1" /><path clip-path="url(#clip590)" d="M1141.02 34.1734 Q1139.77 33.4443 1138.27 33.1202 Q1136.81 32.7556 1135.03 32.7556 Q1128.71 32.7556 1125.31 36.8875 Q1121.94 40.9789 1121.94 48.6757 L1121.94 72.576 L1114.45 72.576 L1114.45 27.2059 L1121.94 27.2059 L1121.94 34.2544 Q1124.29 30.1225 1128.06 28.1376 Q1131.83 26.1121 1137.21 26.1121 Q1137.98 26.1121 1138.92 26.2337 Q1139.85 26.3147 1140.98 26.5172 L1141.02 34.1734 Z" fill="#000000" fill-rule="nonzero" fill-opacity="1" /><path clip-path="url(#clip590)" d="M1169.46 49.7694 Q1160.43 49.7694 1156.94 51.8354 Q1153.46 53.9013 1153.46 58.8839 Q1153.46 62.8538 1156.05 65.2034 Q1158.68 67.5124 1163.18 67.5124 Q1169.38 67.5124 1173.11 63.1374 Q1176.87 58.7219 1176.87 51.4303 L1176.87 49.7694 L1169.46 49.7694 M1184.33 46.6907 L1184.33 72.576 L1176.87 72.576 L1176.87 65.6895 Q1174.32 69.8214 1170.51 71.8063 Q1166.71 73.7508 1161.2 73.7508 Q1154.23 73.7508 1150.1 69.8619 Q1146.01 65.9325 1146.01 59.3701 Q1146.01 51.7138 1151.11 47.825 Q1156.25 43.9361 1166.42 43.9361 L1176.87 43.9361 L1176.87 43.2069 Q1176.87 38.0623 1173.47 35.2672 Q1170.11 32.4315 1163.99 32.4315 Q1160.1 32.4315 1156.42 33.3632 Q1152.73 34.295 1149.33 36.1584 L1149.33 29.2718 Q1153.42 27.692 1157.27 26.9223 Q1161.12 26.1121 1164.76 26.1121 Q1174.6 26.1121 1179.47 31.2163 Q1184.33 36.3204 1184.33 46.6907 Z" fill="#000000" fill-rule="nonzero" fill-opacity="1" /><path clip-path="url(#clip590)" d="M1199.68 9.54393 L1207.13 9.54393 L1207.13 72.576 L1199.68 72.576 L1199.68 9.54393 Z" fill="#000000" fill-rule="nonzero" fill-opacity="1" /><path clip-path="url(#clip590)" d="M1272.07 9.54393 L1272.07 15.7418 L1264.94 15.7418 Q1260.93 15.7418 1259.35 17.3622 Q1257.81 18.9825 1257.81 23.1955 L1257.81 27.2059 L1270.08 27.2059 L1270.08 32.9987 L1257.81 32.9987 L1257.81 72.576 L1250.32 72.576 L1250.32 32.9987 L1243.19 32.9987 L1243.19 27.2059 L1250.32 27.2059 L1250.32 24.0462 Q1250.32 16.471 1253.84 13.0277 Q1257.36 9.54393 1265.02 9.54393 L1272.07 9.54393 Z" fill="#000000" fill-rule="nonzero" fill-opacity="1" /><path clip-path="url(#clip590)" d="M1295.89 32.4315 Q1289.89 32.4315 1286.41 37.1306 Q1282.93 41.7891 1282.93 49.9314 Q1282.93 58.0738 1286.37 62.7728 Q1289.85 67.4314 1295.89 67.4314 Q1301.84 67.4314 1305.33 62.7323 Q1308.81 58.0333 1308.81 49.9314 Q1308.81 41.8701 1305.33 37.1711 Q1301.84 32.4315 1295.89 32.4315 M1295.89 26.1121 Q1305.61 26.1121 1311.16 32.4315 Q1316.71 38.7509 1316.71 49.9314 Q1316.71 61.0714 1311.16 67.4314 Q1305.61 73.7508 1295.89 73.7508 Q1286.13 73.7508 1280.58 67.4314 Q1275.07 61.0714 1275.07 49.9314 Q1275.07 38.7509 1280.58 32.4315 Q1286.13 26.1121 1295.89 26.1121 Z" fill="#000000" fill-rule="nonzero" fill-opacity="1" /><path clip-path="url(#clip590)" d="M1355.36 34.1734 Q1354.1 33.4443 1352.6 33.1202 Q1351.14 32.7556 1349.36 32.7556 Q1343.04 32.7556 1339.64 36.8875 Q1336.28 40.9789 1336.28 48.6757 L1336.28 72.576 L1328.78 72.576 L1328.78 27.2059 L1336.28 27.2059 L1336.28 34.2544 Q1338.63 30.1225 1342.39 28.1376 Q1346.16 26.1121 1351.55 26.1121 Q1352.32 26.1121 1353.25 26.2337 Q1354.18 26.3147 1355.32 26.5172 L1355.36 34.1734 Z" fill="#000000" fill-rule="nonzero" fill-opacity="1" /><path clip-path="url(#clip590)" d="M1397.04 35.9153 Q1399.84 30.8922 1403.72 28.5022 Q1407.61 26.1121 1412.88 26.1121 Q1419.97 26.1121 1423.82 31.0947 Q1427.66 36.0368 1427.66 45.1919 L1427.66 72.576 L1420.17 72.576 L1420.17 45.4349 Q1420.17 38.913 1417.86 35.7533 Q1415.55 32.5936 1410.81 32.5936 Q1405.02 32.5936 1401.66 36.4419 Q1398.3 40.2903 1398.3 46.9338 L1398.3 72.576 L1390.8 72.576 L1390.8 45.4349 Q1390.8 38.8725 1388.49 35.7533 Q1386.18 32.5936 1381.36 32.5936 Q1375.65 32.5936 1372.29 36.4824 Q1368.93 40.3308 1368.93 46.9338 L1368.93 72.576 L1361.43 72.576 L1361.43 27.2059 L1368.93 27.2059 L1368.93 34.2544 Q1371.48 30.082 1375.04 28.0971 Q1378.61 26.1121 1383.51 26.1121 Q1388.45 26.1121 1391.9 28.6237 Q1395.38 31.1352 1397.04 35.9153 Z" fill="#000000" fill-rule="nonzero" fill-opacity="1" /><path clip-path="url(#clip590)" d="M1491.87 9.54393 L1491.87 15.7418 L1484.74 15.7418 Q1480.73 15.7418 1479.15 17.3622 Q1477.61 18.9825 1477.61 23.1955 L1477.61 27.2059 L1489.89 27.2059 L1489.89 32.9987 L1477.61 32.9987 L1477.61 72.576 L1470.12 72.576 L1470.12 32.9987 L1462.99 32.9987 L1462.99 27.2059 L1470.12 27.2059 L1470.12 24.0462 Q1470.12 16.471 1473.64 13.0277 Q1477.17 9.54393 1484.82 9.54393 L1491.87 9.54393 Z" fill="#000000" fill-rule="nonzero" fill-opacity="1" /><path clip-path="url(#clip590)" d="M1518.73 49.7694 Q1509.7 49.7694 1506.21 51.8354 Q1502.73 53.9013 1502.73 58.8839 Q1502.73 62.8538 1505.32 65.2034 Q1507.95 67.5124 1512.45 67.5124 Q1518.65 67.5124 1522.37 63.1374 Q1526.14 58.7219 1526.14 51.4303 L1526.14 49.7694 L1518.73 49.7694 M1533.6 46.6907 L1533.6 72.576 L1526.14 72.576 L1526.14 65.6895 Q1523.59 69.8214 1519.78 71.8063 Q1515.97 73.7508 1510.47 73.7508 Q1503.5 73.7508 1499.37 69.8619 Q1495.27 65.9325 1495.27 59.3701 Q1495.27 51.7138 1500.38 47.825 Q1505.52 43.9361 1515.69 43.9361 L1526.14 43.9361 L1526.14 43.2069 Q1526.14 38.0623 1522.74 35.2672 Q1519.38 32.4315 1513.26 32.4315 Q1509.37 32.4315 1505.69 33.3632 Q1502 34.295 1498.6 36.1584 L1498.6 29.2718 Q1502.69 27.692 1506.54 26.9223 Q1510.38 26.1121 1514.03 26.1121 Q1523.87 26.1121 1528.73 31.2163 Q1533.6 36.3204 1533.6 46.6907 Z" fill="#000000" fill-rule="nonzero" fill-opacity="1" /><path clip-path="url(#clip590)" d="M1581.6 28.9478 L1581.6 35.9153 Q1578.44 34.1734 1575.24 33.3227 Q1572.08 32.4315 1568.84 32.4315 Q1561.59 32.4315 1557.58 37.0496 Q1553.57 41.6271 1553.57 49.9314 Q1553.57 58.2358 1557.58 62.8538 Q1561.59 67.4314 1568.84 67.4314 Q1572.08 67.4314 1575.24 66.5807 Q1578.44 65.6895 1581.6 63.9476 L1581.6 70.8341 Q1578.48 72.2924 1575.12 73.0216 Q1571.8 73.7508 1568.03 73.7508 Q1557.78 73.7508 1551.74 67.3098 Q1545.71 60.8689 1545.71 49.9314 Q1545.71 38.832 1551.78 32.472 Q1557.9 26.1121 1568.51 26.1121 Q1571.96 26.1121 1575.24 26.8413 Q1578.52 27.5299 1581.6 28.9478 Z" fill="#000000" fill-rule="nonzero" fill-opacity="1" /><path clip-path="url(#clip590)" d="M1601.93 14.324 L1601.93 27.2059 L1617.29 27.2059 L1617.29 32.9987 L1601.93 32.9987 L1601.93 57.6282 Q1601.93 63.1779 1603.43 64.7578 Q1604.97 66.3376 1609.63 66.3376 L1617.29 66.3376 L1617.29 72.576 L1609.63 72.576 Q1601 72.576 1597.72 69.3758 Q1594.44 66.1351 1594.44 57.6282 L1594.44 32.9987 L1588.97 32.9987 L1588.97 27.2059 L1594.44 27.2059 L1594.44 14.324 L1601.93 14.324 Z" fill="#000000" fill-rule="nonzero" fill-opacity="1" /><path clip-path="url(#clip590)" d="M1644.67 32.4315 Q1638.68 32.4315 1635.19 37.1306 Q1631.71 41.7891 1631.71 49.9314 Q1631.71 58.0738 1635.15 62.7728 Q1638.64 67.4314 1644.67 67.4314 Q1650.63 67.4314 1654.11 62.7323 Q1657.59 58.0333 1657.59 49.9314 Q1657.59 41.8701 1654.11 37.1711 Q1650.63 32.4315 1644.67 32.4315 M1644.67 26.1121 Q1654.39 26.1121 1659.94 32.4315 Q1665.49 38.7509 1665.49 49.9314 Q1665.49 61.0714 1659.94 67.4314 Q1654.39 73.7508 1644.67 73.7508 Q1634.91 73.7508 1629.36 67.4314 Q1623.85 61.0714 1623.85 49.9314 Q1623.85 38.7509 1629.36 32.4315 Q1634.91 26.1121 1644.67 26.1121 Z" fill="#000000" fill-rule="nonzero" fill-opacity="1" /><path clip-path="url(#clip590)" d="M1704.14 34.1734 Q1702.88 33.4443 1701.38 33.1202 Q1699.93 32.7556 1698.14 32.7556 Q1691.82 32.7556 1688.42 36.8875 Q1685.06 40.9789 1685.06 48.6757 L1685.06 72.576 L1677.57 72.576 L1677.57 27.2059 L1685.06 27.2059 L1685.06 34.2544 Q1687.41 30.1225 1691.18 28.1376 Q1694.94 26.1121 1700.33 26.1121 Q1701.1 26.1121 1702.03 26.2337 Q1702.96 26.3147 1704.1 26.5172 L1704.14 34.1734 Z" fill="#000000" fill-rule="nonzero" fill-opacity="1" /><polyline clip-path="url(#clip592)" style="stroke:#009af9; stroke-linecap:round; stroke-linejoin:round; stroke-width:4; stroke-opacity:1; fill:none" points="289.358,589.863 291.363,589.864 293.369,589.864 295.374,589.864 297.379,589.864 299.385,589.864 301.39,589.865 303.395,589.865 305.4,589.865 307.406,589.865 309.411,589.866 311.416,589.866 313.422,589.866 315.427,589.866 317.432,589.867 319.438,589.867 321.443,589.868 323.448,589.868 325.454,589.868 327.459,589.869 329.464,589.869 331.469,589.87 333.475,589.87 335.48,589.871 337.485,589.871 339.491,589.872 341.496,589.873 343.501,589.873 345.507,589.874 347.512,589.875 349.517,589.876 351.522,589.877 353.528,589.877 355.533,589.878 357.538,589.879 359.544,589.881 361.549,589.882 363.554,589.883 365.56,589.884 367.565,589.885 369.57,589.887 371.576,589.888 373.581,589.89 375.586,589.892 377.591,589.893 379.597,589.895 381.602,589.897 383.607,589.899 385.613,589.902 387.618,589.904 389.623,589.906 391.629,589.909 393.634,589.912 395.639,589.915 397.644,589.918 399.65,589.921 401.655,589.924 403.66,589.928 405.666,589.932 407.671,589.936 409.676,589.94 411.682,589.945 413.687,589.95 415.692,589.955 417.698,589.96 419.703,589.966 421.708,589.972 423.713,589.978 425.719,589.985 427.724,589.992 429.729,589.999 431.735,590.007 433.74,590.016 435.745,590.024 437.751,590.034 439.756,590.044 441.761,590.054 443.766,590.065 445.772,590.077 447.777,590.089 449.782,590.102 451.788,590.116 453.793,590.13 455.798,590.145 457.804,590.162 459.809,590.179 461.814,590.197 463.82,590.216 465.825,590.236 467.83,590.258 469.835,590.28 471.841,590.304 473.846,590.329 475.851,590.356 477.857,590.384 479.862,590.414 481.867,590.446 483.873,590.479 485.878,590.514 487.883,590.551 489.888,590.59 491.894,590.632 493.899,590.676 495.904,590.722 497.91,590.771 499.915,590.823 501.92,590.878 503.926,590.936 505.931,590.997 507.936,591.062 509.942,591.13 511.947,591.203 513.952,591.279 515.957,591.36 517.963,591.445 519.968,591.535 521.973,591.631 523.979,591.732 525.984,591.838 527.989,591.951 529.995,592.07 532,592.196 534.005,592.329 536.01,592.47 538.016,592.619 540.021,592.776 542.026,592.942 544.032,593.118 546.037,593.304 548.042,593.5 550.048,593.708 552.053,593.927 554.058,594.159 556.064,594.405 558.069,594.664 560.074,594.939 562.079,595.229 564.085,595.536 566.09,595.86 568.095,596.203 570.101,596.566 572.106,596.949 574.111,597.355 576.117,597.784 578.122,598.238 580.127,598.718 582.132,599.226 584.138,599.763 586.143,600.331 588.148,600.932 590.154,601.568 592.159,602.241 594.164,602.953 596.17,603.706 598.175,604.503 600.18,605.347 602.185,606.24 604.191,607.185 606.196,608.186 608.201,609.246 610.207,610.367 612.212,611.555 614.217,612.813 616.223,614.146 618.228,615.558 620.233,617.053 622.239,618.638 624.244,620.318 626.249,622.099 628.254,623.987 630.26,625.989 632.265,628.112 634.27,630.365 636.276,632.756 638.281,635.293 640.286,637.987 642.292,640.849 644.297,643.888 646.302,647.119 648.307,650.553 650.313,654.206 652.318,658.093 654.323,662.231 656.329,666.638 658.334,671.334 660.339,676.342 662.345,681.685 664.35,687.389 666.355,693.484 668.361,700.002 670.366,706.979 672.371,714.453 674.376,722.47 676.382,731.078 678.387,740.333 680.392,750.297 682.398,761.042 684.403,772.647 686.408,785.204 688.414,798.818 690.419,813.608 692.424,829.708 694.429,847.273 696.435,866.469 698.44,887.473 700.445,910.446 702.451,935.493 704.456,962.551 706.461,991.169 708.467,1020.1 710.472,1046.69 712.477,1066.62 714.483,1075.27 716.488,1071.07 718.493,1056.98 720.498,1037.95 722.504,1017.91 724.509,999.133 726.514,982.672 728.52,968.946 730.525,958.086 732.53,950.113 734.536,945.023 736.541,942.832 738.546,943.59 740.551,947.4 742.557,954.42 744.562,964.872 746.567,979.046 748.573,997.286 750.578,1019.95 752.583,1047.25 754.589,1078.85 756.594,1112.76 758.599,1143.36 760.605,1160.63 762.61,1157.26 764.615,1137.95 766.62,1113.48 768.626,1091.25 770.631,1074.45 772.636,1064.24 774.642,1061.06 776.647,1065.23 778.652,1077.15 780.658,1097.32 782.663,1125.95 784.668,1161.75 786.673,1198.3 788.679,1219.74 790.684,1212.36 792.689,1186.22 794.695,1159.49 796.7,1141.34 798.705,1134.73 800.711,1140.67 802.716,1159.65 804.721,1190.97 806.727,1228.93 808.732,1254.94 810.737,1248.37 812.742,1221.51 814.748,1198.61 816.753,1190.66 818.758,1200.88 820.764,1229.15 822.769,1267.84 824.774,1289.68 826.78,1272.21 828.785,1242.75 830.79,1228.76 832.795,1238.72 834.801,1272.15 836.806,1311.78 838.811,1314.03 840.817,1283.71 842.822,1266.29 844.827,1278.45 846.833,1314.48 848.838,1333.94 850.843,1306.86 852.849,1282.6 854.854,1291.24 856.859,1327.03 858.864,1342.34 860.87,1317.17 862.875,1307.74 864.88,1331.53 866.886,1349.18 868.891,1328.24 870.896,1321.99 872.902,1347.5 874.907,1349.1 876.912,1322.04 878.917,1330.76 880.923,1365.55 882.928,1355.21 884.933,1339.33 886.939,1351.58 888.944,1357.45 890.949,1367.87 892.955,1374.46 894.96,1352.06 896.965,1356.99 898.971,1357.26 900.976,1347.45 902.981,1363.23 904.986,1344.51 906.992,1340.45 908.997,1349.51 911.002,1354.37 913.008,1349.12 915.013,1345.37 917.018,1351.24 919.024,1337.14 921.029,1347.7 923.034,1347.53 925.039,1339.26 927.045,1342.95 929.05,1341.05 931.055,1339.94 933.061,1335.89 935.066,1335.9 937.071,1340.37 939.077,1320.16 941.082,1326.12 943.087,1333.32 945.093,1331.84 947.098,1336.24 949.103,1317.15 951.108,1329.03 953.114,1310.7 955.119,1320.64 957.124,1317.55 959.13,1307.9 961.135,1319.01 963.14,1307.27 965.146,1306.1 967.151,1317.29 969.156,1288.51 971.161,1303.67 973.167,1309.24 975.172,1294.12 977.177,1304.76 979.183,1295.55 981.188,1293.61 983.193,1290.42 985.199,1288.3 987.204,1292.15 989.209,1270.83 991.215,1274.4 993.22,1274.39 995.225,1263.48 997.23,1254.62 999.236,1270 1001.24,1268.58 1003.25,1254.92 1005.25,1265.14 1007.26,1249.62 1009.26,1265.81 1011.27,1260.82 1013.27,1255.79 1015.28,1257.97 1017.28,1256.99 1019.29,1247.99 1021.29,1252.46 1023.3,1246.37 1025.3,1242.24 1027.31,1236.09 1029.32,1242.18 1031.32,1245.83 1033.33,1233.06 1035.33,1249.34 1037.34,1216.58 1039.34,1214.69 1041.35,1231.82 1043.35,1224.45 1045.36,1222.17 1047.36,1219.16 1049.37,1220.08 1051.37,1223.4 1053.38,1227.17 1055.38,1220.06 1057.39,1202.13 1059.39,1200.66 1061.4,1215.31 1063.41,1223.84 1065.41,1216.56 1067.42,1199.24 1069.42,1189.72 1071.43,1203.77 1073.43,1192.76 1075.44,1203.04 1077.44,1189.55 1079.45,1181.34 1081.45,1186.89 1083.46,1199.38 1085.46,1178.59 1087.47,1187.77 1089.47,1182.98 1091.48,1190.7 1093.49,1183.57 1095.49,1182.05 1097.5,1194.8 1099.5,1184.72 1101.51,1169.13 1103.51,1180.06 1105.52,1187.47 1107.52,1170.38 1109.53,1168.36 1111.53,1167.14 1113.54,1181.24 1115.54,1181.37 1117.55,1171.11 1119.55,1165.71 1121.56,1167.72 1123.56,1183.14 1125.57,1160.14 1127.58,1188.59 1129.58,1187.07 1131.59,1164.39 1133.59,1171.76 1135.6,1168.8 1137.6,1159.74 1139.61,1166.75 1141.61,1160.29 1143.62,1164.83 1145.62,1167.15 1147.63,1165.94 1149.63,1179.1 1151.64,1176.4 1153.64,1162.09 1155.65,1166.76 1157.65,1164.36 1159.66,1150.56 1161.67,1168.89 1163.67,1169.9 1165.68,1174.42 1167.68,1165.2 1169.69,1154.93 1171.69,1160.77 1173.7,1175.08 1175.7,1165.47 1177.71,1163.18 1179.71,1170.61 1181.72,1166.98 1183.72,1174.89 1185.73,1160.79 1187.73,1176.78 1189.74,1165.59 1191.74,1164.83 1193.75,1153.16 1195.76,1179.14 1197.76,1145.66 1199.77,1171.46 1201.77,1151.33 1203.78,1168.4 1205.78,1162.03 1207.79,1158.82 1209.79,1167.2 1211.8,1167.71 1213.8,1153.55 1215.81,1168.74 1217.81,1155.67 1219.82,1173.47 1221.82,1155.53 1223.83,1157.95 1225.84,1164.74 1227.84,1162.65 1229.85,1159.77 1231.85,1155.78 1233.86,1157.84 1235.86,1165.93 1237.87,1149.41 1239.87,1163.78 1241.88,1157.89 1243.88,1170.58 1245.89,1156.8 1247.89,1167.1 1249.9,1163.41 1251.9,1167.12 1253.91,1165.38 1255.91,1160.98 1257.92,1155.91 1259.93,1160.34 1261.93,1160.78 1263.94,1170.01 1265.94,1171.14 1267.95,1161.33 1269.95,1159.26 1271.96,1152.53 1273.96,1172.56 1275.97,1163.61 1277.97,1160.91 1279.98,1171.2 1281.98,1162.2 1283.99,1162.49 1285.99,1158.36 1288,1156.05 1290,1160.8 1292.01,1171.12 1294.02,1163.37 1296.02,1164.59 1298.03,1179.84 1300.03,1152.16 1302.04,1173.1 1304.04,1162.62 1306.05,1162.46 1308.05,1170.06 1310.06,1159.22 1312.06,1157.67 1314.07,1159.9 1316.07,1150.22 1318.08,1170.57 1320.08,1159.13 1322.09,1165.29 1324.1,1167.31 1326.1,1156.21 1328.11,1172.76 1330.11,1174.27 1332.12,1165.46 1334.12,1155.36 1336.13,1157.9 1338.13,1168.61 1340.14,1163.47 1342.14,1169.75 1344.15,1163.43 1346.15,1155.91 1348.16,1172.49 1350.16,1160.48 1352.17,1167.72 1354.17,1169.72 1356.18,1167.6 1358.19,1162.7 1360.19,1176.55 1362.2,1165.57 1364.2,1164.31 1366.21,1155.81 1368.21,1162.51 1370.22,1168.18 1372.22,1167.86 1374.23,1165.13 1376.23,1169.43 1378.24,1166.63 1380.24,1177.83 1382.25,1165.17 1384.25,1157.28 1386.26,1169.63 1388.26,1165.96 1390.27,1169.89 1392.28,1176.41 1394.28,1163.48 1396.29,1164.66 1398.29,1158.87 1400.3,1167.9 1402.3,1162.25 1404.31,1152 1406.31,1160.14 1408.32,1160.04 1410.32,1161.31 1412.33,1144.06 1414.33,1168.31 1416.34,1165.18 1418.34,1153.52 1420.35,1171.28 1422.35,1163.15 1424.36,1161.69 1426.37,1168.24 1428.37,1176.05 1430.38,1160.54 1432.38,1167.68 1434.39,1150.63 1436.39,1173.3 1438.4,1161.18 1440.4,1151.74 1442.41,1159.54 1444.41,1163.16 1446.42,1160.48 1448.42,1157.42 1450.43,1154.04 1452.43,1150.12 1454.44,1153.67 1456.45,1158.29 1458.45,1154.99 1460.46,1161.27 1462.46,1168.4 1464.47,1168 1466.47,1151.98 1468.48,1158.7 1470.48,1176.22 1472.49,1157.86 1474.49,1164.84 1476.5,1159.48 1478.5,1168.47 1480.51,1166.3 1482.51,1171.36 1484.52,1165.46 1486.52,1150.21 1488.53,1154.27 1490.54,1158.13 1492.54,1171.28 1494.55,1162.46 1496.55,1176.4 1498.56,1165.23 1500.56,1158.64 1502.57,1174.56 1504.57,1161.24 1506.58,1172.53 1508.58,1167.25 1510.59,1180.36 1512.59,1151.11 1514.6,1160.23 1516.6,1167.38 1518.61,1164.57 1520.61,1165.28 1522.62,1167.38 1524.63,1160.21 1526.63,1161.14 1528.64,1166.44 1530.64,1152.98 1532.65,1155.06 1534.65,1164.85 1536.66,1160.91 1538.66,1169.96 1540.67,1174.74 1542.67,1159.81 1544.68,1163.58 1546.68,1175.91 1548.69,1147.87 1550.69,1170.74 1552.7,1163.99 1554.7,1158.45 1556.71,1170.22 1558.72,1172.66 1560.72,1169.9 1562.73,1178.54 1564.73,1166.67 1566.74,1162.38 1568.74,1157.7 1570.75,1173.32 1572.75,1171.41 1574.76,1162.87 1576.76,1157.7 1578.77,1164.35 1580.77,1153.6 1582.78,1167.11 1584.78,1167.85 1586.79,1167.63 1588.8,1151.62 1590.8,1169.65 1592.81,1162.42 1594.81,1160.69 1596.82,1162.57 1598.82,1173.38 1600.83,1151.57 1602.83,1164.31 1604.84,1161.2 1606.84,1150.14 1608.85,1173.54 1610.85,1169.33 1612.86,1158.21 1614.86,1162.31 1616.87,1150.16 1618.87,1167.01 1620.88,1165.42 1622.89,1169.44 1624.89,1164.35 1626.9,1167.36 1628.9,1151.01 1630.91,1167.3 1632.91,1161.92 1634.92,1172.19 1636.92,1173.13 1638.93,1172.19 1640.93,1165.39 1642.94,1161.6 1644.94,1144.95 1646.95,1160.49 1648.95,1168.06 1650.96,1160.21 1652.96,1177.97 1654.97,1151.69 1656.98,1173.15 1658.98,1157.98 1660.99,1163.54 1662.99,1165.73 1665,1162.11 1667,1154.57 1669.01,1175.26 1671.01,1159.85 1673.02,1173.4 1675.02,1165.76 1677.03,1155.59 1679.03,1180.89 1681.04,1172.08 1683.04,1161.7 1685.05,1152.4 1687.06,1153.17 1689.06,1174.64 1691.07,1166.74 1693.07,1162.74 1695.08,1161.47 1697.08,1163.57 1699.09,1157.71 1701.09,1179.76 1703.1,1159.36 1705.1,1157.91 1707.11,1170 1709.11,1154.89 1711.12,1170.28 1713.12,1164.72 1715.13,1158.4 1717.13,1150.97 1719.14,1167.88 1721.15,1164.34 1723.15,1163.89 1725.16,1156.11 1727.16,1170.56 1729.17,1166.25 1731.17,1176.02 1733.18,1166.61 1735.18,1163.82 1737.19,1159.85 1739.19,1163.9 1741.2,1175.39 1743.2,1154.97 1745.21,1171.85 1747.21,1161.81 1749.22,1166.11 1751.22,1158.6 1753.23,1176.58 1755.24,1174.02 1757.24,1172.34 1759.25,1164.98 1761.25,1159.68 1763.26,1164.33 1765.26,1155.3 1767.27,1161.8 1769.27,1173.38 1771.28,1166.33 1773.28,1150.82 1775.29,1156.56 1777.29,1168.15 1779.3,1170.79 1781.3,1152.88 1783.31,1171.34 1785.31,1168.25 1787.32,1167.45 1789.33,1171.21 1791.33,1155.57 1793.34,1149.5 1795.34,1169.05 1797.35,1175.27 1799.35,1146.11 1801.36,1163.94 1803.36,1172.47 1805.37,1170.95 1807.37,1162.76 1809.38,1166.32 1811.38,1160.35 1813.39,1162.33 1815.39,1162.22 1817.4,1170.78 1819.41,1169 1821.41,1168.1 1823.42,1167.66 1825.42,1169.82 1827.43,1170.39 1829.43,1161.27 1831.44,1164.05 1833.44,1167.94 1835.45,1158.85 1837.45,1168.34 1839.46,1156.82 1841.46,1170.38 1843.47,1169.98 1845.47,1165.74 1847.48,1154.85 1849.48,1162.92 1851.49,1155.61 1853.5,1157.77 1855.5,1164.62 1857.51,1165.22 1859.51,1162.77 1861.52,1167.32 1863.52,1167.85 1865.53,1151.1 1867.53,1166.23 1869.54,1162.22 1871.54,1160.43 1873.55,1165.91 1875.55,1176.43 1877.56,1157.07 1879.56,1162.12 1881.57,1153.24 1883.57,1166.47 1885.58,1159.68 1887.59,1169.64 1889.59,1172.13 1891.6,1142.25 1893.6,1151.16 1895.61,1165.39 1897.61,1165.32 1899.62,1157.5 1901.62,1167.68 1903.63,1159.2 1905.63,1155.52 1907.64,1159.34 1909.64,1167.85 1911.65,1167.67 1913.65,1160.76 1915.66,1167.69 1917.67,1163.54 1919.67,1159.53 1921.68,1160.33 1923.68,1154.61 1925.69,1168.71 1927.69,1159.22 1929.7,1173.48 1931.7,1163.57 1933.71,1158.82 1935.71,1168.15 1937.72,1164.2 1939.72,1174.45 1941.73,1158.56 1943.73,1157.26 1945.74,1176.18 1947.74,1160.25 1949.75,1161.71 1951.76,1174.44 1953.76,1158.46 1955.77,1166.99 1957.77,1161.38 1959.78,1152.9 1961.78,1165.81 1963.79,1170.26 1965.79,1171.7 1967.8,1173.47 1969.8,1156.61 1971.81,1169.66 1973.81,1154.16 1975.82,1157.04 1977.82,1167.22 1979.83,1168.44 1981.83,1171.8 1983.84,1160.94 1985.85,1161.17 1987.85,1168.42 1989.86,1180.45 1991.86,1169.05 1993.87,1164.43 1995.87,1164.4 1997.88,1159.4 1999.88,1153.93 2001.89,1166.99 2003.89,1174.21 2005.9,1155.43 2007.9,1172.43 2009.91,1169.01 2011.91,1166.89 2013.92,1153.99 2015.92,1155.54 2017.93,1168.35 2019.94,1159.69 2021.94,1163.47 2023.95,1164.03 2025.95,1159.19 2027.96,1170.53 2029.96,1166.6 2031.97,1164.76 2033.97,1160.33 2035.98,1171.77 2037.98,1157.23 2039.99,1167.61 2041.99,1169.81 2044,1167.99 2046,1162.51 2048.01,1159.57 2050.02,1170.89 2052.02,1156.63 2054.03,1171.2 2056.03,1162.57 2058.04,1164.15 2060.04,1165.98 2062.05,1158.95 2064.05,1156.19 2066.06,1154.36 2068.06,1160.78 2070.07,1165.84 2072.07,1163.06 2074.08,1162.94 2076.08,1155.15 2078.09,1153.49 2080.09,1167.26 2082.1,1168.51 2084.11,1163.96 2086.11,1159.08 2088.12,1164.67 2090.12,1162.26 2092.13,1170.25 2094.13,1164.77 2096.14,1170.88 2098.14,1151.65 2100.15,1159 2102.15,1174.88 2104.16,1159.95 2106.16,1161.92 2108.17,1166.28 2110.17,1156.45 2112.18,1166.55 2114.18,1167.94 2116.19,1156.32 2118.2,1169.22 2120.2,1155.23 2122.21,1166.87 2124.21,1164.22 2126.22,1170.68 2128.22,1167 2130.23,1179 2132.23,1177.6 2134.24,1156.88 2136.24,1175.34 2138.25,1153.52 2140.25,1167.49 2142.26,1162.59 2144.26,1179.44 2146.27,1167.72 2148.28,1165.55 2150.28,1164.65 2152.29,1156.54 2154.29,1175.61 2156.3,1174.31 2158.3,1160.42 2160.31,1161.31 2162.31,1169.3 2164.32,1171.32 2166.32,1159.21 2168.33,1162.94 2170.33,1157.13 2172.34,1168.32 2174.34,1165.91 2176.35,1153.57 2178.35,1153.49 2180.36,1163.01 2182.37,1166.7 2184.37,1161.5 2186.38,1156 2188.38,1168.73 2190.39,1163.29 2192.39,1166.07 2194.4,1163.97 2196.4,1168.24 2198.41,1169.96 2200.41,1150.38 2202.42,1162.48 2204.42,1168.45 2206.43,1155.31 2208.43,1172.02 2210.44,1173.68 2212.44,1154.6 2214.45,1166.67 2216.46,1171.98 2218.46,1165.07 2220.47,1153 2222.47,1172.06 2224.48,1169.35 2226.48,1164.63 2228.49,1169.93 2230.49,1169.99 2232.5,1154.36 2234.5,1165.91 2236.51,1177.19 2238.51,1156.72 2240.52,1161.37 2242.52,1157.65 2244.53,1157.88 2246.53,1158.1 2248.54,1166.5 2250.55,1165.29 2252.55,1166.13 2254.56,1150.31 2256.56,1166.52 2258.57,1164.88 2260.57,1160.44 2262.58,1180.54 2264.58,1152.04 2266.59,1176.87 2268.59,1165.33 2270.6,1174.49 2272.6,1165.61 2274.61,1165.03 2276.61,1169.99 2278.62,1165.43 2280.63,1167.86 2282.63,1182.18 2284.64,1160.22 2286.64,1161.28 2288.65,1157.7 2290.65,1163.22 2292.66,1154.69 "/>
<polyline clip-path="url(#clip592)" style="stroke:#e26f46; stroke-linecap:round; stroke-linejoin:round; stroke-width:4; stroke-opacity:1; fill:none" points="289.358,159.909 291.363,159.909 293.369,159.909 295.374,159.91 297.379,159.91 299.385,159.91 301.39,159.911 303.395,159.911 305.4,159.912 307.406,159.912 309.411,159.913 311.416,159.913 313.422,159.914 315.427,159.914 317.432,159.915 319.438,159.916 321.443,159.917 323.448,159.917 325.454,159.918 327.459,159.919 329.464,159.92 331.469,159.921 333.475,159.922 335.48,159.923 337.485,159.924 339.491,159.925 341.496,159.926 343.501,159.928 345.507,159.929 347.512,159.931 349.517,159.932 351.522,159.934 353.528,159.936 355.533,159.937 357.538,159.939 359.544,159.941 361.549,159.944 363.554,159.946 365.56,159.948 367.565,159.951 369.57,159.954 371.576,159.956 373.581,159.959 375.586,159.963 377.591,159.966 379.597,159.97 381.602,159.973 383.607,159.977 385.613,159.982 387.618,159.986 389.623,159.991 391.629,159.996 393.634,160.001 395.639,160.007 397.644,160.013 399.65,160.019 401.655,160.025 403.66,160.032 405.666,160.04 407.671,160.047 409.676,160.056 411.682,160.064 413.687,160.073 415.692,160.083 417.698,160.093 419.703,160.104 421.708,160.116 423.713,160.128 425.719,160.14 427.724,160.154 429.729,160.168 431.735,160.183 433.74,160.199 435.745,160.216 437.751,160.234 439.756,160.253 441.761,160.273 443.766,160.294 445.772,160.316 447.777,160.339 449.782,160.364 451.788,160.39 453.793,160.418 455.798,160.447 457.804,160.478 459.809,160.511 461.814,160.545 463.82,160.582 465.825,160.621 467.83,160.661 469.835,160.705 471.841,160.75 473.846,160.798 475.851,160.849 477.857,160.903 479.862,160.96 481.867,161.02 483.873,161.084 485.878,161.151 487.883,161.222 489.888,161.297 491.894,161.377 493.899,161.461 495.904,161.549 497.91,161.643 499.915,161.742 501.92,161.847 503.926,161.957 505.931,162.074 507.936,162.198 509.942,162.329 511.947,162.467 513.952,162.613 515.957,162.768 517.963,162.931 519.968,163.103 521.973,163.286 523.979,163.479 525.984,163.683 527.989,163.898 529.995,164.126 532,164.367 534.005,164.621 536.01,164.891 538.016,165.175 540.021,165.476 542.026,165.794 544.032,166.131 546.037,166.487 548.042,166.863 550.048,167.261 552.053,167.681 554.058,168.126 556.064,168.596 558.069,169.094 560.074,169.62 562.079,170.176 564.085,170.765 566.09,171.387 568.095,172.045 570.101,172.742 572.106,173.478 574.111,174.258 576.117,175.082 578.122,175.955 580.127,176.878 582.132,177.855 584.138,178.888 586.143,179.983 588.148,181.14 590.154,182.366 592.159,183.664 594.164,185.037 596.17,186.492 598.175,188.032 600.18,189.663 602.185,191.39 604.191,193.22 606.196,195.158 608.201,197.212 610.207,199.389 612.212,201.695 614.217,204.141 616.223,206.733 618.228,209.482 620.233,212.397 622.239,215.489 624.244,218.77 626.249,222.251 628.254,225.946 630.26,229.868 632.265,234.032 634.27,238.455 636.276,243.152 638.281,248.143 640.286,253.445 642.292,259.08 644.297,265.069 646.302,271.434 648.307,278.199 650.313,285.387 652.318,293.023 654.323,301.131 656.329,309.733 658.334,318.849 660.339,328.495 662.345,338.677 664.35,349.391 666.355,360.612 668.361,372.292 670.366,384.343 672.371,396.625 674.376,408.929 676.382,420.963 678.387,432.337 680.392,442.572 682.398,451.136 684.403,457.506 686.408,461.279 688.414,462.266 690.419,460.547 692.424,456.455 694.429,450.492 696.435,443.222 698.44,435.182 700.445,426.827 702.451,418.514 704.456,410.497 706.461,402.946 708.467,395.96 710.472,389.58 712.477,383.799 714.483,378.572 716.488,373.823 718.493,369.45 720.498,365.333 722.504,361.341 724.509,357.342 726.514,353.217 728.52,348.873 730.525,344.254 732.53,339.349 734.536,334.193 736.541,328.87 738.546,323.492 740.551,318.199 742.557,313.135 744.562,308.436 746.567,304.224 748.573,300.593 750.578,297.61 752.583,295.314 754.589,293.717 756.594,292.816 758.599,292.6 760.605,293.066 762.61,294.231 764.615,296.144 766.62,298.89 768.626,302.591 770.631,307.392 772.636,313.438 774.642,320.835 776.647,329.6 778.652,339.586 780.658,350.367 782.663,361.11 784.668,370.441 786.673,376.488 788.679,377.294 790.684,371.656 792.689,359.862 794.695,343.611 796.7,325.21 798.705,306.8 800.711,290.021 802.716,276.039 804.721,265.7 806.727,259.693 808.732,258.705 810.737,263.541 812.742,275.246 814.748,295.197 816.753,325.019 818.758,365.601 820.764,411.856 822.769,437.987 824.774,413.144 826.78,361.742 828.785,314.933 830.79,281.128 832.795,260.918 834.801,253.819 836.806,259.592 838.811,278.113 840.817,308.272 842.822,344.852 844.827,373.646 846.833,378.166 848.838,361.965 850.843,339.774 852.849,317.662 854.854,296.108 856.859,278 858.864,270.533 860.87,283.319 862.875,328.308 864.88,413.768 866.886,429.21 868.891,323.345 870.896,255.5 872.902,235.128 874.907,259.676 876.912,333.961 878.917,422.796 880.923,374.48 882.928,314.434 884.933,292.178 886.939,284.351 888.944,288.851 890.949,334.774 892.955,409.889 894.96,322.113 896.965,251.068 898.971,267.533 900.976,378.499 902.981,409.585 904.986,290.259 906.992,250.712 908.997,299.138 911.002,386.49 913.008,349.36 915.013,301.621 917.018,258.224 919.024,376.337 921.029,336.549 923.034,238.384 925.039,332.997 927.045,381.92 929.05,309.928 931.055,268.137 933.061,363.417 935.066,324.065 937.071,251.139 939.077,442.075 941.082,281.96 943.087,280.802 945.093,373.243 947.098,300.892 949.103,286.101 951.108,351.507 953.114,266.14 955.119,372.879 957.124,285.245 959.13,339.133 961.135,276.097 963.14,340.594 965.146,274.496 967.151,326.221 969.156,333.309 971.161,337.237 973.167,263.312 975.172,378.245 977.177,252.778 979.183,437.296 981.188,292.705 983.193,289.005 985.199,379.596 987.204,244.624 989.209,265.682 991.215,360.759 993.22,266.498 995.225,261.215 997.23,321.277 999.236,397.386 1001.24,315.361 1003.25,292.668 1005.25,257.145 1007.26,288.05 1009.26,342.088 1011.27,426.479 1013.27,380.143 1015.28,409.719 1017.28,441.753 1019.29,373.025 1021.29,445.506 1023.3,355.304 1025.3,310.927 1027.31,265.31 1029.32,258.45 1031.32,363.561 1033.33,426.342 1035.33,274.305 1037.34,246.342 1039.34,378.861 1041.35,260.137 1043.35,318.601 1045.36,273.222 1047.36,289.248 1049.37,299.098 1051.37,403.942 1053.38,223.394 1055.38,320.705 1057.39,414.338 1059.39,296.007 1061.4,260.618 1063.41,301.385 1065.41,270.282 1067.42,246.011 1069.42,253.536 1071.43,253.499 1073.43,247.266 1075.44,345.467 1077.44,378.371 1079.45,255.003 1081.45,356.318 1083.46,278.84 1085.46,379.725 1087.47,269.812 1089.47,289.908 1091.48,434.086 1093.49,406.698 1095.49,351.933 1097.5,312.304 1099.5,433.206 1101.51,344.675 1103.51,284.151 1105.52,295.783 1107.52,326.899 1109.53,312.994 1111.53,290.423 1113.54,369.363 1115.54,375.654 1117.55,404.398 1119.55,457.398 1121.56,329.322 1123.56,277.638 1125.57,405.568 1127.58,258.384 1129.58,296.643 1131.59,401.282 1133.59,440.036 1135.6,350.464 1137.6,312.467 1139.61,270.005 1141.61,314.396 1143.62,384.425 1145.62,290.206 1147.63,348.526 1149.63,385.177 1151.64,290.842 1153.64,369.435 1155.65,232.709 1157.65,271.607 1159.66,269.106 1161.67,321.191 1163.67,278.496 1165.68,447.696 1167.68,406.619 1169.69,399.386 1171.69,243.891 1173.7,420.418 1175.7,380.433 1177.71,415.089 1179.71,243.655 1181.72,470.967 1183.72,417.641 1185.73,369.193 1187.73,275.429 1189.74,294.47 1191.74,299.961 1193.75,294.312 1195.76,278.21 1197.76,269.31 1199.77,300.976 1201.77,294.101 1203.78,265.075 1205.78,321.707 1207.79,250.857 1209.79,276.813 1211.8,294.657 1213.8,282.483 1215.81,266.659 1217.81,265.961 1219.82,297.314 1221.82,252.055 1223.83,264.676 1225.84,274.979 1227.84,273.86 1229.85,352.469 1231.85,291.601 1233.86,395.967 1235.86,264.474 1237.87,372.921 1239.87,272.642 1241.88,287.778 1243.88,260.042 1245.89,255.196 1247.89,259.638 1249.9,290.436 1251.9,297.932 1253.91,279.797 1255.91,252.814 1257.92,347.411 1259.93,353.859 1261.93,314.074 1263.94,419.586 1265.94,327.698 1267.95,298.3 1269.95,414.335 1271.96,304.187 1273.96,266.285 1275.97,355.172 1277.97,376.095 1279.98,248.183 1281.98,350.764 1283.99,324.747 1285.99,300.969 1288,303.862 1290,309.964 1292.01,311.25 1294.02,256.222 1296.02,367.292 1298.03,370.468 1300.03,375.707 1302.04,280.789 1304.04,249.495 1306.05,426.576 1308.05,364.24 1310.06,267.828 1312.06,272.471 1314.07,403.065 1316.07,279.92 1318.08,266.762 1320.08,289.904 1322.09,441.207 1324.1,299.338 1326.1,366.679 1328.11,289.472 1330.11,324.054 1332.12,249.914 1334.12,434.718 1336.13,406.26 1338.13,410.217 1340.14,259.487 1342.14,282.903 1344.15,379.506 1346.15,318.681 1348.16,309.304 1350.16,274.367 1352.17,318.109 1354.17,346.24 1356.18,295.299 1358.19,249.87 1360.19,334.349 1362.2,418.148 1364.2,286.346 1366.21,287.952 1368.21,274.125 1370.22,381.064 1372.22,328.329 1374.23,370.134 1376.23,275.401 1378.24,296.449 1380.24,422.015 1382.25,337.977 1384.25,352.781 1386.26,293.312 1388.26,244.883 1390.27,339.044 1392.28,262.198 1394.28,352.712 1396.29,264.554 1398.29,277.382 1400.3,286.203 1402.3,324.04 1404.31,398.796 1406.31,454.296 1408.32,351.736 1410.32,455.542 1412.33,262.909 1414.33,263.285 1416.34,353.613 1418.34,290.959 1420.35,317.199 1422.35,244.778 1424.36,302.003 1426.37,293.903 1428.37,268.386 1430.38,371.74 1432.38,278.791 1434.39,425.889 1436.39,261.669 1438.4,400.503 1440.4,382.478 1442.41,305.988 1444.41,259.227 1446.42,360.462 1448.42,262.864 1450.43,440.516 1452.43,299.882 1454.44,455.206 1456.45,305.514 1458.45,257.522 1460.46,393.613 1462.46,361.886 1464.47,363.741 1466.47,329.962 1468.48,341.424 1470.48,308.737 1472.49,430.633 1474.49,265.089 1476.5,334.158 1478.5,283.943 1480.51,353.576 1482.51,237.466 1484.52,361.821 1486.52,367.04 1488.53,365.109 1490.54,268.1 1492.54,445.945 1494.55,323.193 1496.55,282.795 1498.56,332.084 1500.56,339.733 1502.57,270.91 1504.57,260.632 1506.58,316.077 1508.58,232.819 1510.59,373.058 1512.59,266.482 1514.6,327.345 1516.6,354.785 1518.61,323.767 1520.61,287.044 1522.62,345.352 1524.63,358.084 1526.63,370.319 1528.64,320.076 1530.64,368.269 1532.65,238.167 1534.65,322.831 1536.66,347.078 1538.66,267.84 1540.67,249.394 1542.67,318.631 1544.68,262.094 1546.68,291.927 1548.69,286.853 1550.69,320.439 1552.7,393.751 1554.7,382.017 1556.71,319.265 1558.72,358.635 1560.72,350.911 1562.73,329.287 1564.73,250.781 1566.74,303.235 1568.74,316.085 1570.75,369.068 1572.75,318.366 1574.76,336.376 1576.76,291.312 1578.77,277.532 1580.77,421.045 1582.78,460.854 1584.78,382.143 1586.79,387.013 1588.8,426.894 1590.8,386.697 1592.81,369.846 1594.81,251.356 1596.82,326.19 1598.82,276.302 1600.83,338.736 1602.83,361.596 1604.84,268.266 1606.84,261.183 1608.85,267.233 1610.85,328.855 1612.86,274.476 1614.86,268.1 1616.87,262.028 1618.87,257.75 1620.88,282.289 1622.89,278.129 1624.89,236.046 1626.9,390.118 1628.9,264.65 1630.91,343.58 1632.91,293.175 1634.92,364.384 1636.92,290.851 1638.93,290.754 1640.93,264.464 1642.94,286.146 1644.94,238.169 1646.95,342.583 1648.95,420.927 1650.96,329.679 1652.96,374.276 1654.97,353.916 1656.98,318.219 1658.98,349.249 1660.99,287.107 1662.99,379.66 1665,323.642 1667,445.933 1669.01,255.815 1671.01,366.202 1673.02,317.238 1675.02,468.058 1677.03,392.785 1679.03,363.363 1681.04,268.433 1683.04,262.616 1685.05,432.846 1687.06,274.293 1689.06,274.243 1691.07,367.778 1693.07,309.382 1695.08,396.439 1697.08,255.055 1699.09,251.941 1701.09,260.59 1703.1,257.873 1705.1,331.029 1707.11,387.728 1709.11,404.769 1711.12,344.949 1713.12,315.044 1715.13,247.825 1717.13,270.457 1719.14,270.657 1721.15,268.014 1723.15,379.717 1725.16,241.478 1727.16,264.824 1729.17,280.266 1731.17,266.892 1733.18,361.57 1735.18,235.966 1737.19,254.417 1739.19,272.369 1741.2,245.049 1743.2,270.207 1745.21,351.115 1747.21,288.537 1749.22,279.468 1751.22,320.365 1753.23,351.932 1755.24,238.541 1757.24,410.159 1759.25,353.921 1761.25,278.61 1763.26,361.16 1765.26,287.663 1767.27,445.664 1769.27,385.187 1771.28,289.265 1773.28,288.926 1775.29,279.135 1777.29,280.474 1779.3,375.427 1781.3,315.568 1783.31,315.866 1785.31,352.486 1787.32,228.281 1789.33,400.342 1791.33,327.385 1793.34,363.761 1795.34,411.231 1797.35,332.185 1799.35,401.79 1801.36,325.534 1803.36,373.433 1805.37,333.864 1807.37,344.461 1809.38,297.426 1811.38,350.102 1813.39,302.228 1815.39,262.312 1817.4,253.824 1819.41,386.281 1821.41,283.76 1823.42,354.72 1825.42,280.979 1827.43,298.84 1829.43,394.806 1831.44,305.348 1833.44,321.486 1835.45,233.927 1837.45,308.151 1839.46,257.059 1841.46,262.636 1843.47,256.432 1845.47,352.713 1847.48,345.984 1849.48,384.722 1851.49,313.727 1853.5,379.442 1855.5,253.798 1857.51,316.345 1859.51,382.962 1861.52,388.213 1863.52,381.385 1865.53,313.847 1867.53,262.928 1869.54,440.546 1871.54,288.084 1873.55,254.19 1875.55,250.521 1877.56,410.994 1879.56,391.739 1881.57,276.855 1883.57,356.745 1885.58,333.915 1887.59,282.604 1889.59,263.849 1891.6,307.852 1893.6,251.9 1895.61,244.828 1897.61,235.212 1899.62,391.002 1901.62,226.267 1903.63,247.948 1905.63,299.13 1907.64,257.914 1909.64,237.549 1911.65,340.442 1913.65,278.94 1915.66,243.015 1917.67,280.459 1919.67,342.67 1921.68,281.57 1923.68,424.752 1925.69,299.928 1927.69,318.767 1929.7,336.113 1931.7,238.562 1933.71,352.821 1935.71,387.482 1937.72,304.362 1939.72,249.147 1941.73,243.041 1943.73,282.079 1945.74,374.43 1947.74,286.075 1949.75,280.938 1951.76,260.589 1953.76,456.261 1955.77,299.351 1957.77,388.632 1959.78,256.806 1961.78,347.156 1963.79,391.301 1965.79,284.363 1967.8,294.233 1969.8,250.628 1971.81,331.086 1973.81,285.045 1975.82,266.79 1977.82,451.874 1979.83,256.783 1981.83,282.391 1983.84,250.193 1985.85,319.447 1987.85,288.015 1989.86,227.188 1991.86,385.914 1993.87,277.758 1995.87,406.568 1997.88,323.257 1999.88,451.049 2001.89,279.892 2003.89,289.778 2005.9,272.143 2007.9,304.694 2009.91,292.81 2011.91,274.593 2013.92,413.966 2015.92,265.615 2017.93,279.507 2019.94,286.915 2021.94,394.533 2023.95,271.924 2025.95,338.144 2027.96,386.885 2029.96,280.861 2031.97,297.048 2033.97,308.59 2035.98,263.107 2037.98,245.022 2039.99,333.892 2041.99,363.321 2044,390.882 2046,271.93 2048.01,274.962 2050.02,274.412 2052.02,280.805 2054.03,320.99 2056.03,314.647 2058.04,304.117 2060.04,331.363 2062.05,293.844 2064.05,342.1 2066.06,252.16 2068.06,269.305 2070.07,335.055 2072.07,289.878 2074.08,408.387 2076.08,287.496 2078.09,245.789 2080.09,380.004 2082.1,298.793 2084.11,283.032 2086.11,419.153 2088.12,391.766 2090.12,272.857 2092.13,361.22 2094.13,417.906 2096.14,295.325 2098.14,397.652 2100.15,418.491 2102.15,296.824 2104.16,268.979 2106.16,369.969 2108.17,243.544 2110.17,265.233 2112.18,279.785 2114.18,372.763 2116.19,339.177 2118.2,263.445 2120.2,444.958 2122.21,406.158 2124.21,281.681 2126.22,362.522 2128.22,351.889 2130.23,383.73 2132.23,312.407 2134.24,370.975 2136.24,382.836 2138.25,257.301 2140.25,431.938 2142.26,371.422 2144.26,345.284 2146.27,323.944 2148.28,270.848 2150.28,391.552 2152.29,226.27 2154.29,316.253 2156.3,338.337 2158.3,359.616 2160.31,420.575 2162.31,284.2 2164.32,296.057 2166.32,334.409 2168.33,288.016 2170.33,264.349 2172.34,452.442 2174.34,350.872 2176.35,314.293 2178.35,384.977 2180.36,278.982 2182.37,358.777 2184.37,342.332 2186.38,288.493 2188.38,413.178 2190.39,329.225 2192.39,279.92 2194.4,355.942 2196.4,285.266 2198.41,366.47 2200.41,336.241 2202.42,352.444 2204.42,287.049 2206.43,334.859 2208.43,260.742 2210.44,344.276 2212.44,396.648 2214.45,377.089 2216.46,344.448 2218.46,271.098 2220.47,398.897 2222.47,247.116 2224.48,352.78 2226.48,269.327 2228.49,276.944 2230.49,329.64 2232.5,337.765 2234.5,319.361 2236.51,314.878 2238.51,397.316 2240.52,389.271 2242.52,358.932 2244.53,238.739 2246.53,362.385 2248.54,355.177 2250.55,371.376 2252.55,275.074 2254.56,313.605 2256.56,374.605 2258.57,270.202 2260.57,393.523 2262.58,285.925 2264.58,273.236 2266.59,311.836 2268.59,342.834 2270.6,373.912 2272.6,238.635 2274.61,263.343 2276.61,313.093 2278.62,329.005 2280.63,245.204 2282.63,420.505 2284.64,365.506 2286.64,306.531 2288.65,275.453 2290.65,400.364 2292.66,264.235 "/>
<path clip-path="url(#clip590)" d="M1915.4 337.564 L2281.97 337.564 L2281.97 166.386 L1915.4 166.386  Z" fill="#ffffff" fill-rule="evenodd" fill-opacity="1"/>
<polyline clip-path="url(#clip590)" style="stroke:#000000; stroke-linecap:round; stroke-linejoin:round; stroke-width:4; stroke-opacity:1; fill:none" points="1915.4,337.564 2281.97,337.564 2281.97,166.386 1915.4,166.386 1915.4,337.564 "/>
<polyline clip-path="url(#clip590)" style="stroke:#009af9; stroke-linecap:round; stroke-linejoin:round; stroke-width:4; stroke-opacity:1; fill:none" points="1939,223.446 2080.56,223.446 "/>
<path clip-path="url(#clip590)" d="M2137.39 218.699 Q2137.39 219.66 2136.6 219.66 Q2135.19 219.706 2134.23 219.987 Q2133.27 220.245 2132.71 220.76 Q2132.17 221.276 2131.87 221.838 Q2131.59 222.377 2131.4 223.196 L2127.14 240.224 Q2125.92 245.026 2121.98 248.516 Q2118.05 251.982 2113.57 251.982 Q2111.02 251.982 2108.89 250.928 Q2106.78 249.874 2105.47 247.743 Q2104.16 245.612 2104.16 242.777 Q2104.16 241.419 2104.51 239.99 L2107.41 228.138 L2108.49 223.922 Q2109.29 220.807 2109.29 220.526 Q2109.29 220.081 2109.01 219.964 Q2108.75 219.823 2108 219.753 L2106.17 219.66 Q2105.61 219.66 2105.38 219.636 Q2105.17 219.613 2105 219.496 Q2104.84 219.378 2104.84 219.121 Q2104.84 218.793 2104.91 218.582 Q2105 218.348 2105.17 218.278 Q2105.33 218.207 2105.45 218.184 Q2105.56 218.16 2105.75 218.16 L2111.93 218.301 L2118.07 218.16 Q2118.75 218.16 2118.75 218.699 Q2118.75 219.378 2118.45 219.519 Q2118.14 219.66 2117.11 219.66 Q2115.35 219.66 2114.56 219.894 Q2113.79 220.105 2113.55 220.479 Q2113.34 220.831 2113.08 221.861 L2108.42 240.529 Q2108.19 241.466 2108.05 242.403 Q2107.93 243.316 2107.93 243.785 L2107.91 244.253 Q2107.91 247.228 2109.55 248.867 Q2111.21 250.507 2113.76 250.507 Q2117.51 250.507 2121 247.532 Q2124.51 244.558 2125.71 239.896 L2130.02 222.775 Q2130.16 222.353 2130.16 221.768 Q2130.16 220.831 2129.45 220.268 Q2128.78 219.683 2126.9 219.66 Q2126.04 219.66 2126.04 219.121 Q2126.04 218.676 2126.2 218.465 Q2126.39 218.231 2126.53 218.207 Q2126.69 218.16 2126.9 218.16 Q2127.7 218.16 2129.38 218.231 Q2131.07 218.301 2131.89 218.301 Q2132.71 218.301 2134.35 218.231 Q2135.99 218.16 2136.79 218.16 Q2137.07 218.16 2137.21 218.301 Q2137.37 218.418 2137.39 218.559 L2137.39 218.699 Z" fill="#000000" fill-rule="nonzero" fill-opacity="1" /><path clip-path="url(#clip590)" d="M2151.5 203.845 Q2151.5 203.369 2151.81 203.041 Q2152.14 202.713 2152.78 202.713 Q2153.51 202.713 2154.74 203.091 Q2155.99 203.451 2156.73 203.517 Q2156.63 202.074 2156.25 199.549 Q2155.89 197.008 2155.89 196.221 Q2155.89 194.712 2157.07 194.68 Q2157.52 194.68 2157.88 195.008 Q2158.24 195.319 2158.24 196.057 Q2158.24 197.09 2157.86 199.566 Q2157.5 202.041 2157.4 203.517 Q2158.01 203.451 2159.38 203.091 Q2160.76 202.713 2161.34 202.713 Q2162.04 202.713 2162.34 203.074 Q2162.65 203.419 2162.65 203.861 Q2162.65 204.287 2162.34 204.665 Q2162.04 205.025 2161.34 205.025 Q2160.76 205.025 2159.42 204.681 Q2158.07 204.32 2157.4 204.222 Q2157.43 205.091 2157.83 207.026 Q2158.24 208.96 2158.24 210.37 L2158.24 210.764 Q2158.24 216.633 2157.56 224.405 Q2157.56 224.503 2157.55 224.635 Q2157.53 224.766 2157.52 224.831 Q2157.5 224.897 2157.48 225.012 Q2157.47 225.143 2157.45 225.192 Q2157.43 225.241 2157.4 225.307 Q2157.37 225.372 2157.35 225.422 Q2157.33 225.471 2157.29 225.504 Q2157.24 225.536 2157.19 225.553 Q2157.14 225.569 2157.07 225.569 Q2156.94 225.569 2156.84 225.504 Q2156.76 225.438 2156.71 225.29 Q2156.66 225.143 2156.65 225.061 Q2156.63 224.979 2156.6 224.717 Q2156.56 224.471 2156.56 224.405 Q2155.89 216.65 2155.89 210.764 L2155.89 210.37 Q2155.89 208.96 2156.27 207.026 Q2156.66 205.091 2156.7 204.222 Q2155.99 204.32 2154.65 204.681 Q2153.3 205.025 2152.78 205.025 Q2152.07 205.025 2151.78 204.648 Q2151.5 204.255 2151.5 203.845 Z" fill="#000000" fill-rule="nonzero" fill-opacity="1" /><path clip-path="url(#clip590)" d="M2220.23 218.699 Q2220.23 219.121 2220.06 219.355 Q2219.92 219.566 2219.76 219.613 Q2219.59 219.636 2219.17 219.66 Q2215.82 219.823 2213.08 222.095 Q2212.4 222.681 2210.69 224.508 Q2209.01 226.335 2206.76 228.771 Q2204.53 231.207 2203.25 232.518 L2209.43 247.321 Q2209.69 247.907 2209.78 248.165 Q2209.9 248.399 2210.13 248.703 Q2210.39 249.008 2210.58 249.102 Q2210.79 249.195 2211.23 249.312 Q2211.7 249.406 2212.17 249.429 Q2212.66 249.429 2213.55 249.453 Q2213.83 249.453 2213.95 249.476 Q2214.09 249.476 2214.25 249.617 Q2214.42 249.734 2214.42 250.015 Q2214.42 250.437 2214.23 250.671 Q2214.07 250.882 2213.9 250.905 Q2213.76 250.928 2213.5 250.928 Q2212.9 250.928 2210.83 250.858 Q2208.77 250.788 2208.19 250.788 L2202.14 250.928 Q2201.42 250.928 2201.42 250.343 Q2201.42 250.038 2201.46 249.874 Q2201.54 249.687 2201.7 249.617 Q2201.86 249.523 2201.98 249.5 Q2202.1 249.476 2202.38 249.453 Q2203.25 249.359 2203.9 249.102 Q2204.58 248.82 2204.86 248.539 Q2205.17 248.258 2205.17 248.048 L2204.93 247.368 L2200.08 235.915 L2195.75 240.623 L2190.85 245.799 Q2189.57 247.181 2189.57 247.954 Q2189.57 249.242 2191.49 249.453 Q2192.07 249.5 2192.07 249.968 Q2192.07 250.413 2191.89 250.647 Q2191.72 250.858 2191.56 250.905 Q2191.42 250.928 2191.21 250.928 Q2190.34 250.928 2188.51 250.858 Q2186.71 250.788 2185.82 250.788 Q2185.07 250.788 2183.55 250.858 Q2182.02 250.928 2181.32 250.928 Q2181.04 250.928 2180.88 250.788 Q2180.71 250.647 2180.71 250.507 L2180.69 250.39 Q2180.69 250.062 2180.74 249.874 Q2180.81 249.687 2180.99 249.593 Q2181.2 249.5 2181.3 249.5 Q2181.39 249.476 2181.74 249.453 Q2183.73 249.336 2185.42 248.563 Q2187.13 247.79 2188.79 245.986 Q2188.93 245.869 2189.1 245.729 Q2189.29 245.588 2189.43 245.471 L2199.54 234.58 L2193.88 221.182 Q2193.62 220.573 2193.38 220.315 Q2193.15 220.034 2192.42 219.847 Q2191.7 219.66 2190.29 219.66 Q2189.89 219.66 2189.71 219.636 Q2189.52 219.613 2189.36 219.496 Q2189.19 219.378 2189.19 219.121 Q2189.19 218.676 2189.36 218.465 Q2189.54 218.231 2189.68 218.207 Q2189.85 218.16 2190.06 218.16 Q2190.64 218.16 2192.73 218.231 Q2194.81 218.301 2195.42 218.301 Q2196.43 218.301 2198.44 218.231 Q2200.48 218.16 2201.46 218.16 Q2202.19 218.16 2202.19 218.746 Q2202.19 219.121 2202.03 219.332 Q2201.86 219.542 2201.7 219.589 Q2201.54 219.636 2201.23 219.66 Q2200.32 219.753 2199.61 220.058 Q2198.94 220.339 2198.65 220.62 Q2198.4 220.877 2198.4 221.041 L2198.63 221.674 L2202.66 231.207 L2210.44 222.868 Q2211.35 221.838 2211.35 221.135 Q2211.35 219.87 2209.43 219.66 Q2208.84 219.566 2208.84 219.121 Q2208.84 218.676 2209.03 218.465 Q2209.22 218.231 2209.36 218.207 Q2209.52 218.16 2209.76 218.16 Q2210.62 218.16 2212.4 218.231 Q2214.21 218.301 2215.1 218.301 Q2215.85 218.301 2217.37 218.231 Q2218.89 218.16 2219.59 218.16 Q2219.87 218.16 2220.04 218.301 Q2220.2 218.418 2220.2 218.559 L2220.23 218.699 Z" fill="#000000" fill-rule="nonzero" fill-opacity="1" /><path clip-path="url(#clip590)" d="M2259.19 218.699 Q2259.19 219.66 2258.39 219.66 Q2256.99 219.706 2256.03 219.987 Q2255.07 220.245 2254.51 220.76 Q2253.97 221.276 2253.66 221.838 Q2253.38 222.377 2253.19 223.196 L2248.93 240.224 Q2247.71 245.026 2243.78 248.516 Q2239.84 251.982 2235.37 251.982 Q2232.82 251.982 2230.69 250.928 Q2228.58 249.874 2227.27 247.743 Q2225.95 245.612 2225.95 242.777 Q2225.95 241.419 2226.31 239.99 L2229.21 228.138 L2230.29 223.922 Q2231.08 220.807 2231.08 220.526 Q2231.08 220.081 2230.8 219.964 Q2230.54 219.823 2229.8 219.753 L2227.97 219.66 Q2227.41 219.66 2227.17 219.636 Q2226.96 219.613 2226.8 219.496 Q2226.63 219.378 2226.63 219.121 Q2226.63 218.793 2226.7 218.582 Q2226.8 218.348 2226.96 218.278 Q2227.13 218.207 2227.24 218.184 Q2227.36 218.16 2227.55 218.16 L2233.73 218.301 L2239.87 218.16 Q2240.55 218.16 2240.55 218.699 Q2240.55 219.378 2240.24 219.519 Q2239.94 219.66 2238.91 219.66 Q2237.15 219.66 2236.35 219.894 Q2235.58 220.105 2235.35 220.479 Q2235.14 220.831 2234.88 221.861 L2230.22 240.529 Q2229.98 241.466 2229.84 242.403 Q2229.72 243.316 2229.72 243.785 L2229.7 244.253 Q2229.7 247.228 2231.34 248.867 Q2233 250.507 2235.56 250.507 Q2239.3 250.507 2242.79 247.532 Q2246.31 244.558 2247.5 239.896 L2251.81 222.775 Q2251.95 222.353 2251.95 221.768 Q2251.95 220.831 2251.25 220.268 Q2250.57 219.683 2248.7 219.66 Q2247.83 219.66 2247.83 219.121 Q2247.83 218.676 2247.99 218.465 Q2248.18 218.231 2248.32 218.207 Q2248.49 218.16 2248.7 218.16 Q2249.49 218.16 2251.18 218.231 Q2252.87 218.301 2253.69 218.301 Q2254.51 218.301 2256.15 218.231 Q2257.79 218.16 2258.58 218.16 Q2258.86 218.16 2259 218.301 Q2259.17 218.418 2259.19 218.559 L2259.19 218.699 Z" fill="#000000" fill-rule="nonzero" fill-opacity="1" /><polyline clip-path="url(#clip590)" style="stroke:#e26f46; stroke-linecap:round; stroke-linejoin:round; stroke-width:4; stroke-opacity:1; fill:none" points="1939,280.505 2080.56,280.505 "/>
<path clip-path="url(#clip590)" d="M2138.4 278.672 Q2138.4 281.295 2136.46 283.708 Q2134.54 286.12 2131.4 287.596 Q2128.28 289.048 2124.93 289.048 L2116.78 289.048 L2113.81 301.04 Q2113.79 301.111 2113.71 301.415 Q2113.64 301.696 2113.64 301.86 Q2113.64 302.446 2114.37 302.586 Q2115.12 302.727 2116.78 302.727 Q2117.86 302.727 2118.02 302.914 Q2118.12 303.031 2118.12 303.242 Q2118.12 303.57 2118.02 303.804 Q2117.93 304.015 2117.74 304.085 Q2117.58 304.156 2117.46 304.179 Q2117.35 304.202 2117.16 304.202 Q2116.67 304.202 2115.61 304.156 Q2114.58 304.109 2114.04 304.109 L2110.97 304.062 L2104.88 304.202 Q2104.16 304.202 2104.16 303.617 Q2104.16 303.172 2104.35 302.984 Q2104.53 302.774 2104.74 302.75 Q2104.95 302.727 2105.49 302.727 Q2106.66 302.727 2107.37 302.657 Q2108.07 302.586 2108.52 302.493 Q2108.98 302.375 2109.22 302.048 Q2109.48 301.72 2109.59 301.439 Q2109.71 301.134 2109.87 300.455 L2116.29 274.69 Q2116.48 273.917 2116.48 273.8 Q2116.48 273.402 2116.24 273.261 Q2116.03 273.097 2115.42 273.027 Q2114.25 272.933 2113.36 272.933 Q2112.78 272.933 2112.54 272.91 Q2112.33 272.887 2112.15 272.77 Q2111.98 272.629 2111.98 272.348 Q2111.98 271.903 2112.17 271.716 Q2112.38 271.505 2112.61 271.481 Q2112.85 271.434 2113.41 271.434 L2128.96 271.434 Q2133.44 271.434 2135.92 273.566 Q2138.4 275.697 2138.4 278.672 M2133.95 277.524 Q2133.95 272.933 2127.42 272.933 L2122.83 272.933 Q2121.3 272.933 2120.93 273.215 Q2120.55 273.472 2120.23 274.76 L2116.97 287.807 L2123.74 287.807 Q2128.28 287.807 2131.12 285.254 Q2132.41 284.083 2133.18 281.647 Q2133.95 279.211 2133.95 277.524 Z" fill="#000000" fill-rule="nonzero" fill-opacity="1" /><path clip-path="url(#clip590)" d="M2153.5 263.521 Q2153.5 263.98 2153.28 264.095 Q2153.07 264.194 2152.48 264.194 L2149.33 264.194 L2146.84 274.097 Q2146.64 274.966 2146.64 275.703 Q2146.64 276.523 2146.89 276.884 Q2147.15 277.245 2147.69 277.245 Q2148.76 277.245 2149.91 276.277 Q2151.07 275.31 2152.05 272.949 Q2152.19 272.637 2152.25 272.572 Q2152.33 272.49 2152.55 272.49 Q2152.96 272.49 2152.96 272.818 Q2152.96 272.932 2152.73 273.457 Q2152.51 273.982 2152.04 274.752 Q2151.58 275.523 2150.97 276.244 Q2150.38 276.966 2149.48 277.491 Q2148.58 277.999 2147.61 277.999 Q2146.25 277.999 2145.38 277.13 Q2144.53 276.261 2144.53 274.9 Q2144.53 274.457 2144.87 273.047 Q2145.22 271.621 2147.09 264.194 L2144.12 264.194 Q2143.71 264.194 2143.55 264.177 Q2143.4 264.161 2143.28 264.079 Q2143.18 263.98 2143.18 263.784 Q2143.18 263.472 2143.32 263.341 Q2143.45 263.193 2143.61 263.177 Q2143.79 263.144 2144.2 263.144 L2147.35 263.144 L2148.66 257.816 Q2148.79 257.291 2149.12 256.996 Q2149.46 256.684 2149.66 256.652 Q2149.86 256.602 2150.01 256.602 Q2150.45 256.602 2150.71 256.848 Q2150.97 257.078 2150.97 257.504 Q2150.97 257.734 2149.6 263.144 L2152.55 263.144 Q2152.92 263.144 2153.07 263.161 Q2153.24 263.177 2153.37 263.259 Q2153.5 263.341 2153.5 263.521 Z" fill="#000000" fill-rule="nonzero" fill-opacity="1" /><path clip-path="url(#clip590)" d="M2198.05 271.973 Q2198.05 272.395 2197.88 272.629 Q2197.74 272.84 2197.58 272.887 Q2197.41 272.91 2196.99 272.933 Q2193.64 273.097 2190.9 275.369 Q2190.22 275.955 2188.51 277.782 Q2186.83 279.609 2184.58 282.045 Q2182.35 284.481 2181.07 285.792 L2187.25 300.595 Q2187.51 301.181 2187.6 301.439 Q2187.72 301.673 2187.95 301.977 Q2188.21 302.282 2188.4 302.375 Q2188.61 302.469 2189.05 302.586 Q2189.52 302.68 2189.99 302.703 Q2190.48 302.703 2191.37 302.727 Q2191.65 302.727 2191.77 302.75 Q2191.91 302.75 2192.07 302.891 Q2192.24 303.008 2192.24 303.289 Q2192.24 303.711 2192.05 303.945 Q2191.89 304.156 2191.72 304.179 Q2191.58 304.202 2191.32 304.202 Q2190.72 304.202 2188.65 304.132 Q2186.59 304.062 2186.01 304.062 L2179.96 304.202 Q2179.24 304.202 2179.24 303.617 Q2179.24 303.312 2179.29 303.148 Q2179.36 302.961 2179.52 302.891 Q2179.68 302.797 2179.8 302.774 Q2179.92 302.75 2180.2 302.727 Q2181.07 302.633 2181.72 302.375 Q2182.4 302.094 2182.68 301.813 Q2182.99 301.532 2182.99 301.321 L2182.75 300.642 L2177.9 289.189 L2173.57 293.897 L2168.67 299.073 Q2167.39 300.455 2167.39 301.228 Q2167.39 302.516 2169.31 302.727 Q2169.89 302.774 2169.89 303.242 Q2169.89 303.687 2169.71 303.921 Q2169.54 304.132 2169.38 304.179 Q2169.24 304.202 2169.03 304.202 Q2168.16 304.202 2166.33 304.132 Q2164.53 304.062 2163.64 304.062 Q2162.89 304.062 2161.37 304.132 Q2159.84 304.202 2159.14 304.202 Q2158.86 304.202 2158.7 304.062 Q2158.53 303.921 2158.53 303.781 L2158.51 303.664 Q2158.51 303.336 2158.56 303.148 Q2158.63 302.961 2158.81 302.867 Q2159.02 302.774 2159.12 302.774 Q2159.21 302.75 2159.56 302.727 Q2161.55 302.61 2163.24 301.837 Q2164.95 301.064 2166.61 299.26 Q2166.75 299.143 2166.92 299.003 Q2167.11 298.862 2167.25 298.745 L2177.36 287.854 L2171.7 274.456 Q2171.44 273.847 2171.2 273.589 Q2170.97 273.308 2170.24 273.121 Q2169.52 272.933 2168.11 272.933 Q2167.71 272.933 2167.53 272.91 Q2167.34 272.887 2167.18 272.77 Q2167.01 272.652 2167.01 272.395 Q2167.01 271.95 2167.18 271.739 Q2167.36 271.505 2167.5 271.481 Q2167.67 271.434 2167.88 271.434 Q2168.46 271.434 2170.55 271.505 Q2172.63 271.575 2173.24 271.575 Q2174.25 271.575 2176.26 271.505 Q2178.3 271.434 2179.29 271.434 Q2180.01 271.434 2180.01 272.02 Q2180.01 272.395 2179.85 272.606 Q2179.68 272.816 2179.52 272.863 Q2179.36 272.91 2179.05 272.933 Q2178.14 273.027 2177.43 273.332 Q2176.76 273.613 2176.47 273.894 Q2176.22 274.151 2176.22 274.315 L2176.45 274.948 L2180.48 284.481 L2188.26 276.142 Q2189.17 275.112 2189.17 274.409 Q2189.17 273.144 2187.25 272.933 Q2186.66 272.84 2186.66 272.395 Q2186.66 271.95 2186.85 271.739 Q2187.04 271.505 2187.18 271.481 Q2187.34 271.434 2187.58 271.434 Q2188.44 271.434 2190.22 271.505 Q2192.03 271.575 2192.92 271.575 Q2193.67 271.575 2195.19 271.505 Q2196.71 271.434 2197.41 271.434 Q2197.7 271.434 2197.86 271.575 Q2198.02 271.692 2198.02 271.833 L2198.05 271.973 Z" fill="#000000" fill-rule="nonzero" fill-opacity="1" /><path clip-path="url(#clip590)" d="M2236.1 278.672 Q2236.1 281.295 2234.15 283.708 Q2232.23 286.12 2229.09 287.596 Q2225.98 289.048 2222.63 289.048 L2214.48 289.048 L2211.5 301.04 Q2211.48 301.111 2211.41 301.415 Q2211.34 301.696 2211.34 301.86 Q2211.34 302.446 2212.07 302.586 Q2212.82 302.727 2214.48 302.727 Q2215.56 302.727 2215.72 302.914 Q2215.81 303.031 2215.81 303.242 Q2215.81 303.57 2215.72 303.804 Q2215.63 304.015 2215.44 304.085 Q2215.28 304.156 2215.16 304.179 Q2215.04 304.202 2214.85 304.202 Q2214.36 304.202 2213.31 304.156 Q2212.28 304.109 2211.74 304.109 L2208.67 304.062 L2202.58 304.202 Q2201.85 304.202 2201.85 303.617 Q2201.85 303.172 2202.04 302.984 Q2202.23 302.774 2202.44 302.75 Q2202.65 302.727 2203.19 302.727 Q2204.36 302.727 2205.06 302.657 Q2205.77 302.586 2206.21 302.493 Q2206.68 302.375 2206.91 302.048 Q2207.17 301.72 2207.29 301.439 Q2207.41 301.134 2207.57 300.455 L2213.99 274.69 Q2214.17 273.917 2214.17 273.8 Q2214.17 273.402 2213.94 273.261 Q2213.73 273.097 2213.12 273.027 Q2211.95 272.933 2211.06 272.933 Q2210.47 272.933 2210.24 272.91 Q2210.03 272.887 2209.84 272.77 Q2209.68 272.629 2209.68 272.348 Q2209.68 271.903 2209.86 271.716 Q2210.08 271.505 2210.31 271.481 Q2210.54 271.434 2211.11 271.434 L2226.66 271.434 Q2231.13 271.434 2233.61 273.566 Q2236.1 275.697 2236.1 278.672 M2231.65 277.524 Q2231.65 272.933 2225.11 272.933 L2220.52 272.933 Q2219 272.933 2218.62 273.215 Q2218.25 273.472 2217.92 274.76 L2214.67 287.807 L2221.44 287.807 Q2225.98 287.807 2228.81 285.254 Q2230.1 284.083 2230.87 281.647 Q2231.65 279.211 2231.65 277.524 Z" fill="#000000" fill-rule="nonzero" fill-opacity="1" /></svg>
