<?xml version="1.0" encoding="utf-8" standalone="no"?>
<!DOCTYPE svg PUBLIC "-//W3C//DTD SVG 1.1//EN"
  "http://www.w3.org/Graphics/SVG/1.1/DTD/svg11.dtd">
<svg xmlns:xlink="http://www.w3.org/1999/xlink" width="432pt" height="288pt" viewBox="0 0 432 288" xmlns="http://www.w3.org/2000/svg" version="1.1">
 <metadata>
  <rdf:RDF xmlns:dc="http://purl.org/dc/elements/1.1/" xmlns:cc="http://creativecommons.org/ns#" xmlns:rdf="http://www.w3.org/1999/02/22-rdf-syntax-ns#">
   <cc:Work>
    <dc:type rdf:resource="http://purl.org/dc/dcmitype/StillImage"/>
    <dc:date>2024-07-21T16:03:14.816599</dc:date>
    <dc:format>image/svg+xml</dc:format>
    <dc:creator>
     <cc:Agent>
      <dc:title>Matplotlib v3.9.1, https://matplotlib.org/</dc:title>
     </cc:Agent>
    </dc:creator>
   </cc:Work>
  </rdf:RDF>
 </metadata>
 <defs>
  <style type="text/css">*{stroke-linejoin: round; stroke-linecap: butt}</style>
 </defs>
 <g id="figure_1">
  <g id="patch_1">
   <path d="M 0 288 
L 432 288 
L 432 0 
L 0 0 
z
" style="fill: #ffffff"/>
  </g>
  <g id="axes_1">
   <g id="patch_2">
    <path d="M 43.206901 257.190142 
L 424.545944 257.190142 
L 424.545944 16.637858 
L 43.206901 16.637858 
z
" style="fill: #ffffff"/>
   </g>
   <g id="patch_3">
    <path d="M 195.742519 250.20144 
L 195.742519 257.190142 
L 229.639322 257.190142 
L 229.639322 250.20144 
L 195.742519 250.20144 
" clip-path="url(#pb7366dcc08)" style="fill: #0000ff"/>
   </g>
   <g id="patch_4">
    <path d="M 139172.638274 231.467022 
L 139172.638274 257.190142 
L 139206.535077 257.190142 
L 139206.535077 231.467022 
L 139172.638274 231.467022 
" clip-path="url(#pb7366dcc08)" style="fill: #0000ff"/>
   </g>
   <g id="patch_5">
    <path d="M 137054.088033 244.524344 
L 137054.088033 257.190142 
L 137087.984837 257.190142 
L 137087.984837 244.524344 
L 137054.088033 244.524344 
" clip-path="url(#pb7366dcc08)" style="fill: #0000ff"/>
   </g>
   <g id="patch_6">
    <path d="M 138876.04124 231.521835 
L 138876.04124 257.190142 
L 138909.938044 257.190142 
L 138909.938044 231.521835 
L 138876.04124 231.521835 
" clip-path="url(#pb7366dcc08)" style="fill: #0000ff"/>
   </g>
   <g id="patch_7">
    <path d="M 140655.623442 244.191548 
L 140655.623442 257.190142 
L 140689.520245 257.190142 
L 140689.520245 244.191548 
L 140655.623442 244.191548 
" clip-path="url(#pb7366dcc08)" style="fill: #0000ff"/>
   </g>
   <g id="patch_8">
    <path d="M 238.113523 253.689918 
L 238.113523 257.190142 
L 272.010327 257.190142 
L 272.010327 253.689918 
L 238.113523 253.689918 
" clip-path="url(#pb7366dcc08)" style="fill: #0000ff"/>
   </g>
   <g id="patch_9">
    <path d="M 139638.719326 231.380886 
L 139638.719326 257.190142 
L 139672.61613 257.190142 
L 139672.61613 231.380886 
L 139638.719326 231.380886 
" clip-path="url(#pb7366dcc08)" style="fill: #0000ff"/>
   </g>
   <g id="patch_10">
    <path d="M 140104.800379 244.242446 
L 140104.800379 257.190142 
L 140138.697183 257.190142 
L 140138.697183 244.242446 
L 140104.800379 244.242446 
" clip-path="url(#pb7366dcc08)" style="fill: #0000ff"/>
   </g>
   <g id="patch_11">
    <path d="M 138113.363153 244.426463 
L 138113.363153 257.190142 
L 138147.259957 257.190142 
L 138147.259957 244.426463 
L 138113.363153 244.426463 
" clip-path="url(#pb7366dcc08)" style="fill: #0000ff"/>
   </g>
   <g id="patch_12">
    <path d="M 138621.815211 244.37948 
L 138621.815211 257.190142 
L 138655.712015 257.190142 
L 138655.712015 244.37948 
L 138621.815211 244.37948 
" clip-path="url(#pb7366dcc08)" style="fill: #0000ff"/>
   </g>
   <g id="patch_13">
    <path d="M 140994.59148 244.160226 
L 140994.59148 257.190142 
L 141028.488284 257.190142 
L 141028.488284 244.160226 
L 140994.59148 244.160226 
" clip-path="url(#pb7366dcc08)" style="fill: #0000ff"/>
   </g>
   <g id="patch_14">
    <path d="M 139511.606312 244.29726 
L 139511.606312 257.190142 
L 139545.503116 257.190142 
L 139545.503116 244.29726 
L 139511.606312 244.29726 
" clip-path="url(#pb7366dcc08)" style="fill: #0000ff"/>
   </g>
   <g id="patch_15">
    <path d="M 153.371514 245.632356 
L 153.371514 257.190142 
L 187.268318 257.190142 
L 187.268318 245.632356 
L 153.371514 245.632356 
" clip-path="url(#pb7366dcc08)" style="fill: #0000ff"/>
   </g>
   <g id="patch_16">
    <path d="M 534.710557 257.139244 
L 534.710557 257.190142 
L 568.607361 257.190142 
L 568.607361 257.139244 
L 534.710557 257.139244 
" clip-path="url(#pb7366dcc08)" style="fill: #0000ff"/>
   </g>
   <g id="patch_17">
    <path d="M 137350.685067 244.496937 
L 137350.685067 257.190142 
L 137384.581871 257.190142 
L 137384.581871 244.496937 
L 137350.685067 244.496937 
" clip-path="url(#pb7366dcc08)" style="fill: #0000ff"/>
   </g>
   <g id="patch_18">
    <path d="M 136121.925928 244.610479 
L 136121.925928 257.190142 
L 136155.822732 257.190142 
L 136155.822732 244.610479 
L 136121.925928 244.610479 
" clip-path="url(#pb7366dcc08)" style="fill: #0000ff"/>
   </g>
   <g id="patch_19">
    <path d="M 137943.879134 244.442124 
L 137943.879134 257.190142 
L 137977.775938 257.190142 
L 137977.775938 244.442124 
L 137943.879134 244.442124 
" clip-path="url(#pb7366dcc08)" style="fill: #0000ff"/>
   </g>
   <g id="patch_20">
    <path d="M 138791.29923 244.363819 
L 138791.29923 257.190142 
L 138825.196034 257.190142 
L 138825.196034 244.363819 
L 138791.29923 244.363819 
" clip-path="url(#pb7366dcc08)" style="fill: #0000ff"/>
   </g>
   <g id="patch_21">
    <path d="M 140825.107461 244.175887 
L 140825.107461 257.190142 
L 140859.004265 257.190142 
L 140859.004265 244.175887 
L 140825.107461 244.175887 
" clip-path="url(#pb7366dcc08)" style="fill: #0000ff"/>
   </g>
   <g id="patch_22">
    <path d="M 139723.461336 231.365225 
L 139723.461336 257.190142 
L 139757.35814 257.190142 
L 139757.35814 231.365225 
L 139723.461336 231.365225 
" clip-path="url(#pb7366dcc08)" style="fill: #0000ff"/>
   </g>
   <g id="patch_23">
    <path d="M 492.339552 257.096176 
L 492.339552 257.190142 
L 526.236356 257.190142 
L 526.236356 257.096176 
L 492.339552 257.096176 
" clip-path="url(#pb7366dcc08)" style="fill: #0000ff"/>
   </g>
   <g id="patch_24">
    <path d="M 139087.896264 218.628953 
L 139087.896264 257.190142 
L 139121.793068 257.190142 
L 139121.793068 218.628953 
L 139087.896264 218.628953 
" clip-path="url(#pb7366dcc08)" style="fill: #0000ff"/>
   </g>
   <g id="patch_25">
    <path d="M 449.968547 256.931736 
L 449.968547 257.190142 
L 483.865351 257.190142 
L 483.865351 256.931736 
L 449.968547 256.931736 
" clip-path="url(#pb7366dcc08)" style="fill: #0000ff"/>
   </g>
   <g id="patch_26">
    <path d="M 137223.572053 231.827224 
L 137223.572053 257.190142 
L 137257.468856 257.190142 
L 137257.468856 231.827224 
L 137223.572053 231.827224 
" clip-path="url(#pb7366dcc08)" style="fill: #0000ff"/>
   </g>
   <g id="patch_27">
    <path d="M 280.484528 255.189455 
L 280.484528 257.190142 
L 314.381332 257.190142 
L 314.381332 255.189455 
L 280.484528 255.189455 
" clip-path="url(#pb7366dcc08)" style="fill: #0000ff"/>
   </g>
   <g id="patch_28">
    <path d="M 140570.881432 231.208616 
L 140570.881432 257.190142 
L 140604.778236 257.190142 
L 140604.778236 231.208616 
L 140570.881432 231.208616 
" clip-path="url(#pb7366dcc08)" style="fill: #0000ff"/>
   </g>
   <g id="patch_29">
    <path d="M 140909.84947 244.168057 
L 140909.84947 257.190142 
L 140943.746274 257.190142 
L 140943.746274 244.168057 
L 140909.84947 244.168057 
" clip-path="url(#pb7366dcc08)" style="fill: #0000ff"/>
   </g>
   <g id="patch_30">
    <path d="M 140062.429374 244.246362 
L 140062.429374 257.190142 
L 140096.326178 257.190142 
L 140096.326178 244.246362 
L 140062.429374 244.246362 
" clip-path="url(#pb7366dcc08)" style="fill: #0000ff"/>
   </g>
   <g id="patch_31">
    <path d="M 137816.76612 231.717597 
L 137816.76612 257.190142 
L 137850.662924 257.190142 
L 137850.662924 231.717597 
L 137816.76612 231.717597 
" clip-path="url(#pb7366dcc08)" style="fill: #0000ff"/>
   </g>
   <g id="patch_32">
    <path d="M 138325.218177 244.406886 
L 138325.218177 257.190142 
L 138359.114981 257.190142 
L 138359.114981 244.406886 
L 138325.218177 244.406886 
" clip-path="url(#pb7366dcc08)" style="fill: #0000ff"/>
   </g>
   <g id="patch_33">
    <path d="M 68.629504 198.83742 
L 68.629504 257.190142 
L 102.526308 257.190142 
L 102.526308 198.83742 
L 68.629504 198.83742 
" clip-path="url(#pb7366dcc08)" style="fill: #0000ff"/>
   </g>
   <g id="patch_34">
    <path d="M 139003.154254 205.806545 
L 139003.154254 257.190142 
L 139037.051058 257.190142 
L 139037.051058 205.806545 
L 139003.154254 205.806545 
" clip-path="url(#pb7366dcc08)" style="fill: #0000ff"/>
   </g>
   <g id="patch_35">
    <path d="M 407.597543 256.876923 
L 407.597543 257.190142 
L 441.494346 257.190142 
L 441.494346 256.876923 
L 407.597543 256.876923 
" clip-path="url(#pb7366dcc08)" style="fill: #0000ff"/>
   </g>
   <g id="patch_36">
    <path d="M 139130.267269 205.759562 
L 139130.267269 257.190142 
L 139164.164073 257.190142 
L 139164.164073 205.759562 
L 139130.267269 205.759562 
" clip-path="url(#pb7366dcc08)" style="fill: #0000ff"/>
   </g>
   <g id="patch_37">
    <path d="M 141121.704494 244.148481 
L 141121.704494 257.190142 
L 141155.601298 257.190142 
L 141155.601298 244.148481 
L 141121.704494 244.148481 
" clip-path="url(#pb7366dcc08)" style="fill: #0000ff"/>
   </g>
   <g id="patch_38">
    <path d="M 139850.57435 244.265938 
L 139850.57435 257.190142 
L 139884.471154 257.190142 
L 139884.471154 244.265938 
L 139850.57435 244.265938 
" clip-path="url(#pb7366dcc08)" style="fill: #0000ff"/>
   </g>
   <g id="patch_39">
    <path d="M 139596.348322 231.388717 
L 139596.348322 257.190142 
L 139630.245125 257.190142 
L 139630.245125 231.388717 
L 139596.348322 231.388717 
" clip-path="url(#pb7366dcc08)" style="fill: #0000ff"/>
   </g>
   <g id="patch_40">
    <path d="M 137986.250139 244.438208 
L 137986.250139 257.190142 
L 138020.146943 257.190142 
L 138020.146943 244.438208 
L 137986.250139 244.438208 
" clip-path="url(#pb7366dcc08)" style="fill: #0000ff"/>
   </g>
   <g id="patch_41">
    <path d="M 140867.478466 244.171972 
L 140867.478466 257.190142 
L 140901.37527 257.190142 
L 140901.37527 244.171972 
L 140867.478466 244.171972 
" clip-path="url(#pb7366dcc08)" style="fill: #0000ff"/>
   </g>
   <g id="patch_42">
    <path d="M 140740.365451 244.183718 
L 140740.365451 257.190142 
L 140774.262255 257.190142 
L 140774.262255 244.183718 
L 140740.365451 244.183718 
" clip-path="url(#pb7366dcc08)" style="fill: #0000ff"/>
   </g>
   <g id="patch_43">
    <path d="M 136333.780952 244.590903 
L 136333.780952 257.190142 
L 136367.677756 257.190142 
L 136367.677756 244.590903 
L 136333.780952 244.590903 
" clip-path="url(#pb7366dcc08)" style="fill: #0000ff"/>
   </g>
   <g id="patch_44">
    <path d="M 138198.105163 218.875613 
L 138198.105163 257.190142 
L 138232.001967 257.190142 
L 138232.001967 218.875613 
L 138198.105163 218.875613 
" clip-path="url(#pb7366dcc08)" style="fill: #0000ff"/>
   </g>
   <g id="patch_45">
    <path d="M 141164.075499 244.144565 
L 141164.075499 257.190142 
L 141197.972303 257.190142 
L 141197.972303 244.144565 
L 141164.075499 244.144565 
" clip-path="url(#pb7366dcc08)" style="fill: #0000ff"/>
   </g>
   <g id="patch_46">
    <path d="M 137604.911096 244.473445 
L 137604.911096 257.190142 
L 137638.8079 257.190142 
L 137638.8079 244.473445 
L 137604.911096 244.473445 
" clip-path="url(#pb7366dcc08)" style="fill: #0000ff"/>
   </g>
   <g id="patch_47">
    <path d="M 139469.235307 244.301175 
L 139469.235307 257.190142 
L 139503.132111 257.190142 
L 139503.132111 244.301175 
L 139469.235307 244.301175 
" clip-path="url(#pb7366dcc08)" style="fill: #0000ff"/>
   </g>
   <g id="patch_48">
    <path d="M 137011.717029 244.528259 
L 137011.717029 257.190142 
L 137045.613832 257.190142 
L 137045.613832 244.528259 
L 137011.717029 244.528259 
" clip-path="url(#pb7366dcc08)" style="fill: #0000ff"/>
   </g>
   <g id="patch_49">
    <path d="M 138748.928225 180.255696 
L 138748.928225 257.190142 
L 138782.825029 257.190142 
L 138782.825029 180.255696 
L 138748.928225 180.255696 
" clip-path="url(#pb7366dcc08)" style="fill: #0000ff"/>
   </g>
   <g id="patch_50">
    <path d="M 788.936586 257.115752 
L 788.936586 257.190142 
L 822.83339 257.190142 
L 822.83339 257.115752 
L 788.936586 257.115752 
" clip-path="url(#pb7366dcc08)" style="fill: #0000ff"/>
   </g>
   <g id="patch_51">
    <path d="M 139257.380283 231.451361 
L 139257.380283 257.190142 
L 139291.277087 257.190142 
L 139291.277087 231.451361 
L 139257.380283 231.451361 
" clip-path="url(#pb7366dcc08)" style="fill: #0000ff"/>
   </g>
   <g id="patch_52">
    <path d="M 138452.331192 244.395141 
L 138452.331192 257.190142 
L 138486.227996 257.190142 
L 138486.227996 244.395141 
L 138452.331192 244.395141 
" clip-path="url(#pb7366dcc08)" style="fill: #0000ff"/>
   </g>
   <g id="patch_53">
    <path d="M 365.226538 256.485399 
L 365.226538 257.190142 
L 399.123342 257.190142 
L 399.123342 256.485399 
L 365.226538 256.485399 
" clip-path="url(#pb7366dcc08)" style="fill: #0000ff"/>
   </g>
   <g id="patch_54">
    <path d="M 139977.687365 244.254192 
L 139977.687365 257.190142 
L 140011.584169 257.190142 
L 140011.584169 244.254192 
L 139977.687365 244.254192 
" clip-path="url(#pb7366dcc08)" style="fill: #0000ff"/>
   </g>
   <g id="patch_55">
    <path d="M 139935.31636 231.326073 
L 139935.31636 257.190142 
L 139969.213164 257.190142 
L 139969.213164 231.326073 
L 139935.31636 231.326073 
" clip-path="url(#pb7366dcc08)" style="fill: #0000ff"/>
   </g>
   <g id="patch_56">
    <path d="M 138494.702197 231.592309 
L 138494.702197 257.190142 
L 138528.599001 257.190142 
L 138528.599001 231.592309 
L 138494.702197 231.592309 
" clip-path="url(#pb7366dcc08)" style="fill: #0000ff"/>
   </g>
   <g id="patch_57">
    <path d="M 138070.992149 231.670614 
L 138070.992149 257.190142 
L 138104.888952 257.190142 
L 138104.888952 231.670614 
L 138070.992149 231.670614 
" clip-path="url(#pb7366dcc08)" style="fill: #0000ff"/>
   </g>
   <g id="patch_58">
    <path d="M 139808.203346 205.508987 
L 139808.203346 257.190142 
L 139842.100149 257.190142 
L 139842.100149 205.508987 
L 139808.203346 205.508987 
" clip-path="url(#pb7366dcc08)" style="fill: #0000ff"/>
   </g>
   <g id="patch_59">
    <path d="M 138537.073201 244.38731 
L 138537.073201 257.190142 
L 138570.970005 257.190142 
L 138570.970005 244.38731 
L 138537.073201 244.38731 
" clip-path="url(#pb7366dcc08)" style="fill: #0000ff"/>
   </g>
   <g id="patch_60">
    <path d="M 140147.171384 244.238531 
L 140147.171384 257.190142 
L 140181.068188 257.190142 
L 140181.068188 244.238531 
L 140147.171384 244.238531 
" clip-path="url(#pb7366dcc08)" style="fill: #0000ff"/>
   </g>
   <g id="patch_61">
    <path d="M 138367.589182 244.402971 
L 138367.589182 257.190142 
L 138401.485986 257.190142 
L 138401.485986 244.402971 
L 138367.589182 244.402971 
" clip-path="url(#pb7366dcc08)" style="fill: #0000ff"/>
   </g>
   <g id="patch_62">
    <path d="M 138664.186216 231.560987 
L 138664.186216 257.190142 
L 138698.08302 257.190142 
L 138698.08302 231.560987 
L 138664.186216 231.560987 
" clip-path="url(#pb7366dcc08)" style="fill: #0000ff"/>
   </g>
   <g id="patch_63">
    <path d="M 139384.493298 205.665597 
L 139384.493298 257.190142 
L 139418.390101 257.190142 
L 139418.390101 205.665597 
L 139384.493298 205.665597 
" clip-path="url(#pb7366dcc08)" style="fill: #0000ff"/>
   </g>
   <g id="patch_64">
    <path d="M 140274.284398 244.226785 
L 140274.284398 257.190142 
L 140308.181202 257.190142 
L 140308.181202 244.226785 
L 140274.284398 244.226785 
" clip-path="url(#pb7366dcc08)" style="fill: #0000ff"/>
   </g>
   <g id="patch_65">
    <path d="M 322.855533 255.624046 
L 322.855533 257.190142 
L 356.752337 257.190142 
L 356.752337 255.624046 
L 322.855533 255.624046 
" clip-path="url(#pb7366dcc08)" style="fill: #0000ff"/>
   </g>
   <g id="patch_66">
    <path d="M 139342.122293 244.312921 
L 139342.122293 257.190142 
L 139376.019097 257.190142 
L 139376.019097 244.312921 
L 139342.122293 244.312921 
" clip-path="url(#pb7366dcc08)" style="fill: #0000ff"/>
   </g>
   <g id="patch_67">
    <path d="M 26.258499 46.601182 
L 26.258499 257.190142 
L 60.155303 257.190142 
L 60.155303 46.601182 
L 26.258499 46.601182 
" clip-path="url(#pb7366dcc08)" style="fill: #0000ff"/>
   </g>
   <g id="patch_68">
    <path d="M 137901.508129 231.701936 
L 137901.508129 257.190142 
L 137935.404933 257.190142 
L 137935.404933 231.701936 
L 137901.508129 231.701936 
" clip-path="url(#pb7366dcc08)" style="fill: #0000ff"/>
   </g>
   <g id="patch_69">
    <path d="M 111.000509 233.546013 
L 111.000509 257.190142 
L 144.897313 257.190142 
L 144.897313 233.546013 
L 111.000509 233.546013 
" clip-path="url(#pb7366dcc08)" style="fill: #0000ff"/>
   </g>
   <g id="patch_70">
    <path d="M 138282.847173 244.410802 
L 138282.847173 257.190142 
L 138316.743977 257.190142 
L 138316.743977 244.410802 
L 138282.847173 244.410802 
" clip-path="url(#pb7366dcc08)" style="fill: #0000ff"/>
   </g>
   <g id="patch_71">
    <path d="M 137859.137125 244.449954 
L 137859.137125 257.190142 
L 137893.033928 257.190142 
L 137893.033928 244.449954 
L 137859.137125 244.449954 
" clip-path="url(#pb7366dcc08)" style="fill: #0000ff"/>
   </g>
   <g id="patch_72">
    <path d="M 139045.525259 218.640699 
L 139045.525259 257.190142 
L 139079.422063 257.190142 
L 139079.422063 218.640699 
L 139045.525259 218.640699 
" clip-path="url(#pb7366dcc08)" style="fill: #0000ff"/>
   </g>
   <g id="patch_73">
    <path d="M 619.452567 257.072685 
L 619.452567 257.190142 
L 653.34937 257.190142 
L 653.34937 257.072685 
L 619.452567 257.072685 
" clip-path="url(#pb7366dcc08)" style="fill: #0000ff"/>
   </g>
   <g id="patch_74">
    <path d="M 137477.798081 231.780241 
L 137477.798081 257.190142 
L 137511.694885 257.190142 
L 137511.694885 231.780241 
L 137477.798081 231.780241 
" clip-path="url(#pb7366dcc08)" style="fill: #0000ff"/>
   </g>
   <g id="patch_75">
    <path d="M 137520.169086 231.77241 
L 137520.169086 257.190142 
L 137554.06589 257.190142 
L 137554.06589 231.77241 
L 137520.169086 231.77241 
" clip-path="url(#pb7366dcc08)" style="fill: #0000ff"/>
   </g>
   <g id="patch_76">
    <path d="M 137689.653105 219.016562 
L 137689.653105 257.190142 
L 137723.549909 257.190142 
L 137723.549909 219.016562 
L 137689.653105 219.016562 
" clip-path="url(#pb7366dcc08)" style="fill: #0000ff"/>
   </g>
   <g id="PathCollection_1">
    <defs>
     <path id="mf7bb04b3a8" d="M 0 0 
C 0 0 0 0 0 0 
C 0 0 0 0 0 0 
C 0 0 0 0 0 0 
C 0 0 0 0 0 0 
C 0 0 0 0 0 0 
C 0 0 0 0 0 0 
C 0 0 0 0 0 0 
C 0 0 0 0 0 0 
z
" style="stroke: #000000; stroke-opacity: 0"/>
    </defs>
    <g clip-path="url(#pb7366dcc08)">
     <use xlink:href="#mf7bb04b3a8" x="212.69092" y="250.20144" style="fill: #0000ff; fill-opacity: 0; stroke: #000000; stroke-opacity: 0"/>
     <use xlink:href="#mf7bb04b3a8" x="31105" y="246.037083" style="fill: #0000ff; fill-opacity: 0; stroke: #000000; stroke-opacity: 0"/>
     <use xlink:href="#mf7bb04b3a8" x="31105" y="251.603112" style="fill: #0000ff; fill-opacity: 0; stroke: #000000; stroke-opacity: 0"/>
     <use xlink:href="#mf7bb04b3a8" x="255.061925" y="253.689918" style="fill: #0000ff; fill-opacity: 0; stroke: #000000; stroke-opacity: 0"/>
     <use xlink:href="#mf7bb04b3a8" x="31105" y="248.752836" style="fill: #0000ff; fill-opacity: 0; stroke: #000000; stroke-opacity: 0"/>
     <use xlink:href="#mf7bb04b3a8" x="31105" y="245.335992" style="fill: #0000ff; fill-opacity: 0; stroke: #000000; stroke-opacity: 0"/>
     <use xlink:href="#mf7bb04b3a8" x="170.319916" y="245.632356" style="fill: #0000ff; fill-opacity: 0; stroke: #000000; stroke-opacity: 0"/>
     <use xlink:href="#mf7bb04b3a8" x="551.658959" y="257.139244" style="fill: #0000ff; fill-opacity: 0; stroke: #000000; stroke-opacity: 0"/>
     <use xlink:href="#mf7bb04b3a8" x="31105" y="254.316001" style="fill: #0000ff; fill-opacity: 0; stroke: #000000; stroke-opacity: 0"/>
     <use xlink:href="#mf7bb04b3a8" x="31105" y="251.44186" style="fill: #0000ff; fill-opacity: 0; stroke: #000000; stroke-opacity: 0"/>
     <use xlink:href="#mf7bb04b3a8" x="509.287954" y="257.096176" style="fill: #0000ff; fill-opacity: 0; stroke: #000000; stroke-opacity: 0"/>
     <use xlink:href="#mf7bb04b3a8" x="31105" y="248.60433" style="fill: #0000ff; fill-opacity: 0; stroke: #000000; stroke-opacity: 0"/>
     <use xlink:href="#mf7bb04b3a8" x="31105" y="248.467069" style="fill: #0000ff; fill-opacity: 0; stroke: #000000; stroke-opacity: 0"/>
     <use xlink:href="#mf7bb04b3a8" x="466.916949" y="256.931736" style="fill: #0000ff; fill-opacity: 0; stroke: #000000; stroke-opacity: 0"/>
     <use xlink:href="#mf7bb04b3a8" x="31105" y="251.308179" style="fill: #0000ff; fill-opacity: 0; stroke: #000000; stroke-opacity: 0"/>
     <use xlink:href="#mf7bb04b3a8" x="31105" y="249.933742" style="fill: #0000ff; fill-opacity: 0; stroke: #000000; stroke-opacity: 0"/>
     <use xlink:href="#mf7bb04b3a8" x="297.43293" y="255.189455" style="fill: #0000ff; fill-opacity: 0; stroke: #000000; stroke-opacity: 0"/>
     <use xlink:href="#mf7bb04b3a8" x="31105" y="249.923297" style="fill: #0000ff; fill-opacity: 0; stroke: #000000; stroke-opacity: 0"/>
     <use xlink:href="#mf7bb04b3a8" x="31105" y="209.061443" style="fill: #0000ff; fill-opacity: 0; stroke: #000000; stroke-opacity: 0"/>
     <use xlink:href="#mf7bb04b3a8" x="85.577906" y="198.83742" style="fill: #0000ff; fill-opacity: 0; stroke: #000000; stroke-opacity: 0"/>
     <use xlink:href="#mf7bb04b3a8" x="31105" y="200.393392" style="fill: #0000ff; fill-opacity: 0; stroke: #000000; stroke-opacity: 0"/>
     <use xlink:href="#mf7bb04b3a8" x="31105" y="245.571637" style="fill: #0000ff; fill-opacity: 0; stroke: #000000; stroke-opacity: 0"/>
     <use xlink:href="#mf7bb04b3a8" x="424.545944" y="256.876923" style="fill: #0000ff; fill-opacity: 0; stroke: #000000; stroke-opacity: 0"/>
     <use xlink:href="#mf7bb04b3a8" x="31105" y="245.571605" style="fill: #0000ff; fill-opacity: 0; stroke: #000000; stroke-opacity: 0"/>
     <use xlink:href="#mf7bb04b3a8" x="31105" y="240.235556" style="fill: #0000ff; fill-opacity: 0; stroke: #000000; stroke-opacity: 0"/>
     <use xlink:href="#mf7bb04b3a8" x="805.884988" y="257.115752" style="fill: #0000ff; fill-opacity: 0; stroke: #000000; stroke-opacity: 0"/>
     <use xlink:href="#mf7bb04b3a8" x="31105" y="251.499972" style="fill: #0000ff; fill-opacity: 0; stroke: #000000; stroke-opacity: 0"/>
     <use xlink:href="#mf7bb04b3a8" x="31105" y="253.795453" style="fill: #0000ff; fill-opacity: 0; stroke: #000000; stroke-opacity: 0"/>
     <use xlink:href="#mf7bb04b3a8" x="382.17494" y="256.485399" style="fill: #0000ff; fill-opacity: 0; stroke: #000000; stroke-opacity: 0"/>
     <use xlink:href="#mf7bb04b3a8" x="31105" y="253.793825" style="fill: #0000ff; fill-opacity: 0; stroke: #000000; stroke-opacity: 0"/>
     <use xlink:href="#mf7bb04b3a8" x="31105" y="253.118613" style="fill: #0000ff; fill-opacity: 0; stroke: #000000; stroke-opacity: 0"/>
     <use xlink:href="#mf7bb04b3a8" x="339.803935" y="255.624046" style="fill: #0000ff; fill-opacity: 0; stroke: #000000; stroke-opacity: 0"/>
     <use xlink:href="#mf7bb04b3a8" x="31105" y="253.120875" style="fill: #0000ff; fill-opacity: 0; stroke: #000000; stroke-opacity: 0"/>
     <use xlink:href="#mf7bb04b3a8" x="31105" y="90.682889" style="fill: #0000ff; fill-opacity: 0; stroke: #000000; stroke-opacity: 0"/>
     <use xlink:href="#mf7bb04b3a8" x="43.206901" y="46.601182" style="fill: #0000ff; fill-opacity: 0; stroke: #000000; stroke-opacity: 0"/>
     <use xlink:href="#mf7bb04b3a8" x="31105" y="88.302367" style="fill: #0000ff; fill-opacity: 0; stroke: #000000; stroke-opacity: 0"/>
     <use xlink:href="#mf7bb04b3a8" x="31105" y="233.131441" style="fill: #0000ff; fill-opacity: 0; stroke: #000000; stroke-opacity: 0"/>
     <use xlink:href="#mf7bb04b3a8" x="127.948911" y="233.546013" style="fill: #0000ff; fill-opacity: 0; stroke: #000000; stroke-opacity: 0"/>
     <use xlink:href="#mf7bb04b3a8" x="31105" y="235.981814" style="fill: #0000ff; fill-opacity: 0; stroke: #000000; stroke-opacity: 0"/>
     <use xlink:href="#mf7bb04b3a8" x="31105" y="248.613521" style="fill: #0000ff; fill-opacity: 0; stroke: #000000; stroke-opacity: 0"/>
     <use xlink:href="#mf7bb04b3a8" x="636.400968" y="257.072685" style="fill: #0000ff; fill-opacity: 0; stroke: #000000; stroke-opacity: 0"/>
     <use xlink:href="#mf7bb04b3a8" x="31105" y="251.44186" style="fill: #0000ff; fill-opacity: 0; stroke: #000000; stroke-opacity: 0"/>
    </g>
   </g>
   <g id="matplotlib.axis_1">
    <g id="xtick_1">
     <g id="line2d_1">
      <defs>
       <path id="m08855bdf71" d="M 0 0 
L 0 -2.5 
" style="stroke: #000000; stroke-width: 0.5"/>
      </defs>
      <g>
       <use xlink:href="#m08855bdf71" x="85.577906" y="257.190142" style="stroke: #000000; stroke-width: 0.5"/>
      </g>
     </g>
     <g id="line2d_2">
      <defs>
       <path id="mbcdb74121f" d="M 0 0 
L 0 2.5 
" style="stroke: #000000; stroke-width: 0.5"/>
      </defs>
      <g>
       <use xlink:href="#mbcdb74121f" x="85.577906" y="16.637858" style="stroke: #000000; stroke-width: 0.5"/>
      </g>
     </g>
     <g id="text_1">
      <!-- $2$ -->
      <g transform="translate(82.377906 268.288579) scale(0.1 -0.1)">
       <defs>
        <path id="DejaVuSerif-32" d="M 819 3553 
L 469 3553 
L 469 4384 
Q 803 4563 1142 4656 
Q 1481 4750 1806 4750 
Q 2534 4750 2956 4397 
Q 3378 4044 3378 3438 
Q 3378 2753 2422 1800 
Q 2347 1728 2309 1691 
L 1131 513 
L 3078 513 
L 3078 1088 
L 3444 1088 
L 3444 0 
L 434 0 
L 434 341 
L 1850 1753 
Q 2319 2222 2519 2614 
Q 2719 3006 2719 3438 
Q 2719 3909 2473 4175 
Q 2228 4441 1797 4441 
Q 1350 4441 1106 4219 
Q 863 3997 819 3553 
z
" transform="scale(0.015625)"/>
       </defs>
       <use xlink:href="#DejaVuSerif-32" transform="translate(0 0.78125)"/>
      </g>
     </g>
    </g>
    <g id="xtick_2">
     <g id="line2d_3">
      <g>
       <use xlink:href="#m08855bdf71" x="170.319916" y="257.190142" style="stroke: #000000; stroke-width: 0.5"/>
      </g>
     </g>
     <g id="line2d_4">
      <g>
       <use xlink:href="#mbcdb74121f" x="170.319916" y="16.637858" style="stroke: #000000; stroke-width: 0.5"/>
      </g>
     </g>
     <g id="text_2">
      <!-- $4$ -->
      <g transform="translate(167.119916 268.288579) scale(0.1 -0.1)">
       <defs>
        <path id="DejaVuSerif-34" d="M 2234 1581 
L 2234 4063 
L 641 1581 
L 2234 1581 
z
M 3609 0 
L 1484 0 
L 1484 331 
L 2234 331 
L 2234 1247 
L 197 1247 
L 197 1588 
L 2241 4750 
L 2859 4750 
L 2859 1581 
L 3750 1581 
L 3750 1247 
L 2859 1247 
L 2859 331 
L 3609 331 
L 3609 0 
z
" transform="scale(0.015625)"/>
       </defs>
       <use xlink:href="#DejaVuSerif-34" transform="translate(0 0.78125)"/>
      </g>
     </g>
    </g>
    <g id="xtick_3">
     <g id="line2d_5">
      <g>
       <use xlink:href="#m08855bdf71" x="255.061925" y="257.190142" style="stroke: #000000; stroke-width: 0.5"/>
      </g>
     </g>
     <g id="line2d_6">
      <g>
       <use xlink:href="#mbcdb74121f" x="255.061925" y="16.637858" style="stroke: #000000; stroke-width: 0.5"/>
      </g>
     </g>
     <g id="text_3">
      <!-- $6$ -->
      <g transform="translate(251.861925 268.288579) scale(0.1 -0.1)">
       <defs>
        <path id="DejaVuSerif-36" d="M 2094 219 
Q 2534 219 2771 542 
Q 3009 866 3009 1472 
Q 3009 2078 2771 2401 
Q 2534 2725 2094 2725 
Q 1647 2725 1412 2412 
Q 1178 2100 1178 1509 
Q 1178 888 1415 553 
Q 1653 219 2094 219 
z
M 1075 2569 
Q 1288 2803 1556 2918 
Q 1825 3034 2163 3034 
Q 2859 3034 3264 2615 
Q 3669 2197 3669 1472 
Q 3669 763 3233 336 
Q 2797 -91 2069 -91 
Q 1278 -91 853 498 
Q 428 1088 428 2181 
Q 428 3406 931 4078 
Q 1434 4750 2350 4750 
Q 2597 4750 2869 4703 
Q 3141 4656 3425 4563 
L 3425 3794 
L 3072 3794 
Q 3034 4109 2831 4275 
Q 2628 4441 2284 4441 
Q 1678 4441 1381 3981 
Q 1084 3522 1075 2569 
z
" transform="scale(0.015625)"/>
       </defs>
       <use xlink:href="#DejaVuSerif-36" transform="translate(0 0.78125)"/>
      </g>
     </g>
    </g>
    <g id="xtick_4">
     <g id="line2d_7">
      <g>
       <use xlink:href="#m08855bdf71" x="339.803935" y="257.190142" style="stroke: #000000; stroke-width: 0.5"/>
      </g>
     </g>
     <g id="line2d_8">
      <g>
       <use xlink:href="#mbcdb74121f" x="339.803935" y="16.637858" style="stroke: #000000; stroke-width: 0.5"/>
      </g>
     </g>
     <g id="text_4">
      <!-- $8$ -->
      <g transform="translate(336.603935 268.288579) scale(0.1 -0.1)">
       <defs>
        <path id="DejaVuSerif-38" d="M 2981 1275 
Q 2981 1775 2732 2051 
Q 2484 2328 2034 2328 
Q 1584 2328 1336 2051 
Q 1088 1775 1088 1275 
Q 1088 772 1336 495 
Q 1584 219 2034 219 
Q 2484 219 2732 495 
Q 2981 772 2981 1275 
z
M 2853 3541 
Q 2853 3966 2637 4203 
Q 2422 4441 2034 4441 
Q 1650 4441 1433 4203 
Q 1216 3966 1216 3541 
Q 1216 3113 1433 2875 
Q 1650 2638 2034 2638 
Q 2422 2638 2637 2875 
Q 2853 3113 2853 3541 
z
M 2516 2484 
Q 3047 2413 3344 2092 
Q 3641 1772 3641 1275 
Q 3641 619 3225 264 
Q 2809 -91 2034 -91 
Q 1263 -91 845 264 
Q 428 619 428 1275 
Q 428 1772 725 2092 
Q 1022 2413 1556 2484 
Q 1084 2569 832 2842 
Q 581 3116 581 3541 
Q 581 4103 968 4426 
Q 1356 4750 2034 4750 
Q 2713 4750 3100 4426 
Q 3488 4103 3488 3541 
Q 3488 3116 3236 2842 
Q 2984 2569 2516 2484 
z
" transform="scale(0.015625)"/>
       </defs>
       <use xlink:href="#DejaVuSerif-38" transform="translate(0 0.78125)"/>
      </g>
     </g>
    </g>
    <g id="xtick_5">
     <g id="line2d_9">
      <g>
       <use xlink:href="#m08855bdf71" x="424.545944" y="257.190142" style="stroke: #000000; stroke-width: 0.5"/>
      </g>
     </g>
     <g id="line2d_10">
      <g>
       <use xlink:href="#mbcdb74121f" x="424.545944" y="16.637858" style="stroke: #000000; stroke-width: 0.5"/>
      </g>
     </g>
     <g id="text_5">
      <!-- $10$ -->
      <g transform="translate(418.145944 268.288579) scale(0.1 -0.1)">
       <defs>
        <path id="DejaVuSerif-31" d="M 909 0 
L 909 331 
L 1722 331 
L 1722 4213 
L 781 3603 
L 781 4013 
L 1919 4750 
L 2350 4750 
L 2350 331 
L 3163 331 
L 3163 0 
L 909 0 
z
" transform="scale(0.015625)"/>
        <path id="DejaVuSerif-30" d="M 2034 219 
Q 2513 219 2750 744 
Q 2988 1269 2988 2328 
Q 2988 3391 2750 3916 
Q 2513 4441 2034 4441 
Q 1556 4441 1318 3916 
Q 1081 3391 1081 2328 
Q 1081 1269 1318 744 
Q 1556 219 2034 219 
z
M 2034 -91 
Q 1275 -91 848 546 
Q 422 1184 422 2328 
Q 422 3475 848 4112 
Q 1275 4750 2034 4750 
Q 2797 4750 3222 4112 
Q 3647 3475 3647 2328 
Q 3647 1184 3222 546 
Q 2797 -91 2034 -91 
z
" transform="scale(0.015625)"/>
       </defs>
       <use xlink:href="#DejaVuSerif-31" transform="translate(0 0.78125)"/>
       <use xlink:href="#DejaVuSerif-30" transform="translate(63.623047 0.78125)"/>
      </g>
     </g>
    </g>
    <g id="text_6">
     <!-- |C(v)| -->
     <g transform="translate(217.17111 283.538892) scale(0.12 -0.12)">
      <defs>
       <path id="DejaVuSerif-7c" d="M 1331 4891 
L 1331 -1509 
L 825 -1509 
L 825 4891 
L 1331 4891 
z
" transform="scale(0.015625)"/>
       <path id="DejaVuSerif-43" d="M 4513 1234 
Q 4306 581 3820 245 
Q 3334 -91 2591 -91 
Q 2134 -91 1743 65 
Q 1353 222 1050 525 
Q 700 875 529 1320 
Q 359 1766 359 2328 
Q 359 3416 987 4083 
Q 1616 4750 2644 4750 
Q 3025 4750 3456 4650 
Q 3888 4550 4384 4347 
L 4384 3272 
L 4031 3272 
Q 3916 3859 3567 4137 
Q 3219 4416 2591 4416 
Q 1844 4416 1459 3886 
Q 1075 3356 1075 2328 
Q 1075 1303 1459 773 
Q 1844 244 2591 244 
Q 3113 244 3450 492 
Q 3788 741 3938 1234 
L 4513 1234 
z
" transform="scale(0.015625)"/>
       <path id="DejaVuSerif-28" d="M 2041 -997 
Q 1281 -656 893 83 
Q 506 822 506 1931 
Q 506 3044 893 3783 
Q 1281 4522 2041 4863 
L 2041 4556 
Q 1559 4225 1350 3623 
Q 1141 3022 1141 1931 
Q 1141 844 1350 242 
Q 1559 -359 2041 -691 
L 2041 -997 
z
" transform="scale(0.015625)"/>
       <path id="DejaVuSerif-76" d="M 1581 0 
L 359 2988 
L -19 2988 
L -19 3322 
L 1509 3322 
L 1509 2988 
L 978 2988 
L 1913 703 
L 2847 2988 
L 2350 2988 
L 2350 3322 
L 3597 3322 
L 3597 2988 
L 3225 2988 
L 2003 0 
L 1581 0 
z
" transform="scale(0.015625)"/>
       <path id="DejaVuSerif-29" d="M 453 -997 
L 453 -691 
Q 934 -359 1145 242 
Q 1356 844 1356 1931 
Q 1356 3022 1145 3623 
Q 934 4225 453 4556 
L 453 4863 
Q 1216 4522 1603 3783 
Q 1991 3044 1991 1931 
Q 1991 822 1603 83 
Q 1216 -656 453 -997 
z
" transform="scale(0.015625)"/>
      </defs>
      <use xlink:href="#DejaVuSerif-7c"/>
      <use xlink:href="#DejaVuSerif-43" x="33.691406"/>
      <use xlink:href="#DejaVuSerif-28" x="110.205078"/>
      <use xlink:href="#DejaVuSerif-76" x="149.21875"/>
      <use xlink:href="#DejaVuSerif-29" x="205.712891"/>
      <use xlink:href="#DejaVuSerif-7c" x="244.726562"/>
     </g>
    </g>
   </g>
   <g id="matplotlib.axis_2">
    <g id="ytick_1">
     <g id="line2d_11">
      <defs>
       <path id="mcb6366bbdf" d="M 0 0 
L 2.5 0 
" style="stroke: #000000; stroke-width: 0.5"/>
      </defs>
      <g>
       <use xlink:href="#mcb6366bbdf" x="43.206901" y="257.190142" style="stroke: #000000; stroke-width: 0.5"/>
      </g>
     </g>
     <g id="line2d_12">
      <defs>
       <path id="m9e3d459466" d="M 0 0 
L -2.5 0 
" style="stroke: #000000; stroke-width: 0.5"/>
      </defs>
      <g>
       <use xlink:href="#m9e3d459466" x="424.545944" y="257.190142" style="stroke: #000000; stroke-width: 0.5"/>
      </g>
     </g>
     <g id="text_7">
      <!-- $0.00$ -->
      <g transform="translate(17.406901 260.98936) scale(0.1 -0.1)">
       <defs>
        <path id="DejaVuSerif-2e" d="M 603 325 
Q 603 500 722 622 
Q 841 744 1019 744 
Q 1191 744 1312 622 
Q 1434 500 1434 325 
Q 1434 153 1312 31 
Q 1191 -91 1019 -91 
Q 841 -91 722 29 
Q 603 150 603 325 
z
" transform="scale(0.015625)"/>
       </defs>
       <use xlink:href="#DejaVuSerif-30" transform="translate(0 0.78125)"/>
       <use xlink:href="#DejaVuSerif-2e" transform="translate(63.623047 0.78125)"/>
       <use xlink:href="#DejaVuSerif-30" transform="translate(95.410156 0.78125)"/>
       <use xlink:href="#DejaVuSerif-30" transform="translate(159.033203 0.78125)"/>
      </g>
     </g>
    </g>
    <g id="ytick_2">
     <g id="line2d_13">
      <g>
       <use xlink:href="#mcb6366bbdf" x="43.206901" y="177.006047" style="stroke: #000000; stroke-width: 0.5"/>
      </g>
     </g>
     <g id="line2d_14">
      <g>
       <use xlink:href="#m9e3d459466" x="424.545944" y="177.006047" style="stroke: #000000; stroke-width: 0.5"/>
      </g>
     </g>
     <g id="text_8">
      <!-- $0.05$ -->
      <g transform="translate(17.406901 180.805266) scale(0.1 -0.1)">
       <defs>
        <path id="DejaVuSerif-35" d="M 3219 4666 
L 3219 4153 
L 1081 4153 
L 1081 2816 
Q 1244 2928 1461 2984 
Q 1678 3041 1947 3041 
Q 2703 3041 3140 2622 
Q 3578 2203 3578 1478 
Q 3578 738 3136 323 
Q 2694 -91 1894 -91 
Q 1572 -91 1234 -12 
Q 897 66 544 225 
L 544 1131 
L 897 1131 
Q 925 688 1179 453 
Q 1434 219 1894 219 
Q 2388 219 2653 544 
Q 2919 869 2919 1478 
Q 2919 2084 2655 2407 
Q 2391 2731 1894 2731 
Q 1613 2731 1398 2631 
Q 1184 2531 1019 2322 
L 750 2322 
L 750 4666 
L 3219 4666 
z
" transform="scale(0.015625)"/>
       </defs>
       <use xlink:href="#DejaVuSerif-30" transform="translate(0 0.78125)"/>
       <use xlink:href="#DejaVuSerif-2e" transform="translate(63.623047 0.78125)"/>
       <use xlink:href="#DejaVuSerif-30" transform="translate(95.410156 0.78125)"/>
       <use xlink:href="#DejaVuSerif-35" transform="translate(159.033203 0.78125)"/>
      </g>
     </g>
    </g>
    <g id="ytick_3">
     <g id="line2d_15">
      <g>
       <use xlink:href="#mcb6366bbdf" x="43.206901" y="96.821953" style="stroke: #000000; stroke-width: 0.5"/>
      </g>
     </g>
     <g id="line2d_16">
      <g>
       <use xlink:href="#m9e3d459466" x="424.545944" y="96.821953" style="stroke: #000000; stroke-width: 0.5"/>
      </g>
     </g>
     <g id="text_9">
      <!-- $0.10$ -->
      <g transform="translate(17.406901 100.621172) scale(0.1 -0.1)">
       <use xlink:href="#DejaVuSerif-30" transform="translate(0 0.78125)"/>
       <use xlink:href="#DejaVuSerif-2e" transform="translate(63.623047 0.78125)"/>
       <use xlink:href="#DejaVuSerif-31" transform="translate(95.410156 0.78125)"/>
       <use xlink:href="#DejaVuSerif-30" transform="translate(159.033203 0.78125)"/>
      </g>
     </g>
    </g>
    <g id="ytick_4">
     <g id="line2d_17">
      <g>
       <use xlink:href="#mcb6366bbdf" x="43.206901" y="16.637858" style="stroke: #000000; stroke-width: 0.5"/>
      </g>
     </g>
     <g id="line2d_18">
      <g>
       <use xlink:href="#m9e3d459466" x="424.545944" y="16.637858" style="stroke: #000000; stroke-width: 0.5"/>
      </g>
     </g>
     <g id="text_10">
      <!-- $0.15$ -->
      <g transform="translate(17.406901 20.437077) scale(0.1 -0.1)">
       <use xlink:href="#DejaVuSerif-30" transform="translate(0 0.78125)"/>
       <use xlink:href="#DejaVuSerif-2e" transform="translate(63.623047 0.78125)"/>
       <use xlink:href="#DejaVuSerif-31" transform="translate(95.410156 0.78125)"/>
       <use xlink:href="#DejaVuSerif-35" transform="translate(159.033203 0.78125)"/>
      </g>
     </g>
    </g>
    <g id="text_11">
     <!-- P(|C(v)|) -->
     <g transform="translate(10.577526 162.338062) rotate(-90) scale(0.12 -0.12)">
      <defs>
       <path id="DejaVuSerif-50" d="M 1581 2375 
L 2406 2375 
Q 2872 2375 3115 2626 
Q 3359 2878 3359 3353 
Q 3359 3831 3115 4081 
Q 2872 4331 2406 4331 
L 1581 4331 
L 1581 2375 
z
M 353 0 
L 353 331 
L 947 331 
L 947 4331 
L 353 4331 
L 353 4666 
L 2559 4666 
Q 3259 4666 3668 4311 
Q 4078 3956 4078 3353 
Q 4078 2753 3668 2397 
Q 3259 2041 2559 2041 
L 1581 2041 
L 1581 331 
L 2303 331 
L 2303 0 
L 353 0 
z
" transform="scale(0.015625)"/>
      </defs>
      <use xlink:href="#DejaVuSerif-50"/>
      <use xlink:href="#DejaVuSerif-28" x="67.285156"/>
      <use xlink:href="#DejaVuSerif-7c" x="106.298828"/>
      <use xlink:href="#DejaVuSerif-43" x="139.990234"/>
      <use xlink:href="#DejaVuSerif-28" x="216.503906"/>
      <use xlink:href="#DejaVuSerif-76" x="255.517578"/>
      <use xlink:href="#DejaVuSerif-29" x="312.011719"/>
      <use xlink:href="#DejaVuSerif-7c" x="351.025391"/>
      <use xlink:href="#DejaVuSerif-29" x="384.716797"/>
     </g>
    </g>
   </g>
   <g id="line2d_19">
    <path d="M 43.206901 40.155399 
L 47.058811 70.74966 
L 50.91072 95.501088 
L 54.76263 115.819228 
L 58.614539 132.708072 
L 62.466449 146.899715 
L 66.318358 158.938947 
L 70.170268 169.238451 
L 74.022177 178.11578 
L 77.874087 185.818722 
L 81.725997 192.543057 
L 85.577906 198.445225 
L 89.429816 203.651506 
L 93.281725 208.264786 
L 97.133635 212.369601 
L 100.985544 216.035953 
L 104.837454 219.322219 
L 108.689363 222.277409 
L 112.541273 224.942916 
L 116.393182 227.3539 
L 120.245092 229.540386 
L 124.097001 231.528136 
L 127.948911 233.339362 
L 131.80082 234.993293 
L 135.65273 236.506644 
L 139.504639 237.894004 
L 143.356549 239.168147 
L 147.208458 240.340297 
L 151.060368 241.420351 
L 154.912278 242.417057 
L 158.764187 243.338174 
L 162.616097 244.190602 
L 166.468006 244.98049 
L 170.319916 245.713334 
L 174.171825 246.394058 
L 178.023735 247.027081 
L 181.875644 247.616379 
L 185.727554 248.165537 
L 189.579463 248.677793 
L 193.431373 249.156078 
L 197.283282 249.603048 
L 201.135192 250.021115 
L 204.987101 250.412474 
L 208.839011 250.779124 
L 212.69092 251.122888 
L 216.54283 251.445434 
L 220.39474 251.748286 
L 224.246649 252.032842 
L 228.098559 252.300385 
L 231.950468 252.55209 
L 235.802378 252.789043 
L 239.654287 253.012239 
L 243.506197 253.222598 
L 247.358106 253.420969 
L 251.210016 253.608135 
L 255.061925 253.78482 
L 258.913835 253.951695 
L 262.765744 254.109383 
L 266.617654 254.258458 
L 270.469563 254.399456 
L 274.321473 254.532873 
L 278.173382 254.659172 
L 282.025292 254.778782 
L 285.877201 254.892103 
L 289.729111 254.999509 
L 293.581021 255.101346 
L 297.43293 255.197941 
L 301.28484 255.289595 
L 305.136749 255.376593 
L 308.988659 255.459198 
L 312.840568 255.53766 
L 316.692478 255.612209 
L 320.544387 255.683065 
L 324.396297 255.75043 
L 328.248206 255.814495 
L 332.100116 255.875441 
L 335.952025 255.933435 
L 339.803935 255.988636 
L 343.655844 256.041193 
L 347.507754 256.091246 
L 351.359663 256.138926 
L 355.211573 256.184358 
L 359.063482 256.227658 
L 362.915392 256.268936 
L 366.767302 256.308296 
L 370.619211 256.345836 
L 374.471121 256.381648 
L 378.32303 256.415819 
L 382.17494 256.448431 
L 386.026849 256.479562 
L 389.878759 256.509286 
L 393.730668 256.537672 
L 397.582578 256.564785 
L 401.434487 256.590688 
L 405.286397 256.615439 
L 409.138306 256.639094 
L 412.990216 256.661706 
L 416.842125 256.683324 
L 420.694035 256.703996 
L 424.545944 256.723766 
" clip-path="url(#pb7366dcc08)" style="fill: none; stroke: #e36f47; stroke-width: 3"/>
   </g>
   <g id="patch_77">
    <path d="M 43.206901 257.190142 
L 43.206901 16.637858 
" style="fill: none; stroke: #000000; stroke-linejoin: miter; stroke-linecap: square"/>
   </g>
   <g id="patch_78">
    <path d="M 424.545944 257.190142 
L 424.545944 16.637858 
" style="fill: none; stroke: #000000; stroke-linejoin: miter; stroke-linecap: square"/>
   </g>
   <g id="patch_79">
    <path d="M 43.206901 257.190142 
L 424.545944 257.190142 
" style="fill: none; stroke: #000000; stroke-linejoin: miter; stroke-linecap: square"/>
   </g>
   <g id="patch_80">
    <path d="M 43.206901 16.637858 
L 424.545944 16.637858 
" style="fill: none; stroke: #000000; stroke-linejoin: miter; stroke-linecap: square"/>
   </g>
   <g id="text_12">
    <!-- Vertex component sizes in random automata -->
    <g transform="translate(98.238923 10.637858) scale(0.12 -0.12)">
     <defs>
      <path id="DejaVuSerif-56" d="M 1119 4331 
L 2497 750 
L 3872 4331 
L 3347 4331 
L 3347 4666 
L 4716 4666 
L 4716 4331 
L 4263 4331 
L 2597 0 
L 2059 0 
L 403 4331 
L -63 4331 
L -63 4666 
L 1638 4666 
L 1638 4331 
L 1119 4331 
z
" transform="scale(0.015625)"/>
      <path id="DejaVuSerif-65" d="M 3469 1600 
L 991 1600 
L 991 1575 
Q 991 903 1244 561 
Q 1497 219 1991 219 
Q 2369 219 2611 417 
Q 2853 616 2950 1006 
L 3413 1006 
Q 3275 459 2904 184 
Q 2534 -91 1931 -91 
Q 1203 -91 761 389 
Q 319 869 319 1663 
Q 319 2450 753 2931 
Q 1188 3413 1894 3413 
Q 2647 3413 3050 2948 
Q 3453 2484 3469 1600 
z
M 2791 1931 
Q 2772 2513 2545 2808 
Q 2319 3103 1894 3103 
Q 1497 3103 1269 2806 
Q 1041 2509 991 1931 
L 2791 1931 
z
" transform="scale(0.015625)"/>
      <path id="DejaVuSerif-72" d="M 3059 3328 
L 3059 2497 
L 2728 2497 
Q 2713 2744 2591 2866 
Q 2469 2988 2234 2988 
Q 1809 2988 1582 2694 
Q 1356 2400 1356 1850 
L 1356 331 
L 2022 331 
L 2022 0 
L 263 0 
L 263 331 
L 781 331 
L 781 2994 
L 231 2994 
L 231 3322 
L 1356 3322 
L 1356 2731 
Q 1525 3078 1790 3245 
Q 2056 3413 2438 3413 
Q 2578 3413 2733 3391 
Q 2888 3369 3059 3328 
z
" transform="scale(0.015625)"/>
      <path id="DejaVuSerif-74" d="M 691 2988 
L 184 2988 
L 184 3322 
L 691 3322 
L 691 4353 
L 1269 4353 
L 1269 3322 
L 2350 3322 
L 2350 2988 
L 1269 2988 
L 1269 878 
Q 1269 456 1350 337 
Q 1431 219 1650 219 
Q 1875 219 1978 351 
Q 2081 484 2088 781 
L 2522 781 
Q 2497 328 2275 118 
Q 2053 -91 1600 -91 
Q 1103 -91 897 129 
Q 691 350 691 878 
L 691 2988 
z
" transform="scale(0.015625)"/>
      <path id="DejaVuSerif-78" d="M 1863 2028 
L 2559 2988 
L 2113 2988 
L 2113 3322 
L 3391 3322 
L 3391 2988 
L 2950 2988 
L 2059 1759 
L 3097 331 
L 3531 331 
L 3531 0 
L 1997 0 
L 1997 331 
L 2419 331 
L 1697 1325 
L 972 331 
L 1403 331 
L 1403 0 
L 141 0 
L 141 331 
L 581 331 
L 1497 1594 
L 488 2988 
L 78 2988 
L 78 3322 
L 1563 3322 
L 1563 2988 
L 1166 2988 
L 1863 2028 
z
" transform="scale(0.015625)"/>
      <path id="DejaVuSerif-20" transform="scale(0.015625)"/>
      <path id="DejaVuSerif-63" d="M 3291 997 
Q 3169 466 2822 187 
Q 2475 -91 1925 -91 
Q 1200 -91 759 389 
Q 319 869 319 1663 
Q 319 2459 759 2936 
Q 1200 3413 1925 3413 
Q 2241 3413 2553 3339 
Q 2866 3266 3181 3116 
L 3181 2266 
L 2847 2266 
Q 2781 2703 2561 2903 
Q 2341 3103 1931 3103 
Q 1466 3103 1228 2742 
Q 991 2381 991 1663 
Q 991 944 1227 581 
Q 1463 219 1931 219 
Q 2303 219 2525 412 
Q 2747 606 2828 997 
L 3291 997 
z
" transform="scale(0.015625)"/>
      <path id="DejaVuSerif-6f" d="M 1925 219 
Q 2388 219 2623 584 
Q 2859 950 2859 1663 
Q 2859 2375 2623 2739 
Q 2388 3103 1925 3103 
Q 1463 3103 1227 2739 
Q 991 2375 991 1663 
Q 991 950 1228 584 
Q 1466 219 1925 219 
z
M 1925 -91 
Q 1200 -91 759 389 
Q 319 869 319 1663 
Q 319 2456 758 2934 
Q 1197 3413 1925 3413 
Q 2653 3413 3092 2934 
Q 3531 2456 3531 1663 
Q 3531 869 3092 389 
Q 2653 -91 1925 -91 
z
" transform="scale(0.015625)"/>
      <path id="DejaVuSerif-6d" d="M 3316 2675 
Q 3481 3041 3739 3227 
Q 3997 3413 4341 3413 
Q 4863 3413 5119 3089 
Q 5375 2766 5375 2113 
L 5375 331 
L 5894 331 
L 5894 0 
L 4300 0 
L 4300 331 
L 4800 331 
L 4800 2047 
Q 4800 2556 4650 2772 
Q 4500 2988 4153 2988 
Q 3769 2988 3567 2697 
Q 3366 2406 3366 1850 
L 3366 331 
L 3866 331 
L 3866 0 
L 2291 0 
L 2291 331 
L 2791 331 
L 2791 2069 
Q 2791 2566 2641 2777 
Q 2491 2988 2144 2988 
Q 1759 2988 1557 2697 
Q 1356 2406 1356 1850 
L 1356 331 
L 1856 331 
L 1856 0 
L 263 0 
L 263 331 
L 781 331 
L 781 2994 
L 231 2994 
L 231 3322 
L 1356 3322 
L 1356 2731 
Q 1516 3063 1762 3238 
Q 2009 3413 2322 3413 
Q 2709 3413 2968 3220 
Q 3228 3028 3316 2675 
z
" transform="scale(0.015625)"/>
      <path id="DejaVuSerif-70" d="M 1313 1825 
L 1313 1497 
Q 1313 897 1542 583 
Q 1772 269 2209 269 
Q 2650 269 2876 622 
Q 3103 975 3103 1663 
Q 3103 2353 2876 2703 
Q 2650 3053 2209 3053 
Q 1772 3053 1542 2737 
Q 1313 2422 1313 1825 
z
M 738 2988 
L 184 2988 
L 184 3322 
L 1313 3322 
L 1313 2803 
Q 1481 3116 1742 3264 
Q 2003 3413 2388 3413 
Q 3000 3413 3387 2928 
Q 3775 2444 3775 1663 
Q 3775 881 3387 395 
Q 3000 -91 2388 -91 
Q 2003 -91 1742 57 
Q 1481 206 1313 519 
L 1313 -997 
L 1856 -997 
L 1856 -1331 
L 184 -1331 
L 184 -997 
L 738 -997 
L 738 2988 
z
" transform="scale(0.015625)"/>
      <path id="DejaVuSerif-6e" d="M 263 0 
L 263 331 
L 781 331 
L 781 2988 
L 231 2988 
L 231 3322 
L 1356 3322 
L 1356 2731 
Q 1516 3069 1770 3241 
Q 2025 3413 2363 3413 
Q 2913 3413 3172 3097 
Q 3431 2781 3431 2113 
L 3431 331 
L 3944 331 
L 3944 0 
L 2356 0 
L 2356 331 
L 2853 331 
L 2853 1931 
Q 2853 2541 2703 2767 
Q 2553 2994 2175 2994 
Q 1775 2994 1565 2701 
Q 1356 2409 1356 1850 
L 1356 331 
L 1856 331 
L 1856 0 
L 263 0 
z
" transform="scale(0.015625)"/>
      <path id="DejaVuSerif-73" d="M 359 184 
L 359 959 
L 691 959 
Q 703 588 923 403 
Q 1144 219 1575 219 
Q 1963 219 2166 364 
Q 2369 509 2369 788 
Q 2369 1006 2220 1140 
Q 2072 1275 1594 1428 
L 1178 1569 
Q 750 1706 558 1912 
Q 366 2119 366 2438 
Q 366 2894 700 3153 
Q 1034 3413 1625 3413 
Q 1888 3413 2178 3344 
Q 2469 3275 2778 3144 
L 2778 2419 
L 2447 2419 
Q 2434 2741 2221 2922 
Q 2009 3103 1644 3103 
Q 1281 3103 1095 2975 
Q 909 2847 909 2591 
Q 909 2381 1050 2254 
Q 1191 2128 1613 1997 
L 2069 1856 
Q 2541 1709 2748 1489 
Q 2956 1269 2956 922 
Q 2956 450 2595 179 
Q 2234 -91 1600 -91 
Q 1278 -91 972 -22 
Q 666 47 359 184 
z
" transform="scale(0.015625)"/>
      <path id="DejaVuSerif-69" d="M 622 4353 
Q 622 4497 726 4603 
Q 831 4709 978 4709 
Q 1122 4709 1226 4603 
Q 1331 4497 1331 4353 
Q 1331 4206 1228 4103 
Q 1125 4000 978 4000 
Q 831 4000 726 4103 
Q 622 4206 622 4353 
z
M 1356 331 
L 1900 331 
L 1900 0 
L 231 0 
L 231 331 
L 781 331 
L 781 2988 
L 231 2988 
L 231 3322 
L 1356 3322 
L 1356 331 
z
" transform="scale(0.015625)"/>
      <path id="DejaVuSerif-7a" d="M 256 0 
L 256 269 
L 2338 2988 
L 691 2988 
L 691 2413 
L 359 2413 
L 359 3322 
L 3078 3322 
L 3078 3053 
L 997 331 
L 2803 331 
L 2803 934 
L 3138 934 
L 3138 0 
L 256 0 
z
" transform="scale(0.015625)"/>
      <path id="DejaVuSerif-61" d="M 2547 1044 
L 2547 1747 
L 1806 1747 
Q 1378 1747 1168 1562 
Q 959 1378 959 997 
Q 959 650 1171 447 
Q 1384 244 1747 244 
Q 2106 244 2326 466 
Q 2547 688 2547 1044 
z
M 3122 2075 
L 3122 331 
L 3634 331 
L 3634 0 
L 2547 0 
L 2547 359 
Q 2356 128 2106 18 
Q 1856 -91 1522 -91 
Q 969 -91 644 203 
Q 319 497 319 997 
Q 319 1513 691 1797 
Q 1063 2081 1741 2081 
L 2547 2081 
L 2547 2309 
Q 2547 2688 2317 2895 
Q 2088 3103 1672 3103 
Q 1328 3103 1125 2947 
Q 922 2791 872 2484 
L 575 2484 
L 575 3156 
Q 875 3284 1158 3348 
Q 1441 3413 1709 3413 
Q 2400 3413 2761 3070 
Q 3122 2728 3122 2075 
z
" transform="scale(0.015625)"/>
      <path id="DejaVuSerif-64" d="M 3359 331 
L 3909 331 
L 3909 0 
L 2784 0 
L 2784 519 
Q 2616 206 2355 57 
Q 2094 -91 1709 -91 
Q 1097 -91 708 395 
Q 319 881 319 1663 
Q 319 2444 706 2928 
Q 1094 3413 1709 3413 
Q 2094 3413 2355 3264 
Q 2616 3116 2784 2803 
L 2784 4531 
L 2241 4531 
L 2241 4863 
L 3359 4863 
L 3359 331 
z
M 2784 1497 
L 2784 1825 
Q 2784 2422 2554 2737 
Q 2325 3053 1888 3053 
Q 1444 3053 1217 2703 
Q 991 2353 991 1663 
Q 991 975 1217 622 
Q 1444 269 1888 269 
Q 2325 269 2554 583 
Q 2784 897 2784 1497 
z
" transform="scale(0.015625)"/>
      <path id="DejaVuSerif-75" d="M 2266 3322 
L 3341 3322 
L 3341 331 
L 3884 331 
L 3884 0 
L 2766 0 
L 2766 588 
Q 2606 256 2353 82 
Q 2100 -91 1766 -91 
Q 1213 -91 952 223 
Q 691 538 691 1209 
L 691 2988 
L 172 2988 
L 172 3322 
L 1269 3322 
L 1269 1388 
Q 1269 781 1417 556 
Q 1566 331 1947 331 
Q 2347 331 2556 625 
Q 2766 919 2766 1478 
L 2766 2988 
L 2266 2988 
L 2266 3322 
z
" transform="scale(0.015625)"/>
     </defs>
     <use xlink:href="#DejaVuSerif-56"/>
     <use xlink:href="#DejaVuSerif-65" x="63.091797"/>
     <use xlink:href="#DejaVuSerif-72" x="122.271484"/>
     <use xlink:href="#DejaVuSerif-74" x="170.074219"/>
     <use xlink:href="#DejaVuSerif-65" x="210.259766"/>
     <use xlink:href="#DejaVuSerif-78" x="269.439453"/>
     <use xlink:href="#DejaVuSerif-20" x="325.835938"/>
     <use xlink:href="#DejaVuSerif-63" x="357.623047"/>
     <use xlink:href="#DejaVuSerif-6f" x="413.628906"/>
     <use xlink:href="#DejaVuSerif-6d" x="473.833984"/>
     <use xlink:href="#DejaVuSerif-70" x="568.658203"/>
     <use xlink:href="#DejaVuSerif-6f" x="632.671875"/>
     <use xlink:href="#DejaVuSerif-6e" x="692.876953"/>
     <use xlink:href="#DejaVuSerif-65" x="757.28125"/>
     <use xlink:href="#DejaVuSerif-6e" x="816.460938"/>
     <use xlink:href="#DejaVuSerif-74" x="880.865234"/>
     <use xlink:href="#DejaVuSerif-20" x="921.050781"/>
     <use xlink:href="#DejaVuSerif-73" x="952.837891"/>
     <use xlink:href="#DejaVuSerif-69" x="1004.15625"/>
     <use xlink:href="#DejaVuSerif-7a" x="1036.138672"/>
     <use xlink:href="#DejaVuSerif-65" x="1088.824219"/>
     <use xlink:href="#DejaVuSerif-73" x="1148.003906"/>
     <use xlink:href="#DejaVuSerif-20" x="1199.322266"/>
     <use xlink:href="#DejaVuSerif-69" x="1231.109375"/>
     <use xlink:href="#DejaVuSerif-6e" x="1263.091797"/>
     <use xlink:href="#DejaVuSerif-20" x="1327.496094"/>
     <use xlink:href="#DejaVuSerif-72" x="1359.283203"/>
     <use xlink:href="#DejaVuSerif-61" x="1407.085938"/>
     <use xlink:href="#DejaVuSerif-6e" x="1466.705078"/>
     <use xlink:href="#DejaVuSerif-64" x="1531.109375"/>
     <use xlink:href="#DejaVuSerif-6f" x="1595.123047"/>
     <use xlink:href="#DejaVuSerif-6d" x="1655.328125"/>
     <use xlink:href="#DejaVuSerif-20" x="1750.152344"/>
     <use xlink:href="#DejaVuSerif-61" x="1781.939453"/>
     <use xlink:href="#DejaVuSerif-75" x="1841.558594"/>
     <use xlink:href="#DejaVuSerif-74" x="1905.962891"/>
     <use xlink:href="#DejaVuSerif-6f" x="1946.148438"/>
     <use xlink:href="#DejaVuSerif-6d" x="2006.353516"/>
     <use xlink:href="#DejaVuSerif-61" x="2101.177734"/>
     <use xlink:href="#DejaVuSerif-74" x="2160.796875"/>
     <use xlink:href="#DejaVuSerif-61" x="2200.982422"/>
    </g>
   </g>
   <g id="legend_1">
    <g id="patch_81">
     <path d="M 240.270944 62.136296 
L 419.545944 62.136296 
L 419.545944 21.637858 
L 240.270944 21.637858 
z
" style="fill: #ffffff; stroke: #000000; stroke-linejoin: miter"/>
    </g>
    <g id="patch_82">
     <path d="M 248.270944 37.236296 
L 268.270944 37.236296 
L 268.270944 30.236296 
L 248.270944 30.236296 
z
" style="fill: #0000ff"/>
    </g>
    <g id="text_13">
     <!-- emp -->
     <g transform="translate(276.270944 37.236296) scale(0.1 -0.1)">
      <use xlink:href="#DejaVuSerif-65"/>
      <use xlink:href="#DejaVuSerif-6d" x="59.179688"/>
      <use xlink:href="#DejaVuSerif-70" x="154.003906"/>
     </g>
    </g>
    <g id="line2d_20">
     <path d="M 248.270944 48.414421 
L 258.270944 48.414421 
L 268.270944 48.414421 
" style="fill: none; stroke: #e36f47; stroke-width: 1.25; stroke-linejoin: miter"/>
    </g>
    <g id="text_14">
     <!-- Poisson branching process -->
     <g transform="translate(276.270944 51.914421) scale(0.1 -0.1)">
      <defs>
       <path id="DejaVuSerif-62" d="M 738 331 
L 738 4531 
L 184 4531 
L 184 4863 
L 1313 4863 
L 1313 2803 
Q 1481 3116 1742 3264 
Q 2003 3413 2388 3413 
Q 3000 3413 3387 2928 
Q 3775 2444 3775 1663 
Q 3775 881 3387 395 
Q 3000 -91 2388 -91 
Q 2003 -91 1742 57 
Q 1481 206 1313 519 
L 1313 0 
L 184 0 
L 184 331 
L 738 331 
z
M 1313 1497 
Q 1313 897 1542 583 
Q 1772 269 2209 269 
Q 2650 269 2876 622 
Q 3103 975 3103 1663 
Q 3103 2353 2876 2703 
Q 2650 3053 2209 3053 
Q 1772 3053 1542 2737 
Q 1313 2422 1313 1825 
L 1313 1497 
z
" transform="scale(0.015625)"/>
       <path id="DejaVuSerif-68" d="M 263 0 
L 263 331 
L 781 331 
L 781 4531 
L 231 4531 
L 231 4863 
L 1356 4863 
L 1356 2731 
Q 1516 3069 1770 3241 
Q 2025 3413 2363 3413 
Q 2913 3413 3172 3097 
Q 3431 2781 3431 2113 
L 3431 331 
L 3944 331 
L 3944 0 
L 2356 0 
L 2356 331 
L 2853 331 
L 2853 1931 
Q 2853 2541 2704 2764 
Q 2556 2988 2175 2988 
Q 1775 2988 1565 2697 
Q 1356 2406 1356 1850 
L 1356 331 
L 1856 331 
L 1856 0 
L 263 0 
z
" transform="scale(0.015625)"/>
       <path id="DejaVuSerif-67" d="M 3359 2988 
L 3359 72 
Q 3359 -644 2965 -1033 
Q 2572 -1422 1844 -1422 
Q 1516 -1422 1216 -1362 
Q 916 -1303 641 -1184 
L 641 -488 
L 941 -488 
Q 997 -813 1206 -963 
Q 1416 -1113 1806 -1113 
Q 2313 -1113 2548 -827 
Q 2784 -541 2784 72 
L 2784 519 
Q 2616 206 2355 57 
Q 2094 -91 1709 -91 
Q 1097 -91 708 395 
Q 319 881 319 1663 
Q 319 2444 706 2928 
Q 1094 3413 1709 3413 
Q 2094 3413 2355 3264 
Q 2616 3116 2784 2803 
L 2784 3322 
L 3909 3322 
L 3909 2988 
L 3359 2988 
z
M 2784 1825 
Q 2784 2422 2554 2737 
Q 2325 3053 1888 3053 
Q 1444 3053 1217 2703 
Q 991 2353 991 1663 
Q 991 975 1217 622 
Q 1444 269 1888 269 
Q 2325 269 2554 583 
Q 2784 897 2784 1497 
L 2784 1825 
z
" transform="scale(0.015625)"/>
      </defs>
      <use xlink:href="#DejaVuSerif-50"/>
      <use xlink:href="#DejaVuSerif-6f" x="63.285156"/>
      <use xlink:href="#DejaVuSerif-69" x="123.490234"/>
      <use xlink:href="#DejaVuSerif-73" x="155.472656"/>
      <use xlink:href="#DejaVuSerif-73" x="206.791016"/>
      <use xlink:href="#DejaVuSerif-6f" x="258.109375"/>
      <use xlink:href="#DejaVuSerif-6e" x="318.314453"/>
      <use xlink:href="#DejaVuSerif-20" x="382.71875"/>
      <use xlink:href="#DejaVuSerif-62" x="414.505859"/>
      <use xlink:href="#DejaVuSerif-72" x="478.519531"/>
      <use xlink:href="#DejaVuSerif-61" x="526.322266"/>
      <use xlink:href="#DejaVuSerif-6e" x="585.941406"/>
      <use xlink:href="#DejaVuSerif-63" x="650.345703"/>
      <use xlink:href="#DejaVuSerif-68" x="706.351562"/>
      <use xlink:href="#DejaVuSerif-69" x="770.755859"/>
      <use xlink:href="#DejaVuSerif-6e" x="802.738281"/>
      <use xlink:href="#DejaVuSerif-67" x="867.142578"/>
      <use xlink:href="#DejaVuSerif-20" x="931.15625"/>
      <use xlink:href="#DejaVuSerif-70" x="962.943359"/>
      <use xlink:href="#DejaVuSerif-72" x="1026.957031"/>
      <use xlink:href="#DejaVuSerif-6f" x="1074.759766"/>
      <use xlink:href="#DejaVuSerif-63" x="1134.964844"/>
      <use xlink:href="#DejaVuSerif-65" x="1190.970703"/>
      <use xlink:href="#DejaVuSerif-73" x="1250.150391"/>
      <use xlink:href="#DejaVuSerif-73" x="1301.46875"/>
     </g>
    </g>
   </g>
  </g>
 </g>
 <defs>
  <clipPath id="pb7366dcc08">
   <rect x="43.206901" y="16.637858" width="381.339043" height="240.552283"/>
  </clipPath>
 </defs>
</svg>
