<?xml version="1.0" encoding="utf-8" standalone="no"?>
<!DOCTYPE svg PUBLIC "-//W3C//DTD SVG 1.1//EN"
  "http://www.w3.org/Graphics/SVG/1.1/DTD/svg11.dtd">
<svg xmlns:xlink="http://www.w3.org/1999/xlink" width="432pt" height="288pt" viewBox="0 0 432 288" xmlns="http://www.w3.org/2000/svg" version="1.1">
 <metadata>
  <rdf:RDF xmlns:dc="http://purl.org/dc/elements/1.1/" xmlns:cc="http://creativecommons.org/ns#" xmlns:rdf="http://www.w3.org/1999/02/22-rdf-syntax-ns#">
   <cc:Work>
    <dc:type rdf:resource="http://purl.org/dc/dcmitype/StillImage"/>
    <dc:date>2025-06-07T10:31:25.279776</dc:date>
    <dc:format>image/svg+xml</dc:format>
    <dc:creator>
     <cc:Agent>
      <dc:title>Matplotlib v3.9.2, https://matplotlib.org/</dc:title>
     </cc:Agent>
    </dc:creator>
   </cc:Work>
  </rdf:RDF>
 </metadata>
 <defs>
  <style type="text/css">*{stroke-linejoin: round; stroke-linecap: butt}</style>
 </defs>
 <g id="figure_1">
  <g id="patch_1">
   <path d="M 0 288 
L 432 288 
L 432 0 
L 0 0 
z
" style="fill: #ffffff"/>
  </g>
  <g id="axes_1">
   <g id="patch_2">
    <path d="M 61.859353 239.905354 
L 429.165354 239.905354 
L 429.165354 2.834646 
L 61.859353 2.834646 
z
" style="fill: #ffffff"/>
   </g>
   <g id="line2d_1">
    <path d="M 75.154717 11.637616 
L 81.052843 11.102624 
L 86.950969 11.708949 
L 92.849095 11.566284 
L 98.747221 12.243941 
L 104.645346 12.315273 
L 110.543472 13.135595 
L 116.441598 13.206927 
L 122.339724 14.169914 
L 128.237849 14.66924 
L 134.135975 15.739225 
L 140.034101 16.80921 
L 145.932227 17.130205 
L 151.830353 18.628184 
L 157.728478 19.377173 
L 163.626604 20.625489 
L 169.52473 22.1948 
L 175.422856 23.015122 
L 181.320981 25.012427 
L 187.219107 26.65307 
L 193.117233 28.115383 
L 199.015359 29.898691 
L 204.913484 31.503668 
L 210.81161 33.857634 
L 216.709736 35.56961 
L 222.607862 37.566915 
L 228.505988 40.848202 
L 234.404113 42.488845 
L 240.302239 44.700147 
L 246.200365 47.874435 
L 252.098491 51.08439 
L 257.996616 53.367024 
L 263.894742 56.93364 
L 269.792868 59.323273 
L 275.690994 63.424881 
L 281.58912 66.670502 
L 287.487245 70.665112 
L 293.385371 74.196062 
L 299.283497 78.975328 
L 305.181623 82.684608 
L 311.079748 87.677871 
L 316.977874 92.314472 
L 322.876 97.914059 
L 328.774126 103.049986 
L 334.672252 109.541227 
L 340.570377 115.818471 
L 346.468503 122.167048 
L 352.366629 130.334599 
L 358.264755 138.181154 
L 364.16288 147.490022 
L 370.061006 158.760529 
L 375.959132 171.38635 
L 381.857258 188.399108 
L 387.755384 219.179005 
L 393.653509 233.195806 
L 399.551635 233.195806 
L 405.449761 233.195806 
L 411.347887 233.195806 
L 417.246012 233.195806 
" clip-path="url(#pef92129968)" style="fill: none; stroke: #4c72b0; stroke-width: 5"/>
   </g>
   <g id="matplotlib.axis_1">
    <g id="xtick_1">
     <g id="line2d_2">
      <defs>
       <path id="mf204b97a49" d="M 0 0 
L 0 -2.5 
" style="stroke: #000000; stroke-width: 0.5"/>
      </defs>
      <g>
       <use xlink:href="#mf204b97a49" x="72.254806" y="239.905354" style="stroke: #000000; stroke-width: 0.5"/>
      </g>
     </g>
     <g id="line2d_3">
      <defs>
       <path id="m942119d030" d="M 0 0 
L 0 2.5 
" style="stroke: #000000; stroke-width: 0.5"/>
      </defs>
      <g>
       <use xlink:href="#m942119d030" x="72.254806" y="2.834646" style="stroke: #000000; stroke-width: 0.5"/>
      </g>
     </g>
     <g id="text_1">
      <!-- $0.0$ -->
      <g transform="translate(59.454806 255.562854) scale(0.16 -0.16)">
       <defs>
        <path id="DejaVuSerif-30" d="M 2034 219 
Q 2513 219 2750 744 
Q 2988 1269 2988 2328 
Q 2988 3391 2750 3916 
Q 2513 4441 2034 4441 
Q 1556 4441 1318 3916 
Q 1081 3391 1081 2328 
Q 1081 1269 1318 744 
Q 1556 219 2034 219 
z
M 2034 -91 
Q 1275 -91 848 546 
Q 422 1184 422 2328 
Q 422 3475 848 4112 
Q 1275 4750 2034 4750 
Q 2797 4750 3222 4112 
Q 3647 3475 3647 2328 
Q 3647 1184 3222 546 
Q 2797 -91 2034 -91 
z
" transform="scale(0.015625)"/>
        <path id="DejaVuSerif-2e" d="M 603 325 
Q 603 500 722 622 
Q 841 744 1019 744 
Q 1191 744 1312 622 
Q 1434 500 1434 325 
Q 1434 153 1312 31 
Q 1191 -91 1019 -91 
Q 841 -91 722 29 
Q 603 150 603 325 
z
" transform="scale(0.015625)"/>
       </defs>
       <use xlink:href="#DejaVuSerif-30" transform="translate(0 0.78125)"/>
       <use xlink:href="#DejaVuSerif-2e" transform="translate(63.623047 0.78125)"/>
       <use xlink:href="#DejaVuSerif-30" transform="translate(95.410156 0.78125)"/>
      </g>
     </g>
    </g>
    <g id="xtick_2">
     <g id="line2d_4">
      <g>
       <use xlink:href="#mf204b97a49" x="151.34331" y="239.905354" style="stroke: #000000; stroke-width: 0.5"/>
      </g>
     </g>
     <g id="line2d_5">
      <g>
       <use xlink:href="#m942119d030" x="151.34331" y="2.834646" style="stroke: #000000; stroke-width: 0.5"/>
      </g>
     </g>
     <g id="text_2">
      <!-- $0.5$ -->
      <g transform="translate(138.54331 255.562854) scale(0.16 -0.16)">
       <defs>
        <path id="DejaVuSerif-35" d="M 3219 4666 
L 3219 4153 
L 1081 4153 
L 1081 2816 
Q 1244 2928 1461 2984 
Q 1678 3041 1947 3041 
Q 2703 3041 3140 2622 
Q 3578 2203 3578 1478 
Q 3578 738 3136 323 
Q 2694 -91 1894 -91 
Q 1572 -91 1234 -12 
Q 897 66 544 225 
L 544 1131 
L 897 1131 
Q 925 688 1179 453 
Q 1434 219 1894 219 
Q 2388 219 2653 544 
Q 2919 869 2919 1478 
Q 2919 2084 2655 2407 
Q 2391 2731 1894 2731 
Q 1613 2731 1398 2631 
Q 1184 2531 1019 2322 
L 750 2322 
L 750 4666 
L 3219 4666 
z
" transform="scale(0.015625)"/>
       </defs>
       <use xlink:href="#DejaVuSerif-30" transform="translate(0 0.78125)"/>
       <use xlink:href="#DejaVuSerif-2e" transform="translate(63.623047 0.78125)"/>
       <use xlink:href="#DejaVuSerif-35" transform="translate(95.410156 0.78125)"/>
      </g>
     </g>
    </g>
    <g id="xtick_3">
     <g id="line2d_6">
      <g>
       <use xlink:href="#mf204b97a49" x="230.431815" y="239.905354" style="stroke: #000000; stroke-width: 0.5"/>
      </g>
     </g>
     <g id="line2d_7">
      <g>
       <use xlink:href="#m942119d030" x="230.431815" y="2.834646" style="stroke: #000000; stroke-width: 0.5"/>
      </g>
     </g>
     <g id="text_3">
      <!-- $1.0$ -->
      <g transform="translate(217.631815 255.562854) scale(0.16 -0.16)">
       <defs>
        <path id="DejaVuSerif-31" d="M 909 0 
L 909 331 
L 1722 331 
L 1722 4213 
L 781 3603 
L 781 4013 
L 1919 4750 
L 2350 4750 
L 2350 331 
L 3163 331 
L 3163 0 
L 909 0 
z
" transform="scale(0.015625)"/>
       </defs>
       <use xlink:href="#DejaVuSerif-31" transform="translate(0 0.78125)"/>
       <use xlink:href="#DejaVuSerif-2e" transform="translate(63.623047 0.78125)"/>
       <use xlink:href="#DejaVuSerif-30" transform="translate(95.410156 0.78125)"/>
      </g>
     </g>
    </g>
    <g id="xtick_4">
     <g id="line2d_8">
      <g>
       <use xlink:href="#mf204b97a49" x="309.52032" y="239.905354" style="stroke: #000000; stroke-width: 0.5"/>
      </g>
     </g>
     <g id="line2d_9">
      <g>
       <use xlink:href="#m942119d030" x="309.52032" y="2.834646" style="stroke: #000000; stroke-width: 0.5"/>
      </g>
     </g>
     <g id="text_4">
      <!-- $1.5$ -->
      <g transform="translate(296.72032 255.562854) scale(0.16 -0.16)">
       <use xlink:href="#DejaVuSerif-31" transform="translate(0 0.78125)"/>
       <use xlink:href="#DejaVuSerif-2e" transform="translate(63.623047 0.78125)"/>
       <use xlink:href="#DejaVuSerif-35" transform="translate(95.410156 0.78125)"/>
      </g>
     </g>
    </g>
    <g id="xtick_5">
     <g id="line2d_10">
      <g>
       <use xlink:href="#mf204b97a49" x="388.608824" y="239.905354" style="stroke: #000000; stroke-width: 0.5"/>
      </g>
     </g>
     <g id="line2d_11">
      <g>
       <use xlink:href="#m942119d030" x="388.608824" y="2.834646" style="stroke: #000000; stroke-width: 0.5"/>
      </g>
     </g>
     <g id="text_5">
      <!-- $2.0$ -->
      <g transform="translate(375.808824 255.562854) scale(0.16 -0.16)">
       <defs>
        <path id="DejaVuSerif-32" d="M 819 3553 
L 469 3553 
L 469 4384 
Q 803 4563 1142 4656 
Q 1481 4750 1806 4750 
Q 2534 4750 2956 4397 
Q 3378 4044 3378 3438 
Q 3378 2753 2422 1800 
Q 2347 1728 2309 1691 
L 1131 513 
L 3078 513 
L 3078 1088 
L 3444 1088 
L 3444 0 
L 434 0 
L 434 341 
L 1850 1753 
Q 2319 2222 2519 2614 
Q 2719 3006 2719 3438 
Q 2719 3909 2473 4175 
Q 2228 4441 1797 4441 
Q 1350 4441 1106 4219 
Q 863 3997 819 3553 
z
" transform="scale(0.015625)"/>
       </defs>
       <use xlink:href="#DejaVuSerif-32" transform="translate(0 0.78125)"/>
       <use xlink:href="#DejaVuSerif-2e" transform="translate(63.623047 0.78125)"/>
       <use xlink:href="#DejaVuSerif-30" transform="translate(95.410156 0.78125)"/>
      </g>
     </g>
    </g>
    <g id="text_6">
     <!-- $\sqrt{\lambda}$ -->
     <g transform="translate(233.432354 277.802854) scale(0.16 -0.16)">
      <defs>
       <path id="STIXSizeOneSym-Regular-221a" d="M 6970 9933 
L 3373 -1888 
L 3104 -1888 
L 1626 2918 
Q 1555 3149 1465 3251 
Q 1376 3354 1229 3354 
Q 1011 3354 794 3181 
L 717 3309 
L 1766 4115 
L 1926 4115 
L 3379 -602 
L 3405 -602 
L 6605 9933 
L 6970 9933 
z
" transform="scale(0.015625)"/>
       <path id="DejaVuSerif-Italic-3bb" d="M 1984 4084 
Q 1925 4372 1834 4466 
Q 1744 4563 1578 4563 
Q 1391 4563 1288 4472 
Q 1178 4378 1119 4166 
L 825 4166 
L 947 4800 
Q 1113 4847 1272 4872 
Q 1431 4897 1578 4897 
Q 1925 4897 2088 4753 
Q 2253 4613 2334 4225 
L 3100 334 
L 3472 334 
L 3406 0 
L 2159 0 
L 2225 334 
L 2722 334 
L 2281 2628 
L 853 334 
L 1384 334 
L 1319 0 
L -209 0 
L -144 334 
L 234 334 
L 2116 3388 
L 1984 4084 
z
" transform="scale(0.015625)"/>
      </defs>
      <use xlink:href="#STIXSizeOneSym-Regular-221a" transform="translate(0 17.984375) scale(0.583453)"/>
      <use xlink:href="#DejaVuSerif-Italic-3bb" transform="translate(74.202362 1.234375)"/>
      <path d="M 61.702362 101.5 
L 61.702362 107.75 
L 150.081268 107.75 
L 150.081268 101.5 
L 61.702362 101.5 
z
"/>
     </g>
    </g>
   </g>
   <g id="matplotlib.axis_2">
    <g id="ytick_1">
     <g id="line2d_12">
      <defs>
       <path id="mcd65286673" d="M 0 0 
L 2.5 0 
" style="stroke: #000000; stroke-width: 0.5"/>
      </defs>
      <g>
       <use xlink:href="#mcd65286673" x="61.859353" y="233.195806" style="stroke: #000000; stroke-width: 0.5"/>
      </g>
     </g>
     <g id="line2d_13">
      <defs>
       <path id="mb04a12dbd9" d="M 0 0 
L -2.5 0 
" style="stroke: #000000; stroke-width: 0.5"/>
      </defs>
      <g>
       <use xlink:href="#mb04a12dbd9" x="429.165354" y="233.195806" style="stroke: #000000; stroke-width: 0.5"/>
      </g>
     </g>
     <g id="text_7">
      <!-- $0.0$ -->
      <g transform="translate(32.759353 239.274556) scale(0.16 -0.16)">
       <use xlink:href="#DejaVuSerif-30" transform="translate(0 0.78125)"/>
       <use xlink:href="#DejaVuSerif-2e" transform="translate(63.623047 0.78125)"/>
       <use xlink:href="#DejaVuSerif-30" transform="translate(95.410156 0.78125)"/>
      </g>
     </g>
    </g>
    <g id="ytick_2">
     <g id="line2d_14">
      <g>
       <use xlink:href="#mcd65286673" x="61.859353" y="198.33263" style="stroke: #000000; stroke-width: 0.5"/>
      </g>
     </g>
     <g id="line2d_15">
      <g>
       <use xlink:href="#mb04a12dbd9" x="429.165354" y="198.33263" style="stroke: #000000; stroke-width: 0.5"/>
      </g>
     </g>
     <g id="text_8">
      <!-- $0.1$ -->
      <g transform="translate(32.759353 204.41138) scale(0.16 -0.16)">
       <use xlink:href="#DejaVuSerif-30" transform="translate(0 0.78125)"/>
       <use xlink:href="#DejaVuSerif-2e" transform="translate(63.623047 0.78125)"/>
       <use xlink:href="#DejaVuSerif-31" transform="translate(95.410156 0.78125)"/>
      </g>
     </g>
    </g>
    <g id="ytick_3">
     <g id="line2d_16">
      <g>
       <use xlink:href="#mcd65286673" x="61.859353" y="163.469453" style="stroke: #000000; stroke-width: 0.5"/>
      </g>
     </g>
     <g id="line2d_17">
      <g>
       <use xlink:href="#mb04a12dbd9" x="429.165354" y="163.469453" style="stroke: #000000; stroke-width: 0.5"/>
      </g>
     </g>
     <g id="text_9">
      <!-- $0.2$ -->
      <g transform="translate(33.239353 169.548203) scale(0.16 -0.16)">
       <use xlink:href="#DejaVuSerif-30" transform="translate(0 0.78125)"/>
       <use xlink:href="#DejaVuSerif-2e" transform="translate(63.623047 0.78125)"/>
       <use xlink:href="#DejaVuSerif-32" transform="translate(92.785156 0.78125)"/>
      </g>
     </g>
    </g>
    <g id="ytick_4">
     <g id="line2d_18">
      <g>
       <use xlink:href="#mcd65286673" x="61.859353" y="128.606277" style="stroke: #000000; stroke-width: 0.5"/>
      </g>
     </g>
     <g id="line2d_19">
      <g>
       <use xlink:href="#mb04a12dbd9" x="429.165354" y="128.606277" style="stroke: #000000; stroke-width: 0.5"/>
      </g>
     </g>
     <g id="text_10">
      <!-- $0.3$ -->
      <g transform="translate(32.759353 134.685027) scale(0.16 -0.16)">
       <defs>
        <path id="DejaVuSerif-33" d="M 622 4469 
Q 988 4606 1323 4678 
Q 1659 4750 1953 4750 
Q 2638 4750 3022 4454 
Q 3406 4159 3406 3634 
Q 3406 3213 3140 2930 
Q 2875 2647 2388 2547 
Q 2963 2466 3280 2130 
Q 3597 1794 3597 1259 
Q 3597 606 3158 257 
Q 2719 -91 1894 -91 
Q 1528 -91 1179 -12 
Q 831 66 488 225 
L 488 1131 
L 838 1131 
Q 869 681 1141 450 
Q 1413 219 1906 219 
Q 2384 219 2661 495 
Q 2938 772 2938 1253 
Q 2938 1803 2653 2086 
Q 2369 2369 1819 2369 
L 1522 2369 
L 1522 2688 
L 1678 2688 
Q 2225 2688 2498 2914 
Q 2772 3141 2772 3597 
Q 2772 4006 2547 4223 
Q 2322 4441 1900 4441 
Q 1478 4441 1245 4241 
Q 1013 4041 972 3647 
L 622 3647 
L 622 4469 
z
" transform="scale(0.015625)"/>
       </defs>
       <use xlink:href="#DejaVuSerif-30" transform="translate(0 0.78125)"/>
       <use xlink:href="#DejaVuSerif-2e" transform="translate(63.623047 0.78125)"/>
       <use xlink:href="#DejaVuSerif-33" transform="translate(95.410156 0.78125)"/>
      </g>
     </g>
    </g>
    <g id="ytick_5">
     <g id="line2d_20">
      <g>
       <use xlink:href="#mcd65286673" x="61.859353" y="93.743101" style="stroke: #000000; stroke-width: 0.5"/>
      </g>
     </g>
     <g id="line2d_21">
      <g>
       <use xlink:href="#mb04a12dbd9" x="429.165354" y="93.743101" style="stroke: #000000; stroke-width: 0.5"/>
      </g>
     </g>
     <g id="text_11">
      <!-- $0.4$ -->
      <g transform="translate(32.759353 99.821851) scale(0.16 -0.16)">
       <defs>
        <path id="DejaVuSerif-34" d="M 2234 1581 
L 2234 4063 
L 641 1581 
L 2234 1581 
z
M 3609 0 
L 1484 0 
L 1484 331 
L 2234 331 
L 2234 1247 
L 197 1247 
L 197 1588 
L 2241 4750 
L 2859 4750 
L 2859 1581 
L 3750 1581 
L 3750 1247 
L 2859 1247 
L 2859 331 
L 3609 331 
L 3609 0 
z
" transform="scale(0.015625)"/>
       </defs>
       <use xlink:href="#DejaVuSerif-30" transform="translate(0 0.78125)"/>
       <use xlink:href="#DejaVuSerif-2e" transform="translate(63.623047 0.78125)"/>
       <use xlink:href="#DejaVuSerif-34" transform="translate(95.410156 0.78125)"/>
      </g>
     </g>
    </g>
    <g id="ytick_6">
     <g id="line2d_22">
      <g>
       <use xlink:href="#mcd65286673" x="61.859353" y="58.879925" style="stroke: #000000; stroke-width: 0.5"/>
      </g>
     </g>
     <g id="line2d_23">
      <g>
       <use xlink:href="#mb04a12dbd9" x="429.165354" y="58.879925" style="stroke: #000000; stroke-width: 0.5"/>
      </g>
     </g>
     <g id="text_12">
      <!-- $0.5$ -->
      <g transform="translate(32.759353 64.958675) scale(0.16 -0.16)">
       <use xlink:href="#DejaVuSerif-30" transform="translate(0 0.78125)"/>
       <use xlink:href="#DejaVuSerif-2e" transform="translate(63.623047 0.78125)"/>
       <use xlink:href="#DejaVuSerif-35" transform="translate(95.410156 0.78125)"/>
      </g>
     </g>
    </g>
    <g id="ytick_7">
     <g id="line2d_24">
      <g>
       <use xlink:href="#mcd65286673" x="61.859353" y="24.016748" style="stroke: #000000; stroke-width: 0.5"/>
      </g>
     </g>
     <g id="line2d_25">
      <g>
       <use xlink:href="#mb04a12dbd9" x="429.165354" y="24.016748" style="stroke: #000000; stroke-width: 0.5"/>
      </g>
     </g>
     <g id="text_13">
      <!-- $0.6$ -->
      <g transform="translate(32.759353 30.095498) scale(0.16 -0.16)">
       <defs>
        <path id="DejaVuSerif-36" d="M 2094 219 
Q 2534 219 2771 542 
Q 3009 866 3009 1472 
Q 3009 2078 2771 2401 
Q 2534 2725 2094 2725 
Q 1647 2725 1412 2412 
Q 1178 2100 1178 1509 
Q 1178 888 1415 553 
Q 1653 219 2094 219 
z
M 1075 2569 
Q 1288 2803 1556 2918 
Q 1825 3034 2163 3034 
Q 2859 3034 3264 2615 
Q 3669 2197 3669 1472 
Q 3669 763 3233 336 
Q 2797 -91 2069 -91 
Q 1278 -91 853 498 
Q 428 1088 428 2181 
Q 428 3406 931 4078 
Q 1434 4750 2350 4750 
Q 2597 4750 2869 4703 
Q 3141 4656 3425 4563 
L 3425 3794 
L 3072 3794 
Q 3034 4109 2831 4275 
Q 2628 4441 2284 4441 
Q 1678 4441 1381 3981 
Q 1084 3522 1075 2569 
z
" transform="scale(0.015625)"/>
       </defs>
       <use xlink:href="#DejaVuSerif-30" transform="translate(0 0.78125)"/>
       <use xlink:href="#DejaVuSerif-2e" transform="translate(63.623047 0.78125)"/>
       <use xlink:href="#DejaVuSerif-36" transform="translate(95.410156 0.78125)"/>
      </g>
     </g>
    </g>
    <g id="text_14">
     <!-- $p(\sqrt{\lambda})$ -->
     <g transform="translate(25.399353 144.81) rotate(-90) scale(0.16 -0.16)">
      <defs>
       <path id="DejaVuSerif-Italic-70" d="M 1466 1825 
L 1400 1497 
Q 1353 1250 1353 1053 
Q 1353 769 1453 581 
Q 1622 269 2059 269 
Q 2500 269 2795 622 
Q 3091 975 3225 1663 
Q 3284 1978 3284 2225 
Q 3284 2513 3200 2703 
Q 3041 3053 2600 3053 
Q 2163 3053 1872 2737 
Q 1581 2422 1466 1825 
z
M 1116 2988 
L 563 2988 
L 628 3322 
L 1756 3322 
L 1656 2803 
Q 1884 3116 2175 3264 
Q 2466 3413 2850 3413 
Q 3463 3413 3753 2928 
Q 3947 2609 3947 2163 
Q 3947 1928 3897 1663 
Q 3744 881 3262 395 
Q 2781 -91 2169 -91 
Q 1784 -91 1551 57 
Q 1319 206 1213 519 
L 850 -1331 
L 275 -1331 
L 1116 2988 
z
" transform="scale(0.015625)"/>
       <path id="DejaVuSerif-28" d="M 2041 -997 
Q 1281 -656 893 83 
Q 506 822 506 1931 
Q 506 3044 893 3783 
Q 1281 4522 2041 4863 
L 2041 4556 
Q 1559 4225 1350 3623 
Q 1141 3022 1141 1931 
Q 1141 844 1350 242 
Q 1559 -359 2041 -691 
L 2041 -997 
z
" transform="scale(0.015625)"/>
       <path id="DejaVuSerif-29" d="M 453 -997 
L 453 -691 
Q 934 -359 1145 242 
Q 1356 844 1356 1931 
Q 1356 3022 1145 3623 
Q 934 4225 453 4556 
L 453 4863 
Q 1216 4522 1603 3783 
Q 1991 3044 1991 1931 
Q 1991 822 1603 83 
Q 1216 -656 453 -997 
z
" transform="scale(0.015625)"/>
      </defs>
      <use xlink:href="#DejaVuSerif-Italic-70" transform="translate(0 0.875)"/>
      <use xlink:href="#DejaVuSerif-28" transform="translate(64.013672 0.875)"/>
      <use xlink:href="#STIXSizeOneSym-Regular-221a" transform="translate(103.027344 17.984375) scale(0.583453)"/>
      <use xlink:href="#DejaVuSerif-Italic-3bb" transform="translate(177.229706 1.234375)"/>
      <use xlink:href="#DejaVuSerif-29" transform="translate(253.108612 0.875)"/>
      <path d="M 164.729706 101.5 
L 164.729706 107.75 
L 253.108612 107.75 
L 253.108612 101.5 
L 164.729706 101.5 
z
"/>
     </g>
    </g>
   </g>
   <g id="line2d_26">
    <path d="M 75.154717 10.67463 
L 81.052843 11.673282 
L 86.950969 11.494952 
L 92.849095 11.280955 
L 98.747221 12.172609 
L 104.645346 12.422272 
L 110.543472 13.242594 
L 116.441598 12.957264 
L 122.339724 14.098581 
L 128.237849 14.704906 
L 134.135975 15.382563 
L 140.034101 16.916208 
L 145.932227 17.130205 
L 151.830353 18.342854 
L 157.728478 19.912166 
L 163.626604 20.768153 
L 169.52473 21.766806 
L 175.422856 23.657112 
L 181.320981 24.441768 
L 187.219107 26.902733 
L 193.117233 27.509058 
L 199.015359 30.362351 
L 204.913484 31.432335 
L 210.81161 33.964633 
L 216.709736 35.426945 
L 222.607862 38.244572 
L 228.505988 39.956548 
L 234.404113 43.380499 
L 240.302239 45.199473 
L 246.200365 47.55344 
L 252.098491 50.192736 
L 257.996616 54.401343 
L 263.894742 56.398648 
L 269.792868 59.323273 
L 275.690994 63.603212 
L 281.58912 66.741834 
L 287.487245 70.950441 
L 293.385371 74.196062 
L 299.283497 79.117992 
L 305.181623 83.183934 
L 311.079748 87.142878 
L 316.977874 92.706799 
L 322.876 98.128056 
L 328.774126 103.335315 
L 334.672252 109.576893 
L 340.570377 115.033816 
L 346.468503 123.272699 
L 352.366629 129.799606 
L 358.264755 138.50215 
L 364.16288 147.704019 
L 370.061006 158.582198 
L 375.959132 171.636013 
L 381.857258 187.971114 
L 387.755384 218.430015 
L 393.653509 233.195806 
L 399.551635 233.195806 
L 405.449761 233.195806 
L 411.347887 233.195806 
L 417.246012 233.195806 
" clip-path="url(#pef92129968)" style="fill: none; stroke: #dd8452; stroke-width: 5"/>
   </g>
   <g id="patch_3">
    <path d="M 61.859353 239.905354 
L 61.859353 2.834646 
" style="fill: none; stroke: #000000; stroke-linejoin: miter; stroke-linecap: square"/>
   </g>
   <g id="patch_4">
    <path d="M 429.165354 239.905354 
L 429.165354 2.834646 
" style="fill: none; stroke: #000000; stroke-linejoin: miter; stroke-linecap: square"/>
   </g>
   <g id="patch_5">
    <path d="M 61.859353 239.905354 
L 429.165354 239.905354 
" style="fill: none; stroke: #000000; stroke-linejoin: miter; stroke-linecap: square"/>
   </g>
   <g id="patch_6">
    <path d="M 61.859353 2.834646 
L 429.165354 2.834646 
" style="fill: none; stroke: #000000; stroke-linejoin: miter; stroke-linecap: square"/>
   </g>
   <g id="line2d_27">
    <path d="M 75.154717 10.603298 
L 81.052843 11.60195 
L 86.950969 11.102624 
L 92.849095 10.995625 
L 98.747221 12.564936 
L 104.645346 12.707601 
L 110.543472 12.671935 
L 116.441598 13.527923 
L 122.339724 14.954569 
L 128.237849 14.276912 
L 134.135975 15.59656 
L 140.034101 15.489562 
L 145.932227 17.522533 
L 151.830353 18.307188 
L 157.728478 20.090496 
L 163.626604 20.839486 
L 169.52473 22.373131 
L 175.422856 22.836791 
L 181.320981 25.618751 
L 187.219107 25.26209 
L 193.117233 28.50771 
L 199.015359 30.291018 
L 204.913484 31.753331 
L 210.81161 33.465307 
L 216.709736 35.676609 
L 222.607862 38.672566 
L 228.505988 40.277543 
L 234.404113 42.667176 
L 240.302239 45.306472 
L 246.200365 48.0171 
L 252.098491 50.264068 
L 257.996616 54.116014 
L 263.894742 56.505646 
L 269.792868 60.179261 
L 275.690994 63.353549 
L 281.58912 66.492171 
L 287.487245 70.629446 
L 293.385371 74.30306 
L 299.283497 78.583 
L 305.181623 83.362265 
L 311.079748 87.178544 
L 316.977874 92.778132 
L 322.876 97.307734 
L 328.774126 104.262635 
L 334.672252 109.148899 
L 340.570377 115.996802 
L 346.468503 122.345379 
L 352.366629 130.655594 
L 358.264755 138.038489 
L 364.16288 148.239011 
L 370.061006 158.974526 
L 375.959132 171.743011 
L 381.857258 189.076765 
L 387.755384 216.397044 
L 393.653509 232.589481 
L 399.551635 233.195806 
L 405.449761 233.195806 
L 411.347887 233.195806 
L 417.246012 233.195806 
" clip-path="url(#pef92129968)" style="fill: none; stroke: #55a868; stroke-width: 5"/>
   </g>
   <g id="line2d_28">
    <path d="M 73.704761 9.975815 
L 76.629042 11.342615 
L 79.553323 10.910994 
L 82.477604 12.34973 
L 85.401885 11.198741 
L 88.326166 11.774236 
L 91.250447 11.774236 
L 94.174727 12.34973 
L 97.099008 11.054868 
L 100.023289 12.061983 
L 102.94757 13.284909 
L 105.871851 12.421667 
L 108.796132 12.709415 
L 111.720413 12.13392 
L 114.644693 13.284909 
L 117.568974 13.932341 
L 120.493255 13.50072 
L 123.417536 13.932341 
L 126.341817 15.08333 
L 129.266098 15.514951 
L 132.190378 15.08333 
L 135.114659 15.011393 
L 138.03894 17.097561 
L 140.963221 16.306256 
L 143.887502 16.45013 
L 146.811783 18.248551 
L 149.736064 17.960803 
L 152.660344 18.680172 
L 155.584625 19.615351 
L 158.508906 19.831161 
L 161.433187 20.262782 
L 164.357468 20.046972 
L 167.281749 22.564761 
L 170.206029 21.773456 
L 173.13031 22.924445 
L 176.054591 23.428003 
L 178.978872 24.507055 
L 181.903153 24.147371 
L 184.827434 25.370297 
L 187.751715 27.312592 
L 190.675995 27.168718 
L 193.600276 29.111012 
L 196.524557 28.895202 
L 199.448838 29.61457 
L 202.373119 31.772675 
L 205.2974 31.484928 
L 208.22168 31.772675 
L 211.145961 34.722085 
L 214.070242 34.578212 
L 216.994523 35.513391 
L 219.918804 36.66438 
L 222.843085 38.03118 
L 225.767366 38.678611 
L 228.691646 40.908653 
L 231.615927 41.412211 
L 234.540208 42.922884 
L 237.464489 43.570316 
L 240.38877 44.937116 
L 243.313051 47.958463 
L 246.237331 47.382968 
L 249.161612 49.037515 
L 252.085893 49.972694 
L 255.010174 51.123683 
L 257.934455 54.216967 
L 260.858736 55.367956 
L 263.783017 56.590882 
L 266.707297 57.454124 
L 269.631578 60.619345 
L 272.555859 60.763219 
L 275.48014 62.993261 
L 278.404421 65.079429 
L 281.328702 67.381407 
L 284.252982 68.604333 
L 287.177263 69.179828 
L 290.101544 72.345049 
L 293.025825 73.208291 
L 295.950106 77.020943 
L 298.874387 78.459679 
L 301.798668 80.977469 
L 304.722948 82.703953 
L 307.647229 84.718184 
L 310.57151 87.379847 
L 313.495791 89.322141 
L 316.420072 92.055741 
L 319.344353 94.57353 
L 322.268634 97.235193 
L 325.192914 99.896856 
L 328.117195 102.126897 
L 331.041476 105.292118 
L 333.965757 108.960896 
L 336.890038 111.766433 
L 339.814319 115.651022 
L 342.738599 117.449443 
L 345.66288 121.405968 
L 348.587161 125.650242 
L 351.511442 128.599652 
L 354.435723 132.484241 
L 357.360004 136.728514 
L 360.284285 141.692155 
L 363.208565 146.368049 
L 366.132846 151.11588 
L 369.057127 155.863711 
L 371.981408 162.266089 
L 374.905689 168.59653 
L 377.82997 176.365708 
L 380.75425 184.998128 
L 383.678531 194.565727 
L 386.602812 208.881157 
L 389.527093 231.109638 
L 392.451374 233.195806 
L 395.375655 233.195806 
L 398.299936 233.195806 
L 401.224216 233.195806 
L 404.148497 233.195806 
L 407.072778 233.195806 
L 409.997059 233.195806 
L 412.92134 233.195806 
L 415.845621 233.195806 
L 418.769901 233.195806 
" clip-path="url(#pef92129968)" style="fill: none; stroke: #c44e52; stroke-width: 5"/>
   </g>
   <g id="line2d_29">
    <path d="M 73.704761 9.544194 
L 76.629042 11.414552 
L 79.553323 10.623247 
L 82.477604 12.925225 
L 85.401885 10.55131 
L 88.326166 10.695183 
L 91.250447 11.990046 
L 94.174727 11.486489 
L 97.099008 11.198741 
L 100.023289 13.644593 
L 102.94757 11.270678 
L 105.871851 12.997162 
L 108.796132 12.637478 
L 111.720413 13.932341 
L 114.644693 13.069099 
L 117.568974 14.004278 
L 120.493255 13.428783 
L 123.417536 13.860404 
L 126.341817 14.148151 
L 129.266098 15.155267 
L 132.190378 15.155267 
L 135.114659 16.378193 
L 138.03894 16.306256 
L 140.963221 17.744993 
L 143.887502 16.737877 
L 146.811783 16.018509 
L 149.736064 18.536298 
L 152.660344 19.255666 
L 155.584625 18.176614 
L 158.508906 21.054087 
L 161.433187 18.392424 
L 164.357468 21.126024 
L 167.281749 21.845392 
L 170.206029 21.126024 
L 173.13031 23.71575 
L 176.054591 22.996382 
L 178.978872 24.435118 
L 181.903153 25.010613 
L 184.827434 27.024844 
L 187.751715 26.161602 
L 190.675995 27.960023 
L 193.600276 28.03196 
L 196.524557 29.182949 
L 199.448838 29.758444 
L 202.373119 31.197181 
L 205.2974 31.197181 
L 208.22168 33.067538 
L 211.145961 34.218528 
L 214.070242 34.002717 
L 216.994523 37.167938 
L 219.918804 36.160822 
L 222.843085 38.606674 
L 225.767366 38.318927 
L 228.691646 40.477032 
L 231.615927 40.261221 
L 234.540208 44.217747 
L 237.464489 42.850947 
L 240.38877 45.368737 
L 243.313051 47.311031 
L 246.237331 48.030399 
L 249.161612 49.756883 
L 252.085893 50.692062 
L 255.010174 52.274672 
L 257.934455 51.986925 
L 260.858736 55.72764 
L 263.783017 56.375072 
L 266.707297 57.669935 
L 269.631578 59.396419 
L 272.555859 62.849387 
L 275.48014 61.914208 
L 278.404421 65.079429 
L 281.328702 65.870734 
L 284.252982 68.964018 
L 287.177263 70.762438 
L 290.101544 72.273112 
L 293.025825 74.718964 
L 295.950106 75.078648 
L 298.874387 78.099995 
L 301.798668 81.768774 
L 304.722948 82.560079 
L 307.647229 85.149805 
L 310.57151 87.30791 
L 313.495791 88.602773 
L 316.420072 93.278667 
L 319.344353 94.213846 
L 322.268634 96.659698 
L 325.192914 100.47235 
L 328.117195 103.062076 
L 331.041476 105.364055 
L 333.965757 108.457339 
L 336.890038 111.982243 
L 339.814319 113.636791 
L 342.738599 119.032053 
L 345.66288 121.549842 
L 348.587161 124.211505 
L 351.511442 129.966451 
L 354.435723 133.347483 
L 357.360004 136.944324 
L 360.284285 141.476345 
L 363.208565 146.008365 
L 366.132846 150.90007 
L 369.057127 157.302448 
L 371.981408 162.553837 
L 374.905689 169.315899 
L 377.82997 177.01314 
L 380.75425 184.062949 
L 383.678531 196.651895 
L 386.602812 211.614756 
L 389.527093 223.844018 
L 392.451374 232.764185 
L 395.375655 233.195806 
L 398.299936 233.195806 
L 401.224216 233.195806 
L 404.148497 233.195806 
L 407.072778 233.195806 
L 409.997059 233.195806 
L 412.92134 233.195806 
L 415.845621 233.195806 
L 418.769901 233.195806 
" clip-path="url(#pef92129968)" style="fill: none; stroke: #8172b3; stroke-width: 5"/>
   </g>
   <g id="line2d_30">
    <path d="M 72.254806 11.249932 
L 75.450301 11.261255 
L 78.645796 11.295228 
L 81.841291 11.351859 
L 85.036786 11.431168 
L 88.232281 11.533179 
L 91.427776 11.657922 
L 94.623272 11.805436 
L 97.818767 11.975767 
L 101.014262 12.168967 
L 104.209757 12.385097 
L 107.405252 12.624223 
L 110.600747 12.886422 
L 113.796242 13.171775 
L 116.991738 13.480372 
L 120.187233 13.812312 
L 123.382728 14.1677 
L 126.578223 14.546652 
L 129.773718 14.949289 
L 132.969213 15.375744 
L 136.164708 15.826156 
L 139.360204 16.300674 
L 142.555699 16.799457 
L 145.751194 17.322674 
L 148.946689 17.870503 
L 152.142184 18.443131 
L 155.337679 19.040757 
L 158.533174 19.663593 
L 161.72867 20.311858 
L 164.924165 20.985787 
L 168.11966 21.685623 
L 171.315155 22.411626 
L 174.51065 23.164066 
L 177.706145 23.94323 
L 180.90164 24.749415 
L 184.097135 25.582939 
L 187.292631 26.44413 
L 190.488126 27.333336 
L 193.683621 28.250922 
L 196.879116 29.197271 
L 200.074611 30.172785 
L 203.270106 31.177886 
L 206.465601 32.213019 
L 209.661097 33.278649 
L 212.856592 34.375268 
L 216.052087 35.503391 
L 219.247582 36.66356 
L 222.443077 37.856347 
L 225.638572 39.082353 
L 228.834067 40.34221 
L 232.029563 41.636588 
L 235.225058 42.966191 
L 238.420553 44.331763 
L 241.616048 45.734089 
L 244.811543 47.174002 
L 248.007038 48.65238 
L 251.202533 50.170156 
L 254.398029 51.728319 
L 257.593524 53.327918 
L 260.789019 54.970069 
L 263.984514 56.655959 
L 267.180009 58.386854 
L 270.375504 60.164104 
L 273.570999 61.989153 
L 276.766495 63.863546 
L 279.96199 65.788941 
L 283.157485 67.767119 
L 286.35298 69.799997 
L 289.548475 71.889642 
L 292.74397 74.038291 
L 295.939465 76.248368 
L 299.134961 78.522504 
L 302.330456 80.86357 
L 305.525951 83.2747 
L 308.721446 85.759332 
L 311.916941 88.321248 
L 315.112436 90.964623 
L 318.307931 93.694088 
L 321.503427 96.514802 
L 324.698922 99.432535 
L 327.894417 102.453784 
L 331.089912 105.585901 
L 334.285407 108.837262 
L 337.480902 112.217481 
L 340.676397 115.737683 
L 343.871893 119.410859 
L 347.067388 123.252341 
L 350.262883 127.280439 
L 353.458378 131.51733 
L 356.653873 135.990313 
L 359.849368 140.733645 
L 363.044863 145.79133 
L 366.240359 151.221531 
L 369.435854 157.10396 
L 372.631349 163.553116 
L 375.826844 170.744325 
L 379.022339 178.972023 
L 382.217834 188.808896 
L 385.413329 201.729556 
L 388.608824 233.195806 
" clip-path="url(#pef92129968)" style="fill: none; stroke-dasharray: 11.1,4.8; stroke-dashoffset: 0; stroke: #000000; stroke-width: 3"/>
   </g>
   <g id="legend_1">
    <g id="patch_7">
     <path d="M 328.138792 33.512771 
L 424.165354 33.512771 
L 424.165354 7.834646 
L 328.138792 7.834646 
z
" style="fill: #ffffff; stroke: #000000; stroke-linejoin: miter"/>
    </g>
    <g id="line2d_31">
     <path d="M 336.138792 19.933083 
L 346.138792 19.933083 
L 356.138792 19.933083 
" style="fill: none; stroke-dasharray: 4.625,2; stroke-dashoffset: 0; stroke: #000000; stroke-width: 1.25; stroke-linejoin: miter"/>
    </g>
    <g id="text_15">
     <!-- semicircle -->
     <g transform="translate(364.138792 23.433083) scale(0.1 -0.1)">
      <defs>
       <path id="DejaVuSerif-73" d="M 359 184 
L 359 959 
L 691 959 
Q 703 588 923 403 
Q 1144 219 1575 219 
Q 1963 219 2166 364 
Q 2369 509 2369 788 
Q 2369 1006 2220 1140 
Q 2072 1275 1594 1428 
L 1178 1569 
Q 750 1706 558 1912 
Q 366 2119 366 2438 
Q 366 2894 700 3153 
Q 1034 3413 1625 3413 
Q 1888 3413 2178 3344 
Q 2469 3275 2778 3144 
L 2778 2419 
L 2447 2419 
Q 2434 2741 2221 2922 
Q 2009 3103 1644 3103 
Q 1281 3103 1095 2975 
Q 909 2847 909 2591 
Q 909 2381 1050 2254 
Q 1191 2128 1613 1997 
L 2069 1856 
Q 2541 1709 2748 1489 
Q 2956 1269 2956 922 
Q 2956 450 2595 179 
Q 2234 -91 1600 -91 
Q 1278 -91 972 -22 
Q 666 47 359 184 
z
" transform="scale(0.015625)"/>
       <path id="DejaVuSerif-65" d="M 3469 1600 
L 991 1600 
L 991 1575 
Q 991 903 1244 561 
Q 1497 219 1991 219 
Q 2369 219 2611 417 
Q 2853 616 2950 1006 
L 3413 1006 
Q 3275 459 2904 184 
Q 2534 -91 1931 -91 
Q 1203 -91 761 389 
Q 319 869 319 1663 
Q 319 2450 753 2931 
Q 1188 3413 1894 3413 
Q 2647 3413 3050 2948 
Q 3453 2484 3469 1600 
z
M 2791 1931 
Q 2772 2513 2545 2808 
Q 2319 3103 1894 3103 
Q 1497 3103 1269 2806 
Q 1041 2509 991 1931 
L 2791 1931 
z
" transform="scale(0.015625)"/>
       <path id="DejaVuSerif-6d" d="M 3316 2675 
Q 3481 3041 3739 3227 
Q 3997 3413 4341 3413 
Q 4863 3413 5119 3089 
Q 5375 2766 5375 2113 
L 5375 331 
L 5894 331 
L 5894 0 
L 4300 0 
L 4300 331 
L 4800 331 
L 4800 2047 
Q 4800 2556 4650 2772 
Q 4500 2988 4153 2988 
Q 3769 2988 3567 2697 
Q 3366 2406 3366 1850 
L 3366 331 
L 3866 331 
L 3866 0 
L 2291 0 
L 2291 331 
L 2791 331 
L 2791 2069 
Q 2791 2566 2641 2777 
Q 2491 2988 2144 2988 
Q 1759 2988 1557 2697 
Q 1356 2406 1356 1850 
L 1356 331 
L 1856 331 
L 1856 0 
L 263 0 
L 263 331 
L 781 331 
L 781 2994 
L 231 2994 
L 231 3322 
L 1356 3322 
L 1356 2731 
Q 1516 3063 1762 3238 
Q 2009 3413 2322 3413 
Q 2709 3413 2968 3220 
Q 3228 3028 3316 2675 
z
" transform="scale(0.015625)"/>
       <path id="DejaVuSerif-69" d="M 622 4353 
Q 622 4497 726 4603 
Q 831 4709 978 4709 
Q 1122 4709 1226 4603 
Q 1331 4497 1331 4353 
Q 1331 4206 1228 4103 
Q 1125 4000 978 4000 
Q 831 4000 726 4103 
Q 622 4206 622 4353 
z
M 1356 331 
L 1900 331 
L 1900 0 
L 231 0 
L 231 331 
L 781 331 
L 781 2988 
L 231 2988 
L 231 3322 
L 1356 3322 
L 1356 331 
z
" transform="scale(0.015625)"/>
       <path id="DejaVuSerif-63" d="M 3291 997 
Q 3169 466 2822 187 
Q 2475 -91 1925 -91 
Q 1200 -91 759 389 
Q 319 869 319 1663 
Q 319 2459 759 2936 
Q 1200 3413 1925 3413 
Q 2241 3413 2553 3339 
Q 2866 3266 3181 3116 
L 3181 2266 
L 2847 2266 
Q 2781 2703 2561 2903 
Q 2341 3103 1931 3103 
Q 1466 3103 1228 2742 
Q 991 2381 991 1663 
Q 991 944 1227 581 
Q 1463 219 1931 219 
Q 2303 219 2525 412 
Q 2747 606 2828 997 
L 3291 997 
z
" transform="scale(0.015625)"/>
       <path id="DejaVuSerif-72" d="M 3059 3328 
L 3059 2497 
L 2728 2497 
Q 2713 2744 2591 2866 
Q 2469 2988 2234 2988 
Q 1809 2988 1582 2694 
Q 1356 2400 1356 1850 
L 1356 331 
L 2022 331 
L 2022 0 
L 263 0 
L 263 331 
L 781 331 
L 781 2994 
L 231 2994 
L 231 3322 
L 1356 3322 
L 1356 2731 
Q 1525 3078 1790 3245 
Q 2056 3413 2438 3413 
Q 2578 3413 2733 3391 
Q 2888 3369 3059 3328 
z
" transform="scale(0.015625)"/>
       <path id="DejaVuSerif-6c" d="M 1313 331 
L 1856 331 
L 1856 0 
L 184 0 
L 184 331 
L 738 331 
L 738 4531 
L 184 4531 
L 184 4863 
L 1313 4863 
L 1313 331 
z
" transform="scale(0.015625)"/>
      </defs>
      <use xlink:href="#DejaVuSerif-73"/>
      <use xlink:href="#DejaVuSerif-65" x="51.318359"/>
      <use xlink:href="#DejaVuSerif-6d" x="110.498047"/>
      <use xlink:href="#DejaVuSerif-69" x="205.322266"/>
      <use xlink:href="#DejaVuSerif-63" x="237.304688"/>
      <use xlink:href="#DejaVuSerif-69" x="293.310547"/>
      <use xlink:href="#DejaVuSerif-72" x="325.292969"/>
      <use xlink:href="#DejaVuSerif-63" x="373.095703"/>
      <use xlink:href="#DejaVuSerif-6c" x="429.101562"/>
      <use xlink:href="#DejaVuSerif-65" x="461.083984"/>
     </g>
    </g>
   </g>
  </g>
 </g>
 <defs>
  <clipPath id="pef92129968">
   <rect x="61.859353" y="2.834646" width="367.306002" height="237.070709"/>
  </clipPath>
 </defs>
</svg>
