<?xml version="1.0" encoding="utf-8" standalone="no"?>
<!DOCTYPE svg PUBLIC "-//W3C//DTD SVG 1.1//EN"
  "http://www.w3.org/Graphics/SVG/1.1/DTD/svg11.dtd">
<svg xmlns:xlink="http://www.w3.org/1999/xlink" width="432pt" height="288pt" viewBox="0 0 432 288" xmlns="http://www.w3.org/2000/svg" version="1.1">
 <metadata>
  <rdf:RDF xmlns:dc="http://purl.org/dc/elements/1.1/" xmlns:cc="http://creativecommons.org/ns#" xmlns:rdf="http://www.w3.org/1999/02/22-rdf-syntax-ns#">
   <cc:Work>
    <dc:type rdf:resource="http://purl.org/dc/dcmitype/StillImage"/>
    <dc:date>2025-06-07T10:31:24.475762</dc:date>
    <dc:format>image/svg+xml</dc:format>
    <dc:creator>
     <cc:Agent>
      <dc:title>Matplotlib v3.9.2, https://matplotlib.org/</dc:title>
     </cc:Agent>
    </dc:creator>
   </cc:Work>
  </rdf:RDF>
 </metadata>
 <defs>
  <style type="text/css">*{stroke-linejoin: round; stroke-linecap: butt}</style>
 </defs>
 <g id="figure_1">
  <g id="patch_1">
   <path d="M 0 288 
L 432 288 
L 432 0 
L 0 0 
z
" style="fill: #ffffff"/>
  </g>
  <g id="axes_1">
   <g id="patch_2">
    <path d="M 42.32112 254.625354 
L 429.165354 254.625354 
L 429.165354 2.834646 
L 42.32112 2.834646 
z
" style="fill: #ffffff"/>
   </g>
   <g id="line2d_1">
    <path d="M 53.269542 247.499202 
L 56.955879 244.304537 
L 60.642217 235.603973 
L 64.328554 222.693862 
L 68.014891 206.788115 
L 71.701228 188.978344 
L 75.387566 170.210456 
L 79.073903 151.274945 
L 82.76024 132.807876 
L 86.446578 115.299608 
L 90.132915 99.1086 
L 93.819252 84.47808 
L 97.505589 71.553827 
L 101.191927 60.401759 
L 104.878264 51.024447 
L 108.564601 43.375989 
L 112.250938 37.374969 
L 115.937276 32.915411 
L 119.623613 29.875785 
L 123.30995 28.126222 
L 126.996288 27.534116 
L 130.682625 27.968357 
L 134.368962 29.302401 
L 138.055299 31.416387 
L 141.741637 34.198507 
L 145.427974 37.545773 
L 149.114311 41.364339 
L 152.800649 45.569485 
L 156.486986 50.085363 
L 160.173323 54.844579 
L 163.85966 59.787669 
L 167.545998 64.862515 
L 171.232335 70.023735 
L 174.918672 75.23207 
L 178.605009 80.453785 
L 182.291347 85.660099 
L 185.977684 90.826645 
L 189.664021 95.932978 
L 193.350359 100.962108 
L 197.036696 105.900089 
L 200.723033 110.735635 
L 204.40937 115.459784 
L 208.095708 120.065589 
L 211.782045 124.547848 
L 215.468382 128.902862 
L 219.15472 133.128218 
L 222.841057 137.222604 
L 226.527394 141.185641 
L 230.213731 145.017736 
L 233.900069 148.719954 
L 237.586406 152.293911 
L 241.272743 155.74167 
L 244.959081 159.06566 
L 248.645418 162.268606 
L 252.331755 165.35346 
L 256.018092 168.323351 
L 259.70443 171.181537 
L 263.390767 173.931365 
L 267.077104 176.576237 
L 270.763441 179.119582 
L 274.449779 181.564832 
L 278.136116 183.9154 
L 281.822453 186.174666 
L 285.508791 188.34596 
L 289.195128 190.432551 
L 292.881465 192.437643 
L 296.567802 194.364359 
L 300.25414 196.215744 
L 303.940477 197.994755 
L 307.626814 199.704261 
L 311.313152 201.347039 
L 314.999489 202.925775 
L 318.685826 204.443063 
L 322.372163 205.901404 
L 326.058501 207.303208 
L 329.744838 208.650795 
L 333.431175 209.946398 
L 337.117512 211.192161 
L 340.80385 212.390143 
L 344.490187 213.542323 
L 348.176524 214.650598 
L 351.862862 215.716788 
L 355.549199 216.742636 
L 359.235536 217.729815 
L 362.921873 218.679926 
L 366.608211 219.594501 
L 370.294548 220.47501 
L 373.980885 221.322858 
L 377.667223 222.139391 
L 381.35356 222.925895 
L 385.039897 223.683603 
L 388.726234 224.413694 
L 392.412572 225.117295 
L 396.098909 225.795484 
L 399.785246 226.449295 
L 403.471583 227.079713 
L 407.157921 227.687683 
L 410.844258 228.274108 
L 414.530595 228.839853 
L 418.216933 229.385744 
" clip-path="url(#pcb575cb8d0)" style="fill: none; stroke: #4c72b0"/>
   </g>
   <g id="matplotlib.axis_1">
    <g id="xtick_1">
     <g id="line2d_2">
      <defs>
       <path id="m5db05fe588" d="M 0 0 
L 0 -2.5 
" style="stroke: #000000; stroke-width: 0.5"/>
      </defs>
      <g>
       <use xlink:href="#m5db05fe588" x="53.269542" y="254.625354" style="stroke: #000000; stroke-width: 0.5"/>
      </g>
     </g>
     <g id="line2d_3">
      <defs>
       <path id="m5e902ece8f" d="M 0 0 
L 0 2.5 
" style="stroke: #000000; stroke-width: 0.5"/>
      </defs>
      <g>
       <use xlink:href="#m5e902ece8f" x="53.269542" y="2.834646" style="stroke: #000000; stroke-width: 0.5"/>
      </g>
     </g>
     <g id="text_1">
      <!-- $0$ -->
      <g transform="translate(50.069542 265.723792) scale(0.1 -0.1)">
       <defs>
        <path id="DejaVuSerif-30" d="M 2034 219 
Q 2513 219 2750 744 
Q 2988 1269 2988 2328 
Q 2988 3391 2750 3916 
Q 2513 4441 2034 4441 
Q 1556 4441 1318 3916 
Q 1081 3391 1081 2328 
Q 1081 1269 1318 744 
Q 1556 219 2034 219 
z
M 2034 -91 
Q 1275 -91 848 546 
Q 422 1184 422 2328 
Q 422 3475 848 4112 
Q 1275 4750 2034 4750 
Q 2797 4750 3222 4112 
Q 3647 3475 3647 2328 
Q 3647 1184 3222 546 
Q 2797 -91 2034 -91 
z
" transform="scale(0.015625)"/>
       </defs>
       <use xlink:href="#DejaVuSerif-30" transform="translate(0 0.78125)"/>
      </g>
     </g>
    </g>
    <g id="xtick_2">
     <g id="line2d_4">
      <g>
       <use xlink:href="#m5db05fe588" x="174.918672" y="254.625354" style="stroke: #000000; stroke-width: 0.5"/>
      </g>
     </g>
     <g id="line2d_5">
      <g>
       <use xlink:href="#m5e902ece8f" x="174.918672" y="2.834646" style="stroke: #000000; stroke-width: 0.5"/>
      </g>
     </g>
     <g id="text_2">
      <!-- $1$ -->
      <g transform="translate(171.718672 265.723792) scale(0.1 -0.1)">
       <defs>
        <path id="DejaVuSerif-31" d="M 909 0 
L 909 331 
L 1722 331 
L 1722 4213 
L 781 3603 
L 781 4013 
L 1919 4750 
L 2350 4750 
L 2350 331 
L 3163 331 
L 3163 0 
L 909 0 
z
" transform="scale(0.015625)"/>
       </defs>
       <use xlink:href="#DejaVuSerif-31" transform="translate(0 0.78125)"/>
      </g>
     </g>
    </g>
    <g id="xtick_3">
     <g id="line2d_6">
      <g>
       <use xlink:href="#m5db05fe588" x="296.567802" y="254.625354" style="stroke: #000000; stroke-width: 0.5"/>
      </g>
     </g>
     <g id="line2d_7">
      <g>
       <use xlink:href="#m5e902ece8f" x="296.567802" y="2.834646" style="stroke: #000000; stroke-width: 0.5"/>
      </g>
     </g>
     <g id="text_3">
      <!-- $2$ -->
      <g transform="translate(293.367802 265.723792) scale(0.1 -0.1)">
       <defs>
        <path id="DejaVuSerif-32" d="M 819 3553 
L 469 3553 
L 469 4384 
Q 803 4563 1142 4656 
Q 1481 4750 1806 4750 
Q 2534 4750 2956 4397 
Q 3378 4044 3378 3438 
Q 3378 2753 2422 1800 
Q 2347 1728 2309 1691 
L 1131 513 
L 3078 513 
L 3078 1088 
L 3444 1088 
L 3444 0 
L 434 0 
L 434 341 
L 1850 1753 
Q 2319 2222 2519 2614 
Q 2719 3006 2719 3438 
Q 2719 3909 2473 4175 
Q 2228 4441 1797 4441 
Q 1350 4441 1106 4219 
Q 863 3997 819 3553 
z
" transform="scale(0.015625)"/>
       </defs>
       <use xlink:href="#DejaVuSerif-32" transform="translate(0 0.78125)"/>
      </g>
     </g>
    </g>
    <g id="xtick_4">
     <g id="line2d_8">
      <g>
       <use xlink:href="#m5db05fe588" x="418.216933" y="254.625354" style="stroke: #000000; stroke-width: 0.5"/>
      </g>
     </g>
     <g id="line2d_9">
      <g>
       <use xlink:href="#m5e902ece8f" x="418.216933" y="2.834646" style="stroke: #000000; stroke-width: 0.5"/>
      </g>
     </g>
     <g id="text_4">
      <!-- $3$ -->
      <g transform="translate(415.016933 265.723792) scale(0.1 -0.1)">
       <defs>
        <path id="DejaVuSerif-33" d="M 622 4469 
Q 988 4606 1323 4678 
Q 1659 4750 1953 4750 
Q 2638 4750 3022 4454 
Q 3406 4159 3406 3634 
Q 3406 3213 3140 2930 
Q 2875 2647 2388 2547 
Q 2963 2466 3280 2130 
Q 3597 1794 3597 1259 
Q 3597 606 3158 257 
Q 2719 -91 1894 -91 
Q 1528 -91 1179 -12 
Q 831 66 488 225 
L 488 1131 
L 838 1131 
Q 869 681 1141 450 
Q 1413 219 1906 219 
Q 2384 219 2661 495 
Q 2938 772 2938 1253 
Q 2938 1803 2653 2086 
Q 2369 2369 1819 2369 
L 1522 2369 
L 1522 2688 
L 1678 2688 
Q 2225 2688 2498 2914 
Q 2772 3141 2772 3597 
Q 2772 4006 2547 4223 
Q 2322 4441 1900 4441 
Q 1478 4441 1245 4241 
Q 1013 4041 972 3647 
L 622 3647 
L 622 4469 
z
" transform="scale(0.015625)"/>
       </defs>
       <use xlink:href="#DejaVuSerif-33" transform="translate(0 0.78125)"/>
      </g>
     </g>
    </g>
    <g id="text_5">
     <!-- $r$ -->
     <g transform="translate(232.863237 280.921604) scale(0.12 -0.12)">
      <defs>
       <path id="DejaVuSerif-Italic-72" d="M 3375 3328 
L 3213 2497 
L 2881 2497 
Q 2891 2559 2891 2613 
Q 2891 2775 2816 2866 
Q 2719 2988 2484 2988 
Q 2059 2988 1775 2694 
Q 1491 2400 1384 1850 
L 1025 0 
L 450 0 
L 1031 2994 
L 481 2994 
L 544 3322 
L 1669 3322 
L 1556 2731 
Q 1791 3078 2089 3245 
Q 2388 3413 2769 3413 
Q 2909 3413 3059 3391 
Q 3209 3369 3375 3328 
z
" transform="scale(0.015625)"/>
      </defs>
      <use xlink:href="#DejaVuSerif-Italic-72" transform="translate(0 0.671875)"/>
     </g>
    </g>
   </g>
   <g id="matplotlib.axis_2">
    <g id="ytick_1">
     <g id="line2d_10">
      <defs>
       <path id="m4b49d60213" d="M 0 0 
L 2.5 0 
" style="stroke: #000000; stroke-width: 0.5"/>
      </defs>
      <g>
       <use xlink:href="#m4b49d60213" x="42.32112" y="247.499202" style="stroke: #000000; stroke-width: 0.5"/>
      </g>
     </g>
     <g id="line2d_11">
      <defs>
       <path id="m7d60f3c2bc" d="M 0 0 
L -2.5 0 
" style="stroke: #000000; stroke-width: 0.5"/>
      </defs>
      <g>
       <use xlink:href="#m7d60f3c2bc" x="429.165354" y="247.499202" style="stroke: #000000; stroke-width: 0.5"/>
      </g>
     </g>
     <g id="text_6">
      <!-- $0.0$ -->
      <g transform="translate(22.82112 251.298421) scale(0.1 -0.1)">
       <defs>
        <path id="DejaVuSerif-2e" d="M 603 325 
Q 603 500 722 622 
Q 841 744 1019 744 
Q 1191 744 1312 622 
Q 1434 500 1434 325 
Q 1434 153 1312 31 
Q 1191 -91 1019 -91 
Q 841 -91 722 29 
Q 603 150 603 325 
z
" transform="scale(0.015625)"/>
       </defs>
       <use xlink:href="#DejaVuSerif-30" transform="translate(0 0.78125)"/>
       <use xlink:href="#DejaVuSerif-2e" transform="translate(63.623047 0.78125)"/>
       <use xlink:href="#DejaVuSerif-30" transform="translate(95.410156 0.78125)"/>
      </g>
     </g>
    </g>
    <g id="ytick_2">
     <g id="line2d_12">
      <g>
       <use xlink:href="#m4b49d60213" x="42.32112" y="184.155628" style="stroke: #000000; stroke-width: 0.5"/>
      </g>
     </g>
     <g id="line2d_13">
      <g>
       <use xlink:href="#m7d60f3c2bc" x="429.165354" y="184.155628" style="stroke: #000000; stroke-width: 0.5"/>
      </g>
     </g>
     <g id="text_7">
      <!-- $0.2$ -->
      <g transform="translate(23.12112 187.954846) scale(0.1 -0.1)">
       <use xlink:href="#DejaVuSerif-30" transform="translate(0 0.78125)"/>
       <use xlink:href="#DejaVuSerif-2e" transform="translate(63.623047 0.78125)"/>
       <use xlink:href="#DejaVuSerif-32" transform="translate(92.785156 0.78125)"/>
      </g>
     </g>
    </g>
    <g id="ytick_3">
     <g id="line2d_14">
      <g>
       <use xlink:href="#m4b49d60213" x="42.32112" y="120.812053" style="stroke: #000000; stroke-width: 0.5"/>
      </g>
     </g>
     <g id="line2d_15">
      <g>
       <use xlink:href="#m7d60f3c2bc" x="429.165354" y="120.812053" style="stroke: #000000; stroke-width: 0.5"/>
      </g>
     </g>
     <g id="text_8">
      <!-- $0.4$ -->
      <g transform="translate(22.82112 124.611272) scale(0.1 -0.1)">
       <defs>
        <path id="DejaVuSerif-34" d="M 2234 1581 
L 2234 4063 
L 641 1581 
L 2234 1581 
z
M 3609 0 
L 1484 0 
L 1484 331 
L 2234 331 
L 2234 1247 
L 197 1247 
L 197 1588 
L 2241 4750 
L 2859 4750 
L 2859 1581 
L 3750 1581 
L 3750 1247 
L 2859 1247 
L 2859 331 
L 3609 331 
L 3609 0 
z
" transform="scale(0.015625)"/>
       </defs>
       <use xlink:href="#DejaVuSerif-30" transform="translate(0 0.78125)"/>
       <use xlink:href="#DejaVuSerif-2e" transform="translate(63.623047 0.78125)"/>
       <use xlink:href="#DejaVuSerif-34" transform="translate(95.410156 0.78125)"/>
      </g>
     </g>
    </g>
    <g id="ytick_4">
     <g id="line2d_16">
      <g>
       <use xlink:href="#m4b49d60213" x="42.32112" y="57.468479" style="stroke: #000000; stroke-width: 0.5"/>
      </g>
     </g>
     <g id="line2d_17">
      <g>
       <use xlink:href="#m7d60f3c2bc" x="429.165354" y="57.468479" style="stroke: #000000; stroke-width: 0.5"/>
      </g>
     </g>
     <g id="text_9">
      <!-- $0.6$ -->
      <g transform="translate(22.82112 61.267697) scale(0.1 -0.1)">
       <defs>
        <path id="DejaVuSerif-36" d="M 2094 219 
Q 2534 219 2771 542 
Q 3009 866 3009 1472 
Q 3009 2078 2771 2401 
Q 2534 2725 2094 2725 
Q 1647 2725 1412 2412 
Q 1178 2100 1178 1509 
Q 1178 888 1415 553 
Q 1653 219 2094 219 
z
M 1075 2569 
Q 1288 2803 1556 2918 
Q 1825 3034 2163 3034 
Q 2859 3034 3264 2615 
Q 3669 2197 3669 1472 
Q 3669 763 3233 336 
Q 2797 -91 2069 -91 
Q 1278 -91 853 498 
Q 428 1088 428 2181 
Q 428 3406 931 4078 
Q 1434 4750 2350 4750 
Q 2597 4750 2869 4703 
Q 3141 4656 3425 4563 
L 3425 3794 
L 3072 3794 
Q 3034 4109 2831 4275 
Q 2628 4441 2284 4441 
Q 1678 4441 1381 3981 
Q 1084 3522 1075 2569 
z
" transform="scale(0.015625)"/>
       </defs>
       <use xlink:href="#DejaVuSerif-30" transform="translate(0 0.78125)"/>
       <use xlink:href="#DejaVuSerif-2e" transform="translate(63.623047 0.78125)"/>
       <use xlink:href="#DejaVuSerif-36" transform="translate(95.410156 0.78125)"/>
      </g>
     </g>
    </g>
    <g id="text_10">
     <!-- $p(r)$ -->
     <g transform="translate(16.30112 140.13) rotate(-90) scale(0.12 -0.12)">
      <defs>
       <path id="DejaVuSerif-Italic-70" d="M 1466 1825 
L 1400 1497 
Q 1353 1250 1353 1053 
Q 1353 769 1453 581 
Q 1622 269 2059 269 
Q 2500 269 2795 622 
Q 3091 975 3225 1663 
Q 3284 1978 3284 2225 
Q 3284 2513 3200 2703 
Q 3041 3053 2600 3053 
Q 2163 3053 1872 2737 
Q 1581 2422 1466 1825 
z
M 1116 2988 
L 563 2988 
L 628 3322 
L 1756 3322 
L 1656 2803 
Q 1884 3116 2175 3264 
Q 2466 3413 2850 3413 
Q 3463 3413 3753 2928 
Q 3947 2609 3947 2163 
Q 3947 1928 3897 1663 
Q 3744 881 3262 395 
Q 2781 -91 2169 -91 
Q 1784 -91 1551 57 
Q 1319 206 1213 519 
L 850 -1331 
L 275 -1331 
L 1116 2988 
z
" transform="scale(0.015625)"/>
       <path id="DejaVuSerif-28" d="M 2041 -997 
Q 1281 -656 893 83 
Q 506 822 506 1931 
Q 506 3044 893 3783 
Q 1281 4522 2041 4863 
L 2041 4556 
Q 1559 4225 1350 3623 
Q 1141 3022 1141 1931 
Q 1141 844 1350 242 
Q 1559 -359 2041 -691 
L 2041 -997 
z
" transform="scale(0.015625)"/>
       <path id="DejaVuSerif-29" d="M 453 -997 
L 453 -691 
Q 934 -359 1145 242 
Q 1356 844 1356 1931 
Q 1356 3022 1145 3623 
Q 934 4225 453 4556 
L 453 4863 
Q 1216 4522 1603 3783 
Q 1991 3044 1991 1931 
Q 1991 822 1603 83 
Q 1216 -656 453 -997 
z
" transform="scale(0.015625)"/>
      </defs>
      <use xlink:href="#DejaVuSerif-Italic-70" transform="translate(0 0.015625)"/>
      <use xlink:href="#DejaVuSerif-28" transform="translate(64.013672 0.015625)"/>
      <use xlink:href="#DejaVuSerif-Italic-72" transform="translate(103.027344 0.015625)"/>
      <use xlink:href="#DejaVuSerif-29" transform="translate(150.830078 0.015625)"/>
     </g>
    </g>
   </g>
   <g id="line2d_18">
    <path d="M 53.269542 247.499202 
L 56.955879 214.656651 
L 60.642217 185.368643 
L 64.328554 159.551603 
L 68.014891 137.06779 
L 71.701228 117.738298 
L 75.387566 101.355062 
L 79.073903 87.691513 
L 82.76024 76.511688 
L 86.446578 67.577754 
L 90.132915 60.655997 
L 93.819252 55.521383 
L 97.505589 51.960854 
L 101.191927 49.775542 
L 104.878264 48.782073 
L 108.564601 48.813146 
L 112.250938 49.717539 
L 115.937276 51.359692 
L 119.623613 53.618984 
L 123.30995 56.388802 
L 126.996288 59.575498 
L 130.682625 63.097273 
L 134.368962 66.883064 
L 138.055299 70.87145 
L 141.741637 75.009604 
L 145.427974 79.252319 
L 149.114311 83.561104 
L 152.800649 87.903358 
L 156.486986 92.251627 
L 160.173323 96.582936 
L 163.85966 100.878192 
L 167.545998 105.121661 
L 171.232335 109.300506 
L 174.918672 113.404374 
L 178.605009 117.425049 
L 182.291347 121.356134 
L 185.977684 125.192788 
L 189.664021 128.931491 
L 193.350359 132.569838 
L 197.036696 136.106371 
L 200.723033 139.540422 
L 204.40937 142.871988 
L 208.095708 146.101614 
L 211.782045 149.230302 
L 215.468382 152.259429 
L 219.15472 155.19067 
L 222.841057 158.025945 
L 226.527394 160.767364 
L 230.213731 163.417184 
L 233.900069 165.977771 
L 237.586406 168.451568 
L 241.272743 170.841072 
L 244.959081 173.148807 
L 248.645418 175.377306 
L 252.331755 177.529098 
L 256.018092 179.606692 
L 259.70443 181.612568 
L 263.390767 183.549168 
L 267.077104 185.418887 
L 270.763441 187.22407 
L 274.449779 188.967006 
L 278.136116 190.649926 
L 281.822453 192.274999 
L 285.508791 193.84433 
L 289.195128 195.359961 
L 292.881465 196.823871 
L 296.567802 198.23797 
L 300.25414 199.604108 
L 303.940477 200.92407 
L 307.626814 202.199576 
L 311.313152 203.432287 
L 314.999489 204.623803 
L 318.685826 205.775663 
L 322.372163 206.889351 
L 326.058501 207.966294 
L 329.744838 209.007863 
L 333.431175 210.01538 
L 337.117512 210.990111 
L 340.80385 211.933278 
L 344.490187 212.846051 
L 348.176524 213.729556 
L 351.862862 214.584874 
L 355.549199 215.413045 
L 359.235536 216.215066 
L 362.921873 216.991895 
L 366.608211 217.744452 
L 370.294548 218.47362 
L 373.980885 219.180249 
L 377.667223 219.865152 
L 381.35356 220.529112 
L 385.039897 221.172881 
L 388.726234 221.797179 
L 392.412572 222.402701 
L 396.098909 222.990111 
L 399.785246 223.56005 
L 403.471583 224.11313 
L 407.157921 224.649943 
L 410.844258 225.171055 
L 414.530595 225.67701 
L 418.216933 226.168333 
" clip-path="url(#pcb575cb8d0)" style="fill: none; stroke: #dd8452"/>
   </g>
   <g id="patch_3">
    <path d="M 42.32112 254.625354 
L 42.32112 2.834646 
" style="fill: none; stroke: #000000; stroke-linejoin: miter; stroke-linecap: square"/>
   </g>
   <g id="patch_4">
    <path d="M 429.165354 254.625354 
L 429.165354 2.834646 
" style="fill: none; stroke: #000000; stroke-linejoin: miter; stroke-linecap: square"/>
   </g>
   <g id="patch_5">
    <path d="M 42.32112 254.625354 
L 429.165354 254.625354 
" style="fill: none; stroke: #000000; stroke-linejoin: miter; stroke-linecap: square"/>
   </g>
   <g id="patch_6">
    <path d="M 42.32112 2.834646 
L 429.165354 2.834646 
" style="fill: none; stroke: #000000; stroke-linejoin: miter; stroke-linecap: square"/>
   </g>
   <g id="line2d_19">
    <path d="M 53.269542 9.960798 
L 56.955879 13.792591 
L 60.642217 18.040462 
L 64.328554 22.633619 
L 68.014891 27.506188 
L 71.701228 32.597679 
L 75.387566 37.853214 
L 79.073903 43.223584 
L 82.76024 48.665135 
L 86.446578 54.13956 
L 90.132915 59.613596 
L 93.819252 65.05868 
L 97.505589 70.450559 
L 101.191927 75.768905 
L 104.878264 80.996911 
L 108.564601 86.120915 
L 112.250938 91.130033 
L 115.937276 96.015816 
L 119.623613 100.771934 
L 123.30995 105.39389 
L 126.996288 109.878756 
L 130.682625 114.224942 
L 134.368962 118.431985 
L 138.055299 122.500366 
L 141.741637 126.431351 
L 145.427974 130.226844 
L 149.114311 133.889273 
L 152.800649 137.421474 
L 156.486986 140.82661 
L 160.173323 144.108085 
L 163.85966 147.269484 
L 167.545998 150.314513 
L 171.232335 153.246955 
L 174.918672 156.070628 
L 178.605009 158.789353 
L 182.291347 161.406929 
L 185.977684 163.927109 
L 189.664021 166.353584 
L 193.350359 168.689968 
L 197.036696 170.939788 
L 200.723033 173.106473 
L 204.40937 175.193353 
L 208.095708 177.203649 
L 211.782045 179.140475 
L 215.468382 181.006834 
L 219.15472 182.805619 
L 222.841057 184.539613 
L 226.527394 186.211488 
L 230.213731 187.823811 
L 233.900069 189.379045 
L 237.586406 190.879548 
L 241.272743 192.327582 
L 244.959081 193.725309 
L 248.645418 195.0748 
L 252.331755 196.378037 
L 256.018092 197.636913 
L 259.70443 198.85324 
L 263.390767 200.028748 
L 267.077104 201.165091 
L 270.763441 202.263852 
L 274.449779 203.326539 
L 278.136116 204.354596 
L 281.822453 205.349402 
L 285.508791 206.312274 
L 289.195128 207.244471 
L 292.881465 208.147196 
L 296.567802 209.021597 
L 300.25414 209.868774 
L 303.940477 210.689776 
L 307.626814 211.485606 
L 311.313152 212.257223 
L 314.999489 213.005545 
L 318.685826 213.731449 
L 322.372163 214.435773 
L 326.058501 215.119321 
L 329.744838 215.78286 
L 333.431175 216.427125 
L 337.117512 217.052819 
L 340.80385 217.660616 
L 344.490187 218.25116 
L 348.176524 218.825069 
L 351.862862 219.382934 
L 355.549199 219.925323 
L 359.235536 220.452778 
L 362.921873 220.96582 
L 366.608211 221.464949 
L 370.294548 221.950643 
L 373.980885 222.423362 
L 377.667223 222.883545 
L 381.35356 223.331617 
L 385.039897 223.767984 
L 388.726234 224.193034 
L 392.412572 224.607142 
L 396.098909 225.010668 
L 399.785246 225.403957 
L 403.471583 225.787342 
L 407.157921 226.161141 
L 410.844258 226.525661 
L 414.530595 226.881197 
L 418.216933 227.228033 
" clip-path="url(#pcb575cb8d0)" style="fill: none; stroke: #55a868"/>
   </g>
   <g id="PathCollection_1">
    <defs>
     <path id="mb89b074908" d="M -3.5 0 
L 3.5 0 
M 0 3.5 
L 0 -3.5 
" style="stroke: #4c72b0"/>
    </defs>
    <g clip-path="url(#pcb575cb8d0)">
     <use xlink:href="#mb89b074908" x="56.31077" y="244.984954" style="fill: #4c72b0; stroke: #4c72b0"/>
     <use xlink:href="#mb89b074908" x="62.496319" y="229.24673" style="fill: #4c72b0; stroke: #4c72b0"/>
     <use xlink:href="#mb89b074908" x="68.681868" y="201.614178" style="fill: #4c72b0; stroke: #4c72b0"/>
     <use xlink:href="#mb89b074908" x="74.867417" y="171.394853" style="fill: #4c72b0; stroke: #4c72b0"/>
     <use xlink:href="#mb89b074908" x="81.052966" y="138.419525" style="fill: #4c72b0; stroke: #4c72b0"/>
     <use xlink:href="#mb89b074908" x="87.238515" y="110.545219" style="fill: #4c72b0; stroke: #4c72b0"/>
     <use xlink:href="#mb89b074908" x="93.424064" y="84.508248" style="fill: #4c72b0; stroke: #4c72b0"/>
     <use xlink:href="#mb89b074908" x="99.609613" y="64.031633" style="fill: #4c72b0; stroke: #4c72b0"/>
     <use xlink:href="#mb89b074908" x="105.795162" y="48.631864" style="fill: #4c72b0; stroke: #4c72b0"/>
     <use xlink:href="#mb89b074908" x="111.980711" y="31.781568" style="fill: #4c72b0; stroke: #4c72b0"/>
     <use xlink:href="#mb89b074908" x="118.16626" y="22.353139" style="fill: #4c72b0; stroke: #4c72b0"/>
     <use xlink:href="#mb89b074908" x="124.351809" y="25.713528" style="fill: #4c72b0; stroke: #4c72b0"/>
     <use xlink:href="#mb89b074908" x="130.537358" y="21.700401" style="fill: #4c72b0; stroke: #4c72b0"/>
     <use xlink:href="#mb89b074908" x="136.722907" y="25.858581" style="fill: #4c72b0; stroke: #4c72b0"/>
     <use xlink:href="#mb89b074908" x="142.908456" y="29.4849" style="fill: #4c72b0; stroke: #4c72b0"/>
     <use xlink:href="#mb89b074908" x="149.094005" y="36.326555" style="fill: #4c72b0; stroke: #4c72b0"/>
     <use xlink:href="#mb89b074908" x="155.279554" y="44.135229" style="fill: #4c72b0; stroke: #4c72b0"/>
     <use xlink:href="#mb89b074908" x="161.465103" y="54.99001" style="fill: #4c72b0; stroke: #4c72b0"/>
     <use xlink:href="#mb89b074908" x="167.650652" y="60.405314" style="fill: #4c72b0; stroke: #4c72b0"/>
     <use xlink:href="#mb89b074908" x="173.836201" y="73.532589" style="fill: #4c72b0; stroke: #4c72b0"/>
     <use xlink:href="#mb89b074908" x="180.02175" y="79.38305" style="fill: #4c72b0; stroke: #4c72b0"/>
     <use xlink:href="#mb89b074908" x="186.207299" y="89.270813" style="fill: #4c72b0; stroke: #4c72b0"/>
     <use xlink:href="#mb89b074908" x="192.392848" y="96.620153" style="fill: #4c72b0; stroke: #4c72b0"/>
     <use xlink:href="#mb89b074908" x="198.578397" y="105.734302" style="fill: #4c72b0; stroke: #4c72b0"/>
     <use xlink:href="#mb89b074908" x="204.763946" y="116.782487" style="fill: #4c72b0; stroke: #4c72b0"/>
     <use xlink:href="#mb89b074908" x="210.949495" y="121.738457" style="fill: #4c72b0; stroke: #4c72b0"/>
     <use xlink:href="#mb89b074908" x="217.135044" y="128.459235" style="fill: #4c72b0; stroke: #4c72b0"/>
     <use xlink:href="#mb89b074908" x="223.320593" y="134.938258" style="fill: #4c72b0; stroke: #4c72b0"/>
     <use xlink:href="#mb89b074908" x="229.506142" y="145.285355" style="fill: #4c72b0; stroke: #4c72b0"/>
     <use xlink:href="#mb89b074908" x="235.691691" y="150.845711" style="fill: #4c72b0; stroke: #4c72b0"/>
     <use xlink:href="#mb89b074908" x="241.87724" y="154.713785" style="fill: #4c72b0; stroke: #4c72b0"/>
     <use xlink:href="#mb89b074908" x="248.062789" y="156.937927" style="fill: #4c72b0; stroke: #4c72b0"/>
     <use xlink:href="#mb89b074908" x="254.248338" y="166.342181" style="fill: #4c72b0; stroke: #4c72b0"/>
     <use xlink:href="#mb89b074908" x="260.433887" y="171.684958" style="fill: #4c72b0; stroke: #4c72b0"/>
     <use xlink:href="#mb89b074908" x="266.619436" y="173.64317" style="fill: #4c72b0; stroke: #4c72b0"/>
     <use xlink:href="#mb89b074908" x="272.804985" y="180.919984" style="fill: #4c72b0; stroke: #4c72b0"/>
     <use xlink:href="#mb89b074908" x="278.990534" y="183.410056" style="fill: #4c72b0; stroke: #4c72b0"/>
     <use xlink:href="#mb89b074908" x="285.176083" y="187.471534" style="fill: #4c72b0; stroke: #4c72b0"/>
     <use xlink:href="#mb89b074908" x="291.361632" y="186.673744" style="fill: #4c72b0; stroke: #4c72b0"/>
     <use xlink:href="#mb89b074908" x="297.547181" y="195.932945" style="fill: #4c72b0; stroke: #4c72b0"/>
     <use xlink:href="#mb89b074908" x="303.73273" y="196.416454" style="fill: #4c72b0; stroke: #4c72b0"/>
     <use xlink:href="#mb89b074908" x="309.918279" y="200.792213" style="fill: #4c72b0; stroke: #4c72b0"/>
     <use xlink:href="#mb89b074908" x="316.103828" y="203.910847" style="fill: #4c72b0; stroke: #4c72b0"/>
     <use xlink:href="#mb89b074908" x="322.289377" y="203.548215" style="fill: #4c72b0; stroke: #4c72b0"/>
     <use xlink:href="#mb89b074908" x="328.474926" y="207.803096" style="fill: #4c72b0; stroke: #4c72b0"/>
     <use xlink:href="#mb89b074908" x="334.660475" y="208.745939" style="fill: #4c72b0; stroke: #4c72b0"/>
     <use xlink:href="#mb89b074908" x="340.846024" y="210.60745" style="fill: #4c72b0; stroke: #4c72b0"/>
     <use xlink:href="#mb89b074908" x="347.031573" y="215.200787" style="fill: #4c72b0; stroke: #4c72b0"/>
     <use xlink:href="#mb89b074908" x="353.217122" y="214.451348" style="fill: #4c72b0; stroke: #4c72b0"/>
     <use xlink:href="#mb89b074908" x="359.402671" y="214.81398" style="fill: #4c72b0; stroke: #4c72b0"/>
     <use xlink:href="#mb89b074908" x="365.58822" y="218.537001" style="fill: #4c72b0; stroke: #4c72b0"/>
     <use xlink:href="#mb89b074908" x="371.773769" y="221.558933" style="fill: #4c72b0; stroke: #4c72b0"/>
     <use xlink:href="#mb89b074908" x="377.959318" y="223.251215" style="fill: #4c72b0; stroke: #4c72b0"/>
     <use xlink:href="#mb89b074908" x="384.144867" y="223.565496" style="fill: #4c72b0; stroke: #4c72b0"/>
     <use xlink:href="#mb89b074908" x="390.330416" y="221.800688" style="fill: #4c72b0; stroke: #4c72b0"/>
     <use xlink:href="#mb89b074908" x="396.515965" y="226.587429" style="fill: #4c72b0; stroke: #4c72b0"/>
     <use xlink:href="#mb89b074908" x="402.701514" y="225.427007" style="fill: #4c72b0; stroke: #4c72b0"/>
     <use xlink:href="#mb89b074908" x="408.887063" y="226.297323" style="fill: #4c72b0; stroke: #4c72b0"/>
    </g>
   </g>
   <g id="PathCollection_2">
    <defs>
     <path id="mbf2b96ca6a" d="M -3.5 0 
L 3.5 0 
M 0 3.5 
L 0 -3.5 
" style="stroke: #dd8452"/>
    </defs>
    <g clip-path="url(#pcb575cb8d0)">
     <use xlink:href="#mbf2b96ca6a" x="56.31077" y="219.55237" style="fill: #dd8452; stroke: #dd8452"/>
     <use xlink:href="#mbf2b96ca6a" x="62.496319" y="172.555275" style="fill: #dd8452; stroke: #dd8452"/>
     <use xlink:href="#mbf2b96ca6a" x="68.681868" y="131.747097" style="fill: #dd8452; stroke: #dd8452"/>
     <use xlink:href="#mbf2b96ca6a" x="74.867417" y="100.343174" style="fill: #dd8452; stroke: #dd8452"/>
     <use xlink:href="#mbf2b96ca6a" x="81.052966" y="78.681962" style="fill: #dd8452; stroke: #dd8452"/>
     <use xlink:href="#mbf2b96ca6a" x="87.238515" y="61.058051" style="fill: #dd8452; stroke: #dd8452"/>
     <use xlink:href="#mbf2b96ca6a" x="93.424064" y="49.429655" style="fill: #dd8452; stroke: #dd8452"/>
     <use xlink:href="#mbf2b96ca6a" x="99.609613" y="47.85825" style="fill: #dd8452; stroke: #dd8452"/>
     <use xlink:href="#mbf2b96ca6a" x="105.795162" y="43.555018" style="fill: #dd8452; stroke: #dd8452"/>
     <use xlink:href="#mbf2b96ca6a" x="111.980711" y="49.236251" style="fill: #dd8452; stroke: #dd8452"/>
     <use xlink:href="#mbf2b96ca6a" x="118.16626" y="48.341759" style="fill: #dd8452; stroke: #dd8452"/>
     <use xlink:href="#mbf2b96ca6a" x="124.351809" y="52.475763" style="fill: #dd8452; stroke: #dd8452"/>
     <use xlink:href="#mbf2b96ca6a" x="130.537358" y="56.730644" style="fill: #dd8452; stroke: #dd8452"/>
     <use xlink:href="#mbf2b96ca6a" x="136.722907" y="67.077741" style="fill: #dd8452; stroke: #dd8452"/>
     <use xlink:href="#mbf2b96ca6a" x="142.908456" y="75.660029" style="fill: #dd8452; stroke: #dd8452"/>
     <use xlink:href="#mbf2b96ca6a" x="149.094005" y="81.969824" style="fill: #dd8452; stroke: #dd8452"/>
     <use xlink:href="#mbf2b96ca6a" x="155.279554" y="87.506005" style="fill: #dd8452; stroke: #dd8452"/>
     <use xlink:href="#mbf2b96ca6a" x="161.465103" y="96.16082" style="fill: #dd8452; stroke: #dd8452"/>
     <use xlink:href="#mbf2b96ca6a" x="167.650652" y="104.428827" style="fill: #dd8452; stroke: #dd8452"/>
     <use xlink:href="#mbf2b96ca6a" x="173.836201" y="107.523286" style="fill: #dd8452; stroke: #dd8452"/>
     <use xlink:href="#mbf2b96ca6a" x="180.02175" y="115.912171" style="fill: #dd8452; stroke: #dd8452"/>
     <use xlink:href="#mbf2b96ca6a" x="186.207299" y="124.325231" style="fill: #dd8452; stroke: #dd8452"/>
     <use xlink:href="#mbf2b96ca6a" x="192.392848" y="130.175693" style="fill: #dd8452; stroke: #dd8452"/>
     <use xlink:href="#mbf2b96ca6a" x="198.578397" y="136.896471" style="fill: #dd8452; stroke: #dd8452"/>
     <use xlink:href="#mbf2b96ca6a" x="204.763946" y="140.25686" style="fill: #dd8452; stroke: #dd8452"/>
     <use xlink:href="#mbf2b96ca6a" x="210.949495" y="147.146866" style="fill: #dd8452; stroke: #dd8452"/>
     <use xlink:href="#mbf2b96ca6a" x="217.135044" y="149.105078" style="fill: #dd8452; stroke: #dd8452"/>
     <use xlink:href="#mbf2b96ca6a" x="223.320593" y="160.153264" style="fill: #dd8452; stroke: #dd8452"/>
     <use xlink:href="#mbf2b96ca6a" x="229.506142" y="162.014774" style="fill: #dd8452; stroke: #dd8452"/>
     <use xlink:href="#mbf2b96ca6a" x="235.691691" y="165.665269" style="fill: #dd8452; stroke: #dd8452"/>
     <use xlink:href="#mbf2b96ca6a" x="241.87724" y="171.032221" style="fill: #dd8452; stroke: #dd8452"/>
     <use xlink:href="#mbf2b96ca6a" x="248.062789" y="177.511244" style="fill: #dd8452; stroke: #dd8452"/>
     <use xlink:href="#mbf2b96ca6a" x="254.248338" y="179.034298" style="fill: #dd8452; stroke: #dd8452"/>
     <use xlink:href="#mbf2b96ca6a" x="260.433887" y="183.047425" style="fill: #dd8452; stroke: #dd8452"/>
     <use xlink:href="#mbf2b96ca6a" x="266.619436" y="185.15069" style="fill: #dd8452; stroke: #dd8452"/>
     <use xlink:href="#mbf2b96ca6a" x="272.804985" y="188.897886" style="fill: #dd8452; stroke: #dd8452"/>
     <use xlink:href="#mbf2b96ca6a" x="278.990534" y="187.568236" style="fill: #dd8452; stroke: #dd8452"/>
     <use xlink:href="#mbf2b96ca6a" x="285.176083" y="192.403328" style="fill: #dd8452; stroke: #dd8452"/>
     <use xlink:href="#mbf2b96ca6a" x="291.361632" y="195.69119" style="fill: #dd8452; stroke: #dd8452"/>
     <use xlink:href="#mbf2b96ca6a" x="297.547181" y="197.214244" style="fill: #dd8452; stroke: #dd8452"/>
     <use xlink:href="#mbf2b96ca6a" x="303.73273" y="199.801019" style="fill: #dd8452; stroke: #dd8452"/>
     <use xlink:href="#mbf2b96ca6a" x="309.918279" y="202.073512" style="fill: #dd8452; stroke: #dd8452"/>
     <use xlink:href="#mbf2b96ca6a" x="316.103828" y="204.660286" style="fill: #dd8452; stroke: #dd8452"/>
     <use xlink:href="#mbf2b96ca6a" x="322.289377" y="206.473446" style="fill: #dd8452; stroke: #dd8452"/>
     <use xlink:href="#mbf2b96ca6a" x="328.474926" y="206.473446" style="fill: #dd8452; stroke: #dd8452"/>
     <use xlink:href="#mbf2b96ca6a" x="334.660475" y="209.954712" style="fill: #dd8452; stroke: #dd8452"/>
     <use xlink:href="#mbf2b96ca6a" x="340.846024" y="211.163485" style="fill: #dd8452; stroke: #dd8452"/>
     <use xlink:href="#mbf2b96ca6a" x="347.031573" y="213.387627" style="fill: #dd8452; stroke: #dd8452"/>
     <use xlink:href="#mbf2b96ca6a" x="353.217122" y="215.466717" style="fill: #dd8452; stroke: #dd8452"/>
     <use xlink:href="#mbf2b96ca6a" x="359.402671" y="215.708472" style="fill: #dd8452; stroke: #dd8452"/>
     <use xlink:href="#mbf2b96ca6a" x="365.58822" y="217.449105" style="fill: #dd8452; stroke: #dd8452"/>
     <use xlink:href="#mbf2b96ca6a" x="371.773769" y="218.053491" style="fill: #dd8452; stroke: #dd8452"/>
     <use xlink:href="#mbf2b96ca6a" x="377.959318" y="218.367772" style="fill: #dd8452; stroke: #dd8452"/>
     <use xlink:href="#mbf2b96ca6a" x="384.144867" y="220.88202" style="fill: #dd8452; stroke: #dd8452"/>
     <use xlink:href="#mbf2b96ca6a" x="390.330416" y="220.978722" style="fill: #dd8452; stroke: #dd8452"/>
     <use xlink:href="#mbf2b96ca6a" x="396.515965" y="223.831426" style="fill: #dd8452; stroke: #dd8452"/>
     <use xlink:href="#mbf2b96ca6a" x="402.701514" y="222.96111" style="fill: #dd8452; stroke: #dd8452"/>
     <use xlink:href="#mbf2b96ca6a" x="408.887063" y="223.638023" style="fill: #dd8452; stroke: #dd8452"/>
    </g>
   </g>
   <g id="PathCollection_3">
    <defs>
     <path id="m26c9e0ae67" d="M -3.5 0 
L 3.5 0 
M 0 3.5 
L 0 -3.5 
" style="stroke: #55a868"/>
    </defs>
    <g clip-path="url(#pcb575cb8d0)">
     <use xlink:href="#m26c9e0ae67" x="56.31077" y="25.641001" style="fill: #55a868; stroke: #55a868"/>
     <use xlink:href="#m26c9e0ae67" x="62.496319" y="23.900368" style="fill: #55a868; stroke: #55a868"/>
     <use xlink:href="#m26c9e0ae67" x="68.681868" y="30.476094" style="fill: #55a868; stroke: #55a868"/>
     <use xlink:href="#m26c9e0ae67" x="74.867417" y="30.887076" style="fill: #55a868; stroke: #55a868"/>
     <use xlink:href="#m26c9e0ae67" x="81.052966" y="41.548454" style="fill: #55a868; stroke: #55a868"/>
     <use xlink:href="#m26c9e0ae67" x="87.238515" y="50.565901" style="fill: #55a868; stroke: #55a868"/>
     <use xlink:href="#m26c9e0ae67" x="93.424064" y="59.220716" style="fill: #55a868; stroke: #55a868"/>
     <use xlink:href="#m26c9e0ae67" x="99.609613" y="72.662272" style="fill: #55a868; stroke: #55a868"/>
     <use xlink:href="#m26c9e0ae67" x="105.795162" y="77.618241" style="fill: #55a868; stroke: #55a868"/>
     <use xlink:href="#m26c9e0ae67" x="111.980711" y="84.314844" style="fill: #55a868; stroke: #55a868"/>
     <use xlink:href="#m26c9e0ae67" x="118.16626" y="99.690437" style="fill: #55a868; stroke: #55a868"/>
     <use xlink:href="#m26c9e0ae67" x="124.351809" y="102.518966" style="fill: #55a868; stroke: #55a868"/>
     <use xlink:href="#m26c9e0ae67" x="130.537358" y="110.956201" style="fill: #55a868; stroke: #55a868"/>
     <use xlink:href="#m26c9e0ae67" x="136.722907" y="114.969328" style="fill: #55a868; stroke: #55a868"/>
     <use xlink:href="#m26c9e0ae67" x="142.908456" y="123.358213" style="fill: #55a868; stroke: #55a868"/>
     <use xlink:href="#m26c9e0ae67" x="149.094005" y="128.652639" style="fill: #55a868; stroke: #55a868"/>
     <use xlink:href="#m26c9e0ae67" x="155.279554" y="135.639347" style="fill: #55a868; stroke: #55a868"/>
     <use xlink:href="#m26c9e0ae67" x="161.465103" y="139.797526" style="fill: #55a868; stroke: #55a868"/>
     <use xlink:href="#m26c9e0ae67" x="167.650652" y="148.524867" style="fill: #55a868; stroke: #55a868"/>
     <use xlink:href="#m26c9e0ae67" x="173.836201" y="152.006133" style="fill: #55a868; stroke: #55a868"/>
     <use xlink:href="#m26c9e0ae67" x="180.02175" y="155.390698" style="fill: #55a868; stroke: #55a868"/>
     <use xlink:href="#m26c9e0ae67" x="186.207299" y="158.968666" style="fill: #55a868; stroke: #55a868"/>
     <use xlink:href="#m26c9e0ae67" x="192.392848" y="163.707056" style="fill: #55a868; stroke: #55a868"/>
     <use xlink:href="#m26c9e0ae67" x="198.578397" y="171.273975" style="fill: #55a868; stroke: #55a868"/>
     <use xlink:href="#m26c9e0ae67" x="204.763946" y="172.168467" style="fill: #55a868; stroke: #55a868"/>
     <use xlink:href="#m26c9e0ae67" x="210.949495" y="175.142049" style="fill: #55a868; stroke: #55a868"/>
     <use xlink:href="#m26c9e0ae67" x="217.135044" y="180.678229" style="fill: #55a868; stroke: #55a868"/>
     <use xlink:href="#m26c9e0ae67" x="223.320593" y="182.346336" style="fill: #55a868; stroke: #55a868"/>
     <use xlink:href="#m26c9e0ae67" x="229.506142" y="185.223216" style="fill: #55a868; stroke: #55a868"/>
     <use xlink:href="#m26c9e0ae67" x="235.691691" y="189.913255" style="fill: #55a868; stroke: #55a868"/>
     <use xlink:href="#m26c9e0ae67" x="241.87724" y="191.75059" style="fill: #55a868; stroke: #55a868"/>
     <use xlink:href="#m26c9e0ae67" x="248.062789" y="191.533011" style="fill: #55a868; stroke: #55a868"/>
     <use xlink:href="#m26c9e0ae67" x="254.248338" y="194.579119" style="fill: #55a868; stroke: #55a868"/>
     <use xlink:href="#m26c9e0ae67" x="260.433887" y="196.44063" style="fill: #55a868; stroke: #55a868"/>
     <use xlink:href="#m26c9e0ae67" x="266.619436" y="197.746105" style="fill: #55a868; stroke: #55a868"/>
     <use xlink:href="#m26c9e0ae67" x="272.804985" y="202.532846" style="fill: #55a868; stroke: #55a868"/>
     <use xlink:href="#m26c9e0ae67" x="278.990534" y="204.031724" style="fill: #55a868; stroke: #55a868"/>
     <use xlink:href="#m26c9e0ae67" x="285.176083" y="204.128426" style="fill: #55a868; stroke: #55a868"/>
     <use xlink:href="#m26c9e0ae67" x="291.361632" y="205.11962" style="fill: #55a868; stroke: #55a868"/>
     <use xlink:href="#m26c9e0ae67" x="297.547181" y="207.46464" style="fill: #55a868; stroke: #55a868"/>
     <use xlink:href="#m26c9e0ae67" x="303.73273" y="209.688782" style="fill: #55a868; stroke: #55a868"/>
     <use xlink:href="#m26c9e0ae67" x="309.918279" y="213.121697" style="fill: #55a868; stroke: #55a868"/>
     <use xlink:href="#m26c9e0ae67" x="316.103828" y="211.985451" style="fill: #55a868; stroke: #55a868"/>
     <use xlink:href="#m26c9e0ae67" x="322.289377" y="214.838155" style="fill: #55a868; stroke: #55a868"/>
     <use xlink:href="#m26c9e0ae67" x="328.474926" y="216.167805" style="fill: #55a868; stroke: #55a868"/>
     <use xlink:href="#m26c9e0ae67" x="334.660475" y="216.240332" style="fill: #55a868; stroke: #55a868"/>
     <use xlink:href="#m26c9e0ae67" x="340.846024" y="216.071104" style="fill: #55a868; stroke: #55a868"/>
     <use xlink:href="#m26c9e0ae67" x="347.031573" y="217.158999" style="fill: #55a868; stroke: #55a868"/>
     <use xlink:href="#m26c9e0ae67" x="353.217122" y="218.029316" style="fill: #55a868; stroke: #55a868"/>
     <use xlink:href="#m26c9e0ae67" x="359.402671" y="219.310615" style="fill: #55a868; stroke: #55a868"/>
     <use xlink:href="#m26c9e0ae67" x="365.58822" y="220.712792" style="fill: #55a868; stroke: #55a868"/>
     <use xlink:href="#m26c9e0ae67" x="371.773769" y="221.631459" style="fill: #55a868; stroke: #55a868"/>
     <use xlink:href="#m26c9e0ae67" x="377.959318" y="221.969916" style="fill: #55a868; stroke: #55a868"/>
     <use xlink:href="#m26c9e0ae67" x="384.144867" y="222.719355" style="fill: #55a868; stroke: #55a868"/>
     <use xlink:href="#m26c9e0ae67" x="390.330416" y="223.202864" style="fill: #55a868; stroke: #55a868"/>
     <use xlink:href="#m26c9e0ae67" x="396.515965" y="223.202864" style="fill: #55a868; stroke: #55a868"/>
     <use xlink:href="#m26c9e0ae67" x="402.701514" y="226.321499" style="fill: #55a868; stroke: #55a868"/>
     <use xlink:href="#m26c9e0ae67" x="408.887063" y="225.983042" style="fill: #55a868; stroke: #55a868"/>
    </g>
   </g>
   <g id="PathCollection_4">
    <defs>
     <path id="mc41d1a053f" d="M -0.765367 -1.847759 
L -1.847759 -0.765367 
L -1.847759 0.765367 
L -0.765367 1.847759 
L 0.765367 1.847759 
L 1.847759 0.765367 
L 1.847759 -0.765367 
L 0.765367 -1.847759 
z
"/>
    </defs>
    <g clip-path="url(#pcb575cb8d0)">
     <use xlink:href="#mc41d1a053f" x="56.31077" y="220.035879" style="fill: #dd8452"/>
     <use xlink:href="#mc41d1a053f" x="62.496319" y="167.792709" style="fill: #dd8452"/>
     <use xlink:href="#mc41d1a053f" x="68.681868" y="130.900956" style="fill: #dd8452"/>
     <use xlink:href="#mc41d1a053f" x="74.867417" y="102.083807" style="fill: #dd8452"/>
     <use xlink:href="#mc41d1a053f" x="81.052966" y="77.690768" style="fill: #dd8452"/>
     <use xlink:href="#mc41d1a053f" x="87.238515" y="65.74809" style="fill: #dd8452"/>
     <use xlink:href="#mc41d1a053f" x="93.424064" y="50.082392" style="fill: #dd8452"/>
     <use xlink:href="#mc41d1a053f" x="99.609613" y="46.915407" style="fill: #dd8452"/>
     <use xlink:href="#mc41d1a053f" x="105.795162" y="46.552775" style="fill: #dd8452"/>
     <use xlink:href="#mc41d1a053f" x="111.980711" y="48.970321" style="fill: #dd8452"/>
     <use xlink:href="#mc41d1a053f" x="118.16626" y="48.873619" style="fill: #dd8452"/>
     <use xlink:href="#mc41d1a053f" x="124.351809" y="55.957029" style="fill: #dd8452"/>
     <use xlink:href="#mc41d1a053f" x="130.537358" y="57.721838" style="fill: #dd8452"/>
     <use xlink:href="#mc41d1a053f" x="136.722907" y="69.930445" style="fill: #dd8452"/>
     <use xlink:href="#mc41d1a053f" x="142.908456" y="71.622727" style="fill: #dd8452"/>
     <use xlink:href="#mc41d1a053f" x="149.094005" y="82.501684" style="fill: #dd8452"/>
     <use xlink:href="#mc41d1a053f" x="155.279554" y="86.974145" style="fill: #dd8452"/>
     <use xlink:href="#mc41d1a053f" x="161.465103" y="98.481664" style="fill: #dd8452"/>
     <use xlink:href="#mc41d1a053f" x="167.650652" y="101.382719" style="fill: #dd8452"/>
     <use xlink:href="#mc41d1a053f" x="173.836201" y="108.176024" style="fill: #dd8452"/>
     <use xlink:href="#mc41d1a053f" x="180.02175" y="115.477013" style="fill: #dd8452"/>
     <use xlink:href="#mc41d1a053f" x="186.207299" y="122.512072" style="fill: #dd8452"/>
     <use xlink:href="#mc41d1a053f" x="192.392848" y="130.127342" style="fill: #dd8452"/>
     <use xlink:href="#mc41d1a053f" x="198.578397" y="133.318502" style="fill: #dd8452"/>
     <use xlink:href="#mc41d1a053f" x="204.763946" y="142.601879" style="fill: #dd8452"/>
     <use xlink:href="#mc41d1a053f" x="210.949495" y="144.632618" style="fill: #dd8452"/>
     <use xlink:href="#mc41d1a053f" x="217.135044" y="152.537993" style="fill: #dd8452"/>
     <use xlink:href="#mc41d1a053f" x="223.320593" y="157.518138" style="fill: #dd8452"/>
     <use xlink:href="#mc41d1a053f" x="229.506142" y="159.863158" style="fill: #dd8452"/>
     <use xlink:href="#mc41d1a053f" x="235.691691" y="167.357551" style="fill: #dd8452"/>
     <use xlink:href="#mc41d1a053f" x="241.87724" y="170.766291" style="fill: #dd8452"/>
     <use xlink:href="#mc41d1a053f" x="248.062789" y="177.728823" style="fill: #dd8452"/>
     <use xlink:href="#mc41d1a053f" x="254.248338" y="178.163982" style="fill: #dd8452"/>
     <use xlink:href="#mc41d1a053f" x="260.433887" y="183.627636" style="fill: #dd8452"/>
     <use xlink:href="#mc41d1a053f" x="266.619436" y="184.908935" style="fill: #dd8452"/>
     <use xlink:href="#mc41d1a053f" x="272.804985" y="186.988025" style="fill: #dd8452"/>
     <use xlink:href="#mc41d1a053f" x="278.990534" y="189.09129" style="fill: #dd8452"/>
     <use xlink:href="#mc41d1a053f" x="285.176083" y="192.959363" style="fill: #dd8452"/>
     <use xlink:href="#mc41d1a053f" x="291.361632" y="192.2341" style="fill: #dd8452"/>
     <use xlink:href="#mc41d1a053f" x="297.547181" y="198.229614" style="fill: #dd8452"/>
     <use xlink:href="#mc41d1a053f" x="303.73273" y="200.066949" style="fill: #dd8452"/>
     <use xlink:href="#mc41d1a053f" x="309.918279" y="201.97681" style="fill: #dd8452"/>
     <use xlink:href="#mc41d1a053f" x="316.103828" y="204.104251" style="fill: #dd8452"/>
     <use xlink:href="#mc41d1a053f" x="322.289377" y="204.926216" style="fill: #dd8452"/>
     <use xlink:href="#mc41d1a053f" x="328.474926" y="208.286605" style="fill: #dd8452"/>
     <use xlink:href="#mc41d1a053f" x="334.660475" y="209.108571" style="fill: #dd8452"/>
     <use xlink:href="#mc41d1a053f" x="340.846024" y="211.090959" style="fill: #dd8452"/>
     <use xlink:href="#mc41d1a053f" x="347.031573" y="215.34584" style="fill: #dd8452"/>
     <use xlink:href="#mc41d1a053f" x="353.217122" y="215.708472" style="fill: #dd8452"/>
     <use xlink:href="#mc41d1a053f" x="359.402671" y="214.620576" style="fill: #dd8452"/>
     <use xlink:href="#mc41d1a053f" x="365.58822" y="217.763386" style="fill: #dd8452"/>
     <use xlink:href="#mc41d1a053f" x="371.773769" y="218.802931" style="fill: #dd8452"/>
     <use xlink:href="#mc41d1a053f" x="377.959318" y="218.972159" style="fill: #dd8452"/>
     <use xlink:href="#mc41d1a053f" x="384.144867" y="221.099599" style="fill: #dd8452"/>
     <use xlink:href="#mc41d1a053f" x="390.330416" y="221.486407" style="fill: #dd8452"/>
     <use xlink:href="#mc41d1a053f" x="396.515965" y="222.840233" style="fill: #dd8452"/>
     <use xlink:href="#mc41d1a053f" x="402.701514" y="224.242409" style="fill: #dd8452"/>
     <use xlink:href="#mc41d1a053f" x="408.887063" y="224.967673" style="fill: #dd8452"/>
    </g>
   </g>
   <g id="PathCollection_5">
    <defs>
     <path id="m5fc2cbf013" d="M -0.765367 -1.847759 
L -1.847759 -0.765367 
L -1.847759 0.765367 
L -0.765367 1.847759 
L 0.765367 1.847759 
L 1.847759 0.765367 
L 1.847759 -0.765367 
L 0.765367 -1.847759 
z
"/>
    </defs>
    <g clip-path="url(#pcb575cb8d0)">
     <use xlink:href="#m5fc2cbf013" x="56.31077" y="15.946642" style="fill: #55a868"/>
     <use xlink:href="#m5fc2cbf013" x="62.496319" y="22.449841" style="fill: #55a868"/>
     <use xlink:href="#m5fc2cbf013" x="68.681868" y="26.124511" style="fill: #55a868"/>
     <use xlink:href="#m5fc2cbf013" x="74.867417" y="32.506832" style="fill: #55a868"/>
     <use xlink:href="#m5fc2cbf013" x="81.052966" y="42.056139" style="fill: #55a868"/>
     <use xlink:href="#m5fc2cbf013" x="87.238515" y="53.902115" style="fill: #55a868"/>
     <use xlink:href="#m5fc2cbf013" x="93.424064" y="58.88226" style="fill: #55a868"/>
     <use xlink:href="#m5fc2cbf013" x="99.609613" y="71.791956" style="fill: #55a868"/>
     <use xlink:href="#m5fc2cbf013" x="105.795162" y="80.785227" style="fill: #55a868"/>
     <use xlink:href="#m5fc2cbf013" x="111.980711" y="86.756566" style="fill: #55a868"/>
     <use xlink:href="#m5fc2cbf013" x="118.16626" y="97.152014" style="fill: #55a868"/>
     <use xlink:href="#m5fc2cbf013" x="124.351809" y="102.905773" style="fill: #55a868"/>
     <use xlink:href="#m5fc2cbf013" x="130.537358" y="109.84413" style="fill: #55a868"/>
     <use xlink:href="#m5fc2cbf013" x="136.722907" y="117.435225" style="fill: #55a868"/>
     <use xlink:href="#m5fc2cbf013" x="142.908456" y="121.714281" style="fill: #55a868"/>
     <use xlink:href="#m5fc2cbf013" x="149.094005" y="131.747097" style="fill: #55a868"/>
     <use xlink:href="#m5fc2cbf013" x="155.279554" y="135.808575" style="fill: #55a868"/>
     <use xlink:href="#m5fc2cbf013" x="161.465103" y="140.619491" style="fill: #55a868"/>
     <use xlink:href="#m5fc2cbf013" x="167.650652" y="149.806166" style="fill: #55a868"/>
     <use xlink:href="#m5fc2cbf013" x="173.836201" y="154.085223" style="fill: #55a868"/>
     <use xlink:href="#m5fc2cbf013" x="180.02175" y="155.4874" style="fill: #55a868"/>
     <use xlink:href="#m5fc2cbf013" x="186.207299" y="161.120282" style="fill: #55a868"/>
     <use xlink:href="#m5fc2cbf013" x="192.392848" y="165.592742" style="fill: #55a868"/>
     <use xlink:href="#m5fc2cbf013" x="198.578397" y="169.146535" style="fill: #55a868"/>
     <use xlink:href="#m5fc2cbf013" x="204.763946" y="177.293665" style="fill: #55a868"/>
     <use xlink:href="#m5fc2cbf013" x="210.949495" y="174.561838" style="fill: #55a868"/>
     <use xlink:href="#m5fc2cbf013" x="217.135044" y="179.082649" style="fill: #55a868"/>
     <use xlink:href="#m5fc2cbf013" x="223.320593" y="184.111145" style="fill: #55a868"/>
     <use xlink:href="#m5fc2cbf013" x="229.506142" y="186.166059" style="fill: #55a868"/>
     <use xlink:href="#m5fc2cbf013" x="235.691691" y="189.163816" style="fill: #55a868"/>
     <use xlink:href="#m5fc2cbf013" x="241.87724" y="189.985782" style="fill: #55a868"/>
     <use xlink:href="#m5fc2cbf013" x="248.062789" y="193.080241" style="fill: #55a868"/>
     <use xlink:href="#m5fc2cbf013" x="254.248338" y="195.110979" style="fill: #55a868"/>
     <use xlink:href="#m5fc2cbf013" x="260.433887" y="196.416454" style="fill: #55a868"/>
     <use xlink:href="#m5fc2cbf013" x="266.619436" y="200.332879" style="fill: #55a868"/>
     <use xlink:href="#m5fc2cbf013" x="272.804985" y="201.130669" style="fill: #55a868"/>
     <use xlink:href="#m5fc2cbf013" x="278.990534" y="205.578954" style="fill: #55a868"/>
     <use xlink:href="#m5fc2cbf013" x="285.176083" y="204.732813" style="fill: #55a868"/>
     <use xlink:href="#m5fc2cbf013" x="291.361632" y="207.343762" style="fill: #55a868"/>
     <use xlink:href="#m5fc2cbf013" x="297.547181" y="209.253624" style="fill: #55a868"/>
     <use xlink:href="#m5fc2cbf013" x="303.73273" y="210.051414" style="fill: #55a868"/>
     <use xlink:href="#m5fc2cbf013" x="309.918279" y="210.148116" style="fill: #55a868"/>
     <use xlink:href="#m5fc2cbf013" x="316.103828" y="212.565662" style="fill: #55a868"/>
     <use xlink:href="#m5fc2cbf013" x="322.289377" y="212.783241" style="fill: #55a868"/>
     <use xlink:href="#m5fc2cbf013" x="328.474926" y="215.249138" style="fill: #55a868"/>
     <use xlink:href="#m5fc2cbf013" x="334.660475" y="215.200787" style="fill: #55a868"/>
     <use xlink:href="#m5fc2cbf013" x="340.846024" y="215.635945" style="fill: #55a868"/>
     <use xlink:href="#m5fc2cbf013" x="347.031573" y="217.73921" style="fill: #55a868"/>
     <use xlink:href="#m5fc2cbf013" x="353.217122" y="220.277634" style="fill: #55a868"/>
     <use xlink:href="#m5fc2cbf013" x="359.402671" y="221.268828" style="fill: #55a868"/>
     <use xlink:href="#m5fc2cbf013" x="365.58822" y="220.156756" style="fill: #55a868"/>
     <use xlink:href="#m5fc2cbf013" x="371.773769" y="221.220477" style="fill: #55a868"/>
     <use xlink:href="#m5fc2cbf013" x="377.959318" y="221.921565" style="fill: #55a868"/>
     <use xlink:href="#m5fc2cbf013" x="384.144867" y="222.332548" style="fill: #55a868"/>
     <use xlink:href="#m5fc2cbf013" x="390.330416" y="223.178689" style="fill: #55a868"/>
     <use xlink:href="#m5fc2cbf013" x="396.515965" y="225.257779" style="fill: #55a868"/>
     <use xlink:href="#m5fc2cbf013" x="402.701514" y="225.547884" style="fill: #55a868"/>
     <use xlink:href="#m5fc2cbf013" x="408.887063" y="225.402831" style="fill: #55a868"/>
    </g>
   </g>
   <g id="legend_1">
    <g id="patch_7">
     <path d="M 297.365354 136.503396 
L 424.165354 136.503396 
L 424.165354 7.834646 
L 297.365354 7.834646 
z
" style="fill: #ffffff; stroke: #000000; stroke-linejoin: miter"/>
    </g>
    <g id="line2d_20">
     <path d="M 305.365354 20.034646 
L 315.365354 20.034646 
L 325.365354 20.034646 
" style="fill: none; stroke: #4c72b0; stroke-width: 1.25; stroke-linejoin: miter"/>
    </g>
    <g id="text_11">
     <!-- WD, $\beta = 2$ -->
     <g transform="translate(333.365354 23.534646) scale(0.1 -0.1)">
      <defs>
       <path id="DejaVuSerif-57" d="M 4878 0 
L 4366 0 
L 3297 3794 
L 2228 0 
L 1716 0 
L 494 4331 
L 31 4331 
L 31 4666 
L 1734 4666 
L 1734 4331 
L 1153 4331 
L 2125 884 
L 3188 4666 
L 3694 4666 
L 4775 844 
L 5753 4331 
L 5216 4331 
L 5216 4666 
L 6559 4666 
L 6559 4331 
L 6100 4331 
L 4878 0 
z
" transform="scale(0.015625)"/>
       <path id="DejaVuSerif-44" d="M 1581 331 
L 2163 331 
Q 3072 331 3558 850 
Q 4044 1369 4044 2338 
Q 4044 3306 3559 3818 
Q 3075 4331 2163 4331 
L 1581 4331 
L 1581 331 
z
M 353 0 
L 353 331 
L 947 331 
L 947 4331 
L 353 4331 
L 353 4666 
L 2209 4666 
Q 3416 4666 4089 4050 
Q 4763 3434 4763 2338 
Q 4763 1238 4088 619 
Q 3413 0 2209 0 
L 353 0 
z
" transform="scale(0.015625)"/>
       <path id="DejaVuSerif-2c" d="M 231 -622 
Q 525 -406 662 -114 
Q 800 178 800 594 
L 800 709 
L 1416 709 
Q 1391 175 1164 -208 
Q 938 -591 481 -872 
L 231 -622 
z
" transform="scale(0.015625)"/>
       <path id="DejaVuSerif-20" transform="scale(0.015625)"/>
       <path id="DejaVuSans-Oblique-3b2" d="M 872 216 
L 572 -1331 
L -6 -1331 
L 928 3478 
Q 1206 4903 2538 4903 
Q 3888 4903 3659 3700 
Q 3503 2844 2894 2531 
Q 3713 2250 3553 1416 
Q 3272 -69 1759 -66 
Q 1097 -63 872 216 
z
M 1019 966 
Q 1259 422 1875 425 
Q 2775 425 2966 1406 
Q 3138 2288 1675 2219 
L 1778 2750 
Q 2909 2731 3106 3750 
Q 3241 4438 2509 4434 
Q 1691 4434 1503 3459 
L 1019 966 
z
" transform="scale(0.015625)"/>
       <path id="DejaVuSans-3d" d="M 678 2906 
L 4684 2906 
L 4684 2381 
L 678 2381 
L 678 2906 
z
M 678 1631 
L 4684 1631 
L 4684 1100 
L 678 1100 
L 678 1631 
z
" transform="scale(0.015625)"/>
       <path id="DejaVuSans-32" d="M 1228 531 
L 3431 531 
L 3431 0 
L 469 0 
L 469 531 
Q 828 903 1448 1529 
Q 2069 2156 2228 2338 
Q 2531 2678 2651 2914 
Q 2772 3150 2772 3378 
Q 2772 3750 2511 3984 
Q 2250 4219 1831 4219 
Q 1534 4219 1204 4116 
Q 875 4013 500 3803 
L 500 4441 
Q 881 4594 1212 4672 
Q 1544 4750 1819 4750 
Q 2544 4750 2975 4387 
Q 3406 4025 3406 3419 
Q 3406 3131 3298 2873 
Q 3191 2616 2906 2266 
Q 2828 2175 2409 1742 
Q 1991 1309 1228 531 
z
" transform="scale(0.015625)"/>
      </defs>
      <use xlink:href="#DejaVuSerif-57" transform="translate(0 0.390625)"/>
      <use xlink:href="#DejaVuSerif-44" transform="translate(102.783203 0.390625)"/>
      <use xlink:href="#DejaVuSerif-2c" transform="translate(182.958984 0.390625)"/>
      <use xlink:href="#DejaVuSerif-20" transform="translate(214.746094 0.390625)"/>
      <use xlink:href="#DejaVuSans-Oblique-3b2" transform="translate(246.533203 0.390625)"/>
      <use xlink:href="#DejaVuSans-3d" transform="translate(329.833984 0.390625)"/>
      <use xlink:href="#DejaVuSans-32" transform="translate(433.105469 0.390625)"/>
     </g>
    </g>
    <g id="line2d_21">
     <path d="M 305.365354 34.834646 
L 315.365354 34.834646 
L 325.365354 34.834646 
" style="fill: none; stroke: #dd8452; stroke-width: 1.25; stroke-linejoin: miter"/>
    </g>
    <g id="text_12">
     <!-- WD, $\beta = 1$ -->
     <g transform="translate(333.365354 38.334646) scale(0.1 -0.1)">
      <defs>
       <path id="DejaVuSans-31" d="M 794 531 
L 1825 531 
L 1825 4091 
L 703 3866 
L 703 4441 
L 1819 4666 
L 2450 4666 
L 2450 531 
L 3481 531 
L 3481 0 
L 794 0 
L 794 531 
z
" transform="scale(0.015625)"/>
      </defs>
      <use xlink:href="#DejaVuSerif-57" transform="translate(0 0.390625)"/>
      <use xlink:href="#DejaVuSerif-44" transform="translate(102.783203 0.390625)"/>
      <use xlink:href="#DejaVuSerif-2c" transform="translate(182.958984 0.390625)"/>
      <use xlink:href="#DejaVuSerif-20" transform="translate(214.746094 0.390625)"/>
      <use xlink:href="#DejaVuSans-Oblique-3b2" transform="translate(246.533203 0.390625)"/>
      <use xlink:href="#DejaVuSans-3d" transform="translate(329.833984 0.390625)"/>
      <use xlink:href="#DejaVuSans-31" transform="translate(433.105469 0.390625)"/>
     </g>
    </g>
    <g id="line2d_22">
     <path d="M 305.365354 49.533083 
L 315.365354 49.533083 
L 325.365354 49.533083 
" style="fill: none; stroke: #55a868; stroke-width: 1.25; stroke-linejoin: miter"/>
    </g>
    <g id="text_13">
     <!-- $\text{Surmise for GOE}$ -->
     <g transform="translate(333.365354 53.033083) scale(0.1 -0.1)">
      <defs>
       <path id="DejaVuSans-53" d="M 3425 4513 
L 3425 3897 
Q 3066 4069 2747 4153 
Q 2428 4238 2131 4238 
Q 1616 4238 1336 4038 
Q 1056 3838 1056 3469 
Q 1056 3159 1242 3001 
Q 1428 2844 1947 2747 
L 2328 2669 
Q 3034 2534 3370 2195 
Q 3706 1856 3706 1288 
Q 3706 609 3251 259 
Q 2797 -91 1919 -91 
Q 1588 -91 1214 -16 
Q 841 59 441 206 
L 441 856 
Q 825 641 1194 531 
Q 1563 422 1919 422 
Q 2459 422 2753 634 
Q 3047 847 3047 1241 
Q 3047 1584 2836 1778 
Q 2625 1972 2144 2069 
L 1759 2144 
Q 1053 2284 737 2584 
Q 422 2884 422 3419 
Q 422 4038 858 4394 
Q 1294 4750 2059 4750 
Q 2388 4750 2728 4690 
Q 3069 4631 3425 4513 
z
" transform="scale(0.015625)"/>
       <path id="DejaVuSans-75" d="M 544 1381 
L 544 3500 
L 1119 3500 
L 1119 1403 
Q 1119 906 1312 657 
Q 1506 409 1894 409 
Q 2359 409 2629 706 
Q 2900 1003 2900 1516 
L 2900 3500 
L 3475 3500 
L 3475 0 
L 2900 0 
L 2900 538 
Q 2691 219 2414 64 
Q 2138 -91 1772 -91 
Q 1169 -91 856 284 
Q 544 659 544 1381 
z
M 1991 3584 
L 1991 3584 
z
" transform="scale(0.015625)"/>
       <path id="DejaVuSans-72" d="M 2631 2963 
Q 2534 3019 2420 3045 
Q 2306 3072 2169 3072 
Q 1681 3072 1420 2755 
Q 1159 2438 1159 1844 
L 1159 0 
L 581 0 
L 581 3500 
L 1159 3500 
L 1159 2956 
Q 1341 3275 1631 3429 
Q 1922 3584 2338 3584 
Q 2397 3584 2469 3576 
Q 2541 3569 2628 3553 
L 2631 2963 
z
" transform="scale(0.015625)"/>
       <path id="DejaVuSans-6d" d="M 3328 2828 
Q 3544 3216 3844 3400 
Q 4144 3584 4550 3584 
Q 5097 3584 5394 3201 
Q 5691 2819 5691 2113 
L 5691 0 
L 5113 0 
L 5113 2094 
Q 5113 2597 4934 2840 
Q 4756 3084 4391 3084 
Q 3944 3084 3684 2787 
Q 3425 2491 3425 1978 
L 3425 0 
L 2847 0 
L 2847 2094 
Q 2847 2600 2669 2842 
Q 2491 3084 2119 3084 
Q 1678 3084 1418 2786 
Q 1159 2488 1159 1978 
L 1159 0 
L 581 0 
L 581 3500 
L 1159 3500 
L 1159 2956 
Q 1356 3278 1631 3431 
Q 1906 3584 2284 3584 
Q 2666 3584 2933 3390 
Q 3200 3197 3328 2828 
z
" transform="scale(0.015625)"/>
       <path id="DejaVuSans-69" d="M 603 3500 
L 1178 3500 
L 1178 0 
L 603 0 
L 603 3500 
z
M 603 4863 
L 1178 4863 
L 1178 4134 
L 603 4134 
L 603 4863 
z
" transform="scale(0.015625)"/>
       <path id="DejaVuSans-73" d="M 2834 3397 
L 2834 2853 
Q 2591 2978 2328 3040 
Q 2066 3103 1784 3103 
Q 1356 3103 1142 2972 
Q 928 2841 928 2578 
Q 928 2378 1081 2264 
Q 1234 2150 1697 2047 
L 1894 2003 
Q 2506 1872 2764 1633 
Q 3022 1394 3022 966 
Q 3022 478 2636 193 
Q 2250 -91 1575 -91 
Q 1294 -91 989 -36 
Q 684 19 347 128 
L 347 722 
Q 666 556 975 473 
Q 1284 391 1588 391 
Q 1994 391 2212 530 
Q 2431 669 2431 922 
Q 2431 1156 2273 1281 
Q 2116 1406 1581 1522 
L 1381 1569 
Q 847 1681 609 1914 
Q 372 2147 372 2553 
Q 372 3047 722 3315 
Q 1072 3584 1716 3584 
Q 2034 3584 2315 3537 
Q 2597 3491 2834 3397 
z
" transform="scale(0.015625)"/>
       <path id="DejaVuSans-65" d="M 3597 1894 
L 3597 1613 
L 953 1613 
Q 991 1019 1311 708 
Q 1631 397 2203 397 
Q 2534 397 2845 478 
Q 3156 559 3463 722 
L 3463 178 
Q 3153 47 2828 -22 
Q 2503 -91 2169 -91 
Q 1331 -91 842 396 
Q 353 884 353 1716 
Q 353 2575 817 3079 
Q 1281 3584 2069 3584 
Q 2775 3584 3186 3129 
Q 3597 2675 3597 1894 
z
M 3022 2063 
Q 3016 2534 2758 2815 
Q 2500 3097 2075 3097 
Q 1594 3097 1305 2825 
Q 1016 2553 972 2059 
L 3022 2063 
z
" transform="scale(0.015625)"/>
       <path id="DejaVuSans-20" transform="scale(0.015625)"/>
       <path id="DejaVuSans-66" d="M 2375 4863 
L 2375 4384 
L 1825 4384 
Q 1516 4384 1395 4259 
Q 1275 4134 1275 3809 
L 1275 3500 
L 2222 3500 
L 2222 3053 
L 1275 3053 
L 1275 0 
L 697 0 
L 697 3053 
L 147 3053 
L 147 3500 
L 697 3500 
L 697 3744 
Q 697 4328 969 4595 
Q 1241 4863 1831 4863 
L 2375 4863 
z
" transform="scale(0.015625)"/>
       <path id="DejaVuSans-6f" d="M 1959 3097 
Q 1497 3097 1228 2736 
Q 959 2375 959 1747 
Q 959 1119 1226 758 
Q 1494 397 1959 397 
Q 2419 397 2687 759 
Q 2956 1122 2956 1747 
Q 2956 2369 2687 2733 
Q 2419 3097 1959 3097 
z
M 1959 3584 
Q 2709 3584 3137 3096 
Q 3566 2609 3566 1747 
Q 3566 888 3137 398 
Q 2709 -91 1959 -91 
Q 1206 -91 779 398 
Q 353 888 353 1747 
Q 353 2609 779 3096 
Q 1206 3584 1959 3584 
z
" transform="scale(0.015625)"/>
       <path id="DejaVuSans-47" d="M 3809 666 
L 3809 1919 
L 2778 1919 
L 2778 2438 
L 4434 2438 
L 4434 434 
Q 4069 175 3628 42 
Q 3188 -91 2688 -91 
Q 1594 -91 976 548 
Q 359 1188 359 2328 
Q 359 3472 976 4111 
Q 1594 4750 2688 4750 
Q 3144 4750 3555 4637 
Q 3966 4525 4313 4306 
L 4313 3634 
Q 3963 3931 3569 4081 
Q 3175 4231 2741 4231 
Q 1884 4231 1454 3753 
Q 1025 3275 1025 2328 
Q 1025 1384 1454 906 
Q 1884 428 2741 428 
Q 3075 428 3337 486 
Q 3600 544 3809 666 
z
" transform="scale(0.015625)"/>
       <path id="DejaVuSans-4f" d="M 2522 4238 
Q 1834 4238 1429 3725 
Q 1025 3213 1025 2328 
Q 1025 1447 1429 934 
Q 1834 422 2522 422 
Q 3209 422 3611 934 
Q 4013 1447 4013 2328 
Q 4013 3213 3611 3725 
Q 3209 4238 2522 4238 
z
M 2522 4750 
Q 3503 4750 4090 4092 
Q 4678 3434 4678 2328 
Q 4678 1225 4090 567 
Q 3503 -91 2522 -91 
Q 1538 -91 948 565 
Q 359 1222 359 2328 
Q 359 3434 948 4092 
Q 1538 4750 2522 4750 
z
" transform="scale(0.015625)"/>
       <path id="DejaVuSans-45" d="M 628 4666 
L 3578 4666 
L 3578 4134 
L 1259 4134 
L 1259 2753 
L 3481 2753 
L 3481 2222 
L 1259 2222 
L 1259 531 
L 3634 531 
L 3634 0 
L 628 0 
L 628 4666 
z
" transform="scale(0.015625)"/>
      </defs>
      <use xlink:href="#DejaVuSans-53" transform="translate(0 0.015625)"/>
      <use xlink:href="#DejaVuSans-75" transform="translate(63.476562 0.015625)"/>
      <use xlink:href="#DejaVuSans-72" transform="translate(126.855469 0.015625)"/>
      <use xlink:href="#DejaVuSans-6d" transform="translate(167.96875 0.015625)"/>
      <use xlink:href="#DejaVuSans-69" transform="translate(265.380859 0.015625)"/>
      <use xlink:href="#DejaVuSans-73" transform="translate(293.164062 0.015625)"/>
      <use xlink:href="#DejaVuSans-65" transform="translate(345.263672 0.015625)"/>
      <use xlink:href="#DejaVuSans-20" transform="translate(406.787109 0.015625)"/>
      <use xlink:href="#DejaVuSans-66" transform="translate(438.574219 0.015625)"/>
      <use xlink:href="#DejaVuSans-6f" transform="translate(473.779297 0.015625)"/>
      <use xlink:href="#DejaVuSans-72" transform="translate(534.960938 0.015625)"/>
      <use xlink:href="#DejaVuSans-20" transform="translate(576.074219 0.015625)"/>
      <use xlink:href="#DejaVuSans-47" transform="translate(607.861328 0.015625)"/>
      <use xlink:href="#DejaVuSans-4f" transform="translate(685.351562 0.015625)"/>
      <use xlink:href="#DejaVuSans-45" transform="translate(764.0625 0.015625)"/>
     </g>
    </g>
    <g id="line2d_23">
     <path d="M 305.365354 64.211208 
L 315.365354 64.211208 
L 325.365354 64.211208 
" style="fill: none"/>
     <defs>
      <path id="md679875c7b" d="M -4 0 
L 4 0 
M 0 4 
L 0 -4 
" style="stroke: #000000; stroke-width: 1.142857"/>
     </defs>
     <g>
      <use xlink:href="#md679875c7b" x="315.365354" y="64.211208" style="fill: #4c72b0; stroke: #000000; stroke-width: 1.142857"/>
     </g>
    </g>
    <g id="text_14">
     <!-- Haar -->
     <g transform="translate(333.365354 67.711208) scale(0.1 -0.1)">
      <defs>
       <path id="DejaVuSerif-48" d="M 353 0 
L 353 331 
L 947 331 
L 947 4331 
L 353 4331 
L 353 4666 
L 2175 4666 
L 2175 4331 
L 1581 4331 
L 1581 2719 
L 4000 2719 
L 4000 4331 
L 3406 4331 
L 3406 4666 
L 5228 4666 
L 5228 4331 
L 4634 4331 
L 4634 331 
L 5228 331 
L 5228 0 
L 3406 0 
L 3406 331 
L 4000 331 
L 4000 2338 
L 1581 2338 
L 1581 331 
L 2175 331 
L 2175 0 
L 353 0 
z
" transform="scale(0.015625)"/>
       <path id="DejaVuSerif-61" d="M 2547 1044 
L 2547 1747 
L 1806 1747 
Q 1378 1747 1168 1562 
Q 959 1378 959 997 
Q 959 650 1171 447 
Q 1384 244 1747 244 
Q 2106 244 2326 466 
Q 2547 688 2547 1044 
z
M 3122 2075 
L 3122 331 
L 3634 331 
L 3634 0 
L 2547 0 
L 2547 359 
Q 2356 128 2106 18 
Q 1856 -91 1522 -91 
Q 969 -91 644 203 
Q 319 497 319 997 
Q 319 1513 691 1797 
Q 1063 2081 1741 2081 
L 2547 2081 
L 2547 2309 
Q 2547 2688 2317 2895 
Q 2088 3103 1672 3103 
Q 1328 3103 1125 2947 
Q 922 2791 872 2484 
L 575 2484 
L 575 3156 
Q 875 3284 1158 3348 
Q 1441 3413 1709 3413 
Q 2400 3413 2761 3070 
Q 3122 2728 3122 2075 
z
" transform="scale(0.015625)"/>
       <path id="DejaVuSerif-72" d="M 3059 3328 
L 3059 2497 
L 2728 2497 
Q 2713 2744 2591 2866 
Q 2469 2988 2234 2988 
Q 1809 2988 1582 2694 
Q 1356 2400 1356 1850 
L 1356 331 
L 2022 331 
L 2022 0 
L 263 0 
L 263 331 
L 781 331 
L 781 2994 
L 231 2994 
L 231 3322 
L 1356 3322 
L 1356 2731 
Q 1525 3078 1790 3245 
Q 2056 3413 2438 3413 
Q 2578 3413 2733 3391 
Q 2888 3369 3059 3328 
z
" transform="scale(0.015625)"/>
      </defs>
      <use xlink:href="#DejaVuSerif-48"/>
      <use xlink:href="#DejaVuSerif-61" x="87.207031"/>
      <use xlink:href="#DejaVuSerif-61" x="146.826172"/>
      <use xlink:href="#DejaVuSerif-72" x="206.445312"/>
     </g>
    </g>
    <g id="line2d_24">
     <path d="M 305.365354 78.889333 
L 315.365354 78.889333 
L 325.365354 78.889333 
" style="fill: none"/>
     <defs>
      <path id="m4e8bb9bda4" d="M -4 0 
L 4 0 
M 0 4 
L 0 -4 
" style="stroke: #000000; stroke-width: 1.142857"/>
     </defs>
     <g>
      <use xlink:href="#m4e8bb9bda4" x="315.365354" y="78.889333" style="fill: #dd8452; stroke: #000000; stroke-width: 1.142857"/>
     </g>
    </g>
    <g id="text_15">
     <!-- GUE -->
     <g transform="translate(333.365354 82.389333) scale(0.1 -0.1)">
      <defs>
       <path id="DejaVuSerif-47" d="M 4097 3272 
Q 3988 3856 3641 4136 
Q 3294 4416 2675 4416 
Q 1869 4416 1472 3897 
Q 1075 3378 1075 2328 
Q 1075 1300 1484 772 
Q 1894 244 2688 244 
Q 3041 244 3362 331 
Q 3684 419 3975 594 
L 3975 1797 
L 3097 1797 
L 3097 2131 
L 4609 2131 
L 4609 391 
Q 4194 150 3714 29 
Q 3234 -91 2688 -91 
Q 1631 -91 995 570 
Q 359 1231 359 2328 
Q 359 3434 996 4092 
Q 1634 4750 2713 4750 
Q 3113 4750 3539 4658 
Q 3966 4566 4447 4378 
L 4447 3272 
L 4097 3272 
z
" transform="scale(0.015625)"/>
       <path id="DejaVuSerif-55" d="M 897 4331 
L 300 4331 
L 300 4666 
L 2125 4666 
L 2125 4331 
L 1528 4331 
L 1528 1919 
Q 1528 1025 1820 672 
Q 2113 319 2828 319 
Q 3544 319 3836 672 
Q 4128 1025 4128 1919 
L 4128 4331 
L 3531 4331 
L 3531 4666 
L 5106 4666 
L 5106 4331 
L 4513 4331 
L 4513 1856 
Q 4513 791 4103 350 
Q 3694 -91 2713 -91 
Q 1731 -91 1314 353 
Q 897 797 897 1856 
L 897 4331 
z
" transform="scale(0.015625)"/>
       <path id="DejaVuSerif-45" d="M 353 0 
L 353 331 
L 947 331 
L 947 4331 
L 353 4331 
L 353 4666 
L 4109 4666 
L 4109 3628 
L 3725 3628 
L 3725 4281 
L 1581 4281 
L 1581 2719 
L 3109 2719 
L 3109 3303 
L 3494 3303 
L 3494 1753 
L 3109 1753 
L 3109 2338 
L 1581 2338 
L 1581 384 
L 3775 384 
L 3775 1038 
L 4159 1038 
L 4159 0 
L 353 0 
z
" transform="scale(0.015625)"/>
      </defs>
      <use xlink:href="#DejaVuSerif-47"/>
      <use xlink:href="#DejaVuSerif-55" x="79.882812"/>
      <use xlink:href="#DejaVuSerif-45" x="164.160156"/>
     </g>
    </g>
    <g id="line2d_25">
     <path d="M 305.365354 93.567458 
L 315.365354 93.567458 
L 325.365354 93.567458 
" style="fill: none"/>
     <defs>
      <path id="mf236702c1b" d="M -4 0 
L 4 0 
M 0 4 
L 0 -4 
" style="stroke: #000000; stroke-width: 1.142857"/>
     </defs>
     <g>
      <use xlink:href="#mf236702c1b" x="315.365354" y="93.567458" style="fill: #55a868; stroke: #000000; stroke-width: 1.142857"/>
     </g>
    </g>
    <g id="text_16">
     <!-- GOE -->
     <g transform="translate(333.365354 97.067458) scale(0.1 -0.1)">
      <defs>
       <path id="DejaVuSerif-4f" d="M 2625 244 
Q 3391 244 3781 770 
Q 4172 1297 4172 2328 
Q 4172 3363 3781 3889 
Q 3391 4416 2625 4416 
Q 1856 4416 1465 3889 
Q 1075 3363 1075 2328 
Q 1075 1297 1465 770 
Q 1856 244 2625 244 
z
M 2625 -91 
Q 2150 -91 1751 65 
Q 1353 222 1050 525 
Q 700 875 529 1319 
Q 359 1763 359 2328 
Q 359 2894 529 3339 
Q 700 3784 1050 4134 
Q 1356 4441 1750 4595 
Q 2144 4750 2625 4750 
Q 3641 4750 4266 4084 
Q 4891 3419 4891 2328 
Q 4891 1769 4719 1320 
Q 4547 872 4197 525 
Q 3891 219 3497 64 
Q 3103 -91 2625 -91 
z
" transform="scale(0.015625)"/>
      </defs>
      <use xlink:href="#DejaVuSerif-47"/>
      <use xlink:href="#DejaVuSerif-4f" x="79.882812"/>
      <use xlink:href="#DejaVuSerif-45" x="161.865234"/>
     </g>
    </g>
    <g id="line2d_26">
     <path d="M 305.365354 108.245583 
L 315.365354 108.245583 
L 325.365354 108.245583 
" style="fill: none"/>
     <defs>
      <path id="mceb276fd69" d="M -1.530734 -3.695518 
L -3.695518 -1.530734 
L -3.695518 1.530734 
L -1.530734 3.695518 
L 1.530734 3.695518 
L 3.695518 1.530734 
L 3.695518 -1.530734 
L 1.530734 -3.695518 
z
"/>
     </defs>
     <g>
      <use xlink:href="#mceb276fd69" x="315.365354" y="108.245583" style="fill: #dd8452"/>
     </g>
    </g>
    <g id="text_17">
     <!-- Haar -->
     <g transform="translate(333.365354 111.745583) scale(0.1 -0.1)">
      <use xlink:href="#DejaVuSerif-48"/>
      <use xlink:href="#DejaVuSerif-61" x="87.207031"/>
      <use xlink:href="#DejaVuSerif-61" x="146.826172"/>
      <use xlink:href="#DejaVuSerif-72" x="206.445312"/>
     </g>
    </g>
    <g id="line2d_27">
     <path d="M 305.365354 122.923708 
L 315.365354 122.923708 
L 325.365354 122.923708 
" style="fill: none"/>
     <defs>
      <path id="meffcf77202" d="M -1.530734 -3.695518 
L -3.695518 -1.530734 
L -3.695518 1.530734 
L -1.530734 3.695518 
L 1.530734 3.695518 
L 3.695518 1.530734 
L 3.695518 -1.530734 
L 1.530734 -3.695518 
z
"/>
     </defs>
     <g>
      <use xlink:href="#meffcf77202" x="315.365354" y="122.923708" style="fill: #55a868"/>
     </g>
    </g>
    <g id="text_18">
     <!-- GUE -->
     <g transform="translate(333.365354 126.423708) scale(0.1 -0.1)">
      <use xlink:href="#DejaVuSerif-47"/>
      <use xlink:href="#DejaVuSerif-55" x="79.882812"/>
      <use xlink:href="#DejaVuSerif-45" x="164.160156"/>
     </g>
    </g>
   </g>
  </g>
 </g>
 <defs>
  <clipPath id="pcb575cb8d0">
   <rect x="42.32112" y="2.834646" width="386.844234" height="251.790709"/>
  </clipPath>
 </defs>
</svg>
