<?xml version="1.0" encoding="utf-8" standalone="no"?>
<!DOCTYPE svg PUBLIC "-//W3C//DTD SVG 1.1//EN"
  "http://www.w3.org/Graphics/SVG/1.1/DTD/svg11.dtd">
<svg xmlns:xlink="http://www.w3.org/1999/xlink" width="432pt" height="288pt" viewBox="0 0 432 288" xmlns="http://www.w3.org/2000/svg" version="1.1">
 <metadata>
  <rdf:RDF xmlns:dc="http://purl.org/dc/elements/1.1/" xmlns:cc="http://creativecommons.org/ns#" xmlns:rdf="http://www.w3.org/1999/02/22-rdf-syntax-ns#">
   <cc:Work>
    <dc:type rdf:resource="http://purl.org/dc/dcmitype/StillImage"/>
    <dc:date>2025-06-07T10:47:07.713921</dc:date>
    <dc:format>image/svg+xml</dc:format>
    <dc:creator>
     <cc:Agent>
      <dc:title>Matplotlib v3.9.2, https://matplotlib.org/</dc:title>
     </cc:Agent>
    </dc:creator>
   </cc:Work>
  </rdf:RDF>
 </metadata>
 <defs>
  <style type="text/css">*{stroke-linejoin: round; stroke-linecap: butt}</style>
 </defs>
 <g id="figure_1">
  <g id="patch_1">
   <path d="M 0 288 
L 432 288 
L 432 0 
L 0 0 
z
" style="fill: #ffffff"/>
  </g>
  <g id="axes_1">
   <g id="patch_2">
    <path d="M 32.789646 254.625354 
L 429.165354 254.625354 
L 429.165354 21.722646 
L 32.789646 21.722646 
z
" style="fill: #ffffff"/>
   </g>
   <g id="PathCollection_1">
    <defs>
     <path id="m9f36500b89" d="M -2.5 2.5 
L 2.5 -2.5 
M -2.5 -2.5 
L 2.5 2.5 
" style="stroke: #4c72b0"/>
    </defs>
    <g clip-path="url(#pcc81f4d920)">
     <use xlink:href="#m9f36500b89" x="47.862871" y="162.339016" style="fill: #4c72b0; stroke: #4c72b0"/>
     <use xlink:href="#m9f36500b89" x="55.572961" y="212.851495" style="fill: #4c72b0; stroke: #4c72b0"/>
     <use xlink:href="#m9f36500b89" x="63.28305" y="221.343768" style="fill: #4c72b0; stroke: #4c72b0"/>
     <use xlink:href="#m9f36500b89" x="70.99314" y="225.975917" style="fill: #4c72b0; stroke: #4c72b0"/>
     <use xlink:href="#m9f36500b89" x="78.70323" y="228.733148" style="fill: #4c72b0; stroke: #4c72b0"/>
     <use xlink:href="#m9f36500b89" x="86.413319" y="230.828644" style="fill: #4c72b0; stroke: #4c72b0"/>
     <use xlink:href="#m9f36500b89" x="94.123409" y="232.152115" style="fill: #4c72b0; stroke: #4c72b0"/>
     <use xlink:href="#m9f36500b89" x="101.833498" y="233.806454" style="fill: #4c72b0; stroke: #4c72b0"/>
     <use xlink:href="#m9f36500b89" x="109.543588" y="234.578479" style="fill: #4c72b0; stroke: #4c72b0"/>
     <use xlink:href="#m9f36500b89" x="117.253678" y="235.791661" style="fill: #4c72b0; stroke: #4c72b0"/>
     <use xlink:href="#m9f36500b89" x="124.963767" y="236.453396" style="fill: #4c72b0; stroke: #4c72b0"/>
     <use xlink:href="#m9f36500b89" x="132.673857" y="237.004843" style="fill: #4c72b0; stroke: #4c72b0"/>
     <use xlink:href="#m9f36500b89" x="140.383947" y="237.887157" style="fill: #4c72b0; stroke: #4c72b0"/>
     <use xlink:href="#m9f36500b89" x="148.094036" y="238.218024" style="fill: #4c72b0; stroke: #4c72b0"/>
     <use xlink:href="#m9f36500b89" x="155.804126" y="238.548892" style="fill: #4c72b0; stroke: #4c72b0"/>
     <use xlink:href="#m9f36500b89" x="163.514216" y="239.320917" style="fill: #4c72b0; stroke: #4c72b0"/>
     <use xlink:href="#m9f36500b89" x="171.224305" y="239.651785" style="fill: #4c72b0; stroke: #4c72b0"/>
     <use xlink:href="#m9f36500b89" x="178.934395" y="240.092942" style="fill: #4c72b0; stroke: #4c72b0"/>
     <use xlink:href="#m9f36500b89" x="186.644485" y="240.092942" style="fill: #4c72b0; stroke: #4c72b0"/>
     <use xlink:href="#m9f36500b89" x="194.354574" y="240.864967" style="fill: #4c72b0; stroke: #4c72b0"/>
     <use xlink:href="#m9f36500b89" x="202.064664" y="241.085545" style="fill: #4c72b0; stroke: #4c72b0"/>
     <use xlink:href="#m9f36500b89" x="209.774753" y="241.416413" style="fill: #4c72b0; stroke: #4c72b0"/>
     <use xlink:href="#m9f36500b89" x="217.484843" y="241.526702" style="fill: #4c72b0; stroke: #4c72b0"/>
     <use xlink:href="#m9f36500b89" x="225.194933" y="241.967859" style="fill: #4c72b0; stroke: #4c72b0"/>
     <use xlink:href="#m9f36500b89" x="232.905022" y="242.078148" style="fill: #4c72b0; stroke: #4c72b0"/>
     <use xlink:href="#m9f36500b89" x="240.615112" y="242.519305" style="fill: #4c72b0; stroke: #4c72b0"/>
     <use xlink:href="#m9f36500b89" x="248.325202" y="242.629595" style="fill: #4c72b0; stroke: #4c72b0"/>
     <use xlink:href="#m9f36500b89" x="256.035291" y="242.850173" style="fill: #4c72b0; stroke: #4c72b0"/>
     <use xlink:href="#m9f36500b89" x="263.745381" y="243.29133" style="fill: #4c72b0; stroke: #4c72b0"/>
     <use xlink:href="#m9f36500b89" x="271.455471" y="243.401619" style="fill: #4c72b0; stroke: #4c72b0"/>
     <use xlink:href="#m9f36500b89" x="279.16556" y="243.511909" style="fill: #4c72b0; stroke: #4c72b0"/>
     <use xlink:href="#m9f36500b89" x="286.87565" y="243.953066" style="fill: #4c72b0; stroke: #4c72b0"/>
     <use xlink:href="#m9f36500b89" x="294.58574" y="243.953066" style="fill: #4c72b0; stroke: #4c72b0"/>
     <use xlink:href="#m9f36500b89" x="302.295829" y="244.504512" style="fill: #4c72b0; stroke: #4c72b0"/>
     <use xlink:href="#m9f36500b89" x="310.005919" y="244.394223" style="fill: #4c72b0; stroke: #4c72b0"/>
     <use xlink:href="#m9f36500b89" x="317.716009" y="244.945669" style="fill: #4c72b0; stroke: #4c72b0"/>
     <use xlink:href="#m9f36500b89" x="325.426098" y="244.945669" style="fill: #4c72b0; stroke: #4c72b0"/>
     <use xlink:href="#m9f36500b89" x="333.136188" y="245.276537" style="fill: #4c72b0; stroke: #4c72b0"/>
     <use xlink:href="#m9f36500b89" x="340.846277" y="245.497115" style="fill: #4c72b0; stroke: #4c72b0"/>
     <use xlink:href="#m9f36500b89" x="348.556367" y="245.717694" style="fill: #4c72b0; stroke: #4c72b0"/>
     <use xlink:href="#m9f36500b89" x="356.266457" y="245.938272" style="fill: #4c72b0; stroke: #4c72b0"/>
     <use xlink:href="#m9f36500b89" x="363.976546" y="246.379429" style="fill: #4c72b0; stroke: #4c72b0"/>
     <use xlink:href="#m9f36500b89" x="371.686636" y="246.600008" style="fill: #4c72b0; stroke: #4c72b0"/>
     <use xlink:href="#m9f36500b89" x="379.396726" y="247.041165" style="fill: #4c72b0; stroke: #4c72b0"/>
     <use xlink:href="#m9f36500b89" x="387.106815" y="247.81319" style="fill: #4c72b0; stroke: #4c72b0"/>
     <use xlink:href="#m9f36500b89" x="394.816905" y="248.033768" style="fill: #4c72b0; stroke: #4c72b0"/>
     <use xlink:href="#m9f36500b89" x="402.526995" y="248.033768" style="fill: #4c72b0; stroke: #4c72b0"/>
     <use xlink:href="#m9f36500b89" x="410.237084" y="248.033768" style="fill: #4c72b0; stroke: #4c72b0"/>
     <use xlink:href="#m9f36500b89" x="417.947174" y="248.033768" style="fill: #4c72b0; stroke: #4c72b0"/>
    </g>
   </g>
   <g id="matplotlib.axis_1">
    <g id="xtick_1">
     <g id="line2d_1">
      <defs>
       <path id="m8e014241bf" d="M 0 0 
L 0 -2.5 
" style="stroke: #000000; stroke-width: 0.5"/>
      </defs>
      <g>
       <use xlink:href="#m8e014241bf" x="44.007826" y="254.625354" style="stroke: #000000; stroke-width: 0.5"/>
      </g>
     </g>
     <g id="line2d_2">
      <defs>
       <path id="m3e45e50018" d="M 0 0 
L 0 2.5 
" style="stroke: #000000; stroke-width: 0.5"/>
      </defs>
      <g>
       <use xlink:href="#m3e45e50018" x="44.007826" y="21.722646" style="stroke: #000000; stroke-width: 0.5"/>
      </g>
     </g>
     <g id="text_1">
      <!-- $0$ -->
      <g transform="translate(40.807826 265.723792) scale(0.1 -0.1)">
       <defs>
        <path id="DejaVuSerif-30" d="M 2034 219 
Q 2513 219 2750 744 
Q 2988 1269 2988 2328 
Q 2988 3391 2750 3916 
Q 2513 4441 2034 4441 
Q 1556 4441 1318 3916 
Q 1081 3391 1081 2328 
Q 1081 1269 1318 744 
Q 1556 219 2034 219 
z
M 2034 -91 
Q 1275 -91 848 546 
Q 422 1184 422 2328 
Q 422 3475 848 4112 
Q 1275 4750 2034 4750 
Q 2797 4750 3222 4112 
Q 3647 3475 3647 2328 
Q 3647 1184 3222 546 
Q 2797 -91 2034 -91 
z
" transform="scale(0.015625)"/>
       </defs>
       <use xlink:href="#DejaVuSerif-30" transform="translate(0 0.78125)"/>
      </g>
     </g>
    </g>
    <g id="xtick_2">
     <g id="line2d_3">
      <g>
       <use xlink:href="#m8e014241bf" x="129.870188" y="254.625354" style="stroke: #000000; stroke-width: 0.5"/>
      </g>
     </g>
     <g id="line2d_4">
      <g>
       <use xlink:href="#m3e45e50018" x="129.870188" y="21.722646" style="stroke: #000000; stroke-width: 0.5"/>
      </g>
     </g>
     <g id="text_2">
      <!-- $1$ -->
      <g transform="translate(126.670188 265.723792) scale(0.1 -0.1)">
       <defs>
        <path id="DejaVuSerif-31" d="M 909 0 
L 909 331 
L 1722 331 
L 1722 4213 
L 781 3603 
L 781 4013 
L 1919 4750 
L 2350 4750 
L 2350 331 
L 3163 331 
L 3163 0 
L 909 0 
z
" transform="scale(0.015625)"/>
       </defs>
       <use xlink:href="#DejaVuSerif-31" transform="translate(0 0.78125)"/>
      </g>
     </g>
    </g>
    <g id="xtick_3">
     <g id="line2d_5">
      <g>
       <use xlink:href="#m8e014241bf" x="215.73255" y="254.625354" style="stroke: #000000; stroke-width: 0.5"/>
      </g>
     </g>
     <g id="line2d_6">
      <g>
       <use xlink:href="#m3e45e50018" x="215.73255" y="21.722646" style="stroke: #000000; stroke-width: 0.5"/>
      </g>
     </g>
     <g id="text_3">
      <!-- $2$ -->
      <g transform="translate(212.53255 265.723792) scale(0.1 -0.1)">
       <defs>
        <path id="DejaVuSerif-32" d="M 819 3553 
L 469 3553 
L 469 4384 
Q 803 4563 1142 4656 
Q 1481 4750 1806 4750 
Q 2534 4750 2956 4397 
Q 3378 4044 3378 3438 
Q 3378 2753 2422 1800 
Q 2347 1728 2309 1691 
L 1131 513 
L 3078 513 
L 3078 1088 
L 3444 1088 
L 3444 0 
L 434 0 
L 434 341 
L 1850 1753 
Q 2319 2222 2519 2614 
Q 2719 3006 2719 3438 
Q 2719 3909 2473 4175 
Q 2228 4441 1797 4441 
Q 1350 4441 1106 4219 
Q 863 3997 819 3553 
z
" transform="scale(0.015625)"/>
       </defs>
       <use xlink:href="#DejaVuSerif-32" transform="translate(0 0.78125)"/>
      </g>
     </g>
    </g>
    <g id="xtick_4">
     <g id="line2d_7">
      <g>
       <use xlink:href="#m8e014241bf" x="301.594912" y="254.625354" style="stroke: #000000; stroke-width: 0.5"/>
      </g>
     </g>
     <g id="line2d_8">
      <g>
       <use xlink:href="#m3e45e50018" x="301.594912" y="21.722646" style="stroke: #000000; stroke-width: 0.5"/>
      </g>
     </g>
     <g id="text_4">
      <!-- $3$ -->
      <g transform="translate(298.394912 265.723792) scale(0.1 -0.1)">
       <defs>
        <path id="DejaVuSerif-33" d="M 622 4469 
Q 988 4606 1323 4678 
Q 1659 4750 1953 4750 
Q 2638 4750 3022 4454 
Q 3406 4159 3406 3634 
Q 3406 3213 3140 2930 
Q 2875 2647 2388 2547 
Q 2963 2466 3280 2130 
Q 3597 1794 3597 1259 
Q 3597 606 3158 257 
Q 2719 -91 1894 -91 
Q 1528 -91 1179 -12 
Q 831 66 488 225 
L 488 1131 
L 838 1131 
Q 869 681 1141 450 
Q 1413 219 1906 219 
Q 2384 219 2661 495 
Q 2938 772 2938 1253 
Q 2938 1803 2653 2086 
Q 2369 2369 1819 2369 
L 1522 2369 
L 1522 2688 
L 1678 2688 
Q 2225 2688 2498 2914 
Q 2772 3141 2772 3597 
Q 2772 4006 2547 4223 
Q 2322 4441 1900 4441 
Q 1478 4441 1245 4241 
Q 1013 4041 972 3647 
L 622 3647 
L 622 4469 
z
" transform="scale(0.015625)"/>
       </defs>
       <use xlink:href="#DejaVuSerif-33" transform="translate(0 0.78125)"/>
      </g>
     </g>
    </g>
    <g id="xtick_5">
     <g id="line2d_9">
      <g>
       <use xlink:href="#m8e014241bf" x="387.457274" y="254.625354" style="stroke: #000000; stroke-width: 0.5"/>
      </g>
     </g>
     <g id="line2d_10">
      <g>
       <use xlink:href="#m3e45e50018" x="387.457274" y="21.722646" style="stroke: #000000; stroke-width: 0.5"/>
      </g>
     </g>
     <g id="text_5">
      <!-- $4$ -->
      <g transform="translate(384.257274 265.723792) scale(0.1 -0.1)">
       <defs>
        <path id="DejaVuSerif-34" d="M 2234 1581 
L 2234 4063 
L 641 1581 
L 2234 1581 
z
M 3609 0 
L 1484 0 
L 1484 331 
L 2234 331 
L 2234 1247 
L 197 1247 
L 197 1588 
L 2241 4750 
L 2859 4750 
L 2859 1581 
L 3750 1581 
L 3750 1247 
L 2859 1247 
L 2859 331 
L 3609 331 
L 3609 0 
z
" transform="scale(0.015625)"/>
       </defs>
       <use xlink:href="#DejaVuSerif-34" transform="translate(0 0.78125)"/>
      </g>
     </g>
    </g>
    <g id="text_6">
     <!-- $\lambda$ -->
     <g transform="translate(227.1375 280.921604) scale(0.12 -0.12)">
      <defs>
       <path id="DejaVuSerif-Italic-3bb" d="M 1984 4084 
Q 1925 4372 1834 4466 
Q 1744 4563 1578 4563 
Q 1391 4563 1288 4472 
Q 1178 4378 1119 4166 
L 825 4166 
L 947 4800 
Q 1113 4847 1272 4872 
Q 1431 4897 1578 4897 
Q 1925 4897 2088 4753 
Q 2253 4613 2334 4225 
L 3100 334 
L 3472 334 
L 3406 0 
L 2159 0 
L 2225 334 
L 2722 334 
L 2281 2628 
L 853 334 
L 1384 334 
L 1319 0 
L -209 0 
L -144 334 
L 234 334 
L 2116 3388 
L 1984 4084 
z
" transform="scale(0.015625)"/>
      </defs>
      <use xlink:href="#DejaVuSerif-Italic-3bb" transform="translate(0 0.484375)"/>
     </g>
    </g>
   </g>
   <g id="matplotlib.axis_2">
    <g id="ytick_1">
     <g id="line2d_11">
      <defs>
       <path id="ma27f83bdc0" d="M 0 0 
L 2.5 0 
" style="stroke: #000000; stroke-width: 0.5"/>
      </defs>
      <g>
       <use xlink:href="#ma27f83bdc0" x="32.789646" y="248.033768" style="stroke: #000000; stroke-width: 0.5"/>
      </g>
     </g>
     <g id="line2d_12">
      <defs>
       <path id="me8a06a9f75" d="M 0 0 
L -2.5 0 
" style="stroke: #000000; stroke-width: 0.5"/>
      </defs>
      <g>
       <use xlink:href="#me8a06a9f75" x="429.165354" y="248.033768" style="stroke: #000000; stroke-width: 0.5"/>
      </g>
     </g>
     <g id="text_7">
      <!-- $0$ -->
      <g transform="translate(22.889646 251.832987) scale(0.1 -0.1)">
       <use xlink:href="#DejaVuSerif-30" transform="translate(0 0.78125)"/>
      </g>
     </g>
    </g>
    <g id="ytick_2">
     <g id="line2d_13">
      <g>
       <use xlink:href="#ma27f83bdc0" x="32.789646" y="207.46893" style="stroke: #000000; stroke-width: 0.5"/>
      </g>
     </g>
     <g id="line2d_14">
      <g>
       <use xlink:href="#me8a06a9f75" x="429.165354" y="207.46893" style="stroke: #000000; stroke-width: 0.5"/>
      </g>
     </g>
     <g id="text_8">
      <!-- $1$ -->
      <g transform="translate(22.889646 211.268148) scale(0.1 -0.1)">
       <use xlink:href="#DejaVuSerif-31" transform="translate(0 0.78125)"/>
      </g>
     </g>
    </g>
    <g id="ytick_3">
     <g id="line2d_15">
      <g>
       <use xlink:href="#ma27f83bdc0" x="32.789646" y="166.904091" style="stroke: #000000; stroke-width: 0.5"/>
      </g>
     </g>
     <g id="line2d_16">
      <g>
       <use xlink:href="#me8a06a9f75" x="429.165354" y="166.904091" style="stroke: #000000; stroke-width: 0.5"/>
      </g>
     </g>
     <g id="text_9">
      <!-- $2$ -->
      <g transform="translate(22.889646 170.70331) scale(0.1 -0.1)">
       <use xlink:href="#DejaVuSerif-32" transform="translate(0 0.78125)"/>
      </g>
     </g>
    </g>
    <g id="ytick_4">
     <g id="line2d_17">
      <g>
       <use xlink:href="#ma27f83bdc0" x="32.789646" y="126.339252" style="stroke: #000000; stroke-width: 0.5"/>
      </g>
     </g>
     <g id="line2d_18">
      <g>
       <use xlink:href="#me8a06a9f75" x="429.165354" y="126.339252" style="stroke: #000000; stroke-width: 0.5"/>
      </g>
     </g>
     <g id="text_10">
      <!-- $3$ -->
      <g transform="translate(22.889646 130.138471) scale(0.1 -0.1)">
       <use xlink:href="#DejaVuSerif-33" transform="translate(0 0.78125)"/>
      </g>
     </g>
    </g>
    <g id="ytick_5">
     <g id="line2d_19">
      <g>
       <use xlink:href="#ma27f83bdc0" x="32.789646" y="85.774414" style="stroke: #000000; stroke-width: 0.5"/>
      </g>
     </g>
     <g id="line2d_20">
      <g>
       <use xlink:href="#me8a06a9f75" x="429.165354" y="85.774414" style="stroke: #000000; stroke-width: 0.5"/>
      </g>
     </g>
     <g id="text_11">
      <!-- $4$ -->
      <g transform="translate(22.889646 89.573633) scale(0.1 -0.1)">
       <use xlink:href="#DejaVuSerif-34" transform="translate(0 0.78125)"/>
      </g>
     </g>
    </g>
    <g id="ytick_6">
     <g id="line2d_21">
      <g>
       <use xlink:href="#ma27f83bdc0" x="32.789646" y="45.209575" style="stroke: #000000; stroke-width: 0.5"/>
      </g>
     </g>
     <g id="line2d_22">
      <g>
       <use xlink:href="#me8a06a9f75" x="429.165354" y="45.209575" style="stroke: #000000; stroke-width: 0.5"/>
      </g>
     </g>
     <g id="text_12">
      <!-- $5$ -->
      <g transform="translate(22.889646 49.008794) scale(0.1 -0.1)">
       <defs>
        <path id="DejaVuSerif-35" d="M 3219 4666 
L 3219 4153 
L 1081 4153 
L 1081 2816 
Q 1244 2928 1461 2984 
Q 1678 3041 1947 3041 
Q 2703 3041 3140 2622 
Q 3578 2203 3578 1478 
Q 3578 738 3136 323 
Q 2694 -91 1894 -91 
Q 1572 -91 1234 -12 
Q 897 66 544 225 
L 544 1131 
L 897 1131 
Q 925 688 1179 453 
Q 1434 219 1894 219 
Q 2388 219 2653 544 
Q 2919 869 2919 1478 
Q 2919 2084 2655 2407 
Q 2391 2731 1894 2731 
Q 1613 2731 1398 2631 
Q 1184 2531 1019 2322 
L 750 2322 
L 750 4666 
L 3219 4666 
z
" transform="scale(0.015625)"/>
       </defs>
       <use xlink:href="#DejaVuSerif-35" transform="translate(0 0.09375)"/>
      </g>
     </g>
    </g>
    <g id="text_13">
     <!-- $p(\lambda)$ -->
     <g transform="translate(16.369646 150.534) rotate(-90) scale(0.12 -0.12)">
      <defs>
       <path id="DejaVuSerif-Italic-70" d="M 1466 1825 
L 1400 1497 
Q 1353 1250 1353 1053 
Q 1353 769 1453 581 
Q 1622 269 2059 269 
Q 2500 269 2795 622 
Q 3091 975 3225 1663 
Q 3284 1978 3284 2225 
Q 3284 2513 3200 2703 
Q 3041 3053 2600 3053 
Q 2163 3053 1872 2737 
Q 1581 2422 1466 1825 
z
M 1116 2988 
L 563 2988 
L 628 3322 
L 1756 3322 
L 1656 2803 
Q 1884 3116 2175 3264 
Q 2466 3413 2850 3413 
Q 3463 3413 3753 2928 
Q 3947 2609 3947 2163 
Q 3947 1928 3897 1663 
Q 3744 881 3262 395 
Q 2781 -91 2169 -91 
Q 1784 -91 1551 57 
Q 1319 206 1213 519 
L 850 -1331 
L 275 -1331 
L 1116 2988 
z
" transform="scale(0.015625)"/>
       <path id="DejaVuSerif-28" d="M 2041 -997 
Q 1281 -656 893 83 
Q 506 822 506 1931 
Q 506 3044 893 3783 
Q 1281 4522 2041 4863 
L 2041 4556 
Q 1559 4225 1350 3623 
Q 1141 3022 1141 1931 
Q 1141 844 1350 242 
Q 1559 -359 2041 -691 
L 2041 -997 
z
" transform="scale(0.015625)"/>
       <path id="DejaVuSerif-29" d="M 453 -997 
L 453 -691 
Q 934 -359 1145 242 
Q 1356 844 1356 1931 
Q 1356 3022 1145 3623 
Q 934 4225 453 4556 
L 453 4863 
Q 1216 4522 1603 3783 
Q 1991 3044 1991 1931 
Q 1991 822 1603 83 
Q 1216 -656 453 -997 
z
" transform="scale(0.015625)"/>
      </defs>
      <use xlink:href="#DejaVuSerif-Italic-70" transform="translate(0 0.484375)"/>
      <use xlink:href="#DejaVuSerif-28" transform="translate(64.013672 0.484375)"/>
      <use xlink:href="#DejaVuSerif-Italic-3bb" transform="translate(103.027344 0.484375)"/>
      <use xlink:href="#DejaVuSerif-29" transform="translate(166.40625 0.484375)"/>
     </g>
    </g>
   </g>
   <g id="line2d_23">
    <path d="M 44.351619 44.078393 
L 44.695413 103.887811 
L 45.039206 130.398126 
L 45.726792 157.005124 
L 46.414379 171.177959 
L 47.101965 180.321677 
L 47.789552 186.847775 
L 48.477138 191.807836 
L 49.508518 197.429558 
L 50.539898 201.667075 
L 51.571277 205.01026 
L 52.602657 207.736152 
L 53.97783 210.695278 
L 55.353003 213.103536 
L 56.728176 215.114016 
L 58.447142 217.215998 
L 60.166108 218.977527 
L 62.228868 220.757967 
L 64.635421 222.493406 
L 67.041973 223.954658 
L 69.792319 225.372968 
L 72.886458 226.725861 
L 76.668184 228.118219 
L 80.793703 229.393145 
L 85.606808 230.642772 
L 91.1075 231.839429 
L 97.639572 233.025818 
L 105.203023 234.168398 
L 114.141647 235.288812 
L 124.799238 236.392973 
L 137.519588 237.478904 
L 152.64649 238.542228 
L 171.211325 239.616051 
L 193.901679 240.697405 
L 222.436518 241.82498 
L 260.253775 243.08217 
L 372.674165 246.664542 
L 382.300375 247.236659 
L 386.082101 247.624424 
L 387.113481 247.829404 
L 387.457274 248.033768 
L 387.457274 248.033768 
" clip-path="url(#pcc81f4d920)" style="fill: none; stroke-dasharray: 7.4,3.2; stroke-dashoffset: 0; stroke: #4c72b0; stroke-width: 2"/>
   </g>
   <g id="patch_3">
    <path d="M 32.789646 254.625354 
L 32.789646 21.722646 
" style="fill: none; stroke: #000000; stroke-linejoin: miter; stroke-linecap: square"/>
   </g>
   <g id="patch_4">
    <path d="M 429.165354 254.625354 
L 429.165354 21.722646 
" style="fill: none; stroke: #000000; stroke-linejoin: miter; stroke-linecap: square"/>
   </g>
   <g id="patch_5">
    <path d="M 32.789646 254.625354 
L 429.165354 254.625354 
" style="fill: none; stroke: #000000; stroke-linejoin: miter; stroke-linecap: square"/>
   </g>
   <g id="patch_6">
    <path d="M 32.789646 21.722646 
L 429.165354 21.722646 
" style="fill: none; stroke: #000000; stroke-linejoin: miter; stroke-linecap: square"/>
   </g>
   <g id="text_14">
    <!-- Concentration of ES of $UXU^\dagger$ to MP -->
    <g transform="translate(120.9975 15.722646) scale(0.12 -0.12)">
     <defs>
      <path id="DejaVuSerif-43" d="M 4513 1234 
Q 4306 581 3820 245 
Q 3334 -91 2591 -91 
Q 2134 -91 1743 65 
Q 1353 222 1050 525 
Q 700 875 529 1320 
Q 359 1766 359 2328 
Q 359 3416 987 4083 
Q 1616 4750 2644 4750 
Q 3025 4750 3456 4650 
Q 3888 4550 4384 4347 
L 4384 3272 
L 4031 3272 
Q 3916 3859 3567 4137 
Q 3219 4416 2591 4416 
Q 1844 4416 1459 3886 
Q 1075 3356 1075 2328 
Q 1075 1303 1459 773 
Q 1844 244 2591 244 
Q 3113 244 3450 492 
Q 3788 741 3938 1234 
L 4513 1234 
z
" transform="scale(0.015625)"/>
      <path id="DejaVuSerif-6f" d="M 1925 219 
Q 2388 219 2623 584 
Q 2859 950 2859 1663 
Q 2859 2375 2623 2739 
Q 2388 3103 1925 3103 
Q 1463 3103 1227 2739 
Q 991 2375 991 1663 
Q 991 950 1228 584 
Q 1466 219 1925 219 
z
M 1925 -91 
Q 1200 -91 759 389 
Q 319 869 319 1663 
Q 319 2456 758 2934 
Q 1197 3413 1925 3413 
Q 2653 3413 3092 2934 
Q 3531 2456 3531 1663 
Q 3531 869 3092 389 
Q 2653 -91 1925 -91 
z
" transform="scale(0.015625)"/>
      <path id="DejaVuSerif-6e" d="M 263 0 
L 263 331 
L 781 331 
L 781 2988 
L 231 2988 
L 231 3322 
L 1356 3322 
L 1356 2731 
Q 1516 3069 1770 3241 
Q 2025 3413 2363 3413 
Q 2913 3413 3172 3097 
Q 3431 2781 3431 2113 
L 3431 331 
L 3944 331 
L 3944 0 
L 2356 0 
L 2356 331 
L 2853 331 
L 2853 1931 
Q 2853 2541 2703 2767 
Q 2553 2994 2175 2994 
Q 1775 2994 1565 2701 
Q 1356 2409 1356 1850 
L 1356 331 
L 1856 331 
L 1856 0 
L 263 0 
z
" transform="scale(0.015625)"/>
      <path id="DejaVuSerif-63" d="M 3291 997 
Q 3169 466 2822 187 
Q 2475 -91 1925 -91 
Q 1200 -91 759 389 
Q 319 869 319 1663 
Q 319 2459 759 2936 
Q 1200 3413 1925 3413 
Q 2241 3413 2553 3339 
Q 2866 3266 3181 3116 
L 3181 2266 
L 2847 2266 
Q 2781 2703 2561 2903 
Q 2341 3103 1931 3103 
Q 1466 3103 1228 2742 
Q 991 2381 991 1663 
Q 991 944 1227 581 
Q 1463 219 1931 219 
Q 2303 219 2525 412 
Q 2747 606 2828 997 
L 3291 997 
z
" transform="scale(0.015625)"/>
      <path id="DejaVuSerif-65" d="M 3469 1600 
L 991 1600 
L 991 1575 
Q 991 903 1244 561 
Q 1497 219 1991 219 
Q 2369 219 2611 417 
Q 2853 616 2950 1006 
L 3413 1006 
Q 3275 459 2904 184 
Q 2534 -91 1931 -91 
Q 1203 -91 761 389 
Q 319 869 319 1663 
Q 319 2450 753 2931 
Q 1188 3413 1894 3413 
Q 2647 3413 3050 2948 
Q 3453 2484 3469 1600 
z
M 2791 1931 
Q 2772 2513 2545 2808 
Q 2319 3103 1894 3103 
Q 1497 3103 1269 2806 
Q 1041 2509 991 1931 
L 2791 1931 
z
" transform="scale(0.015625)"/>
      <path id="DejaVuSerif-74" d="M 691 2988 
L 184 2988 
L 184 3322 
L 691 3322 
L 691 4353 
L 1269 4353 
L 1269 3322 
L 2350 3322 
L 2350 2988 
L 1269 2988 
L 1269 878 
Q 1269 456 1350 337 
Q 1431 219 1650 219 
Q 1875 219 1978 351 
Q 2081 484 2088 781 
L 2522 781 
Q 2497 328 2275 118 
Q 2053 -91 1600 -91 
Q 1103 -91 897 129 
Q 691 350 691 878 
L 691 2988 
z
" transform="scale(0.015625)"/>
      <path id="DejaVuSerif-72" d="M 3059 3328 
L 3059 2497 
L 2728 2497 
Q 2713 2744 2591 2866 
Q 2469 2988 2234 2988 
Q 1809 2988 1582 2694 
Q 1356 2400 1356 1850 
L 1356 331 
L 2022 331 
L 2022 0 
L 263 0 
L 263 331 
L 781 331 
L 781 2994 
L 231 2994 
L 231 3322 
L 1356 3322 
L 1356 2731 
Q 1525 3078 1790 3245 
Q 2056 3413 2438 3413 
Q 2578 3413 2733 3391 
Q 2888 3369 3059 3328 
z
" transform="scale(0.015625)"/>
      <path id="DejaVuSerif-61" d="M 2547 1044 
L 2547 1747 
L 1806 1747 
Q 1378 1747 1168 1562 
Q 959 1378 959 997 
Q 959 650 1171 447 
Q 1384 244 1747 244 
Q 2106 244 2326 466 
Q 2547 688 2547 1044 
z
M 3122 2075 
L 3122 331 
L 3634 331 
L 3634 0 
L 2547 0 
L 2547 359 
Q 2356 128 2106 18 
Q 1856 -91 1522 -91 
Q 969 -91 644 203 
Q 319 497 319 997 
Q 319 1513 691 1797 
Q 1063 2081 1741 2081 
L 2547 2081 
L 2547 2309 
Q 2547 2688 2317 2895 
Q 2088 3103 1672 3103 
Q 1328 3103 1125 2947 
Q 922 2791 872 2484 
L 575 2484 
L 575 3156 
Q 875 3284 1158 3348 
Q 1441 3413 1709 3413 
Q 2400 3413 2761 3070 
Q 3122 2728 3122 2075 
z
" transform="scale(0.015625)"/>
      <path id="DejaVuSerif-69" d="M 622 4353 
Q 622 4497 726 4603 
Q 831 4709 978 4709 
Q 1122 4709 1226 4603 
Q 1331 4497 1331 4353 
Q 1331 4206 1228 4103 
Q 1125 4000 978 4000 
Q 831 4000 726 4103 
Q 622 4206 622 4353 
z
M 1356 331 
L 1900 331 
L 1900 0 
L 231 0 
L 231 331 
L 781 331 
L 781 2988 
L 231 2988 
L 231 3322 
L 1356 3322 
L 1356 331 
z
" transform="scale(0.015625)"/>
      <path id="DejaVuSerif-20" transform="scale(0.015625)"/>
      <path id="DejaVuSerif-66" d="M 2753 4078 
L 2450 4078 
Q 2447 4313 2317 4434 
Q 2188 4556 1941 4556 
Q 1619 4556 1487 4379 
Q 1356 4203 1356 3750 
L 1356 3322 
L 2284 3322 
L 2284 2988 
L 1356 2988 
L 1356 331 
L 2094 331 
L 2094 0 
L 231 0 
L 231 331 
L 781 331 
L 781 2988 
L 231 2988 
L 231 3322 
L 781 3322 
L 781 3738 
Q 781 4294 1070 4578 
Q 1359 4863 1919 4863 
Q 2128 4863 2337 4825 
Q 2547 4788 2753 4709 
L 2753 4078 
z
" transform="scale(0.015625)"/>
      <path id="DejaVuSerif-45" d="M 353 0 
L 353 331 
L 947 331 
L 947 4331 
L 353 4331 
L 353 4666 
L 4109 4666 
L 4109 3628 
L 3725 3628 
L 3725 4281 
L 1581 4281 
L 1581 2719 
L 3109 2719 
L 3109 3303 
L 3494 3303 
L 3494 1753 
L 3109 1753 
L 3109 2338 
L 1581 2338 
L 1581 384 
L 3775 384 
L 3775 1038 
L 4159 1038 
L 4159 0 
L 353 0 
z
" transform="scale(0.015625)"/>
      <path id="DejaVuSerif-53" d="M 594 225 
L 594 1288 
L 953 1284 
Q 969 753 1261 498 
Q 1553 244 2150 244 
Q 2706 244 2998 464 
Q 3291 684 3291 1106 
Q 3291 1444 3114 1625 
Q 2938 1806 2369 1978 
L 1753 2163 
Q 1084 2366 811 2669 
Q 538 2972 538 3500 
Q 538 4094 959 4422 
Q 1381 4750 2144 4750 
Q 2469 4750 2856 4679 
Q 3244 4609 3681 4475 
L 3681 3481 
L 3328 3481 
Q 3275 3975 2998 4195 
Q 2722 4416 2156 4416 
Q 1663 4416 1405 4214 
Q 1147 4013 1147 3628 
Q 1147 3294 1340 3103 
Q 1534 2913 2163 2725 
L 2741 2553 
Q 3375 2363 3645 2067 
Q 3916 1772 3916 1275 
Q 3916 597 3481 253 
Q 3047 -91 2188 -91 
Q 1803 -91 1404 -12 
Q 1006 66 594 225 
z
" transform="scale(0.015625)"/>
      <path id="DejaVuSerif-Italic-55" d="M 1294 4331 
L 697 4331 
L 763 4666 
L 2588 4666 
L 2522 4331 
L 1925 4331 
L 1456 1919 
Q 1281 1025 1506 672 
Q 1731 319 2447 319 
Q 3163 319 3522 672 
Q 3881 1025 4056 1919 
L 4525 4331 
L 3928 4331 
L 3994 4666 
L 5569 4666 
L 5503 4331 
L 4909 4331 
L 4428 1856 
Q 4222 791 3726 350 
Q 3231 -91 2250 -91 
Q 1269 -91 937 353 
Q 606 797 813 1856 
L 1294 4331 
z
" transform="scale(0.015625)"/>
      <path id="DejaVuSerif-Italic-58" d="M 2056 1997 
L 591 331 
L 1194 331 
L 1131 0 
L -413 0 
L -350 331 
L 188 331 
L 1913 2291 
L 947 4331 
L 447 4331 
L 513 4666 
L 2363 4666 
L 2297 4331 
L 1747 4331 
L 2456 2828 
L 3775 4331 
L 3175 4331 
L 3241 4666 
L 4769 4666 
L 4703 4331 
L 4178 4331 
L 2597 2534 
L 3641 331 
L 4141 331 
L 4075 0 
L 2225 0 
L 2288 331 
L 2844 331 
L 2056 1997 
z
" transform="scale(0.015625)"/>
      <path id="DejaVuSerif-2020" d="M 1319 4666 
L 1881 4666 
L 1772 3284 
L 3022 3372 
L 3022 2853 
L 1772 2944 
L 1881 -616 
L 1319 -616 
L 1428 2944 
L 178 2853 
L 178 3372 
L 1428 3284 
L 1319 4666 
z
" transform="scale(0.015625)"/>
      <path id="DejaVuSerif-4d" d="M 353 0 
L 353 331 
L 947 331 
L 947 4331 
L 319 4331 
L 319 4666 
L 1678 4666 
L 3316 1344 
L 4953 4666 
L 6228 4666 
L 6228 4331 
L 5606 4331 
L 5606 331 
L 6203 331 
L 6203 0 
L 4378 0 
L 4378 331 
L 4972 331 
L 4972 3938 
L 3372 684 
L 2931 684 
L 1331 3938 
L 1331 331 
L 1925 331 
L 1925 0 
L 353 0 
z
" transform="scale(0.015625)"/>
      <path id="DejaVuSerif-50" d="M 1581 2375 
L 2406 2375 
Q 2872 2375 3115 2626 
Q 3359 2878 3359 3353 
Q 3359 3831 3115 4081 
Q 2872 4331 2406 4331 
L 1581 4331 
L 1581 2375 
z
M 353 0 
L 353 331 
L 947 331 
L 947 4331 
L 353 4331 
L 353 4666 
L 2559 4666 
Q 3259 4666 3668 4311 
Q 4078 3956 4078 3353 
Q 4078 2753 3668 2397 
Q 3259 2041 2559 2041 
L 1581 2041 
L 1581 331 
L 2303 331 
L 2303 0 
L 353 0 
z
" transform="scale(0.015625)"/>
     </defs>
     <use xlink:href="#DejaVuSerif-43" transform="translate(0 0.63125)"/>
     <use xlink:href="#DejaVuSerif-6f" transform="translate(76.513672 0.63125)"/>
     <use xlink:href="#DejaVuSerif-6e" transform="translate(136.71875 0.63125)"/>
     <use xlink:href="#DejaVuSerif-63" transform="translate(201.123047 0.63125)"/>
     <use xlink:href="#DejaVuSerif-65" transform="translate(257.128906 0.63125)"/>
     <use xlink:href="#DejaVuSerif-6e" transform="translate(316.308594 0.63125)"/>
     <use xlink:href="#DejaVuSerif-74" transform="translate(380.712891 0.63125)"/>
     <use xlink:href="#DejaVuSerif-72" transform="translate(420.898438 0.63125)"/>
     <use xlink:href="#DejaVuSerif-61" transform="translate(468.701172 0.63125)"/>
     <use xlink:href="#DejaVuSerif-74" transform="translate(528.320312 0.63125)"/>
     <use xlink:href="#DejaVuSerif-69" transform="translate(568.505859 0.63125)"/>
     <use xlink:href="#DejaVuSerif-6f" transform="translate(600.488281 0.63125)"/>
     <use xlink:href="#DejaVuSerif-6e" transform="translate(660.693359 0.63125)"/>
     <use xlink:href="#DejaVuSerif-20" transform="translate(725.097656 0.63125)"/>
     <use xlink:href="#DejaVuSerif-6f" transform="translate(756.884766 0.63125)"/>
     <use xlink:href="#DejaVuSerif-66" transform="translate(817.089844 0.63125)"/>
     <use xlink:href="#DejaVuSerif-20" transform="translate(854.101562 0.63125)"/>
     <use xlink:href="#DejaVuSerif-45" transform="translate(885.888672 0.63125)"/>
     <use xlink:href="#DejaVuSerif-53" transform="translate(958.886719 0.63125)"/>
     <use xlink:href="#DejaVuSerif-20" transform="translate(1027.392578 0.63125)"/>
     <use xlink:href="#DejaVuSerif-6f" transform="translate(1059.179688 0.63125)"/>
     <use xlink:href="#DejaVuSerif-66" transform="translate(1119.384766 0.63125)"/>
     <use xlink:href="#DejaVuSerif-20" transform="translate(1156.396484 0.63125)"/>
     <use xlink:href="#DejaVuSerif-Italic-55" transform="translate(1188.183594 0.63125)"/>
     <use xlink:href="#DejaVuSerif-Italic-58" transform="translate(1272.460938 0.63125)"/>
     <use xlink:href="#DejaVuSerif-Italic-55" transform="translate(1343.652344 0.63125)"/>
     <use xlink:href="#DejaVuSerif-2020" transform="translate(1448.384089 36.965625) scale(0.7)"/>
     <use xlink:href="#DejaVuSerif-20" transform="translate(1499.254792 0.63125)"/>
     <use xlink:href="#DejaVuSerif-74" transform="translate(1531.041901 0.63125)"/>
     <use xlink:href="#DejaVuSerif-6f" transform="translate(1571.227448 0.63125)"/>
     <use xlink:href="#DejaVuSerif-20" transform="translate(1631.432526 0.63125)"/>
     <use xlink:href="#DejaVuSerif-4d" transform="translate(1663.219635 0.63125)"/>
     <use xlink:href="#DejaVuSerif-50" transform="translate(1765.612214 0.63125)"/>
    </g>
   </g>
   <g id="PathCollection_2">
    <defs>
     <path id="m4ee6099bb6" d="M -2.5 2.5 
L 2.5 -2.5 
M -2.5 -2.5 
L 2.5 2.5 
" style="stroke: #dd8452"/>
    </defs>
    <g clip-path="url(#pcc81f4d920)">
     <use xlink:href="#m4ee6099bb6" x="86.147737" y="248.033768" style="fill: #dd8452; stroke: #dd8452"/>
     <use xlink:href="#m4ee6099bb6" x="88.321676" y="248.033768" style="fill: #dd8452; stroke: #dd8452"/>
     <use xlink:href="#m4ee6099bb6" x="90.495614" y="248.033768" style="fill: #dd8452; stroke: #dd8452"/>
     <use xlink:href="#m4ee6099bb6" x="92.669553" y="237.081517" style="fill: #dd8452; stroke: #dd8452"/>
     <use xlink:href="#m4ee6099bb6" x="94.843492" y="219.870837" style="fill: #dd8452; stroke: #dd8452"/>
     <use xlink:href="#m4ee6099bb6" x="97.01743" y="210.483193" style="fill: #dd8452; stroke: #dd8452"/>
     <use xlink:href="#m4ee6099bb6" x="99.191369" y="205.789372" style="fill: #dd8452; stroke: #dd8452"/>
     <use xlink:href="#m4ee6099bb6" x="101.365308" y="197.966335" style="fill: #dd8452; stroke: #dd8452"/>
     <use xlink:href="#m4ee6099bb6" x="103.539246" y="197.966335" style="fill: #dd8452; stroke: #dd8452"/>
     <use xlink:href="#m4ee6099bb6" x="105.713185" y="194.837121" style="fill: #dd8452; stroke: #dd8452"/>
     <use xlink:href="#m4ee6099bb6" x="107.887124" y="196.401728" style="fill: #dd8452; stroke: #dd8452"/>
     <use xlink:href="#m4ee6099bb6" x="110.061062" y="193.272513" style="fill: #dd8452; stroke: #dd8452"/>
     <use xlink:href="#m4ee6099bb6" x="112.235001" y="191.707906" style="fill: #dd8452; stroke: #dd8452"/>
     <use xlink:href="#m4ee6099bb6" x="114.408939" y="193.272513" style="fill: #dd8452; stroke: #dd8452"/>
     <use xlink:href="#m4ee6099bb6" x="116.582878" y="193.272513" style="fill: #dd8452; stroke: #dd8452"/>
     <use xlink:href="#m4ee6099bb6" x="118.756817" y="193.272513" style="fill: #dd8452; stroke: #dd8452"/>
     <use xlink:href="#m4ee6099bb6" x="120.930755" y="194.837121" style="fill: #dd8452; stroke: #dd8452"/>
     <use xlink:href="#m4ee6099bb6" x="123.104694" y="193.272513" style="fill: #dd8452; stroke: #dd8452"/>
     <use xlink:href="#m4ee6099bb6" x="125.278633" y="194.837121" style="fill: #dd8452; stroke: #dd8452"/>
     <use xlink:href="#m4ee6099bb6" x="127.452571" y="194.837121" style="fill: #dd8452; stroke: #dd8452"/>
     <use xlink:href="#m4ee6099bb6" x="129.62651" y="199.530942" style="fill: #dd8452; stroke: #dd8452"/>
     <use xlink:href="#m4ee6099bb6" x="131.800448" y="194.837121" style="fill: #dd8452; stroke: #dd8452"/>
     <use xlink:href="#m4ee6099bb6" x="133.974387" y="197.966335" style="fill: #dd8452; stroke: #dd8452"/>
     <use xlink:href="#m4ee6099bb6" x="136.148326" y="201.09555" style="fill: #dd8452; stroke: #dd8452"/>
     <use xlink:href="#m4ee6099bb6" x="138.322264" y="202.660157" style="fill: #dd8452; stroke: #dd8452"/>
     <use xlink:href="#m4ee6099bb6" x="140.496203" y="202.660157" style="fill: #dd8452; stroke: #dd8452"/>
     <use xlink:href="#m4ee6099bb6" x="142.670142" y="202.660157" style="fill: #dd8452; stroke: #dd8452"/>
     <use xlink:href="#m4ee6099bb6" x="144.84408" y="205.789372" style="fill: #dd8452; stroke: #dd8452"/>
     <use xlink:href="#m4ee6099bb6" x="147.018019" y="205.789372" style="fill: #dd8452; stroke: #dd8452"/>
     <use xlink:href="#m4ee6099bb6" x="149.191957" y="208.918586" style="fill: #dd8452; stroke: #dd8452"/>
     <use xlink:href="#m4ee6099bb6" x="151.365896" y="210.483193" style="fill: #dd8452; stroke: #dd8452"/>
     <use xlink:href="#m4ee6099bb6" x="153.539835" y="208.918586" style="fill: #dd8452; stroke: #dd8452"/>
     <use xlink:href="#m4ee6099bb6" x="155.713773" y="215.177015" style="fill: #dd8452; stroke: #dd8452"/>
     <use xlink:href="#m4ee6099bb6" x="157.887712" y="213.612408" style="fill: #dd8452; stroke: #dd8452"/>
     <use xlink:href="#m4ee6099bb6" x="160.061651" y="219.870837" style="fill: #dd8452; stroke: #dd8452"/>
     <use xlink:href="#m4ee6099bb6" x="162.235589" y="218.30623" style="fill: #dd8452; stroke: #dd8452"/>
     <use xlink:href="#m4ee6099bb6" x="164.409528" y="219.870837" style="fill: #dd8452; stroke: #dd8452"/>
     <use xlink:href="#m4ee6099bb6" x="166.583466" y="224.564659" style="fill: #dd8452; stroke: #dd8452"/>
     <use xlink:href="#m4ee6099bb6" x="168.757405" y="223.000052" style="fill: #dd8452; stroke: #dd8452"/>
     <use xlink:href="#m4ee6099bb6" x="170.931344" y="227.693874" style="fill: #dd8452; stroke: #dd8452"/>
     <use xlink:href="#m4ee6099bb6" x="173.105282" y="233.952303" style="fill: #dd8452; stroke: #dd8452"/>
     <use xlink:href="#m4ee6099bb6" x="175.279221" y="235.51691" style="fill: #dd8452; stroke: #dd8452"/>
     <use xlink:href="#m4ee6099bb6" x="177.45316" y="243.339946" style="fill: #dd8452; stroke: #dd8452"/>
     <use xlink:href="#m4ee6099bb6" x="179.627098" y="248.033768" style="fill: #dd8452; stroke: #dd8452"/>
     <use xlink:href="#m4ee6099bb6" x="181.801037" y="248.033768" style="fill: #dd8452; stroke: #dd8452"/>
     <use xlink:href="#m4ee6099bb6" x="183.974976" y="248.033768" style="fill: #dd8452; stroke: #dd8452"/>
     <use xlink:href="#m4ee6099bb6" x="186.148914" y="248.033768" style="fill: #dd8452; stroke: #dd8452"/>
     <use xlink:href="#m4ee6099bb6" x="188.322853" y="248.033768" style="fill: #dd8452; stroke: #dd8452"/>
     <use xlink:href="#m4ee6099bb6" x="190.496791" y="248.033768" style="fill: #dd8452; stroke: #dd8452"/>
    </g>
   </g>
   <g id="line2d_24">
    <path d="M 92.305405 248.033768 
L 92.56325 238.038838 
L 92.992991 231.895964 
L 93.594629 226.281514 
L 94.368164 221.065907 
L 95.313596 216.247939 
L 96.344975 212.151115 
L 97.462303 208.610598 
L 98.66558 205.536388 
L 99.954804 202.872485 
L 101.244029 200.709426 
L 102.619202 198.837705 
L 103.994375 197.329072 
L 105.455496 196.051804 
L 107.002566 195.001995 
L 108.635584 194.174657 
L 110.35455 193.563956 
L 112.159464 193.163446 
L 114.136276 192.962134 
L 116.284983 192.979056 
L 118.605588 193.227688 
L 121.184037 193.737478 
L 124.020331 194.533889 
L 127.11447 195.636071 
L 130.552403 197.098073 
L 134.334128 198.94835 
L 138.459647 201.214459 
L 142.928959 203.928781 
L 147.48422 206.957825 
L 151.953532 210.193736 
L 156.164999 213.51029 
L 160.032673 216.831904 
L 163.470606 220.069219 
L 166.478796 223.198497 
L 169.057246 226.190169 
L 171.291902 229.120966 
L 173.096816 231.837016 
L 174.643886 234.564661 
L 175.847162 237.12446 
L 176.792594 239.648524 
L 177.48018 242.111096 
L 177.909922 244.409418 
L 178.081818 245.941834 
L 178.167767 248.033768 
L 178.167767 248.033768 
" clip-path="url(#pcc81f4d920)" style="fill: none; stroke-dasharray: 7.4,3.2; stroke-dashoffset: 0; stroke: #dd8452; stroke-width: 2"/>
   </g>
   <g id="PathCollection_3">
    <defs>
     <path id="m142c144f3d" d="M -2.5 2.5 
L 2.5 -2.5 
M -2.5 -2.5 
L 2.5 2.5 
" style="stroke: #55a868"/>
    </defs>
    <g clip-path="url(#pcc81f4d920)">
     <use xlink:href="#m142c144f3d" x="108.586501" y="248.033768" style="fill: #55a868; stroke: #55a868"/>
     <use xlink:href="#m142c144f3d" x="109.453407" y="248.033768" style="fill: #55a868; stroke: #55a868"/>
     <use xlink:href="#m142c144f3d" x="110.320313" y="248.033768" style="fill: #55a868; stroke: #55a868"/>
     <use xlink:href="#m142c144f3d" x="111.187218" y="248.033768" style="fill: #55a868; stroke: #55a868"/>
     <use xlink:href="#m142c144f3d" x="112.054124" y="248.033768" style="fill: #55a868; stroke: #55a868"/>
     <use xlink:href="#m142c144f3d" x="112.92103" y="248.033768" style="fill: #55a868; stroke: #55a868"/>
     <use xlink:href="#m142c144f3d" x="113.787936" y="248.033768" style="fill: #55a868; stroke: #55a868"/>
     <use xlink:href="#m142c144f3d" x="114.654842" y="248.033768" style="fill: #55a868; stroke: #55a868"/>
     <use xlink:href="#m142c144f3d" x="115.521748" y="248.033768" style="fill: #55a868; stroke: #55a868"/>
     <use xlink:href="#m142c144f3d" x="116.388654" y="248.033768" style="fill: #55a868; stroke: #55a868"/>
     <use xlink:href="#m142c144f3d" x="117.25556" y="248.033768" style="fill: #55a868; stroke: #55a868"/>
     <use xlink:href="#m142c144f3d" x="118.122466" y="248.033768" style="fill: #55a868; stroke: #55a868"/>
     <use xlink:href="#m142c144f3d" x="118.989372" y="248.033768" style="fill: #55a868; stroke: #55a868"/>
     <use xlink:href="#m142c144f3d" x="119.856278" y="169.562505" style="fill: #55a868; stroke: #55a868"/>
     <use xlink:href="#m142c144f3d" x="120.723184" y="153.868253" style="fill: #55a868; stroke: #55a868"/>
     <use xlink:href="#m142c144f3d" x="121.59009" y="122.479747" style="fill: #55a868; stroke: #55a868"/>
     <use xlink:href="#m142c144f3d" x="122.456996" y="106.785495" style="fill: #55a868; stroke: #55a868"/>
     <use xlink:href="#m142c144f3d" x="123.323902" y="75.39699" style="fill: #55a868; stroke: #55a868"/>
     <use xlink:href="#m142c144f3d" x="124.190808" y="59.702737" style="fill: #55a868; stroke: #55a868"/>
     <use xlink:href="#m142c144f3d" x="125.057714" y="59.702737" style="fill: #55a868; stroke: #55a868"/>
     <use xlink:href="#m142c144f3d" x="125.92462" y="44.008484" style="fill: #55a868; stroke: #55a868"/>
     <use xlink:href="#m142c144f3d" x="126.791525" y="28.314232" style="fill: #55a868; stroke: #55a868"/>
     <use xlink:href="#m142c144f3d" x="127.658431" y="59.702737" style="fill: #55a868; stroke: #55a868"/>
     <use xlink:href="#m142c144f3d" x="128.525337" y="28.314232" style="fill: #55a868; stroke: #55a868"/>
     <use xlink:href="#m142c144f3d" x="129.392243" y="44.008484" style="fill: #55a868; stroke: #55a868"/>
     <use xlink:href="#m142c144f3d" x="130.259149" y="59.702737" style="fill: #55a868; stroke: #55a868"/>
     <use xlink:href="#m142c144f3d" x="131.126055" y="28.314232" style="fill: #55a868; stroke: #55a868"/>
     <use xlink:href="#m142c144f3d" x="131.992961" y="28.314232" style="fill: #55a868; stroke: #55a868"/>
     <use xlink:href="#m142c144f3d" x="132.859867" y="75.39699" style="fill: #55a868; stroke: #55a868"/>
     <use xlink:href="#m142c144f3d" x="133.726773" y="59.702737" style="fill: #55a868; stroke: #55a868"/>
     <use xlink:href="#m142c144f3d" x="134.593679" y="75.39699" style="fill: #55a868; stroke: #55a868"/>
     <use xlink:href="#m142c144f3d" x="135.460585" y="75.39699" style="fill: #55a868; stroke: #55a868"/>
     <use xlink:href="#m142c144f3d" x="136.327491" y="75.39699" style="fill: #55a868; stroke: #55a868"/>
     <use xlink:href="#m142c144f3d" x="137.194397" y="122.479747" style="fill: #55a868; stroke: #55a868"/>
     <use xlink:href="#m142c144f3d" x="138.061303" y="106.785495" style="fill: #55a868; stroke: #55a868"/>
     <use xlink:href="#m142c144f3d" x="138.928209" y="138.174" style="fill: #55a868; stroke: #55a868"/>
     <use xlink:href="#m142c144f3d" x="139.795115" y="169.562505" style="fill: #55a868; stroke: #55a868"/>
     <use xlink:href="#m142c144f3d" x="140.662021" y="216.645263" style="fill: #55a868; stroke: #55a868"/>
     <use xlink:href="#m142c144f3d" x="141.528926" y="248.033768" style="fill: #55a868; stroke: #55a868"/>
     <use xlink:href="#m142c144f3d" x="142.395832" y="248.033768" style="fill: #55a868; stroke: #55a868"/>
     <use xlink:href="#m142c144f3d" x="143.262738" y="248.033768" style="fill: #55a868; stroke: #55a868"/>
     <use xlink:href="#m142c144f3d" x="144.129644" y="248.033768" style="fill: #55a868; stroke: #55a868"/>
     <use xlink:href="#m142c144f3d" x="144.99655" y="248.033768" style="fill: #55a868; stroke: #55a868"/>
     <use xlink:href="#m142c144f3d" x="145.863456" y="248.033768" style="fill: #55a868; stroke: #55a868"/>
     <use xlink:href="#m142c144f3d" x="146.730362" y="248.033768" style="fill: #55a868; stroke: #55a868"/>
     <use xlink:href="#m142c144f3d" x="147.597268" y="248.033768" style="fill: #55a868; stroke: #55a868"/>
     <use xlink:href="#m142c144f3d" x="148.464174" y="248.033768" style="fill: #55a868; stroke: #55a868"/>
     <use xlink:href="#m142c144f3d" x="149.33108" y="248.033768" style="fill: #55a868; stroke: #55a868"/>
     <use xlink:href="#m142c144f3d" x="150.197986" y="248.033768" style="fill: #55a868; stroke: #55a868"/>
    </g>
   </g>
   <g id="line2d_25">
    <path d="M 119.472793 248.033768 
L 119.623202 208.897272 
L 119.988483 176.536065 
L 120.547147 146.964131 
L 121.234733 121.9352 
L 122.029755 100.739674 
L 122.889238 83.501634 
L 123.770208 70.051198 
L 124.651178 59.815509 
L 125.510661 52.316175 
L 126.305683 47.223559 
L 127.014757 43.99443 
L 127.637882 42.083702 
L 128.175059 41.084028 
L 128.604801 40.693918 
L 128.970081 40.637994 
L 129.313874 40.81039 
L 129.722129 41.291943 
L 130.216331 42.268363 
L 130.796483 43.953723 
L 131.484069 46.694113 
L 132.257604 50.735739 
L 133.138574 56.589874 
L 134.105492 64.607819 
L 135.115385 74.899464 
L 136.168252 87.993333 
L 137.199632 103.652426 
L 138.188037 122.129166 
L 139.069007 142.803412 
L 139.821055 165.783299 
L 140.401206 190.544143 
L 140.766487 215.353984 
L 140.916896 236.456981 
L 140.938383 248.033768 
L 140.938383 248.033768 
" clip-path="url(#pcc81f4d920)" style="fill: none; stroke-dasharray: 7.4,3.2; stroke-dashoffset: 0; stroke: #55a868; stroke-width: 2"/>
   </g>
   <g id="legend_1">
    <g id="patch_7">
     <path d="M 340.404417 82.591396 
L 424.165354 82.591396 
L 424.165354 26.722646 
L 340.404417 26.722646 
z
" style="fill: #ffffff; stroke: #000000; stroke-linejoin: miter"/>
    </g>
    <g id="line2d_26">
     <path d="M 348.404417 38.821083 
L 358.404417 38.821083 
L 368.404417 38.821083 
" style="fill: none"/>
     <defs>
      <path id="mc116ebf8e1" d="M -4 4 
L 4 -4 
M -4 -4 
L 4 4 
" style="stroke: #000000; stroke-width: 1.6"/>
     </defs>
     <g>
      <use xlink:href="#mc116ebf8e1" x="358.404417" y="38.821083" style="fill: #4c72b0; stroke: #000000; stroke-width: 1.6"/>
     </g>
    </g>
    <g id="text_15">
     <!-- n_A = 5 -->
     <g transform="translate(376.404417 42.321083) scale(0.1 -0.1)">
      <defs>
       <path id="DejaVuSerif-5f" d="M 3200 -1259 
L 3200 -1509 
L 0 -1509 
L 0 -1259 
L 3200 -1259 
z
" transform="scale(0.015625)"/>
       <path id="DejaVuSerif-41" d="M 1281 1691 
L 2994 1691 
L 2138 3909 
L 1281 1691 
z
M -38 0 
L -38 331 
L 372 331 
L 2034 4666 
L 2559 4666 
L 4225 331 
L 4684 331 
L 4684 0 
L 2988 0 
L 2988 331 
L 3506 331 
L 3116 1356 
L 1153 1356 
L 763 331 
L 1275 331 
L 1275 0 
L -38 0 
z
" transform="scale(0.015625)"/>
       <path id="DejaVuSerif-3d" d="M 678 2894 
L 4684 2894 
L 4684 2394 
L 678 2394 
L 678 2894 
z
M 678 1619 
L 4684 1619 
L 4684 1119 
L 678 1119 
L 678 1619 
z
" transform="scale(0.015625)"/>
      </defs>
      <use xlink:href="#DejaVuSerif-6e"/>
      <use xlink:href="#DejaVuSerif-5f" x="64.404297"/>
      <use xlink:href="#DejaVuSerif-41" x="114.404297"/>
      <use xlink:href="#DejaVuSerif-20" x="186.621094"/>
      <use xlink:href="#DejaVuSerif-3d" x="218.408203"/>
      <use xlink:href="#DejaVuSerif-20" x="302.197266"/>
      <use xlink:href="#DejaVuSerif-35" x="333.984375"/>
     </g>
    </g>
    <g id="line2d_27">
     <path d="M 348.404417 53.777333 
L 358.404417 53.777333 
L 368.404417 53.777333 
" style="fill: none"/>
     <defs>
      <path id="m95e974d187" d="M -4 4 
L 4 -4 
M -4 -4 
L 4 4 
" style="stroke: #000000; stroke-width: 1.6"/>
     </defs>
     <g>
      <use xlink:href="#m95e974d187" x="358.404417" y="53.777333" style="fill: #dd8452; stroke: #000000; stroke-width: 1.6"/>
     </g>
    </g>
    <g id="text_16">
     <!-- n_A = 6 -->
     <g transform="translate(376.404417 57.277333) scale(0.1 -0.1)">
      <defs>
       <path id="DejaVuSerif-36" d="M 2094 219 
Q 2534 219 2771 542 
Q 3009 866 3009 1472 
Q 3009 2078 2771 2401 
Q 2534 2725 2094 2725 
Q 1647 2725 1412 2412 
Q 1178 2100 1178 1509 
Q 1178 888 1415 553 
Q 1653 219 2094 219 
z
M 1075 2569 
Q 1288 2803 1556 2918 
Q 1825 3034 2163 3034 
Q 2859 3034 3264 2615 
Q 3669 2197 3669 1472 
Q 3669 763 3233 336 
Q 2797 -91 2069 -91 
Q 1278 -91 853 498 
Q 428 1088 428 2181 
Q 428 3406 931 4078 
Q 1434 4750 2350 4750 
Q 2597 4750 2869 4703 
Q 3141 4656 3425 4563 
L 3425 3794 
L 3072 3794 
Q 3034 4109 2831 4275 
Q 2628 4441 2284 4441 
Q 1678 4441 1381 3981 
Q 1084 3522 1075 2569 
z
" transform="scale(0.015625)"/>
      </defs>
      <use xlink:href="#DejaVuSerif-6e"/>
      <use xlink:href="#DejaVuSerif-5f" x="64.404297"/>
      <use xlink:href="#DejaVuSerif-41" x="114.404297"/>
      <use xlink:href="#DejaVuSerif-20" x="186.621094"/>
      <use xlink:href="#DejaVuSerif-3d" x="218.408203"/>
      <use xlink:href="#DejaVuSerif-20" x="302.197266"/>
      <use xlink:href="#DejaVuSerif-36" x="333.984375"/>
     </g>
    </g>
    <g id="line2d_28">
     <path d="M 348.404417 68.733583 
L 358.404417 68.733583 
L 368.404417 68.733583 
" style="fill: none"/>
     <defs>
      <path id="mb2244ddd5c" d="M -4 4 
L 4 -4 
M -4 -4 
L 4 4 
" style="stroke: #000000; stroke-width: 1.6"/>
     </defs>
     <g>
      <use xlink:href="#mb2244ddd5c" x="358.404417" y="68.733583" style="fill: #55a868; stroke: #000000; stroke-width: 1.6"/>
     </g>
    </g>
    <g id="text_17">
     <!-- n_A = 7 -->
     <g transform="translate(376.404417 72.233583) scale(0.1 -0.1)">
      <defs>
       <path id="DejaVuSerif-37" d="M 3609 4347 
L 1784 0 
L 1319 0 
L 3059 4153 
L 903 4153 
L 903 3578 
L 538 3578 
L 538 4666 
L 3609 4666 
L 3609 4347 
z
" transform="scale(0.015625)"/>
      </defs>
      <use xlink:href="#DejaVuSerif-6e"/>
      <use xlink:href="#DejaVuSerif-5f" x="64.404297"/>
      <use xlink:href="#DejaVuSerif-41" x="114.404297"/>
      <use xlink:href="#DejaVuSerif-20" x="186.621094"/>
      <use xlink:href="#DejaVuSerif-3d" x="218.408203"/>
      <use xlink:href="#DejaVuSerif-20" x="302.197266"/>
      <use xlink:href="#DejaVuSerif-37" x="333.984375"/>
     </g>
    </g>
   </g>
  </g>
 </g>
 <defs>
  <clipPath id="pcc81f4d920">
   <rect x="32.789646" y="21.722646" width="396.375709" height="232.902709"/>
  </clipPath>
 </defs>
</svg>
