<?xml version="1.0" encoding="utf-8" standalone="no"?>
<!DOCTYPE svg PUBLIC "-//W3C//DTD SVG 1.1//EN"
  "http://www.w3.org/Graphics/SVG/1.1/DTD/svg11.dtd">
<svg xmlns:xlink="http://www.w3.org/1999/xlink" width="432pt" height="288pt" viewBox="0 0 432 288" xmlns="http://www.w3.org/2000/svg" version="1.1">
 <metadata>
  <rdf:RDF xmlns:dc="http://purl.org/dc/elements/1.1/" xmlns:cc="http://creativecommons.org/ns#" xmlns:rdf="http://www.w3.org/1999/02/22-rdf-syntax-ns#">
   <cc:Work>
    <dc:type rdf:resource="http://purl.org/dc/dcmitype/StillImage"/>
    <dc:date>2025-06-06T12:58:30.821860</dc:date>
    <dc:format>image/svg+xml</dc:format>
    <dc:creator>
     <cc:Agent>
      <dc:title>Matplotlib v3.9.2, https://matplotlib.org/</dc:title>
     </cc:Agent>
    </dc:creator>
   </cc:Work>
  </rdf:RDF>
 </metadata>
 <defs>
  <style type="text/css">*{stroke-linejoin: round; stroke-linecap: butt}</style>
 </defs>
 <g id="figure_1">
  <g id="patch_1">
   <path d="M 0 288 
L 432 288 
L 432 0 
L 0 0 
z
" style="fill: #ffffff"/>
  </g>
  <g id="axes_1">
   <g id="patch_2">
    <path d="M 48.0507 253.185354 
L 420.844617 253.185354 
L 420.844617 18.194646 
L 48.0507 18.194646 
z
" style="fill: #ffffff"/>
   </g>
   <g id="line2d_1">
    <path d="M 79.116859 85.641308 
L 110.183019 119.799708 
L 141.249179 177.066643 
L 172.315339 197.791538 
L 203.381499 209.642352 
L 234.447658 215.406047 
L 265.513818 218.058849 
L 296.579978 221.078678 
L 327.646138 222.267476 
L 358.712297 220.425207 
L 389.778457 219.155583 
L 420.844617 220.709864 
L 433 221.914001 
" clip-path="url(#p22003545c8)" style="fill: none; stroke: #4c8df7"/>
   </g>
   <g id="PathCollection_1">
    <defs>
     <path id="m0e0ea9f26f" d="M -0.765367 -1.847759 
L -1.847759 -0.765367 
L -1.847759 0.765367 
L -0.765367 1.847759 
L 0.765367 1.847759 
L 1.847759 0.765367 
L 1.847759 -0.765367 
L 0.765367 -1.847759 
z
"/>
    </defs>
    <g clip-path="url(#p22003545c8)">
     <use xlink:href="#m0e0ea9f26f" x="79.116859" y="85.641308" style="fill: #4c8df7"/>
     <use xlink:href="#m0e0ea9f26f" x="110.183019" y="119.799708" style="fill: #4c8df7"/>
     <use xlink:href="#m0e0ea9f26f" x="141.249179" y="177.066643" style="fill: #4c8df7"/>
     <use xlink:href="#m0e0ea9f26f" x="172.315339" y="197.791538" style="fill: #4c8df7"/>
     <use xlink:href="#m0e0ea9f26f" x="203.381499" y="209.642352" style="fill: #4c8df7"/>
     <use xlink:href="#m0e0ea9f26f" x="234.447658" y="215.406047" style="fill: #4c8df7"/>
     <use xlink:href="#m0e0ea9f26f" x="265.513818" y="218.058849" style="fill: #4c8df7"/>
     <use xlink:href="#m0e0ea9f26f" x="296.579978" y="221.078678" style="fill: #4c8df7"/>
     <use xlink:href="#m0e0ea9f26f" x="327.646138" y="222.267476" style="fill: #4c8df7"/>
     <use xlink:href="#m0e0ea9f26f" x="358.712297" y="220.425207" style="fill: #4c8df7"/>
     <use xlink:href="#m0e0ea9f26f" x="389.778457" y="219.155583" style="fill: #4c8df7"/>
     <use xlink:href="#m0e0ea9f26f" x="420.844617" y="220.709864" style="fill: #4c8df7"/>
     <use xlink:href="#m0e0ea9f26f" x="451.910777" y="223.787342" style="fill: #4c8df7"/>
     <use xlink:href="#m0e0ea9f26f" x="482.976937" y="221.297072" style="fill: #4c8df7"/>
     <use xlink:href="#m0e0ea9f26f" x="514.043096" y="220.010804" style="fill: #4c8df7"/>
    </g>
   </g>
   <g id="matplotlib.axis_1">
    <g id="xtick_1">
     <g id="line2d_2">
      <defs>
       <path id="m291fdc5682" d="M 0 0 
L 0 -2.5 
" style="stroke: #000000; stroke-width: 0.5"/>
      </defs>
      <g>
       <use xlink:href="#m291fdc5682" x="48.0507" y="253.185354" style="stroke: #000000; stroke-width: 0.5"/>
      </g>
     </g>
     <g id="line2d_3">
      <defs>
       <path id="m04658895be" d="M 0 0 
L 0 2.5 
" style="stroke: #000000; stroke-width: 0.5"/>
      </defs>
      <g>
       <use xlink:href="#m04658895be" x="48.0507" y="18.194646" style="stroke: #000000; stroke-width: 0.5"/>
      </g>
     </g>
     <g id="text_1">
      <!-- $0.0$ -->
      <g transform="translate(40.0507 264.283792) scale(0.1 -0.1)">
       <defs>
        <path id="DejaVuSerif-30" d="M 2034 219 
Q 2513 219 2750 744 
Q 2988 1269 2988 2328 
Q 2988 3391 2750 3916 
Q 2513 4441 2034 4441 
Q 1556 4441 1318 3916 
Q 1081 3391 1081 2328 
Q 1081 1269 1318 744 
Q 1556 219 2034 219 
z
M 2034 -91 
Q 1275 -91 848 546 
Q 422 1184 422 2328 
Q 422 3475 848 4112 
Q 1275 4750 2034 4750 
Q 2797 4750 3222 4112 
Q 3647 3475 3647 2328 
Q 3647 1184 3222 546 
Q 2797 -91 2034 -91 
z
" transform="scale(0.015625)"/>
        <path id="DejaVuSerif-2e" d="M 603 325 
Q 603 500 722 622 
Q 841 744 1019 744 
Q 1191 744 1312 622 
Q 1434 500 1434 325 
Q 1434 153 1312 31 
Q 1191 -91 1019 -91 
Q 841 -91 722 29 
Q 603 150 603 325 
z
" transform="scale(0.015625)"/>
       </defs>
       <use xlink:href="#DejaVuSerif-30" transform="translate(0 0.78125)"/>
       <use xlink:href="#DejaVuSerif-2e" transform="translate(63.623047 0.78125)"/>
       <use xlink:href="#DejaVuSerif-30" transform="translate(95.410156 0.78125)"/>
      </g>
     </g>
    </g>
    <g id="xtick_2">
     <g id="line2d_4">
      <g>
       <use xlink:href="#m291fdc5682" x="141.249179" y="253.185354" style="stroke: #000000; stroke-width: 0.5"/>
      </g>
     </g>
     <g id="line2d_5">
      <g>
       <use xlink:href="#m04658895be" x="141.249179" y="18.194646" style="stroke: #000000; stroke-width: 0.5"/>
      </g>
     </g>
     <g id="text_2">
      <!-- $0.5$ -->
      <g transform="translate(133.249179 264.283792) scale(0.1 -0.1)">
       <defs>
        <path id="DejaVuSerif-35" d="M 3219 4666 
L 3219 4153 
L 1081 4153 
L 1081 2816 
Q 1244 2928 1461 2984 
Q 1678 3041 1947 3041 
Q 2703 3041 3140 2622 
Q 3578 2203 3578 1478 
Q 3578 738 3136 323 
Q 2694 -91 1894 -91 
Q 1572 -91 1234 -12 
Q 897 66 544 225 
L 544 1131 
L 897 1131 
Q 925 688 1179 453 
Q 1434 219 1894 219 
Q 2388 219 2653 544 
Q 2919 869 2919 1478 
Q 2919 2084 2655 2407 
Q 2391 2731 1894 2731 
Q 1613 2731 1398 2631 
Q 1184 2531 1019 2322 
L 750 2322 
L 750 4666 
L 3219 4666 
z
" transform="scale(0.015625)"/>
       </defs>
       <use xlink:href="#DejaVuSerif-30" transform="translate(0 0.78125)"/>
       <use xlink:href="#DejaVuSerif-2e" transform="translate(63.623047 0.78125)"/>
       <use xlink:href="#DejaVuSerif-35" transform="translate(95.410156 0.78125)"/>
      </g>
     </g>
    </g>
    <g id="xtick_3">
     <g id="line2d_6">
      <g>
       <use xlink:href="#m291fdc5682" x="234.447658" y="253.185354" style="stroke: #000000; stroke-width: 0.5"/>
      </g>
     </g>
     <g id="line2d_7">
      <g>
       <use xlink:href="#m04658895be" x="234.447658" y="18.194646" style="stroke: #000000; stroke-width: 0.5"/>
      </g>
     </g>
     <g id="text_3">
      <!-- $1.0$ -->
      <g transform="translate(226.447658 264.283792) scale(0.1 -0.1)">
       <defs>
        <path id="DejaVuSerif-31" d="M 909 0 
L 909 331 
L 1722 331 
L 1722 4213 
L 781 3603 
L 781 4013 
L 1919 4750 
L 2350 4750 
L 2350 331 
L 3163 331 
L 3163 0 
L 909 0 
z
" transform="scale(0.015625)"/>
       </defs>
       <use xlink:href="#DejaVuSerif-31" transform="translate(0 0.78125)"/>
       <use xlink:href="#DejaVuSerif-2e" transform="translate(63.623047 0.78125)"/>
       <use xlink:href="#DejaVuSerif-30" transform="translate(95.410156 0.78125)"/>
      </g>
     </g>
    </g>
    <g id="xtick_4">
     <g id="line2d_8">
      <g>
       <use xlink:href="#m291fdc5682" x="327.646138" y="253.185354" style="stroke: #000000; stroke-width: 0.5"/>
      </g>
     </g>
     <g id="line2d_9">
      <g>
       <use xlink:href="#m04658895be" x="327.646138" y="18.194646" style="stroke: #000000; stroke-width: 0.5"/>
      </g>
     </g>
     <g id="text_4">
      <!-- $1.5$ -->
      <g transform="translate(319.646138 264.283792) scale(0.1 -0.1)">
       <use xlink:href="#DejaVuSerif-31" transform="translate(0 0.78125)"/>
       <use xlink:href="#DejaVuSerif-2e" transform="translate(63.623047 0.78125)"/>
       <use xlink:href="#DejaVuSerif-35" transform="translate(95.410156 0.78125)"/>
      </g>
     </g>
    </g>
    <g id="xtick_5">
     <g id="line2d_10">
      <g>
       <use xlink:href="#m291fdc5682" x="420.844617" y="253.185354" style="stroke: #000000; stroke-width: 0.5"/>
      </g>
     </g>
     <g id="line2d_11">
      <g>
       <use xlink:href="#m04658895be" x="420.844617" y="18.194646" style="stroke: #000000; stroke-width: 0.5"/>
      </g>
     </g>
     <g id="text_5">
      <!-- $2.0$ -->
      <g transform="translate(412.844617 264.283792) scale(0.1 -0.1)">
       <defs>
        <path id="DejaVuSerif-32" d="M 819 3553 
L 469 3553 
L 469 4384 
Q 803 4563 1142 4656 
Q 1481 4750 1806 4750 
Q 2534 4750 2956 4397 
Q 3378 4044 3378 3438 
Q 3378 2753 2422 1800 
Q 2347 1728 2309 1691 
L 1131 513 
L 3078 513 
L 3078 1088 
L 3444 1088 
L 3444 0 
L 434 0 
L 434 341 
L 1850 1753 
Q 2319 2222 2519 2614 
Q 2719 3006 2719 3438 
Q 2719 3909 2473 4175 
Q 2228 4441 1797 4441 
Q 1350 4441 1106 4219 
Q 863 3997 819 3553 
z
" transform="scale(0.015625)"/>
       </defs>
       <use xlink:href="#DejaVuSerif-32" transform="translate(0 0.78125)"/>
       <use xlink:href="#DejaVuSerif-2e" transform="translate(63.623047 0.78125)"/>
       <use xlink:href="#DejaVuSerif-30" transform="translate(95.410156 0.78125)"/>
      </g>
     </g>
    </g>
    <g id="text_6">
     <!-- $l/N$ -->
     <g transform="translate(225.207658 279.481604) scale(0.12 -0.12)">
      <defs>
       <path id="DejaVuSerif-Italic-6c" d="M 903 331 
L 1447 331 
L 1384 0 
L 266 0 
L 1147 4531 
L 594 4531 
L 656 4863 
L 1784 4863 
L 903 331 
z
" transform="scale(0.015625)"/>
       <path id="DejaVuSerif-2f" d="M 1656 4666 
L 2156 4666 
L 500 -594 
L 0 -594 
L 1656 4666 
z
" transform="scale(0.015625)"/>
       <path id="DejaVuSerif-Italic-4e" d="M -128 0 
L -66 331 
L 563 331 
L 1341 4331 
L 713 4331 
L 778 4666 
L 1975 4666 
L 4056 984 
L 4706 4331 
L 4081 4331 
L 4147 4666 
L 5784 4666 
L 5719 4331 
L 5091 4331 
L 4231 -91 
L 3853 -91 
L 1631 3841 
L 947 331 
L 1575 331 
L 1513 0 
L -128 0 
z
" transform="scale(0.015625)"/>
      </defs>
      <use xlink:href="#DejaVuSerif-Italic-6c" transform="translate(0 0.015625)"/>
      <use xlink:href="#DejaVuSerif-2f" transform="translate(31.982422 0.015625)"/>
      <use xlink:href="#DejaVuSerif-Italic-4e" transform="translate(65.673828 0.015625)"/>
     </g>
    </g>
   </g>
   <g id="matplotlib.axis_2">
    <g id="ytick_1">
     <g id="line2d_12">
      <defs>
       <path id="mc9bcb62a2d" d="M 0 0 
L 2.5 0 
" style="stroke: #000000; stroke-width: 0.5"/>
      </defs>
      <g>
       <use xlink:href="#mc9bcb62a2d" x="48.0507" y="57.183034" style="stroke: #000000; stroke-width: 0.5"/>
      </g>
     </g>
     <g id="line2d_13">
      <defs>
       <path id="ma666762bbc" d="M 0 0 
L -2.5 0 
" style="stroke: #000000; stroke-width: 0.5"/>
      </defs>
      <g>
       <use xlink:href="#ma666762bbc" x="420.844617" y="57.183034" style="stroke: #000000; stroke-width: 0.5"/>
      </g>
     </g>
     <g id="text_7">
      <!-- $10^{0}$ -->
      <g transform="translate(26.9507 60.982253) scale(0.1 -0.1)">
       <use xlink:href="#DejaVuSerif-31" transform="translate(0 0.7125)"/>
       <use xlink:href="#DejaVuSerif-30" transform="translate(63.623047 0.7125)"/>
       <use xlink:href="#DejaVuSerif-30" transform="translate(128.154453 37.046875) scale(0.7)"/>
      </g>
     </g>
    </g>
    <g id="ytick_2">
     <g id="line2d_14">
      <g>
       <use xlink:href="#mc9bcb62a2d" x="48.0507" y="103.057229" style="stroke: #000000; stroke-width: 0.5"/>
      </g>
     </g>
     <g id="line2d_15">
      <g>
       <use xlink:href="#ma666762bbc" x="420.844617" y="103.057229" style="stroke: #000000; stroke-width: 0.5"/>
      </g>
     </g>
     <g id="text_8">
      <!-- $10^{-1}$ -->
      <g transform="translate(21.1507 106.856447) scale(0.1 -0.1)">
       <defs>
        <path id="DejaVuSerif-2212" d="M 678 2259 
L 4684 2259 
L 4684 1753 
L 678 1753 
L 678 2259 
z
" transform="scale(0.015625)"/>
       </defs>
       <use xlink:href="#DejaVuSerif-31" transform="translate(0 0.7125)"/>
       <use xlink:href="#DejaVuSerif-30" transform="translate(63.623047 0.7125)"/>
       <use xlink:href="#DejaVuSerif-2212" transform="translate(128.154453 37.046875) scale(0.7)"/>
       <use xlink:href="#DejaVuSerif-31" transform="translate(186.806797 37.046875) scale(0.7)"/>
      </g>
     </g>
    </g>
    <g id="ytick_3">
     <g id="line2d_16">
      <g>
       <use xlink:href="#mc9bcb62a2d" x="48.0507" y="148.931423" style="stroke: #000000; stroke-width: 0.5"/>
      </g>
     </g>
     <g id="line2d_17">
      <g>
       <use xlink:href="#ma666762bbc" x="420.844617" y="148.931423" style="stroke: #000000; stroke-width: 0.5"/>
      </g>
     </g>
     <g id="text_9">
      <!-- $10^{-2}$ -->
      <g transform="translate(21.1507 152.730642) scale(0.1 -0.1)">
       <use xlink:href="#DejaVuSerif-31" transform="translate(0 0.7125)"/>
       <use xlink:href="#DejaVuSerif-30" transform="translate(63.623047 0.7125)"/>
       <use xlink:href="#DejaVuSerif-2212" transform="translate(128.154453 37.046875) scale(0.7)"/>
       <use xlink:href="#DejaVuSerif-32" transform="translate(186.806797 37.046875) scale(0.7)"/>
      </g>
     </g>
    </g>
    <g id="ytick_4">
     <g id="line2d_18">
      <g>
       <use xlink:href="#mc9bcb62a2d" x="48.0507" y="194.805618" style="stroke: #000000; stroke-width: 0.5"/>
      </g>
     </g>
     <g id="line2d_19">
      <g>
       <use xlink:href="#ma666762bbc" x="420.844617" y="194.805618" style="stroke: #000000; stroke-width: 0.5"/>
      </g>
     </g>
     <g id="text_10">
      <!-- $10^{-3}$ -->
      <g transform="translate(21.1507 198.604837) scale(0.1 -0.1)">
       <defs>
        <path id="DejaVuSerif-33" d="M 622 4469 
Q 988 4606 1323 4678 
Q 1659 4750 1953 4750 
Q 2638 4750 3022 4454 
Q 3406 4159 3406 3634 
Q 3406 3213 3140 2930 
Q 2875 2647 2388 2547 
Q 2963 2466 3280 2130 
Q 3597 1794 3597 1259 
Q 3597 606 3158 257 
Q 2719 -91 1894 -91 
Q 1528 -91 1179 -12 
Q 831 66 488 225 
L 488 1131 
L 838 1131 
Q 869 681 1141 450 
Q 1413 219 1906 219 
Q 2384 219 2661 495 
Q 2938 772 2938 1253 
Q 2938 1803 2653 2086 
Q 2369 2369 1819 2369 
L 1522 2369 
L 1522 2688 
L 1678 2688 
Q 2225 2688 2498 2914 
Q 2772 3141 2772 3597 
Q 2772 4006 2547 4223 
Q 2322 4441 1900 4441 
Q 1478 4441 1245 4241 
Q 1013 4041 972 3647 
L 622 3647 
L 622 4469 
z
" transform="scale(0.015625)"/>
       </defs>
       <use xlink:href="#DejaVuSerif-31" transform="translate(0 0.7125)"/>
       <use xlink:href="#DejaVuSerif-30" transform="translate(63.623047 0.7125)"/>
       <use xlink:href="#DejaVuSerif-2212" transform="translate(128.154453 37.046875) scale(0.7)"/>
       <use xlink:href="#DejaVuSerif-33" transform="translate(186.806797 37.046875) scale(0.7)"/>
      </g>
     </g>
    </g>
    <g id="ytick_5">
     <g id="line2d_20">
      <g>
       <use xlink:href="#mc9bcb62a2d" x="48.0507" y="240.679813" style="stroke: #000000; stroke-width: 0.5"/>
      </g>
     </g>
     <g id="line2d_21">
      <g>
       <use xlink:href="#ma666762bbc" x="420.844617" y="240.679813" style="stroke: #000000; stroke-width: 0.5"/>
      </g>
     </g>
     <g id="text_11">
      <!-- $10^{-4}$ -->
      <g transform="translate(21.1507 244.479032) scale(0.1 -0.1)">
       <defs>
        <path id="DejaVuSerif-34" d="M 2234 1581 
L 2234 4063 
L 641 1581 
L 2234 1581 
z
M 3609 0 
L 1484 0 
L 1484 331 
L 2234 331 
L 2234 1247 
L 197 1247 
L 197 1588 
L 2241 4750 
L 2859 4750 
L 2859 1581 
L 3750 1581 
L 3750 1247 
L 2859 1247 
L 2859 331 
L 3609 331 
L 3609 0 
z
" transform="scale(0.015625)"/>
       </defs>
       <use xlink:href="#DejaVuSerif-31" transform="translate(0 0.7125)"/>
       <use xlink:href="#DejaVuSerif-30" transform="translate(63.623047 0.7125)"/>
       <use xlink:href="#DejaVuSerif-2212" transform="translate(128.154453 37.046875) scale(0.7)"/>
       <use xlink:href="#DejaVuSerif-34" transform="translate(186.806797 37.046875) scale(0.7)"/>
      </g>
     </g>
    </g>
    <g id="text_12">
     <!-- $D_{\text{KL}}$ -->
     <g transform="translate(14.655075 146.61) rotate(-90) scale(0.12 -0.12)">
      <defs>
       <path id="DejaVuSerif-Italic-44" d="M 1194 331 
L 1775 331 
Q 2684 331 3271 850 
Q 3859 1369 4048 2337 
Q 4238 3306 3852 3818 
Q 3466 4331 2553 4331 
L 1972 4331 
L 1194 331 
z
M -97 0 
L -34 331 
L 559 331 
L 1338 4331 
L 744 4331 
L 809 4666 
L 2666 4666 
Q 3872 4666 4426 4050 
Q 4981 3434 4766 2338 
Q 4553 1238 3758 619 
Q 2963 0 1759 0 
L -97 0 
z
" transform="scale(0.015625)"/>
       <path id="DejaVuSerif-4b" d="M 353 0 
L 353 331 
L 947 331 
L 947 4331 
L 353 4331 
L 353 4666 
L 2175 4666 
L 2175 4331 
L 1581 4331 
L 1581 2566 
L 3591 4331 
L 3084 4331 
L 3084 4666 
L 4634 4666 
L 4634 4331 
L 4109 4331 
L 2106 2572 
L 4347 331 
L 4878 331 
L 4878 0 
L 3794 0 
L 1581 2216 
L 1581 331 
L 2175 331 
L 2175 0 
L 353 0 
z
" transform="scale(0.015625)"/>
       <path id="DejaVuSerif-4c" d="M 353 0 
L 353 331 
L 947 331 
L 947 4331 
L 353 4331 
L 353 4666 
L 2175 4666 
L 2175 4331 
L 1581 4331 
L 1581 384 
L 3713 384 
L 3713 1166 
L 4097 1166 
L 4097 0 
L 353 0 
z
" transform="scale(0.015625)"/>
      </defs>
      <use xlink:href="#DejaVuSerif-Italic-44" transform="translate(0 0.09375)"/>
      <use xlink:href="#DejaVuSerif-4b" transform="translate(80.175781 -15.478125) scale(0.7)"/>
      <use xlink:href="#DejaVuSerif-4c" transform="translate(132.470703 -15.478125) scale(0.7)"/>
     </g>
    </g>
   </g>
   <g id="line2d_22">
    <path d="M 71.350319 87.452369 
L 94.649939 124.274845 
L 117.949559 163.477486 
L 141.249179 215.47489 
L 164.548799 224.639187 
L 187.848419 230.792092 
L 211.148038 233.195371 
L 234.447658 232.246416 
L 257.747278 238.733575 
L 281.046898 240.856896 
L 304.346518 238.029739 
L 327.646138 240.240748 
L 350.945758 241.54669 
L 374.245377 240.629558 
L 397.544997 237.086508 
" clip-path="url(#p22003545c8)" style="fill: none; stroke: #3d70c4"/>
   </g>
   <g id="PathCollection_2">
    <defs>
     <path id="mbc48909c85" d="M -0.765367 -1.847759 
L -1.847759 -0.765367 
L -1.847759 0.765367 
L -0.765367 1.847759 
L 0.765367 1.847759 
L 1.847759 0.765367 
L 1.847759 -0.765367 
L 0.765367 -1.847759 
z
"/>
    </defs>
    <g clip-path="url(#p22003545c8)">
     <use xlink:href="#mbc48909c85" x="71.350319" y="87.452369" style="fill: #3d70c4"/>
     <use xlink:href="#mbc48909c85" x="94.649939" y="124.274845" style="fill: #3d70c4"/>
     <use xlink:href="#mbc48909c85" x="117.949559" y="163.477486" style="fill: #3d70c4"/>
     <use xlink:href="#mbc48909c85" x="141.249179" y="215.47489" style="fill: #3d70c4"/>
     <use xlink:href="#mbc48909c85" x="164.548799" y="224.639187" style="fill: #3d70c4"/>
     <use xlink:href="#mbc48909c85" x="187.848419" y="230.792092" style="fill: #3d70c4"/>
     <use xlink:href="#mbc48909c85" x="211.148038" y="233.195371" style="fill: #3d70c4"/>
     <use xlink:href="#mbc48909c85" x="234.447658" y="232.246416" style="fill: #3d70c4"/>
     <use xlink:href="#mbc48909c85" x="257.747278" y="238.733575" style="fill: #3d70c4"/>
     <use xlink:href="#mbc48909c85" x="281.046898" y="240.856896" style="fill: #3d70c4"/>
     <use xlink:href="#mbc48909c85" x="304.346518" y="238.029739" style="fill: #3d70c4"/>
     <use xlink:href="#mbc48909c85" x="327.646138" y="240.240748" style="fill: #3d70c4"/>
     <use xlink:href="#mbc48909c85" x="350.945758" y="241.54669" style="fill: #3d70c4"/>
     <use xlink:href="#mbc48909c85" x="374.245377" y="240.629558" style="fill: #3d70c4"/>
     <use xlink:href="#mbc48909c85" x="397.544997" y="237.086508" style="fill: #3d70c4"/>
    </g>
   </g>
   <g id="patch_3">
    <path d="M 48.0507 253.185354 
L 48.0507 18.194646 
" style="fill: none; stroke: #000000; stroke-linejoin: miter; stroke-linecap: square"/>
   </g>
   <g id="patch_4">
    <path d="M 420.844617 253.185354 
L 420.844617 18.194646 
" style="fill: none; stroke: #000000; stroke-linejoin: miter; stroke-linecap: square"/>
   </g>
   <g id="patch_5">
    <path d="M 48.0507 253.185354 
L 420.844617 253.185354 
" style="fill: none; stroke: #000000; stroke-linejoin: miter; stroke-linecap: square"/>
   </g>
   <g id="patch_6">
    <path d="M 48.0507 18.194646 
L 420.844617 18.194646 
" style="fill: none; stroke: #000000; stroke-linejoin: miter; stroke-linecap: square"/>
   </g>
   <g id="line2d_23">
    <path d="M 66.690395 81.734724 
L 85.330091 115.662432 
L 103.969787 155.948945 
L 122.609483 191.225294 
L 141.249179 229.4944 
L 159.888875 237.730454 
L 178.528571 244.924773 
L 197.168267 239.894498 
L 215.807962 245.77114 
L 234.447658 242.500209 
L 253.087354 233.903565 
L 271.72705 238.48017 
L 290.366746 244.528518 
L 309.006442 239.227895 
L 327.646138 239.139889 
" clip-path="url(#p22003545c8)" style="fill: none; stroke: #2d5391"/>
   </g>
   <g id="text_13">
    <!-- Entanglement spectrum convergence with circuit depth -->
    <g transform="translate(63.969846 12.194646) scale(0.12 -0.12)">
     <defs>
      <path id="DejaVuSerif-45" d="M 353 0 
L 353 331 
L 947 331 
L 947 4331 
L 353 4331 
L 353 4666 
L 4109 4666 
L 4109 3628 
L 3725 3628 
L 3725 4281 
L 1581 4281 
L 1581 2719 
L 3109 2719 
L 3109 3303 
L 3494 3303 
L 3494 1753 
L 3109 1753 
L 3109 2338 
L 1581 2338 
L 1581 384 
L 3775 384 
L 3775 1038 
L 4159 1038 
L 4159 0 
L 353 0 
z
" transform="scale(0.015625)"/>
      <path id="DejaVuSerif-6e" d="M 263 0 
L 263 331 
L 781 331 
L 781 2988 
L 231 2988 
L 231 3322 
L 1356 3322 
L 1356 2731 
Q 1516 3069 1770 3241 
Q 2025 3413 2363 3413 
Q 2913 3413 3172 3097 
Q 3431 2781 3431 2113 
L 3431 331 
L 3944 331 
L 3944 0 
L 2356 0 
L 2356 331 
L 2853 331 
L 2853 1931 
Q 2853 2541 2703 2767 
Q 2553 2994 2175 2994 
Q 1775 2994 1565 2701 
Q 1356 2409 1356 1850 
L 1356 331 
L 1856 331 
L 1856 0 
L 263 0 
z
" transform="scale(0.015625)"/>
      <path id="DejaVuSerif-74" d="M 691 2988 
L 184 2988 
L 184 3322 
L 691 3322 
L 691 4353 
L 1269 4353 
L 1269 3322 
L 2350 3322 
L 2350 2988 
L 1269 2988 
L 1269 878 
Q 1269 456 1350 337 
Q 1431 219 1650 219 
Q 1875 219 1978 351 
Q 2081 484 2088 781 
L 2522 781 
Q 2497 328 2275 118 
Q 2053 -91 1600 -91 
Q 1103 -91 897 129 
Q 691 350 691 878 
L 691 2988 
z
" transform="scale(0.015625)"/>
      <path id="DejaVuSerif-61" d="M 2547 1044 
L 2547 1747 
L 1806 1747 
Q 1378 1747 1168 1562 
Q 959 1378 959 997 
Q 959 650 1171 447 
Q 1384 244 1747 244 
Q 2106 244 2326 466 
Q 2547 688 2547 1044 
z
M 3122 2075 
L 3122 331 
L 3634 331 
L 3634 0 
L 2547 0 
L 2547 359 
Q 2356 128 2106 18 
Q 1856 -91 1522 -91 
Q 969 -91 644 203 
Q 319 497 319 997 
Q 319 1513 691 1797 
Q 1063 2081 1741 2081 
L 2547 2081 
L 2547 2309 
Q 2547 2688 2317 2895 
Q 2088 3103 1672 3103 
Q 1328 3103 1125 2947 
Q 922 2791 872 2484 
L 575 2484 
L 575 3156 
Q 875 3284 1158 3348 
Q 1441 3413 1709 3413 
Q 2400 3413 2761 3070 
Q 3122 2728 3122 2075 
z
" transform="scale(0.015625)"/>
      <path id="DejaVuSerif-67" d="M 3359 2988 
L 3359 72 
Q 3359 -644 2965 -1033 
Q 2572 -1422 1844 -1422 
Q 1516 -1422 1216 -1362 
Q 916 -1303 641 -1184 
L 641 -488 
L 941 -488 
Q 997 -813 1206 -963 
Q 1416 -1113 1806 -1113 
Q 2313 -1113 2548 -827 
Q 2784 -541 2784 72 
L 2784 519 
Q 2616 206 2355 57 
Q 2094 -91 1709 -91 
Q 1097 -91 708 395 
Q 319 881 319 1663 
Q 319 2444 706 2928 
Q 1094 3413 1709 3413 
Q 2094 3413 2355 3264 
Q 2616 3116 2784 2803 
L 2784 3322 
L 3909 3322 
L 3909 2988 
L 3359 2988 
z
M 2784 1825 
Q 2784 2422 2554 2737 
Q 2325 3053 1888 3053 
Q 1444 3053 1217 2703 
Q 991 2353 991 1663 
Q 991 975 1217 622 
Q 1444 269 1888 269 
Q 2325 269 2554 583 
Q 2784 897 2784 1497 
L 2784 1825 
z
" transform="scale(0.015625)"/>
      <path id="DejaVuSerif-6c" d="M 1313 331 
L 1856 331 
L 1856 0 
L 184 0 
L 184 331 
L 738 331 
L 738 4531 
L 184 4531 
L 184 4863 
L 1313 4863 
L 1313 331 
z
" transform="scale(0.015625)"/>
      <path id="DejaVuSerif-65" d="M 3469 1600 
L 991 1600 
L 991 1575 
Q 991 903 1244 561 
Q 1497 219 1991 219 
Q 2369 219 2611 417 
Q 2853 616 2950 1006 
L 3413 1006 
Q 3275 459 2904 184 
Q 2534 -91 1931 -91 
Q 1203 -91 761 389 
Q 319 869 319 1663 
Q 319 2450 753 2931 
Q 1188 3413 1894 3413 
Q 2647 3413 3050 2948 
Q 3453 2484 3469 1600 
z
M 2791 1931 
Q 2772 2513 2545 2808 
Q 2319 3103 1894 3103 
Q 1497 3103 1269 2806 
Q 1041 2509 991 1931 
L 2791 1931 
z
" transform="scale(0.015625)"/>
      <path id="DejaVuSerif-6d" d="M 3316 2675 
Q 3481 3041 3739 3227 
Q 3997 3413 4341 3413 
Q 4863 3413 5119 3089 
Q 5375 2766 5375 2113 
L 5375 331 
L 5894 331 
L 5894 0 
L 4300 0 
L 4300 331 
L 4800 331 
L 4800 2047 
Q 4800 2556 4650 2772 
Q 4500 2988 4153 2988 
Q 3769 2988 3567 2697 
Q 3366 2406 3366 1850 
L 3366 331 
L 3866 331 
L 3866 0 
L 2291 0 
L 2291 331 
L 2791 331 
L 2791 2069 
Q 2791 2566 2641 2777 
Q 2491 2988 2144 2988 
Q 1759 2988 1557 2697 
Q 1356 2406 1356 1850 
L 1356 331 
L 1856 331 
L 1856 0 
L 263 0 
L 263 331 
L 781 331 
L 781 2994 
L 231 2994 
L 231 3322 
L 1356 3322 
L 1356 2731 
Q 1516 3063 1762 3238 
Q 2009 3413 2322 3413 
Q 2709 3413 2968 3220 
Q 3228 3028 3316 2675 
z
" transform="scale(0.015625)"/>
      <path id="DejaVuSerif-20" transform="scale(0.015625)"/>
      <path id="DejaVuSerif-73" d="M 359 184 
L 359 959 
L 691 959 
Q 703 588 923 403 
Q 1144 219 1575 219 
Q 1963 219 2166 364 
Q 2369 509 2369 788 
Q 2369 1006 2220 1140 
Q 2072 1275 1594 1428 
L 1178 1569 
Q 750 1706 558 1912 
Q 366 2119 366 2438 
Q 366 2894 700 3153 
Q 1034 3413 1625 3413 
Q 1888 3413 2178 3344 
Q 2469 3275 2778 3144 
L 2778 2419 
L 2447 2419 
Q 2434 2741 2221 2922 
Q 2009 3103 1644 3103 
Q 1281 3103 1095 2975 
Q 909 2847 909 2591 
Q 909 2381 1050 2254 
Q 1191 2128 1613 1997 
L 2069 1856 
Q 2541 1709 2748 1489 
Q 2956 1269 2956 922 
Q 2956 450 2595 179 
Q 2234 -91 1600 -91 
Q 1278 -91 972 -22 
Q 666 47 359 184 
z
" transform="scale(0.015625)"/>
      <path id="DejaVuSerif-70" d="M 1313 1825 
L 1313 1497 
Q 1313 897 1542 583 
Q 1772 269 2209 269 
Q 2650 269 2876 622 
Q 3103 975 3103 1663 
Q 3103 2353 2876 2703 
Q 2650 3053 2209 3053 
Q 1772 3053 1542 2737 
Q 1313 2422 1313 1825 
z
M 738 2988 
L 184 2988 
L 184 3322 
L 1313 3322 
L 1313 2803 
Q 1481 3116 1742 3264 
Q 2003 3413 2388 3413 
Q 3000 3413 3387 2928 
Q 3775 2444 3775 1663 
Q 3775 881 3387 395 
Q 3000 -91 2388 -91 
Q 2003 -91 1742 57 
Q 1481 206 1313 519 
L 1313 -997 
L 1856 -997 
L 1856 -1331 
L 184 -1331 
L 184 -997 
L 738 -997 
L 738 2988 
z
" transform="scale(0.015625)"/>
      <path id="DejaVuSerif-63" d="M 3291 997 
Q 3169 466 2822 187 
Q 2475 -91 1925 -91 
Q 1200 -91 759 389 
Q 319 869 319 1663 
Q 319 2459 759 2936 
Q 1200 3413 1925 3413 
Q 2241 3413 2553 3339 
Q 2866 3266 3181 3116 
L 3181 2266 
L 2847 2266 
Q 2781 2703 2561 2903 
Q 2341 3103 1931 3103 
Q 1466 3103 1228 2742 
Q 991 2381 991 1663 
Q 991 944 1227 581 
Q 1463 219 1931 219 
Q 2303 219 2525 412 
Q 2747 606 2828 997 
L 3291 997 
z
" transform="scale(0.015625)"/>
      <path id="DejaVuSerif-72" d="M 3059 3328 
L 3059 2497 
L 2728 2497 
Q 2713 2744 2591 2866 
Q 2469 2988 2234 2988 
Q 1809 2988 1582 2694 
Q 1356 2400 1356 1850 
L 1356 331 
L 2022 331 
L 2022 0 
L 263 0 
L 263 331 
L 781 331 
L 781 2994 
L 231 2994 
L 231 3322 
L 1356 3322 
L 1356 2731 
Q 1525 3078 1790 3245 
Q 2056 3413 2438 3413 
Q 2578 3413 2733 3391 
Q 2888 3369 3059 3328 
z
" transform="scale(0.015625)"/>
      <path id="DejaVuSerif-75" d="M 2266 3322 
L 3341 3322 
L 3341 331 
L 3884 331 
L 3884 0 
L 2766 0 
L 2766 588 
Q 2606 256 2353 82 
Q 2100 -91 1766 -91 
Q 1213 -91 952 223 
Q 691 538 691 1209 
L 691 2988 
L 172 2988 
L 172 3322 
L 1269 3322 
L 1269 1388 
Q 1269 781 1417 556 
Q 1566 331 1947 331 
Q 2347 331 2556 625 
Q 2766 919 2766 1478 
L 2766 2988 
L 2266 2988 
L 2266 3322 
z
" transform="scale(0.015625)"/>
      <path id="DejaVuSerif-6f" d="M 1925 219 
Q 2388 219 2623 584 
Q 2859 950 2859 1663 
Q 2859 2375 2623 2739 
Q 2388 3103 1925 3103 
Q 1463 3103 1227 2739 
Q 991 2375 991 1663 
Q 991 950 1228 584 
Q 1466 219 1925 219 
z
M 1925 -91 
Q 1200 -91 759 389 
Q 319 869 319 1663 
Q 319 2456 758 2934 
Q 1197 3413 1925 3413 
Q 2653 3413 3092 2934 
Q 3531 2456 3531 1663 
Q 3531 869 3092 389 
Q 2653 -91 1925 -91 
z
" transform="scale(0.015625)"/>
      <path id="DejaVuSerif-76" d="M 1581 0 
L 359 2988 
L -19 2988 
L -19 3322 
L 1509 3322 
L 1509 2988 
L 978 2988 
L 1913 703 
L 2847 2988 
L 2350 2988 
L 2350 3322 
L 3597 3322 
L 3597 2988 
L 3225 2988 
L 2003 0 
L 1581 0 
z
" transform="scale(0.015625)"/>
      <path id="DejaVuSerif-77" d="M 3072 3322 
L 3922 728 
L 4672 2988 
L 4191 2988 
L 4191 3322 
L 5394 3322 
L 5394 2988 
L 5025 2988 
L 4038 0 
L 3559 0 
L 2741 2484 
L 1919 0 
L 1459 0 
L 475 2988 
L 103 2988 
L 103 3322 
L 1606 3322 
L 1606 2988 
L 1069 2988 
L 1813 728 
L 2669 3322 
L 3072 3322 
z
" transform="scale(0.015625)"/>
      <path id="DejaVuSerif-69" d="M 622 4353 
Q 622 4497 726 4603 
Q 831 4709 978 4709 
Q 1122 4709 1226 4603 
Q 1331 4497 1331 4353 
Q 1331 4206 1228 4103 
Q 1125 4000 978 4000 
Q 831 4000 726 4103 
Q 622 4206 622 4353 
z
M 1356 331 
L 1900 331 
L 1900 0 
L 231 0 
L 231 331 
L 781 331 
L 781 2988 
L 231 2988 
L 231 3322 
L 1356 3322 
L 1356 331 
z
" transform="scale(0.015625)"/>
      <path id="DejaVuSerif-68" d="M 263 0 
L 263 331 
L 781 331 
L 781 4531 
L 231 4531 
L 231 4863 
L 1356 4863 
L 1356 2731 
Q 1516 3069 1770 3241 
Q 2025 3413 2363 3413 
Q 2913 3413 3172 3097 
Q 3431 2781 3431 2113 
L 3431 331 
L 3944 331 
L 3944 0 
L 2356 0 
L 2356 331 
L 2853 331 
L 2853 1931 
Q 2853 2541 2704 2764 
Q 2556 2988 2175 2988 
Q 1775 2988 1565 2697 
Q 1356 2406 1356 1850 
L 1356 331 
L 1856 331 
L 1856 0 
L 263 0 
z
" transform="scale(0.015625)"/>
      <path id="DejaVuSerif-64" d="M 3359 331 
L 3909 331 
L 3909 0 
L 2784 0 
L 2784 519 
Q 2616 206 2355 57 
Q 2094 -91 1709 -91 
Q 1097 -91 708 395 
Q 319 881 319 1663 
Q 319 2444 706 2928 
Q 1094 3413 1709 3413 
Q 2094 3413 2355 3264 
Q 2616 3116 2784 2803 
L 2784 4531 
L 2241 4531 
L 2241 4863 
L 3359 4863 
L 3359 331 
z
M 2784 1497 
L 2784 1825 
Q 2784 2422 2554 2737 
Q 2325 3053 1888 3053 
Q 1444 3053 1217 2703 
Q 991 2353 991 1663 
Q 991 975 1217 622 
Q 1444 269 1888 269 
Q 2325 269 2554 583 
Q 2784 897 2784 1497 
z
" transform="scale(0.015625)"/>
     </defs>
     <use xlink:href="#DejaVuSerif-45"/>
     <use xlink:href="#DejaVuSerif-6e" x="72.998047"/>
     <use xlink:href="#DejaVuSerif-74" x="137.402344"/>
     <use xlink:href="#DejaVuSerif-61" x="177.587891"/>
     <use xlink:href="#DejaVuSerif-6e" x="237.207031"/>
     <use xlink:href="#DejaVuSerif-67" x="301.611328"/>
     <use xlink:href="#DejaVuSerif-6c" x="365.625"/>
     <use xlink:href="#DejaVuSerif-65" x="397.607422"/>
     <use xlink:href="#DejaVuSerif-6d" x="456.787109"/>
     <use xlink:href="#DejaVuSerif-65" x="551.611328"/>
     <use xlink:href="#DejaVuSerif-6e" x="610.791016"/>
     <use xlink:href="#DejaVuSerif-74" x="675.195312"/>
     <use xlink:href="#DejaVuSerif-20" x="715.380859"/>
     <use xlink:href="#DejaVuSerif-73" x="747.167969"/>
     <use xlink:href="#DejaVuSerif-70" x="798.486328"/>
     <use xlink:href="#DejaVuSerif-65" x="862.5"/>
     <use xlink:href="#DejaVuSerif-63" x="921.679688"/>
     <use xlink:href="#DejaVuSerif-74" x="977.685547"/>
     <use xlink:href="#DejaVuSerif-72" x="1017.871094"/>
     <use xlink:href="#DejaVuSerif-75" x="1065.673828"/>
     <use xlink:href="#DejaVuSerif-6d" x="1130.078125"/>
     <use xlink:href="#DejaVuSerif-20" x="1224.902344"/>
     <use xlink:href="#DejaVuSerif-63" x="1256.689453"/>
     <use xlink:href="#DejaVuSerif-6f" x="1312.695312"/>
     <use xlink:href="#DejaVuSerif-6e" x="1372.900391"/>
     <use xlink:href="#DejaVuSerif-76" x="1437.304688"/>
     <use xlink:href="#DejaVuSerif-65" x="1493.798828"/>
     <use xlink:href="#DejaVuSerif-72" x="1552.978516"/>
     <use xlink:href="#DejaVuSerif-67" x="1600.78125"/>
     <use xlink:href="#DejaVuSerif-65" x="1664.794922"/>
     <use xlink:href="#DejaVuSerif-6e" x="1723.974609"/>
     <use xlink:href="#DejaVuSerif-63" x="1788.378906"/>
     <use xlink:href="#DejaVuSerif-65" x="1844.384766"/>
     <use xlink:href="#DejaVuSerif-20" x="1903.564453"/>
     <use xlink:href="#DejaVuSerif-77" x="1935.351562"/>
     <use xlink:href="#DejaVuSerif-69" x="2020.947266"/>
     <use xlink:href="#DejaVuSerif-74" x="2052.929688"/>
     <use xlink:href="#DejaVuSerif-68" x="2093.115234"/>
     <use xlink:href="#DejaVuSerif-20" x="2157.519531"/>
     <use xlink:href="#DejaVuSerif-63" x="2189.306641"/>
     <use xlink:href="#DejaVuSerif-69" x="2245.3125"/>
     <use xlink:href="#DejaVuSerif-72" x="2277.294922"/>
     <use xlink:href="#DejaVuSerif-63" x="2325.097656"/>
     <use xlink:href="#DejaVuSerif-75" x="2381.103516"/>
     <use xlink:href="#DejaVuSerif-69" x="2445.507812"/>
     <use xlink:href="#DejaVuSerif-74" x="2477.490234"/>
     <use xlink:href="#DejaVuSerif-20" x="2517.675781"/>
     <use xlink:href="#DejaVuSerif-64" x="2549.462891"/>
     <use xlink:href="#DejaVuSerif-65" x="2613.476562"/>
     <use xlink:href="#DejaVuSerif-70" x="2672.65625"/>
     <use xlink:href="#DejaVuSerif-74" x="2736.669922"/>
     <use xlink:href="#DejaVuSerif-68" x="2776.855469"/>
    </g>
   </g>
   <g id="PathCollection_3">
    <defs>
     <path id="m3254c3a733" d="M -0.765367 -1.847759 
L -1.847759 -0.765367 
L -1.847759 0.765367 
L -0.765367 1.847759 
L 0.765367 1.847759 
L 1.847759 0.765367 
L 1.847759 -0.765367 
L 0.765367 -1.847759 
z
"/>
    </defs>
    <g clip-path="url(#p22003545c8)">
     <use xlink:href="#m3254c3a733" x="66.690395" y="81.734724" style="fill: #2d5391"/>
     <use xlink:href="#m3254c3a733" x="85.330091" y="115.662432" style="fill: #2d5391"/>
     <use xlink:href="#m3254c3a733" x="103.969787" y="155.948945" style="fill: #2d5391"/>
     <use xlink:href="#m3254c3a733" x="122.609483" y="191.225294" style="fill: #2d5391"/>
     <use xlink:href="#m3254c3a733" x="141.249179" y="229.4944" style="fill: #2d5391"/>
     <use xlink:href="#m3254c3a733" x="159.888875" y="237.730454" style="fill: #2d5391"/>
     <use xlink:href="#m3254c3a733" x="178.528571" y="244.924773" style="fill: #2d5391"/>
     <use xlink:href="#m3254c3a733" x="197.168267" y="239.894498" style="fill: #2d5391"/>
     <use xlink:href="#m3254c3a733" x="215.807962" y="245.77114" style="fill: #2d5391"/>
     <use xlink:href="#m3254c3a733" x="234.447658" y="242.500209" style="fill: #2d5391"/>
     <use xlink:href="#m3254c3a733" x="253.087354" y="233.903565" style="fill: #2d5391"/>
     <use xlink:href="#m3254c3a733" x="271.72705" y="238.48017" style="fill: #2d5391"/>
     <use xlink:href="#m3254c3a733" x="290.366746" y="244.528518" style="fill: #2d5391"/>
     <use xlink:href="#m3254c3a733" x="309.006442" y="239.227895" style="fill: #2d5391"/>
     <use xlink:href="#m3254c3a733" x="327.646138" y="239.139889" style="fill: #2d5391"/>
    </g>
   </g>
   <g id="line2d_24">
    <path d="M 63.583779 80.801223 
L 79.116859 111.584423 
L 94.649939 148.526963 
L 110.183019 174.78141 
L 125.716099 211.467999 
L 141.249179 245.540184 
L 156.782259 237.382727 
L 172.315339 240.441202 
L 187.848419 246.534674 
L 203.381499 242.888932 
L 218.914578 241.71528 
L 234.447658 237.661283 
L 249.980738 244.331755 
L 265.513818 240.057519 
L 281.046898 246.444564 
" clip-path="url(#p22003545c8)" style="fill: none; stroke: #1d365e"/>
   </g>
   <g id="PathCollection_4">
    <defs>
     <path id="m655f2ddc69" d="M -0.765367 -1.847759 
L -1.847759 -0.765367 
L -1.847759 0.765367 
L -0.765367 1.847759 
L 0.765367 1.847759 
L 1.847759 0.765367 
L 1.847759 -0.765367 
L 0.765367 -1.847759 
z
"/>
    </defs>
    <g clip-path="url(#p22003545c8)">
     <use xlink:href="#m655f2ddc69" x="63.583779" y="80.801223" style="fill: #1d365e"/>
     <use xlink:href="#m655f2ddc69" x="79.116859" y="111.584423" style="fill: #1d365e"/>
     <use xlink:href="#m655f2ddc69" x="94.649939" y="148.526963" style="fill: #1d365e"/>
     <use xlink:href="#m655f2ddc69" x="110.183019" y="174.78141" style="fill: #1d365e"/>
     <use xlink:href="#m655f2ddc69" x="125.716099" y="211.467999" style="fill: #1d365e"/>
     <use xlink:href="#m655f2ddc69" x="141.249179" y="245.540184" style="fill: #1d365e"/>
     <use xlink:href="#m655f2ddc69" x="156.782259" y="237.382727" style="fill: #1d365e"/>
     <use xlink:href="#m655f2ddc69" x="172.315339" y="240.441202" style="fill: #1d365e"/>
     <use xlink:href="#m655f2ddc69" x="187.848419" y="246.534674" style="fill: #1d365e"/>
     <use xlink:href="#m655f2ddc69" x="203.381499" y="242.888932" style="fill: #1d365e"/>
     <use xlink:href="#m655f2ddc69" x="218.914578" y="241.71528" style="fill: #1d365e"/>
     <use xlink:href="#m655f2ddc69" x="234.447658" y="237.661283" style="fill: #1d365e"/>
     <use xlink:href="#m655f2ddc69" x="249.980738" y="244.331755" style="fill: #1d365e"/>
     <use xlink:href="#m655f2ddc69" x="265.513818" y="240.057519" style="fill: #1d365e"/>
     <use xlink:href="#m655f2ddc69" x="281.046898" y="246.444564" style="fill: #1d365e"/>
    </g>
   </g>
   <g id="line2d_25">
    <path d="M 79.116859 29.9551 
L 110.183019 46.157726 
L 141.249179 74.90237 
L 172.315339 102.8531 
L 203.381499 129.918248 
L 234.447658 160.029815 
L 265.513818 187.7379 
L 296.579978 191.660411 
L 327.646138 193.582899 
L 358.712297 191.09533 
L 389.778457 192.175816 
L 420.844617 191.426868 
L 433 191.285542 
" clip-path="url(#p22003545c8)" style="fill: none; stroke: #ff3b42"/>
   </g>
   <g id="PathCollection_5">
    <defs>
     <path id="mf2d205ef80" d="M -0.765367 -1.847759 
L -1.847759 -0.765367 
L -1.847759 0.765367 
L -0.765367 1.847759 
L 0.765367 1.847759 
L 1.847759 0.765367 
L 1.847759 -0.765367 
L 0.765367 -1.847759 
z
"/>
    </defs>
    <g clip-path="url(#p22003545c8)">
     <use xlink:href="#mf2d205ef80" x="79.116859" y="29.9551" style="fill: #ff3b42"/>
     <use xlink:href="#mf2d205ef80" x="110.183019" y="46.157726" style="fill: #ff3b42"/>
     <use xlink:href="#mf2d205ef80" x="141.249179" y="74.90237" style="fill: #ff3b42"/>
     <use xlink:href="#mf2d205ef80" x="172.315339" y="102.8531" style="fill: #ff3b42"/>
     <use xlink:href="#mf2d205ef80" x="203.381499" y="129.918248" style="fill: #ff3b42"/>
     <use xlink:href="#mf2d205ef80" x="234.447658" y="160.029815" style="fill: #ff3b42"/>
     <use xlink:href="#mf2d205ef80" x="265.513818" y="187.7379" style="fill: #ff3b42"/>
     <use xlink:href="#mf2d205ef80" x="296.579978" y="191.660411" style="fill: #ff3b42"/>
     <use xlink:href="#mf2d205ef80" x="327.646138" y="193.582899" style="fill: #ff3b42"/>
     <use xlink:href="#mf2d205ef80" x="358.712297" y="191.09533" style="fill: #ff3b42"/>
     <use xlink:href="#mf2d205ef80" x="389.778457" y="192.175816" style="fill: #ff3b42"/>
     <use xlink:href="#mf2d205ef80" x="420.844617" y="191.426868" style="fill: #ff3b42"/>
     <use xlink:href="#mf2d205ef80" x="451.910777" y="191.065673" style="fill: #ff3b42"/>
     <use xlink:href="#mf2d205ef80" x="482.976937" y="192.366308" style="fill: #ff3b42"/>
     <use xlink:href="#mf2d205ef80" x="514.043096" y="192.961953" style="fill: #ff3b42"/>
    </g>
   </g>
   <g id="line2d_26">
    <path d="M 94.649939 29.42962 
L 117.949559 47.960559 
L 141.249179 71.336408 
L 164.548799 92.112403 
L 187.848419 110.704557 
L 211.148038 129.843934 
L 234.447658 151.12514 
L 257.747278 176.234045 
L 281.046898 201.055604 
L 304.346518 225.965974 
L 327.646138 221.888338 
L 350.945758 238.582717 
L 374.245377 235.398059 
L 397.544997 232.210169 
" clip-path="url(#p22003545c8)" style="fill: none; stroke: #cd2f35"/>
   </g>
   <g id="PathCollection_6">
    <defs>
     <path id="m8658364311" d="M -0.765367 -1.847759 
L -1.847759 -0.765367 
L -1.847759 0.765367 
L -0.765367 1.847759 
L 0.765367 1.847759 
L 1.847759 0.765367 
L 1.847759 -0.765367 
L 0.765367 -1.847759 
z
"/>
    </defs>
    <g clip-path="url(#p22003545c8)">
     <use xlink:href="#m8658364311" x="94.649939" y="29.42962" style="fill: #cd2f35"/>
     <use xlink:href="#m8658364311" x="117.949559" y="47.960559" style="fill: #cd2f35"/>
     <use xlink:href="#m8658364311" x="141.249179" y="71.336408" style="fill: #cd2f35"/>
     <use xlink:href="#m8658364311" x="164.548799" y="92.112403" style="fill: #cd2f35"/>
     <use xlink:href="#m8658364311" x="187.848419" y="110.704557" style="fill: #cd2f35"/>
     <use xlink:href="#m8658364311" x="211.148038" y="129.843934" style="fill: #cd2f35"/>
     <use xlink:href="#m8658364311" x="234.447658" y="151.12514" style="fill: #cd2f35"/>
     <use xlink:href="#m8658364311" x="257.747278" y="176.234045" style="fill: #cd2f35"/>
     <use xlink:href="#m8658364311" x="281.046898" y="201.055604" style="fill: #cd2f35"/>
     <use xlink:href="#m8658364311" x="304.346518" y="225.965974" style="fill: #cd2f35"/>
     <use xlink:href="#m8658364311" x="327.646138" y="221.888338" style="fill: #cd2f35"/>
     <use xlink:href="#m8658364311" x="350.945758" y="238.582717" style="fill: #cd2f35"/>
     <use xlink:href="#m8658364311" x="374.245377" y="235.398059" style="fill: #cd2f35"/>
     <use xlink:href="#m8658364311" x="397.544997" y="232.210169" style="fill: #cd2f35"/>
    </g>
   </g>
   <g id="line2d_27">
    <path d="M 85.330091 24.969695 
L 103.969787 33.649184 
L 122.609483 43.199155 
L 141.249179 55.355251 
L 159.888875 69.923756 
L 178.528571 85.277854 
L 197.168267 100.564333 
L 215.807962 115.678055 
L 234.447658 131.544639 
L 253.087354 150.022724 
L 271.72705 173.009734 
L 290.366746 198.897538 
L 309.006442 226.66812 
L 327.646138 244.090638 
" clip-path="url(#p22003545c8)" style="fill: none; stroke: #9a2428"/>
   </g>
   <g id="PathCollection_7">
    <defs>
     <path id="mdbbed8a51f" d="M -0.765367 -1.847759 
L -1.847759 -0.765367 
L -1.847759 0.765367 
L -0.765367 1.847759 
L 0.765367 1.847759 
L 1.847759 0.765367 
L 1.847759 -0.765367 
L 0.765367 -1.847759 
z
"/>
    </defs>
    <g clip-path="url(#p22003545c8)">
     <use xlink:href="#mdbbed8a51f" x="85.330091" y="24.969695" style="fill: #9a2428"/>
     <use xlink:href="#mdbbed8a51f" x="103.969787" y="33.649184" style="fill: #9a2428"/>
     <use xlink:href="#mdbbed8a51f" x="122.609483" y="43.199155" style="fill: #9a2428"/>
     <use xlink:href="#mdbbed8a51f" x="141.249179" y="55.355251" style="fill: #9a2428"/>
     <use xlink:href="#mdbbed8a51f" x="159.888875" y="69.923756" style="fill: #9a2428"/>
     <use xlink:href="#mdbbed8a51f" x="178.528571" y="85.277854" style="fill: #9a2428"/>
     <use xlink:href="#mdbbed8a51f" x="197.168267" y="100.564333" style="fill: #9a2428"/>
     <use xlink:href="#mdbbed8a51f" x="215.807962" y="115.678055" style="fill: #9a2428"/>
     <use xlink:href="#mdbbed8a51f" x="234.447658" y="131.544639" style="fill: #9a2428"/>
     <use xlink:href="#mdbbed8a51f" x="253.087354" y="150.022724" style="fill: #9a2428"/>
     <use xlink:href="#mdbbed8a51f" x="271.72705" y="173.009734" style="fill: #9a2428"/>
     <use xlink:href="#mdbbed8a51f" x="290.366746" y="198.897538" style="fill: #9a2428"/>
     <use xlink:href="#mdbbed8a51f" x="309.006442" y="226.66812" style="fill: #9a2428"/>
     <use xlink:href="#mdbbed8a51f" x="327.646138" y="244.090638" style="fill: #9a2428"/>
    </g>
   </g>
   <g id="line2d_28">
    <path d="M 94.649939 24.845326 
L 110.183019 34.634951 
L 125.716099 43.402731 
L 141.249179 53.573791 
L 156.782259 64.977196 
L 172.315339 77.684105 
L 187.848419 91.624024 
L 203.381499 104.655527 
L 218.914578 116.921137 
L 234.447658 131.326179 
L 249.980738 148.019733 
L 265.513818 166.993147 
L 281.046898 187.832864 
" clip-path="url(#p22003545c8)" style="fill: none; stroke: #67181a"/>
   </g>
   <g id="PathCollection_8">
    <defs>
     <path id="mda5a4f9fb7" d="M -0.765367 -1.847759 
L -1.847759 -0.765367 
L -1.847759 0.765367 
L -0.765367 1.847759 
L 0.765367 1.847759 
L 1.847759 0.765367 
L 1.847759 -0.765367 
L 0.765367 -1.847759 
z
"/>
    </defs>
    <g clip-path="url(#p22003545c8)">
     <use xlink:href="#mda5a4f9fb7" x="94.649939" y="24.845326" style="fill: #67181a"/>
     <use xlink:href="#mda5a4f9fb7" x="110.183019" y="34.634951" style="fill: #67181a"/>
     <use xlink:href="#mda5a4f9fb7" x="125.716099" y="43.402731" style="fill: #67181a"/>
     <use xlink:href="#mda5a4f9fb7" x="141.249179" y="53.573791" style="fill: #67181a"/>
     <use xlink:href="#mda5a4f9fb7" x="156.782259" y="64.977196" style="fill: #67181a"/>
     <use xlink:href="#mda5a4f9fb7" x="172.315339" y="77.684105" style="fill: #67181a"/>
     <use xlink:href="#mda5a4f9fb7" x="187.848419" y="91.624024" style="fill: #67181a"/>
     <use xlink:href="#mda5a4f9fb7" x="203.381499" y="104.655527" style="fill: #67181a"/>
     <use xlink:href="#mda5a4f9fb7" x="218.914578" y="116.921137" style="fill: #67181a"/>
     <use xlink:href="#mda5a4f9fb7" x="234.447658" y="131.326179" style="fill: #67181a"/>
     <use xlink:href="#mda5a4f9fb7" x="249.980738" y="148.019733" style="fill: #67181a"/>
     <use xlink:href="#mda5a4f9fb7" x="265.513818" y="166.993147" style="fill: #67181a"/>
     <use xlink:href="#mda5a4f9fb7" x="281.046898" y="187.832864" style="fill: #67181a"/>
    </g>
   </g>
   <g id="legend_1">
    <g id="patch_7">
     <path d="M 341.98993 151.619646 
L 415.844617 151.619646 
L 415.844617 23.194646 
L 341.98993 23.194646 
z
" style="fill: #ffffff; stroke: #000000; stroke-linejoin: miter"/>
    </g>
    <g id="line2d_29">
     <path d="M 349.98993 35.293083 
L 359.98993 35.293083 
L 369.98993 35.293083 
" style="fill: none; stroke: #4c8df7; stroke-width: 1.25; stroke-linejoin: miter"/>
     <defs>
      <path id="ma291b68ffb" d="M -1.530734 -3.695518 
L -3.695518 -1.530734 
L -3.695518 1.530734 
L -1.530734 3.695518 
L 1.530734 3.695518 
L 3.695518 1.530734 
L 3.695518 -1.530734 
L 1.530734 -3.695518 
z
"/>
     </defs>
     <g>
      <use xlink:href="#ma291b68ffb" x="359.98993" y="35.293083" style="fill: #4c8df7"/>
     </g>
    </g>
    <g id="text_14">
     <!-- N=6 -->
     <g transform="translate(377.98993 38.793083) scale(0.1 -0.1)">
      <defs>
       <path id="DejaVuSerif-4e" d="M 313 0 
L 313 331 
L 941 331 
L 941 4331 
L 313 4331 
L 313 4666 
L 1509 4666 
L 4306 984 
L 4306 4331 
L 3681 4331 
L 3681 4666 
L 5319 4666 
L 5319 4331 
L 4691 4331 
L 4691 -91 
L 4313 -91 
L 1325 3841 
L 1325 331 
L 1953 331 
L 1953 0 
L 313 0 
z
" transform="scale(0.015625)"/>
       <path id="DejaVuSerif-3d" d="M 678 2894 
L 4684 2894 
L 4684 2394 
L 678 2394 
L 678 2894 
z
M 678 1619 
L 4684 1619 
L 4684 1119 
L 678 1119 
L 678 1619 
z
" transform="scale(0.015625)"/>
       <path id="DejaVuSerif-36" d="M 2094 219 
Q 2534 219 2771 542 
Q 3009 866 3009 1472 
Q 3009 2078 2771 2401 
Q 2534 2725 2094 2725 
Q 1647 2725 1412 2412 
Q 1178 2100 1178 1509 
Q 1178 888 1415 553 
Q 1653 219 2094 219 
z
M 1075 2569 
Q 1288 2803 1556 2918 
Q 1825 3034 2163 3034 
Q 2859 3034 3264 2615 
Q 3669 2197 3669 1472 
Q 3669 763 3233 336 
Q 2797 -91 2069 -91 
Q 1278 -91 853 498 
Q 428 1088 428 2181 
Q 428 3406 931 4078 
Q 1434 4750 2350 4750 
Q 2597 4750 2869 4703 
Q 3141 4656 3425 4563 
L 3425 3794 
L 3072 3794 
Q 3034 4109 2831 4275 
Q 2628 4441 2284 4441 
Q 1678 4441 1381 3981 
Q 1084 3522 1075 2569 
z
" transform="scale(0.015625)"/>
      </defs>
      <use xlink:href="#DejaVuSerif-4e"/>
      <use xlink:href="#DejaVuSerif-3d" x="87.5"/>
      <use xlink:href="#DejaVuSerif-36" x="171.289062"/>
     </g>
    </g>
    <g id="line2d_30">
     <path d="M 349.98993 49.971208 
L 359.98993 49.971208 
L 369.98993 49.971208 
" style="fill: none; stroke: #3d70c4; stroke-width: 1.25; stroke-linejoin: miter"/>
     <defs>
      <path id="m3f85f0817b" d="M -1.530734 -3.695518 
L -3.695518 -1.530734 
L -3.695518 1.530734 
L -1.530734 3.695518 
L 1.530734 3.695518 
L 3.695518 1.530734 
L 3.695518 -1.530734 
L 1.530734 -3.695518 
z
"/>
     </defs>
     <g>
      <use xlink:href="#m3f85f0817b" x="359.98993" y="49.971208" style="fill: #3d70c4"/>
     </g>
    </g>
    <g id="text_15">
     <!-- N=8 -->
     <g transform="translate(377.98993 53.471208) scale(0.1 -0.1)">
      <defs>
       <path id="DejaVuSerif-38" d="M 2981 1275 
Q 2981 1775 2732 2051 
Q 2484 2328 2034 2328 
Q 1584 2328 1336 2051 
Q 1088 1775 1088 1275 
Q 1088 772 1336 495 
Q 1584 219 2034 219 
Q 2484 219 2732 495 
Q 2981 772 2981 1275 
z
M 2853 3541 
Q 2853 3966 2637 4203 
Q 2422 4441 2034 4441 
Q 1650 4441 1433 4203 
Q 1216 3966 1216 3541 
Q 1216 3113 1433 2875 
Q 1650 2638 2034 2638 
Q 2422 2638 2637 2875 
Q 2853 3113 2853 3541 
z
M 2516 2484 
Q 3047 2413 3344 2092 
Q 3641 1772 3641 1275 
Q 3641 619 3225 264 
Q 2809 -91 2034 -91 
Q 1263 -91 845 264 
Q 428 619 428 1275 
Q 428 1772 725 2092 
Q 1022 2413 1556 2484 
Q 1084 2569 832 2842 
Q 581 3116 581 3541 
Q 581 4103 968 4426 
Q 1356 4750 2034 4750 
Q 2713 4750 3100 4426 
Q 3488 4103 3488 3541 
Q 3488 3116 3236 2842 
Q 2984 2569 2516 2484 
z
" transform="scale(0.015625)"/>
      </defs>
      <use xlink:href="#DejaVuSerif-4e"/>
      <use xlink:href="#DejaVuSerif-3d" x="87.5"/>
      <use xlink:href="#DejaVuSerif-38" x="171.289062"/>
     </g>
    </g>
    <g id="line2d_31">
     <path d="M 349.98993 64.649333 
L 359.98993 64.649333 
L 369.98993 64.649333 
" style="fill: none; stroke: #2d5391; stroke-width: 1.25; stroke-linejoin: miter"/>
     <defs>
      <path id="m49494d5c97" d="M -1.530734 -3.695518 
L -3.695518 -1.530734 
L -3.695518 1.530734 
L -1.530734 3.695518 
L 1.530734 3.695518 
L 3.695518 1.530734 
L 3.695518 -1.530734 
L 1.530734 -3.695518 
z
"/>
     </defs>
     <g>
      <use xlink:href="#m49494d5c97" x="359.98993" y="64.649333" style="fill: #2d5391"/>
     </g>
    </g>
    <g id="text_16">
     <!-- N=10 -->
     <g transform="translate(377.98993 68.149333) scale(0.1 -0.1)">
      <use xlink:href="#DejaVuSerif-4e"/>
      <use xlink:href="#DejaVuSerif-3d" x="87.5"/>
      <use xlink:href="#DejaVuSerif-31" x="171.289062"/>
      <use xlink:href="#DejaVuSerif-30" x="234.912109"/>
     </g>
    </g>
    <g id="line2d_32">
     <path d="M 349.98993 79.327458 
L 359.98993 79.327458 
L 369.98993 79.327458 
" style="fill: none; stroke: #1d365e; stroke-width: 1.25; stroke-linejoin: miter"/>
     <defs>
      <path id="mc470311bc6" d="M -1.530734 -3.695518 
L -3.695518 -1.530734 
L -3.695518 1.530734 
L -1.530734 3.695518 
L 1.530734 3.695518 
L 3.695518 1.530734 
L 3.695518 -1.530734 
L 1.530734 -3.695518 
z
"/>
     </defs>
     <g>
      <use xlink:href="#mc470311bc6" x="359.98993" y="79.327458" style="fill: #1d365e"/>
     </g>
    </g>
    <g id="text_17">
     <!-- N=12 -->
     <g transform="translate(377.98993 82.827458) scale(0.1 -0.1)">
      <use xlink:href="#DejaVuSerif-4e"/>
      <use xlink:href="#DejaVuSerif-3d" x="87.5"/>
      <use xlink:href="#DejaVuSerif-31" x="171.289062"/>
      <use xlink:href="#DejaVuSerif-32" x="234.912109"/>
     </g>
    </g>
    <g id="line2d_33">
     <path d="M 349.98993 94.005583 
L 359.98993 94.005583 
L 369.98993 94.005583 
" style="fill: none; stroke: #ff3b42; stroke-width: 1.25; stroke-linejoin: miter"/>
     <defs>
      <path id="ma236d80471" d="M -1.530734 -3.695518 
L -3.695518 -1.530734 
L -3.695518 1.530734 
L -1.530734 3.695518 
L 1.530734 3.695518 
L 3.695518 1.530734 
L 3.695518 -1.530734 
L 1.530734 -3.695518 
z
"/>
     </defs>
     <g>
      <use xlink:href="#ma236d80471" x="359.98993" y="94.005583" style="fill: #ff3b42"/>
     </g>
    </g>
    <g id="text_18">
     <!-- N=6 -->
     <g transform="translate(377.98993 97.505583) scale(0.1 -0.1)">
      <use xlink:href="#DejaVuSerif-4e"/>
      <use xlink:href="#DejaVuSerif-3d" x="87.5"/>
      <use xlink:href="#DejaVuSerif-36" x="171.289062"/>
     </g>
    </g>
    <g id="line2d_34">
     <path d="M 349.98993 108.683708 
L 359.98993 108.683708 
L 369.98993 108.683708 
" style="fill: none; stroke: #cd2f35; stroke-width: 1.25; stroke-linejoin: miter"/>
     <defs>
      <path id="m8eb3c313c1" d="M -1.530734 -3.695518 
L -3.695518 -1.530734 
L -3.695518 1.530734 
L -1.530734 3.695518 
L 1.530734 3.695518 
L 3.695518 1.530734 
L 3.695518 -1.530734 
L 1.530734 -3.695518 
z
"/>
     </defs>
     <g>
      <use xlink:href="#m8eb3c313c1" x="359.98993" y="108.683708" style="fill: #cd2f35"/>
     </g>
    </g>
    <g id="text_19">
     <!-- N=8 -->
     <g transform="translate(377.98993 112.183708) scale(0.1 -0.1)">
      <use xlink:href="#DejaVuSerif-4e"/>
      <use xlink:href="#DejaVuSerif-3d" x="87.5"/>
      <use xlink:href="#DejaVuSerif-38" x="171.289062"/>
     </g>
    </g>
    <g id="line2d_35">
     <path d="M 349.98993 123.361833 
L 359.98993 123.361833 
L 369.98993 123.361833 
" style="fill: none; stroke: #9a2428; stroke-width: 1.25; stroke-linejoin: miter"/>
     <defs>
      <path id="mdaa039917b" d="M -1.530734 -3.695518 
L -3.695518 -1.530734 
L -3.695518 1.530734 
L -1.530734 3.695518 
L 1.530734 3.695518 
L 3.695518 1.530734 
L 3.695518 -1.530734 
L 1.530734 -3.695518 
z
"/>
     </defs>
     <g>
      <use xlink:href="#mdaa039917b" x="359.98993" y="123.361833" style="fill: #9a2428"/>
     </g>
    </g>
    <g id="text_20">
     <!-- N=10 -->
     <g transform="translate(377.98993 126.861833) scale(0.1 -0.1)">
      <use xlink:href="#DejaVuSerif-4e"/>
      <use xlink:href="#DejaVuSerif-3d" x="87.5"/>
      <use xlink:href="#DejaVuSerif-31" x="171.289062"/>
      <use xlink:href="#DejaVuSerif-30" x="234.912109"/>
     </g>
    </g>
    <g id="line2d_36">
     <path d="M 349.98993 138.039958 
L 359.98993 138.039958 
L 369.98993 138.039958 
" style="fill: none; stroke: #67181a; stroke-width: 1.25; stroke-linejoin: miter"/>
     <defs>
      <path id="m2cfa2e7c64" d="M -1.530734 -3.695518 
L -3.695518 -1.530734 
L -3.695518 1.530734 
L -1.530734 3.695518 
L 1.530734 3.695518 
L 3.695518 1.530734 
L 3.695518 -1.530734 
L 1.530734 -3.695518 
z
"/>
     </defs>
     <g>
      <use xlink:href="#m2cfa2e7c64" x="359.98993" y="138.039958" style="fill: #67181a"/>
     </g>
    </g>
    <g id="text_21">
     <!-- N=12 -->
     <g transform="translate(377.98993 141.539958) scale(0.1 -0.1)">
      <use xlink:href="#DejaVuSerif-4e"/>
      <use xlink:href="#DejaVuSerif-3d" x="87.5"/>
      <use xlink:href="#DejaVuSerif-31" x="171.289062"/>
      <use xlink:href="#DejaVuSerif-32" x="234.912109"/>
     </g>
    </g>
   </g>
  </g>
 </g>
 <defs>
  <clipPath id="p22003545c8">
   <rect x="48.0507" y="18.194646" width="372.793917" height="234.990709"/>
  </clipPath>
 </defs>
</svg>
