<?xml version="1.0" encoding="utf-8" standalone="no"?>
<!DOCTYPE svg PUBLIC "-//W3C//DTD SVG 1.1//EN"
  "http://www.w3.org/Graphics/SVG/1.1/DTD/svg11.dtd">
<svg xmlns:xlink="http://www.w3.org/1999/xlink" width="432pt" height="288pt" viewBox="0 0 432 288" xmlns="http://www.w3.org/2000/svg" version="1.1">
 <metadata>
  <rdf:RDF xmlns:dc="http://purl.org/dc/elements/1.1/" xmlns:cc="http://creativecommons.org/ns#" xmlns:rdf="http://www.w3.org/1999/02/22-rdf-syntax-ns#">
   <cc:Work>
    <dc:type rdf:resource="http://purl.org/dc/dcmitype/StillImage"/>
    <dc:date>2025-06-06T12:59:01.617929</dc:date>
    <dc:format>image/svg+xml</dc:format>
    <dc:creator>
     <cc:Agent>
      <dc:title>Matplotlib v3.9.2, https://matplotlib.org/</dc:title>
     </cc:Agent>
    </dc:creator>
   </cc:Work>
  </rdf:RDF>
 </metadata>
 <defs>
  <style type="text/css">*{stroke-linejoin: round; stroke-linecap: butt}</style>
 </defs>
 <g id="figure_1">
  <g id="patch_1">
   <path d="M 0 288 
L 432 288 
L 432 0 
L 0 0 
z
" style="fill: #ffffff"/>
  </g>
  <g id="axes_1">
   <g id="patch_2">
    <path d="M 42.160588 250.965354 
L 429.165354 250.965354 
L 429.165354 2.834646 
L 42.160588 2.834646 
z
" style="fill: #ffffff"/>
   </g>
   <g id="line2d_1">
    <path d="M 42.160588 243.942787 
L 42.160588 10.409831 
L 47.74577 10.409831 
L 47.74577 243.942787 
L 70.0865 243.891804 
L 70.0865 243.766308 
L 75.671683 243.766308 
L 75.671683 243.650616 
L 81.256865 243.650616 
L 81.256865 243.37021 
L 86.842047 243.37021 
L 86.842047 243.16824 
L 92.42723 243.16824 
L 92.42723 242.87999 
L 98.012412 242.87999 
L 98.012412 242.562328 
L 103.597595 242.562328 
L 103.597595 242.311335 
L 114.76796 242.303491 
L 114.76796 242.113286 
L 120.353142 242.113286 
L 120.353142 240.693609 
L 125.938324 240.693609 
L 125.938324 241.805428 
L 131.523507 241.805428 
L 131.523507 240.424969 
L 137.108689 240.424969 
L 137.108689 241.358347 
L 142.693872 241.358347 
L 142.693872 242.199565 
L 148.279054 242.199565 
L 148.279054 232.287317 
L 153.864237 232.287317 
L 153.864237 241.864254 
L 159.449419 241.864254 
L 159.449419 241.168142 
L 165.034601 241.168142 
L 165.034601 241.581888 
L 170.619784 241.581888 
L 170.619784 241.868176 
L 176.204966 241.868176 
L 176.204966 237.807194 
L 181.790149 237.807194 
L 181.790149 241.707384 
L 187.375331 241.707384 
L 187.375331 241.415213 
L 192.960513 241.415213 
L 192.960513 242.058381 
L 198.545696 242.058381 
L 198.545696 242.505462 
L 204.130878 242.505462 
L 204.130878 242.979995 
L 209.716061 242.979995 
L 209.716061 243.497667 
L 215.301243 243.497667 
L 215.301243 160.389693 
L 220.886426 160.389693 
L 220.886426 243.529041 
L 226.471608 243.529041 
L 226.471608 243.05843 
L 232.05679 243.05843 
L 232.05679 242.427027 
L 237.641973 242.427027 
L 237.641973 242.209369 
L 248.812338 242.179956 
L 248.812338 240.860284 
L 254.39752 240.860284 
L 254.39752 241.648558 
L 259.982703 241.648558 
L 259.982703 240.389673 
L 265.567885 240.389673 
L 265.567885 241.174025 
L 271.153067 241.174025 
L 271.153067 241.736797 
L 276.73825 241.736797 
L 276.73825 242.174073 
L 282.323432 242.174073 
L 282.323432 242.829007 
L 287.908615 242.829007 
L 287.908615 213.706019 
L 293.493797 213.706019 
L 293.493797 242.803516 
L 299.078979 242.803516 
L 299.078979 242.150543 
L 304.664162 242.150543 
L 304.664162 241.934846 
L 321.419709 241.94269 
L 321.419709 232.077503 
L 327.004892 232.077503 
L 327.004892 242.640763 
L 332.590074 242.640763 
L 332.590074 242.097599 
L 343.760439 242.109364 
L 343.760439 235.52473 
L 349.345621 235.52473 
L 349.345621 242.358396 
L 354.930804 242.358396 
L 354.930804 241.001467 
L 360.515986 241.001467 
L 360.515986 242.419183 
L 366.101169 242.419183 
L 366.101169 238.491541 
L 371.686351 238.491541 
L 371.686351 240.950484 
L 377.271533 240.950484 
L 377.271533 240.80734 
L 382.856716 240.80734 
L 382.856716 242.43487 
L 388.441898 242.43487 
L 388.441898 240.217115 
L 394.027081 240.217115 
L 394.027081 242.297609 
L 399.612263 242.297609 
L 399.612263 241.707384 
L 405.197446 241.707384 
L 405.197446 241.474039 
L 410.782628 241.474039 
L 410.782628 241.964259 
L 421.952993 242.007399 
L 421.952993 242.095638 
L 433 242.183878 
L 433 242.183878 
" clip-path="url(#pcaa0fe122f)" style="fill: none; stroke: #4c72b0; stroke-width: 2"/>
   </g>
   <g id="matplotlib.axis_1">
    <g id="xtick_1">
     <g id="line2d_2">
      <defs>
       <path id="m91e728eb33" d="M 0 0 
L 0 -2.5 
" style="stroke: #000000; stroke-width: 0.5"/>
      </defs>
      <g>
       <use xlink:href="#m91e728eb33" x="42.160588" y="250.965354" style="stroke: #000000; stroke-width: 0.5"/>
      </g>
     </g>
     <g id="line2d_3">
      <defs>
       <path id="m6e57018ed0" d="M 0 0 
L 0 2.5 
" style="stroke: #000000; stroke-width: 0.5"/>
      </defs>
      <g>
       <use xlink:href="#m6e57018ed0" x="42.160588" y="2.834646" style="stroke: #000000; stroke-width: 0.5"/>
      </g>
     </g>
     <g id="text_1">
      <!-- $0.0$ -->
      <g transform="translate(34.160588 262.063792) scale(0.1 -0.1)">
       <defs>
        <path id="DejaVuSerif-30" d="M 2034 219 
Q 2513 219 2750 744 
Q 2988 1269 2988 2328 
Q 2988 3391 2750 3916 
Q 2513 4441 2034 4441 
Q 1556 4441 1318 3916 
Q 1081 3391 1081 2328 
Q 1081 1269 1318 744 
Q 1556 219 2034 219 
z
M 2034 -91 
Q 1275 -91 848 546 
Q 422 1184 422 2328 
Q 422 3475 848 4112 
Q 1275 4750 2034 4750 
Q 2797 4750 3222 4112 
Q 3647 3475 3647 2328 
Q 3647 1184 3222 546 
Q 2797 -91 2034 -91 
z
" transform="scale(0.015625)"/>
        <path id="DejaVuSerif-2e" d="M 603 325 
Q 603 500 722 622 
Q 841 744 1019 744 
Q 1191 744 1312 622 
Q 1434 500 1434 325 
Q 1434 153 1312 31 
Q 1191 -91 1019 -91 
Q 841 -91 722 29 
Q 603 150 603 325 
z
" transform="scale(0.015625)"/>
       </defs>
       <use xlink:href="#DejaVuSerif-30" transform="translate(0 0.78125)"/>
       <use xlink:href="#DejaVuSerif-2e" transform="translate(63.623047 0.78125)"/>
       <use xlink:href="#DejaVuSerif-30" transform="translate(95.410156 0.78125)"/>
      </g>
     </g>
    </g>
    <g id="xtick_2">
     <g id="line2d_4">
      <g>
       <use xlink:href="#m91e728eb33" x="130.116217" y="250.965354" style="stroke: #000000; stroke-width: 0.5"/>
      </g>
     </g>
     <g id="line2d_5">
      <g>
       <use xlink:href="#m6e57018ed0" x="130.116217" y="2.834646" style="stroke: #000000; stroke-width: 0.5"/>
      </g>
     </g>
     <g id="text_2">
      <!-- $0.5$ -->
      <g transform="translate(122.116217 262.063792) scale(0.1 -0.1)">
       <defs>
        <path id="DejaVuSerif-35" d="M 3219 4666 
L 3219 4153 
L 1081 4153 
L 1081 2816 
Q 1244 2928 1461 2984 
Q 1678 3041 1947 3041 
Q 2703 3041 3140 2622 
Q 3578 2203 3578 1478 
Q 3578 738 3136 323 
Q 2694 -91 1894 -91 
Q 1572 -91 1234 -12 
Q 897 66 544 225 
L 544 1131 
L 897 1131 
Q 925 688 1179 453 
Q 1434 219 1894 219 
Q 2388 219 2653 544 
Q 2919 869 2919 1478 
Q 2919 2084 2655 2407 
Q 2391 2731 1894 2731 
Q 1613 2731 1398 2631 
Q 1184 2531 1019 2322 
L 750 2322 
L 750 4666 
L 3219 4666 
z
" transform="scale(0.015625)"/>
       </defs>
       <use xlink:href="#DejaVuSerif-30" transform="translate(0 0.78125)"/>
       <use xlink:href="#DejaVuSerif-2e" transform="translate(63.623047 0.78125)"/>
       <use xlink:href="#DejaVuSerif-35" transform="translate(95.410156 0.78125)"/>
      </g>
     </g>
    </g>
    <g id="xtick_3">
     <g id="line2d_6">
      <g>
       <use xlink:href="#m91e728eb33" x="218.071845" y="250.965354" style="stroke: #000000; stroke-width: 0.5"/>
      </g>
     </g>
     <g id="line2d_7">
      <g>
       <use xlink:href="#m6e57018ed0" x="218.071845" y="2.834646" style="stroke: #000000; stroke-width: 0.5"/>
      </g>
     </g>
     <g id="text_3">
      <!-- $1.0$ -->
      <g transform="translate(210.071845 262.063792) scale(0.1 -0.1)">
       <defs>
        <path id="DejaVuSerif-31" d="M 909 0 
L 909 331 
L 1722 331 
L 1722 4213 
L 781 3603 
L 781 4013 
L 1919 4750 
L 2350 4750 
L 2350 331 
L 3163 331 
L 3163 0 
L 909 0 
z
" transform="scale(0.015625)"/>
       </defs>
       <use xlink:href="#DejaVuSerif-31" transform="translate(0 0.78125)"/>
       <use xlink:href="#DejaVuSerif-2e" transform="translate(63.623047 0.78125)"/>
       <use xlink:href="#DejaVuSerif-30" transform="translate(95.410156 0.78125)"/>
      </g>
     </g>
    </g>
    <g id="xtick_4">
     <g id="line2d_8">
      <g>
       <use xlink:href="#m91e728eb33" x="306.027474" y="250.965354" style="stroke: #000000; stroke-width: 0.5"/>
      </g>
     </g>
     <g id="line2d_9">
      <g>
       <use xlink:href="#m6e57018ed0" x="306.027474" y="2.834646" style="stroke: #000000; stroke-width: 0.5"/>
      </g>
     </g>
     <g id="text_4">
      <!-- $1.5$ -->
      <g transform="translate(298.027474 262.063792) scale(0.1 -0.1)">
       <use xlink:href="#DejaVuSerif-31" transform="translate(0 0.78125)"/>
       <use xlink:href="#DejaVuSerif-2e" transform="translate(63.623047 0.78125)"/>
       <use xlink:href="#DejaVuSerif-35" transform="translate(95.410156 0.78125)"/>
      </g>
     </g>
    </g>
    <g id="xtick_5">
     <g id="line2d_10">
      <g>
       <use xlink:href="#m91e728eb33" x="393.983103" y="250.965354" style="stroke: #000000; stroke-width: 0.5"/>
      </g>
     </g>
     <g id="line2d_11">
      <g>
       <use xlink:href="#m6e57018ed0" x="393.983103" y="2.834646" style="stroke: #000000; stroke-width: 0.5"/>
      </g>
     </g>
     <g id="text_5">
      <!-- $2.0$ -->
      <g transform="translate(385.983103 262.063792) scale(0.1 -0.1)">
       <defs>
        <path id="DejaVuSerif-32" d="M 819 3553 
L 469 3553 
L 469 4384 
Q 803 4563 1142 4656 
Q 1481 4750 1806 4750 
Q 2534 4750 2956 4397 
Q 3378 4044 3378 3438 
Q 3378 2753 2422 1800 
Q 2347 1728 2309 1691 
L 1131 513 
L 3078 513 
L 3078 1088 
L 3444 1088 
L 3444 0 
L 434 0 
L 434 341 
L 1850 1753 
Q 2319 2222 2519 2614 
Q 2719 3006 2719 3438 
Q 2719 3909 2473 4175 
Q 2228 4441 1797 4441 
Q 1350 4441 1106 4219 
Q 863 3997 819 3553 
z
" transform="scale(0.015625)"/>
       </defs>
       <use xlink:href="#DejaVuSerif-32" transform="translate(0 0.78125)"/>
       <use xlink:href="#DejaVuSerif-2e" transform="translate(63.623047 0.78125)"/>
       <use xlink:href="#DejaVuSerif-30" transform="translate(95.410156 0.78125)"/>
      </g>
     </g>
    </g>
    <g id="text_6">
     <!-- $\sqrt{\lambda}$ -->
     <g transform="translate(226.602971 279.327854) scale(0.12 -0.12)">
      <defs>
       <path id="STIXSizeOneSym-Regular-221a" d="M 6970 9933 
L 3373 -1888 
L 3104 -1888 
L 1626 2918 
Q 1555 3149 1465 3251 
Q 1376 3354 1229 3354 
Q 1011 3354 794 3181 
L 717 3309 
L 1766 4115 
L 1926 4115 
L 3379 -602 
L 3405 -602 
L 6605 9933 
L 6970 9933 
z
" transform="scale(0.015625)"/>
       <path id="DejaVuSerif-Italic-3bb" d="M 1984 4084 
Q 1925 4372 1834 4466 
Q 1744 4563 1578 4563 
Q 1391 4563 1288 4472 
Q 1178 4378 1119 4166 
L 825 4166 
L 947 4800 
Q 1113 4847 1272 4872 
Q 1431 4897 1578 4897 
Q 1925 4897 2088 4753 
Q 2253 4613 2334 4225 
L 3100 334 
L 3472 334 
L 3406 0 
L 2159 0 
L 2225 334 
L 2722 334 
L 2281 2628 
L 853 334 
L 1384 334 
L 1319 0 
L -209 0 
L -144 334 
L 234 334 
L 2116 3388 
L 1984 4084 
z
" transform="scale(0.015625)"/>
      </defs>
      <use xlink:href="#STIXSizeOneSym-Regular-221a" transform="translate(0 17.984375) scale(0.583453)"/>
      <use xlink:href="#DejaVuSerif-Italic-3bb" transform="translate(74.202362 1.234375)"/>
      <path d="M 61.702362 101.5 
L 61.702362 107.75 
L 150.081268 107.75 
L 150.081268 101.5 
L 61.702362 101.5 
z
"/>
     </g>
    </g>
   </g>
   <g id="matplotlib.axis_2">
    <g id="ytick_1">
     <g id="line2d_12">
      <defs>
       <path id="mf5163b3040" d="M 0 0 
L 2.5 0 
" style="stroke: #000000; stroke-width: 0.5"/>
      </defs>
      <g>
       <use xlink:href="#mf5163b3040" x="42.160588" y="243.942787" style="stroke: #000000; stroke-width: 0.5"/>
      </g>
     </g>
     <g id="line2d_13">
      <defs>
       <path id="m38aac74def" d="M 0 0 
L -2.5 0 
" style="stroke: #000000; stroke-width: 0.5"/>
      </defs>
      <g>
       <use xlink:href="#m38aac74def" x="429.165354" y="243.942787" style="stroke: #000000; stroke-width: 0.5"/>
      </g>
     </g>
     <g id="text_7">
      <!-- $0$ -->
      <g transform="translate(32.260588 247.742006) scale(0.1 -0.1)">
       <use xlink:href="#DejaVuSerif-30" transform="translate(0 0.78125)"/>
      </g>
     </g>
    </g>
    <g id="ytick_2">
     <g id="line2d_14">
      <g>
       <use xlink:href="#mf5163b3040" x="42.160588" y="194.984515" style="stroke: #000000; stroke-width: 0.5"/>
      </g>
     </g>
     <g id="line2d_15">
      <g>
       <use xlink:href="#m38aac74def" x="429.165354" y="194.984515" style="stroke: #000000; stroke-width: 0.5"/>
      </g>
     </g>
     <g id="text_8">
      <!-- $3$ -->
      <g transform="translate(32.260588 198.783733) scale(0.1 -0.1)">
       <defs>
        <path id="DejaVuSerif-33" d="M 622 4469 
Q 988 4606 1323 4678 
Q 1659 4750 1953 4750 
Q 2638 4750 3022 4454 
Q 3406 4159 3406 3634 
Q 3406 3213 3140 2930 
Q 2875 2647 2388 2547 
Q 2963 2466 3280 2130 
Q 3597 1794 3597 1259 
Q 3597 606 3158 257 
Q 2719 -91 1894 -91 
Q 1528 -91 1179 -12 
Q 831 66 488 225 
L 488 1131 
L 838 1131 
Q 869 681 1141 450 
Q 1413 219 1906 219 
Q 2384 219 2661 495 
Q 2938 772 2938 1253 
Q 2938 1803 2653 2086 
Q 2369 2369 1819 2369 
L 1522 2369 
L 1522 2688 
L 1678 2688 
Q 2225 2688 2498 2914 
Q 2772 3141 2772 3597 
Q 2772 4006 2547 4223 
Q 2322 4441 1900 4441 
Q 1478 4441 1245 4241 
Q 1013 4041 972 3647 
L 622 3647 
L 622 4469 
z
" transform="scale(0.015625)"/>
       </defs>
       <use xlink:href="#DejaVuSerif-33" transform="translate(0 0.78125)"/>
      </g>
     </g>
    </g>
    <g id="ytick_3">
     <g id="line2d_16">
      <g>
       <use xlink:href="#mf5163b3040" x="42.160588" y="146.026242" style="stroke: #000000; stroke-width: 0.5"/>
      </g>
     </g>
     <g id="line2d_17">
      <g>
       <use xlink:href="#m38aac74def" x="429.165354" y="146.026242" style="stroke: #000000; stroke-width: 0.5"/>
      </g>
     </g>
     <g id="text_9">
      <!-- $6$ -->
      <g transform="translate(32.260588 149.825461) scale(0.1 -0.1)">
       <defs>
        <path id="DejaVuSerif-36" d="M 2094 219 
Q 2534 219 2771 542 
Q 3009 866 3009 1472 
Q 3009 2078 2771 2401 
Q 2534 2725 2094 2725 
Q 1647 2725 1412 2412 
Q 1178 2100 1178 1509 
Q 1178 888 1415 553 
Q 1653 219 2094 219 
z
M 1075 2569 
Q 1288 2803 1556 2918 
Q 1825 3034 2163 3034 
Q 2859 3034 3264 2615 
Q 3669 2197 3669 1472 
Q 3669 763 3233 336 
Q 2797 -91 2069 -91 
Q 1278 -91 853 498 
Q 428 1088 428 2181 
Q 428 3406 931 4078 
Q 1434 4750 2350 4750 
Q 2597 4750 2869 4703 
Q 3141 4656 3425 4563 
L 3425 3794 
L 3072 3794 
Q 3034 4109 2831 4275 
Q 2628 4441 2284 4441 
Q 1678 4441 1381 3981 
Q 1084 3522 1075 2569 
z
" transform="scale(0.015625)"/>
       </defs>
       <use xlink:href="#DejaVuSerif-36" transform="translate(0 0.78125)"/>
      </g>
     </g>
    </g>
    <g id="ytick_4">
     <g id="line2d_18">
      <g>
       <use xlink:href="#mf5163b3040" x="42.160588" y="97.06797" style="stroke: #000000; stroke-width: 0.5"/>
      </g>
     </g>
     <g id="line2d_19">
      <g>
       <use xlink:href="#m38aac74def" x="429.165354" y="97.06797" style="stroke: #000000; stroke-width: 0.5"/>
      </g>
     </g>
     <g id="text_10">
      <!-- $9$ -->
      <g transform="translate(32.260588 100.867188) scale(0.1 -0.1)">
       <defs>
        <path id="DejaVuSerif-39" d="M 2994 2091 
Q 2784 1856 2512 1740 
Q 2241 1625 1900 1625 
Q 1206 1625 804 2044 
Q 403 2463 403 3188 
Q 403 3897 839 4323 
Q 1275 4750 2003 4750 
Q 2794 4750 3217 4161 
Q 3641 3572 3641 2478 
Q 3641 1253 3137 581 
Q 2634 -91 1722 -91 
Q 1475 -91 1203 -44 
Q 931 3 647 97 
L 647 872 
L 997 872 
Q 1038 556 1241 387 
Q 1444 219 1784 219 
Q 2391 219 2687 676 
Q 2984 1134 2994 2091 
z
M 1978 4441 
Q 1534 4441 1298 4117 
Q 1063 3794 1063 3188 
Q 1063 2581 1298 2256 
Q 1534 1931 1978 1931 
Q 2422 1931 2658 2245 
Q 2894 2559 2894 3150 
Q 2894 3772 2656 4106 
Q 2419 4441 1978 4441 
z
" transform="scale(0.015625)"/>
       </defs>
       <use xlink:href="#DejaVuSerif-39" transform="translate(0 0.78125)"/>
      </g>
     </g>
    </g>
    <g id="ytick_5">
     <g id="line2d_20">
      <g>
       <use xlink:href="#mf5163b3040" x="42.160588" y="48.109697" style="stroke: #000000; stroke-width: 0.5"/>
      </g>
     </g>
     <g id="line2d_21">
      <g>
       <use xlink:href="#m38aac74def" x="429.165354" y="48.109697" style="stroke: #000000; stroke-width: 0.5"/>
      </g>
     </g>
     <g id="text_11">
      <!-- $12$ -->
      <g transform="translate(25.860588 51.908916) scale(0.1 -0.1)">
       <use xlink:href="#DejaVuSerif-31" transform="translate(0 0.78125)"/>
       <use xlink:href="#DejaVuSerif-32" transform="translate(63.623047 0.78125)"/>
      </g>
     </g>
    </g>
    <g id="text_12">
     <!-- $p(\sqrt{\lambda})$ -->
     <g transform="translate(19.340588 144.48) rotate(-90) scale(0.12 -0.12)">
      <defs>
       <path id="DejaVuSerif-Italic-70" d="M 1466 1825 
L 1400 1497 
Q 1353 1250 1353 1053 
Q 1353 769 1453 581 
Q 1622 269 2059 269 
Q 2500 269 2795 622 
Q 3091 975 3225 1663 
Q 3284 1978 3284 2225 
Q 3284 2513 3200 2703 
Q 3041 3053 2600 3053 
Q 2163 3053 1872 2737 
Q 1581 2422 1466 1825 
z
M 1116 2988 
L 563 2988 
L 628 3322 
L 1756 3322 
L 1656 2803 
Q 1884 3116 2175 3264 
Q 2466 3413 2850 3413 
Q 3463 3413 3753 2928 
Q 3947 2609 3947 2163 
Q 3947 1928 3897 1663 
Q 3744 881 3262 395 
Q 2781 -91 2169 -91 
Q 1784 -91 1551 57 
Q 1319 206 1213 519 
L 850 -1331 
L 275 -1331 
L 1116 2988 
z
" transform="scale(0.015625)"/>
       <path id="DejaVuSerif-28" d="M 2041 -997 
Q 1281 -656 893 83 
Q 506 822 506 1931 
Q 506 3044 893 3783 
Q 1281 4522 2041 4863 
L 2041 4556 
Q 1559 4225 1350 3623 
Q 1141 3022 1141 1931 
Q 1141 844 1350 242 
Q 1559 -359 2041 -691 
L 2041 -997 
z
" transform="scale(0.015625)"/>
       <path id="DejaVuSerif-29" d="M 453 -997 
L 453 -691 
Q 934 -359 1145 242 
Q 1356 844 1356 1931 
Q 1356 3022 1145 3623 
Q 934 4225 453 4556 
L 453 4863 
Q 1216 4522 1603 3783 
Q 1991 3044 1991 1931 
Q 1991 822 1603 83 
Q 1216 -656 453 -997 
z
" transform="scale(0.015625)"/>
      </defs>
      <use xlink:href="#DejaVuSerif-Italic-70" transform="translate(0 0.875)"/>
      <use xlink:href="#DejaVuSerif-28" transform="translate(64.013672 0.875)"/>
      <use xlink:href="#STIXSizeOneSym-Regular-221a" transform="translate(103.027344 17.984375) scale(0.583453)"/>
      <use xlink:href="#DejaVuSerif-Italic-3bb" transform="translate(177.229706 1.234375)"/>
      <use xlink:href="#DejaVuSerif-29" transform="translate(253.108612 0.875)"/>
      <path d="M 164.729706 101.5 
L 164.729706 107.75 
L 253.108612 107.75 
L 253.108612 101.5 
L 164.729706 101.5 
z
"/>
     </g>
    </g>
   </g>
   <g id="line2d_22">
    <path d="M 42.160588 243.942787 
L 42.160588 9.857213 
L 47.74577 9.857213 
L 47.74577 243.942787 
L 70.0865 243.88396 
L 70.0865 243.825133 
L 75.671683 243.825133 
L 75.671683 243.703556 
L 81.256865 243.703556 
L 81.256865 243.523152 
L 86.842047 243.523152 
L 86.842047 243.207446 
L 92.42723 243.207446 
L 92.42723 242.976059 
L 98.012412 242.976059 
L 98.012412 242.601525 
L 109.182777 242.501518 
L 109.182777 242.262287 
L 114.76796 242.262287 
L 114.76796 242.140711 
L 120.353142 242.140711 
L 120.353142 241.073976 
L 125.938324 241.073976 
L 125.938324 241.889714 
L 131.523507 241.889714 
L 131.523507 240.491586 
L 137.108689 240.491586 
L 137.108689 241.462236 
L 142.693872 241.462236 
L 142.693872 242.427004 
L 148.279054 242.427004 
L 148.279054 232.191054 
L 153.864237 232.191054 
L 153.864237 241.850496 
L 159.449419 241.850496 
L 159.449419 241.215162 
L 165.034601 241.215162 
L 165.034601 241.719115 
L 170.619784 241.719115 
L 170.619784 242.001486 
L 176.204966 242.001486 
L 176.204966 237.811022 
L 181.790149 237.811022 
L 181.790149 241.823044 
L 187.375331 241.823044 
L 187.375331 241.487728 
L 192.960513 241.487728 
L 192.960513 242.189734 
L 198.545696 242.189734 
L 198.545696 242.562307 
L 204.130878 242.562307 
L 204.130878 243.072143 
L 209.716061 243.072143 
L 209.716061 243.483934 
L 215.301243 243.483934 
L 215.301243 159.515814 
L 220.886426 159.515814 
L 220.886426 243.599628 
L 226.471608 243.599628 
L 226.471608 243.105479 
L 232.05679 243.105479 
L 232.05679 242.511323 
L 237.641973 242.511323 
L 237.641973 242.285818 
L 248.812338 242.317193 
L 248.812338 240.764152 
L 254.39752 240.764152 
L 254.39752 241.677936 
L 259.982703 241.677936 
L 259.982703 240.605319 
L 265.567885 240.605319 
L 265.567885 241.183787 
L 271.153067 241.183787 
L 271.153067 241.87991 
L 276.73825 241.87991 
L 276.73825 242.287779 
L 282.323432 242.287779 
L 282.323432 243.060378 
L 287.908615 243.060378 
L 287.908615 211.001463 
L 293.493797 211.001463 
L 293.493797 243.046651 
L 299.078979 243.046651 
L 299.078979 242.238756 
L 304.664162 242.238756 
L 304.664162 241.905402 
L 321.419709 241.854418 
L 321.419709 232.006729 
L 327.004892 232.006729 
L 327.004892 242.625056 
L 332.590074 242.625056 
L 332.590074 242.056392 
L 338.175256 242.056392 
L 338.175256 242.415238 
L 343.760439 242.415238 
L 343.760439 235.010843 
L 349.345621 235.010843 
L 349.345621 242.472105 
L 354.930804 242.472105 
L 354.930804 241.166139 
L 360.515986 241.166139 
L 360.515986 242.581916 
L 366.101169 242.581916 
L 366.101169 238.332624 
L 371.686351 238.332624 
L 371.686351 240.922986 
L 382.856716 240.919064 
L 382.856716 242.458378 
L 388.441898 242.458378 
L 388.441898 239.752323 
L 394.027081 239.752323 
L 394.027081 242.370137 
L 399.612263 242.370137 
L 399.612263 241.693624 
L 410.782628 241.585773 
L 410.782628 241.964229 
L 427.538175 241.983838 
L 427.538175 242.344646 
L 433 242.344646 
L 433 242.344646 
" clip-path="url(#pcaa0fe122f)" style="fill: none; stroke: #dd8452; stroke-width: 2"/>
   </g>
   <g id="patch_3">
    <path d="M 42.160588 250.965354 
L 42.160588 2.834646 
" style="fill: none; stroke: #000000; stroke-linejoin: miter; stroke-linecap: square"/>
   </g>
   <g id="patch_4">
    <path d="M 429.165354 250.965354 
L 429.165354 2.834646 
" style="fill: none; stroke: #000000; stroke-linejoin: miter; stroke-linecap: square"/>
   </g>
   <g id="patch_5">
    <path d="M 42.160588 250.965354 
L 429.165354 250.965354 
" style="fill: none; stroke: #000000; stroke-linejoin: miter; stroke-linecap: square"/>
   </g>
   <g id="patch_6">
    <path d="M 42.160588 2.834646 
L 429.165354 2.834646 
" style="fill: none; stroke: #000000; stroke-linejoin: miter; stroke-linecap: square"/>
   </g>
   <g id="line2d_23">
    <path d="M 42.160588 243.942787 
L 42.160588 19.068832 
L 47.74577 19.068832 
L 47.74577 243.942787 
L 70.0865 243.942787 
L 70.0865 243.742007 
L 75.671683 243.742007 
L 75.671683 243.942787 
L 81.256865 243.942787 
L 81.256865 243.340446 
L 86.842047 243.340446 
L 86.842047 243.139666 
L 92.42723 243.139666 
L 92.42723 242.537325 
L 98.012412 242.537325 
L 98.012412 242.938886 
L 103.597595 242.938886 
L 103.597595 243.340446 
L 109.182777 243.340446 
L 109.182777 242.336545 
L 114.76796 242.336545 
L 114.76796 241.533423 
L 120.353142 241.533423 
L 120.353142 241.131863 
L 125.938324 241.131863 
L 125.938324 242.135764 
L 131.523507 242.135764 
L 131.523507 240.931082 
L 137.108689 240.931082 
L 137.108689 241.533423 
L 142.693872 241.533423 
L 142.693872 242.336545 
L 148.279054 242.336545 
L 148.279054 229.888165 
L 153.864237 229.888165 
L 153.864237 241.533423 
L 159.449419 241.533423 
L 159.449419 241.332643 
L 165.034601 241.332643 
L 165.034601 241.934984 
L 170.619784 241.934984 
L 170.619784 242.938886 
L 176.204966 242.938886 
L 176.204966 238.320938 
L 181.790149 238.320938 
L 181.790149 240.931082 
L 187.375331 240.931082 
L 187.375331 241.533423 
L 192.960513 241.533423 
L 192.960513 240.931082 
L 198.545696 240.931082 
L 198.545696 242.738105 
L 204.130878 242.738105 
L 204.130878 243.742007 
L 215.301243 243.742007 
L 215.301243 153.792425 
L 220.886426 153.792425 
L 220.886426 243.942787 
L 226.471608 243.942787 
L 226.471608 243.139666 
L 232.05679 243.139666 
L 232.05679 242.537325 
L 237.641973 242.537325 
L 237.641973 242.336545 
L 243.227155 242.336545 
L 243.227155 241.934984 
L 248.812338 241.934984 
L 248.812338 241.533423 
L 254.39752 241.533423 
L 254.39752 242.537325 
L 259.982703 242.537325 
L 259.982703 240.730302 
L 271.153067 240.730302 
L 271.153067 242.336545 
L 276.73825 242.336545 
L 276.73825 243.139666 
L 282.323432 243.139666 
L 282.323432 242.738105 
L 287.908615 242.738105 
L 287.908615 205.794527 
L 293.493797 205.794527 
L 293.493797 243.139666 
L 299.078979 243.139666 
L 299.078979 242.135764 
L 304.664162 242.135764 
L 304.664162 242.537325 
L 310.249344 242.537325 
L 310.249344 240.931082 
L 315.834527 240.931082 
L 315.834527 241.734204 
L 321.419709 241.734204 
L 321.419709 230.088945 
L 327.004892 230.088945 
L 327.004892 242.938886 
L 332.590074 242.938886 
L 332.590074 241.332643 
L 338.175256 241.332643 
L 338.175256 242.537325 
L 343.760439 242.537325 
L 343.760439 235.108453 
L 349.345621 235.108453 
L 349.345621 242.336545 
L 354.930804 242.336545 
L 354.930804 240.328741 
L 360.515986 240.328741 
L 360.515986 242.938886 
L 366.101169 242.938886 
L 366.101169 238.923279 
L 371.686351 238.923279 
L 371.686351 241.934984 
L 377.271533 241.934984 
L 377.271533 240.931082 
L 382.856716 240.931082 
L 382.856716 242.537325 
L 388.441898 242.537325 
L 388.441898 238.923279 
L 394.027081 238.923279 
L 394.027081 241.533423 
L 399.612263 241.533423 
L 399.612263 242.738105 
L 405.197446 242.738105 
L 405.197446 242.135764 
L 410.782628 242.135764 
L 410.782628 241.131863 
L 421.952993 241.131863 
L 421.952993 241.533423 
L 427.538175 241.533423 
L 427.538175 241.734204 
L 433 241.734204 
L 433 241.734204 
" clip-path="url(#pcaa0fe122f)" style="fill: none; stroke: #55a868; stroke-width: 2"/>
   </g>
   <g id="line2d_24">
    <path d="M 42.160588 243.942787 
L 42.160588 11.288595 
L 47.74577 11.288595 
L 47.74577 243.942787 
L 70.0865 243.942787 
L 70.0865 243.691812 
L 75.671683 243.691812 
L 75.671683 243.942787 
L 81.256865 243.942787 
L 81.256865 242.813398 
L 86.842047 242.813398 
L 86.842047 243.189861 
L 92.42723 243.189861 
L 92.42723 243.064373 
L 98.012412 243.064373 
L 98.012412 242.938886 
L 103.597595 242.938886 
L 103.597595 243.064373 
L 109.182777 243.064373 
L 109.182777 241.934984 
L 114.76796 241.934984 
L 114.76796 241.684009 
L 120.353142 241.684009 
L 120.353142 241.809496 
L 125.938324 241.809496 
L 125.938324 242.68791 
L 131.523507 242.68791 
L 131.523507 240.805595 
L 137.108689 240.805595 
L 137.108689 241.684009 
L 142.693872 241.684009 
L 142.693872 242.813398 
L 148.279054 242.813398 
L 148.279054 231.519505 
L 153.864237 231.519505 
L 153.864237 242.813398 
L 159.449419 242.813398 
L 159.449419 240.805595 
L 165.034601 240.805595 
L 165.034601 241.809496 
L 170.619784 241.809496 
L 170.619784 241.934984 
L 176.204966 241.934984 
L 176.204966 237.542914 
L 181.790149 237.542914 
L 181.790149 242.060472 
L 187.375331 242.060472 
L 187.375331 242.436935 
L 192.960513 242.436935 
L 192.960513 240.680107 
L 198.545696 240.680107 
L 198.545696 242.68791 
L 204.130878 242.68791 
L 204.130878 243.189861 
L 209.716061 243.189861 
L 209.716061 243.566324 
L 215.301243 243.566324 
L 215.301243 155.850423 
L 220.886426 155.850423 
L 220.886426 243.189861 
L 237.641973 243.189861 
L 237.641973 242.060472 
L 243.227155 242.060472 
L 243.227155 241.684009 
L 248.812338 241.684009 
L 248.812338 241.558521 
L 254.39752 241.558521 
L 254.39752 241.809496 
L 259.982703 241.809496 
L 259.982703 239.801693 
L 265.567885 239.801693 
L 265.567885 241.307545 
L 271.153067 241.307545 
L 271.153067 242.562422 
L 276.73825 242.562422 
L 276.73825 243.064373 
L 282.323432 243.064373 
L 282.323432 243.691812 
L 287.908615 243.691812 
L 287.908615 209.057207 
L 293.493797 209.057207 
L 293.493797 242.68791 
L 299.078979 242.68791 
L 299.078979 242.060472 
L 304.664162 242.060472 
L 304.664162 242.185959 
L 310.249344 242.185959 
L 310.249344 242.060472 
L 315.834527 242.060472 
L 315.834527 241.182058 
L 321.419709 241.182058 
L 321.419709 231.644993 
L 327.004892 231.644993 
L 327.004892 242.060472 
L 332.590074 242.060472 
L 332.590074 242.68791 
L 338.175256 242.68791 
L 338.175256 243.189861 
L 343.760439 243.189861 
L 343.760439 235.033161 
L 349.345621 235.033161 
L 349.345621 242.562422 
L 354.930804 242.562422 
L 354.930804 240.680107 
L 360.515986 240.680107 
L 360.515986 243.189861 
L 366.101169 243.189861 
L 366.101169 239.801693 
L 371.686351 239.801693 
L 371.686351 242.060472 
L 377.271533 242.060472 
L 377.271533 240.429132 
L 382.856716 240.429132 
L 382.856716 242.562422 
L 388.441898 242.562422 
L 388.441898 237.919378 
L 394.027081 237.919378 
L 394.027081 241.684009 
L 399.612263 241.684009 
L 399.612263 242.436935 
L 405.197446 242.436935 
L 405.197446 241.558521 
L 410.782628 241.558521 
L 410.782628 240.805595 
L 416.36781 240.805595 
L 416.36781 242.185959 
L 421.952993 242.185959 
L 421.952993 242.060472 
L 427.538175 242.060472 
L 427.538175 243.315349 
L 433 243.315349 
L 433 243.315349 
" clip-path="url(#pcaa0fe122f)" style="fill: none; stroke: #c44e52; stroke-width: 2"/>
   </g>
   <g id="line2d_25">
    <path d="M -1 23.972621 
L 433 23.972621 
" clip-path="url(#pcaa0fe122f)" style="fill: none; stroke-dasharray: 11.1,4.8; stroke-dashoffset: 0; stroke: #000000; stroke-width: 3"/>
   </g>
   <g id="legend_1">
    <g id="patch_7">
     <path d="M 286.902854 94.033083 
L 424.165354 94.033083 
L 424.165354 7.834646 
L 286.902854 7.834646 
z
" style="fill: #ffffff; stroke: #000000; stroke-linejoin: miter"/>
    </g>
    <g id="line2d_26">
     <path d="M 294.902854 19.933083 
L 304.902854 19.933083 
L 314.902854 19.933083 
" style="fill: none; stroke: #4c72b0; stroke-width: 1.25; stroke-linejoin: miter"/>
    </g>
    <g id="text_13">
     <!-- Bernoulli avg OES -->
     <g transform="translate(322.902854 23.433083) scale(0.1 -0.1)">
      <defs>
       <path id="DejaVuSerif-42" d="M 1581 331 
L 2516 331 
Q 3078 331 3337 575 
Q 3597 819 3597 1350 
Q 3597 1878 3339 2120 
Q 3081 2363 2516 2363 
L 1581 2363 
L 1581 331 
z
M 1581 2694 
L 2375 2694 
Q 2888 2694 3123 2891 
Q 3359 3088 3359 3513 
Q 3359 3941 3123 4136 
Q 2888 4331 2375 4331 
L 1581 4331 
L 1581 2694 
z
M 353 0 
L 353 331 
L 947 331 
L 947 4331 
L 353 4331 
L 353 4666 
L 2656 4666 
Q 3363 4666 3720 4377 
Q 4078 4088 4078 3513 
Q 4078 3097 3829 2850 
Q 3581 2603 3103 2547 
Q 3697 2472 4005 2167 
Q 4313 1863 4313 1350 
Q 4313 656 3875 328 
Q 3438 0 2509 0 
L 353 0 
z
" transform="scale(0.015625)"/>
       <path id="DejaVuSerif-65" d="M 3469 1600 
L 991 1600 
L 991 1575 
Q 991 903 1244 561 
Q 1497 219 1991 219 
Q 2369 219 2611 417 
Q 2853 616 2950 1006 
L 3413 1006 
Q 3275 459 2904 184 
Q 2534 -91 1931 -91 
Q 1203 -91 761 389 
Q 319 869 319 1663 
Q 319 2450 753 2931 
Q 1188 3413 1894 3413 
Q 2647 3413 3050 2948 
Q 3453 2484 3469 1600 
z
M 2791 1931 
Q 2772 2513 2545 2808 
Q 2319 3103 1894 3103 
Q 1497 3103 1269 2806 
Q 1041 2509 991 1931 
L 2791 1931 
z
" transform="scale(0.015625)"/>
       <path id="DejaVuSerif-72" d="M 3059 3328 
L 3059 2497 
L 2728 2497 
Q 2713 2744 2591 2866 
Q 2469 2988 2234 2988 
Q 1809 2988 1582 2694 
Q 1356 2400 1356 1850 
L 1356 331 
L 2022 331 
L 2022 0 
L 263 0 
L 263 331 
L 781 331 
L 781 2994 
L 231 2994 
L 231 3322 
L 1356 3322 
L 1356 2731 
Q 1525 3078 1790 3245 
Q 2056 3413 2438 3413 
Q 2578 3413 2733 3391 
Q 2888 3369 3059 3328 
z
" transform="scale(0.015625)"/>
       <path id="DejaVuSerif-6e" d="M 263 0 
L 263 331 
L 781 331 
L 781 2988 
L 231 2988 
L 231 3322 
L 1356 3322 
L 1356 2731 
Q 1516 3069 1770 3241 
Q 2025 3413 2363 3413 
Q 2913 3413 3172 3097 
Q 3431 2781 3431 2113 
L 3431 331 
L 3944 331 
L 3944 0 
L 2356 0 
L 2356 331 
L 2853 331 
L 2853 1931 
Q 2853 2541 2703 2767 
Q 2553 2994 2175 2994 
Q 1775 2994 1565 2701 
Q 1356 2409 1356 1850 
L 1356 331 
L 1856 331 
L 1856 0 
L 263 0 
z
" transform="scale(0.015625)"/>
       <path id="DejaVuSerif-6f" d="M 1925 219 
Q 2388 219 2623 584 
Q 2859 950 2859 1663 
Q 2859 2375 2623 2739 
Q 2388 3103 1925 3103 
Q 1463 3103 1227 2739 
Q 991 2375 991 1663 
Q 991 950 1228 584 
Q 1466 219 1925 219 
z
M 1925 -91 
Q 1200 -91 759 389 
Q 319 869 319 1663 
Q 319 2456 758 2934 
Q 1197 3413 1925 3413 
Q 2653 3413 3092 2934 
Q 3531 2456 3531 1663 
Q 3531 869 3092 389 
Q 2653 -91 1925 -91 
z
" transform="scale(0.015625)"/>
       <path id="DejaVuSerif-75" d="M 2266 3322 
L 3341 3322 
L 3341 331 
L 3884 331 
L 3884 0 
L 2766 0 
L 2766 588 
Q 2606 256 2353 82 
Q 2100 -91 1766 -91 
Q 1213 -91 952 223 
Q 691 538 691 1209 
L 691 2988 
L 172 2988 
L 172 3322 
L 1269 3322 
L 1269 1388 
Q 1269 781 1417 556 
Q 1566 331 1947 331 
Q 2347 331 2556 625 
Q 2766 919 2766 1478 
L 2766 2988 
L 2266 2988 
L 2266 3322 
z
" transform="scale(0.015625)"/>
       <path id="DejaVuSerif-6c" d="M 1313 331 
L 1856 331 
L 1856 0 
L 184 0 
L 184 331 
L 738 331 
L 738 4531 
L 184 4531 
L 184 4863 
L 1313 4863 
L 1313 331 
z
" transform="scale(0.015625)"/>
       <path id="DejaVuSerif-69" d="M 622 4353 
Q 622 4497 726 4603 
Q 831 4709 978 4709 
Q 1122 4709 1226 4603 
Q 1331 4497 1331 4353 
Q 1331 4206 1228 4103 
Q 1125 4000 978 4000 
Q 831 4000 726 4103 
Q 622 4206 622 4353 
z
M 1356 331 
L 1900 331 
L 1900 0 
L 231 0 
L 231 331 
L 781 331 
L 781 2988 
L 231 2988 
L 231 3322 
L 1356 3322 
L 1356 331 
z
" transform="scale(0.015625)"/>
       <path id="DejaVuSerif-20" transform="scale(0.015625)"/>
       <path id="DejaVuSerif-61" d="M 2547 1044 
L 2547 1747 
L 1806 1747 
Q 1378 1747 1168 1562 
Q 959 1378 959 997 
Q 959 650 1171 447 
Q 1384 244 1747 244 
Q 2106 244 2326 466 
Q 2547 688 2547 1044 
z
M 3122 2075 
L 3122 331 
L 3634 331 
L 3634 0 
L 2547 0 
L 2547 359 
Q 2356 128 2106 18 
Q 1856 -91 1522 -91 
Q 969 -91 644 203 
Q 319 497 319 997 
Q 319 1513 691 1797 
Q 1063 2081 1741 2081 
L 2547 2081 
L 2547 2309 
Q 2547 2688 2317 2895 
Q 2088 3103 1672 3103 
Q 1328 3103 1125 2947 
Q 922 2791 872 2484 
L 575 2484 
L 575 3156 
Q 875 3284 1158 3348 
Q 1441 3413 1709 3413 
Q 2400 3413 2761 3070 
Q 3122 2728 3122 2075 
z
" transform="scale(0.015625)"/>
       <path id="DejaVuSerif-76" d="M 1581 0 
L 359 2988 
L -19 2988 
L -19 3322 
L 1509 3322 
L 1509 2988 
L 978 2988 
L 1913 703 
L 2847 2988 
L 2350 2988 
L 2350 3322 
L 3597 3322 
L 3597 2988 
L 3225 2988 
L 2003 0 
L 1581 0 
z
" transform="scale(0.015625)"/>
       <path id="DejaVuSerif-67" d="M 3359 2988 
L 3359 72 
Q 3359 -644 2965 -1033 
Q 2572 -1422 1844 -1422 
Q 1516 -1422 1216 -1362 
Q 916 -1303 641 -1184 
L 641 -488 
L 941 -488 
Q 997 -813 1206 -963 
Q 1416 -1113 1806 -1113 
Q 2313 -1113 2548 -827 
Q 2784 -541 2784 72 
L 2784 519 
Q 2616 206 2355 57 
Q 2094 -91 1709 -91 
Q 1097 -91 708 395 
Q 319 881 319 1663 
Q 319 2444 706 2928 
Q 1094 3413 1709 3413 
Q 2094 3413 2355 3264 
Q 2616 3116 2784 2803 
L 2784 3322 
L 3909 3322 
L 3909 2988 
L 3359 2988 
z
M 2784 1825 
Q 2784 2422 2554 2737 
Q 2325 3053 1888 3053 
Q 1444 3053 1217 2703 
Q 991 2353 991 1663 
Q 991 975 1217 622 
Q 1444 269 1888 269 
Q 2325 269 2554 583 
Q 2784 897 2784 1497 
L 2784 1825 
z
" transform="scale(0.015625)"/>
       <path id="DejaVuSerif-4f" d="M 2625 244 
Q 3391 244 3781 770 
Q 4172 1297 4172 2328 
Q 4172 3363 3781 3889 
Q 3391 4416 2625 4416 
Q 1856 4416 1465 3889 
Q 1075 3363 1075 2328 
Q 1075 1297 1465 770 
Q 1856 244 2625 244 
z
M 2625 -91 
Q 2150 -91 1751 65 
Q 1353 222 1050 525 
Q 700 875 529 1319 
Q 359 1763 359 2328 
Q 359 2894 529 3339 
Q 700 3784 1050 4134 
Q 1356 4441 1750 4595 
Q 2144 4750 2625 4750 
Q 3641 4750 4266 4084 
Q 4891 3419 4891 2328 
Q 4891 1769 4719 1320 
Q 4547 872 4197 525 
Q 3891 219 3497 64 
Q 3103 -91 2625 -91 
z
" transform="scale(0.015625)"/>
       <path id="DejaVuSerif-45" d="M 353 0 
L 353 331 
L 947 331 
L 947 4331 
L 353 4331 
L 353 4666 
L 4109 4666 
L 4109 3628 
L 3725 3628 
L 3725 4281 
L 1581 4281 
L 1581 2719 
L 3109 2719 
L 3109 3303 
L 3494 3303 
L 3494 1753 
L 3109 1753 
L 3109 2338 
L 1581 2338 
L 1581 384 
L 3775 384 
L 3775 1038 
L 4159 1038 
L 4159 0 
L 353 0 
z
" transform="scale(0.015625)"/>
       <path id="DejaVuSerif-53" d="M 594 225 
L 594 1288 
L 953 1284 
Q 969 753 1261 498 
Q 1553 244 2150 244 
Q 2706 244 2998 464 
Q 3291 684 3291 1106 
Q 3291 1444 3114 1625 
Q 2938 1806 2369 1978 
L 1753 2163 
Q 1084 2366 811 2669 
Q 538 2972 538 3500 
Q 538 4094 959 4422 
Q 1381 4750 2144 4750 
Q 2469 4750 2856 4679 
Q 3244 4609 3681 4475 
L 3681 3481 
L 3328 3481 
Q 3275 3975 2998 4195 
Q 2722 4416 2156 4416 
Q 1663 4416 1405 4214 
Q 1147 4013 1147 3628 
Q 1147 3294 1340 3103 
Q 1534 2913 2163 2725 
L 2741 2553 
Q 3375 2363 3645 2067 
Q 3916 1772 3916 1275 
Q 3916 597 3481 253 
Q 3047 -91 2188 -91 
Q 1803 -91 1404 -12 
Q 1006 66 594 225 
z
" transform="scale(0.015625)"/>
      </defs>
      <use xlink:href="#DejaVuSerif-42"/>
      <use xlink:href="#DejaVuSerif-65" x="73.486328"/>
      <use xlink:href="#DejaVuSerif-72" x="132.666016"/>
      <use xlink:href="#DejaVuSerif-6e" x="180.46875"/>
      <use xlink:href="#DejaVuSerif-6f" x="244.873047"/>
      <use xlink:href="#DejaVuSerif-75" x="305.078125"/>
      <use xlink:href="#DejaVuSerif-6c" x="369.482422"/>
      <use xlink:href="#DejaVuSerif-6c" x="401.464844"/>
      <use xlink:href="#DejaVuSerif-69" x="433.447266"/>
      <use xlink:href="#DejaVuSerif-20" x="465.429688"/>
      <use xlink:href="#DejaVuSerif-61" x="497.216797"/>
      <use xlink:href="#DejaVuSerif-76" x="556.835938"/>
      <use xlink:href="#DejaVuSerif-67" x="613.330078"/>
      <use xlink:href="#DejaVuSerif-20" x="677.34375"/>
      <use xlink:href="#DejaVuSerif-4f" x="709.130859"/>
      <use xlink:href="#DejaVuSerif-45" x="791.113281"/>
      <use xlink:href="#DejaVuSerif-53" x="864.111328"/>
     </g>
    </g>
    <g id="line2d_27">
     <path d="M 294.902854 35.954958 
L 304.902854 35.954958 
L 314.902854 35.954958 
" style="fill: none; stroke: #dd8452; stroke-width: 1.25; stroke-linejoin: miter"/>
    </g>
    <g id="text_14">
     <!-- $\{P^tXP\}_P$ avg OES -->
     <g transform="translate(322.902854 39.454958) scale(0.1 -0.1)">
      <defs>
       <path id="DejaVuSans-7b" d="M 3272 -594 
L 3272 -1044 
L 3078 -1044 
Q 2300 -1044 2036 -812 
Q 1772 -581 1772 109 
L 1772 856 
Q 1772 1328 1603 1509 
Q 1434 1691 991 1691 
L 800 1691 
L 800 2138 
L 991 2138 
Q 1438 2138 1605 2317 
Q 1772 2497 1772 2963 
L 1772 3713 
Q 1772 4403 2036 4633 
Q 2300 4863 3078 4863 
L 3272 4863 
L 3272 4416 
L 3059 4416 
Q 2619 4416 2484 4278 
Q 2350 4141 2350 3700 
L 2350 2925 
Q 2350 2434 2208 2212 
Q 2066 1991 1722 1913 
Q 2069 1828 2209 1606 
Q 2350 1384 2350 897 
L 2350 122 
Q 2350 -319 2484 -456 
Q 2619 -594 3059 -594 
L 3272 -594 
z
" transform="scale(0.015625)"/>
       <path id="DejaVuSans-Oblique-50" d="M 1081 4666 
L 2541 4666 
Q 3178 4666 3512 4369 
Q 3847 4072 3847 3500 
Q 3847 2731 3353 2303 
Q 2859 1875 1966 1875 
L 1172 1875 
L 806 0 
L 172 0 
L 1081 4666 
z
M 1613 4147 
L 1275 2394 
L 2069 2394 
Q 2606 2394 2893 2669 
Q 3181 2944 3181 3456 
Q 3181 3784 2986 3965 
Q 2791 4147 2438 4147 
L 1613 4147 
z
" transform="scale(0.015625)"/>
       <path id="DejaVuSans-Oblique-74" d="M 2706 3500 
L 2619 3053 
L 1472 3053 
L 1100 1153 
Q 1081 1047 1072 975 
Q 1063 903 1063 863 
Q 1063 663 1183 572 
Q 1303 481 1569 481 
L 2150 481 
L 2053 0 
L 1503 0 
Q 991 0 739 200 
Q 488 400 488 806 
Q 488 878 497 964 
Q 506 1050 525 1153 
L 897 3053 
L 409 3053 
L 500 3500 
L 978 3500 
L 1172 4494 
L 1747 4494 
L 1556 3500 
L 2706 3500 
z
" transform="scale(0.015625)"/>
       <path id="DejaVuSans-Oblique-58" d="M 878 4666 
L 1516 4666 
L 2316 2981 
L 3763 4666 
L 4500 4666 
L 2578 2438 
L 3738 0 
L 3103 0 
L 2163 1966 
L 459 0 
L -275 0 
L 1906 2509 
L 878 4666 
z
" transform="scale(0.015625)"/>
       <path id="DejaVuSans-7d" d="M 800 -594 
L 1019 -594 
Q 1456 -594 1589 -459 
Q 1722 -325 1722 122 
L 1722 897 
Q 1722 1384 1862 1606 
Q 2003 1828 2350 1913 
Q 2003 1991 1862 2212 
Q 1722 2434 1722 2925 
L 1722 3700 
Q 1722 4144 1589 4280 
Q 1456 4416 1019 4416 
L 800 4416 
L 800 4863 
L 997 4863 
Q 1775 4863 2036 4633 
Q 2297 4403 2297 3713 
L 2297 2963 
Q 2297 2497 2465 2317 
Q 2634 2138 3078 2138 
L 3272 2138 
L 3272 1691 
L 3078 1691 
Q 2634 1691 2465 1509 
Q 2297 1328 2297 856 
L 2297 109 
Q 2297 -581 2036 -812 
Q 1775 -1044 997 -1044 
L 800 -1044 
L 800 -594 
z
" transform="scale(0.015625)"/>
      </defs>
      <use xlink:href="#DejaVuSans-7b" transform="translate(0 0.565625)"/>
      <use xlink:href="#DejaVuSans-Oblique-50" transform="translate(63.623047 0.565625)"/>
      <use xlink:href="#DejaVuSans-Oblique-74" transform="translate(130.942552 38.846875) scale(0.7)"/>
      <use xlink:href="#DejaVuSans-Oblique-58" transform="translate(161.123216 0.565625)"/>
      <use xlink:href="#DejaVuSans-Oblique-50" transform="translate(229.629076 0.565625)"/>
      <use xlink:href="#DejaVuSans-7d" transform="translate(289.93181 0.565625)"/>
      <use xlink:href="#DejaVuSans-Oblique-50" transform="translate(354.511888 -15.840625) scale(0.7)"/>
      <use xlink:href="#DejaVuSerif-20" transform="translate(399.458177 0.565625)"/>
      <use xlink:href="#DejaVuSerif-61" transform="translate(431.245286 0.565625)"/>
      <use xlink:href="#DejaVuSerif-76" transform="translate(490.864427 0.565625)"/>
      <use xlink:href="#DejaVuSerif-67" transform="translate(547.358568 0.565625)"/>
      <use xlink:href="#DejaVuSerif-20" transform="translate(611.37224 0.565625)"/>
      <use xlink:href="#DejaVuSerif-4f" transform="translate(643.159349 0.565625)"/>
      <use xlink:href="#DejaVuSerif-45" transform="translate(725.141771 0.565625)"/>
      <use xlink:href="#DejaVuSerif-53" transform="translate(798.139818 0.565625)"/>
     </g>
    </g>
    <g id="line2d_28">
     <path d="M 294.902854 50.854958 
L 304.902854 50.854958 
L 314.902854 50.854958 
" style="fill: none; stroke: #55a868; stroke-width: 1.25; stroke-linejoin: miter"/>
    </g>
    <g id="text_15">
     <!-- $\{P\}$ avg OES -->
     <g transform="translate(322.902854 54.354958) scale(0.1 -0.1)">
      <use xlink:href="#DejaVuSans-7b" transform="translate(0 0.015625)"/>
      <use xlink:href="#DejaVuSans-Oblique-50" transform="translate(63.623047 0.015625)"/>
      <use xlink:href="#DejaVuSans-7d" transform="translate(123.925781 0.015625)"/>
      <use xlink:href="#DejaVuSerif-20" transform="translate(187.548828 0.015625)"/>
      <use xlink:href="#DejaVuSerif-61" transform="translate(219.335938 0.015625)"/>
      <use xlink:href="#DejaVuSerif-76" transform="translate(278.955078 0.015625)"/>
      <use xlink:href="#DejaVuSerif-67" transform="translate(335.449219 0.015625)"/>
      <use xlink:href="#DejaVuSerif-20" transform="translate(399.462891 0.015625)"/>
      <use xlink:href="#DejaVuSerif-4f" transform="translate(431.25 0.015625)"/>
      <use xlink:href="#DejaVuSerif-45" transform="translate(513.232422 0.015625)"/>
      <use xlink:href="#DejaVuSerif-53" transform="translate(586.230469 0.015625)"/>
     </g>
    </g>
    <g id="line2d_29">
     <path d="M 294.902854 65.753396 
L 304.902854 65.753396 
L 314.902854 65.753396 
" style="fill: none; stroke: #c44e52; stroke-width: 1.25; stroke-linejoin: miter"/>
    </g>
    <g id="text_16">
     <!-- $P^tXP$ OES -->
     <g transform="translate(322.902854 69.253396) scale(0.1 -0.1)">
      <use xlink:href="#DejaVuSans-Oblique-50" transform="translate(0 0.565625)"/>
      <use xlink:href="#DejaVuSans-Oblique-74" transform="translate(67.319505 38.846875) scale(0.7)"/>
      <use xlink:href="#DejaVuSans-Oblique-58" transform="translate(97.500169 0.565625)"/>
      <use xlink:href="#DejaVuSans-Oblique-50" transform="translate(166.006029 0.565625)"/>
      <use xlink:href="#DejaVuSerif-20" transform="translate(226.308763 0.565625)"/>
      <use xlink:href="#DejaVuSerif-4f" transform="translate(258.095872 0.565625)"/>
      <use xlink:href="#DejaVuSerif-45" transform="translate(340.078294 0.565625)"/>
      <use xlink:href="#DejaVuSerif-53" transform="translate(413.076341 0.565625)"/>
     </g>
    </g>
    <g id="line2d_30">
     <path d="M 294.902854 80.433083 
L 304.902854 80.433083 
L 314.902854 80.433083 
" style="fill: none; stroke-dasharray: 4.625,2; stroke-dashoffset: 0; stroke: #000000; stroke-width: 1.25; stroke-linejoin: miter"/>
    </g>
    <g id="text_17">
     <!-- $p(\{0\})$ pred. -->
     <g transform="translate(322.902854 83.933083) scale(0.1 -0.1)">
      <defs>
       <path id="DejaVuSans-Oblique-70" d="M 3175 2156 
Q 3175 2616 2975 2859 
Q 2775 3103 2400 3103 
Q 2144 3103 1911 2972 
Q 1678 2841 1497 2591 
Q 1319 2344 1212 1994 
Q 1106 1644 1106 1300 
Q 1106 863 1306 627 
Q 1506 391 1875 391 
Q 2147 391 2380 519 
Q 2613 647 2778 891 
Q 2956 1147 3065 1494 
Q 3175 1841 3175 2156 
z
M 1394 2969 
Q 1625 3272 1939 3428 
Q 2253 3584 2638 3584 
Q 3175 3584 3472 3232 
Q 3769 2881 3769 2247 
Q 3769 1728 3584 1258 
Q 3400 788 3053 416 
Q 2822 169 2531 39 
Q 2241 -91 1919 -91 
Q 1547 -91 1294 64 
Q 1041 219 916 525 
L 556 -1331 
L -19 -1331 
L 922 3500 
L 1497 3500 
L 1394 2969 
z
" transform="scale(0.015625)"/>
       <path id="DejaVuSans-28" d="M 1984 4856 
Q 1566 4138 1362 3434 
Q 1159 2731 1159 2009 
Q 1159 1288 1364 580 
Q 1569 -128 1984 -844 
L 1484 -844 
Q 1016 -109 783 600 
Q 550 1309 550 2009 
Q 550 2706 781 3412 
Q 1013 4119 1484 4856 
L 1984 4856 
z
" transform="scale(0.015625)"/>
       <path id="DejaVuSans-30" d="M 2034 4250 
Q 1547 4250 1301 3770 
Q 1056 3291 1056 2328 
Q 1056 1369 1301 889 
Q 1547 409 2034 409 
Q 2525 409 2770 889 
Q 3016 1369 3016 2328 
Q 3016 3291 2770 3770 
Q 2525 4250 2034 4250 
z
M 2034 4750 
Q 2819 4750 3233 4129 
Q 3647 3509 3647 2328 
Q 3647 1150 3233 529 
Q 2819 -91 2034 -91 
Q 1250 -91 836 529 
Q 422 1150 422 2328 
Q 422 3509 836 4129 
Q 1250 4750 2034 4750 
z
" transform="scale(0.015625)"/>
       <path id="DejaVuSans-29" d="M 513 4856 
L 1013 4856 
Q 1481 4119 1714 3412 
Q 1947 2706 1947 2009 
Q 1947 1309 1714 600 
Q 1481 -109 1013 -844 
L 513 -844 
Q 928 -128 1133 580 
Q 1338 1288 1338 2009 
Q 1338 2731 1133 3434 
Q 928 4138 513 4856 
z
" transform="scale(0.015625)"/>
       <path id="DejaVuSerif-70" d="M 1313 1825 
L 1313 1497 
Q 1313 897 1542 583 
Q 1772 269 2209 269 
Q 2650 269 2876 622 
Q 3103 975 3103 1663 
Q 3103 2353 2876 2703 
Q 2650 3053 2209 3053 
Q 1772 3053 1542 2737 
Q 1313 2422 1313 1825 
z
M 738 2988 
L 184 2988 
L 184 3322 
L 1313 3322 
L 1313 2803 
Q 1481 3116 1742 3264 
Q 2003 3413 2388 3413 
Q 3000 3413 3387 2928 
Q 3775 2444 3775 1663 
Q 3775 881 3387 395 
Q 3000 -91 2388 -91 
Q 2003 -91 1742 57 
Q 1481 206 1313 519 
L 1313 -997 
L 1856 -997 
L 1856 -1331 
L 184 -1331 
L 184 -997 
L 738 -997 
L 738 2988 
z
" transform="scale(0.015625)"/>
       <path id="DejaVuSerif-64" d="M 3359 331 
L 3909 331 
L 3909 0 
L 2784 0 
L 2784 519 
Q 2616 206 2355 57 
Q 2094 -91 1709 -91 
Q 1097 -91 708 395 
Q 319 881 319 1663 
Q 319 2444 706 2928 
Q 1094 3413 1709 3413 
Q 2094 3413 2355 3264 
Q 2616 3116 2784 2803 
L 2784 4531 
L 2241 4531 
L 2241 4863 
L 3359 4863 
L 3359 331 
z
M 2784 1497 
L 2784 1825 
Q 2784 2422 2554 2737 
Q 2325 3053 1888 3053 
Q 1444 3053 1217 2703 
Q 991 2353 991 1663 
Q 991 975 1217 622 
Q 1444 269 1888 269 
Q 2325 269 2554 583 
Q 2784 897 2784 1497 
z
" transform="scale(0.015625)"/>
      </defs>
      <use xlink:href="#DejaVuSans-Oblique-70" transform="translate(0 0.015625)"/>
      <use xlink:href="#DejaVuSans-28" transform="translate(63.476562 0.015625)"/>
      <use xlink:href="#DejaVuSans-7b" transform="translate(102.490234 0.015625)"/>
      <use xlink:href="#DejaVuSans-30" transform="translate(166.113281 0.015625)"/>
      <use xlink:href="#DejaVuSans-7d" transform="translate(229.736328 0.015625)"/>
      <use xlink:href="#DejaVuSans-29" transform="translate(293.359375 0.015625)"/>
      <use xlink:href="#DejaVuSerif-20" transform="translate(332.373047 0.015625)"/>
      <use xlink:href="#DejaVuSerif-70" transform="translate(364.160156 0.015625)"/>
      <use xlink:href="#DejaVuSerif-72" transform="translate(428.173828 0.015625)"/>
      <use xlink:href="#DejaVuSerif-65" transform="translate(475.976562 0.015625)"/>
      <use xlink:href="#DejaVuSerif-64" transform="translate(535.15625 0.015625)"/>
      <use xlink:href="#DejaVuSerif-2e" transform="translate(599.169922 0.015625)"/>
     </g>
    </g>
   </g>
  </g>
 </g>
 <defs>
  <clipPath id="pcaa0fe122f">
   <rect x="42.160588" y="2.834646" width="387.004766" height="248.130709"/>
  </clipPath>
 </defs>
</svg>
