<?xml version="1.0" encoding="utf-8" standalone="no"?>
<!DOCTYPE svg PUBLIC "-//W3C//DTD SVG 1.1//EN"
  "http://www.w3.org/Graphics/SVG/1.1/DTD/svg11.dtd">
<svg xmlns:xlink="http://www.w3.org/1999/xlink" width="432pt" height="288pt" viewBox="0 0 432 288" xmlns="http://www.w3.org/2000/svg" version="1.1">
 <metadata>
  <rdf:RDF xmlns:dc="http://purl.org/dc/elements/1.1/" xmlns:cc="http://creativecommons.org/ns#" xmlns:rdf="http://www.w3.org/1999/02/22-rdf-syntax-ns#">
   <cc:Work>
    <dc:type rdf:resource="http://purl.org/dc/dcmitype/StillImage"/>
    <dc:date>2025-06-06T13:01:09.733759</dc:date>
    <dc:format>image/svg+xml</dc:format>
    <dc:creator>
     <cc:Agent>
      <dc:title>Matplotlib v3.9.2, https://matplotlib.org/</dc:title>
     </cc:Agent>
    </dc:creator>
   </cc:Work>
  </rdf:RDF>
 </metadata>
 <defs>
  <style type="text/css">*{stroke-linejoin: round; stroke-linecap: butt}</style>
 </defs>
 <g id="figure_1">
  <g id="patch_1">
   <path d="M 0 288 
L 432 288 
L 432 0 
L 0 0 
z
" style="fill: #ffffff"/>
  </g>
  <g id="axes_1">
   <g id="patch_2">
    <path d="M 49.5267 254.625354 
L 429.165354 254.625354 
L 429.165354 2.834646 
L 49.5267 2.834646 
z
" style="fill: #ffffff"/>
   </g>
   <g id="line2d_1">
    <path d="M -1 87.417058 
L 433 87.417058 
" clip-path="url(#p4f4a573400)" style="fill: none; stroke-dasharray: 3.7,1.6; stroke-dashoffset: 0; stroke: #8c8c8c"/>
   </g>
   <g id="line2d_2">
    <path d="M -1 131.812812 
L 433 131.812812 
" clip-path="url(#p4f4a573400)" style="fill: none; stroke-dasharray: 3.7,1.6; stroke-dashoffset: 0; stroke: #8c8c8c"/>
   </g>
   <g id="line2d_3">
    <path d="M -1 176.208566 
L 433 176.208566 
" clip-path="url(#p4f4a573400)" style="fill: none; stroke-dasharray: 3.7,1.6; stroke-dashoffset: 0; stroke: #8c8c8c"/>
   </g>
   <g id="line2d_4">
    <path d="M -1 220.60432 
L 433 220.60432 
" clip-path="url(#p4f4a573400)" style="fill: none; stroke-dasharray: 3.7,1.6; stroke-dashoffset: 0; stroke: #8c8c8c"/>
   </g>
   <g id="matplotlib.axis_1">
    <g id="xtick_1">
     <g id="line2d_5">
      <defs>
       <path id="mc5acb621b7" d="M 0 0 
L 0 -2.5 
" style="stroke: #000000; stroke-width: 0.5"/>
      </defs>
      <g>
       <use xlink:href="#mc5acb621b7" x="60.27119" y="254.625354" style="stroke: #000000; stroke-width: 0.5"/>
      </g>
     </g>
     <g id="line2d_6">
      <defs>
       <path id="m659d840499" d="M 0 0 
L 0 2.5 
" style="stroke: #000000; stroke-width: 0.5"/>
      </defs>
      <g>
       <use xlink:href="#m659d840499" x="60.27119" y="2.834646" style="stroke: #000000; stroke-width: 0.5"/>
      </g>
     </g>
     <g id="text_1">
      <!-- $1$ -->
      <g transform="translate(57.07119 265.723792) scale(0.1 -0.1)">
       <defs>
        <path id="DejaVuSerif-31" d="M 909 0 
L 909 331 
L 1722 331 
L 1722 4213 
L 781 3603 
L 781 4013 
L 1919 4750 
L 2350 4750 
L 2350 331 
L 3163 331 
L 3163 0 
L 909 0 
z
" transform="scale(0.015625)"/>
       </defs>
       <use xlink:href="#DejaVuSerif-31" transform="translate(0 0.78125)"/>
      </g>
     </g>
    </g>
    <g id="xtick_2">
     <g id="line2d_7">
      <g>
       <use xlink:href="#mc5acb621b7" x="92.830251" y="254.625354" style="stroke: #000000; stroke-width: 0.5"/>
      </g>
     </g>
     <g id="line2d_8">
      <g>
       <use xlink:href="#m659d840499" x="92.830251" y="2.834646" style="stroke: #000000; stroke-width: 0.5"/>
      </g>
     </g>
     <g id="text_2">
      <!-- $2$ -->
      <g transform="translate(89.630251 265.723792) scale(0.1 -0.1)">
       <defs>
        <path id="DejaVuSerif-32" d="M 819 3553 
L 469 3553 
L 469 4384 
Q 803 4563 1142 4656 
Q 1481 4750 1806 4750 
Q 2534 4750 2956 4397 
Q 3378 4044 3378 3438 
Q 3378 2753 2422 1800 
Q 2347 1728 2309 1691 
L 1131 513 
L 3078 513 
L 3078 1088 
L 3444 1088 
L 3444 0 
L 434 0 
L 434 341 
L 1850 1753 
Q 2319 2222 2519 2614 
Q 2719 3006 2719 3438 
Q 2719 3909 2473 4175 
Q 2228 4441 1797 4441 
Q 1350 4441 1106 4219 
Q 863 3997 819 3553 
z
" transform="scale(0.015625)"/>
       </defs>
       <use xlink:href="#DejaVuSerif-32" transform="translate(0 0.78125)"/>
      </g>
     </g>
    </g>
    <g id="xtick_3">
     <g id="line2d_9">
      <g>
       <use xlink:href="#mc5acb621b7" x="125.389312" y="254.625354" style="stroke: #000000; stroke-width: 0.5"/>
      </g>
     </g>
     <g id="line2d_10">
      <g>
       <use xlink:href="#m659d840499" x="125.389312" y="2.834646" style="stroke: #000000; stroke-width: 0.5"/>
      </g>
     </g>
     <g id="text_3">
      <!-- $3$ -->
      <g transform="translate(122.189312 265.723792) scale(0.1 -0.1)">
       <defs>
        <path id="DejaVuSerif-33" d="M 622 4469 
Q 988 4606 1323 4678 
Q 1659 4750 1953 4750 
Q 2638 4750 3022 4454 
Q 3406 4159 3406 3634 
Q 3406 3213 3140 2930 
Q 2875 2647 2388 2547 
Q 2963 2466 3280 2130 
Q 3597 1794 3597 1259 
Q 3597 606 3158 257 
Q 2719 -91 1894 -91 
Q 1528 -91 1179 -12 
Q 831 66 488 225 
L 488 1131 
L 838 1131 
Q 869 681 1141 450 
Q 1413 219 1906 219 
Q 2384 219 2661 495 
Q 2938 772 2938 1253 
Q 2938 1803 2653 2086 
Q 2369 2369 1819 2369 
L 1522 2369 
L 1522 2688 
L 1678 2688 
Q 2225 2688 2498 2914 
Q 2772 3141 2772 3597 
Q 2772 4006 2547 4223 
Q 2322 4441 1900 4441 
Q 1478 4441 1245 4241 
Q 1013 4041 972 3647 
L 622 3647 
L 622 4469 
z
" transform="scale(0.015625)"/>
       </defs>
       <use xlink:href="#DejaVuSerif-33" transform="translate(0 0.78125)"/>
      </g>
     </g>
    </g>
    <g id="xtick_4">
     <g id="line2d_11">
      <g>
       <use xlink:href="#mc5acb621b7" x="157.948374" y="254.625354" style="stroke: #000000; stroke-width: 0.5"/>
      </g>
     </g>
     <g id="line2d_12">
      <g>
       <use xlink:href="#m659d840499" x="157.948374" y="2.834646" style="stroke: #000000; stroke-width: 0.5"/>
      </g>
     </g>
     <g id="text_4">
      <!-- $4$ -->
      <g transform="translate(154.748374 265.723792) scale(0.1 -0.1)">
       <defs>
        <path id="DejaVuSerif-34" d="M 2234 1581 
L 2234 4063 
L 641 1581 
L 2234 1581 
z
M 3609 0 
L 1484 0 
L 1484 331 
L 2234 331 
L 2234 1247 
L 197 1247 
L 197 1588 
L 2241 4750 
L 2859 4750 
L 2859 1581 
L 3750 1581 
L 3750 1247 
L 2859 1247 
L 2859 331 
L 3609 331 
L 3609 0 
z
" transform="scale(0.015625)"/>
       </defs>
       <use xlink:href="#DejaVuSerif-34" transform="translate(0 0.78125)"/>
      </g>
     </g>
    </g>
    <g id="xtick_5">
     <g id="line2d_13">
      <g>
       <use xlink:href="#mc5acb621b7" x="190.507435" y="254.625354" style="stroke: #000000; stroke-width: 0.5"/>
      </g>
     </g>
     <g id="line2d_14">
      <g>
       <use xlink:href="#m659d840499" x="190.507435" y="2.834646" style="stroke: #000000; stroke-width: 0.5"/>
      </g>
     </g>
     <g id="text_5">
      <!-- $5$ -->
      <g transform="translate(187.307435 265.723792) scale(0.1 -0.1)">
       <defs>
        <path id="DejaVuSerif-35" d="M 3219 4666 
L 3219 4153 
L 1081 4153 
L 1081 2816 
Q 1244 2928 1461 2984 
Q 1678 3041 1947 3041 
Q 2703 3041 3140 2622 
Q 3578 2203 3578 1478 
Q 3578 738 3136 323 
Q 2694 -91 1894 -91 
Q 1572 -91 1234 -12 
Q 897 66 544 225 
L 544 1131 
L 897 1131 
Q 925 688 1179 453 
Q 1434 219 1894 219 
Q 2388 219 2653 544 
Q 2919 869 2919 1478 
Q 2919 2084 2655 2407 
Q 2391 2731 1894 2731 
Q 1613 2731 1398 2631 
Q 1184 2531 1019 2322 
L 750 2322 
L 750 4666 
L 3219 4666 
z
" transform="scale(0.015625)"/>
       </defs>
       <use xlink:href="#DejaVuSerif-35" transform="translate(0 0.09375)"/>
      </g>
     </g>
    </g>
    <g id="xtick_6">
     <g id="line2d_15">
      <g>
       <use xlink:href="#mc5acb621b7" x="223.066496" y="254.625354" style="stroke: #000000; stroke-width: 0.5"/>
      </g>
     </g>
     <g id="line2d_16">
      <g>
       <use xlink:href="#m659d840499" x="223.066496" y="2.834646" style="stroke: #000000; stroke-width: 0.5"/>
      </g>
     </g>
     <g id="text_6">
      <!-- $6$ -->
      <g transform="translate(219.866496 265.723792) scale(0.1 -0.1)">
       <defs>
        <path id="DejaVuSerif-36" d="M 2094 219 
Q 2534 219 2771 542 
Q 3009 866 3009 1472 
Q 3009 2078 2771 2401 
Q 2534 2725 2094 2725 
Q 1647 2725 1412 2412 
Q 1178 2100 1178 1509 
Q 1178 888 1415 553 
Q 1653 219 2094 219 
z
M 1075 2569 
Q 1288 2803 1556 2918 
Q 1825 3034 2163 3034 
Q 2859 3034 3264 2615 
Q 3669 2197 3669 1472 
Q 3669 763 3233 336 
Q 2797 -91 2069 -91 
Q 1278 -91 853 498 
Q 428 1088 428 2181 
Q 428 3406 931 4078 
Q 1434 4750 2350 4750 
Q 2597 4750 2869 4703 
Q 3141 4656 3425 4563 
L 3425 3794 
L 3072 3794 
Q 3034 4109 2831 4275 
Q 2628 4441 2284 4441 
Q 1678 4441 1381 3981 
Q 1084 3522 1075 2569 
z
" transform="scale(0.015625)"/>
       </defs>
       <use xlink:href="#DejaVuSerif-36" transform="translate(0 0.78125)"/>
      </g>
     </g>
    </g>
    <g id="xtick_7">
     <g id="line2d_17">
      <g>
       <use xlink:href="#mc5acb621b7" x="255.625558" y="254.625354" style="stroke: #000000; stroke-width: 0.5"/>
      </g>
     </g>
     <g id="line2d_18">
      <g>
       <use xlink:href="#m659d840499" x="255.625558" y="2.834646" style="stroke: #000000; stroke-width: 0.5"/>
      </g>
     </g>
     <g id="text_7">
      <!-- $7$ -->
      <g transform="translate(252.425558 265.723792) scale(0.1 -0.1)">
       <defs>
        <path id="DejaVuSerif-37" d="M 3609 4347 
L 1784 0 
L 1319 0 
L 3059 4153 
L 903 4153 
L 903 3578 
L 538 3578 
L 538 4666 
L 3609 4666 
L 3609 4347 
z
" transform="scale(0.015625)"/>
       </defs>
       <use xlink:href="#DejaVuSerif-37" transform="translate(0 0.09375)"/>
      </g>
     </g>
    </g>
    <g id="xtick_8">
     <g id="line2d_19">
      <g>
       <use xlink:href="#mc5acb621b7" x="288.184619" y="254.625354" style="stroke: #000000; stroke-width: 0.5"/>
      </g>
     </g>
     <g id="line2d_20">
      <g>
       <use xlink:href="#m659d840499" x="288.184619" y="2.834646" style="stroke: #000000; stroke-width: 0.5"/>
      </g>
     </g>
     <g id="text_8">
      <!-- $8$ -->
      <g transform="translate(284.984619 265.723792) scale(0.1 -0.1)">
       <defs>
        <path id="DejaVuSerif-38" d="M 2981 1275 
Q 2981 1775 2732 2051 
Q 2484 2328 2034 2328 
Q 1584 2328 1336 2051 
Q 1088 1775 1088 1275 
Q 1088 772 1336 495 
Q 1584 219 2034 219 
Q 2484 219 2732 495 
Q 2981 772 2981 1275 
z
M 2853 3541 
Q 2853 3966 2637 4203 
Q 2422 4441 2034 4441 
Q 1650 4441 1433 4203 
Q 1216 3966 1216 3541 
Q 1216 3113 1433 2875 
Q 1650 2638 2034 2638 
Q 2422 2638 2637 2875 
Q 2853 3113 2853 3541 
z
M 2516 2484 
Q 3047 2413 3344 2092 
Q 3641 1772 3641 1275 
Q 3641 619 3225 264 
Q 2809 -91 2034 -91 
Q 1263 -91 845 264 
Q 428 619 428 1275 
Q 428 1772 725 2092 
Q 1022 2413 1556 2484 
Q 1084 2569 832 2842 
Q 581 3116 581 3541 
Q 581 4103 968 4426 
Q 1356 4750 2034 4750 
Q 2713 4750 3100 4426 
Q 3488 4103 3488 3541 
Q 3488 3116 3236 2842 
Q 2984 2569 2516 2484 
z
" transform="scale(0.015625)"/>
       </defs>
       <use xlink:href="#DejaVuSerif-38" transform="translate(0 0.78125)"/>
      </g>
     </g>
    </g>
    <g id="xtick_9">
     <g id="line2d_21">
      <g>
       <use xlink:href="#mc5acb621b7" x="320.74368" y="254.625354" style="stroke: #000000; stroke-width: 0.5"/>
      </g>
     </g>
     <g id="line2d_22">
      <g>
       <use xlink:href="#m659d840499" x="320.74368" y="2.834646" style="stroke: #000000; stroke-width: 0.5"/>
      </g>
     </g>
     <g id="text_9">
      <!-- $9$ -->
      <g transform="translate(317.54368 265.723792) scale(0.1 -0.1)">
       <defs>
        <path id="DejaVuSerif-39" d="M 2994 2091 
Q 2784 1856 2512 1740 
Q 2241 1625 1900 1625 
Q 1206 1625 804 2044 
Q 403 2463 403 3188 
Q 403 3897 839 4323 
Q 1275 4750 2003 4750 
Q 2794 4750 3217 4161 
Q 3641 3572 3641 2478 
Q 3641 1253 3137 581 
Q 2634 -91 1722 -91 
Q 1475 -91 1203 -44 
Q 931 3 647 97 
L 647 872 
L 997 872 
Q 1038 556 1241 387 
Q 1444 219 1784 219 
Q 2391 219 2687 676 
Q 2984 1134 2994 2091 
z
M 1978 4441 
Q 1534 4441 1298 4117 
Q 1063 3794 1063 3188 
Q 1063 2581 1298 2256 
Q 1534 1931 1978 1931 
Q 2422 1931 2658 2245 
Q 2894 2559 2894 3150 
Q 2894 3772 2656 4106 
Q 2419 4441 1978 4441 
z
" transform="scale(0.015625)"/>
       </defs>
       <use xlink:href="#DejaVuSerif-39" transform="translate(0 0.78125)"/>
      </g>
     </g>
    </g>
    <g id="xtick_10">
     <g id="line2d_23">
      <g>
       <use xlink:href="#mc5acb621b7" x="353.302742" y="254.625354" style="stroke: #000000; stroke-width: 0.5"/>
      </g>
     </g>
     <g id="line2d_24">
      <g>
       <use xlink:href="#m659d840499" x="353.302742" y="2.834646" style="stroke: #000000; stroke-width: 0.5"/>
      </g>
     </g>
     <g id="text_10">
      <!-- $10$ -->
      <g transform="translate(346.902742 265.723792) scale(0.1 -0.1)">
       <defs>
        <path id="DejaVuSerif-30" d="M 2034 219 
Q 2513 219 2750 744 
Q 2988 1269 2988 2328 
Q 2988 3391 2750 3916 
Q 2513 4441 2034 4441 
Q 1556 4441 1318 3916 
Q 1081 3391 1081 2328 
Q 1081 1269 1318 744 
Q 1556 219 2034 219 
z
M 2034 -91 
Q 1275 -91 848 546 
Q 422 1184 422 2328 
Q 422 3475 848 4112 
Q 1275 4750 2034 4750 
Q 2797 4750 3222 4112 
Q 3647 3475 3647 2328 
Q 3647 1184 3222 546 
Q 2797 -91 2034 -91 
z
" transform="scale(0.015625)"/>
       </defs>
       <use xlink:href="#DejaVuSerif-31" transform="translate(0 0.78125)"/>
       <use xlink:href="#DejaVuSerif-30" transform="translate(63.623047 0.78125)"/>
      </g>
     </g>
    </g>
    <g id="xtick_11">
     <g id="line2d_25">
      <g>
       <use xlink:href="#mc5acb621b7" x="385.861803" y="254.625354" style="stroke: #000000; stroke-width: 0.5"/>
      </g>
     </g>
     <g id="line2d_26">
      <g>
       <use xlink:href="#m659d840499" x="385.861803" y="2.834646" style="stroke: #000000; stroke-width: 0.5"/>
      </g>
     </g>
     <g id="text_11">
      <!-- $11$ -->
      <g transform="translate(379.461803 265.723792) scale(0.1 -0.1)">
       <use xlink:href="#DejaVuSerif-31" transform="translate(0 0.78125)"/>
       <use xlink:href="#DejaVuSerif-31" transform="translate(63.623047 0.78125)"/>
      </g>
     </g>
    </g>
    <g id="xtick_12">
     <g id="line2d_27">
      <g>
       <use xlink:href="#mc5acb621b7" x="418.420864" y="254.625354" style="stroke: #000000; stroke-width: 0.5"/>
      </g>
     </g>
     <g id="line2d_28">
      <g>
       <use xlink:href="#m659d840499" x="418.420864" y="2.834646" style="stroke: #000000; stroke-width: 0.5"/>
      </g>
     </g>
     <g id="text_12">
      <!-- $12$ -->
      <g transform="translate(412.020864 265.723792) scale(0.1 -0.1)">
       <use xlink:href="#DejaVuSerif-31" transform="translate(0 0.78125)"/>
       <use xlink:href="#DejaVuSerif-32" transform="translate(63.623047 0.78125)"/>
      </g>
     </g>
    </g>
    <g id="text_13">
     <!-- $n_H$ -->
     <g transform="translate(231.606027 280.921604) scale(0.12 -0.12)">
      <defs>
       <path id="DejaVuSerif-Italic-6e" d="M 450 0 
L 1031 2988 
L 481 2988 
L 544 3322 
L 1669 3322 
L 1556 2731 
Q 1781 3069 2068 3241 
Q 2356 3413 2694 3413 
Q 3244 3413 3444 3097 
Q 3563 2906 3563 2588 
Q 3563 2378 3509 2113 
L 3163 331 
L 3675 331 
L 3613 0 
L 2522 0 
L 2897 1931 
Q 2959 2253 2959 2469 
Q 2959 2659 2909 2769 
Q 2803 2994 2425 2994 
Q 2025 2994 1759 2701 
Q 1494 2409 1384 1850 
L 1025 0 
L 450 0 
z
" transform="scale(0.015625)"/>
       <path id="DejaVuSerif-Italic-48" d="M -97 0 
L -34 331 
L 559 331 
L 1338 4331 
L 744 4331 
L 809 4666 
L 2631 4666 
L 2566 4331 
L 1972 4331 
L 1659 2719 
L 4078 2719 
L 4391 4331 
L 3797 4331 
L 3863 4666 
L 5684 4666 
L 5619 4331 
L 5025 4331 
L 4247 331 
L 4841 331 
L 4778 0 
L 2956 0 
L 3019 331 
L 3616 331 
L 4003 2338 
L 1584 2338 
L 1194 331 
L 1788 331 
L 1725 0 
L -97 0 
z
" transform="scale(0.015625)"/>
      </defs>
      <use xlink:href="#DejaVuSerif-Italic-6e" transform="translate(0 0.671875)"/>
      <use xlink:href="#DejaVuSerif-Italic-48" transform="translate(64.404297 -14.9) scale(0.7)"/>
     </g>
    </g>
   </g>
   <g id="matplotlib.axis_2">
    <g id="ytick_1">
     <g id="line2d_29">
      <defs>
       <path id="m5ffa37f461" d="M 0 0 
L 2.5 0 
" style="stroke: #000000; stroke-width: 0.5"/>
      </defs>
      <g>
       <use xlink:href="#m5ffa37f461" x="49.5267" y="86.474015" style="stroke: #000000; stroke-width: 0.5"/>
      </g>
     </g>
     <g id="line2d_30">
      <defs>
       <path id="m7fffc5f0c9" d="M 0 0 
L -2.5 0 
" style="stroke: #000000; stroke-width: 0.5"/>
      </defs>
      <g>
       <use xlink:href="#m7fffc5f0c9" x="429.165354" y="86.474015" style="stroke: #000000; stroke-width: 0.5"/>
      </g>
     </g>
     <g id="text_14">
      <!-- $10^{-2}$ -->
      <g transform="translate(22.6267 90.273234) scale(0.1 -0.1)">
       <defs>
        <path id="DejaVuSerif-2212" d="M 678 2259 
L 4684 2259 
L 4684 1753 
L 678 1753 
L 678 2259 
z
" transform="scale(0.015625)"/>
       </defs>
       <use xlink:href="#DejaVuSerif-31" transform="translate(0 0.7125)"/>
       <use xlink:href="#DejaVuSerif-30" transform="translate(63.623047 0.7125)"/>
       <use xlink:href="#DejaVuSerif-2212" transform="translate(128.154453 37.046875) scale(0.7)"/>
       <use xlink:href="#DejaVuSerif-32" transform="translate(186.806797 37.046875) scale(0.7)"/>
      </g>
     </g>
    </g>
    <g id="ytick_2">
     <g id="line2d_31">
      <g>
       <use xlink:href="#m5ffa37f461" x="49.5267" y="182.915102" style="stroke: #000000; stroke-width: 0.5"/>
      </g>
     </g>
     <g id="line2d_32">
      <g>
       <use xlink:href="#m7fffc5f0c9" x="429.165354" y="182.915102" style="stroke: #000000; stroke-width: 0.5"/>
      </g>
     </g>
     <g id="text_15">
      <!-- $10^{-3}$ -->
      <g transform="translate(22.6267 186.714321) scale(0.1 -0.1)">
       <use xlink:href="#DejaVuSerif-31" transform="translate(0 0.7125)"/>
       <use xlink:href="#DejaVuSerif-30" transform="translate(63.623047 0.7125)"/>
       <use xlink:href="#DejaVuSerif-2212" transform="translate(128.154453 37.046875) scale(0.7)"/>
       <use xlink:href="#DejaVuSerif-33" transform="translate(186.806797 37.046875) scale(0.7)"/>
      </g>
     </g>
    </g>
    <g id="text_16">
     <!-- $D_{\text{KL}}(\text{DOS} || \text{MP})$ -->
     <g transform="translate(15.7467 172.41) rotate(-90) scale(0.12 -0.12)">
      <defs>
       <path id="DejaVuSerif-Italic-44" d="M 1194 331 
L 1775 331 
Q 2684 331 3271 850 
Q 3859 1369 4048 2337 
Q 4238 3306 3852 3818 
Q 3466 4331 2553 4331 
L 1972 4331 
L 1194 331 
z
M -97 0 
L -34 331 
L 559 331 
L 1338 4331 
L 744 4331 
L 809 4666 
L 2666 4666 
Q 3872 4666 4426 4050 
Q 4981 3434 4766 2338 
Q 4553 1238 3758 619 
Q 2963 0 1759 0 
L -97 0 
z
" transform="scale(0.015625)"/>
       <path id="DejaVuSerif-4b" d="M 353 0 
L 353 331 
L 947 331 
L 947 4331 
L 353 4331 
L 353 4666 
L 2175 4666 
L 2175 4331 
L 1581 4331 
L 1581 2566 
L 3591 4331 
L 3084 4331 
L 3084 4666 
L 4634 4666 
L 4634 4331 
L 4109 4331 
L 2106 2572 
L 4347 331 
L 4878 331 
L 4878 0 
L 3794 0 
L 1581 2216 
L 1581 331 
L 2175 331 
L 2175 0 
L 353 0 
z
" transform="scale(0.015625)"/>
       <path id="DejaVuSerif-4c" d="M 353 0 
L 353 331 
L 947 331 
L 947 4331 
L 353 4331 
L 353 4666 
L 2175 4666 
L 2175 4331 
L 1581 4331 
L 1581 384 
L 3713 384 
L 3713 1166 
L 4097 1166 
L 4097 0 
L 353 0 
z
" transform="scale(0.015625)"/>
       <path id="DejaVuSerif-28" d="M 2041 -997 
Q 1281 -656 893 83 
Q 506 822 506 1931 
Q 506 3044 893 3783 
Q 1281 4522 2041 4863 
L 2041 4556 
Q 1559 4225 1350 3623 
Q 1141 3022 1141 1931 
Q 1141 844 1350 242 
Q 1559 -359 2041 -691 
L 2041 -997 
z
" transform="scale(0.015625)"/>
       <path id="DejaVuSerif-44" d="M 1581 331 
L 2163 331 
Q 3072 331 3558 850 
Q 4044 1369 4044 2338 
Q 4044 3306 3559 3818 
Q 3075 4331 2163 4331 
L 1581 4331 
L 1581 331 
z
M 353 0 
L 353 331 
L 947 331 
L 947 4331 
L 353 4331 
L 353 4666 
L 2209 4666 
Q 3416 4666 4089 4050 
Q 4763 3434 4763 2338 
Q 4763 1238 4088 619 
Q 3413 0 2209 0 
L 353 0 
z
" transform="scale(0.015625)"/>
       <path id="DejaVuSerif-4f" d="M 2625 244 
Q 3391 244 3781 770 
Q 4172 1297 4172 2328 
Q 4172 3363 3781 3889 
Q 3391 4416 2625 4416 
Q 1856 4416 1465 3889 
Q 1075 3363 1075 2328 
Q 1075 1297 1465 770 
Q 1856 244 2625 244 
z
M 2625 -91 
Q 2150 -91 1751 65 
Q 1353 222 1050 525 
Q 700 875 529 1319 
Q 359 1763 359 2328 
Q 359 2894 529 3339 
Q 700 3784 1050 4134 
Q 1356 4441 1750 4595 
Q 2144 4750 2625 4750 
Q 3641 4750 4266 4084 
Q 4891 3419 4891 2328 
Q 4891 1769 4719 1320 
Q 4547 872 4197 525 
Q 3891 219 3497 64 
Q 3103 -91 2625 -91 
z
" transform="scale(0.015625)"/>
       <path id="DejaVuSerif-53" d="M 594 225 
L 594 1288 
L 953 1284 
Q 969 753 1261 498 
Q 1553 244 2150 244 
Q 2706 244 2998 464 
Q 3291 684 3291 1106 
Q 3291 1444 3114 1625 
Q 2938 1806 2369 1978 
L 1753 2163 
Q 1084 2366 811 2669 
Q 538 2972 538 3500 
Q 538 4094 959 4422 
Q 1381 4750 2144 4750 
Q 2469 4750 2856 4679 
Q 3244 4609 3681 4475 
L 3681 3481 
L 3328 3481 
Q 3275 3975 2998 4195 
Q 2722 4416 2156 4416 
Q 1663 4416 1405 4214 
Q 1147 4013 1147 3628 
Q 1147 3294 1340 3103 
Q 1534 2913 2163 2725 
L 2741 2553 
Q 3375 2363 3645 2067 
Q 3916 1772 3916 1275 
Q 3916 597 3481 253 
Q 3047 -91 2188 -91 
Q 1803 -91 1404 -12 
Q 1006 66 594 225 
z
" transform="scale(0.015625)"/>
       <path id="DejaVuSerif-7c" d="M 1331 4891 
L 1331 -1509 
L 825 -1509 
L 825 4891 
L 1331 4891 
z
" transform="scale(0.015625)"/>
       <path id="DejaVuSerif-4d" d="M 353 0 
L 353 331 
L 947 331 
L 947 4331 
L 319 4331 
L 319 4666 
L 1678 4666 
L 3316 1344 
L 4953 4666 
L 6228 4666 
L 6228 4331 
L 5606 4331 
L 5606 331 
L 6203 331 
L 6203 0 
L 4378 0 
L 4378 331 
L 4972 331 
L 4972 3938 
L 3372 684 
L 2931 684 
L 1331 3938 
L 1331 331 
L 1925 331 
L 1925 0 
L 353 0 
z
" transform="scale(0.015625)"/>
       <path id="DejaVuSerif-50" d="M 1581 2375 
L 2406 2375 
Q 2872 2375 3115 2626 
Q 3359 2878 3359 3353 
Q 3359 3831 3115 4081 
Q 2872 4331 2406 4331 
L 1581 4331 
L 1581 2375 
z
M 353 0 
L 353 331 
L 947 331 
L 947 4331 
L 353 4331 
L 353 4666 
L 2559 4666 
Q 3259 4666 3668 4311 
Q 4078 3956 4078 3353 
Q 4078 2753 3668 2397 
Q 3259 2041 2559 2041 
L 1581 2041 
L 1581 331 
L 2303 331 
L 2303 0 
L 353 0 
z
" transform="scale(0.015625)"/>
       <path id="DejaVuSerif-29" d="M 453 -997 
L 453 -691 
Q 934 -359 1145 242 
Q 1356 844 1356 1931 
Q 1356 3022 1145 3623 
Q 934 4225 453 4556 
L 453 4863 
Q 1216 4522 1603 3783 
Q 1991 3044 1991 1931 
Q 1991 822 1603 83 
Q 1216 -656 453 -997 
z
" transform="scale(0.015625)"/>
      </defs>
      <use xlink:href="#DejaVuSerif-Italic-44" transform="translate(0 0.578125)"/>
      <use xlink:href="#DejaVuSerif-4b" transform="translate(80.175781 -14.99375) scale(0.7)"/>
      <use xlink:href="#DejaVuSerif-4c" transform="translate(132.470703 -14.99375) scale(0.7)"/>
      <use xlink:href="#DejaVuSerif-28" transform="translate(181.550391 0.578125)"/>
      <use xlink:href="#DejaVuSerif-44" transform="translate(220.564063 0.578125)"/>
      <use xlink:href="#DejaVuSerif-4f" transform="translate(300.739844 0.578125)"/>
      <use xlink:href="#DejaVuSerif-53" transform="translate(382.722266 0.578125)"/>
      <use xlink:href="#DejaVuSerif-7c" transform="translate(451.228125 0.578125)"/>
      <use xlink:href="#DejaVuSerif-7c" transform="translate(484.919531 0.578125)"/>
      <use xlink:href="#DejaVuSerif-4d" transform="translate(518.610937 0.578125)"/>
      <use xlink:href="#DejaVuSerif-50" transform="translate(621.003516 0.578125)"/>
      <use xlink:href="#DejaVuSerif-29" transform="translate(688.288672 0.578125)"/>
     </g>
    </g>
   </g>
   <g id="line2d_33">
    <path d="M 60.27119 27.623021 
L 61.257828 29.843993 
L 62.244466 32.064964 
L 63.231104 34.285936 
L 64.217743 36.506908 
L 65.204381 38.727879 
L 66.191019 40.948851 
L 67.177657 43.169822 
L 68.164296 45.390794 
L 69.150934 47.611765 
L 70.137572 49.832737 
L 71.12421 52.053708 
L 72.110848 54.27468 
L 73.097487 56.495651 
L 74.084125 58.716623 
L 75.070763 60.937594 
L 76.057401 63.158566 
L 77.04404 65.379537 
L 78.030678 67.600509 
L 79.017316 69.82148 
L 80.003954 72.042452 
L 80.990592 74.263423 
L 81.977231 76.484395 
L 82.963869 78.705366 
L 83.950507 80.926338 
L 84.937145 83.147309 
L 85.923784 85.368281 
L 86.910422 87.589253 
L 87.89706 89.810224 
L 88.883698 92.031196 
L 89.870336 94.252167 
L 90.856975 96.473139 
L 91.843613 98.69411 
L 92.830251 100.915082 
L 93.816889 103.136053 
L 94.803528 105.357025 
L 95.790166 107.577996 
L 96.776804 109.798968 
L 97.763442 112.019939 
L 98.75008 114.240911 
L 99.736719 116.461882 
L 100.723357 118.682854 
L 101.709995 120.903825 
L 102.696633 123.124797 
L 103.683272 125.345768 
L 104.66991 127.56674 
L 105.656548 129.787711 
L 106.643186 132.008683 
L 107.629824 134.229655 
L 108.616463 136.450626 
L 109.603101 138.671598 
L 110.589739 140.892569 
L 111.576377 143.113541 
L 112.563016 145.334512 
L 113.549654 147.555484 
L 114.536292 149.776455 
L 115.52293 151.997427 
L 116.509568 154.218398 
L 117.496207 156.43937 
L 118.482845 158.660341 
L 119.469483 160.881313 
L 120.456121 163.102284 
L 121.44276 165.323256 
L 122.429398 167.544227 
L 123.416036 169.765199 
L 124.402674 171.98617 
L 125.389312 174.207142 
L 126.375951 176.428113 
L 127.362589 178.649085 
L 128.349227 180.870057 
L 129.335865 183.091028 
L 130.322504 185.312 
L 131.309142 187.532971 
L 132.29578 189.753943 
L 133.282418 191.974914 
L 134.269056 194.195886 
L 135.255695 196.416857 
L 136.242333 198.637829 
L 137.228971 200.8588 
L 138.215609 203.079772 
L 139.202248 205.300743 
L 140.188886 207.521715 
L 141.175524 209.742686 
L 142.162162 211.963658 
L 143.1488 214.184629 
L 144.135439 216.405601 
L 145.122077 218.626572 
L 146.108715 220.847544 
L 147.095353 223.068515 
L 148.081991 225.289487 
L 149.06863 227.510458 
L 150.055268 229.73143 
L 151.041906 231.952402 
L 152.028544 234.173373 
L 153.015183 236.394345 
L 154.001821 238.615316 
L 154.988459 240.836288 
L 155.975097 243.057259 
L 156.961735 245.278231 
L 157.948374 247.499202 
" clip-path="url(#p4f4a573400)" style="fill: none; stroke-dasharray: 3.7,1.6; stroke-dashoffset: 0; stroke: #8c8c8c"/>
   </g>
   <g id="patch_3">
    <path d="M 49.5267 254.625354 
L 49.5267 2.834646 
" style="fill: none; stroke: #000000; stroke-linejoin: miter; stroke-linecap: square"/>
   </g>
   <g id="patch_4">
    <path d="M 429.165354 254.625354 
L 429.165354 2.834646 
" style="fill: none; stroke: #000000; stroke-linejoin: miter; stroke-linecap: square"/>
   </g>
   <g id="patch_5">
    <path d="M 49.5267 254.625354 
L 429.165354 254.625354 
" style="fill: none; stroke: #000000; stroke-linejoin: miter; stroke-linecap: square"/>
   </g>
   <g id="patch_6">
    <path d="M 49.5267 2.834646 
L 429.165354 2.834646 
" style="fill: none; stroke: #000000; stroke-linejoin: miter; stroke-linecap: square"/>
   </g>
   <g id="line2d_34">
    <path d="M 60.27119 10.074083 
L 92.830251 79.384002 
L 125.389312 88.790312 
L 157.948374 89.871612 
L 190.507435 88.19251 
L 223.066496 83.724923 
" clip-path="url(#p4f4a573400)" style="fill: none; stroke: #4c72b0; stroke-width: 2"/>
   </g>
   <g id="line2d_35">
    <path d="M 60.27119 10.187676 
L 60.27119 9.960798 
" clip-path="url(#p4f4a573400)" style="fill: none; stroke: #000000; stroke-width: 2"/>
   </g>
   <g id="line2d_36">
    <path d="M 92.830251 79.578453 
L 92.830251 79.190449 
" clip-path="url(#p4f4a573400)" style="fill: none; stroke: #000000; stroke-width: 2"/>
   </g>
   <g id="line2d_37">
    <path d="M 125.389312 89.144323 
L 125.389312 88.439269 
" clip-path="url(#p4f4a573400)" style="fill: none; stroke: #000000; stroke-width: 2"/>
   </g>
   <g id="line2d_38">
    <path d="M 157.948374 90.183584 
L 157.948374 89.561946 
" clip-path="url(#p4f4a573400)" style="fill: none; stroke: #000000; stroke-width: 2"/>
   </g>
   <g id="line2d_39">
    <path d="M 190.507435 88.688008 
L 190.507435 87.702806 
" clip-path="url(#p4f4a573400)" style="fill: none; stroke: #000000; stroke-width: 2"/>
   </g>
   <g id="line2d_40">
    <path d="M 223.066496 84.007157 
L 223.066496 83.444578 
" clip-path="url(#p4f4a573400)" style="fill: none; stroke: #000000; stroke-width: 2"/>
   </g>
   <g id="PathCollection_1">
    <defs>
     <path id="m7390fffce4" d="M -0.765367 -1.847759 
L -1.847759 -0.765367 
L -1.847759 0.765367 
L -0.765367 1.847759 
L 0.765367 1.847759 
L 1.847759 0.765367 
L 1.847759 -0.765367 
L 0.765367 -1.847759 
z
" style="stroke: #000000"/>
    </defs>
    <g clip-path="url(#p4f4a573400)">
     <use xlink:href="#m7390fffce4" x="60.27119" y="10.074083" style="fill: #4c72b0; stroke: #000000"/>
     <use xlink:href="#m7390fffce4" x="92.830251" y="79.384002" style="fill: #4c72b0; stroke: #000000"/>
     <use xlink:href="#m7390fffce4" x="125.389312" y="88.790312" style="fill: #4c72b0; stroke: #000000"/>
     <use xlink:href="#m7390fffce4" x="157.948374" y="89.871612" style="fill: #4c72b0; stroke: #000000"/>
     <use xlink:href="#m7390fffce4" x="190.507435" y="88.19251" style="fill: #4c72b0; stroke: #000000"/>
     <use xlink:href="#m7390fffce4" x="223.066496" y="83.724923" style="fill: #4c72b0; stroke: #000000"/>
    </g>
   </g>
   <g id="PathCollection_2">
    <defs>
     <path id="m36cebadf44" d="M 2 0 
L -2 -0 
" style="stroke: #000000"/>
    </defs>
    <g clip-path="url(#p4f4a573400)">
     <use xlink:href="#m36cebadf44" x="60.27119" y="10.187676" style="stroke: #000000"/>
     <use xlink:href="#m36cebadf44" x="60.27119" y="9.960798" style="stroke: #000000"/>
    </g>
   </g>
   <g id="PathCollection_3">
    <g clip-path="url(#p4f4a573400)">
     <use xlink:href="#m36cebadf44" x="92.830251" y="79.578453" style="stroke: #000000"/>
     <use xlink:href="#m36cebadf44" x="92.830251" y="79.190449" style="stroke: #000000"/>
    </g>
   </g>
   <g id="PathCollection_4">
    <g clip-path="url(#p4f4a573400)">
     <use xlink:href="#m36cebadf44" x="125.389312" y="89.144323" style="stroke: #000000"/>
     <use xlink:href="#m36cebadf44" x="125.389312" y="88.439269" style="stroke: #000000"/>
    </g>
   </g>
   <g id="PathCollection_5">
    <g clip-path="url(#p4f4a573400)">
     <use xlink:href="#m36cebadf44" x="157.948374" y="90.183584" style="stroke: #000000"/>
     <use xlink:href="#m36cebadf44" x="157.948374" y="89.561946" style="stroke: #000000"/>
    </g>
   </g>
   <g id="PathCollection_6">
    <g clip-path="url(#p4f4a573400)">
     <use xlink:href="#m36cebadf44" x="190.507435" y="88.688008" style="stroke: #000000"/>
     <use xlink:href="#m36cebadf44" x="190.507435" y="87.702806" style="stroke: #000000"/>
    </g>
   </g>
   <g id="PathCollection_7">
    <g clip-path="url(#p4f4a573400)">
     <use xlink:href="#m36cebadf44" x="223.066496" y="84.007157" style="stroke: #000000"/>
     <use xlink:href="#m36cebadf44" x="223.066496" y="83.444578" style="stroke: #000000"/>
    </g>
   </g>
   <g id="line2d_41">
    <path d="M 60.27119 22.57629 
L 92.830251 97.985494 
L 125.389312 121.151387 
L 157.948374 127.613587 
L 190.507435 129.70423 
L 223.066496 129.50861 
L 255.625558 127.064924 
L 288.184619 121.238692 
" clip-path="url(#p4f4a573400)" style="fill: none; stroke: #dd8452; stroke-width: 2"/>
   </g>
   <g id="line2d_42">
    <path d="M 60.27119 22.761326 
L 60.27119 22.392068 
" clip-path="url(#p4f4a573400)" style="fill: none; stroke: #000000; stroke-width: 2"/>
   </g>
   <g id="line2d_43">
    <path d="M 92.830251 98.172244 
L 92.830251 97.799574 
" clip-path="url(#p4f4a573400)" style="fill: none; stroke: #000000; stroke-width: 2"/>
   </g>
   <g id="line2d_44">
    <path d="M 125.389312 121.556852 
L 125.389312 120.74981 
" clip-path="url(#p4f4a573400)" style="fill: none; stroke: #000000; stroke-width: 2"/>
   </g>
   <g id="line2d_45">
    <path d="M 157.948374 128.084496 
L 157.948374 127.147914 
" clip-path="url(#p4f4a573400)" style="fill: none; stroke: #000000; stroke-width: 2"/>
   </g>
   <g id="line2d_46">
    <path d="M 190.507435 130.206849 
L 190.507435 129.207571 
" clip-path="url(#p4f4a573400)" style="fill: none; stroke: #000000; stroke-width: 2"/>
   </g>
   <g id="line2d_47">
    <path d="M 223.066496 130.137209 
L 223.066496 128.889307 
" clip-path="url(#p4f4a573400)" style="fill: none; stroke: #000000; stroke-width: 2"/>
   </g>
   <g id="line2d_48">
    <path d="M 255.625558 127.515063 
L 255.625558 126.619572 
" clip-path="url(#p4f4a573400)" style="fill: none; stroke: #000000; stroke-width: 2"/>
   </g>
   <g id="line2d_49">
    <path d="M 288.184619 121.667548 
L 288.184619 120.814183 
" clip-path="url(#p4f4a573400)" style="fill: none; stroke: #000000; stroke-width: 2"/>
   </g>
   <g id="PathCollection_8">
    <defs>
     <path id="m398575b780" d="M -0.765367 -1.847759 
L -1.847759 -0.765367 
L -1.847759 0.765367 
L -0.765367 1.847759 
L 0.765367 1.847759 
L 1.847759 0.765367 
L 1.847759 -0.765367 
L 0.765367 -1.847759 
z
" style="stroke: #000000"/>
    </defs>
    <g clip-path="url(#p4f4a573400)">
     <use xlink:href="#m398575b780" x="60.27119" y="22.57629" style="fill: #dd8452; stroke: #000000"/>
     <use xlink:href="#m398575b780" x="92.830251" y="97.985494" style="fill: #dd8452; stroke: #000000"/>
     <use xlink:href="#m398575b780" x="125.389312" y="121.151387" style="fill: #dd8452; stroke: #000000"/>
     <use xlink:href="#m398575b780" x="157.948374" y="127.613587" style="fill: #dd8452; stroke: #000000"/>
     <use xlink:href="#m398575b780" x="190.507435" y="129.70423" style="fill: #dd8452; stroke: #000000"/>
     <use xlink:href="#m398575b780" x="223.066496" y="129.50861" style="fill: #dd8452; stroke: #000000"/>
     <use xlink:href="#m398575b780" x="255.625558" y="127.064924" style="fill: #dd8452; stroke: #000000"/>
     <use xlink:href="#m398575b780" x="288.184619" y="121.238692" style="fill: #dd8452; stroke: #000000"/>
    </g>
   </g>
   <g id="PathCollection_9">
    <g clip-path="url(#p4f4a573400)">
     <use xlink:href="#m36cebadf44" x="60.27119" y="22.761326" style="stroke: #000000"/>
     <use xlink:href="#m36cebadf44" x="60.27119" y="22.392068" style="stroke: #000000"/>
    </g>
   </g>
   <g id="PathCollection_10">
    <g clip-path="url(#p4f4a573400)">
     <use xlink:href="#m36cebadf44" x="92.830251" y="98.172244" style="stroke: #000000"/>
     <use xlink:href="#m36cebadf44" x="92.830251" y="97.799574" style="stroke: #000000"/>
    </g>
   </g>
   <g id="PathCollection_11">
    <g clip-path="url(#p4f4a573400)">
     <use xlink:href="#m36cebadf44" x="125.389312" y="121.556852" style="stroke: #000000"/>
     <use xlink:href="#m36cebadf44" x="125.389312" y="120.74981" style="stroke: #000000"/>
    </g>
   </g>
   <g id="PathCollection_12">
    <g clip-path="url(#p4f4a573400)">
     <use xlink:href="#m36cebadf44" x="157.948374" y="128.084496" style="stroke: #000000"/>
     <use xlink:href="#m36cebadf44" x="157.948374" y="127.147914" style="stroke: #000000"/>
    </g>
   </g>
   <g id="PathCollection_13">
    <g clip-path="url(#p4f4a573400)">
     <use xlink:href="#m36cebadf44" x="190.507435" y="130.206849" style="stroke: #000000"/>
     <use xlink:href="#m36cebadf44" x="190.507435" y="129.207571" style="stroke: #000000"/>
    </g>
   </g>
   <g id="PathCollection_14">
    <g clip-path="url(#p4f4a573400)">
     <use xlink:href="#m36cebadf44" x="223.066496" y="130.137209" style="stroke: #000000"/>
     <use xlink:href="#m36cebadf44" x="223.066496" y="128.889307" style="stroke: #000000"/>
    </g>
   </g>
   <g id="PathCollection_15">
    <g clip-path="url(#p4f4a573400)">
     <use xlink:href="#m36cebadf44" x="255.625558" y="127.515063" style="stroke: #000000"/>
     <use xlink:href="#m36cebadf44" x="255.625558" y="126.619572" style="stroke: #000000"/>
    </g>
   </g>
   <g id="PathCollection_16">
    <g clip-path="url(#p4f4a573400)">
     <use xlink:href="#m36cebadf44" x="288.184619" y="121.667548" style="stroke: #000000"/>
     <use xlink:href="#m36cebadf44" x="288.184619" y="120.814183" style="stroke: #000000"/>
    </g>
   </g>
   <g id="line2d_50">
    <path d="M 60.27119 25.407176 
L 92.830251 105.347033 
L 125.389312 152.819944 
L 157.948374 170.036696 
L 190.507435 172.060471 
L 223.066496 173.062066 
L 255.625558 171.171895 
L 288.184619 171.742626 
L 320.74368 169.596302 
L 353.302742 165.793387 
" clip-path="url(#p4f4a573400)" style="fill: none; stroke: #55a868; stroke-width: 2"/>
   </g>
   <g id="line2d_51">
    <path d="M 60.27119 25.53066 
L 60.27119 25.284055 
" clip-path="url(#p4f4a573400)" style="fill: none; stroke: #000000; stroke-width: 2"/>
   </g>
   <g id="line2d_52">
    <path d="M 92.830251 105.581658 
L 92.830251 105.113715 
" clip-path="url(#p4f4a573400)" style="fill: none; stroke: #000000; stroke-width: 2"/>
   </g>
   <g id="line2d_53">
    <path d="M 125.389312 153.278478 
L 125.389312 152.366376 
" clip-path="url(#p4f4a573400)" style="fill: none; stroke: #000000; stroke-width: 2"/>
   </g>
   <g id="line2d_54">
    <path d="M 157.948374 171.02274 
L 157.948374 169.073333 
" clip-path="url(#p4f4a573400)" style="fill: none; stroke: #000000; stroke-width: 2"/>
   </g>
   <g id="line2d_55">
    <path d="M 190.507435 173.027991 
L 190.507435 171.114798 
" clip-path="url(#p4f4a573400)" style="fill: none; stroke: #000000; stroke-width: 2"/>
   </g>
   <g id="line2d_56">
    <path d="M 223.066496 173.604346 
L 223.066496 172.526717 
" clip-path="url(#p4f4a573400)" style="fill: none; stroke: #000000; stroke-width: 2"/>
   </g>
   <g id="line2d_57">
    <path d="M 255.625558 172.283952 
L 255.625558 170.088603 
" clip-path="url(#p4f4a573400)" style="fill: none; stroke: #000000; stroke-width: 2"/>
   </g>
   <g id="line2d_58">
    <path d="M 288.184619 172.79185 
L 288.184619 170.719045 
" clip-path="url(#p4f4a573400)" style="fill: none; stroke: #000000; stroke-width: 2"/>
   </g>
   <g id="line2d_59">
    <path d="M 320.74368 170.252156 
L 320.74368 168.950559 
" clip-path="url(#p4f4a573400)" style="fill: none; stroke: #000000; stroke-width: 2"/>
   </g>
   <g id="line2d_60">
    <path d="M 353.302742 166.892773 
L 353.302742 164.722121 
" clip-path="url(#p4f4a573400)" style="fill: none; stroke: #000000; stroke-width: 2"/>
   </g>
   <g id="PathCollection_17">
    <defs>
     <path id="m6e4ca3813f" d="M -0.765367 -1.847759 
L -1.847759 -0.765367 
L -1.847759 0.765367 
L -0.765367 1.847759 
L 0.765367 1.847759 
L 1.847759 0.765367 
L 1.847759 -0.765367 
L 0.765367 -1.847759 
z
" style="stroke: #000000"/>
    </defs>
    <g clip-path="url(#p4f4a573400)">
     <use xlink:href="#m6e4ca3813f" x="60.27119" y="25.407176" style="fill: #55a868; stroke: #000000"/>
     <use xlink:href="#m6e4ca3813f" x="92.830251" y="105.347033" style="fill: #55a868; stroke: #000000"/>
     <use xlink:href="#m6e4ca3813f" x="125.389312" y="152.819944" style="fill: #55a868; stroke: #000000"/>
     <use xlink:href="#m6e4ca3813f" x="157.948374" y="170.036696" style="fill: #55a868; stroke: #000000"/>
     <use xlink:href="#m6e4ca3813f" x="190.507435" y="172.060471" style="fill: #55a868; stroke: #000000"/>
     <use xlink:href="#m6e4ca3813f" x="223.066496" y="173.062066" style="fill: #55a868; stroke: #000000"/>
     <use xlink:href="#m6e4ca3813f" x="255.625558" y="171.171895" style="fill: #55a868; stroke: #000000"/>
     <use xlink:href="#m6e4ca3813f" x="288.184619" y="171.742626" style="fill: #55a868; stroke: #000000"/>
     <use xlink:href="#m6e4ca3813f" x="320.74368" y="169.596302" style="fill: #55a868; stroke: #000000"/>
     <use xlink:href="#m6e4ca3813f" x="353.302742" y="165.793387" style="fill: #55a868; stroke: #000000"/>
    </g>
   </g>
   <g id="PathCollection_18">
    <g clip-path="url(#p4f4a573400)">
     <use xlink:href="#m36cebadf44" x="60.27119" y="25.53066" style="stroke: #000000"/>
     <use xlink:href="#m36cebadf44" x="60.27119" y="25.284055" style="stroke: #000000"/>
    </g>
   </g>
   <g id="PathCollection_19">
    <g clip-path="url(#p4f4a573400)">
     <use xlink:href="#m36cebadf44" x="92.830251" y="105.581658" style="stroke: #000000"/>
     <use xlink:href="#m36cebadf44" x="92.830251" y="105.113715" style="stroke: #000000"/>
    </g>
   </g>
   <g id="PathCollection_20">
    <g clip-path="url(#p4f4a573400)">
     <use xlink:href="#m36cebadf44" x="125.389312" y="153.278478" style="stroke: #000000"/>
     <use xlink:href="#m36cebadf44" x="125.389312" y="152.366376" style="stroke: #000000"/>
    </g>
   </g>
   <g id="PathCollection_21">
    <g clip-path="url(#p4f4a573400)">
     <use xlink:href="#m36cebadf44" x="157.948374" y="171.02274" style="stroke: #000000"/>
     <use xlink:href="#m36cebadf44" x="157.948374" y="169.073333" style="stroke: #000000"/>
    </g>
   </g>
   <g id="PathCollection_22">
    <g clip-path="url(#p4f4a573400)">
     <use xlink:href="#m36cebadf44" x="190.507435" y="173.027991" style="stroke: #000000"/>
     <use xlink:href="#m36cebadf44" x="190.507435" y="171.114798" style="stroke: #000000"/>
    </g>
   </g>
   <g id="PathCollection_23">
    <g clip-path="url(#p4f4a573400)">
     <use xlink:href="#m36cebadf44" x="223.066496" y="173.604346" style="stroke: #000000"/>
     <use xlink:href="#m36cebadf44" x="223.066496" y="172.526717" style="stroke: #000000"/>
    </g>
   </g>
   <g id="PathCollection_24">
    <g clip-path="url(#p4f4a573400)">
     <use xlink:href="#m36cebadf44" x="255.625558" y="172.283952" style="stroke: #000000"/>
     <use xlink:href="#m36cebadf44" x="255.625558" y="170.088603" style="stroke: #000000"/>
    </g>
   </g>
   <g id="PathCollection_25">
    <g clip-path="url(#p4f4a573400)">
     <use xlink:href="#m36cebadf44" x="288.184619" y="172.79185" style="stroke: #000000"/>
     <use xlink:href="#m36cebadf44" x="288.184619" y="170.719045" style="stroke: #000000"/>
    </g>
   </g>
   <g id="PathCollection_26">
    <g clip-path="url(#p4f4a573400)">
     <use xlink:href="#m36cebadf44" x="320.74368" y="170.252156" style="stroke: #000000"/>
     <use xlink:href="#m36cebadf44" x="320.74368" y="168.950559" style="stroke: #000000"/>
    </g>
   </g>
   <g id="PathCollection_27">
    <g clip-path="url(#p4f4a573400)">
     <use xlink:href="#m36cebadf44" x="353.302742" y="166.892773" style="stroke: #000000"/>
     <use xlink:href="#m36cebadf44" x="353.302742" y="164.722121" style="stroke: #000000"/>
    </g>
   </g>
   <g id="line2d_61">
    <path d="M 60.27119 25.518998 
L 92.830251 105.123128 
L 125.389312 172.103119 
L 157.948374 209.395294 
L 190.507435 216.597296 
L 223.066496 220.252611 
L 255.625558 223.34335 
L 288.184619 223.404847 
L 320.74368 220.975561 
L 353.302742 221.701472 
L 385.861803 219.62289 
L 418.420864 211.985165 
" clip-path="url(#p4f4a573400)" style="fill: none; stroke: #c44e52; stroke-width: 2"/>
   </g>
   <g id="line2d_62">
    <path d="M 60.27119 25.68018 
L 60.27119 25.358434 
" clip-path="url(#p4f4a573400)" style="fill: none; stroke: #000000; stroke-width: 2"/>
   </g>
   <g id="line2d_63">
    <path d="M 92.830251 105.315175 
L 92.830251 104.931958 
" clip-path="url(#p4f4a573400)" style="fill: none; stroke: #000000; stroke-width: 2"/>
   </g>
   <g id="line2d_64">
    <path d="M 125.389312 172.850441 
L 125.389312 171.368897 
" clip-path="url(#p4f4a573400)" style="fill: none; stroke: #000000; stroke-width: 2"/>
   </g>
   <g id="line2d_65">
    <path d="M 157.948374 211.448059 
L 157.948374 207.438454 
" clip-path="url(#p4f4a573400)" style="fill: none; stroke: #000000; stroke-width: 2"/>
   </g>
   <g id="line2d_66">
    <path d="M 190.507435 217.703814 
L 190.507435 215.519259 
" clip-path="url(#p4f4a573400)" style="fill: none; stroke: #000000; stroke-width: 2"/>
   </g>
   <g id="line2d_67">
    <path d="M 223.066496 221.386019 
L 223.066496 219.149067 
" clip-path="url(#p4f4a573400)" style="fill: none; stroke: #000000; stroke-width: 2"/>
   </g>
   <g id="line2d_68">
    <path d="M 255.625558 224.898461 
L 255.625558 221.843918 
" clip-path="url(#p4f4a573400)" style="fill: none; stroke: #000000; stroke-width: 2"/>
   </g>
   <g id="line2d_69">
    <path d="M 288.184619 224.835445 
L 288.184619 222.021503 
" clip-path="url(#p4f4a573400)" style="fill: none; stroke: #000000; stroke-width: 2"/>
   </g>
   <g id="line2d_70">
    <path d="M 320.74368 222.263485 
L 320.74368 219.726062 
" clip-path="url(#p4f4a573400)" style="fill: none; stroke: #000000; stroke-width: 2"/>
   </g>
   <g id="line2d_71">
    <path d="M 353.302742 222.734498 
L 353.302742 220.693314 
" clip-path="url(#p4f4a573400)" style="fill: none; stroke: #000000; stroke-width: 2"/>
   </g>
   <g id="line2d_72">
    <path d="M 385.861803 220.9154 
L 385.861803 218.369076 
" clip-path="url(#p4f4a573400)" style="fill: none; stroke: #000000; stroke-width: 2"/>
   </g>
   <g id="line2d_73">
    <path d="M 418.420864 214.508764 
L 418.420864 209.605017 
" clip-path="url(#p4f4a573400)" style="fill: none; stroke: #000000; stroke-width: 2"/>
   </g>
   <g id="PathCollection_28">
    <defs>
     <path id="mf1851e3c6a" d="M -0.765367 -1.847759 
L -1.847759 -0.765367 
L -1.847759 0.765367 
L -0.765367 1.847759 
L 0.765367 1.847759 
L 1.847759 0.765367 
L 1.847759 -0.765367 
L 0.765367 -1.847759 
z
" style="stroke: #000000"/>
    </defs>
    <g clip-path="url(#p4f4a573400)">
     <use xlink:href="#mf1851e3c6a" x="60.27119" y="25.518998" style="fill: #c44e52; stroke: #000000"/>
     <use xlink:href="#mf1851e3c6a" x="92.830251" y="105.123128" style="fill: #c44e52; stroke: #000000"/>
     <use xlink:href="#mf1851e3c6a" x="125.389312" y="172.103119" style="fill: #c44e52; stroke: #000000"/>
     <use xlink:href="#mf1851e3c6a" x="157.948374" y="209.395294" style="fill: #c44e52; stroke: #000000"/>
     <use xlink:href="#mf1851e3c6a" x="190.507435" y="216.597296" style="fill: #c44e52; stroke: #000000"/>
     <use xlink:href="#mf1851e3c6a" x="223.066496" y="220.252611" style="fill: #c44e52; stroke: #000000"/>
     <use xlink:href="#mf1851e3c6a" x="255.625558" y="223.34335" style="fill: #c44e52; stroke: #000000"/>
     <use xlink:href="#mf1851e3c6a" x="288.184619" y="223.404847" style="fill: #c44e52; stroke: #000000"/>
     <use xlink:href="#mf1851e3c6a" x="320.74368" y="220.975561" style="fill: #c44e52; stroke: #000000"/>
     <use xlink:href="#mf1851e3c6a" x="353.302742" y="221.701472" style="fill: #c44e52; stroke: #000000"/>
     <use xlink:href="#mf1851e3c6a" x="385.861803" y="219.62289" style="fill: #c44e52; stroke: #000000"/>
     <use xlink:href="#mf1851e3c6a" x="418.420864" y="211.985165" style="fill: #c44e52; stroke: #000000"/>
    </g>
   </g>
   <g id="PathCollection_29">
    <g clip-path="url(#p4f4a573400)">
     <use xlink:href="#m36cebadf44" x="60.27119" y="25.68018" style="stroke: #000000"/>
     <use xlink:href="#m36cebadf44" x="60.27119" y="25.358434" style="stroke: #000000"/>
    </g>
   </g>
   <g id="PathCollection_30">
    <g clip-path="url(#p4f4a573400)">
     <use xlink:href="#m36cebadf44" x="92.830251" y="105.315175" style="stroke: #000000"/>
     <use xlink:href="#m36cebadf44" x="92.830251" y="104.931958" style="stroke: #000000"/>
    </g>
   </g>
   <g id="PathCollection_31">
    <g clip-path="url(#p4f4a573400)">
     <use xlink:href="#m36cebadf44" x="125.389312" y="172.850441" style="stroke: #000000"/>
     <use xlink:href="#m36cebadf44" x="125.389312" y="171.368897" style="stroke: #000000"/>
    </g>
   </g>
   <g id="PathCollection_32">
    <g clip-path="url(#p4f4a573400)">
     <use xlink:href="#m36cebadf44" x="157.948374" y="211.448059" style="stroke: #000000"/>
     <use xlink:href="#m36cebadf44" x="157.948374" y="207.438454" style="stroke: #000000"/>
    </g>
   </g>
   <g id="PathCollection_33">
    <g clip-path="url(#p4f4a573400)">
     <use xlink:href="#m36cebadf44" x="190.507435" y="217.703814" style="stroke: #000000"/>
     <use xlink:href="#m36cebadf44" x="190.507435" y="215.519259" style="stroke: #000000"/>
    </g>
   </g>
   <g id="PathCollection_34">
    <g clip-path="url(#p4f4a573400)">
     <use xlink:href="#m36cebadf44" x="223.066496" y="221.386019" style="stroke: #000000"/>
     <use xlink:href="#m36cebadf44" x="223.066496" y="219.149067" style="stroke: #000000"/>
    </g>
   </g>
   <g id="PathCollection_35">
    <g clip-path="url(#p4f4a573400)">
     <use xlink:href="#m36cebadf44" x="255.625558" y="224.898461" style="stroke: #000000"/>
     <use xlink:href="#m36cebadf44" x="255.625558" y="221.843918" style="stroke: #000000"/>
    </g>
   </g>
   <g id="PathCollection_36">
    <g clip-path="url(#p4f4a573400)">
     <use xlink:href="#m36cebadf44" x="288.184619" y="224.835445" style="stroke: #000000"/>
     <use xlink:href="#m36cebadf44" x="288.184619" y="222.021503" style="stroke: #000000"/>
    </g>
   </g>
   <g id="PathCollection_37">
    <g clip-path="url(#p4f4a573400)">
     <use xlink:href="#m36cebadf44" x="320.74368" y="222.263485" style="stroke: #000000"/>
     <use xlink:href="#m36cebadf44" x="320.74368" y="219.726062" style="stroke: #000000"/>
    </g>
   </g>
   <g id="PathCollection_38">
    <g clip-path="url(#p4f4a573400)">
     <use xlink:href="#m36cebadf44" x="353.302742" y="222.734498" style="stroke: #000000"/>
     <use xlink:href="#m36cebadf44" x="353.302742" y="220.693314" style="stroke: #000000"/>
    </g>
   </g>
   <g id="PathCollection_39">
    <g clip-path="url(#p4f4a573400)">
     <use xlink:href="#m36cebadf44" x="385.861803" y="220.9154" style="stroke: #000000"/>
     <use xlink:href="#m36cebadf44" x="385.861803" y="218.369076" style="stroke: #000000"/>
    </g>
   </g>
   <g id="PathCollection_40">
    <g clip-path="url(#p4f4a573400)">
     <use xlink:href="#m36cebadf44" x="418.420864" y="214.508764" style="stroke: #000000"/>
     <use xlink:href="#m36cebadf44" x="418.420864" y="209.605017" style="stroke: #000000"/>
    </g>
   </g>
   <g id="legend_1">
    <g id="patch_7">
     <path d="M 312.765354 106.947146 
L 424.165354 106.947146 
L 424.165354 7.834646 
L 312.765354 7.834646 
z
" style="fill: #ffffff; stroke: #000000; stroke-linejoin: miter"/>
    </g>
    <g id="line2d_74">
     <path d="M 320.765354 19.934646 
L 330.765354 19.934646 
L 340.765354 19.934646 
" style="fill: none; stroke-dasharray: 4.625,2; stroke-dashoffset: 0; stroke: #8c8c8c; stroke-width: 1.25; stroke-linejoin: miter"/>
    </g>
    <g id="text_17">
     <!-- $c_1\exp(-\gamma_1 N)$ -->
     <g transform="translate(348.765354 23.434646) scale(0.1 -0.1)">
      <defs>
       <path id="DejaVuSans-Oblique-63" d="M 3431 3366 
L 3316 2797 
Q 3109 2947 2876 3022 
Q 2644 3097 2394 3097 
Q 2119 3097 1870 3000 
Q 1622 2903 1453 2725 
Q 1184 2453 1037 2087 
Q 891 1722 891 1331 
Q 891 859 1127 628 
Q 1363 397 1844 397 
Q 2081 397 2348 469 
Q 2616 541 2906 684 
L 2797 116 
Q 2547 13 2283 -39 
Q 2019 -91 1741 -91 
Q 1044 -91 669 257 
Q 294 606 294 1253 
Q 294 1797 489 2255 
Q 684 2713 1069 3078 
Q 1331 3328 1684 3456 
Q 2038 3584 2456 3584 
Q 2700 3584 2940 3529 
Q 3181 3475 3431 3366 
z
" transform="scale(0.015625)"/>
       <path id="DejaVuSans-31" d="M 794 531 
L 1825 531 
L 1825 4091 
L 703 3866 
L 703 4441 
L 1819 4666 
L 2450 4666 
L 2450 531 
L 3481 531 
L 3481 0 
L 794 0 
L 794 531 
z
" transform="scale(0.015625)"/>
       <path id="DejaVuSans-65" d="M 3597 1894 
L 3597 1613 
L 953 1613 
Q 991 1019 1311 708 
Q 1631 397 2203 397 
Q 2534 397 2845 478 
Q 3156 559 3463 722 
L 3463 178 
Q 3153 47 2828 -22 
Q 2503 -91 2169 -91 
Q 1331 -91 842 396 
Q 353 884 353 1716 
Q 353 2575 817 3079 
Q 1281 3584 2069 3584 
Q 2775 3584 3186 3129 
Q 3597 2675 3597 1894 
z
M 3022 2063 
Q 3016 2534 2758 2815 
Q 2500 3097 2075 3097 
Q 1594 3097 1305 2825 
Q 1016 2553 972 2059 
L 3022 2063 
z
" transform="scale(0.015625)"/>
       <path id="DejaVuSans-78" d="M 3513 3500 
L 2247 1797 
L 3578 0 
L 2900 0 
L 1881 1375 
L 863 0 
L 184 0 
L 1544 1831 
L 300 3500 
L 978 3500 
L 1906 2253 
L 2834 3500 
L 3513 3500 
z
" transform="scale(0.015625)"/>
       <path id="DejaVuSans-70" d="M 1159 525 
L 1159 -1331 
L 581 -1331 
L 581 3500 
L 1159 3500 
L 1159 2969 
Q 1341 3281 1617 3432 
Q 1894 3584 2278 3584 
Q 2916 3584 3314 3078 
Q 3713 2572 3713 1747 
Q 3713 922 3314 415 
Q 2916 -91 2278 -91 
Q 1894 -91 1617 61 
Q 1341 213 1159 525 
z
M 3116 1747 
Q 3116 2381 2855 2742 
Q 2594 3103 2138 3103 
Q 1681 3103 1420 2742 
Q 1159 2381 1159 1747 
Q 1159 1113 1420 752 
Q 1681 391 2138 391 
Q 2594 391 2855 752 
Q 3116 1113 3116 1747 
z
" transform="scale(0.015625)"/>
       <path id="DejaVuSans-28" d="M 1984 4856 
Q 1566 4138 1362 3434 
Q 1159 2731 1159 2009 
Q 1159 1288 1364 580 
Q 1569 -128 1984 -844 
L 1484 -844 
Q 1016 -109 783 600 
Q 550 1309 550 2009 
Q 550 2706 781 3412 
Q 1013 4119 1484 4856 
L 1984 4856 
z
" transform="scale(0.015625)"/>
       <path id="DejaVuSans-2212" d="M 678 2272 
L 4684 2272 
L 4684 1741 
L 678 1741 
L 678 2272 
z
" transform="scale(0.015625)"/>
       <path id="DejaVuSans-Oblique-3b3" d="M 1491 2950 
L 1838 788 
L 3456 3500 
L 4066 3500 
L 1972 0 
L 1713 -1331 
L 1138 -1331 
L 1397 0 
L 988 2613 
Q 925 3006 628 3006 
L 475 3006 
L 569 3500 
L 788 3500 
Q 1403 3500 1491 2950 
z
" transform="scale(0.015625)"/>
       <path id="DejaVuSans-Oblique-4e" d="M 1081 4666 
L 1931 4666 
L 3219 666 
L 4000 4666 
L 4616 4666 
L 3706 0 
L 2853 0 
L 1569 4025 
L 788 0 
L 172 0 
L 1081 4666 
z
" transform="scale(0.015625)"/>
       <path id="DejaVuSans-29" d="M 513 4856 
L 1013 4856 
Q 1481 4119 1714 3412 
Q 1947 2706 1947 2009 
Q 1947 1309 1714 600 
Q 1481 -109 1013 -844 
L 513 -844 
Q 928 -128 1133 580 
Q 1338 1288 1338 2009 
Q 1338 2731 1133 3434 
Q 928 4138 513 4856 
z
" transform="scale(0.015625)"/>
      </defs>
      <use xlink:href="#DejaVuSans-Oblique-63" transform="translate(0 0.125)"/>
      <use xlink:href="#DejaVuSans-31" transform="translate(54.980469 -16.28125) scale(0.7)"/>
      <use xlink:href="#DejaVuSans-65" transform="translate(102.250977 0.125)"/>
      <use xlink:href="#DejaVuSans-78" transform="translate(163.774414 0.125)"/>
      <use xlink:href="#DejaVuSans-70" transform="translate(222.954102 0.125)"/>
      <use xlink:href="#DejaVuSans-28" transform="translate(286.430664 0.125)"/>
      <use xlink:href="#DejaVuSans-2212" transform="translate(325.444336 0.125)"/>
      <use xlink:href="#DejaVuSans-Oblique-3b3" transform="translate(409.233398 0.125)"/>
      <use xlink:href="#DejaVuSans-31" transform="translate(468.413086 -16.28125) scale(0.7)"/>
      <use xlink:href="#DejaVuSans-Oblique-4e" transform="translate(515.683594 0.125)"/>
      <use xlink:href="#DejaVuSans-29" transform="translate(590.488281 0.125)"/>
     </g>
    </g>
    <g id="line2d_75">
     <path d="M 320.765354 34.634646 
L 330.765354 34.634646 
L 340.765354 34.634646 
" style="fill: none; stroke-dasharray: 4.625,2; stroke-dashoffset: 0; stroke: #8c8c8c; stroke-width: 1.25; stroke-linejoin: miter"/>
    </g>
    <g id="text_18">
     <!-- $c_2\exp(-\gamma_1 n_H)$ -->
     <g transform="translate(348.765354 38.134646) scale(0.1 -0.1)">
      <defs>
       <path id="DejaVuSans-32" d="M 1228 531 
L 3431 531 
L 3431 0 
L 469 0 
L 469 531 
Q 828 903 1448 1529 
Q 2069 2156 2228 2338 
Q 2531 2678 2651 2914 
Q 2772 3150 2772 3378 
Q 2772 3750 2511 3984 
Q 2250 4219 1831 4219 
Q 1534 4219 1204 4116 
Q 875 4013 500 3803 
L 500 4441 
Q 881 4594 1212 4672 
Q 1544 4750 1819 4750 
Q 2544 4750 2975 4387 
Q 3406 4025 3406 3419 
Q 3406 3131 3298 2873 
Q 3191 2616 2906 2266 
Q 2828 2175 2409 1742 
Q 1991 1309 1228 531 
z
" transform="scale(0.015625)"/>
       <path id="DejaVuSans-Oblique-6e" d="M 3566 2113 
L 3156 0 
L 2578 0 
L 2988 2091 
Q 3016 2238 3031 2350 
Q 3047 2463 3047 2528 
Q 3047 2791 2881 2937 
Q 2716 3084 2419 3084 
Q 1956 3084 1622 2776 
Q 1288 2469 1184 1941 
L 800 0 
L 225 0 
L 903 3500 
L 1478 3500 
L 1363 2950 
Q 1603 3253 1940 3418 
Q 2278 3584 2650 3584 
Q 3113 3584 3367 3334 
Q 3622 3084 3622 2631 
Q 3622 2519 3608 2391 
Q 3594 2263 3566 2113 
z
" transform="scale(0.015625)"/>
       <path id="DejaVuSans-Oblique-48" d="M 1081 4666 
L 1716 4666 
L 1344 2753 
L 3634 2753 
L 4006 4666 
L 4641 4666 
L 3731 0 
L 3097 0 
L 3531 2222 
L 1241 2222 
L 806 0 
L 172 0 
L 1081 4666 
z
" transform="scale(0.015625)"/>
      </defs>
      <use xlink:href="#DejaVuSans-Oblique-63" transform="translate(0 0.125)"/>
      <use xlink:href="#DejaVuSans-32" transform="translate(54.980469 -16.28125) scale(0.7)"/>
      <use xlink:href="#DejaVuSans-65" transform="translate(102.250977 0.125)"/>
      <use xlink:href="#DejaVuSans-78" transform="translate(163.774414 0.125)"/>
      <use xlink:href="#DejaVuSans-70" transform="translate(222.954102 0.125)"/>
      <use xlink:href="#DejaVuSans-28" transform="translate(286.430664 0.125)"/>
      <use xlink:href="#DejaVuSans-2212" transform="translate(325.444336 0.125)"/>
      <use xlink:href="#DejaVuSans-Oblique-3b3" transform="translate(409.233398 0.125)"/>
      <use xlink:href="#DejaVuSans-31" transform="translate(468.413086 -16.28125) scale(0.7)"/>
      <use xlink:href="#DejaVuSans-Oblique-6e" transform="translate(515.683594 0.125)"/>
      <use xlink:href="#DejaVuSans-Oblique-48" transform="translate(579.0625 -16.28125) scale(0.7)"/>
      <use xlink:href="#DejaVuSans-29" transform="translate(634.433594 0.125)"/>
     </g>
    </g>
    <g id="line2d_76">
     <path d="M 320.765354 49.333083 
L 330.765354 49.333083 
L 340.765354 49.333083 
" style="fill: none; stroke: #4c72b0; stroke-width: 1.25; stroke-linejoin: miter"/>
     <defs>
      <path id="m98274d0903" d="M -1.530734 -3.695518 
L -3.695518 -1.530734 
L -3.695518 1.530734 
L -1.530734 3.695518 
L 1.530734 3.695518 
L 3.695518 1.530734 
L 3.695518 -1.530734 
L 1.530734 -3.695518 
z
" style="stroke: #000000; stroke-width: 2; stroke-linejoin: miter"/>
     </defs>
     <g>
      <use xlink:href="#m98274d0903" x="330.765354" y="49.333083" style="fill: #4c72b0; stroke: #000000; stroke-width: 2; stroke-linejoin: miter"/>
     </g>
    </g>
    <g id="text_19">
     <!-- N=6 -->
     <g transform="translate(348.765354 52.833083) scale(0.1 -0.1)">
      <defs>
       <path id="DejaVuSerif-4e" d="M 313 0 
L 313 331 
L 941 331 
L 941 4331 
L 313 4331 
L 313 4666 
L 1509 4666 
L 4306 984 
L 4306 4331 
L 3681 4331 
L 3681 4666 
L 5319 4666 
L 5319 4331 
L 4691 4331 
L 4691 -91 
L 4313 -91 
L 1325 3841 
L 1325 331 
L 1953 331 
L 1953 0 
L 313 0 
z
" transform="scale(0.015625)"/>
       <path id="DejaVuSerif-3d" d="M 678 2894 
L 4684 2894 
L 4684 2394 
L 678 2394 
L 678 2894 
z
M 678 1619 
L 4684 1619 
L 4684 1119 
L 678 1119 
L 678 1619 
z
" transform="scale(0.015625)"/>
      </defs>
      <use xlink:href="#DejaVuSerif-4e"/>
      <use xlink:href="#DejaVuSerif-3d" x="87.5"/>
      <use xlink:href="#DejaVuSerif-36" x="171.289062"/>
     </g>
    </g>
    <g id="line2d_77">
     <path d="M 320.765354 64.011208 
L 330.765354 64.011208 
L 340.765354 64.011208 
" style="fill: none; stroke: #dd8452; stroke-width: 1.25; stroke-linejoin: miter"/>
     <defs>
      <path id="m3d3e861325" d="M -1.530734 -3.695518 
L -3.695518 -1.530734 
L -3.695518 1.530734 
L -1.530734 3.695518 
L 1.530734 3.695518 
L 3.695518 1.530734 
L 3.695518 -1.530734 
L 1.530734 -3.695518 
z
" style="stroke: #000000; stroke-width: 2; stroke-linejoin: miter"/>
     </defs>
     <g>
      <use xlink:href="#m3d3e861325" x="330.765354" y="64.011208" style="fill: #dd8452; stroke: #000000; stroke-width: 2; stroke-linejoin: miter"/>
     </g>
    </g>
    <g id="text_20">
     <!-- N=8 -->
     <g transform="translate(348.765354 67.511208) scale(0.1 -0.1)">
      <use xlink:href="#DejaVuSerif-4e"/>
      <use xlink:href="#DejaVuSerif-3d" x="87.5"/>
      <use xlink:href="#DejaVuSerif-38" x="171.289062"/>
     </g>
    </g>
    <g id="line2d_78">
     <path d="M 320.765354 78.689333 
L 330.765354 78.689333 
L 340.765354 78.689333 
" style="fill: none; stroke: #55a868; stroke-width: 1.25; stroke-linejoin: miter"/>
     <defs>
      <path id="m5dc2932b06" d="M -1.530734 -3.695518 
L -3.695518 -1.530734 
L -3.695518 1.530734 
L -1.530734 3.695518 
L 1.530734 3.695518 
L 3.695518 1.530734 
L 3.695518 -1.530734 
L 1.530734 -3.695518 
z
" style="stroke: #000000; stroke-width: 2; stroke-linejoin: miter"/>
     </defs>
     <g>
      <use xlink:href="#m5dc2932b06" x="330.765354" y="78.689333" style="fill: #55a868; stroke: #000000; stroke-width: 2; stroke-linejoin: miter"/>
     </g>
    </g>
    <g id="text_21">
     <!-- N=10 -->
     <g transform="translate(348.765354 82.189333) scale(0.1 -0.1)">
      <use xlink:href="#DejaVuSerif-4e"/>
      <use xlink:href="#DejaVuSerif-3d" x="87.5"/>
      <use xlink:href="#DejaVuSerif-31" x="171.289062"/>
      <use xlink:href="#DejaVuSerif-30" x="234.912109"/>
     </g>
    </g>
    <g id="line2d_79">
     <path d="M 320.765354 93.367458 
L 330.765354 93.367458 
L 340.765354 93.367458 
" style="fill: none; stroke: #c44e52; stroke-width: 1.25; stroke-linejoin: miter"/>
     <defs>
      <path id="m2052aa23d9" d="M -1.530734 -3.695518 
L -3.695518 -1.530734 
L -3.695518 1.530734 
L -1.530734 3.695518 
L 1.530734 3.695518 
L 3.695518 1.530734 
L 3.695518 -1.530734 
L 1.530734 -3.695518 
z
" style="stroke: #000000; stroke-width: 2; stroke-linejoin: miter"/>
     </defs>
     <g>
      <use xlink:href="#m2052aa23d9" x="330.765354" y="93.367458" style="fill: #c44e52; stroke: #000000; stroke-width: 2; stroke-linejoin: miter"/>
     </g>
    </g>
    <g id="text_22">
     <!-- N=12 -->
     <g transform="translate(348.765354 96.867458) scale(0.1 -0.1)">
      <use xlink:href="#DejaVuSerif-4e"/>
      <use xlink:href="#DejaVuSerif-3d" x="87.5"/>
      <use xlink:href="#DejaVuSerif-31" x="171.289062"/>
      <use xlink:href="#DejaVuSerif-32" x="234.912109"/>
     </g>
    </g>
   </g>
  </g>
 </g>
 <defs>
  <clipPath id="p4f4a573400">
   <rect x="49.5267" y="2.834646" width="379.638655" height="251.790709"/>
  </clipPath>
 </defs>
</svg>
