<?xml version="1.0" encoding="utf-8" standalone="no"?>
<!DOCTYPE svg PUBLIC "-//W3C//DTD SVG 1.1//EN"
  "http://www.w3.org/Graphics/SVG/1.1/DTD/svg11.dtd">
<svg xmlns:xlink="http://www.w3.org/1999/xlink" width="432pt" height="288pt" viewBox="0 0 432 288" xmlns="http://www.w3.org/2000/svg" version="1.1">
 <metadata>
  <rdf:RDF xmlns:dc="http://purl.org/dc/elements/1.1/" xmlns:cc="http://creativecommons.org/ns#" xmlns:rdf="http://www.w3.org/1999/02/22-rdf-syntax-ns#">
   <cc:Work>
    <dc:type rdf:resource="http://purl.org/dc/dcmitype/StillImage"/>
    <dc:date>2025-06-06T13:01:22.811654</dc:date>
    <dc:format>image/svg+xml</dc:format>
    <dc:creator>
     <cc:Agent>
      <dc:title>Matplotlib v3.9.2, https://matplotlib.org/</dc:title>
     </cc:Agent>
    </dc:creator>
   </cc:Work>
  </rdf:RDF>
 </metadata>
 <defs>
  <style type="text/css">*{stroke-linejoin: round; stroke-linecap: butt}</style>
 </defs>
 <g id="figure_1">
  <g id="patch_1">
   <path d="M 0 288 
L 432 288 
L 432 0 
L 0 0 
z
" style="fill: #ffffff"/>
  </g>
  <g id="axes_1">
   <g id="patch_2">
    <path d="M 49.5267 254.625354 
L 422.612383 254.625354 
L 422.612383 7.982646 
L 49.5267 7.982646 
z
" style="fill: #ffffff"/>
   </g>
   <g id="line2d_1">
    <path d="M -1 109.264891 
L 433 109.264891 
" clip-path="url(#p5717b3f879)" style="fill: none; stroke-dasharray: 3.7,1.6; stroke-dashoffset: 0; stroke: #8c8c8c"/>
   </g>
   <g id="line2d_2">
    <path d="M -1 154.45744 
L 433 154.45744 
" clip-path="url(#p5717b3f879)" style="fill: none; stroke-dasharray: 3.7,1.6; stroke-dashoffset: 0; stroke: #8c8c8c"/>
   </g>
   <g id="line2d_3">
    <path d="M -1 199.649989 
L 433 199.649989 
" clip-path="url(#p5717b3f879)" style="fill: none; stroke-dasharray: 3.7,1.6; stroke-dashoffset: 0; stroke: #8c8c8c"/>
   </g>
   <g id="line2d_4">
    <path d="M -1 244.842538 
L 433 244.842538 
" clip-path="url(#p5717b3f879)" style="fill: none; stroke-dasharray: 3.7,1.6; stroke-dashoffset: 0; stroke: #8c8c8c"/>
   </g>
   <g id="matplotlib.axis_1">
    <g id="xtick_1">
     <g id="line2d_5">
      <defs>
       <path id="m08f10919a3" d="M 0 0 
L 0 -2.5 
" style="stroke: #000000; stroke-width: 0.5"/>
      </defs>
      <g>
       <use xlink:href="#m08f10919a3" x="49.5267" y="254.625354" style="stroke: #000000; stroke-width: 0.5"/>
      </g>
     </g>
     <g id="line2d_6">
      <defs>
       <path id="mdbe3a660cc" d="M 0 0 
L 0 2.5 
" style="stroke: #000000; stroke-width: 0.5"/>
      </defs>
      <g>
       <use xlink:href="#mdbe3a660cc" x="49.5267" y="7.982646" style="stroke: #000000; stroke-width: 0.5"/>
      </g>
     </g>
     <g id="text_1">
      <!-- $3$ -->
      <g transform="translate(46.3267 265.723792) scale(0.1 -0.1)">
       <defs>
        <path id="DejaVuSerif-33" d="M 622 4469 
Q 988 4606 1323 4678 
Q 1659 4750 1953 4750 
Q 2638 4750 3022 4454 
Q 3406 4159 3406 3634 
Q 3406 3213 3140 2930 
Q 2875 2647 2388 2547 
Q 2963 2466 3280 2130 
Q 3597 1794 3597 1259 
Q 3597 606 3158 257 
Q 2719 -91 1894 -91 
Q 1528 -91 1179 -12 
Q 831 66 488 225 
L 488 1131 
L 838 1131 
Q 869 681 1141 450 
Q 1413 219 1906 219 
Q 2384 219 2661 495 
Q 2938 772 2938 1253 
Q 2938 1803 2653 2086 
Q 2369 2369 1819 2369 
L 1522 2369 
L 1522 2688 
L 1678 2688 
Q 2225 2688 2498 2914 
Q 2772 3141 2772 3597 
Q 2772 4006 2547 4223 
Q 2322 4441 1900 4441 
Q 1478 4441 1245 4241 
Q 1013 4041 972 3647 
L 622 3647 
L 622 4469 
z
" transform="scale(0.015625)"/>
       </defs>
       <use xlink:href="#DejaVuSerif-33" transform="translate(0 0.78125)"/>
      </g>
     </g>
    </g>
    <g id="xtick_2">
     <g id="line2d_7">
      <g>
       <use xlink:href="#m08f10919a3" x="90.980664" y="254.625354" style="stroke: #000000; stroke-width: 0.5"/>
      </g>
     </g>
     <g id="line2d_8">
      <g>
       <use xlink:href="#mdbe3a660cc" x="90.980664" y="7.982646" style="stroke: #000000; stroke-width: 0.5"/>
      </g>
     </g>
     <g id="text_2">
      <!-- $4$ -->
      <g transform="translate(87.780664 265.723792) scale(0.1 -0.1)">
       <defs>
        <path id="DejaVuSerif-34" d="M 2234 1581 
L 2234 4063 
L 641 1581 
L 2234 1581 
z
M 3609 0 
L 1484 0 
L 1484 331 
L 2234 331 
L 2234 1247 
L 197 1247 
L 197 1588 
L 2241 4750 
L 2859 4750 
L 2859 1581 
L 3750 1581 
L 3750 1247 
L 2859 1247 
L 2859 331 
L 3609 331 
L 3609 0 
z
" transform="scale(0.015625)"/>
       </defs>
       <use xlink:href="#DejaVuSerif-34" transform="translate(0 0.78125)"/>
      </g>
     </g>
    </g>
    <g id="xtick_3">
     <g id="line2d_9">
      <g>
       <use xlink:href="#m08f10919a3" x="132.434629" y="254.625354" style="stroke: #000000; stroke-width: 0.5"/>
      </g>
     </g>
     <g id="line2d_10">
      <g>
       <use xlink:href="#mdbe3a660cc" x="132.434629" y="7.982646" style="stroke: #000000; stroke-width: 0.5"/>
      </g>
     </g>
     <g id="text_3">
      <!-- $5$ -->
      <g transform="translate(129.234629 265.723792) scale(0.1 -0.1)">
       <defs>
        <path id="DejaVuSerif-35" d="M 3219 4666 
L 3219 4153 
L 1081 4153 
L 1081 2816 
Q 1244 2928 1461 2984 
Q 1678 3041 1947 3041 
Q 2703 3041 3140 2622 
Q 3578 2203 3578 1478 
Q 3578 738 3136 323 
Q 2694 -91 1894 -91 
Q 1572 -91 1234 -12 
Q 897 66 544 225 
L 544 1131 
L 897 1131 
Q 925 688 1179 453 
Q 1434 219 1894 219 
Q 2388 219 2653 544 
Q 2919 869 2919 1478 
Q 2919 2084 2655 2407 
Q 2391 2731 1894 2731 
Q 1613 2731 1398 2631 
Q 1184 2531 1019 2322 
L 750 2322 
L 750 4666 
L 3219 4666 
z
" transform="scale(0.015625)"/>
       </defs>
       <use xlink:href="#DejaVuSerif-35" transform="translate(0 0.09375)"/>
      </g>
     </g>
    </g>
    <g id="xtick_4">
     <g id="line2d_11">
      <g>
       <use xlink:href="#m08f10919a3" x="173.888594" y="254.625354" style="stroke: #000000; stroke-width: 0.5"/>
      </g>
     </g>
     <g id="line2d_12">
      <g>
       <use xlink:href="#mdbe3a660cc" x="173.888594" y="7.982646" style="stroke: #000000; stroke-width: 0.5"/>
      </g>
     </g>
     <g id="text_4">
      <!-- $6$ -->
      <g transform="translate(170.688594 265.723792) scale(0.1 -0.1)">
       <defs>
        <path id="DejaVuSerif-36" d="M 2094 219 
Q 2534 219 2771 542 
Q 3009 866 3009 1472 
Q 3009 2078 2771 2401 
Q 2534 2725 2094 2725 
Q 1647 2725 1412 2412 
Q 1178 2100 1178 1509 
Q 1178 888 1415 553 
Q 1653 219 2094 219 
z
M 1075 2569 
Q 1288 2803 1556 2918 
Q 1825 3034 2163 3034 
Q 2859 3034 3264 2615 
Q 3669 2197 3669 1472 
Q 3669 763 3233 336 
Q 2797 -91 2069 -91 
Q 1278 -91 853 498 
Q 428 1088 428 2181 
Q 428 3406 931 4078 
Q 1434 4750 2350 4750 
Q 2597 4750 2869 4703 
Q 3141 4656 3425 4563 
L 3425 3794 
L 3072 3794 
Q 3034 4109 2831 4275 
Q 2628 4441 2284 4441 
Q 1678 4441 1381 3981 
Q 1084 3522 1075 2569 
z
" transform="scale(0.015625)"/>
       </defs>
       <use xlink:href="#DejaVuSerif-36" transform="translate(0 0.78125)"/>
      </g>
     </g>
    </g>
    <g id="xtick_5">
     <g id="line2d_13">
      <g>
       <use xlink:href="#m08f10919a3" x="215.342559" y="254.625354" style="stroke: #000000; stroke-width: 0.5"/>
      </g>
     </g>
     <g id="line2d_14">
      <g>
       <use xlink:href="#mdbe3a660cc" x="215.342559" y="7.982646" style="stroke: #000000; stroke-width: 0.5"/>
      </g>
     </g>
     <g id="text_5">
      <!-- $7$ -->
      <g transform="translate(212.142559 265.723792) scale(0.1 -0.1)">
       <defs>
        <path id="DejaVuSerif-37" d="M 3609 4347 
L 1784 0 
L 1319 0 
L 3059 4153 
L 903 4153 
L 903 3578 
L 538 3578 
L 538 4666 
L 3609 4666 
L 3609 4347 
z
" transform="scale(0.015625)"/>
       </defs>
       <use xlink:href="#DejaVuSerif-37" transform="translate(0 0.09375)"/>
      </g>
     </g>
    </g>
    <g id="xtick_6">
     <g id="line2d_15">
      <g>
       <use xlink:href="#m08f10919a3" x="256.796524" y="254.625354" style="stroke: #000000; stroke-width: 0.5"/>
      </g>
     </g>
     <g id="line2d_16">
      <g>
       <use xlink:href="#mdbe3a660cc" x="256.796524" y="7.982646" style="stroke: #000000; stroke-width: 0.5"/>
      </g>
     </g>
     <g id="text_6">
      <!-- $8$ -->
      <g transform="translate(253.596524 265.723792) scale(0.1 -0.1)">
       <defs>
        <path id="DejaVuSerif-38" d="M 2981 1275 
Q 2981 1775 2732 2051 
Q 2484 2328 2034 2328 
Q 1584 2328 1336 2051 
Q 1088 1775 1088 1275 
Q 1088 772 1336 495 
Q 1584 219 2034 219 
Q 2484 219 2732 495 
Q 2981 772 2981 1275 
z
M 2853 3541 
Q 2853 3966 2637 4203 
Q 2422 4441 2034 4441 
Q 1650 4441 1433 4203 
Q 1216 3966 1216 3541 
Q 1216 3113 1433 2875 
Q 1650 2638 2034 2638 
Q 2422 2638 2637 2875 
Q 2853 3113 2853 3541 
z
M 2516 2484 
Q 3047 2413 3344 2092 
Q 3641 1772 3641 1275 
Q 3641 619 3225 264 
Q 2809 -91 2034 -91 
Q 1263 -91 845 264 
Q 428 619 428 1275 
Q 428 1772 725 2092 
Q 1022 2413 1556 2484 
Q 1084 2569 832 2842 
Q 581 3116 581 3541 
Q 581 4103 968 4426 
Q 1356 4750 2034 4750 
Q 2713 4750 3100 4426 
Q 3488 4103 3488 3541 
Q 3488 3116 3236 2842 
Q 2984 2569 2516 2484 
z
" transform="scale(0.015625)"/>
       </defs>
       <use xlink:href="#DejaVuSerif-38" transform="translate(0 0.78125)"/>
      </g>
     </g>
    </g>
    <g id="xtick_7">
     <g id="line2d_17">
      <g>
       <use xlink:href="#m08f10919a3" x="298.250489" y="254.625354" style="stroke: #000000; stroke-width: 0.5"/>
      </g>
     </g>
     <g id="line2d_18">
      <g>
       <use xlink:href="#mdbe3a660cc" x="298.250489" y="7.982646" style="stroke: #000000; stroke-width: 0.5"/>
      </g>
     </g>
     <g id="text_7">
      <!-- $9$ -->
      <g transform="translate(295.050489 265.723792) scale(0.1 -0.1)">
       <defs>
        <path id="DejaVuSerif-39" d="M 2994 2091 
Q 2784 1856 2512 1740 
Q 2241 1625 1900 1625 
Q 1206 1625 804 2044 
Q 403 2463 403 3188 
Q 403 3897 839 4323 
Q 1275 4750 2003 4750 
Q 2794 4750 3217 4161 
Q 3641 3572 3641 2478 
Q 3641 1253 3137 581 
Q 2634 -91 1722 -91 
Q 1475 -91 1203 -44 
Q 931 3 647 97 
L 647 872 
L 997 872 
Q 1038 556 1241 387 
Q 1444 219 1784 219 
Q 2391 219 2687 676 
Q 2984 1134 2994 2091 
z
M 1978 4441 
Q 1534 4441 1298 4117 
Q 1063 3794 1063 3188 
Q 1063 2581 1298 2256 
Q 1534 1931 1978 1931 
Q 2422 1931 2658 2245 
Q 2894 2559 2894 3150 
Q 2894 3772 2656 4106 
Q 2419 4441 1978 4441 
z
" transform="scale(0.015625)"/>
       </defs>
       <use xlink:href="#DejaVuSerif-39" transform="translate(0 0.78125)"/>
      </g>
     </g>
    </g>
    <g id="xtick_8">
     <g id="line2d_19">
      <g>
       <use xlink:href="#m08f10919a3" x="339.704453" y="254.625354" style="stroke: #000000; stroke-width: 0.5"/>
      </g>
     </g>
     <g id="line2d_20">
      <g>
       <use xlink:href="#mdbe3a660cc" x="339.704453" y="7.982646" style="stroke: #000000; stroke-width: 0.5"/>
      </g>
     </g>
     <g id="text_8">
      <!-- $10$ -->
      <g transform="translate(333.304453 265.723792) scale(0.1 -0.1)">
       <defs>
        <path id="DejaVuSerif-31" d="M 909 0 
L 909 331 
L 1722 331 
L 1722 4213 
L 781 3603 
L 781 4013 
L 1919 4750 
L 2350 4750 
L 2350 331 
L 3163 331 
L 3163 0 
L 909 0 
z
" transform="scale(0.015625)"/>
        <path id="DejaVuSerif-30" d="M 2034 219 
Q 2513 219 2750 744 
Q 2988 1269 2988 2328 
Q 2988 3391 2750 3916 
Q 2513 4441 2034 4441 
Q 1556 4441 1318 3916 
Q 1081 3391 1081 2328 
Q 1081 1269 1318 744 
Q 1556 219 2034 219 
z
M 2034 -91 
Q 1275 -91 848 546 
Q 422 1184 422 2328 
Q 422 3475 848 4112 
Q 1275 4750 2034 4750 
Q 2797 4750 3222 4112 
Q 3647 3475 3647 2328 
Q 3647 1184 3222 546 
Q 2797 -91 2034 -91 
z
" transform="scale(0.015625)"/>
       </defs>
       <use xlink:href="#DejaVuSerif-31" transform="translate(0 0.78125)"/>
       <use xlink:href="#DejaVuSerif-30" transform="translate(63.623047 0.78125)"/>
      </g>
     </g>
    </g>
    <g id="xtick_9">
     <g id="line2d_21">
      <g>
       <use xlink:href="#m08f10919a3" x="381.158418" y="254.625354" style="stroke: #000000; stroke-width: 0.5"/>
      </g>
     </g>
     <g id="line2d_22">
      <g>
       <use xlink:href="#mdbe3a660cc" x="381.158418" y="7.982646" style="stroke: #000000; stroke-width: 0.5"/>
      </g>
     </g>
     <g id="text_9">
      <!-- $11$ -->
      <g transform="translate(374.758418 265.723792) scale(0.1 -0.1)">
       <use xlink:href="#DejaVuSerif-31" transform="translate(0 0.78125)"/>
       <use xlink:href="#DejaVuSerif-31" transform="translate(63.623047 0.78125)"/>
      </g>
     </g>
    </g>
    <g id="xtick_10">
     <g id="line2d_23">
      <g>
       <use xlink:href="#m08f10919a3" x="422.612383" y="254.625354" style="stroke: #000000; stroke-width: 0.5"/>
      </g>
     </g>
     <g id="line2d_24">
      <g>
       <use xlink:href="#mdbe3a660cc" x="422.612383" y="7.982646" style="stroke: #000000; stroke-width: 0.5"/>
      </g>
     </g>
     <g id="text_10">
      <!-- $12$ -->
      <g transform="translate(416.212383 265.723792) scale(0.1 -0.1)">
       <defs>
        <path id="DejaVuSerif-32" d="M 819 3553 
L 469 3553 
L 469 4384 
Q 803 4563 1142 4656 
Q 1481 4750 1806 4750 
Q 2534 4750 2956 4397 
Q 3378 4044 3378 3438 
Q 3378 2753 2422 1800 
Q 2347 1728 2309 1691 
L 1131 513 
L 3078 513 
L 3078 1088 
L 3444 1088 
L 3444 0 
L 434 0 
L 434 341 
L 1850 1753 
Q 2319 2222 2519 2614 
Q 2719 3006 2719 3438 
Q 2719 3909 2473 4175 
Q 2228 4441 1797 4441 
Q 1350 4441 1106 4219 
Q 863 3997 819 3553 
z
" transform="scale(0.015625)"/>
       </defs>
       <use xlink:href="#DejaVuSerif-31" transform="translate(0 0.78125)"/>
       <use xlink:href="#DejaVuSerif-32" transform="translate(63.623047 0.78125)"/>
      </g>
     </g>
    </g>
    <g id="text_11">
     <!-- $n_H$ -->
     <g transform="translate(228.329541 280.921604) scale(0.12 -0.12)">
      <defs>
       <path id="DejaVuSerif-Italic-6e" d="M 450 0 
L 1031 2988 
L 481 2988 
L 544 3322 
L 1669 3322 
L 1556 2731 
Q 1781 3069 2068 3241 
Q 2356 3413 2694 3413 
Q 3244 3413 3444 3097 
Q 3563 2906 3563 2588 
Q 3563 2378 3509 2113 
L 3163 331 
L 3675 331 
L 3613 0 
L 2522 0 
L 2897 1931 
Q 2959 2253 2959 2469 
Q 2959 2659 2909 2769 
Q 2803 2994 2425 2994 
Q 2025 2994 1759 2701 
Q 1494 2409 1384 1850 
L 1025 0 
L 450 0 
z
" transform="scale(0.015625)"/>
       <path id="DejaVuSerif-Italic-48" d="M -97 0 
L -34 331 
L 559 331 
L 1338 4331 
L 744 4331 
L 809 4666 
L 2631 4666 
L 2566 4331 
L 1972 4331 
L 1659 2719 
L 4078 2719 
L 4391 4331 
L 3797 4331 
L 3863 4666 
L 5684 4666 
L 5619 4331 
L 5025 4331 
L 4247 331 
L 4841 331 
L 4778 0 
L 2956 0 
L 3019 331 
L 3616 331 
L 4003 2338 
L 1584 2338 
L 1194 331 
L 1788 331 
L 1725 0 
L -97 0 
z
" transform="scale(0.015625)"/>
      </defs>
      <use xlink:href="#DejaVuSerif-Italic-6e" transform="translate(0 0.671875)"/>
      <use xlink:href="#DejaVuSerif-Italic-48" transform="translate(64.404297 -14.9) scale(0.7)"/>
     </g>
    </g>
   </g>
   <g id="matplotlib.axis_2">
    <g id="ytick_1">
     <g id="line2d_25">
      <defs>
       <path id="mbb448ebe54" d="M 0 0 
L 2.5 0 
" style="stroke: #000000; stroke-width: 0.5"/>
      </defs>
      <g>
       <use xlink:href="#mbb448ebe54" x="49.5267" y="7.982646" style="stroke: #000000; stroke-width: 0.5"/>
      </g>
     </g>
     <g id="line2d_26">
      <defs>
       <path id="m725f9a5a89" d="M 0 0 
L -2.5 0 
" style="stroke: #000000; stroke-width: 0.5"/>
      </defs>
      <g>
       <use xlink:href="#m725f9a5a89" x="422.612383" y="7.982646" style="stroke: #000000; stroke-width: 0.5"/>
      </g>
     </g>
     <g id="text_12">
      <!-- $10^{-1}$ -->
      <g transform="translate(22.6267 11.781864) scale(0.1 -0.1)">
       <defs>
        <path id="DejaVuSerif-2212" d="M 678 2259 
L 4684 2259 
L 4684 1753 
L 678 1753 
L 678 2259 
z
" transform="scale(0.015625)"/>
       </defs>
       <use xlink:href="#DejaVuSerif-31" transform="translate(0 0.7125)"/>
       <use xlink:href="#DejaVuSerif-30" transform="translate(63.623047 0.7125)"/>
       <use xlink:href="#DejaVuSerif-2212" transform="translate(128.154453 37.046875) scale(0.7)"/>
       <use xlink:href="#DejaVuSerif-31" transform="translate(186.806797 37.046875) scale(0.7)"/>
      </g>
     </g>
    </g>
    <g id="ytick_2">
     <g id="line2d_27">
      <g>
       <use xlink:href="#mbb448ebe54" x="49.5267" y="110.838725" style="stroke: #000000; stroke-width: 0.5"/>
      </g>
     </g>
     <g id="line2d_28">
      <g>
       <use xlink:href="#m725f9a5a89" x="422.612383" y="110.838725" style="stroke: #000000; stroke-width: 0.5"/>
      </g>
     </g>
     <g id="text_13">
      <!-- $10^{-2}$ -->
      <g transform="translate(22.6267 114.637944) scale(0.1 -0.1)">
       <use xlink:href="#DejaVuSerif-31" transform="translate(0 0.7125)"/>
       <use xlink:href="#DejaVuSerif-30" transform="translate(63.623047 0.7125)"/>
       <use xlink:href="#DejaVuSerif-2212" transform="translate(128.154453 37.046875) scale(0.7)"/>
       <use xlink:href="#DejaVuSerif-32" transform="translate(186.806797 37.046875) scale(0.7)"/>
      </g>
     </g>
    </g>
    <g id="ytick_3">
     <g id="line2d_29">
      <g>
       <use xlink:href="#mbb448ebe54" x="49.5267" y="213.694805" style="stroke: #000000; stroke-width: 0.5"/>
      </g>
     </g>
     <g id="line2d_30">
      <g>
       <use xlink:href="#m725f9a5a89" x="422.612383" y="213.694805" style="stroke: #000000; stroke-width: 0.5"/>
      </g>
     </g>
     <g id="text_14">
      <!-- $10^{-3}$ -->
      <g transform="translate(22.6267 217.494024) scale(0.1 -0.1)">
       <use xlink:href="#DejaVuSerif-31" transform="translate(0 0.7125)"/>
       <use xlink:href="#DejaVuSerif-30" transform="translate(63.623047 0.7125)"/>
       <use xlink:href="#DejaVuSerif-2212" transform="translate(128.154453 37.046875) scale(0.7)"/>
       <use xlink:href="#DejaVuSerif-33" transform="translate(186.806797 37.046875) scale(0.7)"/>
      </g>
     </g>
    </g>
    <g id="text_15">
     <!-- $D_{\text{KL}}(\text{DOS}||\text{MP})$ -->
     <g transform="translate(15.7467 174.984) rotate(-90) scale(0.12 -0.12)">
      <defs>
       <path id="DejaVuSerif-Italic-44" d="M 1194 331 
L 1775 331 
Q 2684 331 3271 850 
Q 3859 1369 4048 2337 
Q 4238 3306 3852 3818 
Q 3466 4331 2553 4331 
L 1972 4331 
L 1194 331 
z
M -97 0 
L -34 331 
L 559 331 
L 1338 4331 
L 744 4331 
L 809 4666 
L 2666 4666 
Q 3872 4666 4426 4050 
Q 4981 3434 4766 2338 
Q 4553 1238 3758 619 
Q 2963 0 1759 0 
L -97 0 
z
" transform="scale(0.015625)"/>
       <path id="DejaVuSerif-4b" d="M 353 0 
L 353 331 
L 947 331 
L 947 4331 
L 353 4331 
L 353 4666 
L 2175 4666 
L 2175 4331 
L 1581 4331 
L 1581 2566 
L 3591 4331 
L 3084 4331 
L 3084 4666 
L 4634 4666 
L 4634 4331 
L 4109 4331 
L 2106 2572 
L 4347 331 
L 4878 331 
L 4878 0 
L 3794 0 
L 1581 2216 
L 1581 331 
L 2175 331 
L 2175 0 
L 353 0 
z
" transform="scale(0.015625)"/>
       <path id="DejaVuSerif-4c" d="M 353 0 
L 353 331 
L 947 331 
L 947 4331 
L 353 4331 
L 353 4666 
L 2175 4666 
L 2175 4331 
L 1581 4331 
L 1581 384 
L 3713 384 
L 3713 1166 
L 4097 1166 
L 4097 0 
L 353 0 
z
" transform="scale(0.015625)"/>
       <path id="DejaVuSerif-28" d="M 2041 -997 
Q 1281 -656 893 83 
Q 506 822 506 1931 
Q 506 3044 893 3783 
Q 1281 4522 2041 4863 
L 2041 4556 
Q 1559 4225 1350 3623 
Q 1141 3022 1141 1931 
Q 1141 844 1350 242 
Q 1559 -359 2041 -691 
L 2041 -997 
z
" transform="scale(0.015625)"/>
       <path id="DejaVuSerif-44" d="M 1581 331 
L 2163 331 
Q 3072 331 3558 850 
Q 4044 1369 4044 2338 
Q 4044 3306 3559 3818 
Q 3075 4331 2163 4331 
L 1581 4331 
L 1581 331 
z
M 353 0 
L 353 331 
L 947 331 
L 947 4331 
L 353 4331 
L 353 4666 
L 2209 4666 
Q 3416 4666 4089 4050 
Q 4763 3434 4763 2338 
Q 4763 1238 4088 619 
Q 3413 0 2209 0 
L 353 0 
z
" transform="scale(0.015625)"/>
       <path id="DejaVuSerif-4f" d="M 2625 244 
Q 3391 244 3781 770 
Q 4172 1297 4172 2328 
Q 4172 3363 3781 3889 
Q 3391 4416 2625 4416 
Q 1856 4416 1465 3889 
Q 1075 3363 1075 2328 
Q 1075 1297 1465 770 
Q 1856 244 2625 244 
z
M 2625 -91 
Q 2150 -91 1751 65 
Q 1353 222 1050 525 
Q 700 875 529 1319 
Q 359 1763 359 2328 
Q 359 2894 529 3339 
Q 700 3784 1050 4134 
Q 1356 4441 1750 4595 
Q 2144 4750 2625 4750 
Q 3641 4750 4266 4084 
Q 4891 3419 4891 2328 
Q 4891 1769 4719 1320 
Q 4547 872 4197 525 
Q 3891 219 3497 64 
Q 3103 -91 2625 -91 
z
" transform="scale(0.015625)"/>
       <path id="DejaVuSerif-53" d="M 594 225 
L 594 1288 
L 953 1284 
Q 969 753 1261 498 
Q 1553 244 2150 244 
Q 2706 244 2998 464 
Q 3291 684 3291 1106 
Q 3291 1444 3114 1625 
Q 2938 1806 2369 1978 
L 1753 2163 
Q 1084 2366 811 2669 
Q 538 2972 538 3500 
Q 538 4094 959 4422 
Q 1381 4750 2144 4750 
Q 2469 4750 2856 4679 
Q 3244 4609 3681 4475 
L 3681 3481 
L 3328 3481 
Q 3275 3975 2998 4195 
Q 2722 4416 2156 4416 
Q 1663 4416 1405 4214 
Q 1147 4013 1147 3628 
Q 1147 3294 1340 3103 
Q 1534 2913 2163 2725 
L 2741 2553 
Q 3375 2363 3645 2067 
Q 3916 1772 3916 1275 
Q 3916 597 3481 253 
Q 3047 -91 2188 -91 
Q 1803 -91 1404 -12 
Q 1006 66 594 225 
z
" transform="scale(0.015625)"/>
       <path id="DejaVuSerif-7c" d="M 1331 4891 
L 1331 -1509 
L 825 -1509 
L 825 4891 
L 1331 4891 
z
" transform="scale(0.015625)"/>
       <path id="DejaVuSerif-4d" d="M 353 0 
L 353 331 
L 947 331 
L 947 4331 
L 319 4331 
L 319 4666 
L 1678 4666 
L 3316 1344 
L 4953 4666 
L 6228 4666 
L 6228 4331 
L 5606 4331 
L 5606 331 
L 6203 331 
L 6203 0 
L 4378 0 
L 4378 331 
L 4972 331 
L 4972 3938 
L 3372 684 
L 2931 684 
L 1331 3938 
L 1331 331 
L 1925 331 
L 1925 0 
L 353 0 
z
" transform="scale(0.015625)"/>
       <path id="DejaVuSerif-50" d="M 1581 2375 
L 2406 2375 
Q 2872 2375 3115 2626 
Q 3359 2878 3359 3353 
Q 3359 3831 3115 4081 
Q 2872 4331 2406 4331 
L 1581 4331 
L 1581 2375 
z
M 353 0 
L 353 331 
L 947 331 
L 947 4331 
L 353 4331 
L 353 4666 
L 2559 4666 
Q 3259 4666 3668 4311 
Q 4078 3956 4078 3353 
Q 4078 2753 3668 2397 
Q 3259 2041 2559 2041 
L 1581 2041 
L 1581 331 
L 2303 331 
L 2303 0 
L 353 0 
z
" transform="scale(0.015625)"/>
       <path id="DejaVuSerif-29" d="M 453 -997 
L 453 -691 
Q 934 -359 1145 242 
Q 1356 844 1356 1931 
Q 1356 3022 1145 3623 
Q 934 4225 453 4556 
L 453 4863 
Q 1216 4522 1603 3783 
Q 1991 3044 1991 1931 
Q 1991 822 1603 83 
Q 1216 -656 453 -997 
z
" transform="scale(0.015625)"/>
      </defs>
      <use xlink:href="#DejaVuSerif-Italic-44" transform="translate(0 0.578125)"/>
      <use xlink:href="#DejaVuSerif-4b" transform="translate(80.175781 -14.99375) scale(0.7)"/>
      <use xlink:href="#DejaVuSerif-4c" transform="translate(132.470703 -14.99375) scale(0.7)"/>
      <use xlink:href="#DejaVuSerif-28" transform="translate(181.550391 0.578125)"/>
      <use xlink:href="#DejaVuSerif-44" transform="translate(220.564063 0.578125)"/>
      <use xlink:href="#DejaVuSerif-4f" transform="translate(300.739844 0.578125)"/>
      <use xlink:href="#DejaVuSerif-53" transform="translate(382.722266 0.578125)"/>
      <use xlink:href="#DejaVuSerif-7c" transform="translate(451.228125 0.578125)"/>
      <use xlink:href="#DejaVuSerif-7c" transform="translate(484.919531 0.578125)"/>
      <use xlink:href="#DejaVuSerif-4d" transform="translate(518.610937 0.578125)"/>
      <use xlink:href="#DejaVuSerif-50" transform="translate(621.003516 0.578125)"/>
      <use xlink:href="#DejaVuSerif-29" transform="translate(688.288672 0.578125)"/>
     </g>
    </g>
   </g>
   <g id="line2d_31">
    <path d="M -1 0.301035 
L 0.53565 1.448042 
L 4.304192 4.262839 
L 8.072735 7.077636 
L 11.841277 9.892433 
L 15.609819 12.707229 
L 19.378362 15.522026 
L 23.146904 18.336823 
L 26.915446 21.15162 
L 30.683988 23.966417 
L 34.452531 26.781214 
L 38.221073 29.596011 
L 41.989615 32.410807 
L 45.758157 35.225604 
L 49.5267 38.040401 
L 53.295242 40.855198 
L 57.063784 43.669995 
L 60.832326 46.484792 
L 64.600869 49.299588 
L 68.369411 52.114385 
L 72.137953 54.929182 
L 75.906495 57.743979 
L 79.675038 60.558776 
L 83.44358 63.373573 
L 87.212122 66.188369 
L 90.980664 69.003166 
L 94.749207 71.817963 
L 98.517749 74.63276 
L 102.286291 77.447557 
L 106.054833 80.262354 
L 109.823376 83.07715 
L 113.591918 85.891947 
L 117.36046 88.706744 
L 121.129002 91.521541 
L 124.897545 94.336338 
L 128.666087 97.151135 
L 132.434629 99.965931 
L 136.203172 102.780728 
L 139.971714 105.595525 
L 143.740256 108.410322 
L 147.508798 111.225119 
L 151.277341 114.039916 
L 155.045883 116.854713 
L 158.814425 119.669509 
L 162.582967 122.484306 
L 166.35151 125.299103 
L 170.120052 128.1139 
L 173.888594 130.928697 
L 177.657136 133.743494 
L 181.425679 136.55829 
L 185.194221 139.373087 
L 188.962763 142.187884 
L 192.731305 145.002681 
L 196.499848 147.817478 
L 200.26839 150.632275 
L 204.036932 153.447071 
L 207.805474 156.261868 
L 211.574017 159.076665 
L 215.342559 161.891462 
L 219.111101 164.706259 
L 222.879643 167.521056 
L 226.648186 170.335852 
L 230.416728 173.150649 
L 234.18527 175.965446 
L 237.953812 178.780243 
L 241.722355 181.59504 
L 245.490897 184.409837 
L 249.259439 187.224633 
L 253.027982 190.03943 
L 256.796524 192.854227 
L 260.565066 195.669024 
L 264.333608 198.483821 
L 268.102151 201.298618 
L 271.870693 204.113415 
L 275.639235 206.928211 
L 279.407777 209.743008 
L 283.17632 212.557805 
L 286.944862 215.372602 
L 290.713404 218.187399 
L 294.481946 221.002196 
L 298.250489 223.816992 
L 302.019031 226.631789 
L 305.787573 229.446586 
L 309.556115 232.261383 
L 313.324658 235.07618 
L 317.0932 237.890977 
L 320.861742 240.705773 
L 324.630284 243.52057 
L 328.398827 246.335367 
L 332.167369 249.150164 
L 335.935911 251.964961 
L 339.704453 254.779758 
" clip-path="url(#p5717b3f879)" style="fill: none; stroke-dasharray: 3.7,1.6; stroke-dashoffset: 0; stroke: #8c8c8c"/>
   </g>
   <g id="patch_3">
    <path d="M 49.5267 254.625354 
L 49.5267 7.982646 
" style="fill: none; stroke: #000000; stroke-linejoin: miter; stroke-linecap: square"/>
   </g>
   <g id="patch_4">
    <path d="M 422.612383 254.625354 
L 422.612383 7.982646 
" style="fill: none; stroke: #000000; stroke-linejoin: miter; stroke-linecap: square"/>
   </g>
   <g id="patch_5">
    <path d="M 49.5267 254.625354 
L 422.612383 254.625354 
" style="fill: none; stroke: #000000; stroke-linejoin: miter; stroke-linecap: square"/>
   </g>
   <g id="patch_6">
    <path d="M 49.5267 7.982646 
L 422.612383 7.982646 
" style="fill: none; stroke: #000000; stroke-linejoin: miter; stroke-linecap: square"/>
   </g>
   <g id="line2d_32">
    <path d="M 30.063322 -1 
L 49.5267 37.847701 
L 90.980664 78.442566 
L 132.434629 101.997346 
L 173.888594 111.902371 
" clip-path="url(#p5717b3f879)" style="fill: none; stroke: #4c72b0; stroke-width: 2"/>
   </g>
   <g id="line2d_33">
    <path clip-path="url(#p5717b3f879)" style="fill: none; stroke: #000000; stroke-width: 2"/>
   </g>
   <g id="line2d_34">
    <path clip-path="url(#p5717b3f879)" style="fill: none; stroke: #000000; stroke-width: 2"/>
   </g>
   <g id="line2d_35">
    <path d="M 49.5267 38.022328 
L 49.5267 37.673753 
" clip-path="url(#p5717b3f879)" style="fill: none; stroke: #000000; stroke-width: 2"/>
   </g>
   <g id="line2d_36">
    <path d="M 90.980664 78.725996 
L 90.980664 78.160924 
" clip-path="url(#p5717b3f879)" style="fill: none; stroke: #000000; stroke-width: 2"/>
   </g>
   <g id="line2d_37">
    <path d="M 132.434629 102.380722 
L 132.434629 101.617232 
" clip-path="url(#p5717b3f879)" style="fill: none; stroke: #000000; stroke-width: 2"/>
   </g>
   <g id="line2d_38">
    <path d="M 173.888594 112.233117 
L 173.888594 111.574056 
" clip-path="url(#p5717b3f879)" style="fill: none; stroke: #000000; stroke-width: 2"/>
   </g>
   <g id="PathCollection_1">
    <defs>
     <path id="m304dee7d6c" d="M -0.765367 -1.847759 
L -1.847759 -0.765367 
L -1.847759 0.765367 
L -0.765367 1.847759 
L 0.765367 1.847759 
L 1.847759 0.765367 
L 1.847759 -0.765367 
L 0.765367 -1.847759 
z
" style="stroke: #000000"/>
    </defs>
    <g clip-path="url(#p5717b3f879)">
     <use xlink:href="#m304dee7d6c" x="30.063322" y="-1" style="fill: #4c72b0; stroke: #000000"/>
     <use xlink:href="#m304dee7d6c" x="49.5267" y="37.847701" style="fill: #4c72b0; stroke: #000000"/>
     <use xlink:href="#m304dee7d6c" x="90.980664" y="78.442566" style="fill: #4c72b0; stroke: #000000"/>
     <use xlink:href="#m304dee7d6c" x="132.434629" y="101.997346" style="fill: #4c72b0; stroke: #000000"/>
     <use xlink:href="#m304dee7d6c" x="173.888594" y="111.902371" style="fill: #4c72b0; stroke: #000000"/>
    </g>
   </g>
   <g id="PathCollection_2">
    <defs>
     <path id="m7990b7271a" d="M 2 0 
L -2 -0 
" style="stroke: #000000"/>
    </defs>
    <g clip-path="url(#p5717b3f879)"/>
   </g>
   <g id="PathCollection_3">
    <g clip-path="url(#p5717b3f879)"/>
   </g>
   <g id="PathCollection_4">
    <g clip-path="url(#p5717b3f879)">
     <use xlink:href="#m7990b7271a" x="49.5267" y="38.022328" style="stroke: #000000"/>
     <use xlink:href="#m7990b7271a" x="49.5267" y="37.673753" style="stroke: #000000"/>
    </g>
   </g>
   <g id="PathCollection_5">
    <g clip-path="url(#p5717b3f879)">
     <use xlink:href="#m7990b7271a" x="90.980664" y="78.725996" style="stroke: #000000"/>
     <use xlink:href="#m7990b7271a" x="90.980664" y="78.160924" style="stroke: #000000"/>
    </g>
   </g>
   <g id="PathCollection_6">
    <g clip-path="url(#p5717b3f879)">
     <use xlink:href="#m7990b7271a" x="132.434629" y="102.380722" style="stroke: #000000"/>
     <use xlink:href="#m7990b7271a" x="132.434629" y="101.617232" style="stroke: #000000"/>
    </g>
   </g>
   <g id="PathCollection_7">
    <g clip-path="url(#p5717b3f879)">
     <use xlink:href="#m7990b7271a" x="173.888594" y="112.233117" style="stroke: #000000"/>
     <use xlink:href="#m7990b7271a" x="173.888594" y="111.574056" style="stroke: #000000"/>
    </g>
   </g>
   <g id="line2d_39">
    <path d="M 30.51225 -1 
L 49.5267 33.637206 
L 90.980664 69.021451 
L 132.434629 101.924663 
L 173.888594 130.133569 
L 215.342559 148.581982 
L 256.796524 151.632931 
" clip-path="url(#p5717b3f879)" style="fill: none; stroke: #dd8452; stroke-width: 2"/>
   </g>
   <g id="line2d_40">
    <path clip-path="url(#p5717b3f879)" style="fill: none; stroke: #000000; stroke-width: 2"/>
   </g>
   <g id="line2d_41">
    <path clip-path="url(#p5717b3f879)" style="fill: none; stroke: #000000; stroke-width: 2"/>
   </g>
   <g id="line2d_42">
    <path d="M 49.5267 33.784364 
L 49.5267 33.490531 
" clip-path="url(#p5717b3f879)" style="fill: none; stroke: #000000; stroke-width: 2"/>
   </g>
   <g id="line2d_43">
    <path d="M 90.980664 69.210505 
L 90.980664 68.833194 
" clip-path="url(#p5717b3f879)" style="fill: none; stroke: #000000; stroke-width: 2"/>
   </g>
   <g id="line2d_44">
    <path d="M 132.434629 102.300797 
L 132.434629 101.55167 
" clip-path="url(#p5717b3f879)" style="fill: none; stroke: #000000; stroke-width: 2"/>
   </g>
   <g id="line2d_45">
    <path d="M 173.888594 130.565098 
L 173.888594 129.70617 
" clip-path="url(#p5717b3f879)" style="fill: none; stroke: #000000; stroke-width: 2"/>
   </g>
   <g id="line2d_46">
    <path d="M 215.342559 149.114975 
L 215.342559 148.055275 
" clip-path="url(#p5717b3f879)" style="fill: none; stroke: #000000; stroke-width: 2"/>
   </g>
   <g id="line2d_47">
    <path d="M 256.796524 152.073546 
L 256.796524 151.19662 
" clip-path="url(#p5717b3f879)" style="fill: none; stroke: #000000; stroke-width: 2"/>
   </g>
   <g id="PathCollection_8">
    <defs>
     <path id="m64abe7f4bc" d="M -0.765367 -1.847759 
L -1.847759 -0.765367 
L -1.847759 0.765367 
L -0.765367 1.847759 
L 0.765367 1.847759 
L 1.847759 0.765367 
L 1.847759 -0.765367 
L 0.765367 -1.847759 
z
" style="stroke: #000000"/>
    </defs>
    <g clip-path="url(#p5717b3f879)">
     <use xlink:href="#m64abe7f4bc" x="30.51225" y="-1" style="fill: #dd8452; stroke: #000000"/>
     <use xlink:href="#m64abe7f4bc" x="49.5267" y="33.637206" style="fill: #dd8452; stroke: #000000"/>
     <use xlink:href="#m64abe7f4bc" x="90.980664" y="69.021451" style="fill: #dd8452; stroke: #000000"/>
     <use xlink:href="#m64abe7f4bc" x="132.434629" y="101.924663" style="fill: #dd8452; stroke: #000000"/>
     <use xlink:href="#m64abe7f4bc" x="173.888594" y="130.133569" style="fill: #dd8452; stroke: #000000"/>
     <use xlink:href="#m64abe7f4bc" x="215.342559" y="148.581982" style="fill: #dd8452; stroke: #000000"/>
     <use xlink:href="#m64abe7f4bc" x="256.796524" y="151.632931" style="fill: #dd8452; stroke: #000000"/>
    </g>
   </g>
   <g id="PathCollection_9">
    <g clip-path="url(#p5717b3f879)"/>
   </g>
   <g id="PathCollection_10">
    <g clip-path="url(#p5717b3f879)"/>
   </g>
   <g id="PathCollection_11">
    <g clip-path="url(#p5717b3f879)">
     <use xlink:href="#m7990b7271a" x="49.5267" y="33.784364" style="stroke: #000000"/>
     <use xlink:href="#m7990b7271a" x="49.5267" y="33.490531" style="stroke: #000000"/>
    </g>
   </g>
   <g id="PathCollection_12">
    <g clip-path="url(#p5717b3f879)">
     <use xlink:href="#m7990b7271a" x="90.980664" y="69.210505" style="stroke: #000000"/>
     <use xlink:href="#m7990b7271a" x="90.980664" y="68.833194" style="stroke: #000000"/>
    </g>
   </g>
   <g id="PathCollection_13">
    <g clip-path="url(#p5717b3f879)">
     <use xlink:href="#m7990b7271a" x="132.434629" y="102.300797" style="stroke: #000000"/>
     <use xlink:href="#m7990b7271a" x="132.434629" y="101.55167" style="stroke: #000000"/>
    </g>
   </g>
   <g id="PathCollection_14">
    <g clip-path="url(#p5717b3f879)">
     <use xlink:href="#m7990b7271a" x="173.888594" y="130.565098" style="stroke: #000000"/>
     <use xlink:href="#m7990b7271a" x="173.888594" y="129.70617" style="stroke: #000000"/>
    </g>
   </g>
   <g id="PathCollection_15">
    <g clip-path="url(#p5717b3f879)">
     <use xlink:href="#m7990b7271a" x="215.342559" y="149.114975" style="stroke: #000000"/>
     <use xlink:href="#m7990b7271a" x="215.342559" y="148.055275" style="stroke: #000000"/>
    </g>
   </g>
   <g id="PathCollection_16">
    <g clip-path="url(#p5717b3f879)">
     <use xlink:href="#m7990b7271a" x="256.796524" y="152.073546" style="stroke: #000000"/>
     <use xlink:href="#m7990b7271a" x="256.796524" y="151.19662" style="stroke: #000000"/>
    </g>
   </g>
   <g id="line2d_48">
    <path d="M 29.040468 -1 
L 49.5267 36.195121 
L 90.980664 67.823766 
L 132.434629 95.409699 
L 173.888594 128.156453 
L 215.342559 163.958748 
L 256.796524 186.536433 
L 298.250489 196.943173 
L 339.704453 197.386565 
" clip-path="url(#p5717b3f879)" style="fill: none; stroke: #55a868; stroke-width: 2"/>
   </g>
   <g id="line2d_49">
    <path clip-path="url(#p5717b3f879)" style="fill: none; stroke: #000000; stroke-width: 2"/>
   </g>
   <g id="line2d_50">
    <path clip-path="url(#p5717b3f879)" style="fill: none; stroke: #000000; stroke-width: 2"/>
   </g>
   <g id="line2d_51">
    <path d="M 49.5267 36.428966 
L 49.5267 35.962494 
" clip-path="url(#p5717b3f879)" style="fill: none; stroke: #000000; stroke-width: 2"/>
   </g>
   <g id="line2d_52">
    <path d="M 90.980664 67.950727 
L 90.980664 67.697165 
" clip-path="url(#p5717b3f879)" style="fill: none; stroke: #000000; stroke-width: 2"/>
   </g>
   <g id="line2d_53">
    <path d="M 132.434629 95.610164 
L 132.434629 95.210131 
" clip-path="url(#p5717b3f879)" style="fill: none; stroke: #000000; stroke-width: 2"/>
   </g>
   <g id="line2d_54">
    <path d="M 173.888594 128.540852 
L 173.888594 127.775332 
" clip-path="url(#p5717b3f879)" style="fill: none; stroke: #000000; stroke-width: 2"/>
   </g>
   <g id="line2d_55">
    <path d="M 215.342559 164.461072 
L 215.342559 163.462011 
" clip-path="url(#p5717b3f879)" style="fill: none; stroke: #000000; stroke-width: 2"/>
   </g>
   <g id="line2d_56">
    <path d="M 256.796524 187.212737 
L 256.796524 185.870215 
" clip-path="url(#p5717b3f879)" style="fill: none; stroke: #000000; stroke-width: 2"/>
   </g>
   <g id="line2d_57">
    <path d="M 298.250489 198.009804 
L 298.250489 195.901418 
" clip-path="url(#p5717b3f879)" style="fill: none; stroke: #000000; stroke-width: 2"/>
   </g>
   <g id="line2d_58">
    <path d="M 339.704453 198.666555 
L 339.704453 196.142232 
" clip-path="url(#p5717b3f879)" style="fill: none; stroke: #000000; stroke-width: 2"/>
   </g>
   <g id="PathCollection_17">
    <defs>
     <path id="m4b4f8f33b9" d="M -0.765367 -1.847759 
L -1.847759 -0.765367 
L -1.847759 0.765367 
L -0.765367 1.847759 
L 0.765367 1.847759 
L 1.847759 0.765367 
L 1.847759 -0.765367 
L 0.765367 -1.847759 
z
" style="stroke: #000000"/>
    </defs>
    <g clip-path="url(#p5717b3f879)">
     <use xlink:href="#m4b4f8f33b9" x="29.040468" y="-1" style="fill: #55a868; stroke: #000000"/>
     <use xlink:href="#m4b4f8f33b9" x="49.5267" y="36.195121" style="fill: #55a868; stroke: #000000"/>
     <use xlink:href="#m4b4f8f33b9" x="90.980664" y="67.823766" style="fill: #55a868; stroke: #000000"/>
     <use xlink:href="#m4b4f8f33b9" x="132.434629" y="95.409699" style="fill: #55a868; stroke: #000000"/>
     <use xlink:href="#m4b4f8f33b9" x="173.888594" y="128.156453" style="fill: #55a868; stroke: #000000"/>
     <use xlink:href="#m4b4f8f33b9" x="215.342559" y="163.958748" style="fill: #55a868; stroke: #000000"/>
     <use xlink:href="#m4b4f8f33b9" x="256.796524" y="186.536433" style="fill: #55a868; stroke: #000000"/>
     <use xlink:href="#m4b4f8f33b9" x="298.250489" y="196.943173" style="fill: #55a868; stroke: #000000"/>
     <use xlink:href="#m4b4f8f33b9" x="339.704453" y="197.386565" style="fill: #55a868; stroke: #000000"/>
    </g>
   </g>
   <g id="PathCollection_18">
    <g clip-path="url(#p5717b3f879)"/>
   </g>
   <g id="PathCollection_19">
    <g clip-path="url(#p5717b3f879)"/>
   </g>
   <g id="PathCollection_20">
    <g clip-path="url(#p5717b3f879)">
     <use xlink:href="#m7990b7271a" x="49.5267" y="36.428966" style="stroke: #000000"/>
     <use xlink:href="#m7990b7271a" x="49.5267" y="35.962494" style="stroke: #000000"/>
    </g>
   </g>
   <g id="PathCollection_21">
    <g clip-path="url(#p5717b3f879)">
     <use xlink:href="#m7990b7271a" x="90.980664" y="67.950727" style="stroke: #000000"/>
     <use xlink:href="#m7990b7271a" x="90.980664" y="67.697165" style="stroke: #000000"/>
    </g>
   </g>
   <g id="PathCollection_22">
    <g clip-path="url(#p5717b3f879)">
     <use xlink:href="#m7990b7271a" x="132.434629" y="95.610164" style="stroke: #000000"/>
     <use xlink:href="#m7990b7271a" x="132.434629" y="95.210131" style="stroke: #000000"/>
    </g>
   </g>
   <g id="PathCollection_23">
    <g clip-path="url(#p5717b3f879)">
     <use xlink:href="#m7990b7271a" x="173.888594" y="128.540852" style="stroke: #000000"/>
     <use xlink:href="#m7990b7271a" x="173.888594" y="127.775332" style="stroke: #000000"/>
    </g>
   </g>
   <g id="PathCollection_24">
    <g clip-path="url(#p5717b3f879)">
     <use xlink:href="#m7990b7271a" x="215.342559" y="164.461072" style="stroke: #000000"/>
     <use xlink:href="#m7990b7271a" x="215.342559" y="163.462011" style="stroke: #000000"/>
    </g>
   </g>
   <g id="PathCollection_25">
    <g clip-path="url(#p5717b3f879)">
     <use xlink:href="#m7990b7271a" x="256.796524" y="187.212737" style="stroke: #000000"/>
     <use xlink:href="#m7990b7271a" x="256.796524" y="185.870215" style="stroke: #000000"/>
    </g>
   </g>
   <g id="PathCollection_26">
    <g clip-path="url(#p5717b3f879)">
     <use xlink:href="#m7990b7271a" x="298.250489" y="198.009804" style="stroke: #000000"/>
     <use xlink:href="#m7990b7271a" x="298.250489" y="195.901418" style="stroke: #000000"/>
    </g>
   </g>
   <g id="PathCollection_27">
    <g clip-path="url(#p5717b3f879)">
     <use xlink:href="#m7990b7271a" x="339.704453" y="198.666555" style="stroke: #000000"/>
     <use xlink:href="#m7990b7271a" x="339.704453" y="196.142232" style="stroke: #000000"/>
    </g>
   </g>
   <g id="line2d_59">
    <path d="M 26.678344 -1 
L 49.5267 40.18985 
L 90.980664 72.944591 
L 132.434629 98.9708 
L 173.888594 125.832954 
L 215.342559 159.041497 
L 256.796524 200.842646 
L 298.250489 230.305065 
L 339.704453 247.29299 
L 381.158418 244.601347 
L 422.612383 243.163985 
" clip-path="url(#p5717b3f879)" style="fill: none; stroke: #c44e52; stroke-width: 2"/>
   </g>
   <g id="line2d_60">
    <path clip-path="url(#p5717b3f879)" style="fill: none; stroke: #000000; stroke-width: 2"/>
   </g>
   <g id="line2d_61">
    <path clip-path="url(#p5717b3f879)" style="fill: none; stroke: #000000; stroke-width: 2"/>
   </g>
   <g id="line2d_62">
    <path d="M 49.5267 40.328715 
L 49.5267 40.051416 
" clip-path="url(#p5717b3f879)" style="fill: none; stroke: #000000; stroke-width: 2"/>
   </g>
   <g id="line2d_63">
    <path d="M 90.980664 73.209341 
L 90.980664 72.681401 
" clip-path="url(#p5717b3f879)" style="fill: none; stroke: #000000; stroke-width: 2"/>
   </g>
   <g id="line2d_64">
    <path d="M 132.434629 99.233668 
L 132.434629 98.709469 
" clip-path="url(#p5717b3f879)" style="fill: none; stroke: #000000; stroke-width: 2"/>
   </g>
   <g id="line2d_65">
    <path d="M 173.888594 126.129301 
L 173.888594 125.538561 
" clip-path="url(#p5717b3f879)" style="fill: none; stroke: #000000; stroke-width: 2"/>
   </g>
   <g id="line2d_66">
    <path d="M 215.342559 159.52413 
L 215.342559 158.564023 
" clip-path="url(#p5717b3f879)" style="fill: none; stroke: #000000; stroke-width: 2"/>
   </g>
   <g id="line2d_67">
    <path d="M 256.796524 201.896863 
L 256.796524 199.812736 
" clip-path="url(#p5717b3f879)" style="fill: none; stroke: #000000; stroke-width: 2"/>
   </g>
   <g id="line2d_68">
    <path d="M 298.250489 232.4391 
L 298.250489 228.26835 
" clip-path="url(#p5717b3f879)" style="fill: none; stroke: #000000; stroke-width: 2"/>
   </g>
   <g id="line2d_69">
    <path d="M 339.704453 248.30533 
L 339.704453 246.303084 
" clip-path="url(#p5717b3f879)" style="fill: none; stroke: #000000; stroke-width: 2"/>
   </g>
   <g id="line2d_70">
    <path d="M 381.158418 246.978211 
L 381.158418 242.344591 
" clip-path="url(#p5717b3f879)" style="fill: none; stroke: #000000; stroke-width: 2"/>
   </g>
   <g id="line2d_71">
    <path d="M 422.612383 245.465758 
L 422.612383 240.975029 
" clip-path="url(#p5717b3f879)" style="fill: none; stroke: #000000; stroke-width: 2"/>
   </g>
   <g id="PathCollection_28">
    <defs>
     <path id="m959f176e6b" d="M -0.765367 -1.847759 
L -1.847759 -0.765367 
L -1.847759 0.765367 
L -0.765367 1.847759 
L 0.765367 1.847759 
L 1.847759 0.765367 
L 1.847759 -0.765367 
L 0.765367 -1.847759 
z
" style="stroke: #000000"/>
    </defs>
    <g clip-path="url(#p5717b3f879)">
     <use xlink:href="#m959f176e6b" x="26.678344" y="-1" style="fill: #c44e52; stroke: #000000"/>
     <use xlink:href="#m959f176e6b" x="49.5267" y="40.18985" style="fill: #c44e52; stroke: #000000"/>
     <use xlink:href="#m959f176e6b" x="90.980664" y="72.944591" style="fill: #c44e52; stroke: #000000"/>
     <use xlink:href="#m959f176e6b" x="132.434629" y="98.9708" style="fill: #c44e52; stroke: #000000"/>
     <use xlink:href="#m959f176e6b" x="173.888594" y="125.832954" style="fill: #c44e52; stroke: #000000"/>
     <use xlink:href="#m959f176e6b" x="215.342559" y="159.041497" style="fill: #c44e52; stroke: #000000"/>
     <use xlink:href="#m959f176e6b" x="256.796524" y="200.842646" style="fill: #c44e52; stroke: #000000"/>
     <use xlink:href="#m959f176e6b" x="298.250489" y="230.305065" style="fill: #c44e52; stroke: #000000"/>
     <use xlink:href="#m959f176e6b" x="339.704453" y="247.29299" style="fill: #c44e52; stroke: #000000"/>
     <use xlink:href="#m959f176e6b" x="381.158418" y="244.601347" style="fill: #c44e52; stroke: #000000"/>
     <use xlink:href="#m959f176e6b" x="422.612383" y="243.163985" style="fill: #c44e52; stroke: #000000"/>
    </g>
   </g>
   <g id="PathCollection_29">
    <g clip-path="url(#p5717b3f879)"/>
   </g>
   <g id="PathCollection_30">
    <g clip-path="url(#p5717b3f879)"/>
   </g>
   <g id="PathCollection_31">
    <g clip-path="url(#p5717b3f879)">
     <use xlink:href="#m7990b7271a" x="49.5267" y="40.328715" style="stroke: #000000"/>
     <use xlink:href="#m7990b7271a" x="49.5267" y="40.051416" style="stroke: #000000"/>
    </g>
   </g>
   <g id="PathCollection_32">
    <g clip-path="url(#p5717b3f879)">
     <use xlink:href="#m7990b7271a" x="90.980664" y="73.209341" style="stroke: #000000"/>
     <use xlink:href="#m7990b7271a" x="90.980664" y="72.681401" style="stroke: #000000"/>
    </g>
   </g>
   <g id="PathCollection_33">
    <g clip-path="url(#p5717b3f879)">
     <use xlink:href="#m7990b7271a" x="132.434629" y="99.233668" style="stroke: #000000"/>
     <use xlink:href="#m7990b7271a" x="132.434629" y="98.709469" style="stroke: #000000"/>
    </g>
   </g>
   <g id="PathCollection_34">
    <g clip-path="url(#p5717b3f879)">
     <use xlink:href="#m7990b7271a" x="173.888594" y="126.129301" style="stroke: #000000"/>
     <use xlink:href="#m7990b7271a" x="173.888594" y="125.538561" style="stroke: #000000"/>
    </g>
   </g>
   <g id="PathCollection_35">
    <g clip-path="url(#p5717b3f879)">
     <use xlink:href="#m7990b7271a" x="215.342559" y="159.52413" style="stroke: #000000"/>
     <use xlink:href="#m7990b7271a" x="215.342559" y="158.564023" style="stroke: #000000"/>
    </g>
   </g>
   <g id="PathCollection_36">
    <g clip-path="url(#p5717b3f879)">
     <use xlink:href="#m7990b7271a" x="256.796524" y="201.896863" style="stroke: #000000"/>
     <use xlink:href="#m7990b7271a" x="256.796524" y="199.812736" style="stroke: #000000"/>
    </g>
   </g>
   <g id="PathCollection_37">
    <g clip-path="url(#p5717b3f879)">
     <use xlink:href="#m7990b7271a" x="298.250489" y="232.4391" style="stroke: #000000"/>
     <use xlink:href="#m7990b7271a" x="298.250489" y="228.26835" style="stroke: #000000"/>
    </g>
   </g>
   <g id="PathCollection_38">
    <g clip-path="url(#p5717b3f879)">
     <use xlink:href="#m7990b7271a" x="339.704453" y="248.30533" style="stroke: #000000"/>
     <use xlink:href="#m7990b7271a" x="339.704453" y="246.303084" style="stroke: #000000"/>
    </g>
   </g>
   <g id="PathCollection_39">
    <g clip-path="url(#p5717b3f879)">
     <use xlink:href="#m7990b7271a" x="381.158418" y="246.978211" style="stroke: #000000"/>
     <use xlink:href="#m7990b7271a" x="381.158418" y="242.344591" style="stroke: #000000"/>
    </g>
   </g>
   <g id="PathCollection_40">
    <g clip-path="url(#p5717b3f879)">
     <use xlink:href="#m7990b7271a" x="422.612383" y="245.465758" style="stroke: #000000"/>
     <use xlink:href="#m7990b7271a" x="422.612383" y="240.975029" style="stroke: #000000"/>
    </g>
   </g>
   <g id="legend_1">
    <g id="patch_7">
     <path d="M 293.612383 112.095146 
L 417.612383 112.095146 
L 417.612383 12.982646 
L 293.612383 12.982646 
z
" style="fill: #ffffff; stroke: #000000; stroke-linejoin: miter"/>
    </g>
    <g id="line2d_72">
     <path d="M 301.612383 25.082646 
L 311.612383 25.082646 
L 321.612383 25.082646 
" style="fill: none; stroke-dasharray: 4.625,2; stroke-dashoffset: 0; stroke: #8c8c8c; stroke-width: 1.25; stroke-linejoin: miter"/>
    </g>
    <g id="text_16">
     <!-- $c_1\exp(-\gamma N)$ -->
     <g transform="translate(329.612383 28.582646) scale(0.1 -0.1)">
      <defs>
       <path id="DejaVuSans-Oblique-63" d="M 3431 3366 
L 3316 2797 
Q 3109 2947 2876 3022 
Q 2644 3097 2394 3097 
Q 2119 3097 1870 3000 
Q 1622 2903 1453 2725 
Q 1184 2453 1037 2087 
Q 891 1722 891 1331 
Q 891 859 1127 628 
Q 1363 397 1844 397 
Q 2081 397 2348 469 
Q 2616 541 2906 684 
L 2797 116 
Q 2547 13 2283 -39 
Q 2019 -91 1741 -91 
Q 1044 -91 669 257 
Q 294 606 294 1253 
Q 294 1797 489 2255 
Q 684 2713 1069 3078 
Q 1331 3328 1684 3456 
Q 2038 3584 2456 3584 
Q 2700 3584 2940 3529 
Q 3181 3475 3431 3366 
z
" transform="scale(0.015625)"/>
       <path id="DejaVuSans-31" d="M 794 531 
L 1825 531 
L 1825 4091 
L 703 3866 
L 703 4441 
L 1819 4666 
L 2450 4666 
L 2450 531 
L 3481 531 
L 3481 0 
L 794 0 
L 794 531 
z
" transform="scale(0.015625)"/>
       <path id="DejaVuSans-65" d="M 3597 1894 
L 3597 1613 
L 953 1613 
Q 991 1019 1311 708 
Q 1631 397 2203 397 
Q 2534 397 2845 478 
Q 3156 559 3463 722 
L 3463 178 
Q 3153 47 2828 -22 
Q 2503 -91 2169 -91 
Q 1331 -91 842 396 
Q 353 884 353 1716 
Q 353 2575 817 3079 
Q 1281 3584 2069 3584 
Q 2775 3584 3186 3129 
Q 3597 2675 3597 1894 
z
M 3022 2063 
Q 3016 2534 2758 2815 
Q 2500 3097 2075 3097 
Q 1594 3097 1305 2825 
Q 1016 2553 972 2059 
L 3022 2063 
z
" transform="scale(0.015625)"/>
       <path id="DejaVuSans-78" d="M 3513 3500 
L 2247 1797 
L 3578 0 
L 2900 0 
L 1881 1375 
L 863 0 
L 184 0 
L 1544 1831 
L 300 3500 
L 978 3500 
L 1906 2253 
L 2834 3500 
L 3513 3500 
z
" transform="scale(0.015625)"/>
       <path id="DejaVuSans-70" d="M 1159 525 
L 1159 -1331 
L 581 -1331 
L 581 3500 
L 1159 3500 
L 1159 2969 
Q 1341 3281 1617 3432 
Q 1894 3584 2278 3584 
Q 2916 3584 3314 3078 
Q 3713 2572 3713 1747 
Q 3713 922 3314 415 
Q 2916 -91 2278 -91 
Q 1894 -91 1617 61 
Q 1341 213 1159 525 
z
M 3116 1747 
Q 3116 2381 2855 2742 
Q 2594 3103 2138 3103 
Q 1681 3103 1420 2742 
Q 1159 2381 1159 1747 
Q 1159 1113 1420 752 
Q 1681 391 2138 391 
Q 2594 391 2855 752 
Q 3116 1113 3116 1747 
z
" transform="scale(0.015625)"/>
       <path id="DejaVuSans-28" d="M 1984 4856 
Q 1566 4138 1362 3434 
Q 1159 2731 1159 2009 
Q 1159 1288 1364 580 
Q 1569 -128 1984 -844 
L 1484 -844 
Q 1016 -109 783 600 
Q 550 1309 550 2009 
Q 550 2706 781 3412 
Q 1013 4119 1484 4856 
L 1984 4856 
z
" transform="scale(0.015625)"/>
       <path id="DejaVuSans-2212" d="M 678 2272 
L 4684 2272 
L 4684 1741 
L 678 1741 
L 678 2272 
z
" transform="scale(0.015625)"/>
       <path id="DejaVuSans-Oblique-3b3" d="M 1491 2950 
L 1838 788 
L 3456 3500 
L 4066 3500 
L 1972 0 
L 1713 -1331 
L 1138 -1331 
L 1397 0 
L 988 2613 
Q 925 3006 628 3006 
L 475 3006 
L 569 3500 
L 788 3500 
Q 1403 3500 1491 2950 
z
" transform="scale(0.015625)"/>
       <path id="DejaVuSans-Oblique-4e" d="M 1081 4666 
L 1931 4666 
L 3219 666 
L 4000 4666 
L 4616 4666 
L 3706 0 
L 2853 0 
L 1569 4025 
L 788 0 
L 172 0 
L 1081 4666 
z
" transform="scale(0.015625)"/>
       <path id="DejaVuSans-29" d="M 513 4856 
L 1013 4856 
Q 1481 4119 1714 3412 
Q 1947 2706 1947 2009 
Q 1947 1309 1714 600 
Q 1481 -109 1013 -844 
L 513 -844 
Q 928 -128 1133 580 
Q 1338 1288 1338 2009 
Q 1338 2731 1133 3434 
Q 928 4138 513 4856 
z
" transform="scale(0.015625)"/>
      </defs>
      <use xlink:href="#DejaVuSans-Oblique-63" transform="translate(0 0.125)"/>
      <use xlink:href="#DejaVuSans-31" transform="translate(54.980469 -16.28125) scale(0.7)"/>
      <use xlink:href="#DejaVuSans-65" transform="translate(102.250977 0.125)"/>
      <use xlink:href="#DejaVuSans-78" transform="translate(163.774414 0.125)"/>
      <use xlink:href="#DejaVuSans-70" transform="translate(222.954102 0.125)"/>
      <use xlink:href="#DejaVuSans-28" transform="translate(286.430664 0.125)"/>
      <use xlink:href="#DejaVuSans-2212" transform="translate(325.444336 0.125)"/>
      <use xlink:href="#DejaVuSans-Oblique-3b3" transform="translate(409.233398 0.125)"/>
      <use xlink:href="#DejaVuSans-Oblique-4e" transform="translate(468.413086 0.125)"/>
      <use xlink:href="#DejaVuSans-29" transform="translate(543.217773 0.125)"/>
     </g>
    </g>
    <g id="line2d_73">
     <path d="M 301.612383 39.782646 
L 311.612383 39.782646 
L 321.612383 39.782646 
" style="fill: none; stroke-dasharray: 4.625,2; stroke-dashoffset: 0; stroke: #8c8c8c; stroke-width: 1.25; stroke-linejoin: miter"/>
    </g>
    <g id="text_17">
     <!-- $c_2\exp(-n_H\ln(2))$ -->
     <g transform="translate(329.612383 43.282646) scale(0.1 -0.1)">
      <defs>
       <path id="DejaVuSans-32" d="M 1228 531 
L 3431 531 
L 3431 0 
L 469 0 
L 469 531 
Q 828 903 1448 1529 
Q 2069 2156 2228 2338 
Q 2531 2678 2651 2914 
Q 2772 3150 2772 3378 
Q 2772 3750 2511 3984 
Q 2250 4219 1831 4219 
Q 1534 4219 1204 4116 
Q 875 4013 500 3803 
L 500 4441 
Q 881 4594 1212 4672 
Q 1544 4750 1819 4750 
Q 2544 4750 2975 4387 
Q 3406 4025 3406 3419 
Q 3406 3131 3298 2873 
Q 3191 2616 2906 2266 
Q 2828 2175 2409 1742 
Q 1991 1309 1228 531 
z
" transform="scale(0.015625)"/>
       <path id="DejaVuSans-Oblique-6e" d="M 3566 2113 
L 3156 0 
L 2578 0 
L 2988 2091 
Q 3016 2238 3031 2350 
Q 3047 2463 3047 2528 
Q 3047 2791 2881 2937 
Q 2716 3084 2419 3084 
Q 1956 3084 1622 2776 
Q 1288 2469 1184 1941 
L 800 0 
L 225 0 
L 903 3500 
L 1478 3500 
L 1363 2950 
Q 1603 3253 1940 3418 
Q 2278 3584 2650 3584 
Q 3113 3584 3367 3334 
Q 3622 3084 3622 2631 
Q 3622 2519 3608 2391 
Q 3594 2263 3566 2113 
z
" transform="scale(0.015625)"/>
       <path id="DejaVuSans-Oblique-48" d="M 1081 4666 
L 1716 4666 
L 1344 2753 
L 3634 2753 
L 4006 4666 
L 4641 4666 
L 3731 0 
L 3097 0 
L 3531 2222 
L 1241 2222 
L 806 0 
L 172 0 
L 1081 4666 
z
" transform="scale(0.015625)"/>
       <path id="DejaVuSans-6c" d="M 603 4863 
L 1178 4863 
L 1178 0 
L 603 0 
L 603 4863 
z
" transform="scale(0.015625)"/>
       <path id="DejaVuSans-6e" d="M 3513 2113 
L 3513 0 
L 2938 0 
L 2938 2094 
Q 2938 2591 2744 2837 
Q 2550 3084 2163 3084 
Q 1697 3084 1428 2787 
Q 1159 2491 1159 1978 
L 1159 0 
L 581 0 
L 581 3500 
L 1159 3500 
L 1159 2956 
Q 1366 3272 1645 3428 
Q 1925 3584 2291 3584 
Q 2894 3584 3203 3211 
Q 3513 2838 3513 2113 
z
" transform="scale(0.015625)"/>
      </defs>
      <use xlink:href="#DejaVuSans-Oblique-63" transform="translate(0 0.015625)"/>
      <use xlink:href="#DejaVuSans-32" transform="translate(54.980469 -16.390625) scale(0.7)"/>
      <use xlink:href="#DejaVuSans-65" transform="translate(102.250977 0.015625)"/>
      <use xlink:href="#DejaVuSans-78" transform="translate(163.774414 0.015625)"/>
      <use xlink:href="#DejaVuSans-70" transform="translate(222.954102 0.015625)"/>
      <use xlink:href="#DejaVuSans-28" transform="translate(286.430664 0.015625)"/>
      <use xlink:href="#DejaVuSans-2212" transform="translate(325.444336 0.015625)"/>
      <use xlink:href="#DejaVuSans-Oblique-6e" transform="translate(409.233398 0.015625)"/>
      <use xlink:href="#DejaVuSans-Oblique-48" transform="translate(472.612305 -16.390625) scale(0.7)"/>
      <use xlink:href="#DejaVuSans-6c" transform="translate(527.983398 0.015625)"/>
      <use xlink:href="#DejaVuSans-6e" transform="translate(555.766602 0.015625)"/>
      <use xlink:href="#DejaVuSans-28" transform="translate(619.145508 0.015625)"/>
      <use xlink:href="#DejaVuSans-32" transform="translate(658.15918 0.015625)"/>
      <use xlink:href="#DejaVuSans-29" transform="translate(721.782227 0.015625)"/>
      <use xlink:href="#DejaVuSans-29" transform="translate(760.795898 0.015625)"/>
     </g>
    </g>
    <g id="line2d_74">
     <path d="M 301.612383 54.481083 
L 311.612383 54.481083 
L 321.612383 54.481083 
" style="fill: none; stroke: #4c72b0; stroke-width: 1.25; stroke-linejoin: miter"/>
     <defs>
      <path id="m056da1db62" d="M -1.530734 -3.695518 
L -3.695518 -1.530734 
L -3.695518 1.530734 
L -1.530734 3.695518 
L 1.530734 3.695518 
L 3.695518 1.530734 
L 3.695518 -1.530734 
L 1.530734 -3.695518 
z
" style="stroke: #000000; stroke-width: 2; stroke-linejoin: miter"/>
     </defs>
     <g>
      <use xlink:href="#m056da1db62" x="311.612383" y="54.481083" style="fill: #4c72b0; stroke: #000000; stroke-width: 2; stroke-linejoin: miter"/>
     </g>
    </g>
    <g id="text_18">
     <!-- N=6 -->
     <g transform="translate(329.612383 57.981083) scale(0.1 -0.1)">
      <defs>
       <path id="DejaVuSerif-4e" d="M 313 0 
L 313 331 
L 941 331 
L 941 4331 
L 313 4331 
L 313 4666 
L 1509 4666 
L 4306 984 
L 4306 4331 
L 3681 4331 
L 3681 4666 
L 5319 4666 
L 5319 4331 
L 4691 4331 
L 4691 -91 
L 4313 -91 
L 1325 3841 
L 1325 331 
L 1953 331 
L 1953 0 
L 313 0 
z
" transform="scale(0.015625)"/>
       <path id="DejaVuSerif-3d" d="M 678 2894 
L 4684 2894 
L 4684 2394 
L 678 2394 
L 678 2894 
z
M 678 1619 
L 4684 1619 
L 4684 1119 
L 678 1119 
L 678 1619 
z
" transform="scale(0.015625)"/>
      </defs>
      <use xlink:href="#DejaVuSerif-4e"/>
      <use xlink:href="#DejaVuSerif-3d" x="87.5"/>
      <use xlink:href="#DejaVuSerif-36" x="171.289062"/>
     </g>
    </g>
    <g id="line2d_75">
     <path d="M 301.612383 69.159208 
L 311.612383 69.159208 
L 321.612383 69.159208 
" style="fill: none; stroke: #dd8452; stroke-width: 1.25; stroke-linejoin: miter"/>
     <defs>
      <path id="md4fd938415" d="M -1.530734 -3.695518 
L -3.695518 -1.530734 
L -3.695518 1.530734 
L -1.530734 3.695518 
L 1.530734 3.695518 
L 3.695518 1.530734 
L 3.695518 -1.530734 
L 1.530734 -3.695518 
z
" style="stroke: #000000; stroke-width: 2; stroke-linejoin: miter"/>
     </defs>
     <g>
      <use xlink:href="#md4fd938415" x="311.612383" y="69.159208" style="fill: #dd8452; stroke: #000000; stroke-width: 2; stroke-linejoin: miter"/>
     </g>
    </g>
    <g id="text_19">
     <!-- N=8 -->
     <g transform="translate(329.612383 72.659208) scale(0.1 -0.1)">
      <use xlink:href="#DejaVuSerif-4e"/>
      <use xlink:href="#DejaVuSerif-3d" x="87.5"/>
      <use xlink:href="#DejaVuSerif-38" x="171.289062"/>
     </g>
    </g>
    <g id="line2d_76">
     <path d="M 301.612383 83.837333 
L 311.612383 83.837333 
L 321.612383 83.837333 
" style="fill: none; stroke: #55a868; stroke-width: 1.25; stroke-linejoin: miter"/>
     <defs>
      <path id="mddab240060" d="M -1.530734 -3.695518 
L -3.695518 -1.530734 
L -3.695518 1.530734 
L -1.530734 3.695518 
L 1.530734 3.695518 
L 3.695518 1.530734 
L 3.695518 -1.530734 
L 1.530734 -3.695518 
z
" style="stroke: #000000; stroke-width: 2; stroke-linejoin: miter"/>
     </defs>
     <g>
      <use xlink:href="#mddab240060" x="311.612383" y="83.837333" style="fill: #55a868; stroke: #000000; stroke-width: 2; stroke-linejoin: miter"/>
     </g>
    </g>
    <g id="text_20">
     <!-- N=10 -->
     <g transform="translate(329.612383 87.337333) scale(0.1 -0.1)">
      <use xlink:href="#DejaVuSerif-4e"/>
      <use xlink:href="#DejaVuSerif-3d" x="87.5"/>
      <use xlink:href="#DejaVuSerif-31" x="171.289062"/>
      <use xlink:href="#DejaVuSerif-30" x="234.912109"/>
     </g>
    </g>
    <g id="line2d_77">
     <path d="M 301.612383 98.515458 
L 311.612383 98.515458 
L 321.612383 98.515458 
" style="fill: none; stroke: #c44e52; stroke-width: 1.25; stroke-linejoin: miter"/>
     <defs>
      <path id="m3c3ada9ad3" d="M -1.530734 -3.695518 
L -3.695518 -1.530734 
L -3.695518 1.530734 
L -1.530734 3.695518 
L 1.530734 3.695518 
L 3.695518 1.530734 
L 3.695518 -1.530734 
L 1.530734 -3.695518 
z
" style="stroke: #000000; stroke-width: 2; stroke-linejoin: miter"/>
     </defs>
     <g>
      <use xlink:href="#m3c3ada9ad3" x="311.612383" y="98.515458" style="fill: #c44e52; stroke: #000000; stroke-width: 2; stroke-linejoin: miter"/>
     </g>
    </g>
    <g id="text_21">
     <!-- N=12 -->
     <g transform="translate(329.612383 102.015458) scale(0.1 -0.1)">
      <use xlink:href="#DejaVuSerif-4e"/>
      <use xlink:href="#DejaVuSerif-3d" x="87.5"/>
      <use xlink:href="#DejaVuSerif-31" x="171.289062"/>
      <use xlink:href="#DejaVuSerif-32" x="234.912109"/>
     </g>
    </g>
   </g>
  </g>
 </g>
 <defs>
  <clipPath id="p5717b3f879">
   <rect x="49.5267" y="7.982646" width="373.085684" height="246.642709"/>
  </clipPath>
 </defs>
</svg>
