<?xml version="1.0" encoding="utf-8" standalone="no"?>
<!DOCTYPE svg PUBLIC "-//W3C//DTD SVG 1.1//EN"
  "http://www.w3.org/Graphics/SVG/1.1/DTD/svg11.dtd">
<svg xmlns:xlink="http://www.w3.org/1999/xlink" width="432pt" height="288pt" viewBox="0 0 432 288" xmlns="http://www.w3.org/2000/svg" version="1.1">
 <metadata>
  <rdf:RDF xmlns:dc="http://purl.org/dc/elements/1.1/" xmlns:cc="http://creativecommons.org/ns#" xmlns:rdf="http://www.w3.org/1999/02/22-rdf-syntax-ns#">
   <cc:Work>
    <dc:type rdf:resource="http://purl.org/dc/dcmitype/StillImage"/>
    <dc:date>2024-07-22T17:58:39.163738</dc:date>
    <dc:format>image/svg+xml</dc:format>
    <dc:creator>
     <cc:Agent>
      <dc:title>Matplotlib v3.9.1, https://matplotlib.org/</dc:title>
     </cc:Agent>
    </dc:creator>
   </cc:Work>
  </rdf:RDF>
 </metadata>
 <defs>
  <style type="text/css">*{stroke-linejoin: round; stroke-linecap: butt}</style>
 </defs>
 <g id="figure_1">
  <g id="patch_1">
   <path d="M 0 288 
L 432 288 
L 432 0 
L 0 0 
z
" style="fill: #ffffff"/>
  </g>
  <g id="axes_1">
   <g id="patch_2">
    <path d="M 43.84733 252.281604 
L 429.165354 252.281604 
L 429.165354 19.634646 
L 43.84733 19.634646 
z
" style="fill: #ffffff"/>
   </g>
   <g id="line2d_1">
    <path d="M 160.387313 151.61348 
L 160.387313 151.547634 
" clip-path="url(#p8560b7a2c4)" style="fill: none; stroke: #000000"/>
   </g>
   <g id="line2d_2">
    <path d="M 191.674557 201.425431 
L 191.674557 200.966065 
" clip-path="url(#p8560b7a2c4)" style="fill: none; stroke: #000000"/>
   </g>
   <g id="line2d_3">
    <path d="M 222.9618 218.921736 
L 222.9618 218.215614 
" clip-path="url(#p8560b7a2c4)" style="fill: none; stroke: #000000"/>
   </g>
   <g id="line2d_4">
    <path d="M 254.249043 223.337199 
L 254.249043 222.604379 
" clip-path="url(#p8560b7a2c4)" style="fill: none; stroke: #000000"/>
   </g>
   <g id="line2d_5">
    <path d="M 285.536286 223.015201 
L 285.536286 222.337221 
" clip-path="url(#p8560b7a2c4)" style="fill: none; stroke: #000000"/>
   </g>
   <g id="line2d_6">
    <path d="M 316.823529 223.900955 
L 316.823529 223.255305 
" clip-path="url(#p8560b7a2c4)" style="fill: none; stroke: #000000"/>
   </g>
   <g id="PathCollection_1">
    <defs>
     <path id="m4d3b1f9236" d="M 2 0 
L -2 -0 
" style="stroke: #000000"/>
    </defs>
    <g clip-path="url(#p8560b7a2c4)">
     <use xlink:href="#m4d3b1f9236" x="160.387313" y="151.61348" style="stroke: #000000"/>
     <use xlink:href="#m4d3b1f9236" x="160.387313" y="151.547634" style="stroke: #000000"/>
    </g>
   </g>
   <g id="PathCollection_2">
    <g clip-path="url(#p8560b7a2c4)">
     <use xlink:href="#m4d3b1f9236" x="191.674557" y="201.425431" style="stroke: #000000"/>
     <use xlink:href="#m4d3b1f9236" x="191.674557" y="200.966065" style="stroke: #000000"/>
    </g>
   </g>
   <g id="PathCollection_3">
    <g clip-path="url(#p8560b7a2c4)">
     <use xlink:href="#m4d3b1f9236" x="222.9618" y="218.921736" style="stroke: #000000"/>
     <use xlink:href="#m4d3b1f9236" x="222.9618" y="218.215614" style="stroke: #000000"/>
    </g>
   </g>
   <g id="PathCollection_4">
    <g clip-path="url(#p8560b7a2c4)">
     <use xlink:href="#m4d3b1f9236" x="254.249043" y="223.337199" style="stroke: #000000"/>
     <use xlink:href="#m4d3b1f9236" x="254.249043" y="222.604379" style="stroke: #000000"/>
    </g>
   </g>
   <g id="PathCollection_5">
    <g clip-path="url(#p8560b7a2c4)">
     <use xlink:href="#m4d3b1f9236" x="285.536286" y="223.015201" style="stroke: #000000"/>
     <use xlink:href="#m4d3b1f9236" x="285.536286" y="222.337221" style="stroke: #000000"/>
    </g>
   </g>
   <g id="PathCollection_6">
    <g clip-path="url(#p8560b7a2c4)">
     <use xlink:href="#m4d3b1f9236" x="316.823529" y="223.900955" style="stroke: #000000"/>
     <use xlink:href="#m4d3b1f9236" x="316.823529" y="223.255305" style="stroke: #000000"/>
    </g>
   </g>
   <g id="PathCollection_7">
    <defs>
     <path id="m84b4c21fa0" d="M 0 2 
C 0.530406 2 1.03916 1.789267 1.414214 1.414214 
C 1.789267 1.03916 2 0.530406 2 0 
C 2 -0.530406 1.789267 -1.03916 1.414214 -1.414214 
C 1.03916 -1.789267 0.530406 -2 0 -2 
C -0.530406 -2 -1.03916 -1.789267 -1.414214 -1.414214 
C -1.789267 -1.03916 -2 -0.530406 -2 0 
C -2 0.530406 -1.789267 1.03916 -1.414214 1.414214 
C -1.03916 1.789267 -0.530406 2 0 2 
z
" style="stroke: #000000"/>
    </defs>
    <g clip-path="url(#p8560b7a2c4)">
     <use xlink:href="#m84b4c21fa0" x="160.387313" y="151.580531" style="fill: #4c72b0; stroke: #000000"/>
     <use xlink:href="#m84b4c21fa0" x="191.674557" y="201.194475" style="fill: #4c72b0; stroke: #000000"/>
     <use xlink:href="#m84b4c21fa0" x="222.9618" y="218.565667" style="fill: #4c72b0; stroke: #000000"/>
     <use xlink:href="#m84b4c21fa0" x="254.249043" y="222.96755" style="fill: #4c72b0; stroke: #000000"/>
     <use xlink:href="#m84b4c21fa0" x="285.536286" y="222.673438" style="fill: #4c72b0; stroke: #000000"/>
     <use xlink:href="#m84b4c21fa0" x="316.823529" y="223.575615" style="fill: #4c72b0; stroke: #000000"/>
    </g>
   </g>
   <g id="matplotlib.axis_1">
    <g id="xtick_1">
     <g id="line2d_7">
      <defs>
       <path id="m6c86a4ecfc" d="M 0 0 
L 0 -2.5 
" style="stroke: #000000; stroke-width: 0.5"/>
      </defs>
      <g>
       <use xlink:href="#m6c86a4ecfc" x="54.752558" y="252.281604" style="stroke: #000000; stroke-width: 0.5"/>
      </g>
     </g>
     <g id="line2d_8">
      <defs>
       <path id="mf47f5fa2ff" d="M 0 0 
L 0 2.5 
" style="stroke: #000000; stroke-width: 0.5"/>
      </defs>
      <g>
       <use xlink:href="#mf47f5fa2ff" x="54.752558" y="19.634646" style="stroke: #000000; stroke-width: 0.5"/>
      </g>
     </g>
     <g id="text_1">
      <!-- $-5.0$ -->
      <g transform="translate(42.602558 263.380042) scale(0.1 -0.1)">
       <defs>
        <path id="DejaVuSerif-2212" d="M 678 2259 
L 4684 2259 
L 4684 1753 
L 678 1753 
L 678 2259 
z
" transform="scale(0.015625)"/>
        <path id="DejaVuSerif-35" d="M 3219 4666 
L 3219 4153 
L 1081 4153 
L 1081 2816 
Q 1244 2928 1461 2984 
Q 1678 3041 1947 3041 
Q 2703 3041 3140 2622 
Q 3578 2203 3578 1478 
Q 3578 738 3136 323 
Q 2694 -91 1894 -91 
Q 1572 -91 1234 -12 
Q 897 66 544 225 
L 544 1131 
L 897 1131 
Q 925 688 1179 453 
Q 1434 219 1894 219 
Q 2388 219 2653 544 
Q 2919 869 2919 1478 
Q 2919 2084 2655 2407 
Q 2391 2731 1894 2731 
Q 1613 2731 1398 2631 
Q 1184 2531 1019 2322 
L 750 2322 
L 750 4666 
L 3219 4666 
z
" transform="scale(0.015625)"/>
        <path id="DejaVuSerif-2e" d="M 603 325 
Q 603 500 722 622 
Q 841 744 1019 744 
Q 1191 744 1312 622 
Q 1434 500 1434 325 
Q 1434 153 1312 31 
Q 1191 -91 1019 -91 
Q 841 -91 722 29 
Q 603 150 603 325 
z
" transform="scale(0.015625)"/>
        <path id="DejaVuSerif-30" d="M 2034 219 
Q 2513 219 2750 744 
Q 2988 1269 2988 2328 
Q 2988 3391 2750 3916 
Q 2513 4441 2034 4441 
Q 1556 4441 1318 3916 
Q 1081 3391 1081 2328 
Q 1081 1269 1318 744 
Q 1556 219 2034 219 
z
M 2034 -91 
Q 1275 -91 848 546 
Q 422 1184 422 2328 
Q 422 3475 848 4112 
Q 1275 4750 2034 4750 
Q 2797 4750 3222 4112 
Q 3647 3475 3647 2328 
Q 3647 1184 3222 546 
Q 2797 -91 2034 -91 
z
" transform="scale(0.015625)"/>
       </defs>
       <use xlink:href="#DejaVuSerif-2212" transform="translate(0 0.78125)"/>
       <use xlink:href="#DejaVuSerif-35" transform="translate(83.789062 0.78125)"/>
       <use xlink:href="#DejaVuSerif-2e" transform="translate(147.412109 0.78125)"/>
       <use xlink:href="#DejaVuSerif-30" transform="translate(179.199219 0.78125)"/>
      </g>
     </g>
    </g>
    <g id="xtick_2">
     <g id="line2d_9">
      <g>
       <use xlink:href="#m6c86a4ecfc" x="132.970666" y="252.281604" style="stroke: #000000; stroke-width: 0.5"/>
      </g>
     </g>
     <g id="line2d_10">
      <g>
       <use xlink:href="#mf47f5fa2ff" x="132.970666" y="19.634646" style="stroke: #000000; stroke-width: 0.5"/>
      </g>
     </g>
     <g id="text_2">
      <!-- $-2.5$ -->
      <g transform="translate(120.820666 263.380042) scale(0.1 -0.1)">
       <defs>
        <path id="DejaVuSerif-32" d="M 819 3553 
L 469 3553 
L 469 4384 
Q 803 4563 1142 4656 
Q 1481 4750 1806 4750 
Q 2534 4750 2956 4397 
Q 3378 4044 3378 3438 
Q 3378 2753 2422 1800 
Q 2347 1728 2309 1691 
L 1131 513 
L 3078 513 
L 3078 1088 
L 3444 1088 
L 3444 0 
L 434 0 
L 434 341 
L 1850 1753 
Q 2319 2222 2519 2614 
Q 2719 3006 2719 3438 
Q 2719 3909 2473 4175 
Q 2228 4441 1797 4441 
Q 1350 4441 1106 4219 
Q 863 3997 819 3553 
z
" transform="scale(0.015625)"/>
       </defs>
       <use xlink:href="#DejaVuSerif-2212" transform="translate(0 0.78125)"/>
       <use xlink:href="#DejaVuSerif-32" transform="translate(83.789062 0.78125)"/>
       <use xlink:href="#DejaVuSerif-2e" transform="translate(147.412109 0.78125)"/>
       <use xlink:href="#DejaVuSerif-35" transform="translate(179.199219 0.78125)"/>
      </g>
     </g>
    </g>
    <g id="xtick_3">
     <g id="line2d_11">
      <g>
       <use xlink:href="#m6c86a4ecfc" x="211.188774" y="252.281604" style="stroke: #000000; stroke-width: 0.5"/>
      </g>
     </g>
     <g id="line2d_12">
      <g>
       <use xlink:href="#mf47f5fa2ff" x="211.188774" y="19.634646" style="stroke: #000000; stroke-width: 0.5"/>
      </g>
     </g>
     <g id="text_3">
      <!-- $0.0$ -->
      <g transform="translate(203.188774 263.380042) scale(0.1 -0.1)">
       <use xlink:href="#DejaVuSerif-30" transform="translate(0 0.78125)"/>
       <use xlink:href="#DejaVuSerif-2e" transform="translate(63.623047 0.78125)"/>
       <use xlink:href="#DejaVuSerif-30" transform="translate(95.410156 0.78125)"/>
      </g>
     </g>
    </g>
    <g id="xtick_4">
     <g id="line2d_13">
      <g>
       <use xlink:href="#m6c86a4ecfc" x="289.406882" y="252.281604" style="stroke: #000000; stroke-width: 0.5"/>
      </g>
     </g>
     <g id="line2d_14">
      <g>
       <use xlink:href="#mf47f5fa2ff" x="289.406882" y="19.634646" style="stroke: #000000; stroke-width: 0.5"/>
      </g>
     </g>
     <g id="text_4">
      <!-- $2.5$ -->
      <g transform="translate(281.406882 263.380042) scale(0.1 -0.1)">
       <use xlink:href="#DejaVuSerif-32" transform="translate(0 0.78125)"/>
       <use xlink:href="#DejaVuSerif-2e" transform="translate(63.623047 0.78125)"/>
       <use xlink:href="#DejaVuSerif-35" transform="translate(95.410156 0.78125)"/>
      </g>
     </g>
    </g>
    <g id="xtick_5">
     <g id="line2d_15">
      <g>
       <use xlink:href="#m6c86a4ecfc" x="367.62499" y="252.281604" style="stroke: #000000; stroke-width: 0.5"/>
      </g>
     </g>
     <g id="line2d_16">
      <g>
       <use xlink:href="#mf47f5fa2ff" x="367.62499" y="19.634646" style="stroke: #000000; stroke-width: 0.5"/>
      </g>
     </g>
     <g id="text_5">
      <!-- $5.0$ -->
      <g transform="translate(359.62499 263.380042) scale(0.1 -0.1)">
       <use xlink:href="#DejaVuSerif-35" transform="translate(0 0.78125)"/>
       <use xlink:href="#DejaVuSerif-2e" transform="translate(63.623047 0.78125)"/>
       <use xlink:href="#DejaVuSerif-30" transform="translate(95.410156 0.78125)"/>
      </g>
     </g>
    </g>
    <g id="text_6">
     <!-- $\widetilde x(N)$ -->
     <g transform="translate(223.186342 278.577854) scale(0.12 -0.12)">
      <defs>
       <path id="STIXSizeOneSym-Regular-303" d="M -1197 4800 
L -1037 4800 
Q -1037 4358 -1302 4092 
Q -1568 3827 -1926 3827 
Q -2086 3827 -2214 3852 
Q -2342 3878 -2419 3907 
Q -2496 3936 -2717 4035 
Q -2938 4134 -3123 4211 
Q -3597 4410 -3808 4410 
Q -4058 4410 -4234 4259 
Q -4410 4109 -4454 3827 
L -4621 3827 
Q -4621 4288 -4355 4544 
Q -4090 4800 -3757 4800 
Q -3450 4800 -2541 4410 
Q -2074 4205 -1843 4205 
Q -1581 4205 -1408 4358 
Q -1235 4512 -1197 4800 
z
" transform="scale(0.015625)"/>
       <path id="DejaVuSerif-Italic-78" d="M 409 0 
L 19 0 
L 1484 1594 
L 747 2988 
L 338 2988 
L 400 3322 
L 1244 3322 
L 1934 2028 
L 3125 3322 
L 3516 3322 
L 2078 1759 
L 2838 331 
L 3272 331 
L 3209 0 
L 2338 0 
L 1631 1325 
L 409 0 
z
" transform="scale(0.015625)"/>
       <path id="DejaVuSerif-28" d="M 2041 -997 
Q 1281 -656 893 83 
Q 506 822 506 1931 
Q 506 3044 893 3783 
Q 1281 4522 2041 4863 
L 2041 4556 
Q 1559 4225 1350 3623 
Q 1141 3022 1141 1931 
Q 1141 844 1350 242 
Q 1559 -359 2041 -691 
L 2041 -997 
z
" transform="scale(0.015625)"/>
       <path id="DejaVuSerif-Italic-4e" d="M -128 0 
L -66 331 
L 563 331 
L 1341 4331 
L 713 4331 
L 778 4666 
L 1975 4666 
L 4056 984 
L 4706 4331 
L 4081 4331 
L 4147 4666 
L 5784 4666 
L 5719 4331 
L 5091 4331 
L 4231 -91 
L 3853 -91 
L 1631 3841 
L 947 331 
L 1575 331 
L 1513 0 
L -128 0 
z
" transform="scale(0.015625)"/>
       <path id="DejaVuSerif-29" d="M 453 -997 
L 453 -691 
Q 934 -359 1145 242 
Q 1356 844 1356 1931 
Q 1356 3022 1145 3623 
Q 934 4225 453 4556 
L 453 4863 
Q 1216 4522 1603 3783 
Q 1991 3044 1991 1931 
Q 1991 822 1603 83 
Q 1216 -656 453 -997 
z
" transform="scale(0.015625)"/>
      </defs>
      <use xlink:href="#STIXSizeOneSym-Regular-303" transform="translate(77.046875 6.5) scale(0.975446)"/>
      <use xlink:href="#DejaVuSerif-Italic-78" transform="translate(0 0.703125)"/>
      <use xlink:href="#DejaVuSerif-28" transform="translate(56.396484 0.703125)"/>
      <use xlink:href="#DejaVuSerif-Italic-4e" transform="translate(95.410156 0.703125)"/>
      <use xlink:href="#DejaVuSerif-29" transform="translate(182.910156 0.703125)"/>
     </g>
    </g>
   </g>
   <g id="matplotlib.axis_2">
    <g id="ytick_1">
     <g id="line2d_17">
      <defs>
       <path id="mc20457dc77" d="M 0 0 
L 2.5 0 
" style="stroke: #000000; stroke-width: 0.5"/>
      </defs>
      <g>
       <use xlink:href="#mc20457dc77" x="43.84733" y="220.182368" style="stroke: #000000; stroke-width: 0.5"/>
      </g>
     </g>
     <g id="line2d_18">
      <defs>
       <path id="mfef2b48040" d="M 0 0 
L -2.5 0 
" style="stroke: #000000; stroke-width: 0.5"/>
      </defs>
      <g>
       <use xlink:href="#mfef2b48040" x="429.165354" y="220.182368" style="stroke: #000000; stroke-width: 0.5"/>
      </g>
     </g>
     <g id="text_7">
      <!-- $10^{0}$ -->
      <g transform="translate(22.74733 223.981587) scale(0.1 -0.1)">
       <defs>
        <path id="DejaVuSerif-31" d="M 909 0 
L 909 331 
L 1722 331 
L 1722 4213 
L 781 3603 
L 781 4013 
L 1919 4750 
L 2350 4750 
L 2350 331 
L 3163 331 
L 3163 0 
L 909 0 
z
" transform="scale(0.015625)"/>
       </defs>
       <use xlink:href="#DejaVuSerif-31" transform="translate(0 0.7125)"/>
       <use xlink:href="#DejaVuSerif-30" transform="translate(63.623047 0.7125)"/>
       <use xlink:href="#DejaVuSerif-30" transform="translate(128.154453 37.046875) scale(0.7)"/>
      </g>
     </g>
    </g>
    <g id="ytick_2">
     <g id="line2d_19">
      <g>
       <use xlink:href="#mc20457dc77" x="43.84733" y="172.471582" style="stroke: #000000; stroke-width: 0.5"/>
      </g>
     </g>
     <g id="line2d_20">
      <g>
       <use xlink:href="#mfef2b48040" x="429.165354" y="172.471582" style="stroke: #000000; stroke-width: 0.5"/>
      </g>
     </g>
     <g id="text_8">
      <!-- $10^{1}$ -->
      <g transform="translate(22.74733 176.270801) scale(0.1 -0.1)">
       <use xlink:href="#DejaVuSerif-31" transform="translate(0 0.7125)"/>
       <use xlink:href="#DejaVuSerif-30" transform="translate(63.623047 0.7125)"/>
       <use xlink:href="#DejaVuSerif-31" transform="translate(128.154453 37.046875) scale(0.7)"/>
      </g>
     </g>
    </g>
    <g id="ytick_3">
     <g id="line2d_21">
      <g>
       <use xlink:href="#mc20457dc77" x="43.84733" y="124.760796" style="stroke: #000000; stroke-width: 0.5"/>
      </g>
     </g>
     <g id="line2d_22">
      <g>
       <use xlink:href="#mfef2b48040" x="429.165354" y="124.760796" style="stroke: #000000; stroke-width: 0.5"/>
      </g>
     </g>
     <g id="text_9">
      <!-- $10^{2}$ -->
      <g transform="translate(22.74733 128.560015) scale(0.1 -0.1)">
       <use xlink:href="#DejaVuSerif-31" transform="translate(0 0.7125)"/>
       <use xlink:href="#DejaVuSerif-30" transform="translate(63.623047 0.7125)"/>
       <use xlink:href="#DejaVuSerif-32" transform="translate(128.154453 37.046875) scale(0.7)"/>
      </g>
     </g>
    </g>
    <g id="ytick_4">
     <g id="line2d_23">
      <g>
       <use xlink:href="#mc20457dc77" x="43.84733" y="77.05001" style="stroke: #000000; stroke-width: 0.5"/>
      </g>
     </g>
     <g id="line2d_24">
      <g>
       <use xlink:href="#mfef2b48040" x="429.165354" y="77.05001" style="stroke: #000000; stroke-width: 0.5"/>
      </g>
     </g>
     <g id="text_10">
      <!-- $10^{3}$ -->
      <g transform="translate(22.74733 80.849229) scale(0.1 -0.1)">
       <defs>
        <path id="DejaVuSerif-33" d="M 622 4469 
Q 988 4606 1323 4678 
Q 1659 4750 1953 4750 
Q 2638 4750 3022 4454 
Q 3406 4159 3406 3634 
Q 3406 3213 3140 2930 
Q 2875 2647 2388 2547 
Q 2963 2466 3280 2130 
Q 3597 1794 3597 1259 
Q 3597 606 3158 257 
Q 2719 -91 1894 -91 
Q 1528 -91 1179 -12 
Q 831 66 488 225 
L 488 1131 
L 838 1131 
Q 869 681 1141 450 
Q 1413 219 1906 219 
Q 2384 219 2661 495 
Q 2938 772 2938 1253 
Q 2938 1803 2653 2086 
Q 2369 2369 1819 2369 
L 1522 2369 
L 1522 2688 
L 1678 2688 
Q 2225 2688 2498 2914 
Q 2772 3141 2772 3597 
Q 2772 4006 2547 4223 
Q 2322 4441 1900 4441 
Q 1478 4441 1245 4241 
Q 1013 4041 972 3647 
L 622 3647 
L 622 4469 
z
" transform="scale(0.015625)"/>
       </defs>
       <use xlink:href="#DejaVuSerif-31" transform="translate(0 0.7125)"/>
       <use xlink:href="#DejaVuSerif-30" transform="translate(63.623047 0.7125)"/>
       <use xlink:href="#DejaVuSerif-33" transform="translate(128.154453 37.046875) scale(0.7)"/>
      </g>
     </g>
    </g>
    <g id="ytick_5">
     <g id="line2d_25">
      <g>
       <use xlink:href="#mc20457dc77" x="43.84733" y="29.339224" style="stroke: #000000; stroke-width: 0.5"/>
      </g>
     </g>
     <g id="line2d_26">
      <g>
       <use xlink:href="#mfef2b48040" x="429.165354" y="29.339224" style="stroke: #000000; stroke-width: 0.5"/>
      </g>
     </g>
     <g id="text_11">
      <!-- $10^{4}$ -->
      <g transform="translate(22.74733 33.138443) scale(0.1 -0.1)">
       <defs>
        <path id="DejaVuSerif-34" d="M 2234 1581 
L 2234 4063 
L 641 1581 
L 2234 1581 
z
M 3609 0 
L 1484 0 
L 1484 331 
L 2234 331 
L 2234 1247 
L 197 1247 
L 197 1588 
L 2241 4750 
L 2859 4750 
L 2859 1581 
L 3750 1581 
L 3750 1247 
L 2859 1247 
L 2859 331 
L 3609 331 
L 3609 0 
z
" transform="scale(0.015625)"/>
       </defs>
       <use xlink:href="#DejaVuSerif-31" transform="translate(0 0.7125)"/>
       <use xlink:href="#DejaVuSerif-30" transform="translate(63.623047 0.7125)"/>
       <use xlink:href="#DejaVuSerif-34" transform="translate(128.154453 37.046875) scale(0.7)"/>
      </g>
     </g>
    </g>
    <g id="text_12">
     <!-- $\widetilde y(N)$ -->
     <g transform="translate(15.98733 149.578125) rotate(-90) scale(0.12 -0.12)">
      <defs>
       <path id="STIXSizeTwoSym-Regular-303" d="M -1274 4864 
L -1107 4864 
Q -1280 3891 -2560 3891 
Q -2861 3891 -3097 3916 
Q -3334 3942 -3484 3974 
Q -3635 4006 -4044 4102 
Q -4454 4198 -4806 4275 
Q -5741 4474 -6093 4474 
Q -7021 4474 -7206 3891 
L -7373 3891 
Q -7200 4864 -5997 4864 
Q -5414 4864 -3718 4474 
Q -2842 4269 -2400 4269 
Q -1421 4269 -1274 4864 
z
" transform="scale(0.015625)"/>
       <path id="DejaVuSerif-Italic-79" d="M 3681 3294 
Q 3372 1506 2828 563 
Q 2031 -822 1391 -1238 
Q 1106 -1422 356 -1422 
Q 209 -1422 60 -1397 
Q -88 -1372 -238 -1325 
L -113 -691 
L 181 -691 
Q 175 -741 175 -788 
Q 175 -919 231 -994 
Q 309 -1100 513 -1100 
Q 1063 -1100 1541 -622 
L 756 2988 
L 378 2988 
L 444 3322 
L 1303 3322 
L 2041 25 
Q 2544 778 2666 1088 
Q 3059 2059 3138 2959 
L 2759 2959 
L 2825 3294 
L 3681 3294 
z
" transform="scale(0.015625)"/>
      </defs>
      <use xlink:href="#STIXSizeTwoSym-Regular-303" transform="translate(79.304688 26.125) scale(0.625279)"/>
      <use xlink:href="#DejaVuSerif-Italic-79" transform="translate(0 0.015625)"/>
      <use xlink:href="#DejaVuSerif-28" transform="translate(61.21875 0.015625)"/>
      <use xlink:href="#DejaVuSerif-Italic-4e" transform="translate(100.232422 0.015625)"/>
      <use xlink:href="#DejaVuSerif-29" transform="translate(187.732422 0.015625)"/>
     </g>
    </g>
   </g>
   <g id="line2d_27">
    <path d="M 131.625026 120.214615 
L 131.625026 120.147678 
" clip-path="url(#p8560b7a2c4)" style="fill: none; stroke: #000000"/>
   </g>
   <g id="line2d_28">
    <path d="M 162.912269 163.34216 
L 162.912269 163.02239 
" clip-path="url(#p8560b7a2c4)" style="fill: none; stroke: #000000"/>
   </g>
   <g id="line2d_29">
    <path d="M 194.199513 196.428762 
L 194.199513 195.44494 
" clip-path="url(#p8560b7a2c4)" style="fill: none; stroke: #000000"/>
   </g>
   <g id="line2d_30">
    <path d="M 225.486756 212.93793 
L 225.486756 211.383738 
" clip-path="url(#p8560b7a2c4)" style="fill: none; stroke: #000000"/>
   </g>
   <g id="line2d_31">
    <path d="M 256.773999 215.165949 
L 256.773999 213.528006 
" clip-path="url(#p8560b7a2c4)" style="fill: none; stroke: #000000"/>
   </g>
   <g id="line2d_32">
    <path d="M 288.061242 215.991099 
L 288.061242 214.416794 
" clip-path="url(#p8560b7a2c4)" style="fill: none; stroke: #000000"/>
   </g>
   <g id="line2d_33">
    <path d="M 319.348485 219.000099 
L 319.348485 217.233679 
" clip-path="url(#p8560b7a2c4)" style="fill: none; stroke: #000000"/>
   </g>
   <g id="line2d_34">
    <path d="M 350.635729 219.398834 
L 350.635729 217.629912 
" clip-path="url(#p8560b7a2c4)" style="fill: none; stroke: #000000"/>
   </g>
   <g id="PathCollection_8">
    <g clip-path="url(#p8560b7a2c4)">
     <use xlink:href="#m4d3b1f9236" x="131.625026" y="120.214615" style="stroke: #000000"/>
     <use xlink:href="#m4d3b1f9236" x="131.625026" y="120.147678" style="stroke: #000000"/>
    </g>
   </g>
   <g id="PathCollection_9">
    <g clip-path="url(#p8560b7a2c4)">
     <use xlink:href="#m4d3b1f9236" x="162.912269" y="163.34216" style="stroke: #000000"/>
     <use xlink:href="#m4d3b1f9236" x="162.912269" y="163.02239" style="stroke: #000000"/>
    </g>
   </g>
   <g id="PathCollection_10">
    <g clip-path="url(#p8560b7a2c4)">
     <use xlink:href="#m4d3b1f9236" x="194.199513" y="196.428762" style="stroke: #000000"/>
     <use xlink:href="#m4d3b1f9236" x="194.199513" y="195.44494" style="stroke: #000000"/>
    </g>
   </g>
   <g id="PathCollection_11">
    <g clip-path="url(#p8560b7a2c4)">
     <use xlink:href="#m4d3b1f9236" x="225.486756" y="212.93793" style="stroke: #000000"/>
     <use xlink:href="#m4d3b1f9236" x="225.486756" y="211.383738" style="stroke: #000000"/>
    </g>
   </g>
   <g id="PathCollection_12">
    <g clip-path="url(#p8560b7a2c4)">
     <use xlink:href="#m4d3b1f9236" x="256.773999" y="215.165949" style="stroke: #000000"/>
     <use xlink:href="#m4d3b1f9236" x="256.773999" y="213.528006" style="stroke: #000000"/>
    </g>
   </g>
   <g id="PathCollection_13">
    <g clip-path="url(#p8560b7a2c4)">
     <use xlink:href="#m4d3b1f9236" x="288.061242" y="215.991099" style="stroke: #000000"/>
     <use xlink:href="#m4d3b1f9236" x="288.061242" y="214.416794" style="stroke: #000000"/>
    </g>
   </g>
   <g id="PathCollection_14">
    <g clip-path="url(#p8560b7a2c4)">
     <use xlink:href="#m4d3b1f9236" x="319.348485" y="219.000099" style="stroke: #000000"/>
     <use xlink:href="#m4d3b1f9236" x="319.348485" y="217.233679" style="stroke: #000000"/>
    </g>
   </g>
   <g id="PathCollection_15">
    <g clip-path="url(#p8560b7a2c4)">
     <use xlink:href="#m4d3b1f9236" x="350.635729" y="219.398834" style="stroke: #000000"/>
     <use xlink:href="#m4d3b1f9236" x="350.635729" y="217.629912" style="stroke: #000000"/>
    </g>
   </g>
   <g id="PathCollection_16">
    <defs>
     <path id="mc6253663fc" d="M 0 2 
C 0.530406 2 1.03916 1.789267 1.414214 1.414214 
C 1.789267 1.03916 2 0.530406 2 0 
C 2 -0.530406 1.789267 -1.03916 1.414214 -1.414214 
C 1.03916 -1.789267 0.530406 -2 0 -2 
C -0.530406 -2 -1.03916 -1.789267 -1.414214 -1.414214 
C -1.789267 -1.03916 -2 -0.530406 -2 0 
C -2 0.530406 -1.789267 1.03916 -1.414214 1.414214 
C -1.03916 1.789267 -0.530406 2 0 2 
z
" style="stroke: #000000"/>
    </defs>
    <g clip-path="url(#p8560b7a2c4)">
     <use xlink:href="#mc6253663fc" x="131.625026" y="120.181119" style="fill: #dd8452; stroke: #000000"/>
     <use xlink:href="#mc6253663fc" x="162.912269" y="163.181658" style="fill: #dd8452; stroke: #000000"/>
     <use xlink:href="#mc6253663fc" x="194.199513" y="195.931012" style="fill: #dd8452; stroke: #000000"/>
     <use xlink:href="#mc6253663fc" x="225.486756" y="212.146265" style="fill: #dd8452; stroke: #000000"/>
     <use xlink:href="#mc6253663fc" x="256.773999" y="214.330797" style="fill: #dd8452; stroke: #000000"/>
     <use xlink:href="#mc6253663fc" x="288.061242" y="215.188998" style="fill: #dd8452; stroke: #000000"/>
     <use xlink:href="#mc6253663fc" x="319.348485" y="218.098072" style="fill: #dd8452; stroke: #000000"/>
     <use xlink:href="#mc6253663fc" x="350.635729" y="218.495502" style="fill: #dd8452; stroke: #000000"/>
    </g>
   </g>
   <g id="patch_3">
    <path d="M 43.84733 252.281604 
L 43.84733 19.634646 
" style="fill: none; stroke: #000000; stroke-linejoin: miter; stroke-linecap: square"/>
   </g>
   <g id="patch_4">
    <path d="M 429.165354 252.281604 
L 429.165354 19.634646 
" style="fill: none; stroke: #000000; stroke-linejoin: miter; stroke-linecap: square"/>
   </g>
   <g id="patch_5">
    <path d="M 43.84733 252.281604 
L 429.165354 252.281604 
" style="fill: none; stroke: #000000; stroke-linejoin: miter; stroke-linecap: square"/>
   </g>
   <g id="patch_6">
    <path d="M 43.84733 19.634646 
L 429.165354 19.634646 
" style="fill: none; stroke: #000000; stroke-linejoin: miter; stroke-linecap: square"/>
   </g>
   <g id="line2d_35">
    <path d="M 102.862739 85.346553 
L 102.862739 85.282503 
" clip-path="url(#p8560b7a2c4)" style="fill: none; stroke: #000000"/>
   </g>
   <g id="line2d_36">
    <path d="M 134.149982 125.900852 
L 134.149982 125.691051 
" clip-path="url(#p8560b7a2c4)" style="fill: none; stroke: #000000"/>
   </g>
   <g id="line2d_37">
    <path d="M 165.437225 164.487724 
L 165.437225 163.682996 
" clip-path="url(#p8560b7a2c4)" style="fill: none; stroke: #000000"/>
   </g>
   <g id="line2d_38">
    <path d="M 196.724469 193.987235 
L 196.724469 191.790976 
" clip-path="url(#p8560b7a2c4)" style="fill: none; stroke: #000000"/>
   </g>
   <g id="line2d_39">
    <path d="M 228.011712 202.693268 
L 228.011712 199.924228 
" clip-path="url(#p8560b7a2c4)" style="fill: none; stroke: #000000"/>
   </g>
   <g id="line2d_40">
    <path d="M 259.298955 207.755308 
L 259.298955 204.454527 
" clip-path="url(#p8560b7a2c4)" style="fill: none; stroke: #000000"/>
   </g>
   <g id="line2d_41">
    <path d="M 290.586198 212.080224 
L 290.586198 208.227562 
" clip-path="url(#p8560b7a2c4)" style="fill: none; stroke: #000000"/>
   </g>
   <g id="line2d_42">
    <path d="M 321.873442 215.884676 
L 321.873442 211.139161 
" clip-path="url(#p8560b7a2c4)" style="fill: none; stroke: #000000"/>
   </g>
   <g id="line2d_43">
    <path d="M 353.160685 214.235204 
L 353.160685 210.216541 
" clip-path="url(#p8560b7a2c4)" style="fill: none; stroke: #000000"/>
   </g>
   <g id="line2d_44">
    <path d="M 384.447928 213.3351 
L 384.447928 209.316023 
" clip-path="url(#p8560b7a2c4)" style="fill: none; stroke: #000000"/>
   </g>
   <g id="text_13">
    <!-- Universal scaling of KL divergence with $N$ for $O = X$ -->
    <g transform="translate(78.646342 13.634646) scale(0.12 -0.12)">
     <defs>
      <path id="DejaVuSerif-55" d="M 897 4331 
L 300 4331 
L 300 4666 
L 2125 4666 
L 2125 4331 
L 1528 4331 
L 1528 1919 
Q 1528 1025 1820 672 
Q 2113 319 2828 319 
Q 3544 319 3836 672 
Q 4128 1025 4128 1919 
L 4128 4331 
L 3531 4331 
L 3531 4666 
L 5106 4666 
L 5106 4331 
L 4513 4331 
L 4513 1856 
Q 4513 791 4103 350 
Q 3694 -91 2713 -91 
Q 1731 -91 1314 353 
Q 897 797 897 1856 
L 897 4331 
z
" transform="scale(0.015625)"/>
      <path id="DejaVuSerif-6e" d="M 263 0 
L 263 331 
L 781 331 
L 781 2988 
L 231 2988 
L 231 3322 
L 1356 3322 
L 1356 2731 
Q 1516 3069 1770 3241 
Q 2025 3413 2363 3413 
Q 2913 3413 3172 3097 
Q 3431 2781 3431 2113 
L 3431 331 
L 3944 331 
L 3944 0 
L 2356 0 
L 2356 331 
L 2853 331 
L 2853 1931 
Q 2853 2541 2703 2767 
Q 2553 2994 2175 2994 
Q 1775 2994 1565 2701 
Q 1356 2409 1356 1850 
L 1356 331 
L 1856 331 
L 1856 0 
L 263 0 
z
" transform="scale(0.015625)"/>
      <path id="DejaVuSerif-69" d="M 622 4353 
Q 622 4497 726 4603 
Q 831 4709 978 4709 
Q 1122 4709 1226 4603 
Q 1331 4497 1331 4353 
Q 1331 4206 1228 4103 
Q 1125 4000 978 4000 
Q 831 4000 726 4103 
Q 622 4206 622 4353 
z
M 1356 331 
L 1900 331 
L 1900 0 
L 231 0 
L 231 331 
L 781 331 
L 781 2988 
L 231 2988 
L 231 3322 
L 1356 3322 
L 1356 331 
z
" transform="scale(0.015625)"/>
      <path id="DejaVuSerif-76" d="M 1581 0 
L 359 2988 
L -19 2988 
L -19 3322 
L 1509 3322 
L 1509 2988 
L 978 2988 
L 1913 703 
L 2847 2988 
L 2350 2988 
L 2350 3322 
L 3597 3322 
L 3597 2988 
L 3225 2988 
L 2003 0 
L 1581 0 
z
" transform="scale(0.015625)"/>
      <path id="DejaVuSerif-65" d="M 3469 1600 
L 991 1600 
L 991 1575 
Q 991 903 1244 561 
Q 1497 219 1991 219 
Q 2369 219 2611 417 
Q 2853 616 2950 1006 
L 3413 1006 
Q 3275 459 2904 184 
Q 2534 -91 1931 -91 
Q 1203 -91 761 389 
Q 319 869 319 1663 
Q 319 2450 753 2931 
Q 1188 3413 1894 3413 
Q 2647 3413 3050 2948 
Q 3453 2484 3469 1600 
z
M 2791 1931 
Q 2772 2513 2545 2808 
Q 2319 3103 1894 3103 
Q 1497 3103 1269 2806 
Q 1041 2509 991 1931 
L 2791 1931 
z
" transform="scale(0.015625)"/>
      <path id="DejaVuSerif-72" d="M 3059 3328 
L 3059 2497 
L 2728 2497 
Q 2713 2744 2591 2866 
Q 2469 2988 2234 2988 
Q 1809 2988 1582 2694 
Q 1356 2400 1356 1850 
L 1356 331 
L 2022 331 
L 2022 0 
L 263 0 
L 263 331 
L 781 331 
L 781 2994 
L 231 2994 
L 231 3322 
L 1356 3322 
L 1356 2731 
Q 1525 3078 1790 3245 
Q 2056 3413 2438 3413 
Q 2578 3413 2733 3391 
Q 2888 3369 3059 3328 
z
" transform="scale(0.015625)"/>
      <path id="DejaVuSerif-73" d="M 359 184 
L 359 959 
L 691 959 
Q 703 588 923 403 
Q 1144 219 1575 219 
Q 1963 219 2166 364 
Q 2369 509 2369 788 
Q 2369 1006 2220 1140 
Q 2072 1275 1594 1428 
L 1178 1569 
Q 750 1706 558 1912 
Q 366 2119 366 2438 
Q 366 2894 700 3153 
Q 1034 3413 1625 3413 
Q 1888 3413 2178 3344 
Q 2469 3275 2778 3144 
L 2778 2419 
L 2447 2419 
Q 2434 2741 2221 2922 
Q 2009 3103 1644 3103 
Q 1281 3103 1095 2975 
Q 909 2847 909 2591 
Q 909 2381 1050 2254 
Q 1191 2128 1613 1997 
L 2069 1856 
Q 2541 1709 2748 1489 
Q 2956 1269 2956 922 
Q 2956 450 2595 179 
Q 2234 -91 1600 -91 
Q 1278 -91 972 -22 
Q 666 47 359 184 
z
" transform="scale(0.015625)"/>
      <path id="DejaVuSerif-61" d="M 2547 1044 
L 2547 1747 
L 1806 1747 
Q 1378 1747 1168 1562 
Q 959 1378 959 997 
Q 959 650 1171 447 
Q 1384 244 1747 244 
Q 2106 244 2326 466 
Q 2547 688 2547 1044 
z
M 3122 2075 
L 3122 331 
L 3634 331 
L 3634 0 
L 2547 0 
L 2547 359 
Q 2356 128 2106 18 
Q 1856 -91 1522 -91 
Q 969 -91 644 203 
Q 319 497 319 997 
Q 319 1513 691 1797 
Q 1063 2081 1741 2081 
L 2547 2081 
L 2547 2309 
Q 2547 2688 2317 2895 
Q 2088 3103 1672 3103 
Q 1328 3103 1125 2947 
Q 922 2791 872 2484 
L 575 2484 
L 575 3156 
Q 875 3284 1158 3348 
Q 1441 3413 1709 3413 
Q 2400 3413 2761 3070 
Q 3122 2728 3122 2075 
z
" transform="scale(0.015625)"/>
      <path id="DejaVuSerif-6c" d="M 1313 331 
L 1856 331 
L 1856 0 
L 184 0 
L 184 331 
L 738 331 
L 738 4531 
L 184 4531 
L 184 4863 
L 1313 4863 
L 1313 331 
z
" transform="scale(0.015625)"/>
      <path id="DejaVuSerif-20" transform="scale(0.015625)"/>
      <path id="DejaVuSerif-63" d="M 3291 997 
Q 3169 466 2822 187 
Q 2475 -91 1925 -91 
Q 1200 -91 759 389 
Q 319 869 319 1663 
Q 319 2459 759 2936 
Q 1200 3413 1925 3413 
Q 2241 3413 2553 3339 
Q 2866 3266 3181 3116 
L 3181 2266 
L 2847 2266 
Q 2781 2703 2561 2903 
Q 2341 3103 1931 3103 
Q 1466 3103 1228 2742 
Q 991 2381 991 1663 
Q 991 944 1227 581 
Q 1463 219 1931 219 
Q 2303 219 2525 412 
Q 2747 606 2828 997 
L 3291 997 
z
" transform="scale(0.015625)"/>
      <path id="DejaVuSerif-67" d="M 3359 2988 
L 3359 72 
Q 3359 -644 2965 -1033 
Q 2572 -1422 1844 -1422 
Q 1516 -1422 1216 -1362 
Q 916 -1303 641 -1184 
L 641 -488 
L 941 -488 
Q 997 -813 1206 -963 
Q 1416 -1113 1806 -1113 
Q 2313 -1113 2548 -827 
Q 2784 -541 2784 72 
L 2784 519 
Q 2616 206 2355 57 
Q 2094 -91 1709 -91 
Q 1097 -91 708 395 
Q 319 881 319 1663 
Q 319 2444 706 2928 
Q 1094 3413 1709 3413 
Q 2094 3413 2355 3264 
Q 2616 3116 2784 2803 
L 2784 3322 
L 3909 3322 
L 3909 2988 
L 3359 2988 
z
M 2784 1825 
Q 2784 2422 2554 2737 
Q 2325 3053 1888 3053 
Q 1444 3053 1217 2703 
Q 991 2353 991 1663 
Q 991 975 1217 622 
Q 1444 269 1888 269 
Q 2325 269 2554 583 
Q 2784 897 2784 1497 
L 2784 1825 
z
" transform="scale(0.015625)"/>
      <path id="DejaVuSerif-6f" d="M 1925 219 
Q 2388 219 2623 584 
Q 2859 950 2859 1663 
Q 2859 2375 2623 2739 
Q 2388 3103 1925 3103 
Q 1463 3103 1227 2739 
Q 991 2375 991 1663 
Q 991 950 1228 584 
Q 1466 219 1925 219 
z
M 1925 -91 
Q 1200 -91 759 389 
Q 319 869 319 1663 
Q 319 2456 758 2934 
Q 1197 3413 1925 3413 
Q 2653 3413 3092 2934 
Q 3531 2456 3531 1663 
Q 3531 869 3092 389 
Q 2653 -91 1925 -91 
z
" transform="scale(0.015625)"/>
      <path id="DejaVuSerif-66" d="M 2753 4078 
L 2450 4078 
Q 2447 4313 2317 4434 
Q 2188 4556 1941 4556 
Q 1619 4556 1487 4379 
Q 1356 4203 1356 3750 
L 1356 3322 
L 2284 3322 
L 2284 2988 
L 1356 2988 
L 1356 331 
L 2094 331 
L 2094 0 
L 231 0 
L 231 331 
L 781 331 
L 781 2988 
L 231 2988 
L 231 3322 
L 781 3322 
L 781 3738 
Q 781 4294 1070 4578 
Q 1359 4863 1919 4863 
Q 2128 4863 2337 4825 
Q 2547 4788 2753 4709 
L 2753 4078 
z
" transform="scale(0.015625)"/>
      <path id="DejaVuSerif-4b" d="M 353 0 
L 353 331 
L 947 331 
L 947 4331 
L 353 4331 
L 353 4666 
L 2175 4666 
L 2175 4331 
L 1581 4331 
L 1581 2566 
L 3591 4331 
L 3084 4331 
L 3084 4666 
L 4634 4666 
L 4634 4331 
L 4109 4331 
L 2106 2572 
L 4347 331 
L 4878 331 
L 4878 0 
L 3794 0 
L 1581 2216 
L 1581 331 
L 2175 331 
L 2175 0 
L 353 0 
z
" transform="scale(0.015625)"/>
      <path id="DejaVuSerif-4c" d="M 353 0 
L 353 331 
L 947 331 
L 947 4331 
L 353 4331 
L 353 4666 
L 2175 4666 
L 2175 4331 
L 1581 4331 
L 1581 384 
L 3713 384 
L 3713 1166 
L 4097 1166 
L 4097 0 
L 353 0 
z
" transform="scale(0.015625)"/>
      <path id="DejaVuSerif-64" d="M 3359 331 
L 3909 331 
L 3909 0 
L 2784 0 
L 2784 519 
Q 2616 206 2355 57 
Q 2094 -91 1709 -91 
Q 1097 -91 708 395 
Q 319 881 319 1663 
Q 319 2444 706 2928 
Q 1094 3413 1709 3413 
Q 2094 3413 2355 3264 
Q 2616 3116 2784 2803 
L 2784 4531 
L 2241 4531 
L 2241 4863 
L 3359 4863 
L 3359 331 
z
M 2784 1497 
L 2784 1825 
Q 2784 2422 2554 2737 
Q 2325 3053 1888 3053 
Q 1444 3053 1217 2703 
Q 991 2353 991 1663 
Q 991 975 1217 622 
Q 1444 269 1888 269 
Q 2325 269 2554 583 
Q 2784 897 2784 1497 
z
" transform="scale(0.015625)"/>
      <path id="DejaVuSerif-77" d="M 3072 3322 
L 3922 728 
L 4672 2988 
L 4191 2988 
L 4191 3322 
L 5394 3322 
L 5394 2988 
L 5025 2988 
L 4038 0 
L 3559 0 
L 2741 2484 
L 1919 0 
L 1459 0 
L 475 2988 
L 103 2988 
L 103 3322 
L 1606 3322 
L 1606 2988 
L 1069 2988 
L 1813 728 
L 2669 3322 
L 3072 3322 
z
" transform="scale(0.015625)"/>
      <path id="DejaVuSerif-74" d="M 691 2988 
L 184 2988 
L 184 3322 
L 691 3322 
L 691 4353 
L 1269 4353 
L 1269 3322 
L 2350 3322 
L 2350 2988 
L 1269 2988 
L 1269 878 
Q 1269 456 1350 337 
Q 1431 219 1650 219 
Q 1875 219 1978 351 
Q 2081 484 2088 781 
L 2522 781 
Q 2497 328 2275 118 
Q 2053 -91 1600 -91 
Q 1103 -91 897 129 
Q 691 350 691 878 
L 691 2988 
z
" transform="scale(0.015625)"/>
      <path id="DejaVuSerif-68" d="M 263 0 
L 263 331 
L 781 331 
L 781 4531 
L 231 4531 
L 231 4863 
L 1356 4863 
L 1356 2731 
Q 1516 3069 1770 3241 
Q 2025 3413 2363 3413 
Q 2913 3413 3172 3097 
Q 3431 2781 3431 2113 
L 3431 331 
L 3944 331 
L 3944 0 
L 2356 0 
L 2356 331 
L 2853 331 
L 2853 1931 
Q 2853 2541 2704 2764 
Q 2556 2988 2175 2988 
Q 1775 2988 1565 2697 
Q 1356 2406 1356 1850 
L 1356 331 
L 1856 331 
L 1856 0 
L 263 0 
z
" transform="scale(0.015625)"/>
      <path id="DejaVuSerif-Italic-4f" d="M 2219 244 
Q 2984 244 3478 770 
Q 3972 1297 4172 2328 
Q 4372 3363 4084 3889 
Q 3797 4416 3031 4416 
Q 2263 4416 1769 3889 
Q 1275 3363 1075 2328 
Q 875 1297 1162 770 
Q 1450 244 2219 244 
z
M 2153 -91 
Q 1678 -91 1311 65 
Q 944 222 700 525 
Q 419 875 334 1319 
Q 250 1763 359 2328 
Q 469 2894 725 3339 
Q 981 3784 1400 4134 
Q 1766 4441 2191 4595 
Q 2616 4750 3097 4750 
Q 4113 4750 4608 4084 
Q 5103 3419 4891 2328 
Q 4781 1769 4522 1320 
Q 4263 872 3847 525 
Q 3481 219 3056 64 
Q 2631 -91 2153 -91 
z
" transform="scale(0.015625)"/>
      <path id="DejaVuSerif-3d" d="M 678 2894 
L 4684 2894 
L 4684 2394 
L 678 2394 
L 678 2894 
z
M 678 1619 
L 4684 1619 
L 4684 1119 
L 678 1119 
L 678 1619 
z
" transform="scale(0.015625)"/>
      <path id="DejaVuSerif-Italic-58" d="M 2056 1997 
L 591 331 
L 1194 331 
L 1131 0 
L -413 0 
L -350 331 
L 188 331 
L 1913 2291 
L 947 4331 
L 447 4331 
L 513 4666 
L 2363 4666 
L 2297 4331 
L 1747 4331 
L 2456 2828 
L 3775 4331 
L 3175 4331 
L 3241 4666 
L 4769 4666 
L 4703 4331 
L 4178 4331 
L 2597 2534 
L 3641 331 
L 4141 331 
L 4075 0 
L 2225 0 
L 2288 331 
L 2844 331 
L 2056 1997 
z
" transform="scale(0.015625)"/>
     </defs>
     <use xlink:href="#DejaVuSerif-55" transform="translate(0 0.015625)"/>
     <use xlink:href="#DejaVuSerif-6e" transform="translate(84.277344 0.015625)"/>
     <use xlink:href="#DejaVuSerif-69" transform="translate(148.681641 0.015625)"/>
     <use xlink:href="#DejaVuSerif-76" transform="translate(180.664062 0.015625)"/>
     <use xlink:href="#DejaVuSerif-65" transform="translate(237.158203 0.015625)"/>
     <use xlink:href="#DejaVuSerif-72" transform="translate(296.337891 0.015625)"/>
     <use xlink:href="#DejaVuSerif-73" transform="translate(344.140625 0.015625)"/>
     <use xlink:href="#DejaVuSerif-61" transform="translate(395.458984 0.015625)"/>
     <use xlink:href="#DejaVuSerif-6c" transform="translate(455.078125 0.015625)"/>
     <use xlink:href="#DejaVuSerif-20" transform="translate(487.060547 0.015625)"/>
     <use xlink:href="#DejaVuSerif-73" transform="translate(518.847656 0.015625)"/>
     <use xlink:href="#DejaVuSerif-63" transform="translate(570.166016 0.015625)"/>
     <use xlink:href="#DejaVuSerif-61" transform="translate(626.171875 0.015625)"/>
     <use xlink:href="#DejaVuSerif-6c" transform="translate(685.791016 0.015625)"/>
     <use xlink:href="#DejaVuSerif-69" transform="translate(717.773438 0.015625)"/>
     <use xlink:href="#DejaVuSerif-6e" transform="translate(749.755859 0.015625)"/>
     <use xlink:href="#DejaVuSerif-67" transform="translate(814.160156 0.015625)"/>
     <use xlink:href="#DejaVuSerif-20" transform="translate(878.173828 0.015625)"/>
     <use xlink:href="#DejaVuSerif-6f" transform="translate(909.960938 0.015625)"/>
     <use xlink:href="#DejaVuSerif-66" transform="translate(970.166016 0.015625)"/>
     <use xlink:href="#DejaVuSerif-20" transform="translate(1007.177734 0.015625)"/>
     <use xlink:href="#DejaVuSerif-4b" transform="translate(1038.964844 0.015625)"/>
     <use xlink:href="#DejaVuSerif-4c" transform="translate(1113.671875 0.015625)"/>
     <use xlink:href="#DejaVuSerif-20" transform="translate(1180.078125 0.015625)"/>
     <use xlink:href="#DejaVuSerif-64" transform="translate(1211.865234 0.015625)"/>
     <use xlink:href="#DejaVuSerif-69" transform="translate(1275.878906 0.015625)"/>
     <use xlink:href="#DejaVuSerif-76" transform="translate(1307.861328 0.015625)"/>
     <use xlink:href="#DejaVuSerif-65" transform="translate(1364.355469 0.015625)"/>
     <use xlink:href="#DejaVuSerif-72" transform="translate(1423.535156 0.015625)"/>
     <use xlink:href="#DejaVuSerif-67" transform="translate(1471.337891 0.015625)"/>
     <use xlink:href="#DejaVuSerif-65" transform="translate(1535.351562 0.015625)"/>
     <use xlink:href="#DejaVuSerif-6e" transform="translate(1594.53125 0.015625)"/>
     <use xlink:href="#DejaVuSerif-63" transform="translate(1658.935547 0.015625)"/>
     <use xlink:href="#DejaVuSerif-65" transform="translate(1714.941406 0.015625)"/>
     <use xlink:href="#DejaVuSerif-20" transform="translate(1774.121094 0.015625)"/>
     <use xlink:href="#DejaVuSerif-77" transform="translate(1805.908203 0.015625)"/>
     <use xlink:href="#DejaVuSerif-69" transform="translate(1891.503906 0.015625)"/>
     <use xlink:href="#DejaVuSerif-74" transform="translate(1923.486328 0.015625)"/>
     <use xlink:href="#DejaVuSerif-68" transform="translate(1963.671875 0.015625)"/>
     <use xlink:href="#DejaVuSerif-20" transform="translate(2028.076172 0.015625)"/>
     <use xlink:href="#DejaVuSerif-Italic-4e" transform="translate(2059.863281 0.015625)"/>
     <use xlink:href="#DejaVuSerif-20" transform="translate(2147.363281 0.015625)"/>
     <use xlink:href="#DejaVuSerif-66" transform="translate(2179.150391 0.015625)"/>
     <use xlink:href="#DejaVuSerif-6f" transform="translate(2216.162109 0.015625)"/>
     <use xlink:href="#DejaVuSerif-72" transform="translate(2276.367188 0.015625)"/>
     <use xlink:href="#DejaVuSerif-20" transform="translate(2324.169922 0.015625)"/>
     <use xlink:href="#DejaVuSerif-Italic-4f" transform="translate(2355.957031 0.015625)"/>
     <use xlink:href="#DejaVuSerif-3d" transform="translate(2456.904297 0.015625)"/>
     <use xlink:href="#DejaVuSerif-Italic-58" transform="translate(2559.658203 0.015625)"/>
    </g>
   </g>
   <g id="PathCollection_17">
    <g clip-path="url(#p8560b7a2c4)">
     <use xlink:href="#m4d3b1f9236" x="102.862739" y="85.346553" style="stroke: #000000"/>
     <use xlink:href="#m4d3b1f9236" x="102.862739" y="85.282503" style="stroke: #000000"/>
    </g>
   </g>
   <g id="PathCollection_18">
    <g clip-path="url(#p8560b7a2c4)">
     <use xlink:href="#m4d3b1f9236" x="134.149982" y="125.900852" style="stroke: #000000"/>
     <use xlink:href="#m4d3b1f9236" x="134.149982" y="125.691051" style="stroke: #000000"/>
    </g>
   </g>
   <g id="PathCollection_19">
    <g clip-path="url(#p8560b7a2c4)">
     <use xlink:href="#m4d3b1f9236" x="165.437225" y="164.487724" style="stroke: #000000"/>
     <use xlink:href="#m4d3b1f9236" x="165.437225" y="163.682996" style="stroke: #000000"/>
    </g>
   </g>
   <g id="PathCollection_20">
    <g clip-path="url(#p8560b7a2c4)">
     <use xlink:href="#m4d3b1f9236" x="196.724469" y="193.987235" style="stroke: #000000"/>
     <use xlink:href="#m4d3b1f9236" x="196.724469" y="191.790976" style="stroke: #000000"/>
    </g>
   </g>
   <g id="PathCollection_21">
    <g clip-path="url(#p8560b7a2c4)">
     <use xlink:href="#m4d3b1f9236" x="228.011712" y="202.693268" style="stroke: #000000"/>
     <use xlink:href="#m4d3b1f9236" x="228.011712" y="199.924228" style="stroke: #000000"/>
    </g>
   </g>
   <g id="PathCollection_22">
    <g clip-path="url(#p8560b7a2c4)">
     <use xlink:href="#m4d3b1f9236" x="259.298955" y="207.755308" style="stroke: #000000"/>
     <use xlink:href="#m4d3b1f9236" x="259.298955" y="204.454527" style="stroke: #000000"/>
    </g>
   </g>
   <g id="PathCollection_23">
    <g clip-path="url(#p8560b7a2c4)">
     <use xlink:href="#m4d3b1f9236" x="290.586198" y="212.080224" style="stroke: #000000"/>
     <use xlink:href="#m4d3b1f9236" x="290.586198" y="208.227562" style="stroke: #000000"/>
    </g>
   </g>
   <g id="PathCollection_24">
    <g clip-path="url(#p8560b7a2c4)">
     <use xlink:href="#m4d3b1f9236" x="321.873442" y="215.884676" style="stroke: #000000"/>
     <use xlink:href="#m4d3b1f9236" x="321.873442" y="211.139161" style="stroke: #000000"/>
    </g>
   </g>
   <g id="PathCollection_25">
    <g clip-path="url(#p8560b7a2c4)">
     <use xlink:href="#m4d3b1f9236" x="353.160685" y="214.235204" style="stroke: #000000"/>
     <use xlink:href="#m4d3b1f9236" x="353.160685" y="210.216541" style="stroke: #000000"/>
    </g>
   </g>
   <g id="PathCollection_26">
    <g clip-path="url(#p8560b7a2c4)">
     <use xlink:href="#m4d3b1f9236" x="384.447928" y="213.3351" style="stroke: #000000"/>
     <use xlink:href="#m4d3b1f9236" x="384.447928" y="209.316023" style="stroke: #000000"/>
    </g>
   </g>
   <g id="PathCollection_27">
    <defs>
     <path id="mff318a43ca" d="M 0 2 
C 0.530406 2 1.03916 1.789267 1.414214 1.414214 
C 1.789267 1.03916 2 0.530406 2 0 
C 2 -0.530406 1.789267 -1.03916 1.414214 -1.414214 
C 1.03916 -1.789267 0.530406 -2 0 -2 
C -0.530406 -2 -1.03916 -1.789267 -1.414214 -1.414214 
C -1.789267 -1.03916 -2 -0.530406 -2 0 
C -2 0.530406 -1.789267 1.03916 -1.414214 1.414214 
C -1.03916 1.789267 -0.530406 2 0 2 
z
" style="stroke: #000000"/>
    </defs>
    <g clip-path="url(#p8560b7a2c4)">
     <use xlink:href="#mff318a43ca" x="102.862739" y="85.314503" style="fill: #55a868; stroke: #000000"/>
     <use xlink:href="#mff318a43ca" x="134.149982" y="125.795686" style="fill: #55a868; stroke: #000000"/>
     <use xlink:href="#mff318a43ca" x="165.437225" y="164.081454" style="fill: #55a868; stroke: #000000"/>
     <use xlink:href="#mff318a43ca" x="196.724469" y="192.86002" style="fill: #55a868; stroke: #000000"/>
     <use xlink:href="#mff318a43ca" x="228.011712" y="201.262526" style="fill: #55a868; stroke: #000000"/>
     <use xlink:href="#mff318a43ca" x="259.298955" y="206.03926" style="fill: #55a868; stroke: #000000"/>
     <use xlink:href="#mff318a43ca" x="290.586198" y="210.064479" style="fill: #55a868; stroke: #000000"/>
     <use xlink:href="#mff318a43ca" x="321.873442" y="213.37636" style="fill: #55a868; stroke: #000000"/>
     <use xlink:href="#mff318a43ca" x="353.160685" y="212.128599" style="fill: #55a868; stroke: #000000"/>
     <use xlink:href="#mff318a43ca" x="384.447928" y="211.228269" style="fill: #55a868; stroke: #000000"/>
    </g>
   </g>
   <g id="line2d_45">
    <path d="M 74.100452 49.88974 
L 74.100452 49.8281 
" clip-path="url(#p8560b7a2c4)" style="fill: none; stroke: #000000"/>
   </g>
   <g id="line2d_46">
    <path d="M 105.387695 89.416287 
L 105.387695 89.262182 
" clip-path="url(#p8560b7a2c4)" style="fill: none; stroke: #000000"/>
   </g>
   <g id="line2d_47">
    <path d="M 136.674938 128.409946 
L 136.674938 127.923135 
" clip-path="url(#p8560b7a2c4)" style="fill: none; stroke: #000000"/>
   </g>
   <g id="line2d_48">
    <path d="M 167.962182 167.369651 
L 167.962182 165.141818 
" clip-path="url(#p8560b7a2c4)" style="fill: none; stroke: #000000"/>
   </g>
   <g id="line2d_49">
    <path d="M 199.249425 202.26956 
L 199.249425 194.515866 
" clip-path="url(#p8560b7a2c4)" style="fill: none; stroke: #000000"/>
   </g>
   <g id="line2d_50">
    <path d="M 230.536668 233.158274 
L 230.536668 211.995909 
" clip-path="url(#p8560b7a2c4)" style="fill: none; stroke: #000000"/>
   </g>
   <g id="line2d_51">
    <path d="M 261.823911 216.468017 
L 261.823911 203.979411 
" clip-path="url(#p8560b7a2c4)" style="fill: none; stroke: #000000"/>
   </g>
   <g id="line2d_52">
    <path d="M 293.111154 226.90844 
L 293.111154 209.154622 
" clip-path="url(#p8560b7a2c4)" style="fill: none; stroke: #000000"/>
   </g>
   <g id="line2d_53">
    <path d="M 324.398398 228.363916 
L 324.398398 211.675172 
" clip-path="url(#p8560b7a2c4)" style="fill: none; stroke: #000000"/>
   </g>
   <g id="line2d_54">
    <path d="M 355.685641 229.373163 
L 355.685641 212.12014 
" clip-path="url(#p8560b7a2c4)" style="fill: none; stroke: #000000"/>
   </g>
   <g id="line2d_55">
    <path d="M 386.972884 233.468299 
L 386.972884 210.823148 
" clip-path="url(#p8560b7a2c4)" style="fill: none; stroke: #000000"/>
   </g>
   <g id="line2d_56">
    <path d="M 418.260127 245.697256 
L 418.260127 215.200853 
" clip-path="url(#p8560b7a2c4)" style="fill: none; stroke: #000000"/>
   </g>
   <g id="PathCollection_28">
    <g clip-path="url(#p8560b7a2c4)">
     <use xlink:href="#m4d3b1f9236" x="74.100452" y="49.88974" style="stroke: #000000"/>
     <use xlink:href="#m4d3b1f9236" x="74.100452" y="49.8281" style="stroke: #000000"/>
    </g>
   </g>
   <g id="PathCollection_29">
    <g clip-path="url(#p8560b7a2c4)">
     <use xlink:href="#m4d3b1f9236" x="105.387695" y="89.416287" style="stroke: #000000"/>
     <use xlink:href="#m4d3b1f9236" x="105.387695" y="89.262182" style="stroke: #000000"/>
    </g>
   </g>
   <g id="PathCollection_30">
    <g clip-path="url(#p8560b7a2c4)">
     <use xlink:href="#m4d3b1f9236" x="136.674938" y="128.409946" style="stroke: #000000"/>
     <use xlink:href="#m4d3b1f9236" x="136.674938" y="127.923135" style="stroke: #000000"/>
    </g>
   </g>
   <g id="PathCollection_31">
    <g clip-path="url(#p8560b7a2c4)">
     <use xlink:href="#m4d3b1f9236" x="167.962182" y="167.369651" style="stroke: #000000"/>
     <use xlink:href="#m4d3b1f9236" x="167.962182" y="165.141818" style="stroke: #000000"/>
    </g>
   </g>
   <g id="PathCollection_32">
    <g clip-path="url(#p8560b7a2c4)">
     <use xlink:href="#m4d3b1f9236" x="199.249425" y="202.26956" style="stroke: #000000"/>
     <use xlink:href="#m4d3b1f9236" x="199.249425" y="194.515866" style="stroke: #000000"/>
    </g>
   </g>
   <g id="PathCollection_33">
    <g clip-path="url(#p8560b7a2c4)">
     <use xlink:href="#m4d3b1f9236" x="230.536668" y="233.158274" style="stroke: #000000"/>
     <use xlink:href="#m4d3b1f9236" x="230.536668" y="211.995909" style="stroke: #000000"/>
    </g>
   </g>
   <g id="PathCollection_34">
    <g clip-path="url(#p8560b7a2c4)">
     <use xlink:href="#m4d3b1f9236" x="261.823911" y="216.468017" style="stroke: #000000"/>
     <use xlink:href="#m4d3b1f9236" x="261.823911" y="203.979411" style="stroke: #000000"/>
    </g>
   </g>
   <g id="PathCollection_35">
    <g clip-path="url(#p8560b7a2c4)">
     <use xlink:href="#m4d3b1f9236" x="293.111154" y="226.90844" style="stroke: #000000"/>
     <use xlink:href="#m4d3b1f9236" x="293.111154" y="209.154622" style="stroke: #000000"/>
    </g>
   </g>
   <g id="PathCollection_36">
    <g clip-path="url(#p8560b7a2c4)">
     <use xlink:href="#m4d3b1f9236" x="324.398398" y="228.363916" style="stroke: #000000"/>
     <use xlink:href="#m4d3b1f9236" x="324.398398" y="211.675172" style="stroke: #000000"/>
    </g>
   </g>
   <g id="PathCollection_37">
    <g clip-path="url(#p8560b7a2c4)">
     <use xlink:href="#m4d3b1f9236" x="355.685641" y="229.373163" style="stroke: #000000"/>
     <use xlink:href="#m4d3b1f9236" x="355.685641" y="212.12014" style="stroke: #000000"/>
    </g>
   </g>
   <g id="PathCollection_38">
    <g clip-path="url(#p8560b7a2c4)">
     <use xlink:href="#m4d3b1f9236" x="386.972884" y="233.468299" style="stroke: #000000"/>
     <use xlink:href="#m4d3b1f9236" x="386.972884" y="210.823148" style="stroke: #000000"/>
    </g>
   </g>
   <g id="PathCollection_39">
    <g clip-path="url(#p8560b7a2c4)">
     <use xlink:href="#m4d3b1f9236" x="418.260127" y="245.697256" style="stroke: #000000"/>
     <use xlink:href="#m4d3b1f9236" x="418.260127" y="215.200853" style="stroke: #000000"/>
    </g>
   </g>
   <g id="PathCollection_40">
    <defs>
     <path id="m289b378fbb" d="M 0 2 
C 0.530406 2 1.03916 1.789267 1.414214 1.414214 
C 1.789267 1.03916 2 0.530406 2 0 
C 2 -0.530406 1.789267 -1.03916 1.414214 -1.414214 
C 1.03916 -1.789267 0.530406 -2 0 -2 
C -0.530406 -2 -1.03916 -1.789267 -1.414214 -1.414214 
C -1.789267 -1.03916 -2 -0.530406 -2 0 
C -2 0.530406 -1.789267 1.03916 -1.414214 1.414214 
C -1.03916 1.789267 -0.530406 2 0 2 
z
" style="stroke: #000000"/>
    </defs>
    <g clip-path="url(#p8560b7a2c4)">
     <use xlink:href="#m289b378fbb" x="74.100452" y="49.858897" style="fill: #c44e52; stroke: #000000"/>
     <use xlink:href="#m289b378fbb" x="105.387695" y="89.339091" style="fill: #c44e52; stroke: #000000"/>
     <use xlink:href="#m289b378fbb" x="136.674938" y="128.165111" style="fill: #c44e52; stroke: #000000"/>
     <use xlink:href="#m289b378fbb" x="167.962182" y="166.225807" style="fill: #c44e52; stroke: #000000"/>
     <use xlink:href="#m289b378fbb" x="199.249425" y="198.032127" style="fill: #c44e52; stroke: #000000"/>
     <use xlink:href="#m289b378fbb" x="230.536668" y="219.985242" style="fill: #c44e52; stroke: #000000"/>
     <use xlink:href="#m289b378fbb" x="261.823911" y="209.296734" style="fill: #c44e52; stroke: #000000"/>
     <use xlink:href="#m289b378fbb" x="293.111154" y="216.185515" style="fill: #c44e52; stroke: #000000"/>
     <use xlink:href="#m289b378fbb" x="324.398398" y="218.382903" style="fill: #c44e52; stroke: #000000"/>
     <use xlink:href="#m289b378fbb" x="355.685641" y="219.000524" style="fill: #c44e52; stroke: #000000"/>
     <use xlink:href="#m289b378fbb" x="386.972884" y="219.194867" style="fill: #c44e52; stroke: #000000"/>
     <use xlink:href="#m289b378fbb" x="418.260127" y="225.281996" style="fill: #c44e52; stroke: #000000"/>
    </g>
   </g>
   <g id="line2d_57">
    <path d="M -1 220.182368 
L 433 220.182368 
" clip-path="url(#p8560b7a2c4)" style="fill: none; stroke-dasharray: 3.7,1.6; stroke-dashoffset: 0; stroke: #8c8c8c"/>
   </g>
   <g id="line2d_58">
    <path d="M 54.752558 26.218994 
L 56.332721 28.17822 
L 57.912885 30.137446 
L 59.493049 32.096672 
L 61.073213 34.055898 
L 62.653377 36.015124 
L 64.23354 37.97435 
L 65.813704 39.933576 
L 67.393868 41.892802 
L 68.974032 43.852028 
L 70.554196 45.811254 
L 72.134359 47.77048 
L 73.714523 49.729706 
L 75.294687 51.688932 
L 76.874851 53.648158 
L 78.455015 55.607384 
L 80.035178 57.56661 
L 81.615342 59.525836 
L 83.195506 61.485062 
L 84.77567 63.444288 
L 86.355833 65.403514 
L 87.935997 67.36274 
L 89.516161 69.321966 
L 91.096325 71.281192 
L 92.676489 73.240418 
L 94.256652 75.199644 
L 95.836816 77.15887 
L 97.41698 79.118096 
L 98.997144 81.077322 
L 100.577308 83.036548 
L 102.157471 84.995774 
L 103.737635 86.955 
L 105.317799 88.914226 
L 106.897963 90.873452 
L 108.478127 92.832678 
L 110.05829 94.791904 
L 111.638454 96.75113 
L 113.218618 98.710356 
L 114.798782 100.669582 
L 116.378946 102.628808 
L 117.959109 104.588034 
L 119.539273 106.54726 
L 121.119437 108.506486 
L 122.699601 110.465712 
L 124.279765 112.424938 
L 125.859928 114.384164 
L 127.440092 116.34339 
L 129.020256 118.302616 
L 130.60042 120.261842 
L 132.180584 122.221068 
L 133.760747 124.180294 
L 135.340911 126.13952 
L 136.921075 128.098746 
L 138.501239 130.057972 
L 140.081403 132.017198 
L 141.661566 133.976424 
L 143.24173 135.93565 
L 144.821894 137.894876 
L 146.402058 139.854102 
L 147.982222 141.813328 
L 149.562385 143.772554 
L 151.142549 145.73178 
L 152.722713 147.691006 
L 154.302877 149.650232 
L 155.883041 151.609458 
L 157.463204 153.568684 
L 159.043368 155.52791 
L 160.623532 157.487136 
L 162.203696 159.446362 
L 163.78386 161.405588 
L 165.364023 163.364814 
L 166.944187 165.32404 
L 168.524351 167.283266 
L 170.104515 169.242492 
L 171.684679 171.201718 
L 173.264842 173.160944 
L 174.845006 175.12017 
L 176.42517 177.079396 
L 178.005334 179.038622 
L 179.585498 180.997848 
L 181.165661 182.957074 
L 182.745825 184.9163 
L 184.325989 186.875526 
L 185.906153 188.834752 
L 187.486317 190.793978 
L 189.06648 192.753204 
L 190.646644 194.71243 
L 192.226808 196.671656 
L 193.806972 198.630882 
L 195.387136 200.590108 
L 196.967299 202.549334 
L 198.547463 204.50856 
L 200.127627 206.467786 
L 201.707791 208.427012 
L 203.287955 210.386238 
L 204.868118 212.345464 
L 206.448282 214.30469 
L 208.028446 216.263916 
L 209.60861 218.223142 
L 211.188774 220.182368 
" clip-path="url(#p8560b7a2c4)" style="fill: none; stroke-dasharray: 3.7,1.6; stroke-dashoffset: 0; stroke: #8c8c8c"/>
   </g>
   <g id="legend_1">
    <g id="patch_7">
     <path d="M 350.310667 94.347146 
L 424.165354 94.347146 
L 424.165354 24.634646 
L 350.310667 24.634646 
z
" style="fill: #ffffff; stroke: #000000; stroke-linejoin: miter"/>
    </g>
    <g id="line2d_59">
     <path d="M 358.310667 36.733083 
L 368.310667 36.733083 
L 378.310667 36.733083 
" style="fill: none"/>
     <defs>
      <path id="me156c5f8db" d="M 0 4 
C 1.060812 4 2.078319 3.578535 2.828427 2.828427 
C 3.578535 2.078319 4 1.060812 4 0 
C 4 -1.060812 3.578535 -2.078319 2.828427 -2.828427 
C 2.078319 -3.578535 1.060812 -4 0 -4 
C -1.060812 -4 -2.078319 -3.578535 -2.828427 -2.828427 
C -3.578535 -2.078319 -4 -1.060812 -4 0 
C -4 1.060812 -3.578535 2.078319 -2.828427 2.828427 
C -2.078319 3.578535 -1.060812 4 0 4 
z
" style="stroke: #000000; stroke-width: 2"/>
     </defs>
     <g>
      <use xlink:href="#me156c5f8db" x="368.310667" y="36.733083" style="fill: #4c72b0; stroke: #000000; stroke-width: 2"/>
     </g>
    </g>
    <g id="text_14">
     <!-- N=6 -->
     <g transform="translate(386.310667 40.233083) scale(0.1 -0.1)">
      <defs>
       <path id="DejaVuSerif-4e" d="M 313 0 
L 313 331 
L 941 331 
L 941 4331 
L 313 4331 
L 313 4666 
L 1509 4666 
L 4306 984 
L 4306 4331 
L 3681 4331 
L 3681 4666 
L 5319 4666 
L 5319 4331 
L 4691 4331 
L 4691 -91 
L 4313 -91 
L 1325 3841 
L 1325 331 
L 1953 331 
L 1953 0 
L 313 0 
z
" transform="scale(0.015625)"/>
       <path id="DejaVuSerif-36" d="M 2094 219 
Q 2534 219 2771 542 
Q 3009 866 3009 1472 
Q 3009 2078 2771 2401 
Q 2534 2725 2094 2725 
Q 1647 2725 1412 2412 
Q 1178 2100 1178 1509 
Q 1178 888 1415 553 
Q 1653 219 2094 219 
z
M 1075 2569 
Q 1288 2803 1556 2918 
Q 1825 3034 2163 3034 
Q 2859 3034 3264 2615 
Q 3669 2197 3669 1472 
Q 3669 763 3233 336 
Q 2797 -91 2069 -91 
Q 1278 -91 853 498 
Q 428 1088 428 2181 
Q 428 3406 931 4078 
Q 1434 4750 2350 4750 
Q 2597 4750 2869 4703 
Q 3141 4656 3425 4563 
L 3425 3794 
L 3072 3794 
Q 3034 4109 2831 4275 
Q 2628 4441 2284 4441 
Q 1678 4441 1381 3981 
Q 1084 3522 1075 2569 
z
" transform="scale(0.015625)"/>
      </defs>
      <use xlink:href="#DejaVuSerif-4e"/>
      <use xlink:href="#DejaVuSerif-3d" x="87.5"/>
      <use xlink:href="#DejaVuSerif-36" x="171.289062"/>
     </g>
    </g>
    <g id="line2d_60">
     <path d="M 358.310667 51.411208 
L 368.310667 51.411208 
L 378.310667 51.411208 
" style="fill: none"/>
     <defs>
      <path id="m6780a89d33" d="M 0 4 
C 1.060812 4 2.078319 3.578535 2.828427 2.828427 
C 3.578535 2.078319 4 1.060812 4 0 
C 4 -1.060812 3.578535 -2.078319 2.828427 -2.828427 
C 2.078319 -3.578535 1.060812 -4 0 -4 
C -1.060812 -4 -2.078319 -3.578535 -2.828427 -2.828427 
C -3.578535 -2.078319 -4 -1.060812 -4 0 
C -4 1.060812 -3.578535 2.078319 -2.828427 2.828427 
C -2.078319 3.578535 -1.060812 4 0 4 
z
" style="stroke: #000000; stroke-width: 2"/>
     </defs>
     <g>
      <use xlink:href="#m6780a89d33" x="368.310667" y="51.411208" style="fill: #dd8452; stroke: #000000; stroke-width: 2"/>
     </g>
    </g>
    <g id="text_15">
     <!-- N=8 -->
     <g transform="translate(386.310667 54.911208) scale(0.1 -0.1)">
      <defs>
       <path id="DejaVuSerif-38" d="M 2981 1275 
Q 2981 1775 2732 2051 
Q 2484 2328 2034 2328 
Q 1584 2328 1336 2051 
Q 1088 1775 1088 1275 
Q 1088 772 1336 495 
Q 1584 219 2034 219 
Q 2484 219 2732 495 
Q 2981 772 2981 1275 
z
M 2853 3541 
Q 2853 3966 2637 4203 
Q 2422 4441 2034 4441 
Q 1650 4441 1433 4203 
Q 1216 3966 1216 3541 
Q 1216 3113 1433 2875 
Q 1650 2638 2034 2638 
Q 2422 2638 2637 2875 
Q 2853 3113 2853 3541 
z
M 2516 2484 
Q 3047 2413 3344 2092 
Q 3641 1772 3641 1275 
Q 3641 619 3225 264 
Q 2809 -91 2034 -91 
Q 1263 -91 845 264 
Q 428 619 428 1275 
Q 428 1772 725 2092 
Q 1022 2413 1556 2484 
Q 1084 2569 832 2842 
Q 581 3116 581 3541 
Q 581 4103 968 4426 
Q 1356 4750 2034 4750 
Q 2713 4750 3100 4426 
Q 3488 4103 3488 3541 
Q 3488 3116 3236 2842 
Q 2984 2569 2516 2484 
z
" transform="scale(0.015625)"/>
      </defs>
      <use xlink:href="#DejaVuSerif-4e"/>
      <use xlink:href="#DejaVuSerif-3d" x="87.5"/>
      <use xlink:href="#DejaVuSerif-38" x="171.289062"/>
     </g>
    </g>
    <g id="line2d_61">
     <path d="M 358.310667 66.089333 
L 368.310667 66.089333 
L 378.310667 66.089333 
" style="fill: none"/>
     <defs>
      <path id="mc9a61d18ae" d="M 0 4 
C 1.060812 4 2.078319 3.578535 2.828427 2.828427 
C 3.578535 2.078319 4 1.060812 4 0 
C 4 -1.060812 3.578535 -2.078319 2.828427 -2.828427 
C 2.078319 -3.578535 1.060812 -4 0 -4 
C -1.060812 -4 -2.078319 -3.578535 -2.828427 -2.828427 
C -3.578535 -2.078319 -4 -1.060812 -4 0 
C -4 1.060812 -3.578535 2.078319 -2.828427 2.828427 
C -2.078319 3.578535 -1.060812 4 0 4 
z
" style="stroke: #000000; stroke-width: 2"/>
     </defs>
     <g>
      <use xlink:href="#mc9a61d18ae" x="368.310667" y="66.089333" style="fill: #55a868; stroke: #000000; stroke-width: 2"/>
     </g>
    </g>
    <g id="text_16">
     <!-- N=10 -->
     <g transform="translate(386.310667 69.589333) scale(0.1 -0.1)">
      <use xlink:href="#DejaVuSerif-4e"/>
      <use xlink:href="#DejaVuSerif-3d" x="87.5"/>
      <use xlink:href="#DejaVuSerif-31" x="171.289062"/>
      <use xlink:href="#DejaVuSerif-30" x="234.912109"/>
     </g>
    </g>
    <g id="line2d_62">
     <path d="M 358.310667 80.767458 
L 368.310667 80.767458 
L 378.310667 80.767458 
" style="fill: none"/>
     <defs>
      <path id="m79aee6f8f9" d="M 0 4 
C 1.060812 4 2.078319 3.578535 2.828427 2.828427 
C 3.578535 2.078319 4 1.060812 4 0 
C 4 -1.060812 3.578535 -2.078319 2.828427 -2.828427 
C 2.078319 -3.578535 1.060812 -4 0 -4 
C -1.060812 -4 -2.078319 -3.578535 -2.828427 -2.828427 
C -3.578535 -2.078319 -4 -1.060812 -4 0 
C -4 1.060812 -3.578535 2.078319 -2.828427 2.828427 
C -2.078319 3.578535 -1.060812 4 0 4 
z
" style="stroke: #000000; stroke-width: 2"/>
     </defs>
     <g>
      <use xlink:href="#m79aee6f8f9" x="368.310667" y="80.767458" style="fill: #c44e52; stroke: #000000; stroke-width: 2"/>
     </g>
    </g>
    <g id="text_17">
     <!-- N=12 -->
     <g transform="translate(386.310667 84.267458) scale(0.1 -0.1)">
      <use xlink:href="#DejaVuSerif-4e"/>
      <use xlink:href="#DejaVuSerif-3d" x="87.5"/>
      <use xlink:href="#DejaVuSerif-31" x="171.289062"/>
      <use xlink:href="#DejaVuSerif-32" x="234.912109"/>
     </g>
    </g>
   </g>
  </g>
 </g>
 <defs>
  <clipPath id="p8560b7a2c4">
   <rect x="43.84733" y="19.634646" width="385.318024" height="232.646959"/>
  </clipPath>
 </defs>
</svg>
