<?xml version="1.0" encoding="utf-8" standalone="no"?>
<!DOCTYPE svg PUBLIC "-//W3C//DTD SVG 1.1//EN"
  "http://www.w3.org/Graphics/SVG/1.1/DTD/svg11.dtd">
<svg xmlns:xlink="http://www.w3.org/1999/xlink" width="432pt" height="288pt" viewBox="0 0 432 288" xmlns="http://www.w3.org/2000/svg" version="1.1">
 <metadata>
  <rdf:RDF xmlns:dc="http://purl.org/dc/elements/1.1/" xmlns:cc="http://creativecommons.org/ns#" xmlns:rdf="http://www.w3.org/1999/02/22-rdf-syntax-ns#">
   <cc:Work>
    <dc:type rdf:resource="http://purl.org/dc/dcmitype/StillImage"/>
    <dc:date>2024-07-22T17:57:10.824107</dc:date>
    <dc:format>image/svg+xml</dc:format>
    <dc:creator>
     <cc:Agent>
      <dc:title>Matplotlib v3.9.1, https://matplotlib.org/</dc:title>
     </cc:Agent>
    </dc:creator>
   </cc:Work>
  </rdf:RDF>
 </metadata>
 <defs>
  <style type="text/css">*{stroke-linejoin: round; stroke-linecap: butt}</style>
 </defs>
 <g id="figure_1">
  <g id="patch_1">
   <path d="M 0 288 
L 432 288 
L 432 0 
L 0 0 
z
" style="fill: #ffffff"/>
  </g>
  <g id="axes_1">
   <g id="patch_2">
    <path d="M 43.68983 252.281604 
L 429.165354 252.281604 
L 429.165354 19.634646 
L 43.68983 19.634646 
z
" style="fill: #ffffff"/>
   </g>
   <g id="line2d_1">
    <path d="M 236.075771 171.07576 
L 236.075771 170.900151 
" clip-path="url(#pf607f4d06b)" style="fill: none; stroke: #000000"/>
   </g>
   <g id="line2d_2">
    <path d="M 275.497829 211.608337 
L 275.497829 211.248742 
" clip-path="url(#pf607f4d06b)" style="fill: none; stroke: #000000"/>
   </g>
   <g id="line2d_3">
    <path d="M 314.919887 235.152264 
L 314.919887 234.635783 
" clip-path="url(#pf607f4d06b)" style="fill: none; stroke: #000000"/>
   </g>
   <g id="line2d_4">
    <path d="M 354.341944 245.055998 
L 354.341944 244.467125 
" clip-path="url(#pf607f4d06b)" style="fill: none; stroke: #000000"/>
   </g>
   <g id="PathCollection_1">
    <defs>
     <path id="m0dd71a8c93" d="M 2 0 
L -2 -0 
" style="stroke: #000000"/>
    </defs>
    <g clip-path="url(#pf607f4d06b)">
     <use xlink:href="#m0dd71a8c93" x="236.075771" y="171.07576" style="stroke: #000000"/>
     <use xlink:href="#m0dd71a8c93" x="236.075771" y="170.900151" style="stroke: #000000"/>
    </g>
   </g>
   <g id="PathCollection_2">
    <g clip-path="url(#pf607f4d06b)">
     <use xlink:href="#m0dd71a8c93" x="275.497829" y="211.608337" style="stroke: #000000"/>
     <use xlink:href="#m0dd71a8c93" x="275.497829" y="211.248742" style="stroke: #000000"/>
    </g>
   </g>
   <g id="PathCollection_3">
    <g clip-path="url(#pf607f4d06b)">
     <use xlink:href="#m0dd71a8c93" x="314.919887" y="235.152264" style="stroke: #000000"/>
     <use xlink:href="#m0dd71a8c93" x="314.919887" y="234.635783" style="stroke: #000000"/>
    </g>
   </g>
   <g id="PathCollection_4">
    <g clip-path="url(#pf607f4d06b)">
     <use xlink:href="#m0dd71a8c93" x="354.341944" y="245.055998" style="stroke: #000000"/>
     <use xlink:href="#m0dd71a8c93" x="354.341944" y="244.467125" style="stroke: #000000"/>
    </g>
   </g>
   <g id="PathCollection_5">
    <defs>
     <path id="m28a8d2f6f2" d="M 0 2 
C 0.530406 2 1.03916 1.789267 1.414214 1.414214 
C 1.789267 1.03916 2 0.530406 2 0 
C 2 -0.530406 1.789267 -1.03916 1.414214 -1.414214 
C 1.03916 -1.789267 0.530406 -2 0 -2 
C -0.530406 -2 -1.03916 -1.789267 -1.414214 -1.414214 
C -1.789267 -1.03916 -2 -0.530406 -2 0 
C -2 0.530406 -1.789267 1.03916 -1.414214 1.414214 
C -1.03916 1.789267 -0.530406 2 0 2 
z
" style="stroke: #000000"/>
    </defs>
    <g clip-path="url(#pf607f4d06b)">
     <use xlink:href="#m28a8d2f6f2" x="236.075771" y="170.987869" style="fill: #4c72b0; stroke: #000000"/>
     <use xlink:href="#m28a8d2f6f2" x="275.497829" y="211.428176" style="fill: #4c72b0; stroke: #000000"/>
     <use xlink:href="#m28a8d2f6f2" x="314.919887" y="234.893275" style="fill: #4c72b0; stroke: #000000"/>
     <use xlink:href="#m28a8d2f6f2" x="354.341944" y="244.760587" style="fill: #4c72b0; stroke: #000000"/>
    </g>
   </g>
   <g id="matplotlib.axis_1">
    <g id="xtick_1">
     <g id="line2d_5">
      <defs>
       <path id="m14b41e566b" d="M 0 0 
L 0 -2.5 
" style="stroke: #000000; stroke-width: 0.5"/>
      </defs>
      <g>
       <use xlink:href="#m14b41e566b" x="94.021573" y="252.281604" style="stroke: #000000; stroke-width: 0.5"/>
      </g>
     </g>
     <g id="line2d_6">
      <defs>
       <path id="m88b4d92892" d="M 0 0 
L 0 2.5 
" style="stroke: #000000; stroke-width: 0.5"/>
      </defs>
      <g>
       <use xlink:href="#m88b4d92892" x="94.021573" y="19.634646" style="stroke: #000000; stroke-width: 0.5"/>
      </g>
     </g>
     <g id="text_1">
      <!-- $-6$ -->
      <g transform="translate(86.621573 263.380042) scale(0.1 -0.1)">
       <defs>
        <path id="DejaVuSerif-2212" d="M 678 2259 
L 4684 2259 
L 4684 1753 
L 678 1753 
L 678 2259 
z
" transform="scale(0.015625)"/>
        <path id="DejaVuSerif-36" d="M 2094 219 
Q 2534 219 2771 542 
Q 3009 866 3009 1472 
Q 3009 2078 2771 2401 
Q 2534 2725 2094 2725 
Q 1647 2725 1412 2412 
Q 1178 2100 1178 1509 
Q 1178 888 1415 553 
Q 1653 219 2094 219 
z
M 1075 2569 
Q 1288 2803 1556 2918 
Q 1825 3034 2163 3034 
Q 2859 3034 3264 2615 
Q 3669 2197 3669 1472 
Q 3669 763 3233 336 
Q 2797 -91 2069 -91 
Q 1278 -91 853 498 
Q 428 1088 428 2181 
Q 428 3406 931 4078 
Q 1434 4750 2350 4750 
Q 2597 4750 2869 4703 
Q 3141 4656 3425 4563 
L 3425 3794 
L 3072 3794 
Q 3034 4109 2831 4275 
Q 2628 4441 2284 4441 
Q 1678 4441 1381 3981 
Q 1084 3522 1075 2569 
z
" transform="scale(0.015625)"/>
       </defs>
       <use xlink:href="#DejaVuSerif-2212" transform="translate(0 0.78125)"/>
       <use xlink:href="#DejaVuSerif-36" transform="translate(83.789062 0.78125)"/>
      </g>
     </g>
    </g>
    <g id="xtick_2">
     <g id="line2d_7">
      <g>
       <use xlink:href="#m14b41e566b" x="172.865688" y="252.281604" style="stroke: #000000; stroke-width: 0.5"/>
      </g>
     </g>
     <g id="line2d_8">
      <g>
       <use xlink:href="#m88b4d92892" x="172.865688" y="19.634646" style="stroke: #000000; stroke-width: 0.5"/>
      </g>
     </g>
     <g id="text_2">
      <!-- $-4$ -->
      <g transform="translate(165.465688 263.380042) scale(0.1 -0.1)">
       <defs>
        <path id="DejaVuSerif-34" d="M 2234 1581 
L 2234 4063 
L 641 1581 
L 2234 1581 
z
M 3609 0 
L 1484 0 
L 1484 331 
L 2234 331 
L 2234 1247 
L 197 1247 
L 197 1588 
L 2241 4750 
L 2859 4750 
L 2859 1581 
L 3750 1581 
L 3750 1247 
L 2859 1247 
L 2859 331 
L 3609 331 
L 3609 0 
z
" transform="scale(0.015625)"/>
       </defs>
       <use xlink:href="#DejaVuSerif-2212" transform="translate(0 0.78125)"/>
       <use xlink:href="#DejaVuSerif-34" transform="translate(83.789062 0.78125)"/>
      </g>
     </g>
    </g>
    <g id="xtick_3">
     <g id="line2d_9">
      <g>
       <use xlink:href="#m14b41e566b" x="251.709803" y="252.281604" style="stroke: #000000; stroke-width: 0.5"/>
      </g>
     </g>
     <g id="line2d_10">
      <g>
       <use xlink:href="#m88b4d92892" x="251.709803" y="19.634646" style="stroke: #000000; stroke-width: 0.5"/>
      </g>
     </g>
     <g id="text_3">
      <!-- $-2$ -->
      <g transform="translate(244.309803 263.380042) scale(0.1 -0.1)">
       <defs>
        <path id="DejaVuSerif-32" d="M 819 3553 
L 469 3553 
L 469 4384 
Q 803 4563 1142 4656 
Q 1481 4750 1806 4750 
Q 2534 4750 2956 4397 
Q 3378 4044 3378 3438 
Q 3378 2753 2422 1800 
Q 2347 1728 2309 1691 
L 1131 513 
L 3078 513 
L 3078 1088 
L 3444 1088 
L 3444 0 
L 434 0 
L 434 341 
L 1850 1753 
Q 2319 2222 2519 2614 
Q 2719 3006 2719 3438 
Q 2719 3909 2473 4175 
Q 2228 4441 1797 4441 
Q 1350 4441 1106 4219 
Q 863 3997 819 3553 
z
" transform="scale(0.015625)"/>
       </defs>
       <use xlink:href="#DejaVuSerif-2212" transform="translate(0 0.78125)"/>
       <use xlink:href="#DejaVuSerif-32" transform="translate(83.789062 0.78125)"/>
      </g>
     </g>
    </g>
    <g id="xtick_4">
     <g id="line2d_11">
      <g>
       <use xlink:href="#m14b41e566b" x="330.553918" y="252.281604" style="stroke: #000000; stroke-width: 0.5"/>
      </g>
     </g>
     <g id="line2d_12">
      <g>
       <use xlink:href="#m88b4d92892" x="330.553918" y="19.634646" style="stroke: #000000; stroke-width: 0.5"/>
      </g>
     </g>
     <g id="text_4">
      <!-- $0$ -->
      <g transform="translate(327.353918 263.380042) scale(0.1 -0.1)">
       <defs>
        <path id="DejaVuSerif-30" d="M 2034 219 
Q 2513 219 2750 744 
Q 2988 1269 2988 2328 
Q 2988 3391 2750 3916 
Q 2513 4441 2034 4441 
Q 1556 4441 1318 3916 
Q 1081 3391 1081 2328 
Q 1081 1269 1318 744 
Q 1556 219 2034 219 
z
M 2034 -91 
Q 1275 -91 848 546 
Q 422 1184 422 2328 
Q 422 3475 848 4112 
Q 1275 4750 2034 4750 
Q 2797 4750 3222 4112 
Q 3647 3475 3647 2328 
Q 3647 1184 3222 546 
Q 2797 -91 2034 -91 
z
" transform="scale(0.015625)"/>
       </defs>
       <use xlink:href="#DejaVuSerif-30" transform="translate(0 0.78125)"/>
      </g>
     </g>
    </g>
    <g id="xtick_5">
     <g id="line2d_13">
      <g>
       <use xlink:href="#m14b41e566b" x="409.398034" y="252.281604" style="stroke: #000000; stroke-width: 0.5"/>
      </g>
     </g>
     <g id="line2d_14">
      <g>
       <use xlink:href="#m88b4d92892" x="409.398034" y="19.634646" style="stroke: #000000; stroke-width: 0.5"/>
      </g>
     </g>
     <g id="text_5">
      <!-- $2$ -->
      <g transform="translate(406.198034 263.380042) scale(0.1 -0.1)">
       <use xlink:href="#DejaVuSerif-32" transform="translate(0 0.78125)"/>
      </g>
     </g>
    </g>
    <g id="text_6">
     <!-- $\widetilde x(N)$ -->
     <g transform="translate(223.107592 278.577854) scale(0.12 -0.12)">
      <defs>
       <path id="STIXSizeOneSym-Regular-303" d="M -1197 4800 
L -1037 4800 
Q -1037 4358 -1302 4092 
Q -1568 3827 -1926 3827 
Q -2086 3827 -2214 3852 
Q -2342 3878 -2419 3907 
Q -2496 3936 -2717 4035 
Q -2938 4134 -3123 4211 
Q -3597 4410 -3808 4410 
Q -4058 4410 -4234 4259 
Q -4410 4109 -4454 3827 
L -4621 3827 
Q -4621 4288 -4355 4544 
Q -4090 4800 -3757 4800 
Q -3450 4800 -2541 4410 
Q -2074 4205 -1843 4205 
Q -1581 4205 -1408 4358 
Q -1235 4512 -1197 4800 
z
" transform="scale(0.015625)"/>
       <path id="DejaVuSerif-Italic-78" d="M 409 0 
L 19 0 
L 1484 1594 
L 747 2988 
L 338 2988 
L 400 3322 
L 1244 3322 
L 1934 2028 
L 3125 3322 
L 3516 3322 
L 2078 1759 
L 2838 331 
L 3272 331 
L 3209 0 
L 2338 0 
L 1631 1325 
L 409 0 
z
" transform="scale(0.015625)"/>
       <path id="DejaVuSerif-28" d="M 2041 -997 
Q 1281 -656 893 83 
Q 506 822 506 1931 
Q 506 3044 893 3783 
Q 1281 4522 2041 4863 
L 2041 4556 
Q 1559 4225 1350 3623 
Q 1141 3022 1141 1931 
Q 1141 844 1350 242 
Q 1559 -359 2041 -691 
L 2041 -997 
z
" transform="scale(0.015625)"/>
       <path id="DejaVuSerif-Italic-4e" d="M -128 0 
L -66 331 
L 563 331 
L 1341 4331 
L 713 4331 
L 778 4666 
L 1975 4666 
L 4056 984 
L 4706 4331 
L 4081 4331 
L 4147 4666 
L 5784 4666 
L 5719 4331 
L 5091 4331 
L 4231 -91 
L 3853 -91 
L 1631 3841 
L 947 331 
L 1575 331 
L 1513 0 
L -128 0 
z
" transform="scale(0.015625)"/>
       <path id="DejaVuSerif-29" d="M 453 -997 
L 453 -691 
Q 934 -359 1145 242 
Q 1356 844 1356 1931 
Q 1356 3022 1145 3623 
Q 934 4225 453 4556 
L 453 4863 
Q 1216 4522 1603 3783 
Q 1991 3044 1991 1931 
Q 1991 822 1603 83 
Q 1216 -656 453 -997 
z
" transform="scale(0.015625)"/>
      </defs>
      <use xlink:href="#STIXSizeOneSym-Regular-303" transform="translate(77.046875 6.5) scale(0.975446)"/>
      <use xlink:href="#DejaVuSerif-Italic-78" transform="translate(0 0.703125)"/>
      <use xlink:href="#DejaVuSerif-28" transform="translate(56.396484 0.703125)"/>
      <use xlink:href="#DejaVuSerif-Italic-4e" transform="translate(95.410156 0.703125)"/>
      <use xlink:href="#DejaVuSerif-29" transform="translate(182.910156 0.703125)"/>
     </g>
    </g>
   </g>
   <g id="matplotlib.axis_2">
    <g id="ytick_1">
     <g id="line2d_15">
      <defs>
       <path id="m4ed202f57a" d="M 0 0 
L 2.5 0 
" style="stroke: #000000; stroke-width: 0.5"/>
      </defs>
      <g>
       <use xlink:href="#m4ed202f57a" x="43.68983" y="242.133149" style="stroke: #000000; stroke-width: 0.5"/>
      </g>
     </g>
     <g id="line2d_16">
      <defs>
       <path id="m81fcffcdef" d="M 0 0 
L -2.5 0 
" style="stroke: #000000; stroke-width: 0.5"/>
      </defs>
      <g>
       <use xlink:href="#m81fcffcdef" x="429.165354" y="242.133149" style="stroke: #000000; stroke-width: 0.5"/>
      </g>
     </g>
     <g id="text_7">
      <!-- $10^{0}$ -->
      <g transform="translate(22.58983 245.932368) scale(0.1 -0.1)">
       <defs>
        <path id="DejaVuSerif-31" d="M 909 0 
L 909 331 
L 1722 331 
L 1722 4213 
L 781 3603 
L 781 4013 
L 1919 4750 
L 2350 4750 
L 2350 331 
L 3163 331 
L 3163 0 
L 909 0 
z
" transform="scale(0.015625)"/>
       </defs>
       <use xlink:href="#DejaVuSerif-31" transform="translate(0 0.7125)"/>
       <use xlink:href="#DejaVuSerif-30" transform="translate(63.623047 0.7125)"/>
       <use xlink:href="#DejaVuSerif-30" transform="translate(128.154453 37.046875) scale(0.7)"/>
      </g>
     </g>
    </g>
    <g id="ytick_2">
     <g id="line2d_17">
      <g>
       <use xlink:href="#m4ed202f57a" x="43.68983" y="139.668678" style="stroke: #000000; stroke-width: 0.5"/>
      </g>
     </g>
     <g id="line2d_18">
      <g>
       <use xlink:href="#m81fcffcdef" x="429.165354" y="139.668678" style="stroke: #000000; stroke-width: 0.5"/>
      </g>
     </g>
     <g id="text_8">
      <!-- $10^{1}$ -->
      <g transform="translate(22.58983 143.467896) scale(0.1 -0.1)">
       <use xlink:href="#DejaVuSerif-31" transform="translate(0 0.7125)"/>
       <use xlink:href="#DejaVuSerif-30" transform="translate(63.623047 0.7125)"/>
       <use xlink:href="#DejaVuSerif-31" transform="translate(128.154453 37.046875) scale(0.7)"/>
      </g>
     </g>
    </g>
    <g id="ytick_3">
     <g id="line2d_19">
      <g>
       <use xlink:href="#m4ed202f57a" x="43.68983" y="37.204206" style="stroke: #000000; stroke-width: 0.5"/>
      </g>
     </g>
     <g id="line2d_20">
      <g>
       <use xlink:href="#m81fcffcdef" x="429.165354" y="37.204206" style="stroke: #000000; stroke-width: 0.5"/>
      </g>
     </g>
     <g id="text_9">
      <!-- $10^{2}$ -->
      <g transform="translate(22.58983 41.003425) scale(0.1 -0.1)">
       <use xlink:href="#DejaVuSerif-31" transform="translate(0 0.7125)"/>
       <use xlink:href="#DejaVuSerif-30" transform="translate(63.623047 0.7125)"/>
       <use xlink:href="#DejaVuSerif-32" transform="translate(128.154453 37.046875) scale(0.7)"/>
      </g>
     </g>
    </g>
    <g id="text_10">
     <!-- $\widetilde y(N)$ -->
     <g transform="translate(15.82983 149.578125) rotate(-90) scale(0.12 -0.12)">
      <defs>
       <path id="STIXSizeTwoSym-Regular-303" d="M -1274 4864 
L -1107 4864 
Q -1280 3891 -2560 3891 
Q -2861 3891 -3097 3916 
Q -3334 3942 -3484 3974 
Q -3635 4006 -4044 4102 
Q -4454 4198 -4806 4275 
Q -5741 4474 -6093 4474 
Q -7021 4474 -7206 3891 
L -7373 3891 
Q -7200 4864 -5997 4864 
Q -5414 4864 -3718 4474 
Q -2842 4269 -2400 4269 
Q -1421 4269 -1274 4864 
z
" transform="scale(0.015625)"/>
       <path id="DejaVuSerif-Italic-79" d="M 3681 3294 
Q 3372 1506 2828 563 
Q 2031 -822 1391 -1238 
Q 1106 -1422 356 -1422 
Q 209 -1422 60 -1397 
Q -88 -1372 -238 -1325 
L -113 -691 
L 181 -691 
Q 175 -741 175 -788 
Q 175 -919 231 -994 
Q 309 -1100 513 -1100 
Q 1063 -1100 1541 -622 
L 756 2988 
L 378 2988 
L 444 3322 
L 1303 3322 
L 2041 25 
Q 2544 778 2666 1088 
Q 3059 2059 3138 2959 
L 2759 2959 
L 2825 3294 
L 3681 3294 
z
" transform="scale(0.015625)"/>
      </defs>
      <use xlink:href="#STIXSizeTwoSym-Regular-303" transform="translate(79.304688 26.125) scale(0.625279)"/>
      <use xlink:href="#DejaVuSerif-Italic-79" transform="translate(0 0.015625)"/>
      <use xlink:href="#DejaVuSerif-28" transform="translate(61.21875 0.015625)"/>
      <use xlink:href="#DejaVuSerif-Italic-4e" transform="translate(100.232422 0.015625)"/>
      <use xlink:href="#DejaVuSerif-29" transform="translate(187.732422 0.015625)"/>
     </g>
    </g>
   </g>
   <g id="line2d_21">
    <path d="M 178.536231 121.83357 
L 178.536231 121.712352 
" clip-path="url(#pf607f4d06b)" style="fill: none; stroke: #000000"/>
   </g>
   <g id="line2d_22">
    <path d="M 217.958289 157.151385 
L 217.958289 156.893877 
" clip-path="url(#pf607f4d06b)" style="fill: none; stroke: #000000"/>
   </g>
   <g id="line2d_23">
    <path d="M 257.380347 190.028048 
L 257.380347 189.573877 
" clip-path="url(#pf607f4d06b)" style="fill: none; stroke: #000000"/>
   </g>
   <g id="line2d_24">
    <path d="M 296.802404 218.217598 
L 296.802404 217.588402 
" clip-path="url(#pf607f4d06b)" style="fill: none; stroke: #000000"/>
   </g>
   <g id="line2d_25">
    <path d="M 336.224462 236.672259 
L 336.224462 235.891291 
" clip-path="url(#pf607f4d06b)" style="fill: none; stroke: #000000"/>
   </g>
   <g id="line2d_26">
    <path d="M 375.646519 239.711774 
L 375.646519 238.930445 
" clip-path="url(#pf607f4d06b)" style="fill: none; stroke: #000000"/>
   </g>
   <g id="PathCollection_6">
    <g clip-path="url(#pf607f4d06b)">
     <use xlink:href="#m0dd71a8c93" x="178.536231" y="121.83357" style="stroke: #000000"/>
     <use xlink:href="#m0dd71a8c93" x="178.536231" y="121.712352" style="stroke: #000000"/>
    </g>
   </g>
   <g id="PathCollection_7">
    <g clip-path="url(#pf607f4d06b)">
     <use xlink:href="#m0dd71a8c93" x="217.958289" y="157.151385" style="stroke: #000000"/>
     <use xlink:href="#m0dd71a8c93" x="217.958289" y="156.893877" style="stroke: #000000"/>
    </g>
   </g>
   <g id="PathCollection_8">
    <g clip-path="url(#pf607f4d06b)">
     <use xlink:href="#m0dd71a8c93" x="257.380347" y="190.028048" style="stroke: #000000"/>
     <use xlink:href="#m0dd71a8c93" x="257.380347" y="189.573877" style="stroke: #000000"/>
    </g>
   </g>
   <g id="PathCollection_9">
    <g clip-path="url(#pf607f4d06b)">
     <use xlink:href="#m0dd71a8c93" x="296.802404" y="218.217598" style="stroke: #000000"/>
     <use xlink:href="#m0dd71a8c93" x="296.802404" y="217.588402" style="stroke: #000000"/>
    </g>
   </g>
   <g id="PathCollection_10">
    <g clip-path="url(#pf607f4d06b)">
     <use xlink:href="#m0dd71a8c93" x="336.224462" y="236.672259" style="stroke: #000000"/>
     <use xlink:href="#m0dd71a8c93" x="336.224462" y="235.891291" style="stroke: #000000"/>
    </g>
   </g>
   <g id="PathCollection_11">
    <g clip-path="url(#pf607f4d06b)">
     <use xlink:href="#m0dd71a8c93" x="375.646519" y="239.711774" style="stroke: #000000"/>
     <use xlink:href="#m0dd71a8c93" x="375.646519" y="238.930445" style="stroke: #000000"/>
    </g>
   </g>
   <g id="PathCollection_12">
    <defs>
     <path id="ma454116f4e" d="M 0 2 
C 0.530406 2 1.03916 1.789267 1.414214 1.414214 
C 1.789267 1.03916 2 0.530406 2 0 
C 2 -0.530406 1.789267 -1.03916 1.414214 -1.414214 
C 1.03916 -1.789267 0.530406 -2 0 -2 
C -0.530406 -2 -1.03916 -1.789267 -1.414214 -1.414214 
C -1.789267 -1.03916 -2 -0.530406 -2 0 
C -2 0.530406 -1.789267 1.03916 -1.414214 1.414214 
C -1.03916 1.789267 -0.530406 2 0 2 
z
" style="stroke: #000000"/>
    </defs>
    <g clip-path="url(#pf607f4d06b)">
     <use xlink:href="#ma454116f4e" x="178.536231" y="121.77292" style="fill: #dd8452; stroke: #000000"/>
     <use xlink:href="#ma454116f4e" x="217.958289" y="157.022445" style="fill: #dd8452; stroke: #000000"/>
     <use xlink:href="#ma454116f4e" x="257.380347" y="189.800383" style="fill: #dd8452; stroke: #000000"/>
     <use xlink:href="#ma454116f4e" x="296.802404" y="217.901888" style="fill: #dd8452; stroke: #000000"/>
     <use xlink:href="#ma454116f4e" x="336.224462" y="236.280062" style="fill: #dd8452; stroke: #000000"/>
     <use xlink:href="#ma454116f4e" x="375.646519" y="239.319394" style="fill: #dd8452; stroke: #000000"/>
    </g>
   </g>
   <g id="patch_3">
    <path d="M 43.68983 252.281604 
L 43.68983 19.634646 
" style="fill: none; stroke: #000000; stroke-linejoin: miter; stroke-linecap: square"/>
   </g>
   <g id="patch_4">
    <path d="M 429.165354 252.281604 
L 429.165354 19.634646 
" style="fill: none; stroke: #000000; stroke-linejoin: miter; stroke-linecap: square"/>
   </g>
   <g id="patch_5">
    <path d="M 43.68983 252.281604 
L 429.165354 252.281604 
" style="fill: none; stroke: #000000; stroke-linejoin: miter; stroke-linecap: square"/>
   </g>
   <g id="patch_6">
    <path d="M 43.68983 19.634646 
L 429.165354 19.634646 
" style="fill: none; stroke: #000000; stroke-linejoin: miter; stroke-linecap: square"/>
   </g>
   <g id="line2d_27">
    <path d="M 120.996691 79.368054 
L 120.996691 79.233268 
" clip-path="url(#pf607f4d06b)" style="fill: none; stroke: #000000"/>
   </g>
   <g id="line2d_28">
    <path d="M 160.418749 110.901825 
L 160.418749 110.716037 
" clip-path="url(#pf607f4d06b)" style="fill: none; stroke: #000000"/>
   </g>
   <g id="line2d_29">
    <path d="M 199.840806 138.446856 
L 199.840806 138.133174 
" clip-path="url(#pf607f4d06b)" style="fill: none; stroke: #000000"/>
   </g>
   <g id="line2d_30">
    <path d="M 239.262864 171.241352 
L 239.262864 170.584697 
" clip-path="url(#pf607f4d06b)" style="fill: none; stroke: #000000"/>
   </g>
   <g id="line2d_31">
    <path d="M 278.684922 207.049665 
L 278.684922 206.110881 
" clip-path="url(#pf607f4d06b)" style="fill: none; stroke: #000000"/>
   </g>
   <g id="line2d_32">
    <path d="M 318.106979 229.622798 
L 318.106979 228.523039 
" clip-path="url(#pf607f4d06b)" style="fill: none; stroke: #000000"/>
   </g>
   <g id="line2d_33">
    <path d="M 357.529037 240.042678 
L 357.529037 238.838743 
" clip-path="url(#pf607f4d06b)" style="fill: none; stroke: #000000"/>
   </g>
   <g id="line2d_34">
    <path d="M 396.951095 240.474776 
L 396.951095 239.289798 
" clip-path="url(#pf607f4d06b)" style="fill: none; stroke: #000000"/>
   </g>
   <g id="text_11">
    <!-- Universal scaling of KL divergence with $N$ for $O = Z$ -->
    <g transform="translate(78.627592 13.634646) scale(0.12 -0.12)">
     <defs>
      <path id="DejaVuSerif-55" d="M 897 4331 
L 300 4331 
L 300 4666 
L 2125 4666 
L 2125 4331 
L 1528 4331 
L 1528 1919 
Q 1528 1025 1820 672 
Q 2113 319 2828 319 
Q 3544 319 3836 672 
Q 4128 1025 4128 1919 
L 4128 4331 
L 3531 4331 
L 3531 4666 
L 5106 4666 
L 5106 4331 
L 4513 4331 
L 4513 1856 
Q 4513 791 4103 350 
Q 3694 -91 2713 -91 
Q 1731 -91 1314 353 
Q 897 797 897 1856 
L 897 4331 
z
" transform="scale(0.015625)"/>
      <path id="DejaVuSerif-6e" d="M 263 0 
L 263 331 
L 781 331 
L 781 2988 
L 231 2988 
L 231 3322 
L 1356 3322 
L 1356 2731 
Q 1516 3069 1770 3241 
Q 2025 3413 2363 3413 
Q 2913 3413 3172 3097 
Q 3431 2781 3431 2113 
L 3431 331 
L 3944 331 
L 3944 0 
L 2356 0 
L 2356 331 
L 2853 331 
L 2853 1931 
Q 2853 2541 2703 2767 
Q 2553 2994 2175 2994 
Q 1775 2994 1565 2701 
Q 1356 2409 1356 1850 
L 1356 331 
L 1856 331 
L 1856 0 
L 263 0 
z
" transform="scale(0.015625)"/>
      <path id="DejaVuSerif-69" d="M 622 4353 
Q 622 4497 726 4603 
Q 831 4709 978 4709 
Q 1122 4709 1226 4603 
Q 1331 4497 1331 4353 
Q 1331 4206 1228 4103 
Q 1125 4000 978 4000 
Q 831 4000 726 4103 
Q 622 4206 622 4353 
z
M 1356 331 
L 1900 331 
L 1900 0 
L 231 0 
L 231 331 
L 781 331 
L 781 2988 
L 231 2988 
L 231 3322 
L 1356 3322 
L 1356 331 
z
" transform="scale(0.015625)"/>
      <path id="DejaVuSerif-76" d="M 1581 0 
L 359 2988 
L -19 2988 
L -19 3322 
L 1509 3322 
L 1509 2988 
L 978 2988 
L 1913 703 
L 2847 2988 
L 2350 2988 
L 2350 3322 
L 3597 3322 
L 3597 2988 
L 3225 2988 
L 2003 0 
L 1581 0 
z
" transform="scale(0.015625)"/>
      <path id="DejaVuSerif-65" d="M 3469 1600 
L 991 1600 
L 991 1575 
Q 991 903 1244 561 
Q 1497 219 1991 219 
Q 2369 219 2611 417 
Q 2853 616 2950 1006 
L 3413 1006 
Q 3275 459 2904 184 
Q 2534 -91 1931 -91 
Q 1203 -91 761 389 
Q 319 869 319 1663 
Q 319 2450 753 2931 
Q 1188 3413 1894 3413 
Q 2647 3413 3050 2948 
Q 3453 2484 3469 1600 
z
M 2791 1931 
Q 2772 2513 2545 2808 
Q 2319 3103 1894 3103 
Q 1497 3103 1269 2806 
Q 1041 2509 991 1931 
L 2791 1931 
z
" transform="scale(0.015625)"/>
      <path id="DejaVuSerif-72" d="M 3059 3328 
L 3059 2497 
L 2728 2497 
Q 2713 2744 2591 2866 
Q 2469 2988 2234 2988 
Q 1809 2988 1582 2694 
Q 1356 2400 1356 1850 
L 1356 331 
L 2022 331 
L 2022 0 
L 263 0 
L 263 331 
L 781 331 
L 781 2994 
L 231 2994 
L 231 3322 
L 1356 3322 
L 1356 2731 
Q 1525 3078 1790 3245 
Q 2056 3413 2438 3413 
Q 2578 3413 2733 3391 
Q 2888 3369 3059 3328 
z
" transform="scale(0.015625)"/>
      <path id="DejaVuSerif-73" d="M 359 184 
L 359 959 
L 691 959 
Q 703 588 923 403 
Q 1144 219 1575 219 
Q 1963 219 2166 364 
Q 2369 509 2369 788 
Q 2369 1006 2220 1140 
Q 2072 1275 1594 1428 
L 1178 1569 
Q 750 1706 558 1912 
Q 366 2119 366 2438 
Q 366 2894 700 3153 
Q 1034 3413 1625 3413 
Q 1888 3413 2178 3344 
Q 2469 3275 2778 3144 
L 2778 2419 
L 2447 2419 
Q 2434 2741 2221 2922 
Q 2009 3103 1644 3103 
Q 1281 3103 1095 2975 
Q 909 2847 909 2591 
Q 909 2381 1050 2254 
Q 1191 2128 1613 1997 
L 2069 1856 
Q 2541 1709 2748 1489 
Q 2956 1269 2956 922 
Q 2956 450 2595 179 
Q 2234 -91 1600 -91 
Q 1278 -91 972 -22 
Q 666 47 359 184 
z
" transform="scale(0.015625)"/>
      <path id="DejaVuSerif-61" d="M 2547 1044 
L 2547 1747 
L 1806 1747 
Q 1378 1747 1168 1562 
Q 959 1378 959 997 
Q 959 650 1171 447 
Q 1384 244 1747 244 
Q 2106 244 2326 466 
Q 2547 688 2547 1044 
z
M 3122 2075 
L 3122 331 
L 3634 331 
L 3634 0 
L 2547 0 
L 2547 359 
Q 2356 128 2106 18 
Q 1856 -91 1522 -91 
Q 969 -91 644 203 
Q 319 497 319 997 
Q 319 1513 691 1797 
Q 1063 2081 1741 2081 
L 2547 2081 
L 2547 2309 
Q 2547 2688 2317 2895 
Q 2088 3103 1672 3103 
Q 1328 3103 1125 2947 
Q 922 2791 872 2484 
L 575 2484 
L 575 3156 
Q 875 3284 1158 3348 
Q 1441 3413 1709 3413 
Q 2400 3413 2761 3070 
Q 3122 2728 3122 2075 
z
" transform="scale(0.015625)"/>
      <path id="DejaVuSerif-6c" d="M 1313 331 
L 1856 331 
L 1856 0 
L 184 0 
L 184 331 
L 738 331 
L 738 4531 
L 184 4531 
L 184 4863 
L 1313 4863 
L 1313 331 
z
" transform="scale(0.015625)"/>
      <path id="DejaVuSerif-20" transform="scale(0.015625)"/>
      <path id="DejaVuSerif-63" d="M 3291 997 
Q 3169 466 2822 187 
Q 2475 -91 1925 -91 
Q 1200 -91 759 389 
Q 319 869 319 1663 
Q 319 2459 759 2936 
Q 1200 3413 1925 3413 
Q 2241 3413 2553 3339 
Q 2866 3266 3181 3116 
L 3181 2266 
L 2847 2266 
Q 2781 2703 2561 2903 
Q 2341 3103 1931 3103 
Q 1466 3103 1228 2742 
Q 991 2381 991 1663 
Q 991 944 1227 581 
Q 1463 219 1931 219 
Q 2303 219 2525 412 
Q 2747 606 2828 997 
L 3291 997 
z
" transform="scale(0.015625)"/>
      <path id="DejaVuSerif-67" d="M 3359 2988 
L 3359 72 
Q 3359 -644 2965 -1033 
Q 2572 -1422 1844 -1422 
Q 1516 -1422 1216 -1362 
Q 916 -1303 641 -1184 
L 641 -488 
L 941 -488 
Q 997 -813 1206 -963 
Q 1416 -1113 1806 -1113 
Q 2313 -1113 2548 -827 
Q 2784 -541 2784 72 
L 2784 519 
Q 2616 206 2355 57 
Q 2094 -91 1709 -91 
Q 1097 -91 708 395 
Q 319 881 319 1663 
Q 319 2444 706 2928 
Q 1094 3413 1709 3413 
Q 2094 3413 2355 3264 
Q 2616 3116 2784 2803 
L 2784 3322 
L 3909 3322 
L 3909 2988 
L 3359 2988 
z
M 2784 1825 
Q 2784 2422 2554 2737 
Q 2325 3053 1888 3053 
Q 1444 3053 1217 2703 
Q 991 2353 991 1663 
Q 991 975 1217 622 
Q 1444 269 1888 269 
Q 2325 269 2554 583 
Q 2784 897 2784 1497 
L 2784 1825 
z
" transform="scale(0.015625)"/>
      <path id="DejaVuSerif-6f" d="M 1925 219 
Q 2388 219 2623 584 
Q 2859 950 2859 1663 
Q 2859 2375 2623 2739 
Q 2388 3103 1925 3103 
Q 1463 3103 1227 2739 
Q 991 2375 991 1663 
Q 991 950 1228 584 
Q 1466 219 1925 219 
z
M 1925 -91 
Q 1200 -91 759 389 
Q 319 869 319 1663 
Q 319 2456 758 2934 
Q 1197 3413 1925 3413 
Q 2653 3413 3092 2934 
Q 3531 2456 3531 1663 
Q 3531 869 3092 389 
Q 2653 -91 1925 -91 
z
" transform="scale(0.015625)"/>
      <path id="DejaVuSerif-66" d="M 2753 4078 
L 2450 4078 
Q 2447 4313 2317 4434 
Q 2188 4556 1941 4556 
Q 1619 4556 1487 4379 
Q 1356 4203 1356 3750 
L 1356 3322 
L 2284 3322 
L 2284 2988 
L 1356 2988 
L 1356 331 
L 2094 331 
L 2094 0 
L 231 0 
L 231 331 
L 781 331 
L 781 2988 
L 231 2988 
L 231 3322 
L 781 3322 
L 781 3738 
Q 781 4294 1070 4578 
Q 1359 4863 1919 4863 
Q 2128 4863 2337 4825 
Q 2547 4788 2753 4709 
L 2753 4078 
z
" transform="scale(0.015625)"/>
      <path id="DejaVuSerif-4b" d="M 353 0 
L 353 331 
L 947 331 
L 947 4331 
L 353 4331 
L 353 4666 
L 2175 4666 
L 2175 4331 
L 1581 4331 
L 1581 2566 
L 3591 4331 
L 3084 4331 
L 3084 4666 
L 4634 4666 
L 4634 4331 
L 4109 4331 
L 2106 2572 
L 4347 331 
L 4878 331 
L 4878 0 
L 3794 0 
L 1581 2216 
L 1581 331 
L 2175 331 
L 2175 0 
L 353 0 
z
" transform="scale(0.015625)"/>
      <path id="DejaVuSerif-4c" d="M 353 0 
L 353 331 
L 947 331 
L 947 4331 
L 353 4331 
L 353 4666 
L 2175 4666 
L 2175 4331 
L 1581 4331 
L 1581 384 
L 3713 384 
L 3713 1166 
L 4097 1166 
L 4097 0 
L 353 0 
z
" transform="scale(0.015625)"/>
      <path id="DejaVuSerif-64" d="M 3359 331 
L 3909 331 
L 3909 0 
L 2784 0 
L 2784 519 
Q 2616 206 2355 57 
Q 2094 -91 1709 -91 
Q 1097 -91 708 395 
Q 319 881 319 1663 
Q 319 2444 706 2928 
Q 1094 3413 1709 3413 
Q 2094 3413 2355 3264 
Q 2616 3116 2784 2803 
L 2784 4531 
L 2241 4531 
L 2241 4863 
L 3359 4863 
L 3359 331 
z
M 2784 1497 
L 2784 1825 
Q 2784 2422 2554 2737 
Q 2325 3053 1888 3053 
Q 1444 3053 1217 2703 
Q 991 2353 991 1663 
Q 991 975 1217 622 
Q 1444 269 1888 269 
Q 2325 269 2554 583 
Q 2784 897 2784 1497 
z
" transform="scale(0.015625)"/>
      <path id="DejaVuSerif-77" d="M 3072 3322 
L 3922 728 
L 4672 2988 
L 4191 2988 
L 4191 3322 
L 5394 3322 
L 5394 2988 
L 5025 2988 
L 4038 0 
L 3559 0 
L 2741 2484 
L 1919 0 
L 1459 0 
L 475 2988 
L 103 2988 
L 103 3322 
L 1606 3322 
L 1606 2988 
L 1069 2988 
L 1813 728 
L 2669 3322 
L 3072 3322 
z
" transform="scale(0.015625)"/>
      <path id="DejaVuSerif-74" d="M 691 2988 
L 184 2988 
L 184 3322 
L 691 3322 
L 691 4353 
L 1269 4353 
L 1269 3322 
L 2350 3322 
L 2350 2988 
L 1269 2988 
L 1269 878 
Q 1269 456 1350 337 
Q 1431 219 1650 219 
Q 1875 219 1978 351 
Q 2081 484 2088 781 
L 2522 781 
Q 2497 328 2275 118 
Q 2053 -91 1600 -91 
Q 1103 -91 897 129 
Q 691 350 691 878 
L 691 2988 
z
" transform="scale(0.015625)"/>
      <path id="DejaVuSerif-68" d="M 263 0 
L 263 331 
L 781 331 
L 781 4531 
L 231 4531 
L 231 4863 
L 1356 4863 
L 1356 2731 
Q 1516 3069 1770 3241 
Q 2025 3413 2363 3413 
Q 2913 3413 3172 3097 
Q 3431 2781 3431 2113 
L 3431 331 
L 3944 331 
L 3944 0 
L 2356 0 
L 2356 331 
L 2853 331 
L 2853 1931 
Q 2853 2541 2704 2764 
Q 2556 2988 2175 2988 
Q 1775 2988 1565 2697 
Q 1356 2406 1356 1850 
L 1356 331 
L 1856 331 
L 1856 0 
L 263 0 
z
" transform="scale(0.015625)"/>
      <path id="DejaVuSerif-Italic-4f" d="M 2219 244 
Q 2984 244 3478 770 
Q 3972 1297 4172 2328 
Q 4372 3363 4084 3889 
Q 3797 4416 3031 4416 
Q 2263 4416 1769 3889 
Q 1275 3363 1075 2328 
Q 875 1297 1162 770 
Q 1450 244 2219 244 
z
M 2153 -91 
Q 1678 -91 1311 65 
Q 944 222 700 525 
Q 419 875 334 1319 
Q 250 1763 359 2328 
Q 469 2894 725 3339 
Q 981 3784 1400 4134 
Q 1766 4441 2191 4595 
Q 2616 4750 3097 4750 
Q 4113 4750 4608 4084 
Q 5103 3419 4891 2328 
Q 4781 1769 4522 1320 
Q 4263 872 3847 525 
Q 3481 219 3056 64 
Q 2631 -91 2153 -91 
z
" transform="scale(0.015625)"/>
      <path id="DejaVuSerif-3d" d="M 678 2894 
L 4684 2894 
L 4684 2394 
L 678 2394 
L 678 2894 
z
M 678 1619 
L 4684 1619 
L 4684 1119 
L 678 1119 
L 678 1619 
z
" transform="scale(0.015625)"/>
      <path id="DejaVuSerif-Italic-5a" d="M -166 0 
L -122 225 
L 3572 4281 
L 1159 4281 
L 1025 3584 
L 641 3584 
L 850 4666 
L 4538 4666 
L 4494 4441 
L 800 384 
L 3438 384 
L 3563 1038 
L 3944 1038 
L 3744 0 
L -166 0 
z
" transform="scale(0.015625)"/>
     </defs>
     <use xlink:href="#DejaVuSerif-55" transform="translate(0 0.015625)"/>
     <use xlink:href="#DejaVuSerif-6e" transform="translate(84.277344 0.015625)"/>
     <use xlink:href="#DejaVuSerif-69" transform="translate(148.681641 0.015625)"/>
     <use xlink:href="#DejaVuSerif-76" transform="translate(180.664062 0.015625)"/>
     <use xlink:href="#DejaVuSerif-65" transform="translate(237.158203 0.015625)"/>
     <use xlink:href="#DejaVuSerif-72" transform="translate(296.337891 0.015625)"/>
     <use xlink:href="#DejaVuSerif-73" transform="translate(344.140625 0.015625)"/>
     <use xlink:href="#DejaVuSerif-61" transform="translate(395.458984 0.015625)"/>
     <use xlink:href="#DejaVuSerif-6c" transform="translate(455.078125 0.015625)"/>
     <use xlink:href="#DejaVuSerif-20" transform="translate(487.060547 0.015625)"/>
     <use xlink:href="#DejaVuSerif-73" transform="translate(518.847656 0.015625)"/>
     <use xlink:href="#DejaVuSerif-63" transform="translate(570.166016 0.015625)"/>
     <use xlink:href="#DejaVuSerif-61" transform="translate(626.171875 0.015625)"/>
     <use xlink:href="#DejaVuSerif-6c" transform="translate(685.791016 0.015625)"/>
     <use xlink:href="#DejaVuSerif-69" transform="translate(717.773438 0.015625)"/>
     <use xlink:href="#DejaVuSerif-6e" transform="translate(749.755859 0.015625)"/>
     <use xlink:href="#DejaVuSerif-67" transform="translate(814.160156 0.015625)"/>
     <use xlink:href="#DejaVuSerif-20" transform="translate(878.173828 0.015625)"/>
     <use xlink:href="#DejaVuSerif-6f" transform="translate(909.960938 0.015625)"/>
     <use xlink:href="#DejaVuSerif-66" transform="translate(970.166016 0.015625)"/>
     <use xlink:href="#DejaVuSerif-20" transform="translate(1007.177734 0.015625)"/>
     <use xlink:href="#DejaVuSerif-4b" transform="translate(1038.964844 0.015625)"/>
     <use xlink:href="#DejaVuSerif-4c" transform="translate(1113.671875 0.015625)"/>
     <use xlink:href="#DejaVuSerif-20" transform="translate(1180.078125 0.015625)"/>
     <use xlink:href="#DejaVuSerif-64" transform="translate(1211.865234 0.015625)"/>
     <use xlink:href="#DejaVuSerif-69" transform="translate(1275.878906 0.015625)"/>
     <use xlink:href="#DejaVuSerif-76" transform="translate(1307.861328 0.015625)"/>
     <use xlink:href="#DejaVuSerif-65" transform="translate(1364.355469 0.015625)"/>
     <use xlink:href="#DejaVuSerif-72" transform="translate(1423.535156 0.015625)"/>
     <use xlink:href="#DejaVuSerif-67" transform="translate(1471.337891 0.015625)"/>
     <use xlink:href="#DejaVuSerif-65" transform="translate(1535.351562 0.015625)"/>
     <use xlink:href="#DejaVuSerif-6e" transform="translate(1594.53125 0.015625)"/>
     <use xlink:href="#DejaVuSerif-63" transform="translate(1658.935547 0.015625)"/>
     <use xlink:href="#DejaVuSerif-65" transform="translate(1714.941406 0.015625)"/>
     <use xlink:href="#DejaVuSerif-20" transform="translate(1774.121094 0.015625)"/>
     <use xlink:href="#DejaVuSerif-77" transform="translate(1805.908203 0.015625)"/>
     <use xlink:href="#DejaVuSerif-69" transform="translate(1891.503906 0.015625)"/>
     <use xlink:href="#DejaVuSerif-74" transform="translate(1923.486328 0.015625)"/>
     <use xlink:href="#DejaVuSerif-68" transform="translate(1963.671875 0.015625)"/>
     <use xlink:href="#DejaVuSerif-20" transform="translate(2028.076172 0.015625)"/>
     <use xlink:href="#DejaVuSerif-Italic-4e" transform="translate(2059.863281 0.015625)"/>
     <use xlink:href="#DejaVuSerif-20" transform="translate(2147.363281 0.015625)"/>
     <use xlink:href="#DejaVuSerif-66" transform="translate(2179.150391 0.015625)"/>
     <use xlink:href="#DejaVuSerif-6f" transform="translate(2216.162109 0.015625)"/>
     <use xlink:href="#DejaVuSerif-72" transform="translate(2276.367188 0.015625)"/>
     <use xlink:href="#DejaVuSerif-20" transform="translate(2324.169922 0.015625)"/>
     <use xlink:href="#DejaVuSerif-Italic-4f" transform="translate(2355.957031 0.015625)"/>
     <use xlink:href="#DejaVuSerif-3d" transform="translate(2456.904297 0.015625)"/>
     <use xlink:href="#DejaVuSerif-Italic-5a" transform="translate(2559.658203 0.015625)"/>
    </g>
   </g>
   <g id="PathCollection_13">
    <g clip-path="url(#pf607f4d06b)">
     <use xlink:href="#m0dd71a8c93" x="120.996691" y="79.368054" style="stroke: #000000"/>
     <use xlink:href="#m0dd71a8c93" x="120.996691" y="79.233268" style="stroke: #000000"/>
    </g>
   </g>
   <g id="PathCollection_14">
    <g clip-path="url(#pf607f4d06b)">
     <use xlink:href="#m0dd71a8c93" x="160.418749" y="110.901825" style="stroke: #000000"/>
     <use xlink:href="#m0dd71a8c93" x="160.418749" y="110.716037" style="stroke: #000000"/>
    </g>
   </g>
   <g id="PathCollection_15">
    <g clip-path="url(#pf607f4d06b)">
     <use xlink:href="#m0dd71a8c93" x="199.840806" y="138.446856" style="stroke: #000000"/>
     <use xlink:href="#m0dd71a8c93" x="199.840806" y="138.133174" style="stroke: #000000"/>
    </g>
   </g>
   <g id="PathCollection_16">
    <g clip-path="url(#pf607f4d06b)">
     <use xlink:href="#m0dd71a8c93" x="239.262864" y="171.241352" style="stroke: #000000"/>
     <use xlink:href="#m0dd71a8c93" x="239.262864" y="170.584697" style="stroke: #000000"/>
    </g>
   </g>
   <g id="PathCollection_17">
    <g clip-path="url(#pf607f4d06b)">
     <use xlink:href="#m0dd71a8c93" x="278.684922" y="207.049665" style="stroke: #000000"/>
     <use xlink:href="#m0dd71a8c93" x="278.684922" y="206.110881" style="stroke: #000000"/>
    </g>
   </g>
   <g id="PathCollection_18">
    <g clip-path="url(#pf607f4d06b)">
     <use xlink:href="#m0dd71a8c93" x="318.106979" y="229.622798" style="stroke: #000000"/>
     <use xlink:href="#m0dd71a8c93" x="318.106979" y="228.523039" style="stroke: #000000"/>
    </g>
   </g>
   <g id="PathCollection_19">
    <g clip-path="url(#pf607f4d06b)">
     <use xlink:href="#m0dd71a8c93" x="357.529037" y="240.042678" style="stroke: #000000"/>
     <use xlink:href="#m0dd71a8c93" x="357.529037" y="238.838743" style="stroke: #000000"/>
    </g>
   </g>
   <g id="PathCollection_20">
    <g clip-path="url(#pf607f4d06b)">
     <use xlink:href="#m0dd71a8c93" x="396.951095" y="240.474776" style="stroke: #000000"/>
     <use xlink:href="#m0dd71a8c93" x="396.951095" y="239.289798" style="stroke: #000000"/>
    </g>
   </g>
   <g id="PathCollection_21">
    <defs>
     <path id="mbd46b701d9" d="M 0 2 
C 0.530406 2 1.03916 1.789267 1.414214 1.414214 
C 1.789267 1.03916 2 0.530406 2 0 
C 2 -0.530406 1.789267 -1.03916 1.414214 -1.414214 
C 1.03916 -1.789267 0.530406 -2 0 -2 
C -0.530406 -2 -1.03916 -1.789267 -1.414214 -1.414214 
C -1.789267 -1.03916 -2 -0.530406 -2 0 
C -2 0.530406 -1.789267 1.03916 -1.414214 1.414214 
C -1.03916 1.789267 -0.530406 2 0 2 
z
" style="stroke: #000000"/>
    </defs>
    <g clip-path="url(#pf607f4d06b)">
     <use xlink:href="#mbd46b701d9" x="120.996691" y="79.30061" style="fill: #55a868; stroke: #000000"/>
     <use xlink:href="#mbd46b701d9" x="160.418749" y="110.808834" style="fill: #55a868; stroke: #000000"/>
     <use xlink:href="#mbd46b701d9" x="199.840806" y="138.289738" style="fill: #55a868; stroke: #000000"/>
     <use xlink:href="#mbd46b701d9" x="239.262864" y="170.911813" style="fill: #55a868; stroke: #000000"/>
     <use xlink:href="#mbd46b701d9" x="278.684922" y="206.577798" style="fill: #55a868; stroke: #000000"/>
     <use xlink:href="#mbd46b701d9" x="318.106979" y="229.069521" style="fill: #55a868; stroke: #000000"/>
     <use xlink:href="#mbd46b701d9" x="357.529037" y="239.436639" style="fill: #55a868; stroke: #000000"/>
     <use xlink:href="#mbd46b701d9" x="396.951095" y="239.878343" style="fill: #55a868; stroke: #000000"/>
    </g>
   </g>
   <g id="line2d_35">
    <path d="M 63.457151 38.340978 
L 63.457151 38.17846 
" clip-path="url(#pf607f4d06b)" style="fill: none; stroke: #000000"/>
   </g>
   <g id="line2d_36">
    <path d="M 102.879209 71.001777 
L 102.879209 70.777859 
" clip-path="url(#pf607f4d06b)" style="fill: none; stroke: #000000"/>
   </g>
   <g id="line2d_37">
    <path d="M 142.301266 96.936869 
L 142.301266 96.697044 
" clip-path="url(#pf607f4d06b)" style="fill: none; stroke: #000000"/>
   </g>
   <g id="line2d_38">
    <path d="M 181.723324 123.797752 
L 181.723324 123.356693 
" clip-path="url(#pf607f4d06b)" style="fill: none; stroke: #000000"/>
   </g>
   <g id="line2d_39">
    <path d="M 221.145382 157.248208 
L 221.145382 156.077062 
" clip-path="url(#pf607f4d06b)" style="fill: none; stroke: #000000"/>
   </g>
   <g id="line2d_40">
    <path d="M 260.567439 199.145903 
L 260.567439 197.471408 
" clip-path="url(#pf607f4d06b)" style="fill: none; stroke: #000000"/>
   </g>
   <g id="line2d_41">
    <path d="M 299.989497 228.560347 
L 299.989497 226.759914 
" clip-path="url(#pf607f4d06b)" style="fill: none; stroke: #000000"/>
   </g>
   <g id="line2d_42">
    <path d="M 339.411554 245.697256 
L 339.411554 243.478929 
" clip-path="url(#pf607f4d06b)" style="fill: none; stroke: #000000"/>
   </g>
   <g id="line2d_43">
    <path d="M 378.833612 242.863803 
L 378.833612 240.942683 
" clip-path="url(#pf607f4d06b)" style="fill: none; stroke: #000000"/>
   </g>
   <g id="line2d_44">
    <path d="M 418.25567 241.342113 
L 418.25567 239.596969 
" clip-path="url(#pf607f4d06b)" style="fill: none; stroke: #000000"/>
   </g>
   <g id="PathCollection_22">
    <g clip-path="url(#pf607f4d06b)">
     <use xlink:href="#m0dd71a8c93" x="63.457151" y="38.340978" style="stroke: #000000"/>
     <use xlink:href="#m0dd71a8c93" x="63.457151" y="38.17846" style="stroke: #000000"/>
    </g>
   </g>
   <g id="PathCollection_23">
    <g clip-path="url(#pf607f4d06b)">
     <use xlink:href="#m0dd71a8c93" x="102.879209" y="71.001777" style="stroke: #000000"/>
     <use xlink:href="#m0dd71a8c93" x="102.879209" y="70.777859" style="stroke: #000000"/>
    </g>
   </g>
   <g id="PathCollection_24">
    <g clip-path="url(#pf607f4d06b)">
     <use xlink:href="#m0dd71a8c93" x="142.301266" y="96.936869" style="stroke: #000000"/>
     <use xlink:href="#m0dd71a8c93" x="142.301266" y="96.697044" style="stroke: #000000"/>
    </g>
   </g>
   <g id="PathCollection_25">
    <g clip-path="url(#pf607f4d06b)">
     <use xlink:href="#m0dd71a8c93" x="181.723324" y="123.797752" style="stroke: #000000"/>
     <use xlink:href="#m0dd71a8c93" x="181.723324" y="123.356693" style="stroke: #000000"/>
    </g>
   </g>
   <g id="PathCollection_26">
    <g clip-path="url(#pf607f4d06b)">
     <use xlink:href="#m0dd71a8c93" x="221.145382" y="157.248208" style="stroke: #000000"/>
     <use xlink:href="#m0dd71a8c93" x="221.145382" y="156.077062" style="stroke: #000000"/>
    </g>
   </g>
   <g id="PathCollection_27">
    <g clip-path="url(#pf607f4d06b)">
     <use xlink:href="#m0dd71a8c93" x="260.567439" y="199.145903" style="stroke: #000000"/>
     <use xlink:href="#m0dd71a8c93" x="260.567439" y="197.471408" style="stroke: #000000"/>
    </g>
   </g>
   <g id="PathCollection_28">
    <g clip-path="url(#pf607f4d06b)">
     <use xlink:href="#m0dd71a8c93" x="299.989497" y="228.560347" style="stroke: #000000"/>
     <use xlink:href="#m0dd71a8c93" x="299.989497" y="226.759914" style="stroke: #000000"/>
    </g>
   </g>
   <g id="PathCollection_29">
    <g clip-path="url(#pf607f4d06b)">
     <use xlink:href="#m0dd71a8c93" x="339.411554" y="245.697256" style="stroke: #000000"/>
     <use xlink:href="#m0dd71a8c93" x="339.411554" y="243.478929" style="stroke: #000000"/>
    </g>
   </g>
   <g id="PathCollection_30">
    <g clip-path="url(#pf607f4d06b)">
     <use xlink:href="#m0dd71a8c93" x="378.833612" y="242.863803" style="stroke: #000000"/>
     <use xlink:href="#m0dd71a8c93" x="378.833612" y="240.942683" style="stroke: #000000"/>
    </g>
   </g>
   <g id="PathCollection_31">
    <g clip-path="url(#pf607f4d06b)">
     <use xlink:href="#m0dd71a8c93" x="418.25567" y="241.342113" style="stroke: #000000"/>
     <use xlink:href="#m0dd71a8c93" x="418.25567" y="239.596969" style="stroke: #000000"/>
    </g>
   </g>
   <g id="PathCollection_32">
    <defs>
     <path id="m63460fa196" d="M 0 2 
C 0.530406 2 1.03916 1.789267 1.414214 1.414214 
C 1.789267 1.03916 2 0.530406 2 0 
C 2 -0.530406 1.789267 -1.03916 1.414214 -1.414214 
C 1.03916 -1.789267 0.530406 -2 0 -2 
C -0.530406 -2 -1.03916 -1.789267 -1.414214 -1.414214 
C -1.789267 -1.03916 -2 -0.530406 -2 0 
C -2 0.530406 -1.789267 1.03916 -1.414214 1.414214 
C -1.03916 1.789267 -0.530406 2 0 2 
z
" style="stroke: #000000"/>
    </defs>
    <g clip-path="url(#pf607f4d06b)">
     <use xlink:href="#m63460fa196" x="63.457151" y="38.259645" style="fill: #c44e52; stroke: #000000"/>
     <use xlink:href="#m63460fa196" x="102.879209" y="70.889677" style="fill: #c44e52; stroke: #000000"/>
     <use xlink:href="#m63460fa196" x="142.301266" y="96.816795" style="fill: #c44e52; stroke: #000000"/>
     <use xlink:href="#m63460fa196" x="181.723324" y="123.576676" style="fill: #c44e52; stroke: #000000"/>
     <use xlink:href="#m63460fa196" x="221.145382" y="156.658782" style="fill: #c44e52; stroke: #000000"/>
     <use xlink:href="#m63460fa196" x="260.567439" y="198.30078" style="fill: #c44e52; stroke: #000000"/>
     <use xlink:href="#m63460fa196" x="299.989497" y="227.651026" style="fill: #c44e52; stroke: #000000"/>
     <use xlink:href="#m63460fa196" x="339.411554" y="244.574271" style="fill: #c44e52; stroke: #000000"/>
     <use xlink:href="#m63460fa196" x="378.833612" y="241.892877" style="fill: #c44e52; stroke: #000000"/>
     <use xlink:href="#m63460fa196" x="418.25567" y="240.460987" style="fill: #c44e52; stroke: #000000"/>
    </g>
   </g>
   <g id="line2d_45">
    <path d="M -1 242.133149 
L 433 242.133149 
" clip-path="url(#pf607f4d06b)" style="fill: none; stroke-dasharray: 3.7,1.6; stroke-dashoffset: 0; stroke: #8c8c8c"/>
   </g>
   <g id="line2d_46">
    <path d="M 54.599515 26.218994 
L 57.386933 28.399945 
L 60.174352 30.580896 
L 62.96177 32.761847 
L 65.749188 34.942798 
L 68.536606 37.123749 
L 71.324024 39.3047 
L 74.111443 41.485651 
L 76.898861 43.666602 
L 79.686279 45.847553 
L 82.473697 48.028504 
L 85.261115 50.209455 
L 88.048534 52.390406 
L 90.835952 54.571357 
L 93.62337 56.752308 
L 96.410788 58.93326 
L 99.198207 61.114211 
L 101.985625 63.295162 
L 104.773043 65.476113 
L 107.560461 67.657064 
L 110.347879 69.838015 
L 113.135298 72.018966 
L 115.922716 74.199917 
L 118.710134 76.380868 
L 121.497552 78.561819 
L 124.28497 80.74277 
L 127.072389 82.923721 
L 129.859807 85.104672 
L 132.647225 87.285623 
L 135.434643 89.466574 
L 138.222062 91.647525 
L 141.00948 93.828477 
L 143.796898 96.009428 
L 146.584316 98.190379 
L 149.371734 100.37133 
L 152.159153 102.552281 
L 154.946571 104.733232 
L 157.733989 106.914183 
L 160.521407 109.095134 
L 163.308825 111.276085 
L 166.096244 113.457036 
L 168.883662 115.637987 
L 171.67108 117.818938 
L 174.458498 119.999889 
L 177.245917 122.18084 
L 180.033335 124.361791 
L 182.820753 126.542743 
L 185.608171 128.723694 
L 188.395589 130.904645 
L 191.183008 133.085596 
L 193.970426 135.266547 
L 196.757844 137.447498 
L 199.545262 139.628449 
L 202.33268 141.8094 
L 205.120099 143.990351 
L 207.907517 146.171302 
L 210.694935 148.352253 
L 213.482353 150.533204 
L 216.269772 152.714155 
L 219.05719 154.895106 
L 221.844608 157.076057 
L 224.632026 159.257008 
L 227.419444 161.43796 
L 230.206863 163.618911 
L 232.994281 165.799862 
L 235.781699 167.980813 
L 238.569117 170.161764 
L 241.356535 172.342715 
L 244.143954 174.523666 
L 246.931372 176.704617 
L 249.71879 178.885568 
L 252.506208 181.066519 
L 255.293627 183.24747 
L 258.081045 185.428421 
L 260.868463 187.609372 
L 263.655881 189.790323 
L 266.443299 191.971274 
L 269.230718 194.152226 
L 272.018136 196.333177 
L 274.805554 198.514128 
L 277.592972 200.695079 
L 280.380391 202.87603 
L 283.167809 205.056981 
L 285.955227 207.237932 
L 288.742645 209.418883 
L 291.530063 211.599834 
L 294.317482 213.780785 
L 297.1049 215.961736 
L 299.892318 218.142687 
L 302.679736 220.323638 
L 305.467154 222.504589 
L 308.254573 224.68554 
L 311.041991 226.866491 
L 313.829409 229.047443 
L 316.616827 231.228394 
L 319.404246 233.409345 
L 322.191664 235.590296 
L 324.979082 237.771247 
L 327.7665 239.952198 
L 330.553918 242.133149 
" clip-path="url(#pf607f4d06b)" style="fill: none; stroke-dasharray: 3.7,1.6; stroke-dashoffset: 0; stroke: #8c8c8c"/>
   </g>
   <g id="legend_1">
    <g id="patch_7">
     <path d="M 350.310667 94.347146 
L 424.165354 94.347146 
L 424.165354 24.634646 
L 350.310667 24.634646 
z
" style="fill: #ffffff; stroke: #000000; stroke-linejoin: miter"/>
    </g>
    <g id="line2d_47">
     <path d="M 358.310667 36.733083 
L 368.310667 36.733083 
L 378.310667 36.733083 
" style="fill: none"/>
     <defs>
      <path id="mab36456bba" d="M 0 4 
C 1.060812 4 2.078319 3.578535 2.828427 2.828427 
C 3.578535 2.078319 4 1.060812 4 0 
C 4 -1.060812 3.578535 -2.078319 2.828427 -2.828427 
C 2.078319 -3.578535 1.060812 -4 0 -4 
C -1.060812 -4 -2.078319 -3.578535 -2.828427 -2.828427 
C -3.578535 -2.078319 -4 -1.060812 -4 0 
C -4 1.060812 -3.578535 2.078319 -2.828427 2.828427 
C -2.078319 3.578535 -1.060812 4 0 4 
z
" style="stroke: #000000; stroke-width: 2"/>
     </defs>
     <g>
      <use xlink:href="#mab36456bba" x="368.310667" y="36.733083" style="fill: #4c72b0; stroke: #000000; stroke-width: 2"/>
     </g>
    </g>
    <g id="text_12">
     <!-- N=6 -->
     <g transform="translate(386.310667 40.233083) scale(0.1 -0.1)">
      <defs>
       <path id="DejaVuSerif-4e" d="M 313 0 
L 313 331 
L 941 331 
L 941 4331 
L 313 4331 
L 313 4666 
L 1509 4666 
L 4306 984 
L 4306 4331 
L 3681 4331 
L 3681 4666 
L 5319 4666 
L 5319 4331 
L 4691 4331 
L 4691 -91 
L 4313 -91 
L 1325 3841 
L 1325 331 
L 1953 331 
L 1953 0 
L 313 0 
z
" transform="scale(0.015625)"/>
      </defs>
      <use xlink:href="#DejaVuSerif-4e"/>
      <use xlink:href="#DejaVuSerif-3d" x="87.5"/>
      <use xlink:href="#DejaVuSerif-36" x="171.289062"/>
     </g>
    </g>
    <g id="line2d_48">
     <path d="M 358.310667 51.411208 
L 368.310667 51.411208 
L 378.310667 51.411208 
" style="fill: none"/>
     <defs>
      <path id="m474ecbbc06" d="M 0 4 
C 1.060812 4 2.078319 3.578535 2.828427 2.828427 
C 3.578535 2.078319 4 1.060812 4 0 
C 4 -1.060812 3.578535 -2.078319 2.828427 -2.828427 
C 2.078319 -3.578535 1.060812 -4 0 -4 
C -1.060812 -4 -2.078319 -3.578535 -2.828427 -2.828427 
C -3.578535 -2.078319 -4 -1.060812 -4 0 
C -4 1.060812 -3.578535 2.078319 -2.828427 2.828427 
C -2.078319 3.578535 -1.060812 4 0 4 
z
" style="stroke: #000000; stroke-width: 2"/>
     </defs>
     <g>
      <use xlink:href="#m474ecbbc06" x="368.310667" y="51.411208" style="fill: #dd8452; stroke: #000000; stroke-width: 2"/>
     </g>
    </g>
    <g id="text_13">
     <!-- N=8 -->
     <g transform="translate(386.310667 54.911208) scale(0.1 -0.1)">
      <defs>
       <path id="DejaVuSerif-38" d="M 2981 1275 
Q 2981 1775 2732 2051 
Q 2484 2328 2034 2328 
Q 1584 2328 1336 2051 
Q 1088 1775 1088 1275 
Q 1088 772 1336 495 
Q 1584 219 2034 219 
Q 2484 219 2732 495 
Q 2981 772 2981 1275 
z
M 2853 3541 
Q 2853 3966 2637 4203 
Q 2422 4441 2034 4441 
Q 1650 4441 1433 4203 
Q 1216 3966 1216 3541 
Q 1216 3113 1433 2875 
Q 1650 2638 2034 2638 
Q 2422 2638 2637 2875 
Q 2853 3113 2853 3541 
z
M 2516 2484 
Q 3047 2413 3344 2092 
Q 3641 1772 3641 1275 
Q 3641 619 3225 264 
Q 2809 -91 2034 -91 
Q 1263 -91 845 264 
Q 428 619 428 1275 
Q 428 1772 725 2092 
Q 1022 2413 1556 2484 
Q 1084 2569 832 2842 
Q 581 3116 581 3541 
Q 581 4103 968 4426 
Q 1356 4750 2034 4750 
Q 2713 4750 3100 4426 
Q 3488 4103 3488 3541 
Q 3488 3116 3236 2842 
Q 2984 2569 2516 2484 
z
" transform="scale(0.015625)"/>
      </defs>
      <use xlink:href="#DejaVuSerif-4e"/>
      <use xlink:href="#DejaVuSerif-3d" x="87.5"/>
      <use xlink:href="#DejaVuSerif-38" x="171.289062"/>
     </g>
    </g>
    <g id="line2d_49">
     <path d="M 358.310667 66.089333 
L 368.310667 66.089333 
L 378.310667 66.089333 
" style="fill: none"/>
     <defs>
      <path id="ma5377df42e" d="M 0 4 
C 1.060812 4 2.078319 3.578535 2.828427 2.828427 
C 3.578535 2.078319 4 1.060812 4 0 
C 4 -1.060812 3.578535 -2.078319 2.828427 -2.828427 
C 2.078319 -3.578535 1.060812 -4 0 -4 
C -1.060812 -4 -2.078319 -3.578535 -2.828427 -2.828427 
C -3.578535 -2.078319 -4 -1.060812 -4 0 
C -4 1.060812 -3.578535 2.078319 -2.828427 2.828427 
C -2.078319 3.578535 -1.060812 4 0 4 
z
" style="stroke: #000000; stroke-width: 2"/>
     </defs>
     <g>
      <use xlink:href="#ma5377df42e" x="368.310667" y="66.089333" style="fill: #55a868; stroke: #000000; stroke-width: 2"/>
     </g>
    </g>
    <g id="text_14">
     <!-- N=10 -->
     <g transform="translate(386.310667 69.589333) scale(0.1 -0.1)">
      <use xlink:href="#DejaVuSerif-4e"/>
      <use xlink:href="#DejaVuSerif-3d" x="87.5"/>
      <use xlink:href="#DejaVuSerif-31" x="171.289062"/>
      <use xlink:href="#DejaVuSerif-30" x="234.912109"/>
     </g>
    </g>
    <g id="line2d_50">
     <path d="M 358.310667 80.767458 
L 368.310667 80.767458 
L 378.310667 80.767458 
" style="fill: none"/>
     <defs>
      <path id="mec3f403718" d="M 0 4 
C 1.060812 4 2.078319 3.578535 2.828427 2.828427 
C 3.578535 2.078319 4 1.060812 4 0 
C 4 -1.060812 3.578535 -2.078319 2.828427 -2.828427 
C 2.078319 -3.578535 1.060812 -4 0 -4 
C -1.060812 -4 -2.078319 -3.578535 -2.828427 -2.828427 
C -3.578535 -2.078319 -4 -1.060812 -4 0 
C -4 1.060812 -3.578535 2.078319 -2.828427 2.828427 
C -2.078319 3.578535 -1.060812 4 0 4 
z
" style="stroke: #000000; stroke-width: 2"/>
     </defs>
     <g>
      <use xlink:href="#mec3f403718" x="368.310667" y="80.767458" style="fill: #c44e52; stroke: #000000; stroke-width: 2"/>
     </g>
    </g>
    <g id="text_15">
     <!-- N=12 -->
     <g transform="translate(386.310667 84.267458) scale(0.1 -0.1)">
      <use xlink:href="#DejaVuSerif-4e"/>
      <use xlink:href="#DejaVuSerif-3d" x="87.5"/>
      <use xlink:href="#DejaVuSerif-31" x="171.289062"/>
      <use xlink:href="#DejaVuSerif-32" x="234.912109"/>
     </g>
    </g>
   </g>
  </g>
 </g>
 <defs>
  <clipPath id="pf607f4d06b">
   <rect x="43.68983" y="19.634646" width="385.475524" height="232.646959"/>
  </clipPath>
 </defs>
</svg>
