<?xml version="1.0" encoding="utf-8" standalone="no"?>
<!DOCTYPE svg PUBLIC "-//W3C//DTD SVG 1.1//EN"
  "http://www.w3.org/Graphics/SVG/1.1/DTD/svg11.dtd">
<svg xmlns:xlink="http://www.w3.org/1999/xlink" width="432pt" height="288pt" viewBox="0 0 432 288" xmlns="http://www.w3.org/2000/svg" version="1.1">
 <metadata>
  <rdf:RDF xmlns:dc="http://purl.org/dc/elements/1.1/" xmlns:cc="http://creativecommons.org/ns#" xmlns:rdf="http://www.w3.org/1999/02/22-rdf-syntax-ns#">
   <cc:Work>
    <dc:type rdf:resource="http://purl.org/dc/dcmitype/StillImage"/>
    <dc:date>2024-08-29T23:00:17.756971</dc:date>
    <dc:format>image/svg+xml</dc:format>
    <dc:creator>
     <cc:Agent>
      <dc:title>Matplotlib v3.9.2, https://matplotlib.org/</dc:title>
     </cc:Agent>
    </dc:creator>
   </cc:Work>
  </rdf:RDF>
 </metadata>
 <defs>
  <style type="text/css">*{stroke-linejoin: round; stroke-linecap: butt}</style>
 </defs>
 <g id="figure_1">
  <g id="patch_1">
   <path d="M 0 288 
L 432 288 
L 432 0 
L 0 0 
z
" style="fill: #ffffff"/>
  </g>
  <g id="axes_1">
   <g id="patch_2">
    <path d="M 61.859353 239.905354 
L 429.165354 239.905354 
L 429.165354 2.834646 
L 61.859353 2.834646 
z
" style="fill: #ffffff"/>
   </g>
   <g id="line2d_1">
    <path d="M 75.154717 17.848198 
L 81.052843 17.599733 
L 86.950969 18.025672 
L 92.849095 17.670723 
L 98.747221 19.161509 
L 104.645346 18.664581 
L 110.543472 19.161509 
L 116.441598 20.261851 
L 122.339724 20.190862 
L 128.237849 20.90076 
L 134.135975 22.249566 
L 140.034101 22.285061 
L 145.932227 23.385403 
L 151.830353 25.053664 
L 157.728478 25.373118 
L 163.626604 27.076874 
L 169.52473 27.644792 
L 175.422856 29.313053 
L 181.320981 30.981314 
L 187.219107 32.081656 
L 193.117233 34.530805 
L 199.015359 34.885754 
L 204.913484 37.583367 
L 210.81161 38.612719 
L 216.709736 42.126715 
L 222.607862 42.694633 
L 228.505988 45.321257 
L 234.404113 48.586788 
L 240.302239 49.332181 
L 246.200365 54.017509 
L 252.098491 54.691912 
L 257.996616 58.880312 
L 263.894742 61.045501 
L 269.792868 65.30489 
L 275.690994 66.724686 
L 281.58912 72.368377 
L 287.487245 74.320597 
L 293.385371 78.579986 
L 299.283497 82.768385 
L 305.181623 86.992279 
L 311.079748 90.967709 
L 316.977874 96.646894 
L 322.876 101.758161 
L 328.774126 106.053045 
L 334.672252 112.584108 
L 340.570377 118.298788 
L 346.468503 125.504254 
L 352.366629 133.455114 
L 358.264755 140.554095 
L 364.16288 150.528165 
L 370.061006 160.360254 
L 375.959132 173.883814 
L 381.857258 190.530926 
L 387.755384 220.453134 
L 393.653509 233.195806 
L 399.551635 233.195806 
L 405.449761 233.195806 
L 411.347887 233.195806 
L 417.246012 233.195806 
" clip-path="url(#p09c40ffd1c)" style="fill: none; stroke: #4c72b0; stroke-width: 5"/>
   </g>
   <g id="matplotlib.axis_1">
    <g id="xtick_1">
     <g id="line2d_2">
      <defs>
       <path id="m50458e8eb4" d="M 0 0 
L 0 -2.5 
" style="stroke: #000000; stroke-width: 0.5"/>
      </defs>
      <g>
       <use xlink:href="#m50458e8eb4" x="72.254806" y="239.905354" style="stroke: #000000; stroke-width: 0.5"/>
      </g>
     </g>
     <g id="line2d_3">
      <defs>
       <path id="mac12254667" d="M 0 0 
L 0 2.5 
" style="stroke: #000000; stroke-width: 0.5"/>
      </defs>
      <g>
       <use xlink:href="#mac12254667" x="72.254806" y="2.834646" style="stroke: #000000; stroke-width: 0.5"/>
      </g>
     </g>
     <g id="text_1">
      <!-- $0.0$ -->
      <g transform="translate(59.454806 255.562854) scale(0.16 -0.16)">
       <defs>
        <path id="DejaVuSerif-30" d="M 2034 219 
Q 2513 219 2750 744 
Q 2988 1269 2988 2328 
Q 2988 3391 2750 3916 
Q 2513 4441 2034 4441 
Q 1556 4441 1318 3916 
Q 1081 3391 1081 2328 
Q 1081 1269 1318 744 
Q 1556 219 2034 219 
z
M 2034 -91 
Q 1275 -91 848 546 
Q 422 1184 422 2328 
Q 422 3475 848 4112 
Q 1275 4750 2034 4750 
Q 2797 4750 3222 4112 
Q 3647 3475 3647 2328 
Q 3647 1184 3222 546 
Q 2797 -91 2034 -91 
z
" transform="scale(0.015625)"/>
        <path id="DejaVuSerif-2e" d="M 603 325 
Q 603 500 722 622 
Q 841 744 1019 744 
Q 1191 744 1312 622 
Q 1434 500 1434 325 
Q 1434 153 1312 31 
Q 1191 -91 1019 -91 
Q 841 -91 722 29 
Q 603 150 603 325 
z
" transform="scale(0.015625)"/>
       </defs>
       <use xlink:href="#DejaVuSerif-30" transform="translate(0 0.78125)"/>
       <use xlink:href="#DejaVuSerif-2e" transform="translate(63.623047 0.78125)"/>
       <use xlink:href="#DejaVuSerif-30" transform="translate(95.410156 0.78125)"/>
      </g>
     </g>
    </g>
    <g id="xtick_2">
     <g id="line2d_4">
      <g>
       <use xlink:href="#m50458e8eb4" x="151.34331" y="239.905354" style="stroke: #000000; stroke-width: 0.5"/>
      </g>
     </g>
     <g id="line2d_5">
      <g>
       <use xlink:href="#mac12254667" x="151.34331" y="2.834646" style="stroke: #000000; stroke-width: 0.5"/>
      </g>
     </g>
     <g id="text_2">
      <!-- $0.5$ -->
      <g transform="translate(138.54331 255.562854) scale(0.16 -0.16)">
       <defs>
        <path id="DejaVuSerif-35" d="M 3219 4666 
L 3219 4153 
L 1081 4153 
L 1081 2816 
Q 1244 2928 1461 2984 
Q 1678 3041 1947 3041 
Q 2703 3041 3140 2622 
Q 3578 2203 3578 1478 
Q 3578 738 3136 323 
Q 2694 -91 1894 -91 
Q 1572 -91 1234 -12 
Q 897 66 544 225 
L 544 1131 
L 897 1131 
Q 925 688 1179 453 
Q 1434 219 1894 219 
Q 2388 219 2653 544 
Q 2919 869 2919 1478 
Q 2919 2084 2655 2407 
Q 2391 2731 1894 2731 
Q 1613 2731 1398 2631 
Q 1184 2531 1019 2322 
L 750 2322 
L 750 4666 
L 3219 4666 
z
" transform="scale(0.015625)"/>
       </defs>
       <use xlink:href="#DejaVuSerif-30" transform="translate(0 0.78125)"/>
       <use xlink:href="#DejaVuSerif-2e" transform="translate(63.623047 0.78125)"/>
       <use xlink:href="#DejaVuSerif-35" transform="translate(95.410156 0.78125)"/>
      </g>
     </g>
    </g>
    <g id="xtick_3">
     <g id="line2d_6">
      <g>
       <use xlink:href="#m50458e8eb4" x="230.431815" y="239.905354" style="stroke: #000000; stroke-width: 0.5"/>
      </g>
     </g>
     <g id="line2d_7">
      <g>
       <use xlink:href="#mac12254667" x="230.431815" y="2.834646" style="stroke: #000000; stroke-width: 0.5"/>
      </g>
     </g>
     <g id="text_3">
      <!-- $1.0$ -->
      <g transform="translate(217.631815 255.562854) scale(0.16 -0.16)">
       <defs>
        <path id="DejaVuSerif-31" d="M 909 0 
L 909 331 
L 1722 331 
L 1722 4213 
L 781 3603 
L 781 4013 
L 1919 4750 
L 2350 4750 
L 2350 331 
L 3163 331 
L 3163 0 
L 909 0 
z
" transform="scale(0.015625)"/>
       </defs>
       <use xlink:href="#DejaVuSerif-31" transform="translate(0 0.78125)"/>
       <use xlink:href="#DejaVuSerif-2e" transform="translate(63.623047 0.78125)"/>
       <use xlink:href="#DejaVuSerif-30" transform="translate(95.410156 0.78125)"/>
      </g>
     </g>
    </g>
    <g id="xtick_4">
     <g id="line2d_8">
      <g>
       <use xlink:href="#m50458e8eb4" x="309.52032" y="239.905354" style="stroke: #000000; stroke-width: 0.5"/>
      </g>
     </g>
     <g id="line2d_9">
      <g>
       <use xlink:href="#mac12254667" x="309.52032" y="2.834646" style="stroke: #000000; stroke-width: 0.5"/>
      </g>
     </g>
     <g id="text_4">
      <!-- $1.5$ -->
      <g transform="translate(296.72032 255.562854) scale(0.16 -0.16)">
       <use xlink:href="#DejaVuSerif-31" transform="translate(0 0.78125)"/>
       <use xlink:href="#DejaVuSerif-2e" transform="translate(63.623047 0.78125)"/>
       <use xlink:href="#DejaVuSerif-35" transform="translate(95.410156 0.78125)"/>
      </g>
     </g>
    </g>
    <g id="xtick_5">
     <g id="line2d_10">
      <g>
       <use xlink:href="#m50458e8eb4" x="388.608824" y="239.905354" style="stroke: #000000; stroke-width: 0.5"/>
      </g>
     </g>
     <g id="line2d_11">
      <g>
       <use xlink:href="#mac12254667" x="388.608824" y="2.834646" style="stroke: #000000; stroke-width: 0.5"/>
      </g>
     </g>
     <g id="text_5">
      <!-- $2.0$ -->
      <g transform="translate(375.808824 255.562854) scale(0.16 -0.16)">
       <defs>
        <path id="DejaVuSerif-32" d="M 819 3553 
L 469 3553 
L 469 4384 
Q 803 4563 1142 4656 
Q 1481 4750 1806 4750 
Q 2534 4750 2956 4397 
Q 3378 4044 3378 3438 
Q 3378 2753 2422 1800 
Q 2347 1728 2309 1691 
L 1131 513 
L 3078 513 
L 3078 1088 
L 3444 1088 
L 3444 0 
L 434 0 
L 434 341 
L 1850 1753 
Q 2319 2222 2519 2614 
Q 2719 3006 2719 3438 
Q 2719 3909 2473 4175 
Q 2228 4441 1797 4441 
Q 1350 4441 1106 4219 
Q 863 3997 819 3553 
z
" transform="scale(0.015625)"/>
       </defs>
       <use xlink:href="#DejaVuSerif-32" transform="translate(0 0.78125)"/>
       <use xlink:href="#DejaVuSerif-2e" transform="translate(63.623047 0.78125)"/>
       <use xlink:href="#DejaVuSerif-30" transform="translate(95.410156 0.78125)"/>
      </g>
     </g>
    </g>
    <g id="text_6">
     <!-- $\sqrt{\lambda}$ -->
     <g transform="translate(233.432354 277.802854) scale(0.16 -0.16)">
      <defs>
       <path id="STIXSizeOneSym-Regular-221a" d="M 6970 9933 
L 3373 -1888 
L 3104 -1888 
L 1626 2918 
Q 1555 3149 1465 3251 
Q 1376 3354 1229 3354 
Q 1011 3354 794 3181 
L 717 3309 
L 1766 4115 
L 1926 4115 
L 3379 -602 
L 3405 -602 
L 6605 9933 
L 6970 9933 
z
" transform="scale(0.015625)"/>
       <path id="DejaVuSerif-Italic-3bb" d="M 1984 4084 
Q 1925 4372 1834 4466 
Q 1744 4563 1578 4563 
Q 1391 4563 1288 4472 
Q 1178 4378 1119 4166 
L 825 4166 
L 947 4800 
Q 1113 4847 1272 4872 
Q 1431 4897 1578 4897 
Q 1925 4897 2088 4753 
Q 2253 4613 2334 4225 
L 3100 334 
L 3472 334 
L 3406 0 
L 2159 0 
L 2225 334 
L 2722 334 
L 2281 2628 
L 853 334 
L 1384 334 
L 1319 0 
L -209 0 
L -144 334 
L 234 334 
L 2116 3388 
L 1984 4084 
z
" transform="scale(0.015625)"/>
      </defs>
      <use xlink:href="#STIXSizeOneSym-Regular-221a" transform="translate(0 17.984375) scale(0.583453)"/>
      <use xlink:href="#DejaVuSerif-Italic-3bb" transform="translate(74.202362 1.234375)"/>
      <path d="M 61.702362 101.5 
L 61.702362 107.75 
L 150.081268 107.75 
L 150.081268 101.5 
L 61.702362 101.5 
z
"/>
     </g>
    </g>
   </g>
   <g id="matplotlib.axis_2">
    <g id="ytick_1">
     <g id="line2d_12">
      <defs>
       <path id="mf93eecd476" d="M 0 0 
L 2.5 0 
" style="stroke: #000000; stroke-width: 0.5"/>
      </defs>
      <g>
       <use xlink:href="#mf93eecd476" x="61.859353" y="233.195806" style="stroke: #000000; stroke-width: 0.5"/>
      </g>
     </g>
     <g id="line2d_13">
      <defs>
       <path id="mf5db57cf7a" d="M 0 0 
L -2.5 0 
" style="stroke: #000000; stroke-width: 0.5"/>
      </defs>
      <g>
       <use xlink:href="#mf5db57cf7a" x="429.165354" y="233.195806" style="stroke: #000000; stroke-width: 0.5"/>
      </g>
     </g>
     <g id="text_7">
      <!-- $0.0$ -->
      <g transform="translate(32.759353 239.274556) scale(0.16 -0.16)">
       <use xlink:href="#DejaVuSerif-30" transform="translate(0 0.78125)"/>
       <use xlink:href="#DejaVuSerif-2e" transform="translate(63.623047 0.78125)"/>
       <use xlink:href="#DejaVuSerif-30" transform="translate(95.410156 0.78125)"/>
      </g>
     </g>
    </g>
    <g id="ytick_2">
     <g id="line2d_14">
      <g>
       <use xlink:href="#mf93eecd476" x="61.859353" y="199.313209" style="stroke: #000000; stroke-width: 0.5"/>
      </g>
     </g>
     <g id="line2d_15">
      <g>
       <use xlink:href="#mf5db57cf7a" x="429.165354" y="199.313209" style="stroke: #000000; stroke-width: 0.5"/>
      </g>
     </g>
     <g id="text_8">
      <!-- $0.1$ -->
      <g transform="translate(32.759353 205.391959) scale(0.16 -0.16)">
       <use xlink:href="#DejaVuSerif-30" transform="translate(0 0.78125)"/>
       <use xlink:href="#DejaVuSerif-2e" transform="translate(63.623047 0.78125)"/>
       <use xlink:href="#DejaVuSerif-31" transform="translate(95.410156 0.78125)"/>
      </g>
     </g>
    </g>
    <g id="ytick_3">
     <g id="line2d_16">
      <g>
       <use xlink:href="#mf93eecd476" x="61.859353" y="165.430612" style="stroke: #000000; stroke-width: 0.5"/>
      </g>
     </g>
     <g id="line2d_17">
      <g>
       <use xlink:href="#mf5db57cf7a" x="429.165354" y="165.430612" style="stroke: #000000; stroke-width: 0.5"/>
      </g>
     </g>
     <g id="text_9">
      <!-- $0.2$ -->
      <g transform="translate(33.239353 171.509362) scale(0.16 -0.16)">
       <use xlink:href="#DejaVuSerif-30" transform="translate(0 0.78125)"/>
       <use xlink:href="#DejaVuSerif-2e" transform="translate(63.623047 0.78125)"/>
       <use xlink:href="#DejaVuSerif-32" transform="translate(92.785156 0.78125)"/>
      </g>
     </g>
    </g>
    <g id="ytick_4">
     <g id="line2d_18">
      <g>
       <use xlink:href="#mf93eecd476" x="61.859353" y="131.548015" style="stroke: #000000; stroke-width: 0.5"/>
      </g>
     </g>
     <g id="line2d_19">
      <g>
       <use xlink:href="#mf5db57cf7a" x="429.165354" y="131.548015" style="stroke: #000000; stroke-width: 0.5"/>
      </g>
     </g>
     <g id="text_10">
      <!-- $0.3$ -->
      <g transform="translate(32.759353 137.626765) scale(0.16 -0.16)">
       <defs>
        <path id="DejaVuSerif-33" d="M 622 4469 
Q 988 4606 1323 4678 
Q 1659 4750 1953 4750 
Q 2638 4750 3022 4454 
Q 3406 4159 3406 3634 
Q 3406 3213 3140 2930 
Q 2875 2647 2388 2547 
Q 2963 2466 3280 2130 
Q 3597 1794 3597 1259 
Q 3597 606 3158 257 
Q 2719 -91 1894 -91 
Q 1528 -91 1179 -12 
Q 831 66 488 225 
L 488 1131 
L 838 1131 
Q 869 681 1141 450 
Q 1413 219 1906 219 
Q 2384 219 2661 495 
Q 2938 772 2938 1253 
Q 2938 1803 2653 2086 
Q 2369 2369 1819 2369 
L 1522 2369 
L 1522 2688 
L 1678 2688 
Q 2225 2688 2498 2914 
Q 2772 3141 2772 3597 
Q 2772 4006 2547 4223 
Q 2322 4441 1900 4441 
Q 1478 4441 1245 4241 
Q 1013 4041 972 3647 
L 622 3647 
L 622 4469 
z
" transform="scale(0.015625)"/>
       </defs>
       <use xlink:href="#DejaVuSerif-30" transform="translate(0 0.78125)"/>
       <use xlink:href="#DejaVuSerif-2e" transform="translate(63.623047 0.78125)"/>
       <use xlink:href="#DejaVuSerif-33" transform="translate(95.410156 0.78125)"/>
      </g>
     </g>
    </g>
    <g id="ytick_5">
     <g id="line2d_20">
      <g>
       <use xlink:href="#mf93eecd476" x="61.859353" y="97.665417" style="stroke: #000000; stroke-width: 0.5"/>
      </g>
     </g>
     <g id="line2d_21">
      <g>
       <use xlink:href="#mf5db57cf7a" x="429.165354" y="97.665417" style="stroke: #000000; stroke-width: 0.5"/>
      </g>
     </g>
     <g id="text_11">
      <!-- $0.4$ -->
      <g transform="translate(32.759353 103.744167) scale(0.16 -0.16)">
       <defs>
        <path id="DejaVuSerif-34" d="M 2234 1581 
L 2234 4063 
L 641 1581 
L 2234 1581 
z
M 3609 0 
L 1484 0 
L 1484 331 
L 2234 331 
L 2234 1247 
L 197 1247 
L 197 1588 
L 2241 4750 
L 2859 4750 
L 2859 1581 
L 3750 1581 
L 3750 1247 
L 2859 1247 
L 2859 331 
L 3609 331 
L 3609 0 
z
" transform="scale(0.015625)"/>
       </defs>
       <use xlink:href="#DejaVuSerif-30" transform="translate(0 0.78125)"/>
       <use xlink:href="#DejaVuSerif-2e" transform="translate(63.623047 0.78125)"/>
       <use xlink:href="#DejaVuSerif-34" transform="translate(95.410156 0.78125)"/>
      </g>
     </g>
    </g>
    <g id="ytick_6">
     <g id="line2d_22">
      <g>
       <use xlink:href="#mf93eecd476" x="61.859353" y="63.78282" style="stroke: #000000; stroke-width: 0.5"/>
      </g>
     </g>
     <g id="line2d_23">
      <g>
       <use xlink:href="#mf5db57cf7a" x="429.165354" y="63.78282" style="stroke: #000000; stroke-width: 0.5"/>
      </g>
     </g>
     <g id="text_12">
      <!-- $0.5$ -->
      <g transform="translate(32.759353 69.86157) scale(0.16 -0.16)">
       <use xlink:href="#DejaVuSerif-30" transform="translate(0 0.78125)"/>
       <use xlink:href="#DejaVuSerif-2e" transform="translate(63.623047 0.78125)"/>
       <use xlink:href="#DejaVuSerif-35" transform="translate(95.410156 0.78125)"/>
      </g>
     </g>
    </g>
    <g id="ytick_7">
     <g id="line2d_24">
      <g>
       <use xlink:href="#mf93eecd476" x="61.859353" y="29.900223" style="stroke: #000000; stroke-width: 0.5"/>
      </g>
     </g>
     <g id="line2d_25">
      <g>
       <use xlink:href="#mf5db57cf7a" x="429.165354" y="29.900223" style="stroke: #000000; stroke-width: 0.5"/>
      </g>
     </g>
     <g id="text_13">
      <!-- $0.6$ -->
      <g transform="translate(32.759353 35.978973) scale(0.16 -0.16)">
       <defs>
        <path id="DejaVuSerif-36" d="M 2094 219 
Q 2534 219 2771 542 
Q 3009 866 3009 1472 
Q 3009 2078 2771 2401 
Q 2534 2725 2094 2725 
Q 1647 2725 1412 2412 
Q 1178 2100 1178 1509 
Q 1178 888 1415 553 
Q 1653 219 2094 219 
z
M 1075 2569 
Q 1288 2803 1556 2918 
Q 1825 3034 2163 3034 
Q 2859 3034 3264 2615 
Q 3669 2197 3669 1472 
Q 3669 763 3233 336 
Q 2797 -91 2069 -91 
Q 1278 -91 853 498 
Q 428 1088 428 2181 
Q 428 3406 931 4078 
Q 1434 4750 2350 4750 
Q 2597 4750 2869 4703 
Q 3141 4656 3425 4563 
L 3425 3794 
L 3072 3794 
Q 3034 4109 2831 4275 
Q 2628 4441 2284 4441 
Q 1678 4441 1381 3981 
Q 1084 3522 1075 2569 
z
" transform="scale(0.015625)"/>
       </defs>
       <use xlink:href="#DejaVuSerif-30" transform="translate(0 0.78125)"/>
       <use xlink:href="#DejaVuSerif-2e" transform="translate(63.623047 0.78125)"/>
       <use xlink:href="#DejaVuSerif-36" transform="translate(95.410156 0.78125)"/>
      </g>
     </g>
    </g>
    <g id="text_14">
     <!-- $p(\sqrt{\lambda})$ -->
     <g transform="translate(25.399353 144.81) rotate(-90) scale(0.16 -0.16)">
      <defs>
       <path id="DejaVuSerif-Italic-70" d="M 1466 1825 
L 1400 1497 
Q 1353 1250 1353 1053 
Q 1353 769 1453 581 
Q 1622 269 2059 269 
Q 2500 269 2795 622 
Q 3091 975 3225 1663 
Q 3284 1978 3284 2225 
Q 3284 2513 3200 2703 
Q 3041 3053 2600 3053 
Q 2163 3053 1872 2737 
Q 1581 2422 1466 1825 
z
M 1116 2988 
L 563 2988 
L 628 3322 
L 1756 3322 
L 1656 2803 
Q 1884 3116 2175 3264 
Q 2466 3413 2850 3413 
Q 3463 3413 3753 2928 
Q 3947 2609 3947 2163 
Q 3947 1928 3897 1663 
Q 3744 881 3262 395 
Q 2781 -91 2169 -91 
Q 1784 -91 1551 57 
Q 1319 206 1213 519 
L 850 -1331 
L 275 -1331 
L 1116 2988 
z
" transform="scale(0.015625)"/>
       <path id="DejaVuSerif-28" d="M 2041 -997 
Q 1281 -656 893 83 
Q 506 822 506 1931 
Q 506 3044 893 3783 
Q 1281 4522 2041 4863 
L 2041 4556 
Q 1559 4225 1350 3623 
Q 1141 3022 1141 1931 
Q 1141 844 1350 242 
Q 1559 -359 2041 -691 
L 2041 -997 
z
" transform="scale(0.015625)"/>
       <path id="DejaVuSerif-29" d="M 453 -997 
L 453 -691 
Q 934 -359 1145 242 
Q 1356 844 1356 1931 
Q 1356 3022 1145 3623 
Q 934 4225 453 4556 
L 453 4863 
Q 1216 4522 1603 3783 
Q 1991 3044 1991 1931 
Q 1991 822 1603 83 
Q 1216 -656 453 -997 
z
" transform="scale(0.015625)"/>
      </defs>
      <use xlink:href="#DejaVuSerif-Italic-70" transform="translate(0 0.875)"/>
      <use xlink:href="#DejaVuSerif-28" transform="translate(64.013672 0.875)"/>
      <use xlink:href="#STIXSizeOneSym-Regular-221a" transform="translate(103.027344 17.984375) scale(0.583453)"/>
      <use xlink:href="#DejaVuSerif-Italic-3bb" transform="translate(177.229706 1.234375)"/>
      <use xlink:href="#DejaVuSerif-29" transform="translate(253.108612 0.875)"/>
      <path d="M 164.729706 101.5 
L 164.729706 107.75 
L 253.108612 107.75 
L 253.108612 101.5 
L 164.729706 101.5 
z
"/>
     </g>
    </g>
   </g>
   <g id="line2d_26">
    <path d="M 75.154717 14.724646 
L 81.052843 19.197004 
L 86.950969 17.1383 
L 92.849095 18.096662 
L 98.747221 18.416116 
L 104.645346 18.451611 
L 110.543472 18.203147 
L 116.441598 20.155367 
L 122.339724 20.403831 
L 128.237849 21.149224 
L 134.135975 21.078234 
L 140.034101 23.456393 
L 145.932227 23.882332 
L 151.830353 23.953322 
L 157.728478 25.266634 
L 163.626604 27.112369 
L 169.52473 27.538308 
L 175.422856 30.413395 
L 181.320981 30.058446 
L 187.219107 31.975171 
L 193.117233 34.814764 
L 199.015359 34.743774 
L 204.913484 37.370397 
L 210.81161 40.20999 
L 216.709736 40.28098 
L 222.607862 44.220915 
L 228.505988 45.143782 
L 234.404113 47.486446 
L 240.302239 50.609998 
L 246.200365 53.520581 
L 252.098491 55.969729 
L 257.996616 58.489868 
L 263.894742 61.897379 
L 269.792868 65.020931 
L 275.690994 68.215473 
L 281.58912 71.729468 
L 287.487245 74.462576 
L 293.385371 79.857802 
L 299.283497 83.442788 
L 305.181623 87.595692 
L 311.079748 92.032556 
L 316.977874 95.866006 
L 322.876 101.261232 
L 328.774126 107.153387 
L 334.672252 113.400491 
L 340.570377 119.044181 
L 346.468503 125.681729 
L 352.366629 133.916548 
L 358.264755 139.879692 
L 364.16288 150.918609 
L 370.061006 161.425102 
L 375.959132 172.925452 
L 381.857258 188.862666 
L 387.755384 217.826511 
L 393.653509 233.124816 
L 399.551635 233.195806 
L 405.449761 233.195806 
L 411.347887 233.195806 
L 417.246012 233.195806 
" clip-path="url(#p09c40ffd1c)" style="fill: none; stroke: #dd8452; stroke-width: 5"/>
   </g>
   <g id="patch_3">
    <path d="M 61.859353 239.905354 
L 61.859353 2.834646 
" style="fill: none; stroke: #000000; stroke-linejoin: miter; stroke-linecap: square"/>
   </g>
   <g id="patch_4">
    <path d="M 429.165354 239.905354 
L 429.165354 2.834646 
" style="fill: none; stroke: #000000; stroke-linejoin: miter; stroke-linecap: square"/>
   </g>
   <g id="patch_5">
    <path d="M 61.859353 239.905354 
L 429.165354 239.905354 
" style="fill: none; stroke: #000000; stroke-linejoin: miter; stroke-linecap: square"/>
   </g>
   <g id="patch_6">
    <path d="M 61.859353 2.834646 
L 429.165354 2.834646 
" style="fill: none; stroke: #000000; stroke-linejoin: miter; stroke-linecap: square"/>
   </g>
   <g id="line2d_27">
    <path d="M 75.154717 12.559456 
L 81.052843 18.380621 
L 86.950969 18.771065 
L 92.849095 16.108947 
L 98.747221 18.629086 
L 104.645346 19.551953 
L 110.543472 19.161509 
L 116.441598 19.232499 
L 122.339724 21.433183 
L 128.237849 20.510316 
L 134.135975 20.68779 
L 140.034101 22.462536 
L 145.932227 22.711 
L 151.830353 25.941037 
L 157.728478 24.059807 
L 163.626604 27.396328 
L 169.52473 28.070731 
L 175.422856 28.851619 
L 181.320981 31.549232 
L 187.219107 33.040018 
L 193.117233 32.969029 
L 199.015359 36.057086 
L 204.913484 38.222275 
L 210.81161 38.825688 
L 216.709736 40.564939 
L 222.607862 43.794976 
L 228.505988 45.676206 
L 234.404113 48.906242 
L 240.302239 50.468018 
L 246.200365 51.71034 
L 252.098491 57.212051 
L 257.996616 58.738332 
L 263.894742 62.571782 
L 269.792868 62.997721 
L 275.690994 69.102845 
L 281.58912 71.658479 
L 287.487245 75.527424 
L 293.385371 78.97043 
L 299.283497 82.945859 
L 305.181623 88.021631 
L 311.079748 91.571122 
L 316.977874 97.924711 
L 322.876 100.835293 
L 328.774126 106.478984 
L 334.672252 114.216874 
L 340.570377 118.831212 
L 346.468503 126.001183 
L 352.366629 135.371839 
L 358.264755 141.370478 
L 364.16288 150.918609 
L 370.061006 161.567081 
L 375.959132 176.084499 
L 381.857258 193.902943 
L 387.755384 212.46678 
L 393.653509 227.58761 
L 399.551635 233.089321 
L 405.449761 233.195806 
L 411.347887 233.195806 
L 417.246012 233.195806 
" clip-path="url(#p09c40ffd1c)" style="fill: none; stroke: #55a868; stroke-width: 5"/>
   </g>
   <g id="line2d_28">
    <path d="M 73.704761 17.991982 
L 76.629042 17.991982 
L 79.553323 16.631745 
L 82.477604 17.777208 
L 85.401885 19.566994 
L 88.326166 17.132885 
L 91.250447 17.777208 
L 94.174727 18.779488 
L 97.099008 18.135165 
L 100.023289 19.566994 
L 102.94757 18.707896 
L 105.871851 18.421531 
L 108.796132 19.280628 
L 111.720413 18.063574 
L 114.644693 20.569273 
L 117.568974 20.354499 
L 120.493255 19.423811 
L 123.417536 20.426091 
L 126.341817 20.497682 
L 129.266098 20.282908 
L 132.190378 23.146565 
L 135.114659 20.354499 
L 138.03894 24.793168 
L 140.963221 22.215876 
L 143.887502 22.788608 
L 146.811783 23.647705 
L 149.736064 23.576113 
L 152.660344 24.220436 
L 155.584625 26.296587 
L 158.508906 25.151125 
L 161.433187 25.509082 
L 164.357468 27.800007 
L 167.281749 28.014782 
L 170.206029 26.94091 
L 173.13031 29.518202 
L 176.054591 29.160244 
L 178.978872 29.661384 
L 181.903153 31.880719 
L 184.827434 32.023902 
L 187.751715 32.381859 
L 190.675995 33.670504 
L 193.600276 31.665944 
L 196.524557 36.46257 
L 199.448838 34.815967 
L 202.373119 37.178484 
L 205.2974 37.751216 
L 208.22168 38.109173 
L 211.145961 39.612593 
L 214.070242 40.113733 
L 216.994523 41.831927 
L 219.918804 42.619432 
L 222.843085 43.764895 
L 225.767366 44.194444 
L 228.691646 44.838767 
L 231.615927 46.199004 
L 234.540208 46.843326 
L 237.464489 48.919478 
L 240.38877 50.924038 
L 243.313051 52.642232 
L 246.237331 53.286555 
L 249.161612 53.143372 
L 252.085893 55.07634 
L 255.010174 57.868406 
L 257.934455 57.510449 
L 260.858736 60.875246 
L 263.783017 61.949117 
L 266.707297 63.022989 
L 269.631578 64.884366 
L 272.555859 65.027548 
L 275.48014 68.177571 
L 278.404421 69.895765 
L 281.328702 70.468497 
L 284.252982 71.61396 
L 287.177263 75.623079 
L 290.101544 77.627639 
L 293.025825 76.840134 
L 295.950106 80.706071 
L 298.874387 81.779942 
L 301.798668 83.927685 
L 304.722948 88.008396 
L 307.647229 88.652719 
L 310.57151 90.585687 
L 313.495791 93.807301 
L 316.420072 95.095947 
L 319.344353 99.677798 
L 322.268634 99.964164 
L 325.192914 102.827821 
L 328.117195 106.693758 
L 331.041476 107.338081 
L 333.965757 111.991523 
L 336.890038 114.85518 
L 339.814319 119.293849 
L 342.738599 121.012043 
L 345.66288 123.446151 
L 348.587161 128.743917 
L 351.511442 132.037122 
L 354.435723 135.401919 
L 357.360004 139.267856 
L 360.284285 144.422439 
L 363.208565 148.359967 
L 366.132846 152.727044 
L 369.057127 159.671412 
L 371.981408 163.537349 
L 374.905689 170.481718 
L 377.82997 178.142 
L 380.75425 186.088648 
L 383.678531 195.323942 
L 386.602812 213.364981 
L 389.527093 232.193526 
L 392.451374 233.195806 
L 395.375655 233.195806 
L 398.299936 233.195806 
L 401.224216 233.195806 
L 404.148497 233.195806 
L 407.072778 233.195806 
L 409.997059 233.195806 
L 412.92134 233.195806 
L 415.845621 233.195806 
L 418.769901 233.195806 
" clip-path="url(#p09c40ffd1c)" style="fill: none; stroke: #c44e52; stroke-width: 5"/>
   </g>
   <g id="line2d_29">
    <path d="M 73.704761 12.551034 
L 76.629042 19.495402 
L 79.553323 16.846519 
L 82.477604 19.638585 
L 85.401885 17.132885 
L 88.326166 16.345379 
L 91.250447 19.996542 
L 94.174727 18.135165 
L 97.099008 18.564714 
L 100.023289 17.061294 
L 102.94757 19.638585 
L 105.871851 19.781768 
L 108.796132 18.564714 
L 111.720413 18.636305 
L 114.644693 21.285188 
L 117.568974 20.497682 
L 120.493255 19.423811 
L 123.417536 19.352219 
L 126.341817 22.144285 
L 129.266098 21.929511 
L 132.190378 20.354499 
L 135.114659 23.146565 
L 138.03894 21.285188 
L 140.963221 22.860199 
L 143.887502 22.072693 
L 146.811783 23.576113 
L 149.736064 25.151125 
L 152.660344 25.723856 
L 155.584625 24.220436 
L 158.508906 26.869319 
L 161.433187 25.867039 
L 164.357468 26.081813 
L 167.281749 27.155685 
L 170.206029 30.090933 
L 173.13031 28.372739 
L 176.054591 29.375019 
L 178.978872 29.017062 
L 181.903153 32.811407 
L 184.827434 30.735256 
L 187.751715 31.021622 
L 190.675995 35.531881 
L 193.600276 32.668224 
L 196.524557 34.45801 
L 199.448838 35.603473 
L 202.373119 36.820527 
L 205.2974 36.748936 
L 208.22168 39.183044 
L 211.145961 39.541001 
L 214.070242 40.543281 
L 216.994523 41.187604 
L 219.918804 41.402378 
L 222.843085 44.051261 
L 225.767366 43.335347 
L 228.691646 47.201284 
L 231.615927 47.129692 
L 234.540208 50.136532 
L 237.464489 48.489929 
L 240.38877 48.704704 
L 243.313051 51.639952 
L 246.237331 53.501329 
L 249.161612 55.434298 
L 252.085893 54.789975 
L 255.010174 56.221803 
L 257.934455 57.796815 
L 260.858736 60.732063 
L 263.783017 62.808214 
L 266.707297 62.020709 
L 269.631578 64.454817 
L 272.555859 65.815054 
L 275.48014 67.175291 
L 278.404421 69.394625 
L 281.328702 70.898045 
L 284.252982 73.690111 
L 287.177263 75.623079 
L 290.101544 74.978757 
L 293.025825 79.703791 
L 295.950106 80.419705 
L 298.874387 83.498136 
L 301.798668 82.71063 
L 304.722948 87.435665 
L 307.647229 87.578847 
L 310.57151 90.943644 
L 313.495791 93.23457 
L 316.420072 97.530055 
L 319.344353 97.888013 
L 322.268634 101.897132 
L 325.192914 104.116467 
L 328.117195 103.257369 
L 331.041476 107.982404 
L 333.965757 113.996083 
L 336.890038 115.499503 
L 339.814319 116.573375 
L 342.738599 122.085914 
L 345.66288 123.732517 
L 348.587161 127.88482 
L 351.511442 131.106434 
L 354.435723 136.404199 
L 357.360004 140.341728 
L 360.284285 143.99289 
L 363.208565 148.861107 
L 366.132846 153.800916 
L 369.057127 160.387327 
L 371.981408 161.246424 
L 374.905689 172.486278 
L 377.82997 178.356774 
L 380.75425 185.730691 
L 383.678531 196.827362 
L 386.602812 211.145647 
L 389.527093 229.759418 
L 392.451374 233.195806 
L 395.375655 233.195806 
L 398.299936 233.195806 
L 401.224216 233.195806 
L 404.148497 233.195806 
L 407.072778 233.195806 
L 409.997059 233.195806 
L 412.92134 233.195806 
L 415.845621 233.195806 
L 418.769901 233.195806 
" clip-path="url(#p09c40ffd1c)" style="fill: none; stroke: #8172b3; stroke-width: 5"/>
   </g>
   <g id="line2d_30">
    <path d="M 73.704761 9.544194 
L 76.629042 15.128325 
L 79.553323 19.065854 
L 82.477604 17.920391 
L 85.401885 17.419251 
L 88.326166 16.846519 
L 91.250447 20.998822 
L 94.174727 18.922671 
L 97.099008 16.703337 
L 100.023289 18.851079 
L 102.94757 17.562434 
L 105.871851 20.282908 
L 108.796132 17.276068 
L 111.720413 21.571553 
L 114.644693 17.347659 
L 117.568974 23.576113 
L 120.493255 18.994262 
L 123.417536 18.779488 
L 126.341817 22.001102 
L 129.266098 20.497682 
L 132.190378 23.074973 
L 135.114659 21.643145 
L 138.03894 23.43293 
L 140.963221 22.502242 
L 143.887502 23.43293 
L 146.811783 24.506802 
L 149.736064 23.862479 
L 152.660344 22.144285 
L 155.584625 27.656825 
L 158.508906 23.719296 
L 161.433187 25.222716 
L 164.357468 30.162524 
L 167.281749 27.871599 
L 170.206029 28.157965 
L 173.13031 28.086373 
L 176.054591 30.735256 
L 178.978872 29.375019 
L 181.903153 29.303427 
L 184.827434 33.742096 
L 187.751715 30.663664 
L 190.675995 33.312547 
L 193.600276 33.813687 
L 196.524557 34.028461 
L 199.448838 35.746656 
L 202.373119 37.536441 
L 205.2974 35.317107 
L 208.22168 42.189884 
L 211.145961 41.116012 
L 214.070242 39.46941 
L 216.994523 42.261475 
L 219.918804 41.831927 
L 222.843085 42.47625 
L 225.767366 44.767175 
L 228.691646 44.981949 
L 231.615927 46.986509 
L 234.540208 48.919478 
L 237.464489 47.416058 
L 240.38877 52.284275 
L 243.313051 51.138812 
L 246.237331 51.639952 
L 249.161612 56.794535 
L 252.085893 55.505889 
L 255.010174 54.360426 
L 257.934455 58.942277 
L 260.858736 58.08318 
L 263.783017 64.812774 
L 266.707297 61.161612 
L 269.631578 66.387786 
L 272.555859 63.309354 
L 275.48014 72.043508 
L 278.404421 66.029828 
L 281.328702 73.117379 
L 284.252982 72.974197 
L 287.177263 75.193531 
L 290.101544 76.124219 
L 293.025825 78.629919 
L 295.950106 79.131059 
L 298.874387 83.498136 
L 301.798668 83.354953 
L 304.722948 86.576567 
L 307.647229 89.72659 
L 310.57151 92.518656 
L 313.495791 93.449344 
L 316.420072 95.811861 
L 319.344353 96.74255 
L 322.268634 102.613047 
L 325.192914 100.966444 
L 328.117195 107.338081 
L 331.041476 109.414232 
L 333.965757 113.638126 
L 336.890038 115.069955 
L 339.814319 117.217697 
L 342.738599 123.517743 
L 345.66288 124.591614 
L 348.587161 128.672325 
L 351.511442 133.612134 
L 354.435723 136.261016 
L 357.360004 140.628093 
L 360.284285 144.708805 
L 363.208565 146.784956 
L 366.132846 154.660013 
L 369.057127 161.532789 
L 371.981408 164.468038 
L 374.905689 174.13288 
L 377.82997 177.855634 
L 380.75425 189.882994 
L 383.678531 201.910353 
L 386.602812 212.863841 
L 389.527093 218.018424 
L 392.451374 225.105975 
L 395.375655 231.90716 
L 398.299936 233.052623 
L 401.224216 233.195806 
L 404.148497 233.195806 
L 407.072778 233.195806 
L 409.997059 233.195806 
L 412.92134 233.195806 
L 415.845621 233.195806 
L 418.769901 233.195806 
" clip-path="url(#p09c40ffd1c)" style="fill: none; stroke: #937860; stroke-width: 5"/>
   </g>
   <g id="line2d_31">
    <path d="M 72.254806 17.492493 
L 75.450301 17.503498 
L 78.645796 17.536514 
L 81.841291 17.591553 
L 85.036786 17.668631 
L 88.232281 17.767773 
L 91.427776 17.889007 
L 94.623272 18.032372 
L 97.818767 18.197912 
L 101.014262 18.385678 
L 104.209757 18.595729 
L 107.405252 18.82813 
L 110.600747 19.082954 
L 113.796242 19.360281 
L 116.991738 19.660198 
L 120.187233 19.982802 
L 123.382728 20.328195 
L 126.578223 20.696488 
L 129.773718 21.0878 
L 132.969213 21.50226 
L 136.164708 21.940003 
L 139.360204 22.401175 
L 142.555699 22.885929 
L 145.751194 23.39443 
L 148.946689 23.92685 
L 152.142184 24.483372 
L 155.337679 25.06419 
L 158.533174 25.669507 
L 161.72867 26.299539 
L 164.924165 26.954512 
L 168.11966 27.634664 
L 171.315155 28.340247 
L 174.51065 29.071524 
L 177.706145 29.828772 
L 180.90164 30.612283 
L 184.097135 31.422362 
L 187.292631 32.259331 
L 190.488126 33.123527 
L 193.683621 34.015304 
L 196.879116 34.935036 
L 200.074611 35.883112 
L 203.270106 36.859943 
L 206.465601 37.865961 
L 209.661097 38.901619 
L 212.856592 39.967394 
L 216.052087 41.063787 
L 219.247582 42.191325 
L 222.443077 43.350563 
L 225.638572 44.542085 
L 228.834067 45.766507 
L 232.029563 47.024479 
L 235.225058 48.316684 
L 238.420553 49.643847 
L 241.616048 51.006731 
L 244.811543 52.406144 
L 248.007038 53.842941 
L 251.202533 55.318027 
L 254.398029 56.832364 
L 257.593524 58.386972 
L 260.789019 59.982935 
L 263.984514 61.621407 
L 267.180009 63.303618 
L 270.375504 65.03088 
L 273.570999 66.804597 
L 276.766495 68.62627 
L 279.96199 70.49751 
L 283.157485 72.420049 
L 286.35298 74.395749 
L 289.548475 76.42662 
L 292.74397 78.514835 
L 295.939465 80.66275 
L 299.134961 82.872923 
L 302.330456 85.148142 
L 305.525951 87.491456 
L 308.721446 89.906204 
L 311.916941 92.396062 
L 315.112436 94.965088 
L 318.307931 97.617784 
L 321.503427 100.35916 
L 324.698922 103.194828 
L 327.894417 106.1311 
L 331.089912 109.175121 
L 334.285407 112.335033 
L 337.480902 115.620178 
L 340.676397 119.041369 
L 343.871893 122.611232 
L 347.067388 126.344666 
L 350.262883 130.259468 
L 353.458378 134.37719 
L 356.653873 138.724364 
L 359.849368 143.334282 
L 363.044863 148.249712 
L 366.240359 153.527181 
L 369.435854 159.244157 
L 372.631349 165.511921 
L 375.826844 172.500867 
L 379.022339 180.497148 
L 382.217834 190.057344 
L 385.413329 202.614591 
L 388.608824 233.195806 
" clip-path="url(#p09c40ffd1c)" style="fill: none; stroke-dasharray: 11.1,4.8; stroke-dashoffset: 0; stroke: #000000; stroke-width: 3"/>
   </g>
   <g id="legend_1">
    <g id="patch_7">
     <path d="M 328.138792 33.512771 
L 424.165354 33.512771 
L 424.165354 7.834646 
L 328.138792 7.834646 
z
" style="fill: #ffffff; stroke: #000000; stroke-linejoin: miter"/>
    </g>
    <g id="line2d_32">
     <path d="M 336.138792 19.933083 
L 346.138792 19.933083 
L 356.138792 19.933083 
" style="fill: none; stroke-dasharray: 4.625,2; stroke-dashoffset: 0; stroke: #000000; stroke-width: 1.25; stroke-linejoin: miter"/>
    </g>
    <g id="text_15">
     <!-- semicircle -->
     <g transform="translate(364.138792 23.433083) scale(0.1 -0.1)">
      <defs>
       <path id="DejaVuSerif-73" d="M 359 184 
L 359 959 
L 691 959 
Q 703 588 923 403 
Q 1144 219 1575 219 
Q 1963 219 2166 364 
Q 2369 509 2369 788 
Q 2369 1006 2220 1140 
Q 2072 1275 1594 1428 
L 1178 1569 
Q 750 1706 558 1912 
Q 366 2119 366 2438 
Q 366 2894 700 3153 
Q 1034 3413 1625 3413 
Q 1888 3413 2178 3344 
Q 2469 3275 2778 3144 
L 2778 2419 
L 2447 2419 
Q 2434 2741 2221 2922 
Q 2009 3103 1644 3103 
Q 1281 3103 1095 2975 
Q 909 2847 909 2591 
Q 909 2381 1050 2254 
Q 1191 2128 1613 1997 
L 2069 1856 
Q 2541 1709 2748 1489 
Q 2956 1269 2956 922 
Q 2956 450 2595 179 
Q 2234 -91 1600 -91 
Q 1278 -91 972 -22 
Q 666 47 359 184 
z
" transform="scale(0.015625)"/>
       <path id="DejaVuSerif-65" d="M 3469 1600 
L 991 1600 
L 991 1575 
Q 991 903 1244 561 
Q 1497 219 1991 219 
Q 2369 219 2611 417 
Q 2853 616 2950 1006 
L 3413 1006 
Q 3275 459 2904 184 
Q 2534 -91 1931 -91 
Q 1203 -91 761 389 
Q 319 869 319 1663 
Q 319 2450 753 2931 
Q 1188 3413 1894 3413 
Q 2647 3413 3050 2948 
Q 3453 2484 3469 1600 
z
M 2791 1931 
Q 2772 2513 2545 2808 
Q 2319 3103 1894 3103 
Q 1497 3103 1269 2806 
Q 1041 2509 991 1931 
L 2791 1931 
z
" transform="scale(0.015625)"/>
       <path id="DejaVuSerif-6d" d="M 3316 2675 
Q 3481 3041 3739 3227 
Q 3997 3413 4341 3413 
Q 4863 3413 5119 3089 
Q 5375 2766 5375 2113 
L 5375 331 
L 5894 331 
L 5894 0 
L 4300 0 
L 4300 331 
L 4800 331 
L 4800 2047 
Q 4800 2556 4650 2772 
Q 4500 2988 4153 2988 
Q 3769 2988 3567 2697 
Q 3366 2406 3366 1850 
L 3366 331 
L 3866 331 
L 3866 0 
L 2291 0 
L 2291 331 
L 2791 331 
L 2791 2069 
Q 2791 2566 2641 2777 
Q 2491 2988 2144 2988 
Q 1759 2988 1557 2697 
Q 1356 2406 1356 1850 
L 1356 331 
L 1856 331 
L 1856 0 
L 263 0 
L 263 331 
L 781 331 
L 781 2994 
L 231 2994 
L 231 3322 
L 1356 3322 
L 1356 2731 
Q 1516 3063 1762 3238 
Q 2009 3413 2322 3413 
Q 2709 3413 2968 3220 
Q 3228 3028 3316 2675 
z
" transform="scale(0.015625)"/>
       <path id="DejaVuSerif-69" d="M 622 4353 
Q 622 4497 726 4603 
Q 831 4709 978 4709 
Q 1122 4709 1226 4603 
Q 1331 4497 1331 4353 
Q 1331 4206 1228 4103 
Q 1125 4000 978 4000 
Q 831 4000 726 4103 
Q 622 4206 622 4353 
z
M 1356 331 
L 1900 331 
L 1900 0 
L 231 0 
L 231 331 
L 781 331 
L 781 2988 
L 231 2988 
L 231 3322 
L 1356 3322 
L 1356 331 
z
" transform="scale(0.015625)"/>
       <path id="DejaVuSerif-63" d="M 3291 997 
Q 3169 466 2822 187 
Q 2475 -91 1925 -91 
Q 1200 -91 759 389 
Q 319 869 319 1663 
Q 319 2459 759 2936 
Q 1200 3413 1925 3413 
Q 2241 3413 2553 3339 
Q 2866 3266 3181 3116 
L 3181 2266 
L 2847 2266 
Q 2781 2703 2561 2903 
Q 2341 3103 1931 3103 
Q 1466 3103 1228 2742 
Q 991 2381 991 1663 
Q 991 944 1227 581 
Q 1463 219 1931 219 
Q 2303 219 2525 412 
Q 2747 606 2828 997 
L 3291 997 
z
" transform="scale(0.015625)"/>
       <path id="DejaVuSerif-72" d="M 3059 3328 
L 3059 2497 
L 2728 2497 
Q 2713 2744 2591 2866 
Q 2469 2988 2234 2988 
Q 1809 2988 1582 2694 
Q 1356 2400 1356 1850 
L 1356 331 
L 2022 331 
L 2022 0 
L 263 0 
L 263 331 
L 781 331 
L 781 2994 
L 231 2994 
L 231 3322 
L 1356 3322 
L 1356 2731 
Q 1525 3078 1790 3245 
Q 2056 3413 2438 3413 
Q 2578 3413 2733 3391 
Q 2888 3369 3059 3328 
z
" transform="scale(0.015625)"/>
       <path id="DejaVuSerif-6c" d="M 1313 331 
L 1856 331 
L 1856 0 
L 184 0 
L 184 331 
L 738 331 
L 738 4531 
L 184 4531 
L 184 4863 
L 1313 4863 
L 1313 331 
z
" transform="scale(0.015625)"/>
      </defs>
      <use xlink:href="#DejaVuSerif-73"/>
      <use xlink:href="#DejaVuSerif-65" x="51.318359"/>
      <use xlink:href="#DejaVuSerif-6d" x="110.498047"/>
      <use xlink:href="#DejaVuSerif-69" x="205.322266"/>
      <use xlink:href="#DejaVuSerif-63" x="237.304688"/>
      <use xlink:href="#DejaVuSerif-69" x="293.310547"/>
      <use xlink:href="#DejaVuSerif-72" x="325.292969"/>
      <use xlink:href="#DejaVuSerif-63" x="373.095703"/>
      <use xlink:href="#DejaVuSerif-6c" x="429.101562"/>
      <use xlink:href="#DejaVuSerif-65" x="461.083984"/>
     </g>
    </g>
   </g>
  </g>
 </g>
 <defs>
  <clipPath id="p09c40ffd1c">
   <rect x="61.859353" y="2.834646" width="367.306002" height="237.070709"/>
  </clipPath>
 </defs>
</svg>
