<?xml version="1.0" encoding="utf-8" standalone="no"?>
<!DOCTYPE svg PUBLIC "-//W3C//DTD SVG 1.1//EN"
  "http://www.w3.org/Graphics/SVG/1.1/DTD/svg11.dtd">
<svg xmlns:xlink="http://www.w3.org/1999/xlink" width="432pt" height="288pt" viewBox="0 0 432 288" xmlns="http://www.w3.org/2000/svg" version="1.1">
 <metadata>
  <rdf:RDF xmlns:dc="http://purl.org/dc/elements/1.1/" xmlns:cc="http://creativecommons.org/ns#" xmlns:rdf="http://www.w3.org/1999/02/22-rdf-syntax-ns#">
   <cc:Work>
    <dc:type rdf:resource="http://purl.org/dc/dcmitype/StillImage"/>
    <dc:date>2024-07-15T09:51:48.739897</dc:date>
    <dc:format>image/svg+xml</dc:format>
    <dc:creator>
     <cc:Agent>
      <dc:title>Matplotlib v3.9.1, https://matplotlib.org/</dc:title>
     </cc:Agent>
    </dc:creator>
   </cc:Work>
  </rdf:RDF>
 </metadata>
 <defs>
  <style type="text/css">*{stroke-linejoin: round; stroke-linecap: butt}</style>
 </defs>
 <g id="figure_1">
  <g id="patch_1">
   <path d="M 0 288 
L 432 288 
L 432 0 
L 0 0 
z
" style="fill: #ffffff"/>
  </g>
  <g id="axes_1">
   <g id="patch_2">
    <path d="M 48.2667 254.625354 
L 429.165354 254.625354 
L 429.165354 19.634646 
L 48.2667 19.634646 
z
" style="fill: #ffffff"/>
   </g>
   <g id="line2d_1">
    <path d="M -1 90.304845 
L 433 90.304845 
" clip-path="url(#p0f81dbc40d)" style="fill: none; stroke-dasharray: 3.7,1.6; stroke-dashoffset: 0; stroke: #8c8c8c"/>
   </g>
   <g id="line2d_2">
    <path d="M -1 127.794875 
L 433 127.794875 
" clip-path="url(#p0f81dbc40d)" style="fill: none; stroke-dasharray: 3.7,1.6; stroke-dashoffset: 0; stroke: #8c8c8c"/>
   </g>
   <g id="line2d_3">
    <path d="M -1 165.284905 
L 433 165.284905 
" clip-path="url(#p0f81dbc40d)" style="fill: none; stroke-dasharray: 3.7,1.6; stroke-dashoffset: 0; stroke: #8c8c8c"/>
   </g>
   <g id="line2d_4">
    <path d="M -1 202.774935 
L 433 202.774935 
" clip-path="url(#p0f81dbc40d)" style="fill: none; stroke-dasharray: 3.7,1.6; stroke-dashoffset: 0; stroke: #8c8c8c"/>
   </g>
   <g id="matplotlib.axis_1">
    <g id="xtick_1">
     <g id="line2d_5">
      <defs>
       <path id="m2db75d6315" d="M 0 0 
L 0 -2.5 
" style="stroke: #000000; stroke-width: 0.5"/>
      </defs>
      <g>
       <use xlink:href="#m2db75d6315" x="98.973334" y="254.625354" style="stroke: #000000; stroke-width: 0.5"/>
      </g>
     </g>
     <g id="line2d_6">
      <defs>
       <path id="m7591a4bb43" d="M 0 0 
L 0 2.5 
" style="stroke: #000000; stroke-width: 0.5"/>
      </defs>
      <g>
       <use xlink:href="#m7591a4bb43" x="98.973334" y="19.634646" style="stroke: #000000; stroke-width: 0.5"/>
      </g>
     </g>
     <g id="text_1">
      <!-- $2$ -->
      <g transform="translate(95.773334 265.723792) scale(0.1 -0.1)">
       <defs>
        <path id="DejaVuSerif-32" d="M 819 3553 
L 469 3553 
L 469 4384 
Q 803 4563 1142 4656 
Q 1481 4750 1806 4750 
Q 2534 4750 2956 4397 
Q 3378 4044 3378 3438 
Q 3378 2753 2422 1800 
Q 2347 1728 2309 1691 
L 1131 513 
L 3078 513 
L 3078 1088 
L 3444 1088 
L 3444 0 
L 434 0 
L 434 341 
L 1850 1753 
Q 2319 2222 2519 2614 
Q 2719 3006 2719 3438 
Q 2719 3909 2473 4175 
Q 2228 4441 1797 4441 
Q 1350 4441 1106 4219 
Q 863 3997 819 3553 
z
" transform="scale(0.015625)"/>
       </defs>
       <use xlink:href="#DejaVuSerif-32" transform="translate(0 0.78125)"/>
      </g>
     </g>
    </g>
    <g id="xtick_2">
     <g id="line2d_7">
      <g>
       <use xlink:href="#m2db75d6315" x="178.826301" y="254.625354" style="stroke: #000000; stroke-width: 0.5"/>
      </g>
     </g>
     <g id="line2d_8">
      <g>
       <use xlink:href="#m7591a4bb43" x="178.826301" y="19.634646" style="stroke: #000000; stroke-width: 0.5"/>
      </g>
     </g>
     <g id="text_2">
      <!-- $4$ -->
      <g transform="translate(175.626301 265.723792) scale(0.1 -0.1)">
       <defs>
        <path id="DejaVuSerif-34" d="M 2234 1581 
L 2234 4063 
L 641 1581 
L 2234 1581 
z
M 3609 0 
L 1484 0 
L 1484 331 
L 2234 331 
L 2234 1247 
L 197 1247 
L 197 1588 
L 2241 4750 
L 2859 4750 
L 2859 1581 
L 3750 1581 
L 3750 1247 
L 2859 1247 
L 2859 331 
L 3609 331 
L 3609 0 
z
" transform="scale(0.015625)"/>
       </defs>
       <use xlink:href="#DejaVuSerif-34" transform="translate(0 0.78125)"/>
      </g>
     </g>
    </g>
    <g id="xtick_3">
     <g id="line2d_9">
      <g>
       <use xlink:href="#m2db75d6315" x="258.679269" y="254.625354" style="stroke: #000000; stroke-width: 0.5"/>
      </g>
     </g>
     <g id="line2d_10">
      <g>
       <use xlink:href="#m7591a4bb43" x="258.679269" y="19.634646" style="stroke: #000000; stroke-width: 0.5"/>
      </g>
     </g>
     <g id="text_3">
      <!-- $6$ -->
      <g transform="translate(255.479269 265.723792) scale(0.1 -0.1)">
       <defs>
        <path id="DejaVuSerif-36" d="M 2094 219 
Q 2534 219 2771 542 
Q 3009 866 3009 1472 
Q 3009 2078 2771 2401 
Q 2534 2725 2094 2725 
Q 1647 2725 1412 2412 
Q 1178 2100 1178 1509 
Q 1178 888 1415 553 
Q 1653 219 2094 219 
z
M 1075 2569 
Q 1288 2803 1556 2918 
Q 1825 3034 2163 3034 
Q 2859 3034 3264 2615 
Q 3669 2197 3669 1472 
Q 3669 763 3233 336 
Q 2797 -91 2069 -91 
Q 1278 -91 853 498 
Q 428 1088 428 2181 
Q 428 3406 931 4078 
Q 1434 4750 2350 4750 
Q 2597 4750 2869 4703 
Q 3141 4656 3425 4563 
L 3425 3794 
L 3072 3794 
Q 3034 4109 2831 4275 
Q 2628 4441 2284 4441 
Q 1678 4441 1381 3981 
Q 1084 3522 1075 2569 
z
" transform="scale(0.015625)"/>
       </defs>
       <use xlink:href="#DejaVuSerif-36" transform="translate(0 0.78125)"/>
      </g>
     </g>
    </g>
    <g id="xtick_4">
     <g id="line2d_11">
      <g>
       <use xlink:href="#m2db75d6315" x="338.532236" y="254.625354" style="stroke: #000000; stroke-width: 0.5"/>
      </g>
     </g>
     <g id="line2d_12">
      <g>
       <use xlink:href="#m7591a4bb43" x="338.532236" y="19.634646" style="stroke: #000000; stroke-width: 0.5"/>
      </g>
     </g>
     <g id="text_4">
      <!-- $8$ -->
      <g transform="translate(335.332236 265.723792) scale(0.1 -0.1)">
       <defs>
        <path id="DejaVuSerif-38" d="M 2981 1275 
Q 2981 1775 2732 2051 
Q 2484 2328 2034 2328 
Q 1584 2328 1336 2051 
Q 1088 1775 1088 1275 
Q 1088 772 1336 495 
Q 1584 219 2034 219 
Q 2484 219 2732 495 
Q 2981 772 2981 1275 
z
M 2853 3541 
Q 2853 3966 2637 4203 
Q 2422 4441 2034 4441 
Q 1650 4441 1433 4203 
Q 1216 3966 1216 3541 
Q 1216 3113 1433 2875 
Q 1650 2638 2034 2638 
Q 2422 2638 2637 2875 
Q 2853 3113 2853 3541 
z
M 2516 2484 
Q 3047 2413 3344 2092 
Q 3641 1772 3641 1275 
Q 3641 619 3225 264 
Q 2809 -91 2034 -91 
Q 1263 -91 845 264 
Q 428 619 428 1275 
Q 428 1772 725 2092 
Q 1022 2413 1556 2484 
Q 1084 2569 832 2842 
Q 581 3116 581 3541 
Q 581 4103 968 4426 
Q 1356 4750 2034 4750 
Q 2713 4750 3100 4426 
Q 3488 4103 3488 3541 
Q 3488 3116 3236 2842 
Q 2984 2569 2516 2484 
z
" transform="scale(0.015625)"/>
       </defs>
       <use xlink:href="#DejaVuSerif-38" transform="translate(0 0.78125)"/>
      </g>
     </g>
    </g>
    <g id="xtick_5">
     <g id="line2d_13">
      <g>
       <use xlink:href="#m2db75d6315" x="418.385204" y="254.625354" style="stroke: #000000; stroke-width: 0.5"/>
      </g>
     </g>
     <g id="line2d_14">
      <g>
       <use xlink:href="#m7591a4bb43" x="418.385204" y="19.634646" style="stroke: #000000; stroke-width: 0.5"/>
      </g>
     </g>
     <g id="text_5">
      <!-- $10$ -->
      <g transform="translate(411.985204 265.723792) scale(0.1 -0.1)">
       <defs>
        <path id="DejaVuSerif-31" d="M 909 0 
L 909 331 
L 1722 331 
L 1722 4213 
L 781 3603 
L 781 4013 
L 1919 4750 
L 2350 4750 
L 2350 331 
L 3163 331 
L 3163 0 
L 909 0 
z
" transform="scale(0.015625)"/>
        <path id="DejaVuSerif-30" d="M 2034 219 
Q 2513 219 2750 744 
Q 2988 1269 2988 2328 
Q 2988 3391 2750 3916 
Q 2513 4441 2034 4441 
Q 1556 4441 1318 3916 
Q 1081 3391 1081 2328 
Q 1081 1269 1318 744 
Q 1556 219 2034 219 
z
M 2034 -91 
Q 1275 -91 848 546 
Q 422 1184 422 2328 
Q 422 3475 848 4112 
Q 1275 4750 2034 4750 
Q 2797 4750 3222 4112 
Q 3647 3475 3647 2328 
Q 3647 1184 3222 546 
Q 2797 -91 2034 -91 
z
" transform="scale(0.015625)"/>
       </defs>
       <use xlink:href="#DejaVuSerif-31" transform="translate(0 0.78125)"/>
       <use xlink:href="#DejaVuSerif-30" transform="translate(63.623047 0.78125)"/>
      </g>
     </g>
    </g>
    <g id="text_6">
     <!-- $n_H$ -->
     <g transform="translate(230.976027 280.921604) scale(0.12 -0.12)">
      <defs>
       <path id="DejaVuSerif-Italic-6e" d="M 450 0 
L 1031 2988 
L 481 2988 
L 544 3322 
L 1669 3322 
L 1556 2731 
Q 1781 3069 2068 3241 
Q 2356 3413 2694 3413 
Q 3244 3413 3444 3097 
Q 3563 2906 3563 2588 
Q 3563 2378 3509 2113 
L 3163 331 
L 3675 331 
L 3613 0 
L 2522 0 
L 2897 1931 
Q 2959 2253 2959 2469 
Q 2959 2659 2909 2769 
Q 2803 2994 2425 2994 
Q 2025 2994 1759 2701 
Q 1494 2409 1384 1850 
L 1025 0 
L 450 0 
z
" transform="scale(0.015625)"/>
       <path id="DejaVuSerif-Italic-48" d="M -97 0 
L -34 331 
L 559 331 
L 1338 4331 
L 744 4331 
L 809 4666 
L 2631 4666 
L 2566 4331 
L 1972 4331 
L 1659 2719 
L 4078 2719 
L 4391 4331 
L 3797 4331 
L 3863 4666 
L 5684 4666 
L 5619 4331 
L 5025 4331 
L 4247 331 
L 4841 331 
L 4778 0 
L 2956 0 
L 3019 331 
L 3616 331 
L 4003 2338 
L 1584 2338 
L 1194 331 
L 1788 331 
L 1725 0 
L -97 0 
z
" transform="scale(0.015625)"/>
      </defs>
      <use xlink:href="#DejaVuSerif-Italic-6e" transform="translate(0 0.671875)"/>
      <use xlink:href="#DejaVuSerif-Italic-48" transform="translate(64.404297 -14.9) scale(0.7)"/>
     </g>
    </g>
   </g>
   <g id="matplotlib.axis_2">
    <g id="ytick_1">
     <g id="line2d_15">
      <defs>
       <path id="m8357bdb8ae" d="M 0 0 
L 2.5 0 
" style="stroke: #000000; stroke-width: 0.5"/>
      </defs>
      <g>
       <use xlink:href="#m8357bdb8ae" x="48.2667" y="178.95988" style="stroke: #000000; stroke-width: 0.5"/>
      </g>
     </g>
     <g id="line2d_16">
      <defs>
       <path id="m4730b3048c" d="M 0 0 
L -2.5 0 
" style="stroke: #000000; stroke-width: 0.5"/>
      </defs>
      <g>
       <use xlink:href="#m4730b3048c" x="429.165354" y="178.95988" style="stroke: #000000; stroke-width: 0.5"/>
      </g>
     </g>
     <g id="text_7">
      <!-- $10^{-3}$ -->
      <g transform="translate(21.3667 182.759098) scale(0.1 -0.1)">
       <defs>
        <path id="DejaVuSerif-2212" d="M 678 2259 
L 4684 2259 
L 4684 1753 
L 678 1753 
L 678 2259 
z
" transform="scale(0.015625)"/>
        <path id="DejaVuSerif-33" d="M 622 4469 
Q 988 4606 1323 4678 
Q 1659 4750 1953 4750 
Q 2638 4750 3022 4454 
Q 3406 4159 3406 3634 
Q 3406 3213 3140 2930 
Q 2875 2647 2388 2547 
Q 2963 2466 3280 2130 
Q 3597 1794 3597 1259 
Q 3597 606 3158 257 
Q 2719 -91 1894 -91 
Q 1528 -91 1179 -12 
Q 831 66 488 225 
L 488 1131 
L 838 1131 
Q 869 681 1141 450 
Q 1413 219 1906 219 
Q 2384 219 2661 495 
Q 2938 772 2938 1253 
Q 2938 1803 2653 2086 
Q 2369 2369 1819 2369 
L 1522 2369 
L 1522 2688 
L 1678 2688 
Q 2225 2688 2498 2914 
Q 2772 3141 2772 3597 
Q 2772 4006 2547 4223 
Q 2322 4441 1900 4441 
Q 1478 4441 1245 4241 
Q 1013 4041 972 3647 
L 622 3647 
L 622 4469 
z
" transform="scale(0.015625)"/>
       </defs>
       <use xlink:href="#DejaVuSerif-31" transform="translate(0 0.7125)"/>
       <use xlink:href="#DejaVuSerif-30" transform="translate(63.623047 0.7125)"/>
       <use xlink:href="#DejaVuSerif-2212" transform="translate(128.154453 37.046875) scale(0.7)"/>
       <use xlink:href="#DejaVuSerif-33" transform="translate(186.806797 37.046875) scale(0.7)"/>
      </g>
     </g>
    </g>
    <g id="ytick_2">
     <g id="line2d_17">
      <g>
       <use xlink:href="#m8357bdb8ae" x="48.2667" y="91.959449" style="stroke: #000000; stroke-width: 0.5"/>
      </g>
     </g>
     <g id="line2d_18">
      <g>
       <use xlink:href="#m4730b3048c" x="429.165354" y="91.959449" style="stroke: #000000; stroke-width: 0.5"/>
      </g>
     </g>
     <g id="text_8">
      <!-- $10^{-2}$ -->
      <g transform="translate(21.3667 95.758668) scale(0.1 -0.1)">
       <use xlink:href="#DejaVuSerif-31" transform="translate(0 0.7125)"/>
       <use xlink:href="#DejaVuSerif-30" transform="translate(63.623047 0.7125)"/>
       <use xlink:href="#DejaVuSerif-2212" transform="translate(128.154453 37.046875) scale(0.7)"/>
       <use xlink:href="#DejaVuSerif-32" transform="translate(186.806797 37.046875) scale(0.7)"/>
      </g>
     </g>
    </g>
    <g id="text_9">
     <!-- $P(\lambda &gt; 4)$ -->
     <g transform="translate(14.871075 160.83) rotate(-90) scale(0.12 -0.12)">
      <defs>
       <path id="DejaVuSerif-Italic-50" d="M 1594 2375 
L 2419 2375 
Q 2884 2375 3176 2626 
Q 3469 2878 3559 3353 
Q 3653 3831 3458 4081 
Q 3263 4331 2797 4331 
L 1972 4331 
L 1594 2375 
z
M -97 0 
L -34 331 
L 559 331 
L 1338 4331 
L 744 4331 
L 809 4666 
L 3016 4666 
Q 3716 4666 4056 4311 
Q 4397 3956 4278 3353 
Q 4163 2753 3684 2397 
Q 3206 2041 2506 2041 
L 1528 2041 
L 1194 331 
L 1916 331 
L 1853 0 
L -97 0 
z
" transform="scale(0.015625)"/>
       <path id="DejaVuSerif-28" d="M 2041 -997 
Q 1281 -656 893 83 
Q 506 822 506 1931 
Q 506 3044 893 3783 
Q 1281 4522 2041 4863 
L 2041 4556 
Q 1559 4225 1350 3623 
Q 1141 3022 1141 1931 
Q 1141 844 1350 242 
Q 1559 -359 2041 -691 
L 2041 -997 
z
" transform="scale(0.015625)"/>
       <path id="DejaVuSerif-Italic-3bb" d="M 1984 4084 
Q 1925 4372 1834 4466 
Q 1744 4563 1578 4563 
Q 1391 4563 1288 4472 
Q 1178 4378 1119 4166 
L 825 4166 
L 947 4800 
Q 1113 4847 1272 4872 
Q 1431 4897 1578 4897 
Q 1925 4897 2088 4753 
Q 2253 4613 2334 4225 
L 3100 334 
L 3472 334 
L 3406 0 
L 2159 0 
L 2225 334 
L 2722 334 
L 2281 2628 
L 853 334 
L 1384 334 
L 1319 0 
L -209 0 
L -144 334 
L 234 334 
L 2116 3388 
L 1984 4084 
z
" transform="scale(0.015625)"/>
       <path id="DejaVuSerif-3e" d="M 678 3188 
L 678 3719 
L 4684 2266 
L 4684 1747 
L 678 294 
L 678 825 
L 3922 2003 
L 678 3188 
z
" transform="scale(0.015625)"/>
       <path id="DejaVuSerif-29" d="M 453 -997 
L 453 -691 
Q 934 -359 1145 242 
Q 1356 844 1356 1931 
Q 1356 3022 1145 3623 
Q 934 4225 453 4556 
L 453 4863 
Q 1216 4522 1603 3783 
Q 1991 3044 1991 1931 
Q 1991 822 1603 83 
Q 1216 -656 453 -997 
z
" transform="scale(0.015625)"/>
      </defs>
      <use xlink:href="#DejaVuSerif-Italic-50" transform="translate(0 0.484375)"/>
      <use xlink:href="#DejaVuSerif-28" transform="translate(67.285156 0.484375)"/>
      <use xlink:href="#DejaVuSerif-Italic-3bb" transform="translate(106.298828 0.484375)"/>
      <use xlink:href="#DejaVuSerif-3e" transform="translate(188.642578 0.484375)"/>
      <use xlink:href="#DejaVuSerif-34" transform="translate(291.396484 0.484375)"/>
      <use xlink:href="#DejaVuSerif-29" transform="translate(355.019531 0.484375)"/>
     </g>
    </g>
   </g>
   <g id="line2d_19">
    <path d="M 178.826301 104.735233 
L 180.84279 106.182096 
L 182.85928 107.628959 
L 184.875769 109.075822 
L 186.892258 110.522685 
L 188.908747 111.969548 
L 190.925236 113.416411 
L 192.941725 114.863275 
L 194.958214 116.310138 
L 196.974703 117.757001 
L 198.991192 119.203864 
L 201.007681 120.650727 
L 203.02417 122.09759 
L 205.040659 123.544453 
L 207.057148 124.991316 
L 209.073638 126.438179 
L 211.090127 127.885042 
L 213.106616 129.331905 
L 215.123105 130.778768 
L 217.139594 132.225631 
L 219.156083 133.672494 
L 221.172572 135.119357 
L 223.189061 136.56622 
L 225.20555 138.013083 
L 227.222039 139.459946 
L 229.238528 140.906809 
L 231.255017 142.353672 
L 233.271506 143.800535 
L 235.287996 145.247398 
L 237.304485 146.694261 
L 239.320974 148.141124 
L 241.337463 149.587987 
L 243.353952 151.03485 
L 245.370441 152.481713 
L 247.38693 153.928577 
L 249.403419 155.37544 
L 251.419908 156.822303 
L 253.436397 158.269166 
L 255.452886 159.716029 
L 257.469375 161.162892 
L 259.485864 162.609755 
L 261.502354 164.056618 
L 263.518843 165.503481 
L 265.535332 166.950344 
L 267.551821 168.397207 
L 269.56831 169.84407 
L 271.584799 171.290933 
L 273.601288 172.737796 
L 275.617777 174.184659 
L 277.634266 175.631522 
L 279.650755 177.078385 
L 281.667244 178.525248 
L 283.683733 179.972111 
L 285.700222 181.418974 
L 287.716712 182.865837 
L 289.733201 184.3127 
L 291.74969 185.759563 
L 293.766179 187.206426 
L 295.782668 188.653289 
L 297.799157 190.100152 
L 299.815646 191.547015 
L 301.832135 192.993878 
L 303.848624 194.440742 
L 305.865113 195.887605 
L 307.881602 197.334468 
L 309.898091 198.781331 
L 311.91458 200.228194 
L 313.93107 201.675057 
L 315.947559 203.12192 
L 317.964048 204.568783 
L 319.980537 206.015646 
L 321.997026 207.462509 
L 324.013515 208.909372 
L 326.030004 210.356235 
L 328.046493 211.803098 
L 330.062982 213.249961 
L 332.079471 214.696824 
L 334.09596 216.143687 
L 336.112449 217.59055 
L 338.128938 219.037413 
L 340.145428 220.484276 
L 342.161917 221.931139 
L 344.178406 223.378002 
L 346.194895 224.824865 
L 348.211384 226.271728 
L 350.227873 227.718591 
L 352.244362 229.165454 
L 354.260851 230.612317 
L 356.27734 232.05918 
L 358.293829 233.506044 
L 360.310318 234.952907 
L 362.326807 236.39977 
L 364.343296 237.846633 
L 366.359786 239.293496 
L 368.376275 240.740359 
L 370.392764 242.187222 
L 372.409253 243.634085 
L 374.425742 245.080948 
L 376.442231 246.527811 
L 378.45872 247.974674 
" clip-path="url(#p0f81dbc40d)" style="fill: none; stroke-dasharray: 3.7,1.6; stroke-dashoffset: 0; stroke: #8c8c8c"/>
   </g>
   <g id="patch_3">
    <path d="M 48.2667 254.625354 
L 48.2667 19.634646 
" style="fill: none; stroke: #000000; stroke-linejoin: miter; stroke-linecap: square"/>
   </g>
   <g id="patch_4">
    <path d="M 429.165354 254.625354 
L 429.165354 19.634646 
" style="fill: none; stroke: #000000; stroke-linejoin: miter; stroke-linecap: square"/>
   </g>
   <g id="patch_5">
    <path d="M 48.2667 254.625354 
L 429.165354 254.625354 
" style="fill: none; stroke: #000000; stroke-linejoin: miter; stroke-linecap: square"/>
   </g>
   <g id="patch_6">
    <path d="M 48.2667 19.634646 
L 429.165354 19.634646 
" style="fill: none; stroke: #000000; stroke-linejoin: miter; stroke-linecap: square"/>
   </g>
   <g id="line2d_20">
    <path d="M 59.04685 29.168314 
L 98.973334 64.233102 
L 138.899818 84.235864 
L 178.826301 92.492575 
" clip-path="url(#p0f81dbc40d)" style="fill: none; stroke: #4c72b0"/>
   </g>
   <g id="text_10">
    <!-- KL divergence from MP with $n_H$ for $O = Z$ -->
    <g transform="translate(112.476027 13.634646) scale(0.12 -0.12)">
     <defs>
      <path id="DejaVuSerif-4b" d="M 353 0 
L 353 331 
L 947 331 
L 947 4331 
L 353 4331 
L 353 4666 
L 2175 4666 
L 2175 4331 
L 1581 4331 
L 1581 2566 
L 3591 4331 
L 3084 4331 
L 3084 4666 
L 4634 4666 
L 4634 4331 
L 4109 4331 
L 2106 2572 
L 4347 331 
L 4878 331 
L 4878 0 
L 3794 0 
L 1581 2216 
L 1581 331 
L 2175 331 
L 2175 0 
L 353 0 
z
" transform="scale(0.015625)"/>
      <path id="DejaVuSerif-4c" d="M 353 0 
L 353 331 
L 947 331 
L 947 4331 
L 353 4331 
L 353 4666 
L 2175 4666 
L 2175 4331 
L 1581 4331 
L 1581 384 
L 3713 384 
L 3713 1166 
L 4097 1166 
L 4097 0 
L 353 0 
z
" transform="scale(0.015625)"/>
      <path id="DejaVuSerif-20" transform="scale(0.015625)"/>
      <path id="DejaVuSerif-64" d="M 3359 331 
L 3909 331 
L 3909 0 
L 2784 0 
L 2784 519 
Q 2616 206 2355 57 
Q 2094 -91 1709 -91 
Q 1097 -91 708 395 
Q 319 881 319 1663 
Q 319 2444 706 2928 
Q 1094 3413 1709 3413 
Q 2094 3413 2355 3264 
Q 2616 3116 2784 2803 
L 2784 4531 
L 2241 4531 
L 2241 4863 
L 3359 4863 
L 3359 331 
z
M 2784 1497 
L 2784 1825 
Q 2784 2422 2554 2737 
Q 2325 3053 1888 3053 
Q 1444 3053 1217 2703 
Q 991 2353 991 1663 
Q 991 975 1217 622 
Q 1444 269 1888 269 
Q 2325 269 2554 583 
Q 2784 897 2784 1497 
z
" transform="scale(0.015625)"/>
      <path id="DejaVuSerif-69" d="M 622 4353 
Q 622 4497 726 4603 
Q 831 4709 978 4709 
Q 1122 4709 1226 4603 
Q 1331 4497 1331 4353 
Q 1331 4206 1228 4103 
Q 1125 4000 978 4000 
Q 831 4000 726 4103 
Q 622 4206 622 4353 
z
M 1356 331 
L 1900 331 
L 1900 0 
L 231 0 
L 231 331 
L 781 331 
L 781 2988 
L 231 2988 
L 231 3322 
L 1356 3322 
L 1356 331 
z
" transform="scale(0.015625)"/>
      <path id="DejaVuSerif-76" d="M 1581 0 
L 359 2988 
L -19 2988 
L -19 3322 
L 1509 3322 
L 1509 2988 
L 978 2988 
L 1913 703 
L 2847 2988 
L 2350 2988 
L 2350 3322 
L 3597 3322 
L 3597 2988 
L 3225 2988 
L 2003 0 
L 1581 0 
z
" transform="scale(0.015625)"/>
      <path id="DejaVuSerif-65" d="M 3469 1600 
L 991 1600 
L 991 1575 
Q 991 903 1244 561 
Q 1497 219 1991 219 
Q 2369 219 2611 417 
Q 2853 616 2950 1006 
L 3413 1006 
Q 3275 459 2904 184 
Q 2534 -91 1931 -91 
Q 1203 -91 761 389 
Q 319 869 319 1663 
Q 319 2450 753 2931 
Q 1188 3413 1894 3413 
Q 2647 3413 3050 2948 
Q 3453 2484 3469 1600 
z
M 2791 1931 
Q 2772 2513 2545 2808 
Q 2319 3103 1894 3103 
Q 1497 3103 1269 2806 
Q 1041 2509 991 1931 
L 2791 1931 
z
" transform="scale(0.015625)"/>
      <path id="DejaVuSerif-72" d="M 3059 3328 
L 3059 2497 
L 2728 2497 
Q 2713 2744 2591 2866 
Q 2469 2988 2234 2988 
Q 1809 2988 1582 2694 
Q 1356 2400 1356 1850 
L 1356 331 
L 2022 331 
L 2022 0 
L 263 0 
L 263 331 
L 781 331 
L 781 2994 
L 231 2994 
L 231 3322 
L 1356 3322 
L 1356 2731 
Q 1525 3078 1790 3245 
Q 2056 3413 2438 3413 
Q 2578 3413 2733 3391 
Q 2888 3369 3059 3328 
z
" transform="scale(0.015625)"/>
      <path id="DejaVuSerif-67" d="M 3359 2988 
L 3359 72 
Q 3359 -644 2965 -1033 
Q 2572 -1422 1844 -1422 
Q 1516 -1422 1216 -1362 
Q 916 -1303 641 -1184 
L 641 -488 
L 941 -488 
Q 997 -813 1206 -963 
Q 1416 -1113 1806 -1113 
Q 2313 -1113 2548 -827 
Q 2784 -541 2784 72 
L 2784 519 
Q 2616 206 2355 57 
Q 2094 -91 1709 -91 
Q 1097 -91 708 395 
Q 319 881 319 1663 
Q 319 2444 706 2928 
Q 1094 3413 1709 3413 
Q 2094 3413 2355 3264 
Q 2616 3116 2784 2803 
L 2784 3322 
L 3909 3322 
L 3909 2988 
L 3359 2988 
z
M 2784 1825 
Q 2784 2422 2554 2737 
Q 2325 3053 1888 3053 
Q 1444 3053 1217 2703 
Q 991 2353 991 1663 
Q 991 975 1217 622 
Q 1444 269 1888 269 
Q 2325 269 2554 583 
Q 2784 897 2784 1497 
L 2784 1825 
z
" transform="scale(0.015625)"/>
      <path id="DejaVuSerif-6e" d="M 263 0 
L 263 331 
L 781 331 
L 781 2988 
L 231 2988 
L 231 3322 
L 1356 3322 
L 1356 2731 
Q 1516 3069 1770 3241 
Q 2025 3413 2363 3413 
Q 2913 3413 3172 3097 
Q 3431 2781 3431 2113 
L 3431 331 
L 3944 331 
L 3944 0 
L 2356 0 
L 2356 331 
L 2853 331 
L 2853 1931 
Q 2853 2541 2703 2767 
Q 2553 2994 2175 2994 
Q 1775 2994 1565 2701 
Q 1356 2409 1356 1850 
L 1356 331 
L 1856 331 
L 1856 0 
L 263 0 
z
" transform="scale(0.015625)"/>
      <path id="DejaVuSerif-63" d="M 3291 997 
Q 3169 466 2822 187 
Q 2475 -91 1925 -91 
Q 1200 -91 759 389 
Q 319 869 319 1663 
Q 319 2459 759 2936 
Q 1200 3413 1925 3413 
Q 2241 3413 2553 3339 
Q 2866 3266 3181 3116 
L 3181 2266 
L 2847 2266 
Q 2781 2703 2561 2903 
Q 2341 3103 1931 3103 
Q 1466 3103 1228 2742 
Q 991 2381 991 1663 
Q 991 944 1227 581 
Q 1463 219 1931 219 
Q 2303 219 2525 412 
Q 2747 606 2828 997 
L 3291 997 
z
" transform="scale(0.015625)"/>
      <path id="DejaVuSerif-66" d="M 2753 4078 
L 2450 4078 
Q 2447 4313 2317 4434 
Q 2188 4556 1941 4556 
Q 1619 4556 1487 4379 
Q 1356 4203 1356 3750 
L 1356 3322 
L 2284 3322 
L 2284 2988 
L 1356 2988 
L 1356 331 
L 2094 331 
L 2094 0 
L 231 0 
L 231 331 
L 781 331 
L 781 2988 
L 231 2988 
L 231 3322 
L 781 3322 
L 781 3738 
Q 781 4294 1070 4578 
Q 1359 4863 1919 4863 
Q 2128 4863 2337 4825 
Q 2547 4788 2753 4709 
L 2753 4078 
z
" transform="scale(0.015625)"/>
      <path id="DejaVuSerif-6f" d="M 1925 219 
Q 2388 219 2623 584 
Q 2859 950 2859 1663 
Q 2859 2375 2623 2739 
Q 2388 3103 1925 3103 
Q 1463 3103 1227 2739 
Q 991 2375 991 1663 
Q 991 950 1228 584 
Q 1466 219 1925 219 
z
M 1925 -91 
Q 1200 -91 759 389 
Q 319 869 319 1663 
Q 319 2456 758 2934 
Q 1197 3413 1925 3413 
Q 2653 3413 3092 2934 
Q 3531 2456 3531 1663 
Q 3531 869 3092 389 
Q 2653 -91 1925 -91 
z
" transform="scale(0.015625)"/>
      <path id="DejaVuSerif-6d" d="M 3316 2675 
Q 3481 3041 3739 3227 
Q 3997 3413 4341 3413 
Q 4863 3413 5119 3089 
Q 5375 2766 5375 2113 
L 5375 331 
L 5894 331 
L 5894 0 
L 4300 0 
L 4300 331 
L 4800 331 
L 4800 2047 
Q 4800 2556 4650 2772 
Q 4500 2988 4153 2988 
Q 3769 2988 3567 2697 
Q 3366 2406 3366 1850 
L 3366 331 
L 3866 331 
L 3866 0 
L 2291 0 
L 2291 331 
L 2791 331 
L 2791 2069 
Q 2791 2566 2641 2777 
Q 2491 2988 2144 2988 
Q 1759 2988 1557 2697 
Q 1356 2406 1356 1850 
L 1356 331 
L 1856 331 
L 1856 0 
L 263 0 
L 263 331 
L 781 331 
L 781 2994 
L 231 2994 
L 231 3322 
L 1356 3322 
L 1356 2731 
Q 1516 3063 1762 3238 
Q 2009 3413 2322 3413 
Q 2709 3413 2968 3220 
Q 3228 3028 3316 2675 
z
" transform="scale(0.015625)"/>
      <path id="DejaVuSerif-4d" d="M 353 0 
L 353 331 
L 947 331 
L 947 4331 
L 319 4331 
L 319 4666 
L 1678 4666 
L 3316 1344 
L 4953 4666 
L 6228 4666 
L 6228 4331 
L 5606 4331 
L 5606 331 
L 6203 331 
L 6203 0 
L 4378 0 
L 4378 331 
L 4972 331 
L 4972 3938 
L 3372 684 
L 2931 684 
L 1331 3938 
L 1331 331 
L 1925 331 
L 1925 0 
L 353 0 
z
" transform="scale(0.015625)"/>
      <path id="DejaVuSerif-50" d="M 1581 2375 
L 2406 2375 
Q 2872 2375 3115 2626 
Q 3359 2878 3359 3353 
Q 3359 3831 3115 4081 
Q 2872 4331 2406 4331 
L 1581 4331 
L 1581 2375 
z
M 353 0 
L 353 331 
L 947 331 
L 947 4331 
L 353 4331 
L 353 4666 
L 2559 4666 
Q 3259 4666 3668 4311 
Q 4078 3956 4078 3353 
Q 4078 2753 3668 2397 
Q 3259 2041 2559 2041 
L 1581 2041 
L 1581 331 
L 2303 331 
L 2303 0 
L 353 0 
z
" transform="scale(0.015625)"/>
      <path id="DejaVuSerif-77" d="M 3072 3322 
L 3922 728 
L 4672 2988 
L 4191 2988 
L 4191 3322 
L 5394 3322 
L 5394 2988 
L 5025 2988 
L 4038 0 
L 3559 0 
L 2741 2484 
L 1919 0 
L 1459 0 
L 475 2988 
L 103 2988 
L 103 3322 
L 1606 3322 
L 1606 2988 
L 1069 2988 
L 1813 728 
L 2669 3322 
L 3072 3322 
z
" transform="scale(0.015625)"/>
      <path id="DejaVuSerif-74" d="M 691 2988 
L 184 2988 
L 184 3322 
L 691 3322 
L 691 4353 
L 1269 4353 
L 1269 3322 
L 2350 3322 
L 2350 2988 
L 1269 2988 
L 1269 878 
Q 1269 456 1350 337 
Q 1431 219 1650 219 
Q 1875 219 1978 351 
Q 2081 484 2088 781 
L 2522 781 
Q 2497 328 2275 118 
Q 2053 -91 1600 -91 
Q 1103 -91 897 129 
Q 691 350 691 878 
L 691 2988 
z
" transform="scale(0.015625)"/>
      <path id="DejaVuSerif-68" d="M 263 0 
L 263 331 
L 781 331 
L 781 4531 
L 231 4531 
L 231 4863 
L 1356 4863 
L 1356 2731 
Q 1516 3069 1770 3241 
Q 2025 3413 2363 3413 
Q 2913 3413 3172 3097 
Q 3431 2781 3431 2113 
L 3431 331 
L 3944 331 
L 3944 0 
L 2356 0 
L 2356 331 
L 2853 331 
L 2853 1931 
Q 2853 2541 2704 2764 
Q 2556 2988 2175 2988 
Q 1775 2988 1565 2697 
Q 1356 2406 1356 1850 
L 1356 331 
L 1856 331 
L 1856 0 
L 263 0 
z
" transform="scale(0.015625)"/>
      <path id="DejaVuSerif-Italic-4f" d="M 2219 244 
Q 2984 244 3478 770 
Q 3972 1297 4172 2328 
Q 4372 3363 4084 3889 
Q 3797 4416 3031 4416 
Q 2263 4416 1769 3889 
Q 1275 3363 1075 2328 
Q 875 1297 1162 770 
Q 1450 244 2219 244 
z
M 2153 -91 
Q 1678 -91 1311 65 
Q 944 222 700 525 
Q 419 875 334 1319 
Q 250 1763 359 2328 
Q 469 2894 725 3339 
Q 981 3784 1400 4134 
Q 1766 4441 2191 4595 
Q 2616 4750 3097 4750 
Q 4113 4750 4608 4084 
Q 5103 3419 4891 2328 
Q 4781 1769 4522 1320 
Q 4263 872 3847 525 
Q 3481 219 3056 64 
Q 2631 -91 2153 -91 
z
" transform="scale(0.015625)"/>
      <path id="DejaVuSerif-3d" d="M 678 2894 
L 4684 2894 
L 4684 2394 
L 678 2394 
L 678 2894 
z
M 678 1619 
L 4684 1619 
L 4684 1119 
L 678 1119 
L 678 1619 
z
" transform="scale(0.015625)"/>
      <path id="DejaVuSerif-Italic-5a" d="M -166 0 
L -122 225 
L 3572 4281 
L 1159 4281 
L 1025 3584 
L 641 3584 
L 850 4666 
L 4538 4666 
L 4494 4441 
L 800 384 
L 3438 384 
L 3563 1038 
L 3944 1038 
L 3744 0 
L -166 0 
z
" transform="scale(0.015625)"/>
     </defs>
     <use xlink:href="#DejaVuSerif-4b" transform="translate(0 0.015625)"/>
     <use xlink:href="#DejaVuSerif-4c" transform="translate(74.707031 0.015625)"/>
     <use xlink:href="#DejaVuSerif-20" transform="translate(141.113281 0.015625)"/>
     <use xlink:href="#DejaVuSerif-64" transform="translate(172.900391 0.015625)"/>
     <use xlink:href="#DejaVuSerif-69" transform="translate(236.914062 0.015625)"/>
     <use xlink:href="#DejaVuSerif-76" transform="translate(268.896484 0.015625)"/>
     <use xlink:href="#DejaVuSerif-65" transform="translate(325.390625 0.015625)"/>
     <use xlink:href="#DejaVuSerif-72" transform="translate(384.570312 0.015625)"/>
     <use xlink:href="#DejaVuSerif-67" transform="translate(432.373047 0.015625)"/>
     <use xlink:href="#DejaVuSerif-65" transform="translate(496.386719 0.015625)"/>
     <use xlink:href="#DejaVuSerif-6e" transform="translate(555.566406 0.015625)"/>
     <use xlink:href="#DejaVuSerif-63" transform="translate(619.970703 0.015625)"/>
     <use xlink:href="#DejaVuSerif-65" transform="translate(675.976562 0.015625)"/>
     <use xlink:href="#DejaVuSerif-20" transform="translate(735.15625 0.015625)"/>
     <use xlink:href="#DejaVuSerif-66" transform="translate(766.943359 0.015625)"/>
     <use xlink:href="#DejaVuSerif-72" transform="translate(803.955078 0.015625)"/>
     <use xlink:href="#DejaVuSerif-6f" transform="translate(851.757812 0.015625)"/>
     <use xlink:href="#DejaVuSerif-6d" transform="translate(911.962891 0.015625)"/>
     <use xlink:href="#DejaVuSerif-20" transform="translate(1006.787109 0.015625)"/>
     <use xlink:href="#DejaVuSerif-4d" transform="translate(1038.574219 0.015625)"/>
     <use xlink:href="#DejaVuSerif-50" transform="translate(1140.966797 0.015625)"/>
     <use xlink:href="#DejaVuSerif-20" transform="translate(1208.251953 0.015625)"/>
     <use xlink:href="#DejaVuSerif-77" transform="translate(1240.039062 0.015625)"/>
     <use xlink:href="#DejaVuSerif-69" transform="translate(1325.634766 0.015625)"/>
     <use xlink:href="#DejaVuSerif-74" transform="translate(1357.617188 0.015625)"/>
     <use xlink:href="#DejaVuSerif-68" transform="translate(1397.802734 0.015625)"/>
     <use xlink:href="#DejaVuSerif-20" transform="translate(1462.207031 0.015625)"/>
     <use xlink:href="#DejaVuSerif-Italic-6e" transform="translate(1493.994141 0.015625)"/>
     <use xlink:href="#DejaVuSerif-Italic-48" transform="translate(1558.398438 -15.55625) scale(0.7)"/>
     <use xlink:href="#DejaVuSerif-20" transform="translate(1622.038672 0.015625)"/>
     <use xlink:href="#DejaVuSerif-66" transform="translate(1653.825781 0.015625)"/>
     <use xlink:href="#DejaVuSerif-6f" transform="translate(1690.8375 0.015625)"/>
     <use xlink:href="#DejaVuSerif-72" transform="translate(1751.042578 0.015625)"/>
     <use xlink:href="#DejaVuSerif-20" transform="translate(1798.845313 0.015625)"/>
     <use xlink:href="#DejaVuSerif-Italic-4f" transform="translate(1830.632422 0.015625)"/>
     <use xlink:href="#DejaVuSerif-3d" transform="translate(1931.579688 0.015625)"/>
     <use xlink:href="#DejaVuSerif-Italic-5a" transform="translate(2034.333594 0.015625)"/>
    </g>
   </g>
   <g id="line2d_21">
    <path d="M 59.04685 26.285326 
L 98.973334 56.408719 
L 138.899818 83.864423 
L 178.826301 107.641518 
L 218.752785 122.48706 
L 258.679269 125.388603 
" clip-path="url(#p0f81dbc40d)" style="fill: none; stroke: #dd8452"/>
   </g>
   <g id="line2d_22">
    <path d="M 218.752785 122.85935 
L 218.752785 122.118404 
" clip-path="url(#p0f81dbc40d)" style="fill: none; stroke: #000000"/>
   </g>
   <g id="line2d_23">
    <path d="M 258.679269 125.754104 
L 258.679269 125.026604 
" clip-path="url(#p0f81dbc40d)" style="fill: none; stroke: #000000"/>
   </g>
   <g id="PathCollection_1">
    <defs>
     <path id="mb08557fc91" d="M 2 0 
L -2 -0 
" style="stroke: #000000"/>
    </defs>
    <g clip-path="url(#p0f81dbc40d)">
     <use xlink:href="#mb08557fc91" x="218.752785" y="122.85935" style="stroke: #000000"/>
     <use xlink:href="#mb08557fc91" x="218.752785" y="122.118404" style="stroke: #000000"/>
    </g>
   </g>
   <g id="PathCollection_2">
    <g clip-path="url(#p0f81dbc40d)">
     <use xlink:href="#mb08557fc91" x="258.679269" y="125.754104" style="stroke: #000000"/>
     <use xlink:href="#mb08557fc91" x="258.679269" y="125.026604" style="stroke: #000000"/>
    </g>
   </g>
   <g id="line2d_24">
    <path d="M 59.04685 28.430165 
L 98.973334 55.670744 
L 138.899818 78.694524 
L 178.826301 106.696848 
L 218.752785 135.840926 
L 258.679269 153.930299 
L 298.605753 162.882308 
L 338.532236 163.534262 
" clip-path="url(#p0f81dbc40d)" style="fill: none; stroke: #55a868"/>
   </g>
   <g id="line2d_25">
    <path d="M 59.04685 28.546485 
L 59.04685 28.314202 
" clip-path="url(#p0f81dbc40d)" style="fill: none; stroke: #000000"/>
   </g>
   <g id="line2d_26">
    <path d="M 98.973334 55.790602 
L 98.973334 55.551265 
" clip-path="url(#p0f81dbc40d)" style="fill: none; stroke: #000000"/>
   </g>
   <g id="line2d_27">
    <path d="M 138.899818 78.849061 
L 138.899818 78.540618 
" clip-path="url(#p0f81dbc40d)" style="fill: none; stroke: #000000"/>
   </g>
   <g id="line2d_28">
    <path d="M 178.826301 106.968086 
L 178.826301 106.427543 
" clip-path="url(#p0f81dbc40d)" style="fill: none; stroke: #000000"/>
   </g>
   <g id="line2d_29">
    <path d="M 218.752785 136.24732 
L 218.752785 135.438857 
" clip-path="url(#p0f81dbc40d)" style="fill: none; stroke: #000000"/>
   </g>
   <g id="line2d_30">
    <path d="M 258.679269 154.249725 
L 258.679269 153.613552 
" clip-path="url(#p0f81dbc40d)" style="fill: none; stroke: #000000"/>
   </g>
   <g id="line2d_31">
    <path d="M 298.605753 163.2186 
L 298.605753 162.548983 
" clip-path="url(#p0f81dbc40d)" style="fill: none; stroke: #000000"/>
   </g>
   <g id="line2d_32">
    <path d="M 338.532236 163.884756 
L 338.532236 163.186989 
" clip-path="url(#p0f81dbc40d)" style="fill: none; stroke: #000000"/>
   </g>
   <g id="PathCollection_3">
    <g clip-path="url(#p0f81dbc40d)">
     <use xlink:href="#mb08557fc91" x="59.04685" y="28.546485" style="stroke: #000000"/>
     <use xlink:href="#mb08557fc91" x="59.04685" y="28.314202" style="stroke: #000000"/>
    </g>
   </g>
   <g id="PathCollection_4">
    <g clip-path="url(#p0f81dbc40d)">
     <use xlink:href="#mb08557fc91" x="98.973334" y="55.790602" style="stroke: #000000"/>
     <use xlink:href="#mb08557fc91" x="98.973334" y="55.551265" style="stroke: #000000"/>
    </g>
   </g>
   <g id="PathCollection_5">
    <g clip-path="url(#p0f81dbc40d)">
     <use xlink:href="#mb08557fc91" x="138.899818" y="78.849061" style="stroke: #000000"/>
     <use xlink:href="#mb08557fc91" x="138.899818" y="78.540618" style="stroke: #000000"/>
    </g>
   </g>
   <g id="PathCollection_6">
    <g clip-path="url(#p0f81dbc40d)">
     <use xlink:href="#mb08557fc91" x="178.826301" y="106.968086" style="stroke: #000000"/>
     <use xlink:href="#mb08557fc91" x="178.826301" y="106.427543" style="stroke: #000000"/>
    </g>
   </g>
   <g id="PathCollection_7">
    <g clip-path="url(#p0f81dbc40d)">
     <use xlink:href="#mb08557fc91" x="218.752785" y="136.24732" style="stroke: #000000"/>
     <use xlink:href="#mb08557fc91" x="218.752785" y="135.438857" style="stroke: #000000"/>
    </g>
   </g>
   <g id="PathCollection_8">
    <g clip-path="url(#p0f81dbc40d)">
     <use xlink:href="#mb08557fc91" x="258.679269" y="154.249725" style="stroke: #000000"/>
     <use xlink:href="#mb08557fc91" x="258.679269" y="153.613552" style="stroke: #000000"/>
    </g>
   </g>
   <g id="PathCollection_9">
    <g clip-path="url(#p0f81dbc40d)">
     <use xlink:href="#mb08557fc91" x="298.605753" y="163.2186" style="stroke: #000000"/>
     <use xlink:href="#mb08557fc91" x="298.605753" y="162.548983" style="stroke: #000000"/>
    </g>
   </g>
   <g id="PathCollection_10">
    <g clip-path="url(#p0f81dbc40d)">
     <use xlink:href="#mb08557fc91" x="338.532236" y="163.884756" style="stroke: #000000"/>
     <use xlink:href="#mb08557fc91" x="338.532236" y="163.186989" style="stroke: #000000"/>
    </g>
   </g>
   <g id="line2d_33">
    <path d="M 59.04685 31.772061 
L 98.973334 59.644289 
L 138.899818 81.412692 
L 178.826301 104.060265 
L 218.752785 132.251773 
L 258.679269 166.31861 
L 298.605753 188.197614 
L 338.532236 203.544299 
L 378.45872 207.522738 
L 418.385204 204.744121 
" clip-path="url(#p0f81dbc40d)" style="fill: none; stroke: #c44e52"/>
   </g>
   <g id="line2d_34">
    <path d="M 59.04685 31.903452 
L 59.04685 31.641125 
" clip-path="url(#p0f81dbc40d)" style="fill: none; stroke: #000000"/>
   </g>
   <g id="line2d_35">
    <path d="M 98.973334 59.787881 
L 98.973334 59.501241 
" clip-path="url(#p0f81dbc40d)" style="fill: none; stroke: #000000"/>
   </g>
   <g id="line2d_36">
    <path d="M 138.899818 81.555754 
L 138.899818 81.27017 
" clip-path="url(#p0f81dbc40d)" style="fill: none; stroke: #000000"/>
   </g>
   <g id="line2d_37">
    <path d="M 178.826301 104.2553 
L 178.826301 103.866233 
" clip-path="url(#p0f81dbc40d)" style="fill: none; stroke: #000000"/>
   </g>
   <g id="line2d_38">
    <path d="M 218.752785 132.755368 
L 218.752785 131.754802 
" clip-path="url(#p0f81dbc40d)" style="fill: none; stroke: #000000"/>
   </g>
   <g id="line2d_39">
    <path d="M 258.679269 166.792983 
L 258.679269 165.850118 
" clip-path="url(#p0f81dbc40d)" style="fill: none; stroke: #000000"/>
   </g>
   <g id="line2d_40">
    <path d="M 298.605753 188.965072 
L 298.605753 187.445433 
" clip-path="url(#p0f81dbc40d)" style="fill: none; stroke: #000000"/>
   </g>
   <g id="line2d_41">
    <path d="M 338.532236 204.662441 
L 338.532236 202.458299 
" clip-path="url(#p0f81dbc40d)" style="fill: none; stroke: #000000"/>
   </g>
   <g id="line2d_42">
    <path d="M 378.45872 208.720022 
L 378.45872 206.362231 
" clip-path="url(#p0f81dbc40d)" style="fill: none; stroke: #000000"/>
   </g>
   <g id="line2d_43">
    <path d="M 418.385204 206.019992 
L 418.385204 203.509929 
" clip-path="url(#p0f81dbc40d)" style="fill: none; stroke: #000000"/>
   </g>
   <g id="PathCollection_11">
    <g clip-path="url(#p0f81dbc40d)">
     <use xlink:href="#mb08557fc91" x="59.04685" y="31.903452" style="stroke: #000000"/>
     <use xlink:href="#mb08557fc91" x="59.04685" y="31.641125" style="stroke: #000000"/>
    </g>
   </g>
   <g id="PathCollection_12">
    <g clip-path="url(#p0f81dbc40d)">
     <use xlink:href="#mb08557fc91" x="98.973334" y="59.787881" style="stroke: #000000"/>
     <use xlink:href="#mb08557fc91" x="98.973334" y="59.501241" style="stroke: #000000"/>
    </g>
   </g>
   <g id="PathCollection_13">
    <g clip-path="url(#p0f81dbc40d)">
     <use xlink:href="#mb08557fc91" x="138.899818" y="81.555754" style="stroke: #000000"/>
     <use xlink:href="#mb08557fc91" x="138.899818" y="81.27017" style="stroke: #000000"/>
    </g>
   </g>
   <g id="PathCollection_14">
    <g clip-path="url(#p0f81dbc40d)">
     <use xlink:href="#mb08557fc91" x="178.826301" y="104.2553" style="stroke: #000000"/>
     <use xlink:href="#mb08557fc91" x="178.826301" y="103.866233" style="stroke: #000000"/>
    </g>
   </g>
   <g id="PathCollection_15">
    <g clip-path="url(#p0f81dbc40d)">
     <use xlink:href="#mb08557fc91" x="218.752785" y="132.755368" style="stroke: #000000"/>
     <use xlink:href="#mb08557fc91" x="218.752785" y="131.754802" style="stroke: #000000"/>
    </g>
   </g>
   <g id="PathCollection_16">
    <g clip-path="url(#p0f81dbc40d)">
     <use xlink:href="#mb08557fc91" x="258.679269" y="166.792983" style="stroke: #000000"/>
     <use xlink:href="#mb08557fc91" x="258.679269" y="165.850118" style="stroke: #000000"/>
    </g>
   </g>
   <g id="PathCollection_17">
    <g clip-path="url(#p0f81dbc40d)">
     <use xlink:href="#mb08557fc91" x="298.605753" y="188.965072" style="stroke: #000000"/>
     <use xlink:href="#mb08557fc91" x="298.605753" y="187.445433" style="stroke: #000000"/>
    </g>
   </g>
   <g id="PathCollection_18">
    <g clip-path="url(#p0f81dbc40d)">
     <use xlink:href="#mb08557fc91" x="338.532236" y="204.662441" style="stroke: #000000"/>
     <use xlink:href="#mb08557fc91" x="338.532236" y="202.458299" style="stroke: #000000"/>
    </g>
   </g>
   <g id="PathCollection_19">
    <g clip-path="url(#p0f81dbc40d)">
     <use xlink:href="#mb08557fc91" x="378.45872" y="208.720022" style="stroke: #000000"/>
     <use xlink:href="#mb08557fc91" x="378.45872" y="206.362231" style="stroke: #000000"/>
    </g>
   </g>
   <g id="PathCollection_20">
    <g clip-path="url(#p0f81dbc40d)">
     <use xlink:href="#mb08557fc91" x="418.385204" y="206.019992" style="stroke: #000000"/>
     <use xlink:href="#mb08557fc91" x="418.385204" y="203.509929" style="stroke: #000000"/>
    </g>
   </g>
   <g id="legend_1">
    <g id="patch_7">
     <path d="M 312.765354 123.747146 
L 424.165354 123.747146 
L 424.165354 24.634646 
L 312.765354 24.634646 
z
" style="fill: #ffffff; stroke: #000000; stroke-linejoin: miter"/>
    </g>
    <g id="line2d_44">
     <path d="M 320.765354 36.734646 
L 330.765354 36.734646 
L 340.765354 36.734646 
" style="fill: none; stroke-dasharray: 4.625,2; stroke-dashoffset: 0; stroke: #8c8c8c; stroke-width: 1.25; stroke-linejoin: miter"/>
    </g>
    <g id="text_11">
     <!-- $c_1\exp(-\gamma_1 N)$ -->
     <g transform="translate(348.765354 40.234646) scale(0.1 -0.1)">
      <defs>
       <path id="DejaVuSans-Oblique-63" d="M 3431 3366 
L 3316 2797 
Q 3109 2947 2876 3022 
Q 2644 3097 2394 3097 
Q 2119 3097 1870 3000 
Q 1622 2903 1453 2725 
Q 1184 2453 1037 2087 
Q 891 1722 891 1331 
Q 891 859 1127 628 
Q 1363 397 1844 397 
Q 2081 397 2348 469 
Q 2616 541 2906 684 
L 2797 116 
Q 2547 13 2283 -39 
Q 2019 -91 1741 -91 
Q 1044 -91 669 257 
Q 294 606 294 1253 
Q 294 1797 489 2255 
Q 684 2713 1069 3078 
Q 1331 3328 1684 3456 
Q 2038 3584 2456 3584 
Q 2700 3584 2940 3529 
Q 3181 3475 3431 3366 
z
" transform="scale(0.015625)"/>
       <path id="DejaVuSans-31" d="M 794 531 
L 1825 531 
L 1825 4091 
L 703 3866 
L 703 4441 
L 1819 4666 
L 2450 4666 
L 2450 531 
L 3481 531 
L 3481 0 
L 794 0 
L 794 531 
z
" transform="scale(0.015625)"/>
       <path id="DejaVuSans-65" d="M 3597 1894 
L 3597 1613 
L 953 1613 
Q 991 1019 1311 708 
Q 1631 397 2203 397 
Q 2534 397 2845 478 
Q 3156 559 3463 722 
L 3463 178 
Q 3153 47 2828 -22 
Q 2503 -91 2169 -91 
Q 1331 -91 842 396 
Q 353 884 353 1716 
Q 353 2575 817 3079 
Q 1281 3584 2069 3584 
Q 2775 3584 3186 3129 
Q 3597 2675 3597 1894 
z
M 3022 2063 
Q 3016 2534 2758 2815 
Q 2500 3097 2075 3097 
Q 1594 3097 1305 2825 
Q 1016 2553 972 2059 
L 3022 2063 
z
" transform="scale(0.015625)"/>
       <path id="DejaVuSans-78" d="M 3513 3500 
L 2247 1797 
L 3578 0 
L 2900 0 
L 1881 1375 
L 863 0 
L 184 0 
L 1544 1831 
L 300 3500 
L 978 3500 
L 1906 2253 
L 2834 3500 
L 3513 3500 
z
" transform="scale(0.015625)"/>
       <path id="DejaVuSans-70" d="M 1159 525 
L 1159 -1331 
L 581 -1331 
L 581 3500 
L 1159 3500 
L 1159 2969 
Q 1341 3281 1617 3432 
Q 1894 3584 2278 3584 
Q 2916 3584 3314 3078 
Q 3713 2572 3713 1747 
Q 3713 922 3314 415 
Q 2916 -91 2278 -91 
Q 1894 -91 1617 61 
Q 1341 213 1159 525 
z
M 3116 1747 
Q 3116 2381 2855 2742 
Q 2594 3103 2138 3103 
Q 1681 3103 1420 2742 
Q 1159 2381 1159 1747 
Q 1159 1113 1420 752 
Q 1681 391 2138 391 
Q 2594 391 2855 752 
Q 3116 1113 3116 1747 
z
" transform="scale(0.015625)"/>
       <path id="DejaVuSans-28" d="M 1984 4856 
Q 1566 4138 1362 3434 
Q 1159 2731 1159 2009 
Q 1159 1288 1364 580 
Q 1569 -128 1984 -844 
L 1484 -844 
Q 1016 -109 783 600 
Q 550 1309 550 2009 
Q 550 2706 781 3412 
Q 1013 4119 1484 4856 
L 1984 4856 
z
" transform="scale(0.015625)"/>
       <path id="DejaVuSans-2212" d="M 678 2272 
L 4684 2272 
L 4684 1741 
L 678 1741 
L 678 2272 
z
" transform="scale(0.015625)"/>
       <path id="DejaVuSans-Oblique-3b3" d="M 1491 2950 
L 1838 788 
L 3456 3500 
L 4066 3500 
L 1972 0 
L 1713 -1331 
L 1138 -1331 
L 1397 0 
L 988 2613 
Q 925 3006 628 3006 
L 475 3006 
L 569 3500 
L 788 3500 
Q 1403 3500 1491 2950 
z
" transform="scale(0.015625)"/>
       <path id="DejaVuSans-Oblique-4e" d="M 1081 4666 
L 1931 4666 
L 3219 666 
L 4000 4666 
L 4616 4666 
L 3706 0 
L 2853 0 
L 1569 4025 
L 788 0 
L 172 0 
L 1081 4666 
z
" transform="scale(0.015625)"/>
       <path id="DejaVuSans-29" d="M 513 4856 
L 1013 4856 
Q 1481 4119 1714 3412 
Q 1947 2706 1947 2009 
Q 1947 1309 1714 600 
Q 1481 -109 1013 -844 
L 513 -844 
Q 928 -128 1133 580 
Q 1338 1288 1338 2009 
Q 1338 2731 1133 3434 
Q 928 4138 513 4856 
z
" transform="scale(0.015625)"/>
      </defs>
      <use xlink:href="#DejaVuSans-Oblique-63" transform="translate(0 0.125)"/>
      <use xlink:href="#DejaVuSans-31" transform="translate(54.980469 -16.28125) scale(0.7)"/>
      <use xlink:href="#DejaVuSans-65" transform="translate(102.250977 0.125)"/>
      <use xlink:href="#DejaVuSans-78" transform="translate(163.774414 0.125)"/>
      <use xlink:href="#DejaVuSans-70" transform="translate(222.954102 0.125)"/>
      <use xlink:href="#DejaVuSans-28" transform="translate(286.430664 0.125)"/>
      <use xlink:href="#DejaVuSans-2212" transform="translate(325.444336 0.125)"/>
      <use xlink:href="#DejaVuSans-Oblique-3b3" transform="translate(409.233398 0.125)"/>
      <use xlink:href="#DejaVuSans-31" transform="translate(468.413086 -16.28125) scale(0.7)"/>
      <use xlink:href="#DejaVuSans-Oblique-4e" transform="translate(515.683594 0.125)"/>
      <use xlink:href="#DejaVuSans-29" transform="translate(590.488281 0.125)"/>
     </g>
    </g>
    <g id="line2d_45">
     <path d="M 320.765354 51.434646 
L 330.765354 51.434646 
L 340.765354 51.434646 
" style="fill: none; stroke-dasharray: 4.625,2; stroke-dashoffset: 0; stroke: #8c8c8c; stroke-width: 1.25; stroke-linejoin: miter"/>
    </g>
    <g id="text_12">
     <!-- $c_2\exp(-\gamma_2 n_H)$ -->
     <g transform="translate(348.765354 54.934646) scale(0.1 -0.1)">
      <defs>
       <path id="DejaVuSans-32" d="M 1228 531 
L 3431 531 
L 3431 0 
L 469 0 
L 469 531 
Q 828 903 1448 1529 
Q 2069 2156 2228 2338 
Q 2531 2678 2651 2914 
Q 2772 3150 2772 3378 
Q 2772 3750 2511 3984 
Q 2250 4219 1831 4219 
Q 1534 4219 1204 4116 
Q 875 4013 500 3803 
L 500 4441 
Q 881 4594 1212 4672 
Q 1544 4750 1819 4750 
Q 2544 4750 2975 4387 
Q 3406 4025 3406 3419 
Q 3406 3131 3298 2873 
Q 3191 2616 2906 2266 
Q 2828 2175 2409 1742 
Q 1991 1309 1228 531 
z
" transform="scale(0.015625)"/>
       <path id="DejaVuSans-Oblique-6e" d="M 3566 2113 
L 3156 0 
L 2578 0 
L 2988 2091 
Q 3016 2238 3031 2350 
Q 3047 2463 3047 2528 
Q 3047 2791 2881 2937 
Q 2716 3084 2419 3084 
Q 1956 3084 1622 2776 
Q 1288 2469 1184 1941 
L 800 0 
L 225 0 
L 903 3500 
L 1478 3500 
L 1363 2950 
Q 1603 3253 1940 3418 
Q 2278 3584 2650 3584 
Q 3113 3584 3367 3334 
Q 3622 3084 3622 2631 
Q 3622 2519 3608 2391 
Q 3594 2263 3566 2113 
z
" transform="scale(0.015625)"/>
       <path id="DejaVuSans-Oblique-48" d="M 1081 4666 
L 1716 4666 
L 1344 2753 
L 3634 2753 
L 4006 4666 
L 4641 4666 
L 3731 0 
L 3097 0 
L 3531 2222 
L 1241 2222 
L 806 0 
L 172 0 
L 1081 4666 
z
" transform="scale(0.015625)"/>
      </defs>
      <use xlink:href="#DejaVuSans-Oblique-63" transform="translate(0 0.125)"/>
      <use xlink:href="#DejaVuSans-32" transform="translate(54.980469 -16.28125) scale(0.7)"/>
      <use xlink:href="#DejaVuSans-65" transform="translate(102.250977 0.125)"/>
      <use xlink:href="#DejaVuSans-78" transform="translate(163.774414 0.125)"/>
      <use xlink:href="#DejaVuSans-70" transform="translate(222.954102 0.125)"/>
      <use xlink:href="#DejaVuSans-28" transform="translate(286.430664 0.125)"/>
      <use xlink:href="#DejaVuSans-2212" transform="translate(325.444336 0.125)"/>
      <use xlink:href="#DejaVuSans-Oblique-3b3" transform="translate(409.233398 0.125)"/>
      <use xlink:href="#DejaVuSans-32" transform="translate(468.413086 -16.28125) scale(0.7)"/>
      <use xlink:href="#DejaVuSans-Oblique-6e" transform="translate(515.683594 0.125)"/>
      <use xlink:href="#DejaVuSans-Oblique-48" transform="translate(579.0625 -16.28125) scale(0.7)"/>
      <use xlink:href="#DejaVuSans-29" transform="translate(634.433594 0.125)"/>
     </g>
    </g>
    <g id="line2d_46">
     <path d="M 320.765354 66.133083 
L 330.765354 66.133083 
L 340.765354 66.133083 
" style="fill: none; stroke: #4c72b0; stroke-width: 1.25; stroke-linejoin: miter"/>
    </g>
    <g id="text_13">
     <!-- N=6 -->
     <g transform="translate(348.765354 69.633083) scale(0.1 -0.1)">
      <defs>
       <path id="DejaVuSerif-4e" d="M 313 0 
L 313 331 
L 941 331 
L 941 4331 
L 313 4331 
L 313 4666 
L 1509 4666 
L 4306 984 
L 4306 4331 
L 3681 4331 
L 3681 4666 
L 5319 4666 
L 5319 4331 
L 4691 4331 
L 4691 -91 
L 4313 -91 
L 1325 3841 
L 1325 331 
L 1953 331 
L 1953 0 
L 313 0 
z
" transform="scale(0.015625)"/>
      </defs>
      <use xlink:href="#DejaVuSerif-4e"/>
      <use xlink:href="#DejaVuSerif-3d" x="87.5"/>
      <use xlink:href="#DejaVuSerif-36" x="171.289062"/>
     </g>
    </g>
    <g id="line2d_47">
     <path d="M 320.765354 80.811208 
L 330.765354 80.811208 
L 340.765354 80.811208 
" style="fill: none; stroke: #dd8452; stroke-width: 1.25; stroke-linejoin: miter"/>
    </g>
    <g id="text_14">
     <!-- N=8 -->
     <g transform="translate(348.765354 84.311208) scale(0.1 -0.1)">
      <use xlink:href="#DejaVuSerif-4e"/>
      <use xlink:href="#DejaVuSerif-3d" x="87.5"/>
      <use xlink:href="#DejaVuSerif-38" x="171.289062"/>
     </g>
    </g>
    <g id="line2d_48">
     <path d="M 320.765354 95.489333 
L 330.765354 95.489333 
L 340.765354 95.489333 
" style="fill: none; stroke: #55a868; stroke-width: 1.25; stroke-linejoin: miter"/>
    </g>
    <g id="text_15">
     <!-- N=10 -->
     <g transform="translate(348.765354 98.989333) scale(0.1 -0.1)">
      <use xlink:href="#DejaVuSerif-4e"/>
      <use xlink:href="#DejaVuSerif-3d" x="87.5"/>
      <use xlink:href="#DejaVuSerif-31" x="171.289062"/>
      <use xlink:href="#DejaVuSerif-30" x="234.912109"/>
     </g>
    </g>
    <g id="line2d_49">
     <path d="M 320.765354 110.167458 
L 330.765354 110.167458 
L 340.765354 110.167458 
" style="fill: none; stroke: #c44e52; stroke-width: 1.25; stroke-linejoin: miter"/>
    </g>
    <g id="text_16">
     <!-- N=12 -->
     <g transform="translate(348.765354 113.667458) scale(0.1 -0.1)">
      <use xlink:href="#DejaVuSerif-4e"/>
      <use xlink:href="#DejaVuSerif-3d" x="87.5"/>
      <use xlink:href="#DejaVuSerif-31" x="171.289062"/>
      <use xlink:href="#DejaVuSerif-32" x="234.912109"/>
     </g>
    </g>
   </g>
  </g>
 </g>
 <defs>
  <clipPath id="p0f81dbc40d">
   <rect x="48.2667" y="19.634646" width="380.898655" height="234.990709"/>
  </clipPath>
 </defs>
</svg>
