<?xml version="1.0" encoding="utf-8" standalone="no"?>
<!DOCTYPE svg PUBLIC "-//W3C//DTD SVG 1.1//EN"
  "http://www.w3.org/Graphics/SVG/1.1/DTD/svg11.dtd">
<svg xmlns:xlink="http://www.w3.org/1999/xlink" width="432pt" height="288pt" viewBox="0 0 432 288" xmlns="http://www.w3.org/2000/svg" version="1.1">
 <metadata>
  <rdf:RDF xmlns:dc="http://purl.org/dc/elements/1.1/" xmlns:cc="http://creativecommons.org/ns#" xmlns:rdf="http://www.w3.org/1999/02/22-rdf-syntax-ns#">
   <cc:Work>
    <dc:type rdf:resource="http://purl.org/dc/dcmitype/StillImage"/>
    <dc:date>2024-07-17T09:54:38.467799</dc:date>
    <dc:format>image/svg+xml</dc:format>
    <dc:creator>
     <cc:Agent>
      <dc:title>Matplotlib v3.9.1, https://matplotlib.org/</dc:title>
     </cc:Agent>
    </dc:creator>
   </cc:Work>
  </rdf:RDF>
 </metadata>
 <defs>
  <style type="text/css">*{stroke-linejoin: round; stroke-linecap: butt}</style>
 </defs>
 <g id="figure_1">
  <g id="patch_1">
   <path d="M 0 288 
L 432 288 
L 432 0 
L 0 0 
z
" style="fill: #ffffff"/>
  </g>
  <g id="axes_1">
   <g id="patch_2">
    <path d="M 48.0507 254.625354 
L 429.165354 254.625354 
L 429.165354 19.634646 
L 48.0507 19.634646 
z
" style="fill: #ffffff"/>
   </g>
   <g id="line2d_1">
    <path d="M -1 132.390806 
L 433 132.390806 
" clip-path="url(#p159ecaeab3)" style="fill: none; stroke-dasharray: 3.7,1.6; stroke-dashoffset: 0; stroke: #8c8c8c"/>
   </g>
   <g id="line2d_2">
    <path d="M -1 162.541014 
L 433 162.541014 
" clip-path="url(#p159ecaeab3)" style="fill: none; stroke-dasharray: 3.7,1.6; stroke-dashoffset: 0; stroke: #8c8c8c"/>
   </g>
   <g id="line2d_3">
    <path d="M -1 192.691222 
L 433 192.691222 
" clip-path="url(#p159ecaeab3)" style="fill: none; stroke-dasharray: 3.7,1.6; stroke-dashoffset: 0; stroke: #8c8c8c"/>
   </g>
   <g id="line2d_4">
    <path d="M -1 222.84143 
L 433 222.84143 
" clip-path="url(#p159ecaeab3)" style="fill: none; stroke-dasharray: 3.7,1.6; stroke-dashoffset: 0; stroke: #8c8c8c"/>
   </g>
   <g id="matplotlib.axis_1">
    <g id="xtick_1">
     <g id="line2d_5">
      <defs>
       <path id="m11fecec340" d="M 0 0 
L 0 -2.5 
" style="stroke: #000000; stroke-width: 0.5"/>
      </defs>
      <g>
       <use xlink:href="#m11fecec340" x="107.865435" y="254.625354" style="stroke: #000000; stroke-width: 0.5"/>
      </g>
     </g>
     <g id="line2d_6">
      <defs>
       <path id="m1ab1d35393" d="M 0 0 
L 0 2.5 
" style="stroke: #000000; stroke-width: 0.5"/>
      </defs>
      <g>
       <use xlink:href="#m1ab1d35393" x="107.865435" y="19.634646" style="stroke: #000000; stroke-width: 0.5"/>
      </g>
     </g>
     <g id="text_1">
      <!-- $2.5$ -->
      <g transform="translate(99.865435 265.723792) scale(0.1 -0.1)">
       <defs>
        <path id="DejaVuSerif-32" d="M 819 3553 
L 469 3553 
L 469 4384 
Q 803 4563 1142 4656 
Q 1481 4750 1806 4750 
Q 2534 4750 2956 4397 
Q 3378 4044 3378 3438 
Q 3378 2753 2422 1800 
Q 2347 1728 2309 1691 
L 1131 513 
L 3078 513 
L 3078 1088 
L 3444 1088 
L 3444 0 
L 434 0 
L 434 341 
L 1850 1753 
Q 2319 2222 2519 2614 
Q 2719 3006 2719 3438 
Q 2719 3909 2473 4175 
Q 2228 4441 1797 4441 
Q 1350 4441 1106 4219 
Q 863 3997 819 3553 
z
" transform="scale(0.015625)"/>
        <path id="DejaVuSerif-2e" d="M 603 325 
Q 603 500 722 622 
Q 841 744 1019 744 
Q 1191 744 1312 622 
Q 1434 500 1434 325 
Q 1434 153 1312 31 
Q 1191 -91 1019 -91 
Q 841 -91 722 29 
Q 603 150 603 325 
z
" transform="scale(0.015625)"/>
        <path id="DejaVuSerif-35" d="M 3219 4666 
L 3219 4153 
L 1081 4153 
L 1081 2816 
Q 1244 2928 1461 2984 
Q 1678 3041 1947 3041 
Q 2703 3041 3140 2622 
Q 3578 2203 3578 1478 
Q 3578 738 3136 323 
Q 2694 -91 1894 -91 
Q 1572 -91 1234 -12 
Q 897 66 544 225 
L 544 1131 
L 897 1131 
Q 925 688 1179 453 
Q 1434 219 1894 219 
Q 2388 219 2653 544 
Q 2919 869 2919 1478 
Q 2919 2084 2655 2407 
Q 2391 2731 1894 2731 
Q 1613 2731 1398 2631 
Q 1184 2531 1019 2322 
L 750 2322 
L 750 4666 
L 3219 4666 
z
" transform="scale(0.015625)"/>
       </defs>
       <use xlink:href="#DejaVuSerif-32" transform="translate(0 0.78125)"/>
       <use xlink:href="#DejaVuSerif-2e" transform="translate(63.623047 0.78125)"/>
       <use xlink:href="#DejaVuSerif-35" transform="translate(95.410156 0.78125)"/>
      </g>
     </g>
    </g>
    <g id="xtick_2">
     <g id="line2d_7">
      <g>
       <use xlink:href="#m11fecec340" x="189.579555" y="254.625354" style="stroke: #000000; stroke-width: 0.5"/>
      </g>
     </g>
     <g id="line2d_8">
      <g>
       <use xlink:href="#m1ab1d35393" x="189.579555" y="19.634646" style="stroke: #000000; stroke-width: 0.5"/>
      </g>
     </g>
     <g id="text_2">
      <!-- $5.0$ -->
      <g transform="translate(181.579555 265.723792) scale(0.1 -0.1)">
       <defs>
        <path id="DejaVuSerif-30" d="M 2034 219 
Q 2513 219 2750 744 
Q 2988 1269 2988 2328 
Q 2988 3391 2750 3916 
Q 2513 4441 2034 4441 
Q 1556 4441 1318 3916 
Q 1081 3391 1081 2328 
Q 1081 1269 1318 744 
Q 1556 219 2034 219 
z
M 2034 -91 
Q 1275 -91 848 546 
Q 422 1184 422 2328 
Q 422 3475 848 4112 
Q 1275 4750 2034 4750 
Q 2797 4750 3222 4112 
Q 3647 3475 3647 2328 
Q 3647 1184 3222 546 
Q 2797 -91 2034 -91 
z
" transform="scale(0.015625)"/>
       </defs>
       <use xlink:href="#DejaVuSerif-35" transform="translate(0 0.78125)"/>
       <use xlink:href="#DejaVuSerif-2e" transform="translate(63.623047 0.78125)"/>
       <use xlink:href="#DejaVuSerif-30" transform="translate(95.410156 0.78125)"/>
      </g>
     </g>
    </g>
    <g id="xtick_3">
     <g id="line2d_9">
      <g>
       <use xlink:href="#m11fecec340" x="271.293675" y="254.625354" style="stroke: #000000; stroke-width: 0.5"/>
      </g>
     </g>
     <g id="line2d_10">
      <g>
       <use xlink:href="#m1ab1d35393" x="271.293675" y="19.634646" style="stroke: #000000; stroke-width: 0.5"/>
      </g>
     </g>
     <g id="text_3">
      <!-- $7.5$ -->
      <g transform="translate(263.293675 265.723792) scale(0.1 -0.1)">
       <defs>
        <path id="DejaVuSerif-37" d="M 3609 4347 
L 1784 0 
L 1319 0 
L 3059 4153 
L 903 4153 
L 903 3578 
L 538 3578 
L 538 4666 
L 3609 4666 
L 3609 4347 
z
" transform="scale(0.015625)"/>
       </defs>
       <use xlink:href="#DejaVuSerif-37" transform="translate(0 0.09375)"/>
       <use xlink:href="#DejaVuSerif-2e" transform="translate(63.623047 0.09375)"/>
       <use xlink:href="#DejaVuSerif-35" transform="translate(95.410156 0.09375)"/>
      </g>
     </g>
    </g>
    <g id="xtick_4">
     <g id="line2d_11">
      <g>
       <use xlink:href="#m11fecec340" x="353.007795" y="254.625354" style="stroke: #000000; stroke-width: 0.5"/>
      </g>
     </g>
     <g id="line2d_12">
      <g>
       <use xlink:href="#m1ab1d35393" x="353.007795" y="19.634646" style="stroke: #000000; stroke-width: 0.5"/>
      </g>
     </g>
     <g id="text_4">
      <!-- $10.0$ -->
      <g transform="translate(341.857795 265.723792) scale(0.1 -0.1)">
       <defs>
        <path id="DejaVuSerif-31" d="M 909 0 
L 909 331 
L 1722 331 
L 1722 4213 
L 781 3603 
L 781 4013 
L 1919 4750 
L 2350 4750 
L 2350 331 
L 3163 331 
L 3163 0 
L 909 0 
z
" transform="scale(0.015625)"/>
       </defs>
       <use xlink:href="#DejaVuSerif-31" transform="translate(0 0.78125)"/>
       <use xlink:href="#DejaVuSerif-30" transform="translate(63.623047 0.78125)"/>
       <use xlink:href="#DejaVuSerif-2e" transform="translate(127.246094 0.78125)"/>
       <use xlink:href="#DejaVuSerif-30" transform="translate(159.033203 0.78125)"/>
      </g>
     </g>
    </g>
    <g id="text_5">
     <!-- $n_H$ -->
     <g transform="translate(230.868027 280.921604) scale(0.12 -0.12)">
      <defs>
       <path id="DejaVuSerif-Italic-6e" d="M 450 0 
L 1031 2988 
L 481 2988 
L 544 3322 
L 1669 3322 
L 1556 2731 
Q 1781 3069 2068 3241 
Q 2356 3413 2694 3413 
Q 3244 3413 3444 3097 
Q 3563 2906 3563 2588 
Q 3563 2378 3509 2113 
L 3163 331 
L 3675 331 
L 3613 0 
L 2522 0 
L 2897 1931 
Q 2959 2253 2959 2469 
Q 2959 2659 2909 2769 
Q 2803 2994 2425 2994 
Q 2025 2994 1759 2701 
Q 1494 2409 1384 1850 
L 1025 0 
L 450 0 
z
" transform="scale(0.015625)"/>
       <path id="DejaVuSerif-Italic-48" d="M -97 0 
L -34 331 
L 559 331 
L 1338 4331 
L 744 4331 
L 809 4666 
L 2631 4666 
L 2566 4331 
L 1972 4331 
L 1659 2719 
L 4078 2719 
L 4391 4331 
L 3797 4331 
L 3863 4666 
L 5684 4666 
L 5619 4331 
L 5025 4331 
L 4247 331 
L 4841 331 
L 4778 0 
L 2956 0 
L 3019 331 
L 3616 331 
L 4003 2338 
L 1584 2338 
L 1194 331 
L 1788 331 
L 1725 0 
L -97 0 
z
" transform="scale(0.015625)"/>
      </defs>
      <use xlink:href="#DejaVuSerif-Italic-6e" transform="translate(0 0.671875)"/>
      <use xlink:href="#DejaVuSerif-Italic-48" transform="translate(64.404297 -14.9) scale(0.7)"/>
     </g>
    </g>
   </g>
   <g id="matplotlib.axis_2">
    <g id="ytick_1">
     <g id="line2d_13">
      <defs>
       <path id="m90bc99839d" d="M 0 0 
L 2.5 0 
" style="stroke: #000000; stroke-width: 0.5"/>
      </defs>
      <g>
       <use xlink:href="#m90bc99839d" x="48.0507" y="56.453396" style="stroke: #000000; stroke-width: 0.5"/>
      </g>
     </g>
     <g id="line2d_14">
      <defs>
       <path id="me257d97a94" d="M 0 0 
L -2.5 0 
" style="stroke: #000000; stroke-width: 0.5"/>
      </defs>
      <g>
       <use xlink:href="#me257d97a94" x="429.165354" y="56.453396" style="stroke: #000000; stroke-width: 0.5"/>
      </g>
     </g>
     <g id="text_6">
      <!-- $10^{-1}$ -->
      <g transform="translate(21.1507 60.252614) scale(0.1 -0.1)">
       <defs>
        <path id="DejaVuSerif-2212" d="M 678 2259 
L 4684 2259 
L 4684 1753 
L 678 1753 
L 678 2259 
z
" transform="scale(0.015625)"/>
       </defs>
       <use xlink:href="#DejaVuSerif-31" transform="translate(0 0.7125)"/>
       <use xlink:href="#DejaVuSerif-30" transform="translate(63.623047 0.7125)"/>
       <use xlink:href="#DejaVuSerif-2212" transform="translate(128.154453 37.046875) scale(0.7)"/>
       <use xlink:href="#DejaVuSerif-31" transform="translate(186.806797 37.046875) scale(0.7)"/>
      </g>
     </g>
    </g>
    <g id="ytick_2">
     <g id="line2d_15">
      <g>
       <use xlink:href="#m90bc99839d" x="48.0507" y="104.20475" style="stroke: #000000; stroke-width: 0.5"/>
      </g>
     </g>
     <g id="line2d_16">
      <g>
       <use xlink:href="#me257d97a94" x="429.165354" y="104.20475" style="stroke: #000000; stroke-width: 0.5"/>
      </g>
     </g>
     <g id="text_7">
      <!-- $10^{-2}$ -->
      <g transform="translate(21.1507 108.003969) scale(0.1 -0.1)">
       <use xlink:href="#DejaVuSerif-31" transform="translate(0 0.7125)"/>
       <use xlink:href="#DejaVuSerif-30" transform="translate(63.623047 0.7125)"/>
       <use xlink:href="#DejaVuSerif-2212" transform="translate(128.154453 37.046875) scale(0.7)"/>
       <use xlink:href="#DejaVuSerif-32" transform="translate(186.806797 37.046875) scale(0.7)"/>
      </g>
     </g>
    </g>
    <g id="ytick_3">
     <g id="line2d_17">
      <g>
       <use xlink:href="#m90bc99839d" x="48.0507" y="151.956105" style="stroke: #000000; stroke-width: 0.5"/>
      </g>
     </g>
     <g id="line2d_18">
      <g>
       <use xlink:href="#me257d97a94" x="429.165354" y="151.956105" style="stroke: #000000; stroke-width: 0.5"/>
      </g>
     </g>
     <g id="text_8">
      <!-- $10^{-3}$ -->
      <g transform="translate(21.1507 155.755323) scale(0.1 -0.1)">
       <defs>
        <path id="DejaVuSerif-33" d="M 622 4469 
Q 988 4606 1323 4678 
Q 1659 4750 1953 4750 
Q 2638 4750 3022 4454 
Q 3406 4159 3406 3634 
Q 3406 3213 3140 2930 
Q 2875 2647 2388 2547 
Q 2963 2466 3280 2130 
Q 3597 1794 3597 1259 
Q 3597 606 3158 257 
Q 2719 -91 1894 -91 
Q 1528 -91 1179 -12 
Q 831 66 488 225 
L 488 1131 
L 838 1131 
Q 869 681 1141 450 
Q 1413 219 1906 219 
Q 2384 219 2661 495 
Q 2938 772 2938 1253 
Q 2938 1803 2653 2086 
Q 2369 2369 1819 2369 
L 1522 2369 
L 1522 2688 
L 1678 2688 
Q 2225 2688 2498 2914 
Q 2772 3141 2772 3597 
Q 2772 4006 2547 4223 
Q 2322 4441 1900 4441 
Q 1478 4441 1245 4241 
Q 1013 4041 972 3647 
L 622 3647 
L 622 4469 
z
" transform="scale(0.015625)"/>
       </defs>
       <use xlink:href="#DejaVuSerif-31" transform="translate(0 0.7125)"/>
       <use xlink:href="#DejaVuSerif-30" transform="translate(63.623047 0.7125)"/>
       <use xlink:href="#DejaVuSerif-2212" transform="translate(128.154453 37.046875) scale(0.7)"/>
       <use xlink:href="#DejaVuSerif-33" transform="translate(186.806797 37.046875) scale(0.7)"/>
      </g>
     </g>
    </g>
    <g id="ytick_4">
     <g id="line2d_19">
      <g>
       <use xlink:href="#m90bc99839d" x="48.0507" y="199.707459" style="stroke: #000000; stroke-width: 0.5"/>
      </g>
     </g>
     <g id="line2d_20">
      <g>
       <use xlink:href="#me257d97a94" x="429.165354" y="199.707459" style="stroke: #000000; stroke-width: 0.5"/>
      </g>
     </g>
     <g id="text_9">
      <!-- $10^{-4}$ -->
      <g transform="translate(21.1507 203.506678) scale(0.1 -0.1)">
       <defs>
        <path id="DejaVuSerif-34" d="M 2234 1581 
L 2234 4063 
L 641 1581 
L 2234 1581 
z
M 3609 0 
L 1484 0 
L 1484 331 
L 2234 331 
L 2234 1247 
L 197 1247 
L 197 1588 
L 2241 4750 
L 2859 4750 
L 2859 1581 
L 3750 1581 
L 3750 1247 
L 2859 1247 
L 2859 331 
L 3609 331 
L 3609 0 
z
" transform="scale(0.015625)"/>
       </defs>
       <use xlink:href="#DejaVuSerif-31" transform="translate(0 0.7125)"/>
       <use xlink:href="#DejaVuSerif-30" transform="translate(63.623047 0.7125)"/>
       <use xlink:href="#DejaVuSerif-2212" transform="translate(128.154453 37.046875) scale(0.7)"/>
       <use xlink:href="#DejaVuSerif-34" transform="translate(186.806797 37.046875) scale(0.7)"/>
      </g>
     </g>
    </g>
    <g id="ytick_5">
     <g id="line2d_21">
      <g>
       <use xlink:href="#m90bc99839d" x="48.0507" y="247.458814" style="stroke: #000000; stroke-width: 0.5"/>
      </g>
     </g>
     <g id="line2d_22">
      <g>
       <use xlink:href="#me257d97a94" x="429.165354" y="247.458814" style="stroke: #000000; stroke-width: 0.5"/>
      </g>
     </g>
     <g id="text_10">
      <!-- $10^{-5}$ -->
      <g transform="translate(21.1507 251.258032) scale(0.1 -0.1)">
       <use xlink:href="#DejaVuSerif-31" transform="translate(0 0.63125)"/>
       <use xlink:href="#DejaVuSerif-30" transform="translate(63.623047 0.63125)"/>
       <use xlink:href="#DejaVuSerif-2212" transform="translate(128.154453 36.965625) scale(0.7)"/>
       <use xlink:href="#DejaVuSerif-35" transform="translate(186.806797 36.965625) scale(0.7)"/>
      </g>
     </g>
    </g>
    <g id="text_11">
     <!-- $D_{\text{KL}}$ -->
     <g transform="translate(14.655075 148.05) rotate(-90) scale(0.12 -0.12)">
      <defs>
       <path id="DejaVuSerif-Italic-44" d="M 1194 331 
L 1775 331 
Q 2684 331 3271 850 
Q 3859 1369 4048 2337 
Q 4238 3306 3852 3818 
Q 3466 4331 2553 4331 
L 1972 4331 
L 1194 331 
z
M -97 0 
L -34 331 
L 559 331 
L 1338 4331 
L 744 4331 
L 809 4666 
L 2666 4666 
Q 3872 4666 4426 4050 
Q 4981 3434 4766 2338 
Q 4553 1238 3758 619 
Q 2963 0 1759 0 
L -97 0 
z
" transform="scale(0.015625)"/>
       <path id="DejaVuSerif-4b" d="M 353 0 
L 353 331 
L 947 331 
L 947 4331 
L 353 4331 
L 353 4666 
L 2175 4666 
L 2175 4331 
L 1581 4331 
L 1581 2566 
L 3591 4331 
L 3084 4331 
L 3084 4666 
L 4634 4666 
L 4634 4331 
L 4109 4331 
L 2106 2572 
L 4347 331 
L 4878 331 
L 4878 0 
L 3794 0 
L 1581 2216 
L 1581 331 
L 2175 331 
L 2175 0 
L 353 0 
z
" transform="scale(0.015625)"/>
       <path id="DejaVuSerif-4c" d="M 353 0 
L 353 331 
L 947 331 
L 947 4331 
L 353 4331 
L 353 4666 
L 2175 4666 
L 2175 4331 
L 1581 4331 
L 1581 384 
L 3713 384 
L 3713 1166 
L 4097 1166 
L 4097 0 
L 353 0 
z
" transform="scale(0.015625)"/>
      </defs>
      <use xlink:href="#DejaVuSerif-Italic-44" transform="translate(0 0.09375)"/>
      <use xlink:href="#DejaVuSerif-4b" transform="translate(80.175781 -15.478125) scale(0.7)"/>
      <use xlink:href="#DejaVuSerif-4c" transform="translate(132.470703 -15.478125) scale(0.7)"/>
     </g>
    </g>
   </g>
   <g id="line2d_23">
    <path d="M 58.836963 43.878465 
L 61.808386 45.260609 
L 64.779808 46.642753 
L 67.751231 48.024898 
L 70.722654 49.407042 
L 73.694076 50.789186 
L 76.665499 52.17133 
L 79.636921 53.553475 
L 82.608344 54.935619 
L 85.579766 56.317763 
L 88.551189 57.699908 
L 91.522611 59.082052 
L 94.494034 60.464196 
L 97.465456 61.846341 
L 100.436879 63.228485 
L 103.408301 64.610629 
L 106.379724 65.992773 
L 109.351147 67.374918 
L 112.322569 68.757062 
L 115.293992 70.139206 
L 118.265414 71.521351 
L 121.236837 72.903495 
L 124.208259 74.285639 
L 127.179682 75.667784 
L 130.151104 77.049928 
L 133.122527 78.432072 
L 136.093949 79.814216 
L 139.065372 81.196361 
L 142.036794 82.578505 
L 145.008217 83.960649 
L 147.97964 85.342794 
L 150.951062 86.724938 
L 153.922485 88.107082 
L 156.893907 89.489227 
L 159.86533 90.871371 
L 162.836752 92.253515 
L 165.808175 93.635659 
L 168.779597 95.017804 
L 171.75102 96.399948 
L 174.722442 97.782092 
L 177.693865 99.164237 
L 180.665287 100.546381 
L 183.63671 101.928525 
L 186.608133 103.310669 
L 189.579555 104.692814 
L 192.550978 106.074958 
L 195.5224 107.457102 
L 198.493823 108.839247 
L 201.465245 110.221391 
L 204.436668 111.603535 
L 207.40809 112.98568 
L 210.379513 114.367824 
L 213.350935 115.749968 
L 216.322358 117.132112 
L 219.29378 118.514257 
L 222.265203 119.896401 
L 225.236626 121.278545 
L 228.208048 122.66069 
L 231.179471 124.042834 
L 234.150893 125.424978 
L 237.122316 126.807123 
L 240.093738 128.189267 
L 243.065161 129.571411 
L 246.036583 130.953555 
L 249.008006 132.3357 
L 251.979428 133.717844 
L 254.950851 135.099988 
L 257.922273 136.482133 
L 260.893696 137.864277 
L 263.865119 139.246421 
L 266.836541 140.628566 
L 269.807964 142.01071 
L 272.779386 143.392854 
L 275.750809 144.774998 
L 278.722231 146.157143 
L 281.693654 147.539287 
L 284.665076 148.921431 
L 287.636499 150.303576 
L 290.607921 151.68572 
L 293.579344 153.067864 
L 296.550766 154.450009 
L 299.522189 155.832153 
L 302.493612 157.214297 
L 305.465034 158.596441 
L 308.436457 159.978586 
L 311.407879 161.36073 
L 314.379302 162.742874 
L 317.350724 164.125019 
L 320.322147 165.507163 
L 323.293569 166.889307 
L 326.264992 168.271451 
L 329.236414 169.653596 
L 332.207837 171.03574 
L 335.179259 172.417884 
L 338.150682 173.800029 
L 341.122105 175.182173 
L 344.093527 176.564317 
L 347.06495 177.946462 
L 350.036372 179.328606 
L 353.007795 180.71075 
" clip-path="url(#p159ecaeab3)" style="fill: none; stroke-dasharray: 3.7,1.6; stroke-dashoffset: 0; stroke: #8c8c8c"/>
   </g>
   <g id="patch_3">
    <path d="M 48.0507 254.625354 
L 48.0507 19.634646 
" style="fill: none; stroke: #000000; stroke-linejoin: miter; stroke-linecap: square"/>
   </g>
   <g id="patch_4">
    <path d="M 429.165354 254.625354 
L 429.165354 19.634646 
" style="fill: none; stroke: #000000; stroke-linejoin: miter; stroke-linecap: square"/>
   </g>
   <g id="patch_5">
    <path d="M 48.0507 254.625354 
L 429.165354 254.625354 
" style="fill: none; stroke: #000000; stroke-linejoin: miter; stroke-linecap: square"/>
   </g>
   <g id="patch_6">
    <path d="M 48.0507 19.634646 
L 429.165354 19.634646 
" style="fill: none; stroke: #000000; stroke-linejoin: miter; stroke-linecap: square"/>
   </g>
   <g id="line2d_24">
    <path d="M 58.836963 26.285326 
L 91.522611 53.865302 
L 124.208259 80.784062 
L 156.893907 100.093926 
L 189.579555 120.319322 
L 222.265203 135.932872 
" clip-path="url(#p159ecaeab3)" style="fill: none; stroke: #4c72b0"/>
   </g>
   <g id="line2d_25">
    <path d="M 189.579555 120.741562 
L 189.579555 119.905507 
" clip-path="url(#p159ecaeab3)" style="fill: none; stroke: #000000"/>
   </g>
   <g id="line2d_26">
    <path d="M 222.265203 136.728668 
L 222.265203 135.166488 
" clip-path="url(#p159ecaeab3)" style="fill: none; stroke: #000000"/>
   </g>
   <g id="text_12">
    <!-- $D_{KL}$ scaling of $Z(\tau)$ with one $R_x$ gate -->
    <g transform="translate(130.008027 13.634646) scale(0.12 -0.12)">
     <defs>
      <path id="DejaVuSerif-Italic-4b" d="M -97 0 
L -34 331 
L 559 331 
L 1338 4331 
L 744 4331 
L 809 4666 
L 2631 4666 
L 2566 4331 
L 1972 4331 
L 1628 2566 
L 3981 4331 
L 3475 4331 
L 3541 4666 
L 5091 4666 
L 5025 4331 
L 4500 4331 
L 2156 2572 
L 3959 331 
L 4491 331 
L 4428 0 
L 3344 0 
L 1563 2216 
L 1194 331 
L 1788 331 
L 1725 0 
L -97 0 
z
" transform="scale(0.015625)"/>
      <path id="DejaVuSerif-Italic-4c" d="M -97 0 
L -34 331 
L 559 331 
L 1338 4331 
L 744 4331 
L 809 4666 
L 2631 4666 
L 2566 4331 
L 1972 4331 
L 1206 384 
L 3338 384 
L 3488 1166 
L 3872 1166 
L 3647 0 
L -97 0 
z
" transform="scale(0.015625)"/>
      <path id="DejaVuSerif-20" transform="scale(0.015625)"/>
      <path id="DejaVuSerif-73" d="M 359 184 
L 359 959 
L 691 959 
Q 703 588 923 403 
Q 1144 219 1575 219 
Q 1963 219 2166 364 
Q 2369 509 2369 788 
Q 2369 1006 2220 1140 
Q 2072 1275 1594 1428 
L 1178 1569 
Q 750 1706 558 1912 
Q 366 2119 366 2438 
Q 366 2894 700 3153 
Q 1034 3413 1625 3413 
Q 1888 3413 2178 3344 
Q 2469 3275 2778 3144 
L 2778 2419 
L 2447 2419 
Q 2434 2741 2221 2922 
Q 2009 3103 1644 3103 
Q 1281 3103 1095 2975 
Q 909 2847 909 2591 
Q 909 2381 1050 2254 
Q 1191 2128 1613 1997 
L 2069 1856 
Q 2541 1709 2748 1489 
Q 2956 1269 2956 922 
Q 2956 450 2595 179 
Q 2234 -91 1600 -91 
Q 1278 -91 972 -22 
Q 666 47 359 184 
z
" transform="scale(0.015625)"/>
      <path id="DejaVuSerif-63" d="M 3291 997 
Q 3169 466 2822 187 
Q 2475 -91 1925 -91 
Q 1200 -91 759 389 
Q 319 869 319 1663 
Q 319 2459 759 2936 
Q 1200 3413 1925 3413 
Q 2241 3413 2553 3339 
Q 2866 3266 3181 3116 
L 3181 2266 
L 2847 2266 
Q 2781 2703 2561 2903 
Q 2341 3103 1931 3103 
Q 1466 3103 1228 2742 
Q 991 2381 991 1663 
Q 991 944 1227 581 
Q 1463 219 1931 219 
Q 2303 219 2525 412 
Q 2747 606 2828 997 
L 3291 997 
z
" transform="scale(0.015625)"/>
      <path id="DejaVuSerif-61" d="M 2547 1044 
L 2547 1747 
L 1806 1747 
Q 1378 1747 1168 1562 
Q 959 1378 959 997 
Q 959 650 1171 447 
Q 1384 244 1747 244 
Q 2106 244 2326 466 
Q 2547 688 2547 1044 
z
M 3122 2075 
L 3122 331 
L 3634 331 
L 3634 0 
L 2547 0 
L 2547 359 
Q 2356 128 2106 18 
Q 1856 -91 1522 -91 
Q 969 -91 644 203 
Q 319 497 319 997 
Q 319 1513 691 1797 
Q 1063 2081 1741 2081 
L 2547 2081 
L 2547 2309 
Q 2547 2688 2317 2895 
Q 2088 3103 1672 3103 
Q 1328 3103 1125 2947 
Q 922 2791 872 2484 
L 575 2484 
L 575 3156 
Q 875 3284 1158 3348 
Q 1441 3413 1709 3413 
Q 2400 3413 2761 3070 
Q 3122 2728 3122 2075 
z
" transform="scale(0.015625)"/>
      <path id="DejaVuSerif-6c" d="M 1313 331 
L 1856 331 
L 1856 0 
L 184 0 
L 184 331 
L 738 331 
L 738 4531 
L 184 4531 
L 184 4863 
L 1313 4863 
L 1313 331 
z
" transform="scale(0.015625)"/>
      <path id="DejaVuSerif-69" d="M 622 4353 
Q 622 4497 726 4603 
Q 831 4709 978 4709 
Q 1122 4709 1226 4603 
Q 1331 4497 1331 4353 
Q 1331 4206 1228 4103 
Q 1125 4000 978 4000 
Q 831 4000 726 4103 
Q 622 4206 622 4353 
z
M 1356 331 
L 1900 331 
L 1900 0 
L 231 0 
L 231 331 
L 781 331 
L 781 2988 
L 231 2988 
L 231 3322 
L 1356 3322 
L 1356 331 
z
" transform="scale(0.015625)"/>
      <path id="DejaVuSerif-6e" d="M 263 0 
L 263 331 
L 781 331 
L 781 2988 
L 231 2988 
L 231 3322 
L 1356 3322 
L 1356 2731 
Q 1516 3069 1770 3241 
Q 2025 3413 2363 3413 
Q 2913 3413 3172 3097 
Q 3431 2781 3431 2113 
L 3431 331 
L 3944 331 
L 3944 0 
L 2356 0 
L 2356 331 
L 2853 331 
L 2853 1931 
Q 2853 2541 2703 2767 
Q 2553 2994 2175 2994 
Q 1775 2994 1565 2701 
Q 1356 2409 1356 1850 
L 1356 331 
L 1856 331 
L 1856 0 
L 263 0 
z
" transform="scale(0.015625)"/>
      <path id="DejaVuSerif-67" d="M 3359 2988 
L 3359 72 
Q 3359 -644 2965 -1033 
Q 2572 -1422 1844 -1422 
Q 1516 -1422 1216 -1362 
Q 916 -1303 641 -1184 
L 641 -488 
L 941 -488 
Q 997 -813 1206 -963 
Q 1416 -1113 1806 -1113 
Q 2313 -1113 2548 -827 
Q 2784 -541 2784 72 
L 2784 519 
Q 2616 206 2355 57 
Q 2094 -91 1709 -91 
Q 1097 -91 708 395 
Q 319 881 319 1663 
Q 319 2444 706 2928 
Q 1094 3413 1709 3413 
Q 2094 3413 2355 3264 
Q 2616 3116 2784 2803 
L 2784 3322 
L 3909 3322 
L 3909 2988 
L 3359 2988 
z
M 2784 1825 
Q 2784 2422 2554 2737 
Q 2325 3053 1888 3053 
Q 1444 3053 1217 2703 
Q 991 2353 991 1663 
Q 991 975 1217 622 
Q 1444 269 1888 269 
Q 2325 269 2554 583 
Q 2784 897 2784 1497 
L 2784 1825 
z
" transform="scale(0.015625)"/>
      <path id="DejaVuSerif-6f" d="M 1925 219 
Q 2388 219 2623 584 
Q 2859 950 2859 1663 
Q 2859 2375 2623 2739 
Q 2388 3103 1925 3103 
Q 1463 3103 1227 2739 
Q 991 2375 991 1663 
Q 991 950 1228 584 
Q 1466 219 1925 219 
z
M 1925 -91 
Q 1200 -91 759 389 
Q 319 869 319 1663 
Q 319 2456 758 2934 
Q 1197 3413 1925 3413 
Q 2653 3413 3092 2934 
Q 3531 2456 3531 1663 
Q 3531 869 3092 389 
Q 2653 -91 1925 -91 
z
" transform="scale(0.015625)"/>
      <path id="DejaVuSerif-66" d="M 2753 4078 
L 2450 4078 
Q 2447 4313 2317 4434 
Q 2188 4556 1941 4556 
Q 1619 4556 1487 4379 
Q 1356 4203 1356 3750 
L 1356 3322 
L 2284 3322 
L 2284 2988 
L 1356 2988 
L 1356 331 
L 2094 331 
L 2094 0 
L 231 0 
L 231 331 
L 781 331 
L 781 2988 
L 231 2988 
L 231 3322 
L 781 3322 
L 781 3738 
Q 781 4294 1070 4578 
Q 1359 4863 1919 4863 
Q 2128 4863 2337 4825 
Q 2547 4788 2753 4709 
L 2753 4078 
z
" transform="scale(0.015625)"/>
      <path id="DejaVuSerif-Italic-5a" d="M -166 0 
L -122 225 
L 3572 4281 
L 1159 4281 
L 1025 3584 
L 641 3584 
L 850 4666 
L 4538 4666 
L 4494 4441 
L 800 384 
L 3438 384 
L 3563 1038 
L 3944 1038 
L 3744 0 
L -166 0 
z
" transform="scale(0.015625)"/>
      <path id="DejaVuSerif-28" d="M 2041 -997 
Q 1281 -656 893 83 
Q 506 822 506 1931 
Q 506 3044 893 3783 
Q 1281 4522 2041 4863 
L 2041 4556 
Q 1559 4225 1350 3623 
Q 1141 3022 1141 1931 
Q 1141 844 1350 242 
Q 1559 -359 2041 -691 
L 2041 -997 
z
" transform="scale(0.015625)"/>
      <path id="DejaVuSerif-Italic-3c4" d="M 2328 2988 
L 1922 906 
Q 1838 469 2047 363 
Q 2203 284 2641 519 
L 2569 141 
Q 1859 -225 1491 156 
Q 1247 406 1347 906 
L 1753 2988 
L 850 2988 
L 753 2488 
L 425 2488 
L 588 3322 
L 3625 3322 
L 3559 2988 
L 2328 2988 
z
" transform="scale(0.015625)"/>
      <path id="DejaVuSerif-29" d="M 453 -997 
L 453 -691 
Q 934 -359 1145 242 
Q 1356 844 1356 1931 
Q 1356 3022 1145 3623 
Q 934 4225 453 4556 
L 453 4863 
Q 1216 4522 1603 3783 
Q 1991 3044 1991 1931 
Q 1991 822 1603 83 
Q 1216 -656 453 -997 
z
" transform="scale(0.015625)"/>
      <path id="DejaVuSerif-77" d="M 3072 3322 
L 3922 728 
L 4672 2988 
L 4191 2988 
L 4191 3322 
L 5394 3322 
L 5394 2988 
L 5025 2988 
L 4038 0 
L 3559 0 
L 2741 2484 
L 1919 0 
L 1459 0 
L 475 2988 
L 103 2988 
L 103 3322 
L 1606 3322 
L 1606 2988 
L 1069 2988 
L 1813 728 
L 2669 3322 
L 3072 3322 
z
" transform="scale(0.015625)"/>
      <path id="DejaVuSerif-74" d="M 691 2988 
L 184 2988 
L 184 3322 
L 691 3322 
L 691 4353 
L 1269 4353 
L 1269 3322 
L 2350 3322 
L 2350 2988 
L 1269 2988 
L 1269 878 
Q 1269 456 1350 337 
Q 1431 219 1650 219 
Q 1875 219 1978 351 
Q 2081 484 2088 781 
L 2522 781 
Q 2497 328 2275 118 
Q 2053 -91 1600 -91 
Q 1103 -91 897 129 
Q 691 350 691 878 
L 691 2988 
z
" transform="scale(0.015625)"/>
      <path id="DejaVuSerif-68" d="M 263 0 
L 263 331 
L 781 331 
L 781 4531 
L 231 4531 
L 231 4863 
L 1356 4863 
L 1356 2731 
Q 1516 3069 1770 3241 
Q 2025 3413 2363 3413 
Q 2913 3413 3172 3097 
Q 3431 2781 3431 2113 
L 3431 331 
L 3944 331 
L 3944 0 
L 2356 0 
L 2356 331 
L 2853 331 
L 2853 1931 
Q 2853 2541 2704 2764 
Q 2556 2988 2175 2988 
Q 1775 2988 1565 2697 
Q 1356 2406 1356 1850 
L 1356 331 
L 1856 331 
L 1856 0 
L 263 0 
z
" transform="scale(0.015625)"/>
      <path id="DejaVuSerif-65" d="M 3469 1600 
L 991 1600 
L 991 1575 
Q 991 903 1244 561 
Q 1497 219 1991 219 
Q 2369 219 2611 417 
Q 2853 616 2950 1006 
L 3413 1006 
Q 3275 459 2904 184 
Q 2534 -91 1931 -91 
Q 1203 -91 761 389 
Q 319 869 319 1663 
Q 319 2450 753 2931 
Q 1188 3413 1894 3413 
Q 2647 3413 3050 2948 
Q 3453 2484 3469 1600 
z
M 2791 1931 
Q 2772 2513 2545 2808 
Q 2319 3103 1894 3103 
Q 1497 3103 1269 2806 
Q 1041 2509 991 1931 
L 2791 1931 
z
" transform="scale(0.015625)"/>
      <path id="DejaVuSerif-Italic-52" d="M 3066 2316 
Q 3272 2256 3403 2114 
Q 3534 1972 3609 1716 
L 4016 331 
L 4584 331 
L 4522 0 
L 3422 0 
L 2981 1484 
Q 2856 1916 2706 2042 
Q 2556 2169 2250 2169 
L 1553 2169 
L 1194 331 
L 1853 331 
L 1791 0 
L -97 0 
L -34 331 
L 559 331 
L 1338 4331 
L 744 4331 
L 809 4666 
L 3175 4666 
Q 3856 4666 4164 4341 
Q 4472 4016 4356 3419 
Q 4263 2938 3938 2661 
Q 3613 2384 3066 2316 
z
M 1619 2503 
L 2541 2503 
Q 3013 2503 3280 2726 
Q 3547 2950 3639 3419 
Q 3731 3888 3548 4109 
Q 3366 4331 2894 4331 
L 1972 4331 
L 1619 2503 
z
" transform="scale(0.015625)"/>
      <path id="DejaVuSerif-Italic-78" d="M 409 0 
L 19 0 
L 1484 1594 
L 747 2988 
L 338 2988 
L 400 3322 
L 1244 3322 
L 1934 2028 
L 3125 3322 
L 3516 3322 
L 2078 1759 
L 2838 331 
L 3272 331 
L 3209 0 
L 2338 0 
L 1631 1325 
L 409 0 
z
" transform="scale(0.015625)"/>
     </defs>
     <use xlink:href="#DejaVuSerif-Italic-44" transform="translate(0 0.015625)"/>
     <use xlink:href="#DejaVuSerif-Italic-4b" transform="translate(80.175781 -15.55625) scale(0.7)"/>
     <use xlink:href="#DejaVuSerif-Italic-4c" transform="translate(132.470703 -15.55625) scale(0.7)"/>
     <use xlink:href="#DejaVuSerif-20" transform="translate(181.550391 0.015625)"/>
     <use xlink:href="#DejaVuSerif-73" transform="translate(213.3375 0.015625)"/>
     <use xlink:href="#DejaVuSerif-63" transform="translate(264.655859 0.015625)"/>
     <use xlink:href="#DejaVuSerif-61" transform="translate(320.661719 0.015625)"/>
     <use xlink:href="#DejaVuSerif-6c" transform="translate(380.280859 0.015625)"/>
     <use xlink:href="#DejaVuSerif-69" transform="translate(412.263281 0.015625)"/>
     <use xlink:href="#DejaVuSerif-6e" transform="translate(444.245703 0.015625)"/>
     <use xlink:href="#DejaVuSerif-67" transform="translate(508.65 0.015625)"/>
     <use xlink:href="#DejaVuSerif-20" transform="translate(572.663672 0.015625)"/>
     <use xlink:href="#DejaVuSerif-6f" transform="translate(604.450781 0.015625)"/>
     <use xlink:href="#DejaVuSerif-66" transform="translate(664.655859 0.015625)"/>
     <use xlink:href="#DejaVuSerif-20" transform="translate(701.667578 0.015625)"/>
     <use xlink:href="#DejaVuSerif-Italic-5a" transform="translate(733.454687 0.015625)"/>
     <use xlink:href="#DejaVuSerif-28" transform="translate(802.937109 0.015625)"/>
     <use xlink:href="#DejaVuSerif-Italic-3c4" transform="translate(841.950781 0.015625)"/>
     <use xlink:href="#DejaVuSerif-29" transform="translate(897.273047 0.015625)"/>
     <use xlink:href="#DejaVuSerif-20" transform="translate(936.286719 0.015625)"/>
     <use xlink:href="#DejaVuSerif-77" transform="translate(968.073828 0.015625)"/>
     <use xlink:href="#DejaVuSerif-69" transform="translate(1053.669531 0.015625)"/>
     <use xlink:href="#DejaVuSerif-74" transform="translate(1085.651953 0.015625)"/>
     <use xlink:href="#DejaVuSerif-68" transform="translate(1125.8375 0.015625)"/>
     <use xlink:href="#DejaVuSerif-20" transform="translate(1190.241797 0.015625)"/>
     <use xlink:href="#DejaVuSerif-6f" transform="translate(1222.028906 0.015625)"/>
     <use xlink:href="#DejaVuSerif-6e" transform="translate(1282.233984 0.015625)"/>
     <use xlink:href="#DejaVuSerif-65" transform="translate(1346.638281 0.015625)"/>
     <use xlink:href="#DejaVuSerif-20" transform="translate(1405.817969 0.015625)"/>
     <use xlink:href="#DejaVuSerif-Italic-52" transform="translate(1437.605078 0.015625)"/>
     <use xlink:href="#DejaVuSerif-Italic-78" transform="translate(1512.898047 -15.55625) scale(0.7)"/>
     <use xlink:href="#DejaVuSerif-20" transform="translate(1554.970898 0.015625)"/>
     <use xlink:href="#DejaVuSerif-67" transform="translate(1586.758008 0.015625)"/>
     <use xlink:href="#DejaVuSerif-61" transform="translate(1650.77168 0.015625)"/>
     <use xlink:href="#DejaVuSerif-74" transform="translate(1710.39082 0.015625)"/>
     <use xlink:href="#DejaVuSerif-65" transform="translate(1750.576367 0.015625)"/>
    </g>
   </g>
   <g id="PathCollection_1">
    <defs>
     <path id="m5e8db60b88" d="M 2 0 
L -2 -0 
" style="stroke: #000000"/>
    </defs>
    <g clip-path="url(#p159ecaeab3)">
     <use xlink:href="#m5e8db60b88" x="189.579555" y="120.741562" style="stroke: #000000"/>
     <use xlink:href="#m5e8db60b88" x="189.579555" y="119.905507" style="stroke: #000000"/>
    </g>
   </g>
   <g id="PathCollection_2">
    <g clip-path="url(#p159ecaeab3)">
     <use xlink:href="#m5e8db60b88" x="222.265203" y="136.728668" style="stroke: #000000"/>
     <use xlink:href="#m5e8db60b88" x="222.265203" y="135.166488" style="stroke: #000000"/>
    </g>
   </g>
   <g id="line2d_27">
    <path d="M 58.836963 28.650694 
L 91.522611 57.743308 
L 124.208259 77.962377 
L 156.893907 92.431867 
L 189.579555 108.472794 
L 222.265203 128.531761 
L 254.950851 150.947833 
L 287.636499 159.872628 
" clip-path="url(#p159ecaeab3)" style="fill: none; stroke: #dd8452"/>
   </g>
   <g id="line2d_28">
    <path d="M 124.208259 78.101253 
L 124.208259 77.824425 
" clip-path="url(#p159ecaeab3)" style="fill: none; stroke: #000000"/>
   </g>
   <g id="line2d_29">
    <path d="M 156.893907 92.567281 
L 156.893907 92.297332 
" clip-path="url(#p159ecaeab3)" style="fill: none; stroke: #000000"/>
   </g>
   <g id="line2d_30">
    <path d="M 189.579555 108.653017 
L 189.579555 108.294124 
" clip-path="url(#p159ecaeab3)" style="fill: none; stroke: #000000"/>
   </g>
   <g id="line2d_31">
    <path d="M 222.265203 128.906827 
L 222.265203 128.163359 
" clip-path="url(#p159ecaeab3)" style="fill: none; stroke: #000000"/>
   </g>
   <g id="line2d_32">
    <path d="M 254.950851 151.853977 
L 254.950851 150.079631 
" clip-path="url(#p159ecaeab3)" style="fill: none; stroke: #000000"/>
   </g>
   <g id="line2d_33">
    <path d="M 287.636499 161.211087 
L 287.636499 158.615342 
" clip-path="url(#p159ecaeab3)" style="fill: none; stroke: #000000"/>
   </g>
   <g id="PathCollection_3">
    <g clip-path="url(#p159ecaeab3)">
     <use xlink:href="#m5e8db60b88" x="124.208259" y="78.101253" style="stroke: #000000"/>
     <use xlink:href="#m5e8db60b88" x="124.208259" y="77.824425" style="stroke: #000000"/>
    </g>
   </g>
   <g id="PathCollection_4">
    <g clip-path="url(#p159ecaeab3)">
     <use xlink:href="#m5e8db60b88" x="156.893907" y="92.567281" style="stroke: #000000"/>
     <use xlink:href="#m5e8db60b88" x="156.893907" y="92.297332" style="stroke: #000000"/>
    </g>
   </g>
   <g id="PathCollection_5">
    <g clip-path="url(#p159ecaeab3)">
     <use xlink:href="#m5e8db60b88" x="189.579555" y="108.653017" style="stroke: #000000"/>
     <use xlink:href="#m5e8db60b88" x="189.579555" y="108.294124" style="stroke: #000000"/>
    </g>
   </g>
   <g id="PathCollection_6">
    <g clip-path="url(#p159ecaeab3)">
     <use xlink:href="#m5e8db60b88" x="222.265203" y="128.906827" style="stroke: #000000"/>
     <use xlink:href="#m5e8db60b88" x="222.265203" y="128.163359" style="stroke: #000000"/>
    </g>
   </g>
   <g id="PathCollection_7">
    <g clip-path="url(#p159ecaeab3)">
     <use xlink:href="#m5e8db60b88" x="254.950851" y="151.853977" style="stroke: #000000"/>
     <use xlink:href="#m5e8db60b88" x="254.950851" y="150.079631" style="stroke: #000000"/>
    </g>
   </g>
   <g id="PathCollection_8">
    <g clip-path="url(#p159ecaeab3)">
     <use xlink:href="#m5e8db60b88" x="287.636499" y="161.211087" style="stroke: #000000"/>
     <use xlink:href="#m5e8db60b88" x="287.636499" y="158.615342" style="stroke: #000000"/>
    </g>
   </g>
   <g id="line2d_34">
    <path d="M 58.836963 32.056545 
L 91.522611 60.812746 
L 124.208259 79.484453 
L 156.893907 91.884872 
L 189.579555 104.496363 
L 222.265203 120.187962 
L 254.950851 142.130593 
L 287.636499 164.430176 
L 320.322147 185.395428 
L 353.007795 187.401794 
" clip-path="url(#p159ecaeab3)" style="fill: none; stroke: #55a868"/>
   </g>
   <g id="line2d_35">
    <path d="M 58.836963 32.376163 
L 58.836963 31.741777 
" clip-path="url(#p159ecaeab3)" style="fill: none; stroke: #000000"/>
   </g>
   <g id="line2d_36">
    <path d="M 91.522611 61.029515 
L 91.522611 60.59822 
" clip-path="url(#p159ecaeab3)" style="fill: none; stroke: #000000"/>
   </g>
   <g id="line2d_37">
    <path d="M 124.208259 79.707067 
L 124.208259 79.264203 
" clip-path="url(#p159ecaeab3)" style="fill: none; stroke: #000000"/>
   </g>
   <g id="line2d_38">
    <path d="M 156.893907 92.096016 
L 156.893907 91.675856 
" clip-path="url(#p159ecaeab3)" style="fill: none; stroke: #000000"/>
   </g>
   <g id="line2d_39">
    <path d="M 189.579555 104.769129 
L 189.579555 104.227139 
" clip-path="url(#p159ecaeab3)" style="fill: none; stroke: #000000"/>
   </g>
   <g id="line2d_40">
    <path d="M 222.265203 120.482382 
L 222.265203 119.897663 
" clip-path="url(#p159ecaeab3)" style="fill: none; stroke: #000000"/>
   </g>
   <g id="line2d_41">
    <path d="M 254.950851 142.43197 
L 254.950851 141.833534 
" clip-path="url(#p159ecaeab3)" style="fill: none; stroke: #000000"/>
   </g>
   <g id="line2d_42">
    <path d="M 287.636499 165.097411 
L 287.636499 163.783741 
" clip-path="url(#p159ecaeab3)" style="fill: none; stroke: #000000"/>
   </g>
   <g id="line2d_43">
    <path d="M 320.322147 187.240226 
L 320.322147 183.701415 
" clip-path="url(#p159ecaeab3)" style="fill: none; stroke: #000000"/>
   </g>
   <g id="line2d_44">
    <path d="M 353.007795 189.43027 
L 353.007795 185.554173 
" clip-path="url(#p159ecaeab3)" style="fill: none; stroke: #000000"/>
   </g>
   <g id="PathCollection_9">
    <g clip-path="url(#p159ecaeab3)">
     <use xlink:href="#m5e8db60b88" x="58.836963" y="32.376163" style="stroke: #000000"/>
     <use xlink:href="#m5e8db60b88" x="58.836963" y="31.741777" style="stroke: #000000"/>
    </g>
   </g>
   <g id="PathCollection_10">
    <g clip-path="url(#p159ecaeab3)">
     <use xlink:href="#m5e8db60b88" x="91.522611" y="61.029515" style="stroke: #000000"/>
     <use xlink:href="#m5e8db60b88" x="91.522611" y="60.59822" style="stroke: #000000"/>
    </g>
   </g>
   <g id="PathCollection_11">
    <g clip-path="url(#p159ecaeab3)">
     <use xlink:href="#m5e8db60b88" x="124.208259" y="79.707067" style="stroke: #000000"/>
     <use xlink:href="#m5e8db60b88" x="124.208259" y="79.264203" style="stroke: #000000"/>
    </g>
   </g>
   <g id="PathCollection_12">
    <g clip-path="url(#p159ecaeab3)">
     <use xlink:href="#m5e8db60b88" x="156.893907" y="92.096016" style="stroke: #000000"/>
     <use xlink:href="#m5e8db60b88" x="156.893907" y="91.675856" style="stroke: #000000"/>
    </g>
   </g>
   <g id="PathCollection_13">
    <g clip-path="url(#p159ecaeab3)">
     <use xlink:href="#m5e8db60b88" x="189.579555" y="104.769129" style="stroke: #000000"/>
     <use xlink:href="#m5e8db60b88" x="189.579555" y="104.227139" style="stroke: #000000"/>
    </g>
   </g>
   <g id="PathCollection_14">
    <g clip-path="url(#p159ecaeab3)">
     <use xlink:href="#m5e8db60b88" x="222.265203" y="120.482382" style="stroke: #000000"/>
     <use xlink:href="#m5e8db60b88" x="222.265203" y="119.897663" style="stroke: #000000"/>
    </g>
   </g>
   <g id="PathCollection_15">
    <g clip-path="url(#p159ecaeab3)">
     <use xlink:href="#m5e8db60b88" x="254.950851" y="142.43197" style="stroke: #000000"/>
     <use xlink:href="#m5e8db60b88" x="254.950851" y="141.833534" style="stroke: #000000"/>
    </g>
   </g>
   <g id="PathCollection_16">
    <g clip-path="url(#p159ecaeab3)">
     <use xlink:href="#m5e8db60b88" x="287.636499" y="165.097411" style="stroke: #000000"/>
     <use xlink:href="#m5e8db60b88" x="287.636499" y="163.783741" style="stroke: #000000"/>
    </g>
   </g>
   <g id="PathCollection_17">
    <g clip-path="url(#p159ecaeab3)">
     <use xlink:href="#m5e8db60b88" x="320.322147" y="187.240226" style="stroke: #000000"/>
     <use xlink:href="#m5e8db60b88" x="320.322147" y="183.701415" style="stroke: #000000"/>
    </g>
   </g>
   <g id="PathCollection_18">
    <g clip-path="url(#p159ecaeab3)">
     <use xlink:href="#m5e8db60b88" x="353.007795" y="189.43027" style="stroke: #000000"/>
     <use xlink:href="#m5e8db60b88" x="353.007795" y="185.554173" style="stroke: #000000"/>
    </g>
   </g>
   <g id="line2d_45">
    <path d="M 58.836963 34.416759 
L 91.522611 64.546027 
L 124.208259 82.502827 
L 156.893907 94.323906 
L 189.579555 105.479813 
L 222.265203 118.322403 
L 254.950851 135.886988 
L 287.636499 160.652816 
L 320.322147 187.083286 
L 353.007795 212.554199 
L 385.693443 231.170524 
L 418.379091 227.257176 
" clip-path="url(#p159ecaeab3)" style="fill: none; stroke: #c44e52"/>
   </g>
   <g id="line2d_46">
    <path d="M 58.836963 35.465506 
L 58.836963 33.418504 
" clip-path="url(#p159ecaeab3)" style="fill: none; stroke: #000000"/>
   </g>
   <g id="line2d_47">
    <path d="M 91.522611 65.059772 
L 91.522611 64.044702 
" clip-path="url(#p159ecaeab3)" style="fill: none; stroke: #000000"/>
   </g>
   <g id="line2d_48">
    <path d="M 124.208259 82.964005 
L 124.208259 82.051682 
" clip-path="url(#p159ecaeab3)" style="fill: none; stroke: #000000"/>
   </g>
   <g id="line2d_49">
    <path d="M 156.893907 94.687917 
L 156.893907 93.966173 
" clip-path="url(#p159ecaeab3)" style="fill: none; stroke: #000000"/>
   </g>
   <g id="line2d_50">
    <path d="M 189.579555 105.861119 
L 189.579555 105.105391 
" clip-path="url(#p159ecaeab3)" style="fill: none; stroke: #000000"/>
   </g>
   <g id="line2d_51">
    <path d="M 222.265203 118.809761 
L 222.265203 117.846235 
" clip-path="url(#p159ecaeab3)" style="fill: none; stroke: #000000"/>
   </g>
   <g id="line2d_52">
    <path d="M 254.950851 136.352642 
L 254.950851 135.431559 
" clip-path="url(#p159ecaeab3)" style="fill: none; stroke: #000000"/>
   </g>
   <g id="line2d_53">
    <path d="M 287.636499 161.670047 
L 287.636499 159.683157 
" clip-path="url(#p159ecaeab3)" style="fill: none; stroke: #000000"/>
   </g>
   <g id="line2d_54">
    <path d="M 320.322147 189.175783 
L 320.322147 185.182708 
" clip-path="url(#p159ecaeab3)" style="fill: none; stroke: #000000"/>
   </g>
   <g id="line2d_55">
    <path d="M 353.007795 218.190066 
L 353.007795 208.127244 
" clip-path="url(#p159ecaeab3)" style="fill: none; stroke: #000000"/>
   </g>
   <g id="line2d_56">
    <path d="M 385.693443 247.974674 
L 385.693443 222.011459 
" clip-path="url(#p159ecaeab3)" style="fill: none; stroke: #000000"/>
   </g>
   <g id="line2d_57">
    <path d="M 418.379091 241.273601 
L 418.379091 218.969356 
" clip-path="url(#p159ecaeab3)" style="fill: none; stroke: #000000"/>
   </g>
   <g id="PathCollection_19">
    <g clip-path="url(#p159ecaeab3)">
     <use xlink:href="#m5e8db60b88" x="58.836963" y="35.465506" style="stroke: #000000"/>
     <use xlink:href="#m5e8db60b88" x="58.836963" y="33.418504" style="stroke: #000000"/>
    </g>
   </g>
   <g id="PathCollection_20">
    <g clip-path="url(#p159ecaeab3)">
     <use xlink:href="#m5e8db60b88" x="91.522611" y="65.059772" style="stroke: #000000"/>
     <use xlink:href="#m5e8db60b88" x="91.522611" y="64.044702" style="stroke: #000000"/>
    </g>
   </g>
   <g id="PathCollection_21">
    <g clip-path="url(#p159ecaeab3)">
     <use xlink:href="#m5e8db60b88" x="124.208259" y="82.964005" style="stroke: #000000"/>
     <use xlink:href="#m5e8db60b88" x="124.208259" y="82.051682" style="stroke: #000000"/>
    </g>
   </g>
   <g id="PathCollection_22">
    <g clip-path="url(#p159ecaeab3)">
     <use xlink:href="#m5e8db60b88" x="156.893907" y="94.687917" style="stroke: #000000"/>
     <use xlink:href="#m5e8db60b88" x="156.893907" y="93.966173" style="stroke: #000000"/>
    </g>
   </g>
   <g id="PathCollection_23">
    <g clip-path="url(#p159ecaeab3)">
     <use xlink:href="#m5e8db60b88" x="189.579555" y="105.861119" style="stroke: #000000"/>
     <use xlink:href="#m5e8db60b88" x="189.579555" y="105.105391" style="stroke: #000000"/>
    </g>
   </g>
   <g id="PathCollection_24">
    <g clip-path="url(#p159ecaeab3)">
     <use xlink:href="#m5e8db60b88" x="222.265203" y="118.809761" style="stroke: #000000"/>
     <use xlink:href="#m5e8db60b88" x="222.265203" y="117.846235" style="stroke: #000000"/>
    </g>
   </g>
   <g id="PathCollection_25">
    <g clip-path="url(#p159ecaeab3)">
     <use xlink:href="#m5e8db60b88" x="254.950851" y="136.352642" style="stroke: #000000"/>
     <use xlink:href="#m5e8db60b88" x="254.950851" y="135.431559" style="stroke: #000000"/>
    </g>
   </g>
   <g id="PathCollection_26">
    <g clip-path="url(#p159ecaeab3)">
     <use xlink:href="#m5e8db60b88" x="287.636499" y="161.670047" style="stroke: #000000"/>
     <use xlink:href="#m5e8db60b88" x="287.636499" y="159.683157" style="stroke: #000000"/>
    </g>
   </g>
   <g id="PathCollection_27">
    <g clip-path="url(#p159ecaeab3)">
     <use xlink:href="#m5e8db60b88" x="320.322147" y="189.175783" style="stroke: #000000"/>
     <use xlink:href="#m5e8db60b88" x="320.322147" y="185.182708" style="stroke: #000000"/>
    </g>
   </g>
   <g id="PathCollection_28">
    <g clip-path="url(#p159ecaeab3)">
     <use xlink:href="#m5e8db60b88" x="353.007795" y="218.190066" style="stroke: #000000"/>
     <use xlink:href="#m5e8db60b88" x="353.007795" y="208.127244" style="stroke: #000000"/>
    </g>
   </g>
   <g id="PathCollection_29">
    <g clip-path="url(#p159ecaeab3)">
     <use xlink:href="#m5e8db60b88" x="385.693443" y="247.974674" style="stroke: #000000"/>
     <use xlink:href="#m5e8db60b88" x="385.693443" y="222.011459" style="stroke: #000000"/>
    </g>
   </g>
   <g id="PathCollection_30">
    <g clip-path="url(#p159ecaeab3)">
     <use xlink:href="#m5e8db60b88" x="418.379091" y="241.273601" style="stroke: #000000"/>
     <use xlink:href="#m5e8db60b88" x="418.379091" y="218.969356" style="stroke: #000000"/>
    </g>
   </g>
   <g id="legend_1">
    <g id="patch_7">
     <path d="M 312.765354 123.747146 
L 424.165354 123.747146 
L 424.165354 24.634646 
L 312.765354 24.634646 
z
" style="fill: #ffffff; stroke: #000000; stroke-linejoin: miter"/>
    </g>
    <g id="line2d_58">
     <path d="M 320.765354 36.734646 
L 330.765354 36.734646 
L 340.765354 36.734646 
" style="fill: none; stroke-dasharray: 4.625,2; stroke-dashoffset: 0; stroke: #8c8c8c; stroke-width: 1.25; stroke-linejoin: miter"/>
    </g>
    <g id="text_13">
     <!-- $c_1\exp(-\gamma_1 N)$ -->
     <g transform="translate(348.765354 40.234646) scale(0.1 -0.1)">
      <defs>
       <path id="DejaVuSans-Oblique-63" d="M 3431 3366 
L 3316 2797 
Q 3109 2947 2876 3022 
Q 2644 3097 2394 3097 
Q 2119 3097 1870 3000 
Q 1622 2903 1453 2725 
Q 1184 2453 1037 2087 
Q 891 1722 891 1331 
Q 891 859 1127 628 
Q 1363 397 1844 397 
Q 2081 397 2348 469 
Q 2616 541 2906 684 
L 2797 116 
Q 2547 13 2283 -39 
Q 2019 -91 1741 -91 
Q 1044 -91 669 257 
Q 294 606 294 1253 
Q 294 1797 489 2255 
Q 684 2713 1069 3078 
Q 1331 3328 1684 3456 
Q 2038 3584 2456 3584 
Q 2700 3584 2940 3529 
Q 3181 3475 3431 3366 
z
" transform="scale(0.015625)"/>
       <path id="DejaVuSans-31" d="M 794 531 
L 1825 531 
L 1825 4091 
L 703 3866 
L 703 4441 
L 1819 4666 
L 2450 4666 
L 2450 531 
L 3481 531 
L 3481 0 
L 794 0 
L 794 531 
z
" transform="scale(0.015625)"/>
       <path id="DejaVuSans-65" d="M 3597 1894 
L 3597 1613 
L 953 1613 
Q 991 1019 1311 708 
Q 1631 397 2203 397 
Q 2534 397 2845 478 
Q 3156 559 3463 722 
L 3463 178 
Q 3153 47 2828 -22 
Q 2503 -91 2169 -91 
Q 1331 -91 842 396 
Q 353 884 353 1716 
Q 353 2575 817 3079 
Q 1281 3584 2069 3584 
Q 2775 3584 3186 3129 
Q 3597 2675 3597 1894 
z
M 3022 2063 
Q 3016 2534 2758 2815 
Q 2500 3097 2075 3097 
Q 1594 3097 1305 2825 
Q 1016 2553 972 2059 
L 3022 2063 
z
" transform="scale(0.015625)"/>
       <path id="DejaVuSans-78" d="M 3513 3500 
L 2247 1797 
L 3578 0 
L 2900 0 
L 1881 1375 
L 863 0 
L 184 0 
L 1544 1831 
L 300 3500 
L 978 3500 
L 1906 2253 
L 2834 3500 
L 3513 3500 
z
" transform="scale(0.015625)"/>
       <path id="DejaVuSans-70" d="M 1159 525 
L 1159 -1331 
L 581 -1331 
L 581 3500 
L 1159 3500 
L 1159 2969 
Q 1341 3281 1617 3432 
Q 1894 3584 2278 3584 
Q 2916 3584 3314 3078 
Q 3713 2572 3713 1747 
Q 3713 922 3314 415 
Q 2916 -91 2278 -91 
Q 1894 -91 1617 61 
Q 1341 213 1159 525 
z
M 3116 1747 
Q 3116 2381 2855 2742 
Q 2594 3103 2138 3103 
Q 1681 3103 1420 2742 
Q 1159 2381 1159 1747 
Q 1159 1113 1420 752 
Q 1681 391 2138 391 
Q 2594 391 2855 752 
Q 3116 1113 3116 1747 
z
" transform="scale(0.015625)"/>
       <path id="DejaVuSans-28" d="M 1984 4856 
Q 1566 4138 1362 3434 
Q 1159 2731 1159 2009 
Q 1159 1288 1364 580 
Q 1569 -128 1984 -844 
L 1484 -844 
Q 1016 -109 783 600 
Q 550 1309 550 2009 
Q 550 2706 781 3412 
Q 1013 4119 1484 4856 
L 1984 4856 
z
" transform="scale(0.015625)"/>
       <path id="DejaVuSans-2212" d="M 678 2272 
L 4684 2272 
L 4684 1741 
L 678 1741 
L 678 2272 
z
" transform="scale(0.015625)"/>
       <path id="DejaVuSans-Oblique-3b3" d="M 1491 2950 
L 1838 788 
L 3456 3500 
L 4066 3500 
L 1972 0 
L 1713 -1331 
L 1138 -1331 
L 1397 0 
L 988 2613 
Q 925 3006 628 3006 
L 475 3006 
L 569 3500 
L 788 3500 
Q 1403 3500 1491 2950 
z
" transform="scale(0.015625)"/>
       <path id="DejaVuSans-Oblique-4e" d="M 1081 4666 
L 1931 4666 
L 3219 666 
L 4000 4666 
L 4616 4666 
L 3706 0 
L 2853 0 
L 1569 4025 
L 788 0 
L 172 0 
L 1081 4666 
z
" transform="scale(0.015625)"/>
       <path id="DejaVuSans-29" d="M 513 4856 
L 1013 4856 
Q 1481 4119 1714 3412 
Q 1947 2706 1947 2009 
Q 1947 1309 1714 600 
Q 1481 -109 1013 -844 
L 513 -844 
Q 928 -128 1133 580 
Q 1338 1288 1338 2009 
Q 1338 2731 1133 3434 
Q 928 4138 513 4856 
z
" transform="scale(0.015625)"/>
      </defs>
      <use xlink:href="#DejaVuSans-Oblique-63" transform="translate(0 0.125)"/>
      <use xlink:href="#DejaVuSans-31" transform="translate(54.980469 -16.28125) scale(0.7)"/>
      <use xlink:href="#DejaVuSans-65" transform="translate(102.250977 0.125)"/>
      <use xlink:href="#DejaVuSans-78" transform="translate(163.774414 0.125)"/>
      <use xlink:href="#DejaVuSans-70" transform="translate(222.954102 0.125)"/>
      <use xlink:href="#DejaVuSans-28" transform="translate(286.430664 0.125)"/>
      <use xlink:href="#DejaVuSans-2212" transform="translate(325.444336 0.125)"/>
      <use xlink:href="#DejaVuSans-Oblique-3b3" transform="translate(409.233398 0.125)"/>
      <use xlink:href="#DejaVuSans-31" transform="translate(468.413086 -16.28125) scale(0.7)"/>
      <use xlink:href="#DejaVuSans-Oblique-4e" transform="translate(515.683594 0.125)"/>
      <use xlink:href="#DejaVuSans-29" transform="translate(590.488281 0.125)"/>
     </g>
    </g>
    <g id="line2d_59">
     <path d="M 320.765354 51.434646 
L 330.765354 51.434646 
L 340.765354 51.434646 
" style="fill: none; stroke-dasharray: 4.625,2; stroke-dashoffset: 0; stroke: #8c8c8c; stroke-width: 1.25; stroke-linejoin: miter"/>
    </g>
    <g id="text_14">
     <!-- $c_2\exp(-\gamma_2 n_H)$ -->
     <g transform="translate(348.765354 54.934646) scale(0.1 -0.1)">
      <defs>
       <path id="DejaVuSans-32" d="M 1228 531 
L 3431 531 
L 3431 0 
L 469 0 
L 469 531 
Q 828 903 1448 1529 
Q 2069 2156 2228 2338 
Q 2531 2678 2651 2914 
Q 2772 3150 2772 3378 
Q 2772 3750 2511 3984 
Q 2250 4219 1831 4219 
Q 1534 4219 1204 4116 
Q 875 4013 500 3803 
L 500 4441 
Q 881 4594 1212 4672 
Q 1544 4750 1819 4750 
Q 2544 4750 2975 4387 
Q 3406 4025 3406 3419 
Q 3406 3131 3298 2873 
Q 3191 2616 2906 2266 
Q 2828 2175 2409 1742 
Q 1991 1309 1228 531 
z
" transform="scale(0.015625)"/>
       <path id="DejaVuSans-Oblique-6e" d="M 3566 2113 
L 3156 0 
L 2578 0 
L 2988 2091 
Q 3016 2238 3031 2350 
Q 3047 2463 3047 2528 
Q 3047 2791 2881 2937 
Q 2716 3084 2419 3084 
Q 1956 3084 1622 2776 
Q 1288 2469 1184 1941 
L 800 0 
L 225 0 
L 903 3500 
L 1478 3500 
L 1363 2950 
Q 1603 3253 1940 3418 
Q 2278 3584 2650 3584 
Q 3113 3584 3367 3334 
Q 3622 3084 3622 2631 
Q 3622 2519 3608 2391 
Q 3594 2263 3566 2113 
z
" transform="scale(0.015625)"/>
       <path id="DejaVuSans-Oblique-48" d="M 1081 4666 
L 1716 4666 
L 1344 2753 
L 3634 2753 
L 4006 4666 
L 4641 4666 
L 3731 0 
L 3097 0 
L 3531 2222 
L 1241 2222 
L 806 0 
L 172 0 
L 1081 4666 
z
" transform="scale(0.015625)"/>
      </defs>
      <use xlink:href="#DejaVuSans-Oblique-63" transform="translate(0 0.125)"/>
      <use xlink:href="#DejaVuSans-32" transform="translate(54.980469 -16.28125) scale(0.7)"/>
      <use xlink:href="#DejaVuSans-65" transform="translate(102.250977 0.125)"/>
      <use xlink:href="#DejaVuSans-78" transform="translate(163.774414 0.125)"/>
      <use xlink:href="#DejaVuSans-70" transform="translate(222.954102 0.125)"/>
      <use xlink:href="#DejaVuSans-28" transform="translate(286.430664 0.125)"/>
      <use xlink:href="#DejaVuSans-2212" transform="translate(325.444336 0.125)"/>
      <use xlink:href="#DejaVuSans-Oblique-3b3" transform="translate(409.233398 0.125)"/>
      <use xlink:href="#DejaVuSans-32" transform="translate(468.413086 -16.28125) scale(0.7)"/>
      <use xlink:href="#DejaVuSans-Oblique-6e" transform="translate(515.683594 0.125)"/>
      <use xlink:href="#DejaVuSans-Oblique-48" transform="translate(579.0625 -16.28125) scale(0.7)"/>
      <use xlink:href="#DejaVuSans-29" transform="translate(634.433594 0.125)"/>
     </g>
    </g>
    <g id="line2d_60">
     <path d="M 320.765354 66.133083 
L 330.765354 66.133083 
L 340.765354 66.133083 
" style="fill: none; stroke: #4c72b0; stroke-width: 1.25; stroke-linejoin: miter"/>
    </g>
    <g id="text_15">
     <!-- N=6 -->
     <g transform="translate(348.765354 69.633083) scale(0.1 -0.1)">
      <defs>
       <path id="DejaVuSerif-4e" d="M 313 0 
L 313 331 
L 941 331 
L 941 4331 
L 313 4331 
L 313 4666 
L 1509 4666 
L 4306 984 
L 4306 4331 
L 3681 4331 
L 3681 4666 
L 5319 4666 
L 5319 4331 
L 4691 4331 
L 4691 -91 
L 4313 -91 
L 1325 3841 
L 1325 331 
L 1953 331 
L 1953 0 
L 313 0 
z
" transform="scale(0.015625)"/>
       <path id="DejaVuSerif-3d" d="M 678 2894 
L 4684 2894 
L 4684 2394 
L 678 2394 
L 678 2894 
z
M 678 1619 
L 4684 1619 
L 4684 1119 
L 678 1119 
L 678 1619 
z
" transform="scale(0.015625)"/>
       <path id="DejaVuSerif-36" d="M 2094 219 
Q 2534 219 2771 542 
Q 3009 866 3009 1472 
Q 3009 2078 2771 2401 
Q 2534 2725 2094 2725 
Q 1647 2725 1412 2412 
Q 1178 2100 1178 1509 
Q 1178 888 1415 553 
Q 1653 219 2094 219 
z
M 1075 2569 
Q 1288 2803 1556 2918 
Q 1825 3034 2163 3034 
Q 2859 3034 3264 2615 
Q 3669 2197 3669 1472 
Q 3669 763 3233 336 
Q 2797 -91 2069 -91 
Q 1278 -91 853 498 
Q 428 1088 428 2181 
Q 428 3406 931 4078 
Q 1434 4750 2350 4750 
Q 2597 4750 2869 4703 
Q 3141 4656 3425 4563 
L 3425 3794 
L 3072 3794 
Q 3034 4109 2831 4275 
Q 2628 4441 2284 4441 
Q 1678 4441 1381 3981 
Q 1084 3522 1075 2569 
z
" transform="scale(0.015625)"/>
      </defs>
      <use xlink:href="#DejaVuSerif-4e"/>
      <use xlink:href="#DejaVuSerif-3d" x="87.5"/>
      <use xlink:href="#DejaVuSerif-36" x="171.289062"/>
     </g>
    </g>
    <g id="line2d_61">
     <path d="M 320.765354 80.811208 
L 330.765354 80.811208 
L 340.765354 80.811208 
" style="fill: none; stroke: #dd8452; stroke-width: 1.25; stroke-linejoin: miter"/>
    </g>
    <g id="text_16">
     <!-- N=8 -->
     <g transform="translate(348.765354 84.311208) scale(0.1 -0.1)">
      <defs>
       <path id="DejaVuSerif-38" d="M 2981 1275 
Q 2981 1775 2732 2051 
Q 2484 2328 2034 2328 
Q 1584 2328 1336 2051 
Q 1088 1775 1088 1275 
Q 1088 772 1336 495 
Q 1584 219 2034 219 
Q 2484 219 2732 495 
Q 2981 772 2981 1275 
z
M 2853 3541 
Q 2853 3966 2637 4203 
Q 2422 4441 2034 4441 
Q 1650 4441 1433 4203 
Q 1216 3966 1216 3541 
Q 1216 3113 1433 2875 
Q 1650 2638 2034 2638 
Q 2422 2638 2637 2875 
Q 2853 3113 2853 3541 
z
M 2516 2484 
Q 3047 2413 3344 2092 
Q 3641 1772 3641 1275 
Q 3641 619 3225 264 
Q 2809 -91 2034 -91 
Q 1263 -91 845 264 
Q 428 619 428 1275 
Q 428 1772 725 2092 
Q 1022 2413 1556 2484 
Q 1084 2569 832 2842 
Q 581 3116 581 3541 
Q 581 4103 968 4426 
Q 1356 4750 2034 4750 
Q 2713 4750 3100 4426 
Q 3488 4103 3488 3541 
Q 3488 3116 3236 2842 
Q 2984 2569 2516 2484 
z
" transform="scale(0.015625)"/>
      </defs>
      <use xlink:href="#DejaVuSerif-4e"/>
      <use xlink:href="#DejaVuSerif-3d" x="87.5"/>
      <use xlink:href="#DejaVuSerif-38" x="171.289062"/>
     </g>
    </g>
    <g id="line2d_62">
     <path d="M 320.765354 95.489333 
L 330.765354 95.489333 
L 340.765354 95.489333 
" style="fill: none; stroke: #55a868; stroke-width: 1.25; stroke-linejoin: miter"/>
    </g>
    <g id="text_17">
     <!-- N=10 -->
     <g transform="translate(348.765354 98.989333) scale(0.1 -0.1)">
      <use xlink:href="#DejaVuSerif-4e"/>
      <use xlink:href="#DejaVuSerif-3d" x="87.5"/>
      <use xlink:href="#DejaVuSerif-31" x="171.289062"/>
      <use xlink:href="#DejaVuSerif-30" x="234.912109"/>
     </g>
    </g>
    <g id="line2d_63">
     <path d="M 320.765354 110.167458 
L 330.765354 110.167458 
L 340.765354 110.167458 
" style="fill: none; stroke: #c44e52; stroke-width: 1.25; stroke-linejoin: miter"/>
    </g>
    <g id="text_18">
     <!-- N=12 -->
     <g transform="translate(348.765354 113.667458) scale(0.1 -0.1)">
      <use xlink:href="#DejaVuSerif-4e"/>
      <use xlink:href="#DejaVuSerif-3d" x="87.5"/>
      <use xlink:href="#DejaVuSerif-31" x="171.289062"/>
      <use xlink:href="#DejaVuSerif-32" x="234.912109"/>
     </g>
    </g>
   </g>
  </g>
 </g>
 <defs>
  <clipPath id="p159ecaeab3">
   <rect x="48.0507" y="19.634646" width="381.114655" height="234.990709"/>
  </clipPath>
 </defs>
</svg>
