<?xml version="1.0" encoding="utf-8" standalone="no"?>
<!DOCTYPE svg PUBLIC "-//W3C//DTD SVG 1.1//EN"
  "http://www.w3.org/Graphics/SVG/1.1/DTD/svg11.dtd">
<svg xmlns:xlink="http://www.w3.org/1999/xlink" width="432pt" height="288pt" viewBox="0 0 432 288" xmlns="http://www.w3.org/2000/svg" version="1.1">
 <metadata>
  <rdf:RDF xmlns:dc="http://purl.org/dc/elements/1.1/" xmlns:cc="http://creativecommons.org/ns#" xmlns:rdf="http://www.w3.org/1999/02/22-rdf-syntax-ns#">
   <cc:Work>
    <dc:type rdf:resource="http://purl.org/dc/dcmitype/StillImage"/>
    <dc:date>2024-07-15T11:12:13.682575</dc:date>
    <dc:format>image/svg+xml</dc:format>
    <dc:creator>
     <cc:Agent>
      <dc:title>Matplotlib v3.9.1, https://matplotlib.org/</dc:title>
     </cc:Agent>
    </dc:creator>
   </cc:Work>
  </rdf:RDF>
 </metadata>
 <defs>
  <style type="text/css">*{stroke-linejoin: round; stroke-linecap: butt}</style>
 </defs>
 <g id="figure_1">
  <g id="patch_1">
   <path d="M 0 288 
L 432 288 
L 432 0 
L 0 0 
z
" style="fill: #ffffff"/>
  </g>
  <g id="axes_1">
   <g id="patch_2">
    <path d="M 47.8707 254.625354 
L 426.251514 254.625354 
L 426.251514 19.634646 
L 47.8707 19.634646 
z
" style="fill: #ffffff"/>
   </g>
   <g id="line2d_1">
    <path d="M -1 104.979732 
L 433 104.979732 
" clip-path="url(#p959993419d)" style="fill: none; stroke-dasharray: 3.7,1.6; stroke-dashoffset: 0; stroke: #8c8c8c"/>
   </g>
   <g id="line2d_2">
    <path d="M -1 150.221906 
L 433 150.221906 
" clip-path="url(#p959993419d)" style="fill: none; stroke-dasharray: 3.7,1.6; stroke-dashoffset: 0; stroke: #8c8c8c"/>
   </g>
   <g id="line2d_3">
    <path d="M -1 195.46408 
L 433 195.46408 
" clip-path="url(#p959993419d)" style="fill: none; stroke-dasharray: 3.7,1.6; stroke-dashoffset: 0; stroke: #8c8c8c"/>
   </g>
   <g id="line2d_4">
    <path d="M -1 240.706254 
L 433 240.706254 
" clip-path="url(#p959993419d)" style="fill: none; stroke-dasharray: 3.7,1.6; stroke-dashoffset: 0; stroke: #8c8c8c"/>
   </g>
   <g id="matplotlib.axis_1">
    <g id="xtick_1">
     <g id="line2d_5">
      <defs>
       <path id="m77c857fea3" d="M 0 0 
L 0 -2.5 
" style="stroke: #000000; stroke-width: 0.5"/>
      </defs>
      <g>
       <use xlink:href="#m77c857fea3" x="93.111884" y="254.625354" style="stroke: #000000; stroke-width: 0.5"/>
      </g>
     </g>
     <g id="line2d_6">
      <defs>
       <path id="m9770f5cba1" d="M 0 0 
L 0 2.5 
" style="stroke: #000000; stroke-width: 0.5"/>
      </defs>
      <g>
       <use xlink:href="#m9770f5cba1" x="93.111884" y="19.634646" style="stroke: #000000; stroke-width: 0.5"/>
      </g>
     </g>
     <g id="text_1">
      <!-- $4$ -->
      <g transform="translate(89.911884 265.723792) scale(0.1 -0.1)">
       <defs>
        <path id="DejaVuSerif-34" d="M 2234 1581 
L 2234 4063 
L 641 1581 
L 2234 1581 
z
M 3609 0 
L 1484 0 
L 1484 331 
L 2234 331 
L 2234 1247 
L 197 1247 
L 197 1588 
L 2241 4750 
L 2859 4750 
L 2859 1581 
L 3750 1581 
L 3750 1247 
L 2859 1247 
L 2859 331 
L 3609 331 
L 3609 0 
z
" transform="scale(0.015625)"/>
       </defs>
       <use xlink:href="#DejaVuSerif-34" transform="translate(0 0.78125)"/>
      </g>
     </g>
    </g>
    <g id="xtick_2">
     <g id="line2d_7">
      <g>
       <use xlink:href="#m77c857fea3" x="175.368583" y="254.625354" style="stroke: #000000; stroke-width: 0.5"/>
      </g>
     </g>
     <g id="line2d_8">
      <g>
       <use xlink:href="#m9770f5cba1" x="175.368583" y="19.634646" style="stroke: #000000; stroke-width: 0.5"/>
      </g>
     </g>
     <g id="text_2">
      <!-- $6$ -->
      <g transform="translate(172.168583 265.723792) scale(0.1 -0.1)">
       <defs>
        <path id="DejaVuSerif-36" d="M 2094 219 
Q 2534 219 2771 542 
Q 3009 866 3009 1472 
Q 3009 2078 2771 2401 
Q 2534 2725 2094 2725 
Q 1647 2725 1412 2412 
Q 1178 2100 1178 1509 
Q 1178 888 1415 553 
Q 1653 219 2094 219 
z
M 1075 2569 
Q 1288 2803 1556 2918 
Q 1825 3034 2163 3034 
Q 2859 3034 3264 2615 
Q 3669 2197 3669 1472 
Q 3669 763 3233 336 
Q 2797 -91 2069 -91 
Q 1278 -91 853 498 
Q 428 1088 428 2181 
Q 428 3406 931 4078 
Q 1434 4750 2350 4750 
Q 2597 4750 2869 4703 
Q 3141 4656 3425 4563 
L 3425 3794 
L 3072 3794 
Q 3034 4109 2831 4275 
Q 2628 4441 2284 4441 
Q 1678 4441 1381 3981 
Q 1084 3522 1075 2569 
z
" transform="scale(0.015625)"/>
       </defs>
       <use xlink:href="#DejaVuSerif-36" transform="translate(0 0.78125)"/>
      </g>
     </g>
    </g>
    <g id="xtick_3">
     <g id="line2d_9">
      <g>
       <use xlink:href="#m77c857fea3" x="257.625281" y="254.625354" style="stroke: #000000; stroke-width: 0.5"/>
      </g>
     </g>
     <g id="line2d_10">
      <g>
       <use xlink:href="#m9770f5cba1" x="257.625281" y="19.634646" style="stroke: #000000; stroke-width: 0.5"/>
      </g>
     </g>
     <g id="text_3">
      <!-- $8$ -->
      <g transform="translate(254.425281 265.723792) scale(0.1 -0.1)">
       <defs>
        <path id="DejaVuSerif-38" d="M 2981 1275 
Q 2981 1775 2732 2051 
Q 2484 2328 2034 2328 
Q 1584 2328 1336 2051 
Q 1088 1775 1088 1275 
Q 1088 772 1336 495 
Q 1584 219 2034 219 
Q 2484 219 2732 495 
Q 2981 772 2981 1275 
z
M 2853 3541 
Q 2853 3966 2637 4203 
Q 2422 4441 2034 4441 
Q 1650 4441 1433 4203 
Q 1216 3966 1216 3541 
Q 1216 3113 1433 2875 
Q 1650 2638 2034 2638 
Q 2422 2638 2637 2875 
Q 2853 3113 2853 3541 
z
M 2516 2484 
Q 3047 2413 3344 2092 
Q 3641 1772 3641 1275 
Q 3641 619 3225 264 
Q 2809 -91 2034 -91 
Q 1263 -91 845 264 
Q 428 619 428 1275 
Q 428 1772 725 2092 
Q 1022 2413 1556 2484 
Q 1084 2569 832 2842 
Q 581 3116 581 3541 
Q 581 4103 968 4426 
Q 1356 4750 2034 4750 
Q 2713 4750 3100 4426 
Q 3488 4103 3488 3541 
Q 3488 3116 3236 2842 
Q 2984 2569 2516 2484 
z
" transform="scale(0.015625)"/>
       </defs>
       <use xlink:href="#DejaVuSerif-38" transform="translate(0 0.78125)"/>
      </g>
     </g>
    </g>
    <g id="xtick_4">
     <g id="line2d_11">
      <g>
       <use xlink:href="#m77c857fea3" x="339.88198" y="254.625354" style="stroke: #000000; stroke-width: 0.5"/>
      </g>
     </g>
     <g id="line2d_12">
      <g>
       <use xlink:href="#m9770f5cba1" x="339.88198" y="19.634646" style="stroke: #000000; stroke-width: 0.5"/>
      </g>
     </g>
     <g id="text_4">
      <!-- $10$ -->
      <g transform="translate(333.48198 265.723792) scale(0.1 -0.1)">
       <defs>
        <path id="DejaVuSerif-31" d="M 909 0 
L 909 331 
L 1722 331 
L 1722 4213 
L 781 3603 
L 781 4013 
L 1919 4750 
L 2350 4750 
L 2350 331 
L 3163 331 
L 3163 0 
L 909 0 
z
" transform="scale(0.015625)"/>
        <path id="DejaVuSerif-30" d="M 2034 219 
Q 2513 219 2750 744 
Q 2988 1269 2988 2328 
Q 2988 3391 2750 3916 
Q 2513 4441 2034 4441 
Q 1556 4441 1318 3916 
Q 1081 3391 1081 2328 
Q 1081 1269 1318 744 
Q 1556 219 2034 219 
z
M 2034 -91 
Q 1275 -91 848 546 
Q 422 1184 422 2328 
Q 422 3475 848 4112 
Q 1275 4750 2034 4750 
Q 2797 4750 3222 4112 
Q 3647 3475 3647 2328 
Q 3647 1184 3222 546 
Q 2797 -91 2034 -91 
z
" transform="scale(0.015625)"/>
       </defs>
       <use xlink:href="#DejaVuSerif-31" transform="translate(0 0.78125)"/>
       <use xlink:href="#DejaVuSerif-30" transform="translate(63.623047 0.78125)"/>
      </g>
     </g>
    </g>
    <g id="xtick_5">
     <g id="line2d_13">
      <g>
       <use xlink:href="#m77c857fea3" x="422.138679" y="254.625354" style="stroke: #000000; stroke-width: 0.5"/>
      </g>
     </g>
     <g id="line2d_14">
      <g>
       <use xlink:href="#m9770f5cba1" x="422.138679" y="19.634646" style="stroke: #000000; stroke-width: 0.5"/>
      </g>
     </g>
     <g id="text_5">
      <!-- $12$ -->
      <g transform="translate(415.738679 265.723792) scale(0.1 -0.1)">
       <defs>
        <path id="DejaVuSerif-32" d="M 819 3553 
L 469 3553 
L 469 4384 
Q 803 4563 1142 4656 
Q 1481 4750 1806 4750 
Q 2534 4750 2956 4397 
Q 3378 4044 3378 3438 
Q 3378 2753 2422 1800 
Q 2347 1728 2309 1691 
L 1131 513 
L 3078 513 
L 3078 1088 
L 3444 1088 
L 3444 0 
L 434 0 
L 434 341 
L 1850 1753 
Q 2319 2222 2519 2614 
Q 2719 3006 2719 3438 
Q 2719 3909 2473 4175 
Q 2228 4441 1797 4441 
Q 1350 4441 1106 4219 
Q 863 3997 819 3553 
z
" transform="scale(0.015625)"/>
       </defs>
       <use xlink:href="#DejaVuSerif-31" transform="translate(0 0.78125)"/>
       <use xlink:href="#DejaVuSerif-32" transform="translate(63.623047 0.78125)"/>
      </g>
     </g>
    </g>
    <g id="text_6">
     <!-- $n_H$ -->
     <g transform="translate(229.321107 280.921604) scale(0.12 -0.12)">
      <defs>
       <path id="DejaVuSerif-Italic-6e" d="M 450 0 
L 1031 2988 
L 481 2988 
L 544 3322 
L 1669 3322 
L 1556 2731 
Q 1781 3069 2068 3241 
Q 2356 3413 2694 3413 
Q 3244 3413 3444 3097 
Q 3563 2906 3563 2588 
Q 3563 2378 3509 2113 
L 3163 331 
L 3675 331 
L 3613 0 
L 2522 0 
L 2897 1931 
Q 2959 2253 2959 2469 
Q 2959 2659 2909 2769 
Q 2803 2994 2425 2994 
Q 2025 2994 1759 2701 
Q 1494 2409 1384 1850 
L 1025 0 
L 450 0 
z
" transform="scale(0.015625)"/>
       <path id="DejaVuSerif-Italic-48" d="M -97 0 
L -34 331 
L 559 331 
L 1338 4331 
L 744 4331 
L 809 4666 
L 2631 4666 
L 2566 4331 
L 1972 4331 
L 1659 2719 
L 4078 2719 
L 4391 4331 
L 3797 4331 
L 3863 4666 
L 5684 4666 
L 5619 4331 
L 5025 4331 
L 4247 331 
L 4841 331 
L 4778 0 
L 2956 0 
L 3019 331 
L 3616 331 
L 4003 2338 
L 1584 2338 
L 1194 331 
L 1788 331 
L 1725 0 
L -97 0 
z
" transform="scale(0.015625)"/>
      </defs>
      <use xlink:href="#DejaVuSerif-Italic-6e" transform="translate(0 0.671875)"/>
      <use xlink:href="#DejaVuSerif-Italic-48" transform="translate(64.404297 -14.9) scale(0.7)"/>
     </g>
    </g>
   </g>
   <g id="matplotlib.axis_2">
    <g id="ytick_1">
     <g id="line2d_15">
      <defs>
       <path id="m95454cdaf1" d="M 0 0 
L 2.5 0 
" style="stroke: #000000; stroke-width: 0.5"/>
      </defs>
      <g>
       <use xlink:href="#m95454cdaf1" x="47.8707" y="105.749691" style="stroke: #000000; stroke-width: 0.5"/>
      </g>
     </g>
     <g id="line2d_16">
      <defs>
       <path id="m1e03f3f7db" d="M 0 0 
L -2.5 0 
" style="stroke: #000000; stroke-width: 0.5"/>
      </defs>
      <g>
       <use xlink:href="#m1e03f3f7db" x="426.251514" y="105.749691" style="stroke: #000000; stroke-width: 0.5"/>
      </g>
     </g>
     <g id="text_7">
      <!-- $10^{-2}$ -->
      <g transform="translate(20.9707 109.54891) scale(0.1 -0.1)">
       <defs>
        <path id="DejaVuSerif-2212" d="M 678 2259 
L 4684 2259 
L 4684 1753 
L 678 1753 
L 678 2259 
z
" transform="scale(0.015625)"/>
       </defs>
       <use xlink:href="#DejaVuSerif-31" transform="translate(0 0.7125)"/>
       <use xlink:href="#DejaVuSerif-30" transform="translate(63.623047 0.7125)"/>
       <use xlink:href="#DejaVuSerif-2212" transform="translate(128.154453 37.046875) scale(0.7)"/>
       <use xlink:href="#DejaVuSerif-32" transform="translate(186.806797 37.046875) scale(0.7)"/>
      </g>
     </g>
    </g>
    <g id="ytick_2">
     <g id="line2d_17">
      <g>
       <use xlink:href="#m95454cdaf1" x="47.8707" y="211.620575" style="stroke: #000000; stroke-width: 0.5"/>
      </g>
     </g>
     <g id="line2d_18">
      <g>
       <use xlink:href="#m1e03f3f7db" x="426.251514" y="211.620575" style="stroke: #000000; stroke-width: 0.5"/>
      </g>
     </g>
     <g id="text_8">
      <!-- $10^{-3}$ -->
      <g transform="translate(20.9707 215.419794) scale(0.1 -0.1)">
       <defs>
        <path id="DejaVuSerif-33" d="M 622 4469 
Q 988 4606 1323 4678 
Q 1659 4750 1953 4750 
Q 2638 4750 3022 4454 
Q 3406 4159 3406 3634 
Q 3406 3213 3140 2930 
Q 2875 2647 2388 2547 
Q 2963 2466 3280 2130 
Q 3597 1794 3597 1259 
Q 3597 606 3158 257 
Q 2719 -91 1894 -91 
Q 1528 -91 1179 -12 
Q 831 66 488 225 
L 488 1131 
L 838 1131 
Q 869 681 1141 450 
Q 1413 219 1906 219 
Q 2384 219 2661 495 
Q 2938 772 2938 1253 
Q 2938 1803 2653 2086 
Q 2369 2369 1819 2369 
L 1522 2369 
L 1522 2688 
L 1678 2688 
Q 2225 2688 2498 2914 
Q 2772 3141 2772 3597 
Q 2772 4006 2547 4223 
Q 2322 4441 1900 4441 
Q 1478 4441 1245 4241 
Q 1013 4041 972 3647 
L 622 3647 
L 622 4469 
z
" transform="scale(0.015625)"/>
       </defs>
       <use xlink:href="#DejaVuSerif-31" transform="translate(0 0.7125)"/>
       <use xlink:href="#DejaVuSerif-30" transform="translate(63.623047 0.7125)"/>
       <use xlink:href="#DejaVuSerif-2212" transform="translate(128.154453 37.046875) scale(0.7)"/>
       <use xlink:href="#DejaVuSerif-33" transform="translate(186.806797 37.046875) scale(0.7)"/>
      </g>
     </g>
    </g>
    <g id="text_9">
     <!-- $D_{\text{KL}}$ -->
     <g transform="translate(14.475075 148.05) rotate(-90) scale(0.12 -0.12)">
      <defs>
       <path id="DejaVuSerif-Italic-44" d="M 1194 331 
L 1775 331 
Q 2684 331 3271 850 
Q 3859 1369 4048 2337 
Q 4238 3306 3852 3818 
Q 3466 4331 2553 4331 
L 1972 4331 
L 1194 331 
z
M -97 0 
L -34 331 
L 559 331 
L 1338 4331 
L 744 4331 
L 809 4666 
L 2666 4666 
Q 3872 4666 4426 4050 
Q 4981 3434 4766 2338 
Q 4553 1238 3758 619 
Q 2963 0 1759 0 
L -97 0 
z
" transform="scale(0.015625)"/>
       <path id="DejaVuSerif-4b" d="M 353 0 
L 353 331 
L 947 331 
L 947 4331 
L 353 4331 
L 353 4666 
L 2175 4666 
L 2175 4331 
L 1581 4331 
L 1581 2566 
L 3591 4331 
L 3084 4331 
L 3084 4666 
L 4634 4666 
L 4634 4331 
L 4109 4331 
L 2106 2572 
L 4347 331 
L 4878 331 
L 4878 0 
L 3794 0 
L 1581 2216 
L 1581 331 
L 2175 331 
L 2175 0 
L 353 0 
z
" transform="scale(0.015625)"/>
       <path id="DejaVuSerif-4c" d="M 353 0 
L 353 331 
L 947 331 
L 947 4331 
L 353 4331 
L 353 4666 
L 2175 4666 
L 2175 4331 
L 1581 4331 
L 1581 384 
L 3713 384 
L 3713 1166 
L 4097 1166 
L 4097 0 
L 353 0 
z
" transform="scale(0.015625)"/>
      </defs>
      <use xlink:href="#DejaVuSerif-Italic-44" transform="translate(0 0.09375)"/>
      <use xlink:href="#DejaVuSerif-4b" transform="translate(80.175781 -15.478125) scale(0.7)"/>
      <use xlink:href="#DejaVuSerif-4c" transform="translate(132.470703 -15.478125) scale(0.7)"/>
     </g>
    </g>
   </g>
   <g id="line2d_19">
    <path d="M 51.983535 30.613748 
L 54.476162 32.487428 
L 56.968789 34.361107 
L 59.461416 36.234787 
L 61.954043 38.108466 
L 64.446671 39.982146 
L 66.939298 41.855825 
L 69.431925 43.729505 
L 71.924552 45.603184 
L 74.41718 47.476864 
L 76.909807 49.350543 
L 79.402434 51.224223 
L 81.895061 53.097902 
L 84.387689 54.971582 
L 86.880316 56.845261 
L 89.372943 58.718941 
L 91.86557 60.59262 
L 94.358197 62.4663 
L 96.850825 64.339979 
L 99.343452 66.213659 
L 101.836079 68.087338 
L 104.328706 69.961018 
L 106.821334 71.834697 
L 109.313961 73.708377 
L 111.806588 75.582056 
L 114.299215 77.455736 
L 116.791843 79.329415 
L 119.28447 81.203094 
L 121.777097 83.076774 
L 124.269724 84.950453 
L 126.762352 86.824133 
L 129.254979 88.697812 
L 131.747606 90.571492 
L 134.240233 92.445171 
L 136.73286 94.318851 
L 139.225488 96.19253 
L 141.718115 98.06621 
L 144.210742 99.939889 
L 146.703369 101.813569 
L 149.195997 103.687248 
L 151.688624 105.560928 
L 154.181251 107.434607 
L 156.673878 109.308287 
L 159.166506 111.181966 
L 161.659133 113.055646 
L 164.15176 114.929325 
L 166.644387 116.803005 
L 169.137014 118.676684 
L 171.629642 120.550364 
L 174.122269 122.424043 
L 176.614896 124.297723 
L 179.107523 126.171402 
L 181.600151 128.045082 
L 184.092778 129.918761 
L 186.585405 131.792441 
L 189.078032 133.66612 
L 191.57066 135.5398 
L 194.063287 137.413479 
L 196.555914 139.287159 
L 199.048541 141.160838 
L 201.541169 143.034518 
L 204.033796 144.908197 
L 206.526423 146.781877 
L 209.01905 148.655556 
L 211.511677 150.529236 
L 214.004305 152.402915 
L 216.496932 154.276595 
L 218.989559 156.150274 
L 221.482186 158.023954 
L 223.974814 159.897633 
L 226.467441 161.771313 
L 228.960068 163.644992 
L 231.452695 165.518672 
L 233.945323 167.392351 
L 236.43795 169.266031 
L 238.930577 171.13971 
L 241.423204 173.01339 
L 243.915831 174.887069 
L 246.408459 176.760749 
L 248.901086 178.634428 
L 251.393713 180.508108 
L 253.88634 182.381787 
L 256.378968 184.255467 
L 258.871595 186.129146 
L 261.364222 188.002826 
L 263.856849 189.876505 
L 266.349477 191.750185 
L 268.842104 193.623864 
L 271.334731 195.497544 
L 273.827358 197.371223 
L 276.319985 199.244903 
L 278.812613 201.118582 
L 281.30524 202.992262 
L 283.797867 204.865941 
L 286.290494 206.739621 
L 288.783122 208.6133 
L 291.275749 210.48698 
L 293.768376 212.360659 
L 296.261003 214.234339 
L 298.753631 216.108018 
" clip-path="url(#p959993419d)" style="fill: none; stroke-dasharray: 3.7,1.6; stroke-dashoffset: 0; stroke: #8c8c8c"/>
   </g>
   <g id="patch_3">
    <path d="M 47.8707 254.625354 
L 47.8707 19.634646 
" style="fill: none; stroke: #000000; stroke-linejoin: miter; stroke-linecap: square"/>
   </g>
   <g id="patch_4">
    <path d="M 426.251514 254.625354 
L 426.251514 19.634646 
" style="fill: none; stroke: #000000; stroke-linejoin: miter; stroke-linecap: square"/>
   </g>
   <g id="patch_5">
    <path d="M 47.8707 254.625354 
L 426.251514 254.625354 
" style="fill: none; stroke: #000000; stroke-linejoin: miter; stroke-linecap: square"/>
   </g>
   <g id="patch_6">
    <path d="M 47.8707 19.634646 
L 426.251514 19.634646 
" style="fill: none; stroke: #000000; stroke-linejoin: miter; stroke-linecap: square"/>
   </g>
   <g id="line2d_20">
    <path d="M 51.983535 30.619234 
L 93.111884 72.403972 
L 134.240233 96.649163 
L 175.368583 106.844513 
" clip-path="url(#p959993419d)" style="fill: none; stroke: #4c72b0"/>
   </g>
   <g id="text_10">
    <!-- $D_{\text{KL}}$ scaling with $n_H$ for $O = Z$ -->
    <g transform="translate(148.921107 13.634646) scale(0.12 -0.12)">
     <defs>
      <path id="DejaVuSerif-20" transform="scale(0.015625)"/>
      <path id="DejaVuSerif-73" d="M 359 184 
L 359 959 
L 691 959 
Q 703 588 923 403 
Q 1144 219 1575 219 
Q 1963 219 2166 364 
Q 2369 509 2369 788 
Q 2369 1006 2220 1140 
Q 2072 1275 1594 1428 
L 1178 1569 
Q 750 1706 558 1912 
Q 366 2119 366 2438 
Q 366 2894 700 3153 
Q 1034 3413 1625 3413 
Q 1888 3413 2178 3344 
Q 2469 3275 2778 3144 
L 2778 2419 
L 2447 2419 
Q 2434 2741 2221 2922 
Q 2009 3103 1644 3103 
Q 1281 3103 1095 2975 
Q 909 2847 909 2591 
Q 909 2381 1050 2254 
Q 1191 2128 1613 1997 
L 2069 1856 
Q 2541 1709 2748 1489 
Q 2956 1269 2956 922 
Q 2956 450 2595 179 
Q 2234 -91 1600 -91 
Q 1278 -91 972 -22 
Q 666 47 359 184 
z
" transform="scale(0.015625)"/>
      <path id="DejaVuSerif-63" d="M 3291 997 
Q 3169 466 2822 187 
Q 2475 -91 1925 -91 
Q 1200 -91 759 389 
Q 319 869 319 1663 
Q 319 2459 759 2936 
Q 1200 3413 1925 3413 
Q 2241 3413 2553 3339 
Q 2866 3266 3181 3116 
L 3181 2266 
L 2847 2266 
Q 2781 2703 2561 2903 
Q 2341 3103 1931 3103 
Q 1466 3103 1228 2742 
Q 991 2381 991 1663 
Q 991 944 1227 581 
Q 1463 219 1931 219 
Q 2303 219 2525 412 
Q 2747 606 2828 997 
L 3291 997 
z
" transform="scale(0.015625)"/>
      <path id="DejaVuSerif-61" d="M 2547 1044 
L 2547 1747 
L 1806 1747 
Q 1378 1747 1168 1562 
Q 959 1378 959 997 
Q 959 650 1171 447 
Q 1384 244 1747 244 
Q 2106 244 2326 466 
Q 2547 688 2547 1044 
z
M 3122 2075 
L 3122 331 
L 3634 331 
L 3634 0 
L 2547 0 
L 2547 359 
Q 2356 128 2106 18 
Q 1856 -91 1522 -91 
Q 969 -91 644 203 
Q 319 497 319 997 
Q 319 1513 691 1797 
Q 1063 2081 1741 2081 
L 2547 2081 
L 2547 2309 
Q 2547 2688 2317 2895 
Q 2088 3103 1672 3103 
Q 1328 3103 1125 2947 
Q 922 2791 872 2484 
L 575 2484 
L 575 3156 
Q 875 3284 1158 3348 
Q 1441 3413 1709 3413 
Q 2400 3413 2761 3070 
Q 3122 2728 3122 2075 
z
" transform="scale(0.015625)"/>
      <path id="DejaVuSerif-6c" d="M 1313 331 
L 1856 331 
L 1856 0 
L 184 0 
L 184 331 
L 738 331 
L 738 4531 
L 184 4531 
L 184 4863 
L 1313 4863 
L 1313 331 
z
" transform="scale(0.015625)"/>
      <path id="DejaVuSerif-69" d="M 622 4353 
Q 622 4497 726 4603 
Q 831 4709 978 4709 
Q 1122 4709 1226 4603 
Q 1331 4497 1331 4353 
Q 1331 4206 1228 4103 
Q 1125 4000 978 4000 
Q 831 4000 726 4103 
Q 622 4206 622 4353 
z
M 1356 331 
L 1900 331 
L 1900 0 
L 231 0 
L 231 331 
L 781 331 
L 781 2988 
L 231 2988 
L 231 3322 
L 1356 3322 
L 1356 331 
z
" transform="scale(0.015625)"/>
      <path id="DejaVuSerif-6e" d="M 263 0 
L 263 331 
L 781 331 
L 781 2988 
L 231 2988 
L 231 3322 
L 1356 3322 
L 1356 2731 
Q 1516 3069 1770 3241 
Q 2025 3413 2363 3413 
Q 2913 3413 3172 3097 
Q 3431 2781 3431 2113 
L 3431 331 
L 3944 331 
L 3944 0 
L 2356 0 
L 2356 331 
L 2853 331 
L 2853 1931 
Q 2853 2541 2703 2767 
Q 2553 2994 2175 2994 
Q 1775 2994 1565 2701 
Q 1356 2409 1356 1850 
L 1356 331 
L 1856 331 
L 1856 0 
L 263 0 
z
" transform="scale(0.015625)"/>
      <path id="DejaVuSerif-67" d="M 3359 2988 
L 3359 72 
Q 3359 -644 2965 -1033 
Q 2572 -1422 1844 -1422 
Q 1516 -1422 1216 -1362 
Q 916 -1303 641 -1184 
L 641 -488 
L 941 -488 
Q 997 -813 1206 -963 
Q 1416 -1113 1806 -1113 
Q 2313 -1113 2548 -827 
Q 2784 -541 2784 72 
L 2784 519 
Q 2616 206 2355 57 
Q 2094 -91 1709 -91 
Q 1097 -91 708 395 
Q 319 881 319 1663 
Q 319 2444 706 2928 
Q 1094 3413 1709 3413 
Q 2094 3413 2355 3264 
Q 2616 3116 2784 2803 
L 2784 3322 
L 3909 3322 
L 3909 2988 
L 3359 2988 
z
M 2784 1825 
Q 2784 2422 2554 2737 
Q 2325 3053 1888 3053 
Q 1444 3053 1217 2703 
Q 991 2353 991 1663 
Q 991 975 1217 622 
Q 1444 269 1888 269 
Q 2325 269 2554 583 
Q 2784 897 2784 1497 
L 2784 1825 
z
" transform="scale(0.015625)"/>
      <path id="DejaVuSerif-77" d="M 3072 3322 
L 3922 728 
L 4672 2988 
L 4191 2988 
L 4191 3322 
L 5394 3322 
L 5394 2988 
L 5025 2988 
L 4038 0 
L 3559 0 
L 2741 2484 
L 1919 0 
L 1459 0 
L 475 2988 
L 103 2988 
L 103 3322 
L 1606 3322 
L 1606 2988 
L 1069 2988 
L 1813 728 
L 2669 3322 
L 3072 3322 
z
" transform="scale(0.015625)"/>
      <path id="DejaVuSerif-74" d="M 691 2988 
L 184 2988 
L 184 3322 
L 691 3322 
L 691 4353 
L 1269 4353 
L 1269 3322 
L 2350 3322 
L 2350 2988 
L 1269 2988 
L 1269 878 
Q 1269 456 1350 337 
Q 1431 219 1650 219 
Q 1875 219 1978 351 
Q 2081 484 2088 781 
L 2522 781 
Q 2497 328 2275 118 
Q 2053 -91 1600 -91 
Q 1103 -91 897 129 
Q 691 350 691 878 
L 691 2988 
z
" transform="scale(0.015625)"/>
      <path id="DejaVuSerif-68" d="M 263 0 
L 263 331 
L 781 331 
L 781 4531 
L 231 4531 
L 231 4863 
L 1356 4863 
L 1356 2731 
Q 1516 3069 1770 3241 
Q 2025 3413 2363 3413 
Q 2913 3413 3172 3097 
Q 3431 2781 3431 2113 
L 3431 331 
L 3944 331 
L 3944 0 
L 2356 0 
L 2356 331 
L 2853 331 
L 2853 1931 
Q 2853 2541 2704 2764 
Q 2556 2988 2175 2988 
Q 1775 2988 1565 2697 
Q 1356 2406 1356 1850 
L 1356 331 
L 1856 331 
L 1856 0 
L 263 0 
z
" transform="scale(0.015625)"/>
      <path id="DejaVuSerif-66" d="M 2753 4078 
L 2450 4078 
Q 2447 4313 2317 4434 
Q 2188 4556 1941 4556 
Q 1619 4556 1487 4379 
Q 1356 4203 1356 3750 
L 1356 3322 
L 2284 3322 
L 2284 2988 
L 1356 2988 
L 1356 331 
L 2094 331 
L 2094 0 
L 231 0 
L 231 331 
L 781 331 
L 781 2988 
L 231 2988 
L 231 3322 
L 781 3322 
L 781 3738 
Q 781 4294 1070 4578 
Q 1359 4863 1919 4863 
Q 2128 4863 2337 4825 
Q 2547 4788 2753 4709 
L 2753 4078 
z
" transform="scale(0.015625)"/>
      <path id="DejaVuSerif-6f" d="M 1925 219 
Q 2388 219 2623 584 
Q 2859 950 2859 1663 
Q 2859 2375 2623 2739 
Q 2388 3103 1925 3103 
Q 1463 3103 1227 2739 
Q 991 2375 991 1663 
Q 991 950 1228 584 
Q 1466 219 1925 219 
z
M 1925 -91 
Q 1200 -91 759 389 
Q 319 869 319 1663 
Q 319 2456 758 2934 
Q 1197 3413 1925 3413 
Q 2653 3413 3092 2934 
Q 3531 2456 3531 1663 
Q 3531 869 3092 389 
Q 2653 -91 1925 -91 
z
" transform="scale(0.015625)"/>
      <path id="DejaVuSerif-72" d="M 3059 3328 
L 3059 2497 
L 2728 2497 
Q 2713 2744 2591 2866 
Q 2469 2988 2234 2988 
Q 1809 2988 1582 2694 
Q 1356 2400 1356 1850 
L 1356 331 
L 2022 331 
L 2022 0 
L 263 0 
L 263 331 
L 781 331 
L 781 2994 
L 231 2994 
L 231 3322 
L 1356 3322 
L 1356 2731 
Q 1525 3078 1790 3245 
Q 2056 3413 2438 3413 
Q 2578 3413 2733 3391 
Q 2888 3369 3059 3328 
z
" transform="scale(0.015625)"/>
      <path id="DejaVuSerif-Italic-4f" d="M 2219 244 
Q 2984 244 3478 770 
Q 3972 1297 4172 2328 
Q 4372 3363 4084 3889 
Q 3797 4416 3031 4416 
Q 2263 4416 1769 3889 
Q 1275 3363 1075 2328 
Q 875 1297 1162 770 
Q 1450 244 2219 244 
z
M 2153 -91 
Q 1678 -91 1311 65 
Q 944 222 700 525 
Q 419 875 334 1319 
Q 250 1763 359 2328 
Q 469 2894 725 3339 
Q 981 3784 1400 4134 
Q 1766 4441 2191 4595 
Q 2616 4750 3097 4750 
Q 4113 4750 4608 4084 
Q 5103 3419 4891 2328 
Q 4781 1769 4522 1320 
Q 4263 872 3847 525 
Q 3481 219 3056 64 
Q 2631 -91 2153 -91 
z
" transform="scale(0.015625)"/>
      <path id="DejaVuSerif-3d" d="M 678 2894 
L 4684 2894 
L 4684 2394 
L 678 2394 
L 678 2894 
z
M 678 1619 
L 4684 1619 
L 4684 1119 
L 678 1119 
L 678 1619 
z
" transform="scale(0.015625)"/>
      <path id="DejaVuSerif-Italic-5a" d="M -166 0 
L -122 225 
L 3572 4281 
L 1159 4281 
L 1025 3584 
L 641 3584 
L 850 4666 
L 4538 4666 
L 4494 4441 
L 800 384 
L 3438 384 
L 3563 1038 
L 3944 1038 
L 3744 0 
L -166 0 
z
" transform="scale(0.015625)"/>
     </defs>
     <use xlink:href="#DejaVuSerif-Italic-44" transform="translate(0 0.015625)"/>
     <use xlink:href="#DejaVuSerif-4b" transform="translate(80.175781 -15.55625) scale(0.7)"/>
     <use xlink:href="#DejaVuSerif-4c" transform="translate(132.470703 -15.55625) scale(0.7)"/>
     <use xlink:href="#DejaVuSerif-20" transform="translate(181.550391 0.015625)"/>
     <use xlink:href="#DejaVuSerif-73" transform="translate(213.3375 0.015625)"/>
     <use xlink:href="#DejaVuSerif-63" transform="translate(264.655859 0.015625)"/>
     <use xlink:href="#DejaVuSerif-61" transform="translate(320.661719 0.015625)"/>
     <use xlink:href="#DejaVuSerif-6c" transform="translate(380.280859 0.015625)"/>
     <use xlink:href="#DejaVuSerif-69" transform="translate(412.263281 0.015625)"/>
     <use xlink:href="#DejaVuSerif-6e" transform="translate(444.245703 0.015625)"/>
     <use xlink:href="#DejaVuSerif-67" transform="translate(508.65 0.015625)"/>
     <use xlink:href="#DejaVuSerif-20" transform="translate(572.663672 0.015625)"/>
     <use xlink:href="#DejaVuSerif-77" transform="translate(604.450781 0.015625)"/>
     <use xlink:href="#DejaVuSerif-69" transform="translate(690.046484 0.015625)"/>
     <use xlink:href="#DejaVuSerif-74" transform="translate(722.028906 0.015625)"/>
     <use xlink:href="#DejaVuSerif-68" transform="translate(762.214453 0.015625)"/>
     <use xlink:href="#DejaVuSerif-20" transform="translate(826.61875 0.015625)"/>
     <use xlink:href="#DejaVuSerif-Italic-6e" transform="translate(858.405859 0.015625)"/>
     <use xlink:href="#DejaVuSerif-Italic-48" transform="translate(922.810156 -15.55625) scale(0.7)"/>
     <use xlink:href="#DejaVuSerif-20" transform="translate(986.450391 0.015625)"/>
     <use xlink:href="#DejaVuSerif-66" transform="translate(1018.2375 0.015625)"/>
     <use xlink:href="#DejaVuSerif-6f" transform="translate(1055.249219 0.015625)"/>
     <use xlink:href="#DejaVuSerif-72" transform="translate(1115.454297 0.015625)"/>
     <use xlink:href="#DejaVuSerif-20" transform="translate(1163.257031 0.015625)"/>
     <use xlink:href="#DejaVuSerif-Italic-4f" transform="translate(1195.044141 0.015625)"/>
     <use xlink:href="#DejaVuSerif-3d" transform="translate(1295.991406 0.015625)"/>
     <use xlink:href="#DejaVuSerif-Italic-5a" transform="translate(1398.745312 0.015625)"/>
    </g>
   </g>
   <g id="line2d_21">
    <path d="M 51.983535 26.285326 
L 93.111884 62.706715 
L 134.240233 96.57435 
L 175.368583 125.610084 
L 216.496932 144.599237 
L 257.625281 147.739612 
" clip-path="url(#p959993419d)" style="fill: none; stroke: #dd8452"/>
   </g>
   <g id="line2d_22">
    <path d="M 134.240233 97.175169 
L 134.240233 95.98128 
" clip-path="url(#p959993419d)" style="fill: none; stroke: #000000"/>
   </g>
   <g id="line2d_23">
    <path d="M 175.368583 126.326876 
L 175.368583 124.904296 
" clip-path="url(#p959993419d)" style="fill: none; stroke: #000000"/>
   </g>
   <g id="line2d_24">
    <path d="M 216.496932 145.25015 
L 216.496932 143.95741 
" clip-path="url(#p959993419d)" style="fill: none; stroke: #000000"/>
   </g>
   <g id="line2d_25">
    <path d="M 257.625281 148.392921 
L 257.625281 147.095455 
" clip-path="url(#p959993419d)" style="fill: none; stroke: #000000"/>
   </g>
   <g id="PathCollection_1">
    <defs>
     <path id="m6592f70922" d="M 2 0 
L -2 -0 
" style="stroke: #000000"/>
    </defs>
    <g clip-path="url(#p959993419d)">
     <use xlink:href="#m6592f70922" x="134.240233" y="97.175169" style="stroke: #000000"/>
     <use xlink:href="#m6592f70922" x="134.240233" y="95.98128" style="stroke: #000000"/>
    </g>
   </g>
   <g id="PathCollection_2">
    <g clip-path="url(#p959993419d)">
     <use xlink:href="#m6592f70922" x="175.368583" y="126.326876" style="stroke: #000000"/>
     <use xlink:href="#m6592f70922" x="175.368583" y="124.904296" style="stroke: #000000"/>
    </g>
   </g>
   <g id="PathCollection_3">
    <g clip-path="url(#p959993419d)">
     <use xlink:href="#m6592f70922" x="216.496932" y="145.25015" style="stroke: #000000"/>
     <use xlink:href="#m6592f70922" x="216.496932" y="143.95741" style="stroke: #000000"/>
    </g>
   </g>
   <g id="PathCollection_4">
    <g clip-path="url(#p959993419d)">
     <use xlink:href="#m6592f70922" x="257.625281" y="148.392921" style="stroke: #000000"/>
     <use xlink:href="#m6592f70922" x="257.625281" y="147.095455" style="stroke: #000000"/>
    </g>
   </g>
   <g id="line2d_26">
    <path d="M 51.983535 28.918216 
L 93.111884 61.473925 
L 134.240233 89.868426 
L 175.368583 123.575016 
L 216.496932 160.42671 
L 257.625281 183.666166 
L 298.753631 194.377937 
L 339.88198 194.834325 
" clip-path="url(#p959993419d)" style="fill: none; stroke: #55a868"/>
   </g>
   <g id="line2d_27">
    <path d="M 51.983535 30.98099 
L 51.983535 26.944024 
" clip-path="url(#p959993419d)" style="fill: none; stroke: #000000"/>
   </g>
   <g id="line2d_28">
    <path d="M 93.111884 62.111082 
L 93.111884 60.845476 
" clip-path="url(#p959993419d)" style="fill: none; stroke: #000000"/>
   </g>
   <g id="line2d_29">
    <path d="M 134.240233 90.395486 
L 134.240233 89.347341 
" clip-path="url(#p959993419d)" style="fill: none; stroke: #000000"/>
   </g>
   <g id="line2d_30">
    <path d="M 175.368583 124.152881 
L 175.368583 123.004324 
" clip-path="url(#p959993419d)" style="fill: none; stroke: #000000"/>
   </g>
   <g id="line2d_31">
    <path d="M 216.496932 161.336236 
L 216.496932 159.534827 
" clip-path="url(#p959993419d)" style="fill: none; stroke: #000000"/>
   </g>
   <g id="line2d_32">
    <path d="M 257.625281 184.99821 
L 257.625281 182.371629 
" clip-path="url(#p959993419d)" style="fill: none; stroke: #000000"/>
   </g>
   <g id="line2d_33">
    <path d="M 298.753631 195.171319 
L 298.753631 193.598014 
" clip-path="url(#p959993419d)" style="fill: none; stroke: #000000"/>
   </g>
   <g id="line2d_34">
    <path d="M 339.88198 195.163864 
L 339.88198 194.507131 
" clip-path="url(#p959993419d)" style="fill: none; stroke: #000000"/>
   </g>
   <g id="PathCollection_5">
    <g clip-path="url(#p959993419d)">
     <use xlink:href="#m6592f70922" x="51.983535" y="30.98099" style="stroke: #000000"/>
     <use xlink:href="#m6592f70922" x="51.983535" y="26.944024" style="stroke: #000000"/>
    </g>
   </g>
   <g id="PathCollection_6">
    <g clip-path="url(#p959993419d)">
     <use xlink:href="#m6592f70922" x="93.111884" y="62.111082" style="stroke: #000000"/>
     <use xlink:href="#m6592f70922" x="93.111884" y="60.845476" style="stroke: #000000"/>
    </g>
   </g>
   <g id="PathCollection_7">
    <g clip-path="url(#p959993419d)">
     <use xlink:href="#m6592f70922" x="134.240233" y="90.395486" style="stroke: #000000"/>
     <use xlink:href="#m6592f70922" x="134.240233" y="89.347341" style="stroke: #000000"/>
    </g>
   </g>
   <g id="PathCollection_8">
    <g clip-path="url(#p959993419d)">
     <use xlink:href="#m6592f70922" x="175.368583" y="124.152881" style="stroke: #000000"/>
     <use xlink:href="#m6592f70922" x="175.368583" y="123.004324" style="stroke: #000000"/>
    </g>
   </g>
   <g id="PathCollection_9">
    <g clip-path="url(#p959993419d)">
     <use xlink:href="#m6592f70922" x="216.496932" y="161.336236" style="stroke: #000000"/>
     <use xlink:href="#m6592f70922" x="216.496932" y="159.534827" style="stroke: #000000"/>
    </g>
   </g>
   <g id="PathCollection_10">
    <g clip-path="url(#p959993419d)">
     <use xlink:href="#m6592f70922" x="257.625281" y="184.99821" style="stroke: #000000"/>
     <use xlink:href="#m6592f70922" x="257.625281" y="182.371629" style="stroke: #000000"/>
    </g>
   </g>
   <g id="PathCollection_11">
    <g clip-path="url(#p959993419d)">
     <use xlink:href="#m6592f70922" x="298.753631" y="195.171319" style="stroke: #000000"/>
     <use xlink:href="#m6592f70922" x="298.753631" y="193.598014" style="stroke: #000000"/>
    </g>
   </g>
   <g id="PathCollection_12">
    <g clip-path="url(#p959993419d)">
     <use xlink:href="#m6592f70922" x="339.88198" y="195.163864" style="stroke: #000000"/>
     <use xlink:href="#m6592f70922" x="339.88198" y="194.507131" style="stroke: #000000"/>
    </g>
   </g>
   <g id="line2d_35">
    <path d="M 51.983535 33.030034 
L 93.111884 66.744846 
L 134.240233 93.533906 
L 175.368583 121.183414 
L 216.496932 155.365329 
L 257.625281 198.391707 
L 298.753631 228.717697 
L 339.88198 246.203552 
L 381.010329 243.433015 
L 422.138679 241.953522 
" clip-path="url(#p959993419d)" style="fill: none; stroke: #c44e52"/>
   </g>
   <g id="line2d_36">
    <path d="M 51.983535 38.273658 
L 51.983535 28.323664 
" clip-path="url(#p959993419d)" style="fill: none; stroke: #000000"/>
   </g>
   <g id="line2d_37">
    <path d="M 93.111884 67.547053 
L 93.111884 65.956395 
" clip-path="url(#p959993419d)" style="fill: none; stroke: #000000"/>
   </g>
   <g id="line2d_38">
    <path d="M 134.240233 94.19261 
L 134.240233 92.884505 
" clip-path="url(#p959993419d)" style="fill: none; stroke: #000000"/>
   </g>
   <g id="line2d_39">
    <path d="M 175.368583 121.8597 
L 175.368583 120.516932 
" clip-path="url(#p959993419d)" style="fill: none; stroke: #000000"/>
   </g>
   <g id="line2d_40">
    <path d="M 216.496932 156.163427 
L 216.496932 154.580848 
" clip-path="url(#p959993419d)" style="fill: none; stroke: #000000"/>
   </g>
   <g id="line2d_41">
    <path d="M 257.625281 199.838145 
L 257.625281 196.989388 
" clip-path="url(#p959993419d)" style="fill: none; stroke: #000000"/>
   </g>
   <g id="line2d_42">
    <path d="M 298.753631 231.585074 
L 298.753631 226.018688 
" clip-path="url(#p959993419d)" style="fill: none; stroke: #000000"/>
   </g>
   <g id="line2d_43">
    <path d="M 339.88198 247.974674 
L 339.88198 244.498131 
" clip-path="url(#p959993419d)" style="fill: none; stroke: #000000"/>
   </g>
   <g id="line2d_44">
    <path d="M 381.010329 245.081857 
L 381.010329 241.84126 
" clip-path="url(#p959993419d)" style="fill: none; stroke: #000000"/>
   </g>
   <g id="line2d_45">
    <path d="M 422.138679 243.540719 
L 422.138679 240.419292 
" clip-path="url(#p959993419d)" style="fill: none; stroke: #000000"/>
   </g>
   <g id="PathCollection_13">
    <g clip-path="url(#p959993419d)">
     <use xlink:href="#m6592f70922" x="51.983535" y="38.273658" style="stroke: #000000"/>
     <use xlink:href="#m6592f70922" x="51.983535" y="28.323664" style="stroke: #000000"/>
    </g>
   </g>
   <g id="PathCollection_14">
    <g clip-path="url(#p959993419d)">
     <use xlink:href="#m6592f70922" x="93.111884" y="67.547053" style="stroke: #000000"/>
     <use xlink:href="#m6592f70922" x="93.111884" y="65.956395" style="stroke: #000000"/>
    </g>
   </g>
   <g id="PathCollection_15">
    <g clip-path="url(#p959993419d)">
     <use xlink:href="#m6592f70922" x="134.240233" y="94.19261" style="stroke: #000000"/>
     <use xlink:href="#m6592f70922" x="134.240233" y="92.884505" style="stroke: #000000"/>
    </g>
   </g>
   <g id="PathCollection_16">
    <g clip-path="url(#p959993419d)">
     <use xlink:href="#m6592f70922" x="175.368583" y="121.8597" style="stroke: #000000"/>
     <use xlink:href="#m6592f70922" x="175.368583" y="120.516932" style="stroke: #000000"/>
    </g>
   </g>
   <g id="PathCollection_17">
    <g clip-path="url(#p959993419d)">
     <use xlink:href="#m6592f70922" x="216.496932" y="156.163427" style="stroke: #000000"/>
     <use xlink:href="#m6592f70922" x="216.496932" y="154.580848" style="stroke: #000000"/>
    </g>
   </g>
   <g id="PathCollection_18">
    <g clip-path="url(#p959993419d)">
     <use xlink:href="#m6592f70922" x="257.625281" y="199.838145" style="stroke: #000000"/>
     <use xlink:href="#m6592f70922" x="257.625281" y="196.989388" style="stroke: #000000"/>
    </g>
   </g>
   <g id="PathCollection_19">
    <g clip-path="url(#p959993419d)">
     <use xlink:href="#m6592f70922" x="298.753631" y="231.585074" style="stroke: #000000"/>
     <use xlink:href="#m6592f70922" x="298.753631" y="226.018688" style="stroke: #000000"/>
    </g>
   </g>
   <g id="PathCollection_20">
    <g clip-path="url(#p959993419d)">
     <use xlink:href="#m6592f70922" x="339.88198" y="247.974674" style="stroke: #000000"/>
     <use xlink:href="#m6592f70922" x="339.88198" y="244.498131" style="stroke: #000000"/>
    </g>
   </g>
   <g id="PathCollection_21">
    <g clip-path="url(#p959993419d)">
     <use xlink:href="#m6592f70922" x="381.010329" y="245.081857" style="stroke: #000000"/>
     <use xlink:href="#m6592f70922" x="381.010329" y="241.84126" style="stroke: #000000"/>
    </g>
   </g>
   <g id="PathCollection_22">
    <g clip-path="url(#p959993419d)">
     <use xlink:href="#m6592f70922" x="422.138679" y="243.540719" style="stroke: #000000"/>
     <use xlink:href="#m6592f70922" x="422.138679" y="240.419292" style="stroke: #000000"/>
    </g>
   </g>
   <g id="legend_1">
    <g id="patch_7">
     <path d="M 309.851514 123.747146 
L 421.251514 123.747146 
L 421.251514 24.634646 
L 309.851514 24.634646 
z
" style="fill: #ffffff; stroke: #000000; stroke-linejoin: miter"/>
    </g>
    <g id="line2d_46">
     <path d="M 317.851514 36.734646 
L 327.851514 36.734646 
L 337.851514 36.734646 
" style="fill: none; stroke-dasharray: 4.625,2; stroke-dashoffset: 0; stroke: #8c8c8c; stroke-width: 1.25; stroke-linejoin: miter"/>
    </g>
    <g id="text_11">
     <!-- $c_1\exp(-\gamma_1 N)$ -->
     <g transform="translate(345.851514 40.234646) scale(0.1 -0.1)">
      <defs>
       <path id="DejaVuSans-Oblique-63" d="M 3431 3366 
L 3316 2797 
Q 3109 2947 2876 3022 
Q 2644 3097 2394 3097 
Q 2119 3097 1870 3000 
Q 1622 2903 1453 2725 
Q 1184 2453 1037 2087 
Q 891 1722 891 1331 
Q 891 859 1127 628 
Q 1363 397 1844 397 
Q 2081 397 2348 469 
Q 2616 541 2906 684 
L 2797 116 
Q 2547 13 2283 -39 
Q 2019 -91 1741 -91 
Q 1044 -91 669 257 
Q 294 606 294 1253 
Q 294 1797 489 2255 
Q 684 2713 1069 3078 
Q 1331 3328 1684 3456 
Q 2038 3584 2456 3584 
Q 2700 3584 2940 3529 
Q 3181 3475 3431 3366 
z
" transform="scale(0.015625)"/>
       <path id="DejaVuSans-31" d="M 794 531 
L 1825 531 
L 1825 4091 
L 703 3866 
L 703 4441 
L 1819 4666 
L 2450 4666 
L 2450 531 
L 3481 531 
L 3481 0 
L 794 0 
L 794 531 
z
" transform="scale(0.015625)"/>
       <path id="DejaVuSans-65" d="M 3597 1894 
L 3597 1613 
L 953 1613 
Q 991 1019 1311 708 
Q 1631 397 2203 397 
Q 2534 397 2845 478 
Q 3156 559 3463 722 
L 3463 178 
Q 3153 47 2828 -22 
Q 2503 -91 2169 -91 
Q 1331 -91 842 396 
Q 353 884 353 1716 
Q 353 2575 817 3079 
Q 1281 3584 2069 3584 
Q 2775 3584 3186 3129 
Q 3597 2675 3597 1894 
z
M 3022 2063 
Q 3016 2534 2758 2815 
Q 2500 3097 2075 3097 
Q 1594 3097 1305 2825 
Q 1016 2553 972 2059 
L 3022 2063 
z
" transform="scale(0.015625)"/>
       <path id="DejaVuSans-78" d="M 3513 3500 
L 2247 1797 
L 3578 0 
L 2900 0 
L 1881 1375 
L 863 0 
L 184 0 
L 1544 1831 
L 300 3500 
L 978 3500 
L 1906 2253 
L 2834 3500 
L 3513 3500 
z
" transform="scale(0.015625)"/>
       <path id="DejaVuSans-70" d="M 1159 525 
L 1159 -1331 
L 581 -1331 
L 581 3500 
L 1159 3500 
L 1159 2969 
Q 1341 3281 1617 3432 
Q 1894 3584 2278 3584 
Q 2916 3584 3314 3078 
Q 3713 2572 3713 1747 
Q 3713 922 3314 415 
Q 2916 -91 2278 -91 
Q 1894 -91 1617 61 
Q 1341 213 1159 525 
z
M 3116 1747 
Q 3116 2381 2855 2742 
Q 2594 3103 2138 3103 
Q 1681 3103 1420 2742 
Q 1159 2381 1159 1747 
Q 1159 1113 1420 752 
Q 1681 391 2138 391 
Q 2594 391 2855 752 
Q 3116 1113 3116 1747 
z
" transform="scale(0.015625)"/>
       <path id="DejaVuSans-28" d="M 1984 4856 
Q 1566 4138 1362 3434 
Q 1159 2731 1159 2009 
Q 1159 1288 1364 580 
Q 1569 -128 1984 -844 
L 1484 -844 
Q 1016 -109 783 600 
Q 550 1309 550 2009 
Q 550 2706 781 3412 
Q 1013 4119 1484 4856 
L 1984 4856 
z
" transform="scale(0.015625)"/>
       <path id="DejaVuSans-2212" d="M 678 2272 
L 4684 2272 
L 4684 1741 
L 678 1741 
L 678 2272 
z
" transform="scale(0.015625)"/>
       <path id="DejaVuSans-Oblique-3b3" d="M 1491 2950 
L 1838 788 
L 3456 3500 
L 4066 3500 
L 1972 0 
L 1713 -1331 
L 1138 -1331 
L 1397 0 
L 988 2613 
Q 925 3006 628 3006 
L 475 3006 
L 569 3500 
L 788 3500 
Q 1403 3500 1491 2950 
z
" transform="scale(0.015625)"/>
       <path id="DejaVuSans-Oblique-4e" d="M 1081 4666 
L 1931 4666 
L 3219 666 
L 4000 4666 
L 4616 4666 
L 3706 0 
L 2853 0 
L 1569 4025 
L 788 0 
L 172 0 
L 1081 4666 
z
" transform="scale(0.015625)"/>
       <path id="DejaVuSans-29" d="M 513 4856 
L 1013 4856 
Q 1481 4119 1714 3412 
Q 1947 2706 1947 2009 
Q 1947 1309 1714 600 
Q 1481 -109 1013 -844 
L 513 -844 
Q 928 -128 1133 580 
Q 1338 1288 1338 2009 
Q 1338 2731 1133 3434 
Q 928 4138 513 4856 
z
" transform="scale(0.015625)"/>
      </defs>
      <use xlink:href="#DejaVuSans-Oblique-63" transform="translate(0 0.125)"/>
      <use xlink:href="#DejaVuSans-31" transform="translate(54.980469 -16.28125) scale(0.7)"/>
      <use xlink:href="#DejaVuSans-65" transform="translate(102.250977 0.125)"/>
      <use xlink:href="#DejaVuSans-78" transform="translate(163.774414 0.125)"/>
      <use xlink:href="#DejaVuSans-70" transform="translate(222.954102 0.125)"/>
      <use xlink:href="#DejaVuSans-28" transform="translate(286.430664 0.125)"/>
      <use xlink:href="#DejaVuSans-2212" transform="translate(325.444336 0.125)"/>
      <use xlink:href="#DejaVuSans-Oblique-3b3" transform="translate(409.233398 0.125)"/>
      <use xlink:href="#DejaVuSans-31" transform="translate(468.413086 -16.28125) scale(0.7)"/>
      <use xlink:href="#DejaVuSans-Oblique-4e" transform="translate(515.683594 0.125)"/>
      <use xlink:href="#DejaVuSans-29" transform="translate(590.488281 0.125)"/>
     </g>
    </g>
    <g id="line2d_47">
     <path d="M 317.851514 51.434646 
L 327.851514 51.434646 
L 337.851514 51.434646 
" style="fill: none; stroke-dasharray: 4.625,2; stroke-dashoffset: 0; stroke: #8c8c8c; stroke-width: 1.25; stroke-linejoin: miter"/>
    </g>
    <g id="text_12">
     <!-- $c_2\exp(-\gamma_2 n_H)$ -->
     <g transform="translate(345.851514 54.934646) scale(0.1 -0.1)">
      <defs>
       <path id="DejaVuSans-32" d="M 1228 531 
L 3431 531 
L 3431 0 
L 469 0 
L 469 531 
Q 828 903 1448 1529 
Q 2069 2156 2228 2338 
Q 2531 2678 2651 2914 
Q 2772 3150 2772 3378 
Q 2772 3750 2511 3984 
Q 2250 4219 1831 4219 
Q 1534 4219 1204 4116 
Q 875 4013 500 3803 
L 500 4441 
Q 881 4594 1212 4672 
Q 1544 4750 1819 4750 
Q 2544 4750 2975 4387 
Q 3406 4025 3406 3419 
Q 3406 3131 3298 2873 
Q 3191 2616 2906 2266 
Q 2828 2175 2409 1742 
Q 1991 1309 1228 531 
z
" transform="scale(0.015625)"/>
       <path id="DejaVuSans-Oblique-6e" d="M 3566 2113 
L 3156 0 
L 2578 0 
L 2988 2091 
Q 3016 2238 3031 2350 
Q 3047 2463 3047 2528 
Q 3047 2791 2881 2937 
Q 2716 3084 2419 3084 
Q 1956 3084 1622 2776 
Q 1288 2469 1184 1941 
L 800 0 
L 225 0 
L 903 3500 
L 1478 3500 
L 1363 2950 
Q 1603 3253 1940 3418 
Q 2278 3584 2650 3584 
Q 3113 3584 3367 3334 
Q 3622 3084 3622 2631 
Q 3622 2519 3608 2391 
Q 3594 2263 3566 2113 
z
" transform="scale(0.015625)"/>
       <path id="DejaVuSans-Oblique-48" d="M 1081 4666 
L 1716 4666 
L 1344 2753 
L 3634 2753 
L 4006 4666 
L 4641 4666 
L 3731 0 
L 3097 0 
L 3531 2222 
L 1241 2222 
L 806 0 
L 172 0 
L 1081 4666 
z
" transform="scale(0.015625)"/>
      </defs>
      <use xlink:href="#DejaVuSans-Oblique-63" transform="translate(0 0.125)"/>
      <use xlink:href="#DejaVuSans-32" transform="translate(54.980469 -16.28125) scale(0.7)"/>
      <use xlink:href="#DejaVuSans-65" transform="translate(102.250977 0.125)"/>
      <use xlink:href="#DejaVuSans-78" transform="translate(163.774414 0.125)"/>
      <use xlink:href="#DejaVuSans-70" transform="translate(222.954102 0.125)"/>
      <use xlink:href="#DejaVuSans-28" transform="translate(286.430664 0.125)"/>
      <use xlink:href="#DejaVuSans-2212" transform="translate(325.444336 0.125)"/>
      <use xlink:href="#DejaVuSans-Oblique-3b3" transform="translate(409.233398 0.125)"/>
      <use xlink:href="#DejaVuSans-32" transform="translate(468.413086 -16.28125) scale(0.7)"/>
      <use xlink:href="#DejaVuSans-Oblique-6e" transform="translate(515.683594 0.125)"/>
      <use xlink:href="#DejaVuSans-Oblique-48" transform="translate(579.0625 -16.28125) scale(0.7)"/>
      <use xlink:href="#DejaVuSans-29" transform="translate(634.433594 0.125)"/>
     </g>
    </g>
    <g id="line2d_48">
     <path d="M 317.851514 66.133083 
L 327.851514 66.133083 
L 337.851514 66.133083 
" style="fill: none; stroke: #4c72b0; stroke-width: 1.25; stroke-linejoin: miter"/>
    </g>
    <g id="text_13">
     <!-- N=6 -->
     <g transform="translate(345.851514 69.633083) scale(0.1 -0.1)">
      <defs>
       <path id="DejaVuSerif-4e" d="M 313 0 
L 313 331 
L 941 331 
L 941 4331 
L 313 4331 
L 313 4666 
L 1509 4666 
L 4306 984 
L 4306 4331 
L 3681 4331 
L 3681 4666 
L 5319 4666 
L 5319 4331 
L 4691 4331 
L 4691 -91 
L 4313 -91 
L 1325 3841 
L 1325 331 
L 1953 331 
L 1953 0 
L 313 0 
z
" transform="scale(0.015625)"/>
      </defs>
      <use xlink:href="#DejaVuSerif-4e"/>
      <use xlink:href="#DejaVuSerif-3d" x="87.5"/>
      <use xlink:href="#DejaVuSerif-36" x="171.289062"/>
     </g>
    </g>
    <g id="line2d_49">
     <path d="M 317.851514 80.811208 
L 327.851514 80.811208 
L 337.851514 80.811208 
" style="fill: none; stroke: #dd8452; stroke-width: 1.25; stroke-linejoin: miter"/>
    </g>
    <g id="text_14">
     <!-- N=8 -->
     <g transform="translate(345.851514 84.311208) scale(0.1 -0.1)">
      <use xlink:href="#DejaVuSerif-4e"/>
      <use xlink:href="#DejaVuSerif-3d" x="87.5"/>
      <use xlink:href="#DejaVuSerif-38" x="171.289062"/>
     </g>
    </g>
    <g id="line2d_50">
     <path d="M 317.851514 95.489333 
L 327.851514 95.489333 
L 337.851514 95.489333 
" style="fill: none; stroke: #55a868; stroke-width: 1.25; stroke-linejoin: miter"/>
    </g>
    <g id="text_15">
     <!-- N=10 -->
     <g transform="translate(345.851514 98.989333) scale(0.1 -0.1)">
      <use xlink:href="#DejaVuSerif-4e"/>
      <use xlink:href="#DejaVuSerif-3d" x="87.5"/>
      <use xlink:href="#DejaVuSerif-31" x="171.289062"/>
      <use xlink:href="#DejaVuSerif-30" x="234.912109"/>
     </g>
    </g>
    <g id="line2d_51">
     <path d="M 317.851514 110.167458 
L 327.851514 110.167458 
L 337.851514 110.167458 
" style="fill: none; stroke: #c44e52; stroke-width: 1.25; stroke-linejoin: miter"/>
    </g>
    <g id="text_16">
     <!-- N=12 -->
     <g transform="translate(345.851514 113.667458) scale(0.1 -0.1)">
      <use xlink:href="#DejaVuSerif-4e"/>
      <use xlink:href="#DejaVuSerif-3d" x="87.5"/>
      <use xlink:href="#DejaVuSerif-31" x="171.289062"/>
      <use xlink:href="#DejaVuSerif-32" x="234.912109"/>
     </g>
    </g>
   </g>
  </g>
 </g>
 <defs>
  <clipPath id="p959993419d">
   <rect x="47.8707" y="19.634646" width="378.380814" height="234.990709"/>
  </clipPath>
 </defs>
</svg>
