<?xml version="1.0" encoding="utf-8" standalone="no"?>
<!DOCTYPE svg PUBLIC "-//W3C//DTD SVG 1.1//EN"
  "http://www.w3.org/Graphics/SVG/1.1/DTD/svg11.dtd">
<svg xmlns:xlink="http://www.w3.org/1999/xlink" width="432pt" height="288pt" viewBox="0 0 432 288" xmlns="http://www.w3.org/2000/svg" version="1.1">
 <metadata>
  <rdf:RDF xmlns:dc="http://purl.org/dc/elements/1.1/" xmlns:cc="http://creativecommons.org/ns#" xmlns:rdf="http://www.w3.org/1999/02/22-rdf-syntax-ns#">
   <cc:Work>
    <dc:type rdf:resource="http://purl.org/dc/dcmitype/StillImage"/>
    <dc:date>2024-07-26T12:21:08.343123</dc:date>
    <dc:format>image/svg+xml</dc:format>
    <dc:creator>
     <cc:Agent>
      <dc:title>Matplotlib v3.9.1, https://matplotlib.org/</dc:title>
     </cc:Agent>
    </dc:creator>
   </cc:Work>
  </rdf:RDF>
 </metadata>
 <defs>
  <style type="text/css">*{stroke-linejoin: round; stroke-linecap: butt}</style>
 </defs>
 <g id="figure_1">
  <g id="patch_1">
   <path d="M 0 288 
L 432 288 
L 432 0 
L 0 0 
z
" style="fill: #ffffff"/>
  </g>
  <g id="axes_1">
   <g id="patch_2">
    <path d="M 57.44112 241.085354 
L 429.165354 241.085354 
L 429.165354 2.834646 
L 57.44112 2.834646 
z
" style="fill: #ffffff"/>
   </g>
   <g id="line2d_1">
    <path d="M 67.961617 11.999645 
L 71.417476 12.010989 
L 74.873334 12.045021 
L 78.329193 12.101755 
L 81.785051 12.181205 
L 85.24091 12.283398 
L 88.696768 12.408364 
L 92.152627 12.556142 
L 95.608485 12.726777 
L 99.064344 12.920323 
L 102.520202 13.13684 
L 105.976061 13.376394 
L 109.431919 13.639061 
L 112.887778 13.924924 
L 116.343636 14.234074 
L 119.799495 14.566607 
L 123.255353 14.922631 
L 126.711212 15.30226 
L 130.16707 15.705618 
L 133.622929 16.132835 
L 137.078787 16.584052 
L 140.534646 17.059419 
L 143.990504 17.559094 
L 147.446363 18.083247 
L 150.902221 18.632055 
L 154.35808 19.205707 
L 157.813938 19.804402 
L 161.269797 20.428351 
L 164.725655 21.077776 
L 168.181514 21.752909 
L 171.637372 22.453997 
L 175.09323 23.181299 
L 178.549089 23.935085 
L 182.004947 24.715641 
L 185.460806 25.523269 
L 188.916664 26.358282 
L 192.372523 27.221013 
L 195.828381 28.11181 
L 199.28424 29.031037 
L 202.740098 29.979078 
L 206.195957 30.956336 
L 209.651815 31.963235 
L 213.107674 33.000219 
L 216.563532 34.067755 
L 220.019391 35.166335 
L 223.475249 36.296475 
L 226.931108 37.458719 
L 230.386966 38.653639 
L 233.842825 39.881836 
L 237.298683 41.143947 
L 240.754542 42.44064 
L 244.2104 43.77262 
L 247.666259 45.140634 
L 251.122117 46.545468 
L 254.577976 47.987955 
L 258.033834 49.468977 
L 261.489693 50.989468 
L 264.945551 52.550417 
L 268.40141 54.152876 
L 271.857268 55.797964 
L 275.313127 57.486868 
L 278.768985 59.220858 
L 282.224843 61.001287 
L 285.680702 62.829599 
L 289.13656 64.707344 
L 292.592419 66.636183 
L 296.048277 68.617898 
L 299.504136 70.654411 
L 302.959994 72.747793 
L 306.415853 74.900285 
L 309.871711 77.114313 
L 313.32757 79.392516 
L 316.783428 81.737768 
L 320.239287 84.15321 
L 323.695145 86.642285 
L 327.151004 89.208782 
L 330.606862 91.856884 
L 334.062721 94.591231 
L 337.518579 97.416988 
L 340.974438 100.339939 
L 344.430296 103.366591 
L 347.886155 106.504309 
L 351.342013 109.761484 
L 354.797872 113.147748 
L 358.25373 116.674245 
L 361.709589 120.353989 
L 365.165447 124.20234 
L 368.621306 128.237641 
L 372.077164 132.482109 
L 375.533023 136.963091 
L 378.988881 141.714905 
L 382.44474 146.781634 
L 385.900598 152.221546 
L 389.356456 158.114494 
L 392.812315 164.575183 
L 396.268173 171.779251 
L 399.724032 180.021662 
L 403.17989 189.876126 
L 406.635749 202.81989 
L 410.091607 234.34241 
" clip-path="url(#p6f54561d33)" style="fill: none; stroke-dasharray: 11.1,4.8; stroke-dashoffset: 0; stroke: #000000; stroke-width: 3"/>
   </g>
   <g id="matplotlib.axis_1">
    <g id="xtick_1">
     <g id="line2d_2">
      <defs>
       <path id="mb47c1f44da" d="M 0 0 
L 0 -2.5 
" style="stroke: #000000; stroke-width: 0.5"/>
      </defs>
      <g>
       <use xlink:href="#mb47c1f44da" x="67.961617" y="241.085354" style="stroke: #000000; stroke-width: 0.5"/>
      </g>
     </g>
     <g id="line2d_3">
      <defs>
       <path id="m290408c4f1" d="M 0 0 
L 0 2.5 
" style="stroke: #000000; stroke-width: 0.5"/>
      </defs>
      <g>
       <use xlink:href="#m290408c4f1" x="67.961617" y="2.834646" style="stroke: #000000; stroke-width: 0.5"/>
      </g>
     </g>
     <g id="text_1">
      <!-- $0.0$ -->
      <g transform="translate(59.961617 252.183792) scale(0.1 -0.1)">
       <defs>
        <path id="DejaVuSerif-30" d="M 2034 219 
Q 2513 219 2750 744 
Q 2988 1269 2988 2328 
Q 2988 3391 2750 3916 
Q 2513 4441 2034 4441 
Q 1556 4441 1318 3916 
Q 1081 3391 1081 2328 
Q 1081 1269 1318 744 
Q 1556 219 2034 219 
z
M 2034 -91 
Q 1275 -91 848 546 
Q 422 1184 422 2328 
Q 422 3475 848 4112 
Q 1275 4750 2034 4750 
Q 2797 4750 3222 4112 
Q 3647 3475 3647 2328 
Q 3647 1184 3222 546 
Q 2797 -91 2034 -91 
z
" transform="scale(0.015625)"/>
        <path id="DejaVuSerif-2e" d="M 603 325 
Q 603 500 722 622 
Q 841 744 1019 744 
Q 1191 744 1312 622 
Q 1434 500 1434 325 
Q 1434 153 1312 31 
Q 1191 -91 1019 -91 
Q 841 -91 722 29 
Q 603 150 603 325 
z
" transform="scale(0.015625)"/>
       </defs>
       <use xlink:href="#DejaVuSerif-30" transform="translate(0 0.78125)"/>
       <use xlink:href="#DejaVuSerif-2e" transform="translate(63.623047 0.78125)"/>
       <use xlink:href="#DejaVuSerif-30" transform="translate(95.410156 0.78125)"/>
      </g>
     </g>
    </g>
    <g id="xtick_2">
     <g id="line2d_4">
      <g>
       <use xlink:href="#mb47c1f44da" x="153.494115" y="241.085354" style="stroke: #000000; stroke-width: 0.5"/>
      </g>
     </g>
     <g id="line2d_5">
      <g>
       <use xlink:href="#m290408c4f1" x="153.494115" y="2.834646" style="stroke: #000000; stroke-width: 0.5"/>
      </g>
     </g>
     <g id="text_2">
      <!-- $0.5$ -->
      <g transform="translate(145.494115 252.183792) scale(0.1 -0.1)">
       <defs>
        <path id="DejaVuSerif-35" d="M 3219 4666 
L 3219 4153 
L 1081 4153 
L 1081 2816 
Q 1244 2928 1461 2984 
Q 1678 3041 1947 3041 
Q 2703 3041 3140 2622 
Q 3578 2203 3578 1478 
Q 3578 738 3136 323 
Q 2694 -91 1894 -91 
Q 1572 -91 1234 -12 
Q 897 66 544 225 
L 544 1131 
L 897 1131 
Q 925 688 1179 453 
Q 1434 219 1894 219 
Q 2388 219 2653 544 
Q 2919 869 2919 1478 
Q 2919 2084 2655 2407 
Q 2391 2731 1894 2731 
Q 1613 2731 1398 2631 
Q 1184 2531 1019 2322 
L 750 2322 
L 750 4666 
L 3219 4666 
z
" transform="scale(0.015625)"/>
       </defs>
       <use xlink:href="#DejaVuSerif-30" transform="translate(0 0.78125)"/>
       <use xlink:href="#DejaVuSerif-2e" transform="translate(63.623047 0.78125)"/>
       <use xlink:href="#DejaVuSerif-35" transform="translate(95.410156 0.78125)"/>
      </g>
     </g>
    </g>
    <g id="xtick_3">
     <g id="line2d_6">
      <g>
       <use xlink:href="#mb47c1f44da" x="239.026612" y="241.085354" style="stroke: #000000; stroke-width: 0.5"/>
      </g>
     </g>
     <g id="line2d_7">
      <g>
       <use xlink:href="#m290408c4f1" x="239.026612" y="2.834646" style="stroke: #000000; stroke-width: 0.5"/>
      </g>
     </g>
     <g id="text_3">
      <!-- $1.0$ -->
      <g transform="translate(231.026612 252.183792) scale(0.1 -0.1)">
       <defs>
        <path id="DejaVuSerif-31" d="M 909 0 
L 909 331 
L 1722 331 
L 1722 4213 
L 781 3603 
L 781 4013 
L 1919 4750 
L 2350 4750 
L 2350 331 
L 3163 331 
L 3163 0 
L 909 0 
z
" transform="scale(0.015625)"/>
       </defs>
       <use xlink:href="#DejaVuSerif-31" transform="translate(0 0.78125)"/>
       <use xlink:href="#DejaVuSerif-2e" transform="translate(63.623047 0.78125)"/>
       <use xlink:href="#DejaVuSerif-30" transform="translate(95.410156 0.78125)"/>
      </g>
     </g>
    </g>
    <g id="xtick_4">
     <g id="line2d_8">
      <g>
       <use xlink:href="#mb47c1f44da" x="324.55911" y="241.085354" style="stroke: #000000; stroke-width: 0.5"/>
      </g>
     </g>
     <g id="line2d_9">
      <g>
       <use xlink:href="#m290408c4f1" x="324.55911" y="2.834646" style="stroke: #000000; stroke-width: 0.5"/>
      </g>
     </g>
     <g id="text_4">
      <!-- $1.5$ -->
      <g transform="translate(316.55911 252.183792) scale(0.1 -0.1)">
       <use xlink:href="#DejaVuSerif-31" transform="translate(0 0.78125)"/>
       <use xlink:href="#DejaVuSerif-2e" transform="translate(63.623047 0.78125)"/>
       <use xlink:href="#DejaVuSerif-35" transform="translate(95.410156 0.78125)"/>
      </g>
     </g>
    </g>
    <g id="xtick_5">
     <g id="line2d_10">
      <g>
       <use xlink:href="#mb47c1f44da" x="410.091607" y="241.085354" style="stroke: #000000; stroke-width: 0.5"/>
      </g>
     </g>
     <g id="line2d_11">
      <g>
       <use xlink:href="#m290408c4f1" x="410.091607" y="2.834646" style="stroke: #000000; stroke-width: 0.5"/>
      </g>
     </g>
     <g id="text_5">
      <!-- $2.0$ -->
      <g transform="translate(402.091607 252.183792) scale(0.1 -0.1)">
       <defs>
        <path id="DejaVuSerif-32" d="M 819 3553 
L 469 3553 
L 469 4384 
Q 803 4563 1142 4656 
Q 1481 4750 1806 4750 
Q 2534 4750 2956 4397 
Q 3378 4044 3378 3438 
Q 3378 2753 2422 1800 
Q 2347 1728 2309 1691 
L 1131 513 
L 3078 513 
L 3078 1088 
L 3444 1088 
L 3444 0 
L 434 0 
L 434 341 
L 1850 1753 
Q 2319 2222 2519 2614 
Q 2719 3006 2719 3438 
Q 2719 3909 2473 4175 
Q 2228 4441 1797 4441 
Q 1350 4441 1106 4219 
Q 863 3997 819 3553 
z
" transform="scale(0.015625)"/>
       </defs>
       <use xlink:href="#DejaVuSerif-32" transform="translate(0 0.78125)"/>
       <use xlink:href="#DejaVuSerif-2e" transform="translate(63.623047 0.78125)"/>
       <use xlink:href="#DejaVuSerif-30" transform="translate(95.410156 0.78125)"/>
      </g>
     </g>
    </g>
    <g id="text_6">
     <!-- $\sqrt{\lambda}$ -->
     <g transform="translate(228.203237 276.904104) scale(0.2 -0.2)">
      <defs>
       <path id="STIXSizeOneSym-Regular-221a" d="M 6970 9933 
L 3373 -1888 
L 3104 -1888 
L 1626 2918 
Q 1555 3149 1465 3251 
Q 1376 3354 1229 3354 
Q 1011 3354 794 3181 
L 717 3309 
L 1766 4115 
L 1926 4115 
L 3379 -602 
L 3405 -602 
L 6605 9933 
L 6970 9933 
z
" transform="scale(0.015625)"/>
       <path id="DejaVuSerif-Italic-3bb" d="M 1984 4084 
Q 1925 4372 1834 4466 
Q 1744 4563 1578 4563 
Q 1391 4563 1288 4472 
Q 1178 4378 1119 4166 
L 825 4166 
L 947 4800 
Q 1113 4847 1272 4872 
Q 1431 4897 1578 4897 
Q 1925 4897 2088 4753 
Q 2253 4613 2334 4225 
L 3100 334 
L 3472 334 
L 3406 0 
L 2159 0 
L 2225 334 
L 2722 334 
L 2281 2628 
L 853 334 
L 1384 334 
L 1319 0 
L -209 0 
L -144 334 
L 234 334 
L 2116 3388 
L 1984 4084 
z
" transform="scale(0.015625)"/>
      </defs>
      <use xlink:href="#STIXSizeOneSym-Regular-221a" transform="translate(0 17.984375) scale(0.583453)"/>
      <use xlink:href="#DejaVuSerif-Italic-3bb" transform="translate(74.202362 1.234375)"/>
      <path d="M 61.702362 101.5 
L 61.702362 107.75 
L 150.081268 107.75 
L 150.081268 101.5 
L 61.702362 101.5 
z
"/>
     </g>
    </g>
   </g>
   <g id="matplotlib.axis_2">
    <g id="ytick_1">
     <g id="line2d_12">
      <defs>
       <path id="mab46be2d26" d="M 0 0 
L 2.5 0 
" style="stroke: #000000; stroke-width: 0.5"/>
      </defs>
      <g>
       <use xlink:href="#mab46be2d26" x="57.44112" y="234.34241" style="stroke: #000000; stroke-width: 0.5"/>
      </g>
     </g>
     <g id="line2d_13">
      <defs>
       <path id="m3f4a7f736a" d="M 0 0 
L -2.5 0 
" style="stroke: #000000; stroke-width: 0.5"/>
      </defs>
      <g>
       <use xlink:href="#m3f4a7f736a" x="429.165354" y="234.34241" style="stroke: #000000; stroke-width: 0.5"/>
      </g>
     </g>
     <g id="text_7">
      <!-- $0.0$ -->
      <g transform="translate(37.94112 238.141628) scale(0.1 -0.1)">
       <use xlink:href="#DejaVuSerif-30" transform="translate(0 0.78125)"/>
       <use xlink:href="#DejaVuSerif-2e" transform="translate(63.623047 0.78125)"/>
       <use xlink:href="#DejaVuSerif-30" transform="translate(95.410156 0.78125)"/>
      </g>
     </g>
    </g>
    <g id="ytick_2">
     <g id="line2d_14">
      <g>
       <use xlink:href="#mab46be2d26" x="57.44112" y="199.41689" style="stroke: #000000; stroke-width: 0.5"/>
      </g>
     </g>
     <g id="line2d_15">
      <g>
       <use xlink:href="#m3f4a7f736a" x="429.165354" y="199.41689" style="stroke: #000000; stroke-width: 0.5"/>
      </g>
     </g>
     <g id="text_8">
      <!-- $0.1$ -->
      <g transform="translate(37.94112 203.216109) scale(0.1 -0.1)">
       <use xlink:href="#DejaVuSerif-30" transform="translate(0 0.78125)"/>
       <use xlink:href="#DejaVuSerif-2e" transform="translate(63.623047 0.78125)"/>
       <use xlink:href="#DejaVuSerif-31" transform="translate(95.410156 0.78125)"/>
      </g>
     </g>
    </g>
    <g id="ytick_3">
     <g id="line2d_16">
      <g>
       <use xlink:href="#mab46be2d26" x="57.44112" y="164.49137" style="stroke: #000000; stroke-width: 0.5"/>
      </g>
     </g>
     <g id="line2d_17">
      <g>
       <use xlink:href="#m3f4a7f736a" x="429.165354" y="164.49137" style="stroke: #000000; stroke-width: 0.5"/>
      </g>
     </g>
     <g id="text_9">
      <!-- $0.2$ -->
      <g transform="translate(38.24112 168.290589) scale(0.1 -0.1)">
       <use xlink:href="#DejaVuSerif-30" transform="translate(0 0.78125)"/>
       <use xlink:href="#DejaVuSerif-2e" transform="translate(63.623047 0.78125)"/>
       <use xlink:href="#DejaVuSerif-32" transform="translate(92.785156 0.78125)"/>
      </g>
     </g>
    </g>
    <g id="ytick_4">
     <g id="line2d_18">
      <g>
       <use xlink:href="#mab46be2d26" x="57.44112" y="129.56585" style="stroke: #000000; stroke-width: 0.5"/>
      </g>
     </g>
     <g id="line2d_19">
      <g>
       <use xlink:href="#m3f4a7f736a" x="429.165354" y="129.56585" style="stroke: #000000; stroke-width: 0.5"/>
      </g>
     </g>
     <g id="text_10">
      <!-- $0.3$ -->
      <g transform="translate(37.94112 133.365069) scale(0.1 -0.1)">
       <defs>
        <path id="DejaVuSerif-33" d="M 622 4469 
Q 988 4606 1323 4678 
Q 1659 4750 1953 4750 
Q 2638 4750 3022 4454 
Q 3406 4159 3406 3634 
Q 3406 3213 3140 2930 
Q 2875 2647 2388 2547 
Q 2963 2466 3280 2130 
Q 3597 1794 3597 1259 
Q 3597 606 3158 257 
Q 2719 -91 1894 -91 
Q 1528 -91 1179 -12 
Q 831 66 488 225 
L 488 1131 
L 838 1131 
Q 869 681 1141 450 
Q 1413 219 1906 219 
Q 2384 219 2661 495 
Q 2938 772 2938 1253 
Q 2938 1803 2653 2086 
Q 2369 2369 1819 2369 
L 1522 2369 
L 1522 2688 
L 1678 2688 
Q 2225 2688 2498 2914 
Q 2772 3141 2772 3597 
Q 2772 4006 2547 4223 
Q 2322 4441 1900 4441 
Q 1478 4441 1245 4241 
Q 1013 4041 972 3647 
L 622 3647 
L 622 4469 
z
" transform="scale(0.015625)"/>
       </defs>
       <use xlink:href="#DejaVuSerif-30" transform="translate(0 0.78125)"/>
       <use xlink:href="#DejaVuSerif-2e" transform="translate(63.623047 0.78125)"/>
       <use xlink:href="#DejaVuSerif-33" transform="translate(95.410156 0.78125)"/>
      </g>
     </g>
    </g>
    <g id="ytick_5">
     <g id="line2d_20">
      <g>
       <use xlink:href="#mab46be2d26" x="57.44112" y="94.640331" style="stroke: #000000; stroke-width: 0.5"/>
      </g>
     </g>
     <g id="line2d_21">
      <g>
       <use xlink:href="#m3f4a7f736a" x="429.165354" y="94.640331" style="stroke: #000000; stroke-width: 0.5"/>
      </g>
     </g>
     <g id="text_11">
      <!-- $0.4$ -->
      <g transform="translate(37.94112 98.439549) scale(0.1 -0.1)">
       <defs>
        <path id="DejaVuSerif-34" d="M 2234 1581 
L 2234 4063 
L 641 1581 
L 2234 1581 
z
M 3609 0 
L 1484 0 
L 1484 331 
L 2234 331 
L 2234 1247 
L 197 1247 
L 197 1588 
L 2241 4750 
L 2859 4750 
L 2859 1581 
L 3750 1581 
L 3750 1247 
L 2859 1247 
L 2859 331 
L 3609 331 
L 3609 0 
z
" transform="scale(0.015625)"/>
       </defs>
       <use xlink:href="#DejaVuSerif-30" transform="translate(0 0.78125)"/>
       <use xlink:href="#DejaVuSerif-2e" transform="translate(63.623047 0.78125)"/>
       <use xlink:href="#DejaVuSerif-34" transform="translate(95.410156 0.78125)"/>
      </g>
     </g>
    </g>
    <g id="ytick_6">
     <g id="line2d_22">
      <g>
       <use xlink:href="#mab46be2d26" x="57.44112" y="59.714811" style="stroke: #000000; stroke-width: 0.5"/>
      </g>
     </g>
     <g id="line2d_23">
      <g>
       <use xlink:href="#m3f4a7f736a" x="429.165354" y="59.714811" style="stroke: #000000; stroke-width: 0.5"/>
      </g>
     </g>
     <g id="text_12">
      <!-- $0.5$ -->
      <g transform="translate(37.94112 63.51403) scale(0.1 -0.1)">
       <use xlink:href="#DejaVuSerif-30" transform="translate(0 0.78125)"/>
       <use xlink:href="#DejaVuSerif-2e" transform="translate(63.623047 0.78125)"/>
       <use xlink:href="#DejaVuSerif-35" transform="translate(95.410156 0.78125)"/>
      </g>
     </g>
    </g>
    <g id="ytick_7">
     <g id="line2d_24">
      <g>
       <use xlink:href="#mab46be2d26" x="57.44112" y="24.789291" style="stroke: #000000; stroke-width: 0.5"/>
      </g>
     </g>
     <g id="line2d_25">
      <g>
       <use xlink:href="#m3f4a7f736a" x="429.165354" y="24.789291" style="stroke: #000000; stroke-width: 0.5"/>
      </g>
     </g>
     <g id="text_13">
      <!-- $0.6$ -->
      <g transform="translate(37.94112 28.58851) scale(0.1 -0.1)">
       <defs>
        <path id="DejaVuSerif-36" d="M 2094 219 
Q 2534 219 2771 542 
Q 3009 866 3009 1472 
Q 3009 2078 2771 2401 
Q 2534 2725 2094 2725 
Q 1647 2725 1412 2412 
Q 1178 2100 1178 1509 
Q 1178 888 1415 553 
Q 1653 219 2094 219 
z
M 1075 2569 
Q 1288 2803 1556 2918 
Q 1825 3034 2163 3034 
Q 2859 3034 3264 2615 
Q 3669 2197 3669 1472 
Q 3669 763 3233 336 
Q 2797 -91 2069 -91 
Q 1278 -91 853 498 
Q 428 1088 428 2181 
Q 428 3406 931 4078 
Q 1434 4750 2350 4750 
Q 2597 4750 2869 4703 
Q 3141 4656 3425 4563 
L 3425 3794 
L 3072 3794 
Q 3034 4109 2831 4275 
Q 2628 4441 2284 4441 
Q 1678 4441 1381 3981 
Q 1084 3522 1075 2569 
z
" transform="scale(0.015625)"/>
       </defs>
       <use xlink:href="#DejaVuSerif-30" transform="translate(0 0.78125)"/>
       <use xlink:href="#DejaVuSerif-2e" transform="translate(63.623047 0.78125)"/>
       <use xlink:href="#DejaVuSerif-36" transform="translate(95.410156 0.78125)"/>
      </g>
     </g>
    </g>
    <g id="text_14">
     <!-- $p\left(\sqrt{\lambda}\right)$ -->
     <g transform="translate(29.74112 152.06) rotate(-90) scale(0.2 -0.2)">
      <defs>
       <path id="DejaVuSerif-Italic-70" d="M 1466 1825 
L 1400 1497 
Q 1353 1250 1353 1053 
Q 1353 769 1453 581 
Q 1622 269 2059 269 
Q 2500 269 2795 622 
Q 3091 975 3225 1663 
Q 3284 1978 3284 2225 
Q 3284 2513 3200 2703 
Q 3041 3053 2600 3053 
Q 2163 3053 1872 2737 
Q 1581 2422 1466 1825 
z
M 1116 2988 
L 563 2988 
L 628 3322 
L 1756 3322 
L 1656 2803 
Q 1884 3116 2175 3264 
Q 2466 3413 2850 3413 
Q 3463 3413 3753 2928 
Q 3947 2609 3947 2163 
Q 3947 1928 3897 1663 
Q 3744 881 3262 395 
Q 2781 -91 2169 -91 
Q 1784 -91 1551 57 
Q 1319 206 1213 519 
L 850 -1331 
L 275 -1331 
L 1116 2988 
z
" transform="scale(0.015625)"/>
       <path id="STIXSizeOneSym-Regular-28" d="M 2445 -858 
L 2445 -1050 
Q 1728 -371 1309 630 
Q 890 1632 890 2886 
Q 890 4122 1309 5136 
Q 1728 6150 2445 6822 
L 2445 6630 
Q 1408 5363 1408 2886 
Q 1408 410 2445 -858 
z
" transform="scale(0.015625)"/>
       <path id="STIXSizeOneSym-Regular-29" d="M 550 6630 
L 550 6822 
Q 1267 6144 1686 5142 
Q 2106 4141 2106 2886 
Q 2106 1651 1686 636 
Q 1267 -378 550 -1050 
L 550 -858 
Q 1587 410 1587 2886 
Q 1587 5363 550 6630 
z
" transform="scale(0.015625)"/>
      </defs>
      <use xlink:href="#DejaVuSerif-Italic-70" transform="translate(0 0.828125)"/>
      <use xlink:href="#STIXSizeOneSym-Regular-28" transform="translate(64.013672 15.921875) scale(0.919715)"/>
      <use xlink:href="#STIXSizeOneSym-Regular-221a" transform="translate(107.069672 17.9375) scale(0.583453)"/>
      <use xlink:href="#DejaVuSerif-Italic-3bb" transform="translate(181.272034 1.1875)"/>
      <use xlink:href="#STIXSizeOneSym-Regular-29" transform="translate(257.15094 15.921875) scale(0.919715)"/>
      <path d="M 168.772034 101.453125 
L 168.772034 107.703125 
L 257.15094 107.703125 
L 257.15094 101.453125 
L 168.772034 101.453125 
z
"/>
     </g>
    </g>
   </g>
   <g id="line2d_26">
    <path d="M 67.961617 234.34241 
L 67.961617 12.37436 
L 76.514867 12.37436 
L 76.514867 12.851858 
L 85.068117 12.851858 
L 85.068117 12.442574 
L 93.621367 12.442574 
L 93.621367 12.920072 
L 102.174616 12.920072 
L 102.174616 13.329355 
L 110.727866 13.329355 
L 110.727866 14.011494 
L 119.281116 14.011494 
L 119.281116 14.352564 
L 127.834366 14.352564 
L 127.834366 17.353976 
L 136.387615 17.353976 
L 136.387615 16.398981 
L 144.940865 16.398981 
L 144.940865 19.127537 
L 153.494115 19.127537 
L 153.494115 19.605034 
L 162.047365 19.605034 
L 162.047365 21.787879 
L 170.600614 21.787879 
L 170.600614 23.220371 
L 179.153864 23.220371 
L 179.153864 25.8125 
L 187.707114 25.8125 
L 187.707114 26.631067 
L 196.260364 26.631067 
L 196.260364 29.018553 
L 204.813613 29.018553 
L 204.813613 32.497463 
L 213.366863 32.497463 
L 213.366863 33.520671 
L 221.920113 33.520671 
L 221.920113 37.408864 
L 230.473363 37.408864 
L 230.473363 39.182425 
L 239.026612 39.182425 
L 239.026612 43.889185 
L 247.579862 43.889185 
L 247.579862 46.344885 
L 256.133112 46.344885 
L 256.133112 50.710575 
L 264.686362 50.710575 
L 264.686362 54.46234 
L 273.239611 54.46234 
L 273.239611 57.873036 
L 281.792861 57.873036 
L 281.792861 62.920865 
L 290.346111 62.920865 
L 290.346111 67.218341 
L 298.899361 67.218341 
L 298.899361 73.016523 
L 307.45261 73.016523 
L 307.45261 77.927924 
L 316.00586 77.927924 
L 316.00586 83.862534 
L 324.55911 83.862534 
L 324.55911 91.093208 
L 333.11236 91.093208 
L 333.11236 96.823176 
L 341.665609 96.823176 
L 341.665609 103.849208 
L 350.218859 103.849208 
L 350.218859 112.989871 
L 358.772109 112.989871 
L 358.772109 122.062321 
L 367.325359 122.062321 
L 367.325359 131.885123 
L 375.878608 131.885123 
L 375.878608 143.276846 
L 384.431858 143.276846 
L 384.431858 157.056055 
L 392.985108 157.056055 
L 392.985108 175.542023 
L 401.538358 175.542023 
L 401.538358 202.21366 
L 410.091607 202.21366 
L 410.091607 234.069554 
L 418.644857 234.069554 
L 418.644857 234.34241 
" clip-path="url(#p6f54561d33)" style="fill: none; stroke: #dd8452; stroke-width: 2"/>
   </g>
   <g id="patch_3">
    <path d="M 57.44112 241.085354 
L 57.44112 2.834646 
" style="fill: none; stroke: #000000; stroke-linejoin: miter; stroke-linecap: square"/>
   </g>
   <g id="patch_4">
    <path d="M 429.165354 241.085354 
L 429.165354 2.834646 
" style="fill: none; stroke: #000000; stroke-linejoin: miter; stroke-linecap: square"/>
   </g>
   <g id="patch_5">
    <path d="M 57.44112 241.085354 
L 429.165354 241.085354 
" style="fill: none; stroke: #000000; stroke-linejoin: miter; stroke-linecap: square"/>
   </g>
   <g id="patch_6">
    <path d="M 57.44112 2.834646 
L 429.165354 2.834646 
" style="fill: none; stroke: #000000; stroke-linejoin: miter; stroke-linecap: square"/>
   </g>
   <g id="line2d_27">
    <path d="M 67.961617 234.34241 
L 67.961617 10.327943 
L 76.514867 10.327943 
L 76.514867 11.351152 
L 85.068117 11.351152 
L 85.068117 12.033291 
L 93.621367 12.033291 
L 93.621367 12.920072 
L 102.174616 12.920072 
L 102.174616 14.557205 
L 110.727866 14.557205 
L 110.727866 14.625419 
L 119.281116 14.625419 
L 119.281116 14.488991 
L 127.834366 14.488991 
L 127.834366 15.648628 
L 136.387615 15.648628 
L 136.387615 17.149334 
L 144.940865 17.149334 
L 144.940865 19.673248 
L 153.494115 19.673248 
L 153.494115 19.195751 
L 162.047365 19.195751 
L 162.047365 20.969313 
L 170.600614 20.969313 
L 170.600614 23.220371 
L 179.153864 23.220371 
L 179.153864 24.857505 
L 187.707114 24.857505 
L 187.707114 28.404628 
L 196.260364 28.404628 
L 196.260364 28.950339 
L 204.813613 28.950339 
L 204.813613 31.064971 
L 213.366863 31.064971 
L 213.366863 35.294233 
L 221.920113 35.294233 
L 221.920113 36.317441 
L 230.473363 36.317441 
L 230.473363 41.092415 
L 239.026612 41.092415 
L 239.026612 43.548115 
L 247.579862 43.548115 
L 247.579862 46.822383 
L 256.133112 46.822383 
L 256.133112 50.710575 
L 264.686362 50.710575 
L 264.686362 54.871624 
L 273.239611 54.871624 
L 273.239611 59.032672 
L 281.792861 59.032672 
L 281.792861 63.466576 
L 290.346111 63.466576 
L 290.346111 67.968694 
L 298.899361 67.968694 
L 298.899361 72.129742 
L 307.45261 72.129742 
L 307.45261 79.08756 
L 316.00586 79.08756 
L 316.00586 83.521464 
L 324.55911 83.521464 
L 324.55911 91.161422 
L 333.11236 91.161422 
L 333.11236 96.413892 
L 341.665609 96.413892 
L 341.665609 105.554556 
L 350.218859 105.554556 
L 350.218859 112.512374 
L 358.772109 112.512374 
L 358.772109 121.584824 
L 367.325359 121.584824 
L 367.325359 133.04476 
L 375.878608 133.04476 
L 375.878608 143.413273 
L 384.431858 143.413273 
L 384.431858 157.124268 
L 392.985108 157.124268 
L 392.985108 174.4506 
L 401.538358 174.4506 
L 401.538358 201.463307 
L 410.091607 201.463307 
L 410.091607 232.909918 
L 418.644857 232.909918 
L 418.644857 234.34241 
" clip-path="url(#p6f54561d33)" style="fill: none; stroke: #55a868; stroke-width: 2"/>
   </g>
   <g id="line2d_28">
    <path d="M 67.961617 234.34241 
L 67.961617 9.57759 
L 76.514867 9.57759 
L 76.514867 10.941868 
L 85.068117 10.941868 
L 85.068117 13.738639 
L 93.621367 13.738639 
L 93.621367 11.214724 
L 102.174616 11.214724 
L 102.174616 14.557205 
L 110.727866 14.557205 
L 110.727866 15.034703 
L 119.281116 15.034703 
L 119.281116 13.533997 
L 127.834366 13.533997 
L 127.834366 17.149334 
L 136.387615 17.149334 
L 136.387615 17.012906 
L 144.940865 17.012906 
L 144.940865 20.355387 
L 153.494115 20.355387 
L 153.494115 17.899687 
L 162.047365 17.899687 
L 162.047365 23.288585 
L 170.600614 23.288585 
L 170.600614 21.719665 
L 179.153864 21.719665 
L 179.153864 24.311794 
L 187.707114 24.311794 
L 187.707114 27.517847 
L 196.260364 27.517847 
L 196.260364 29.768906 
L 204.813613 29.768906 
L 204.813613 32.292821 
L 213.366863 32.292821 
L 213.366863 34.54388 
L 221.920113 34.54388 
L 221.920113 37.204222 
L 230.473363 37.204222 
L 230.473363 39.318853 
L 239.026612 39.318853 
L 239.026612 45.117035 
L 247.579862 45.117035 
L 247.579862 45.73096 
L 256.133112 45.73096 
L 256.133112 52.415923 
L 264.686362 52.415923 
L 264.686362 54.666982 
L 273.239611 54.666982 
L 273.239611 58.896244 
L 281.792861 58.896244 
L 281.792861 62.238726 
L 290.346111 62.238726 
L 290.346111 67.832266 
L 298.899361 67.832266 
L 298.899361 73.15295 
L 307.45261 73.15295 
L 307.45261 78.064352 
L 316.00586 78.064352 
L 316.00586 85.636095 
L 324.55911 85.636095 
L 324.55911 90.888566 
L 333.11236 90.888566 
L 333.11236 97.164245 
L 341.665609 97.164245 
L 341.665609 105.554556 
L 350.218859 105.554556 
L 350.218859 112.103091 
L 358.772109 112.103091 
L 358.772109 123.563027 
L 367.325359 123.563027 
L 367.325359 131.953337 
L 375.878608 131.953337 
L 375.878608 143.00399 
L 384.431858 143.00399 
L 384.431858 158.966044 
L 392.985108 158.966044 
L 392.985108 175.610237 
L 401.538358 175.610237 
L 401.538358 204.123649 
L 410.091607 204.123649 
L 410.091607 225.26996 
L 418.644857 225.26996 
L 418.644857 234.34241 
" clip-path="url(#p6f54561d33)" style="fill: none; stroke: #c44e52; stroke-width: 2"/>
   </g>
   <g id="line2d_29">
    <path d="M 67.961617 234.34241 
L 67.961617 11.692221 
L 76.514867 11.692221 
L 76.514867 11.214724 
L 85.068117 11.214724 
L 85.068117 13.056499 
L 93.621367 13.056499 
L 93.621367 12.647216 
L 102.174616 12.647216 
L 102.174616 13.94328 
L 110.727866 13.94328 
L 110.727866 13.533997 
L 119.281116 13.533997 
L 119.281116 15.785056 
L 127.834366 15.785056 
L 127.834366 16.467195 
L 136.387615 16.467195 
L 136.387615 16.808264 
L 144.940865 16.808264 
L 144.940865 17.695045 
L 153.494115 17.695045 
L 153.494115 20.969313 
L 162.047365 20.969313 
L 162.047365 21.378596 
L 170.600614 21.378596 
L 170.600614 22.947516 
L 179.153864 22.947516 
L 179.153864 24.24358 
L 187.707114 24.24358 
L 187.707114 28.336414 
L 196.260364 28.336414 
L 196.260364 29.905334 
L 204.813613 29.905334 
L 204.813613 30.928543 
L 213.366863 30.928543 
L 213.366863 35.498874 
L 221.920113 35.498874 
L 221.920113 37.954575 
L 230.473363 37.954575 
L 230.473363 39.114211 
L 239.026612 39.114211 
L 239.026612 42.729548 
L 247.579862 42.729548 
L 247.579862 48.118447 
L 256.133112 48.118447 
L 256.133112 48.937014 
L 264.686362 48.937014 
L 264.686362 55.076265 
L 273.239611 55.076265 
L 273.239611 58.486961 
L 281.792861 58.486961 
L 281.792861 62.443367 
L 290.346111 62.443367 
L 290.346111 68.719047 
L 298.899361 68.719047 
L 298.899361 72.334384 
L 307.45261 72.334384 
L 307.45261 78.200779 
L 316.00586 78.200779 
L 316.00586 83.112181 
L 324.55911 83.112181 
L 324.55911 91.229635 
L 333.11236 91.229635 
L 333.11236 96.482106 
L 341.665609 96.482106 
L 341.665609 104.872417 
L 350.218859 104.872417 
L 350.218859 112.78523 
L 358.772109 112.78523 
L 358.772109 121.789465 
L 367.325359 121.789465 
L 367.325359 130.998343 
L 375.878608 130.998343 
L 375.878608 143.481487 
L 384.431858 143.481487 
L 384.431858 158.352119 
L 392.985108 158.352119 
L 392.985108 174.723456 
L 401.538358 174.723456 
L 401.538358 202.418302 
L 410.091607 202.418302 
L 410.091607 233.523843 
L 418.644857 233.523843 
L 418.644857 234.34241 
" clip-path="url(#p6f54561d33)" style="fill: none; stroke: #8172b3; stroke-width: 2"/>
   </g>
   <g id="legend_1">
    <g id="patch_7">
     <path d="M 297.230979 64.190896 
L 419.165354 64.190896 
L 419.165354 12.834646 
L 297.230979 12.834646 
z
" style="fill: #ffffff; stroke: #000000; stroke-linejoin: miter"/>
    </g>
    <g id="line2d_30">
     <path d="M 313.230979 37.031521 
L 333.230979 37.031521 
L 353.230979 37.031521 
" style="fill: none; stroke-dasharray: 9.25,4; stroke-dashoffset: 0; stroke: #000000; stroke-width: 2.5; stroke-linejoin: miter"/>
    </g>
    <g id="text_15">
     <!-- MP -->
     <g transform="translate(369.230979 44.031521) scale(0.2 -0.2)">
      <defs>
       <path id="DejaVuSerif-4d" d="M 353 0 
L 353 331 
L 947 331 
L 947 4331 
L 319 4331 
L 319 4666 
L 1678 4666 
L 3316 1344 
L 4953 4666 
L 6228 4666 
L 6228 4331 
L 5606 4331 
L 5606 331 
L 6203 331 
L 6203 0 
L 4378 0 
L 4378 331 
L 4972 331 
L 4972 3938 
L 3372 684 
L 2931 684 
L 1331 3938 
L 1331 331 
L 1925 331 
L 1925 0 
L 353 0 
z
" transform="scale(0.015625)"/>
       <path id="DejaVuSerif-50" d="M 1581 2375 
L 2406 2375 
Q 2872 2375 3115 2626 
Q 3359 2878 3359 3353 
Q 3359 3831 3115 4081 
Q 2872 4331 2406 4331 
L 1581 4331 
L 1581 2375 
z
M 353 0 
L 353 331 
L 947 331 
L 947 4331 
L 353 4331 
L 353 4666 
L 2559 4666 
Q 3259 4666 3668 4311 
Q 4078 3956 4078 3353 
Q 4078 2753 3668 2397 
Q 3259 2041 2559 2041 
L 1581 2041 
L 1581 331 
L 2303 331 
L 2303 0 
L 353 0 
z
" transform="scale(0.015625)"/>
      </defs>
      <use xlink:href="#DejaVuSerif-4d"/>
      <use xlink:href="#DejaVuSerif-50" x="102.392578"/>
     </g>
    </g>
   </g>
  </g>
 </g>
 <defs>
  <clipPath id="p6f54561d33">
   <rect x="57.44112" y="2.834646" width="371.724234" height="238.250709"/>
  </clipPath>
 </defs>
</svg>
