<?xml version="1.0" encoding="utf-8" standalone="no"?>
<!DOCTYPE svg PUBLIC "-//W3C//DTD SVG 1.1//EN"
  "http://www.w3.org/Graphics/SVG/1.1/DTD/svg11.dtd">
<svg xmlns:xlink="http://www.w3.org/1999/xlink" width="432pt" height="288pt" viewBox="0 0 432 288" xmlns="http://www.w3.org/2000/svg" version="1.1">
 <metadata>
  <rdf:RDF xmlns:dc="http://purl.org/dc/elements/1.1/" xmlns:cc="http://creativecommons.org/ns#" xmlns:rdf="http://www.w3.org/1999/02/22-rdf-syntax-ns#">
   <cc:Work>
    <dc:type rdf:resource="http://purl.org/dc/dcmitype/StillImage"/>
    <dc:date>2024-07-12T21:31:09.756092</dc:date>
    <dc:format>image/svg+xml</dc:format>
    <dc:creator>
     <cc:Agent>
      <dc:title>Matplotlib v3.9.1, https://matplotlib.org/</dc:title>
     </cc:Agent>
    </dc:creator>
   </cc:Work>
  </rdf:RDF>
 </metadata>
 <defs>
  <style type="text/css">*{stroke-linejoin: round; stroke-linecap: butt}</style>
 </defs>
 <g id="figure_1">
  <g id="patch_1">
   <path d="M 0 288 
L 432 288 
L 432 0 
L 0 0 
z
" style="fill: #ffffff"/>
  </g>
  <g id="axes_1">
   <g id="patch_2">
    <path d="M 48.0507 254.625354 
L 429.165354 254.625354 
L 429.165354 19.634646 
L 48.0507 19.634646 
z
" style="fill: #ffffff"/>
   </g>
   <g id="line2d_1">
    <path d="M -1 102.26675 
L 433 102.26675 
" clip-path="url(#pa8c33af03b)" style="fill: none; stroke-dasharray: 3.7,1.6; stroke-dashoffset: 0; stroke: #8c8c8c"/>
   </g>
   <g id="line2d_2">
    <path d="M -1 139.764838 
L 433 139.764838 
" clip-path="url(#pa8c33af03b)" style="fill: none; stroke-dasharray: 3.7,1.6; stroke-dashoffset: 0; stroke: #8c8c8c"/>
   </g>
   <g id="line2d_3">
    <path d="M -1 177.262927 
L 433 177.262927 
" clip-path="url(#pa8c33af03b)" style="fill: none; stroke-dasharray: 3.7,1.6; stroke-dashoffset: 0; stroke: #8c8c8c"/>
   </g>
   <g id="line2d_4">
    <path d="M -1 214.761015 
L 433 214.761015 
" clip-path="url(#pa8c33af03b)" style="fill: none; stroke-dasharray: 3.7,1.6; stroke-dashoffset: 0; stroke: #8c8c8c"/>
   </g>
   <g id="matplotlib.axis_1">
    <g id="xtick_1">
     <g id="line2d_5">
      <defs>
       <path id="mec29e7e4d2" d="M 0 0 
L 0 -2.5 
" style="stroke: #000000; stroke-width: 0.5"/>
      </defs>
      <g>
       <use xlink:href="#mec29e7e4d2" x="107.865435" y="254.625354" style="stroke: #000000; stroke-width: 0.5"/>
      </g>
     </g>
     <g id="line2d_6">
      <defs>
       <path id="mdd33d7b7c5" d="M 0 0 
L 0 2.5 
" style="stroke: #000000; stroke-width: 0.5"/>
      </defs>
      <g>
       <use xlink:href="#mdd33d7b7c5" x="107.865435" y="19.634646" style="stroke: #000000; stroke-width: 0.5"/>
      </g>
     </g>
     <g id="text_1">
      <!-- $2.5$ -->
      <g transform="translate(99.865435 265.723792) scale(0.1 -0.1)">
       <defs>
        <path id="DejaVuSerif-32" d="M 819 3553 
L 469 3553 
L 469 4384 
Q 803 4563 1142 4656 
Q 1481 4750 1806 4750 
Q 2534 4750 2956 4397 
Q 3378 4044 3378 3438 
Q 3378 2753 2422 1800 
Q 2347 1728 2309 1691 
L 1131 513 
L 3078 513 
L 3078 1088 
L 3444 1088 
L 3444 0 
L 434 0 
L 434 341 
L 1850 1753 
Q 2319 2222 2519 2614 
Q 2719 3006 2719 3438 
Q 2719 3909 2473 4175 
Q 2228 4441 1797 4441 
Q 1350 4441 1106 4219 
Q 863 3997 819 3553 
z
" transform="scale(0.015625)"/>
        <path id="DejaVuSerif-2e" d="M 603 325 
Q 603 500 722 622 
Q 841 744 1019 744 
Q 1191 744 1312 622 
Q 1434 500 1434 325 
Q 1434 153 1312 31 
Q 1191 -91 1019 -91 
Q 841 -91 722 29 
Q 603 150 603 325 
z
" transform="scale(0.015625)"/>
        <path id="DejaVuSerif-35" d="M 3219 4666 
L 3219 4153 
L 1081 4153 
L 1081 2816 
Q 1244 2928 1461 2984 
Q 1678 3041 1947 3041 
Q 2703 3041 3140 2622 
Q 3578 2203 3578 1478 
Q 3578 738 3136 323 
Q 2694 -91 1894 -91 
Q 1572 -91 1234 -12 
Q 897 66 544 225 
L 544 1131 
L 897 1131 
Q 925 688 1179 453 
Q 1434 219 1894 219 
Q 2388 219 2653 544 
Q 2919 869 2919 1478 
Q 2919 2084 2655 2407 
Q 2391 2731 1894 2731 
Q 1613 2731 1398 2631 
Q 1184 2531 1019 2322 
L 750 2322 
L 750 4666 
L 3219 4666 
z
" transform="scale(0.015625)"/>
       </defs>
       <use xlink:href="#DejaVuSerif-32" transform="translate(0 0.78125)"/>
       <use xlink:href="#DejaVuSerif-2e" transform="translate(63.623047 0.78125)"/>
       <use xlink:href="#DejaVuSerif-35" transform="translate(95.410156 0.78125)"/>
      </g>
     </g>
    </g>
    <g id="xtick_2">
     <g id="line2d_7">
      <g>
       <use xlink:href="#mec29e7e4d2" x="189.579555" y="254.625354" style="stroke: #000000; stroke-width: 0.5"/>
      </g>
     </g>
     <g id="line2d_8">
      <g>
       <use xlink:href="#mdd33d7b7c5" x="189.579555" y="19.634646" style="stroke: #000000; stroke-width: 0.5"/>
      </g>
     </g>
     <g id="text_2">
      <!-- $5.0$ -->
      <g transform="translate(181.579555 265.723792) scale(0.1 -0.1)">
       <defs>
        <path id="DejaVuSerif-30" d="M 2034 219 
Q 2513 219 2750 744 
Q 2988 1269 2988 2328 
Q 2988 3391 2750 3916 
Q 2513 4441 2034 4441 
Q 1556 4441 1318 3916 
Q 1081 3391 1081 2328 
Q 1081 1269 1318 744 
Q 1556 219 2034 219 
z
M 2034 -91 
Q 1275 -91 848 546 
Q 422 1184 422 2328 
Q 422 3475 848 4112 
Q 1275 4750 2034 4750 
Q 2797 4750 3222 4112 
Q 3647 3475 3647 2328 
Q 3647 1184 3222 546 
Q 2797 -91 2034 -91 
z
" transform="scale(0.015625)"/>
       </defs>
       <use xlink:href="#DejaVuSerif-35" transform="translate(0 0.78125)"/>
       <use xlink:href="#DejaVuSerif-2e" transform="translate(63.623047 0.78125)"/>
       <use xlink:href="#DejaVuSerif-30" transform="translate(95.410156 0.78125)"/>
      </g>
     </g>
    </g>
    <g id="xtick_3">
     <g id="line2d_9">
      <g>
       <use xlink:href="#mec29e7e4d2" x="271.293675" y="254.625354" style="stroke: #000000; stroke-width: 0.5"/>
      </g>
     </g>
     <g id="line2d_10">
      <g>
       <use xlink:href="#mdd33d7b7c5" x="271.293675" y="19.634646" style="stroke: #000000; stroke-width: 0.5"/>
      </g>
     </g>
     <g id="text_3">
      <!-- $7.5$ -->
      <g transform="translate(263.293675 265.723792) scale(0.1 -0.1)">
       <defs>
        <path id="DejaVuSerif-37" d="M 3609 4347 
L 1784 0 
L 1319 0 
L 3059 4153 
L 903 4153 
L 903 3578 
L 538 3578 
L 538 4666 
L 3609 4666 
L 3609 4347 
z
" transform="scale(0.015625)"/>
       </defs>
       <use xlink:href="#DejaVuSerif-37" transform="translate(0 0.09375)"/>
       <use xlink:href="#DejaVuSerif-2e" transform="translate(63.623047 0.09375)"/>
       <use xlink:href="#DejaVuSerif-35" transform="translate(95.410156 0.09375)"/>
      </g>
     </g>
    </g>
    <g id="xtick_4">
     <g id="line2d_11">
      <g>
       <use xlink:href="#mec29e7e4d2" x="353.007795" y="254.625354" style="stroke: #000000; stroke-width: 0.5"/>
      </g>
     </g>
     <g id="line2d_12">
      <g>
       <use xlink:href="#mdd33d7b7c5" x="353.007795" y="19.634646" style="stroke: #000000; stroke-width: 0.5"/>
      </g>
     </g>
     <g id="text_4">
      <!-- $10.0$ -->
      <g transform="translate(341.857795 265.723792) scale(0.1 -0.1)">
       <defs>
        <path id="DejaVuSerif-31" d="M 909 0 
L 909 331 
L 1722 331 
L 1722 4213 
L 781 3603 
L 781 4013 
L 1919 4750 
L 2350 4750 
L 2350 331 
L 3163 331 
L 3163 0 
L 909 0 
z
" transform="scale(0.015625)"/>
       </defs>
       <use xlink:href="#DejaVuSerif-31" transform="translate(0 0.78125)"/>
       <use xlink:href="#DejaVuSerif-30" transform="translate(63.623047 0.78125)"/>
       <use xlink:href="#DejaVuSerif-2e" transform="translate(127.246094 0.78125)"/>
       <use xlink:href="#DejaVuSerif-30" transform="translate(159.033203 0.78125)"/>
      </g>
     </g>
    </g>
    <g id="text_5">
     <!-- $n_H$ -->
     <g transform="translate(230.868027 280.921604) scale(0.12 -0.12)">
      <defs>
       <path id="DejaVuSerif-Italic-6e" d="M 450 0 
L 1031 2988 
L 481 2988 
L 544 3322 
L 1669 3322 
L 1556 2731 
Q 1781 3069 2068 3241 
Q 2356 3413 2694 3413 
Q 3244 3413 3444 3097 
Q 3563 2906 3563 2588 
Q 3563 2378 3509 2113 
L 3163 331 
L 3675 331 
L 3613 0 
L 2522 0 
L 2897 1931 
Q 2959 2253 2959 2469 
Q 2959 2659 2909 2769 
Q 2803 2994 2425 2994 
Q 2025 2994 1759 2701 
Q 1494 2409 1384 1850 
L 1025 0 
L 450 0 
z
" transform="scale(0.015625)"/>
       <path id="DejaVuSerif-Italic-48" d="M -97 0 
L -34 331 
L 559 331 
L 1338 4331 
L 744 4331 
L 809 4666 
L 2631 4666 
L 2566 4331 
L 1972 4331 
L 1659 2719 
L 4078 2719 
L 4391 4331 
L 3797 4331 
L 3863 4666 
L 5684 4666 
L 5619 4331 
L 5025 4331 
L 4247 331 
L 4841 331 
L 4778 0 
L 2956 0 
L 3019 331 
L 3616 331 
L 4003 2338 
L 1584 2338 
L 1194 331 
L 1788 331 
L 1725 0 
L -97 0 
z
" transform="scale(0.015625)"/>
      </defs>
      <use xlink:href="#DejaVuSerif-Italic-6e" transform="translate(0 0.671875)"/>
      <use xlink:href="#DejaVuSerif-Italic-48" transform="translate(64.404297 -14.9) scale(0.7)"/>
     </g>
    </g>
   </g>
   <g id="matplotlib.axis_2">
    <g id="ytick_1">
     <g id="line2d_13">
      <defs>
       <path id="m83fe87ef25" d="M 0 0 
L 2.5 0 
" style="stroke: #000000; stroke-width: 0.5"/>
      </defs>
      <g>
       <use xlink:href="#m83fe87ef25" x="48.0507" y="170.347497" style="stroke: #000000; stroke-width: 0.5"/>
      </g>
     </g>
     <g id="line2d_14">
      <defs>
       <path id="m8efb4e529e" d="M 0 0 
L -2.5 0 
" style="stroke: #000000; stroke-width: 0.5"/>
      </defs>
      <g>
       <use xlink:href="#m8efb4e529e" x="429.165354" y="170.347497" style="stroke: #000000; stroke-width: 0.5"/>
      </g>
     </g>
     <g id="text_6">
      <!-- $10^{-4}$ -->
      <g transform="translate(21.1507 174.146716) scale(0.1 -0.1)">
       <defs>
        <path id="DejaVuSerif-2212" d="M 678 2259 
L 4684 2259 
L 4684 1753 
L 678 1753 
L 678 2259 
z
" transform="scale(0.015625)"/>
        <path id="DejaVuSerif-34" d="M 2234 1581 
L 2234 4063 
L 641 1581 
L 2234 1581 
z
M 3609 0 
L 1484 0 
L 1484 331 
L 2234 331 
L 2234 1247 
L 197 1247 
L 197 1588 
L 2241 4750 
L 2859 4750 
L 2859 1581 
L 3750 1581 
L 3750 1247 
L 2859 1247 
L 2859 331 
L 3609 331 
L 3609 0 
z
" transform="scale(0.015625)"/>
       </defs>
       <use xlink:href="#DejaVuSerif-31" transform="translate(0 0.7125)"/>
       <use xlink:href="#DejaVuSerif-30" transform="translate(63.623047 0.7125)"/>
       <use xlink:href="#DejaVuSerif-2212" transform="translate(128.154453 37.046875) scale(0.7)"/>
       <use xlink:href="#DejaVuSerif-34" transform="translate(186.806797 37.046875) scale(0.7)"/>
      </g>
     </g>
    </g>
    <g id="ytick_2">
     <g id="line2d_15">
      <g>
       <use xlink:href="#m83fe87ef25" x="48.0507" y="65.174968" style="stroke: #000000; stroke-width: 0.5"/>
      </g>
     </g>
     <g id="line2d_16">
      <g>
       <use xlink:href="#m8efb4e529e" x="429.165354" y="65.174968" style="stroke: #000000; stroke-width: 0.5"/>
      </g>
     </g>
     <g id="text_7">
      <!-- $10^{-2}$ -->
      <g transform="translate(21.1507 68.974186) scale(0.1 -0.1)">
       <use xlink:href="#DejaVuSerif-31" transform="translate(0 0.7125)"/>
       <use xlink:href="#DejaVuSerif-30" transform="translate(63.623047 0.7125)"/>
       <use xlink:href="#DejaVuSerif-2212" transform="translate(128.154453 37.046875) scale(0.7)"/>
       <use xlink:href="#DejaVuSerif-32" transform="translate(186.806797 37.046875) scale(0.7)"/>
      </g>
     </g>
    </g>
    <g id="ytick_3">
     <g id="line2d_17">
      <defs>
       <path id="me0b2520914" d="M 0 0 
L -2 0 
" style="stroke: #000000; stroke-width: 0.6"/>
      </defs>
      <g>
       <use xlink:href="#me0b2520914" x="48.0507" y="222.933761" style="stroke: #000000; stroke-width: 0.6"/>
      </g>
     </g>
    </g>
    <g id="ytick_4">
     <g id="line2d_18">
      <g>
       <use xlink:href="#me0b2520914" x="48.0507" y="117.761232" style="stroke: #000000; stroke-width: 0.6"/>
      </g>
     </g>
    </g>
    <g id="text_8">
     <!-- $D_{\text{KL}}$ -->
     <g transform="translate(14.655075 148.05) rotate(-90) scale(0.12 -0.12)">
      <defs>
       <path id="DejaVuSerif-Italic-44" d="M 1194 331 
L 1775 331 
Q 2684 331 3271 850 
Q 3859 1369 4048 2337 
Q 4238 3306 3852 3818 
Q 3466 4331 2553 4331 
L 1972 4331 
L 1194 331 
z
M -97 0 
L -34 331 
L 559 331 
L 1338 4331 
L 744 4331 
L 809 4666 
L 2666 4666 
Q 3872 4666 4426 4050 
Q 4981 3434 4766 2338 
Q 4553 1238 3758 619 
Q 2963 0 1759 0 
L -97 0 
z
" transform="scale(0.015625)"/>
       <path id="DejaVuSerif-4b" d="M 353 0 
L 353 331 
L 947 331 
L 947 4331 
L 353 4331 
L 353 4666 
L 2175 4666 
L 2175 4331 
L 1581 4331 
L 1581 2566 
L 3591 4331 
L 3084 4331 
L 3084 4666 
L 4634 4666 
L 4634 4331 
L 4109 4331 
L 2106 2572 
L 4347 331 
L 4878 331 
L 4878 0 
L 3794 0 
L 1581 2216 
L 1581 331 
L 2175 331 
L 2175 0 
L 353 0 
z
" transform="scale(0.015625)"/>
       <path id="DejaVuSerif-4c" d="M 353 0 
L 353 331 
L 947 331 
L 947 4331 
L 353 4331 
L 353 4666 
L 2175 4666 
L 2175 4331 
L 1581 4331 
L 1581 384 
L 3713 384 
L 3713 1166 
L 4097 1166 
L 4097 0 
L 353 0 
z
" transform="scale(0.015625)"/>
      </defs>
      <use xlink:href="#DejaVuSerif-Italic-44" transform="translate(0 0.09375)"/>
      <use xlink:href="#DejaVuSerif-4b" transform="translate(80.175781 -15.478125) scale(0.7)"/>
      <use xlink:href="#DejaVuSerif-4c" transform="translate(132.470703 -15.478125) scale(0.7)"/>
     </g>
    </g>
   </g>
   <g id="line2d_19">
    <path d="M 58.836963 32.508962 
L 60.487754 34.668397 
L 62.138544 36.827833 
L 63.789334 38.987269 
L 65.440125 41.146705 
L 67.090915 43.30614 
L 68.741705 45.465576 
L 70.392495 47.625012 
L 72.043286 49.784448 
L 73.694076 51.943883 
L 75.344866 54.103319 
L 76.995657 56.262755 
L 78.646447 58.422191 
L 80.297237 60.581626 
L 81.948028 62.741062 
L 83.598818 64.900498 
L 85.249608 67.059934 
L 86.900398 69.219369 
L 88.551189 71.378805 
L 90.201979 73.538241 
L 91.852769 75.697677 
L 93.50356 77.857112 
L 95.15435 80.016548 
L 96.80514 82.175984 
L 98.455931 84.33542 
L 100.106721 86.494855 
L 101.757511 88.654291 
L 103.408301 90.813727 
L 105.059092 92.973163 
L 106.709882 95.132598 
L 108.360672 97.292034 
L 110.011463 99.45147 
L 111.662253 101.610906 
L 113.313043 103.770341 
L 114.963834 105.929777 
L 116.614624 108.089213 
L 118.265414 110.248649 
L 119.916204 112.408085 
L 121.566995 114.56752 
L 123.217785 116.726956 
L 124.868575 118.886392 
L 126.519366 121.045828 
L 128.170156 123.205263 
L 129.820946 125.364699 
L 131.471737 127.524135 
L 133.122527 129.683571 
L 134.773317 131.843006 
L 136.424107 134.002442 
L 138.074898 136.161878 
L 139.725688 138.321314 
L 141.376478 140.480749 
L 143.027269 142.640185 
L 144.678059 144.799621 
L 146.328849 146.959057 
L 147.97964 149.118492 
L 149.63043 151.277928 
L 151.28122 153.437364 
L 152.93201 155.5968 
L 154.582801 157.756235 
L 156.233591 159.915671 
L 157.884381 162.075107 
L 159.535172 164.234543 
L 161.185962 166.393978 
L 162.836752 168.553414 
L 164.487543 170.71285 
L 166.138333 172.872286 
L 167.789123 175.031721 
L 169.439913 177.191157 
L 171.090704 179.350593 
L 172.741494 181.510029 
L 174.392284 183.669464 
L 176.043075 185.8289 
L 177.693865 187.988336 
L 179.344655 190.147772 
L 180.995446 192.307207 
L 182.646236 194.466643 
L 184.297026 196.626079 
L 185.947816 198.785515 
L 187.598607 200.94495 
L 189.249397 203.104386 
L 190.900187 205.263822 
L 192.550978 207.423258 
L 194.201768 209.582693 
L 195.852558 211.742129 
L 197.503349 213.901565 
L 199.154139 216.061001 
L 200.804929 218.220436 
L 202.455719 220.379872 
L 204.10651 222.539308 
L 205.7573 224.698744 
L 207.40809 226.858179 
L 209.058881 229.017615 
L 210.709671 231.177051 
L 212.360461 233.336487 
L 214.011251 235.495922 
L 215.662042 237.655358 
L 217.312832 239.814794 
L 218.963622 241.97423 
L 220.614413 244.133665 
L 222.265203 246.293101 
" clip-path="url(#pa8c33af03b)" style="fill: none; stroke-dasharray: 3.7,1.6; stroke-dashoffset: 0; stroke: #8c8c8c"/>
   </g>
   <g id="patch_3">
    <path d="M 48.0507 254.625354 
L 48.0507 19.634646 
" style="fill: none; stroke: #000000; stroke-linejoin: miter; stroke-linecap: square"/>
   </g>
   <g id="patch_4">
    <path d="M 429.165354 254.625354 
L 429.165354 19.634646 
" style="fill: none; stroke: #000000; stroke-linejoin: miter; stroke-linecap: square"/>
   </g>
   <g id="patch_5">
    <path d="M 48.0507 254.625354 
L 429.165354 254.625354 
" style="fill: none; stroke: #000000; stroke-linejoin: miter; stroke-linecap: square"/>
   </g>
   <g id="patch_6">
    <path d="M 48.0507 19.634646 
L 429.165354 19.634646 
" style="fill: none; stroke: #000000; stroke-linejoin: miter; stroke-linecap: square"/>
   </g>
   <g id="line2d_20">
    <path d="M 58.836963 26.321585 
L 91.522611 81.005488 
L 124.208259 100.151811 
L 156.893907 105.003514 
L 189.579555 104.679348 
L 222.265203 105.673717 
" clip-path="url(#pa8c33af03b)" style="fill: none; stroke: #4c72b0"/>
   </g>
   <g id="line2d_21">
    <path d="M 58.836963 26.357901 
L 58.836963 26.285326 
" clip-path="url(#pa8c33af03b)" style="fill: none; stroke: #000000"/>
   </g>
   <g id="line2d_22">
    <path d="M 91.522611 81.260045 
L 91.522611 80.753737 
" clip-path="url(#pa8c33af03b)" style="fill: none; stroke: #000000"/>
   </g>
   <g id="line2d_23">
    <path d="M 124.208259 100.544266 
L 124.208259 99.765986 
" clip-path="url(#pa8c33af03b)" style="fill: none; stroke: #000000"/>
   </g>
   <g id="line2d_24">
    <path d="M 156.893907 105.410937 
L 156.893907 104.603231 
" clip-path="url(#pa8c33af03b)" style="fill: none; stroke: #000000"/>
   </g>
   <g id="line2d_25">
    <path d="M 189.579555 105.056035 
L 189.579555 104.308773 
" clip-path="url(#pa8c33af03b)" style="fill: none; stroke: #000000"/>
   </g>
   <g id="line2d_26">
    <path d="M 222.265203 106.032302 
L 222.265203 105.320674 
" clip-path="url(#pa8c33af03b)" style="fill: none; stroke: #000000"/>
   </g>
   <g id="text_9">
    <!-- KL divergence from MP with $n_H$ -->
    <g transform="translate(141.228027 13.634646) scale(0.12 -0.12)">
     <defs>
      <path id="DejaVuSerif-20" transform="scale(0.015625)"/>
      <path id="DejaVuSerif-64" d="M 3359 331 
L 3909 331 
L 3909 0 
L 2784 0 
L 2784 519 
Q 2616 206 2355 57 
Q 2094 -91 1709 -91 
Q 1097 -91 708 395 
Q 319 881 319 1663 
Q 319 2444 706 2928 
Q 1094 3413 1709 3413 
Q 2094 3413 2355 3264 
Q 2616 3116 2784 2803 
L 2784 4531 
L 2241 4531 
L 2241 4863 
L 3359 4863 
L 3359 331 
z
M 2784 1497 
L 2784 1825 
Q 2784 2422 2554 2737 
Q 2325 3053 1888 3053 
Q 1444 3053 1217 2703 
Q 991 2353 991 1663 
Q 991 975 1217 622 
Q 1444 269 1888 269 
Q 2325 269 2554 583 
Q 2784 897 2784 1497 
z
" transform="scale(0.015625)"/>
      <path id="DejaVuSerif-69" d="M 622 4353 
Q 622 4497 726 4603 
Q 831 4709 978 4709 
Q 1122 4709 1226 4603 
Q 1331 4497 1331 4353 
Q 1331 4206 1228 4103 
Q 1125 4000 978 4000 
Q 831 4000 726 4103 
Q 622 4206 622 4353 
z
M 1356 331 
L 1900 331 
L 1900 0 
L 231 0 
L 231 331 
L 781 331 
L 781 2988 
L 231 2988 
L 231 3322 
L 1356 3322 
L 1356 331 
z
" transform="scale(0.015625)"/>
      <path id="DejaVuSerif-76" d="M 1581 0 
L 359 2988 
L -19 2988 
L -19 3322 
L 1509 3322 
L 1509 2988 
L 978 2988 
L 1913 703 
L 2847 2988 
L 2350 2988 
L 2350 3322 
L 3597 3322 
L 3597 2988 
L 3225 2988 
L 2003 0 
L 1581 0 
z
" transform="scale(0.015625)"/>
      <path id="DejaVuSerif-65" d="M 3469 1600 
L 991 1600 
L 991 1575 
Q 991 903 1244 561 
Q 1497 219 1991 219 
Q 2369 219 2611 417 
Q 2853 616 2950 1006 
L 3413 1006 
Q 3275 459 2904 184 
Q 2534 -91 1931 -91 
Q 1203 -91 761 389 
Q 319 869 319 1663 
Q 319 2450 753 2931 
Q 1188 3413 1894 3413 
Q 2647 3413 3050 2948 
Q 3453 2484 3469 1600 
z
M 2791 1931 
Q 2772 2513 2545 2808 
Q 2319 3103 1894 3103 
Q 1497 3103 1269 2806 
Q 1041 2509 991 1931 
L 2791 1931 
z
" transform="scale(0.015625)"/>
      <path id="DejaVuSerif-72" d="M 3059 3328 
L 3059 2497 
L 2728 2497 
Q 2713 2744 2591 2866 
Q 2469 2988 2234 2988 
Q 1809 2988 1582 2694 
Q 1356 2400 1356 1850 
L 1356 331 
L 2022 331 
L 2022 0 
L 263 0 
L 263 331 
L 781 331 
L 781 2994 
L 231 2994 
L 231 3322 
L 1356 3322 
L 1356 2731 
Q 1525 3078 1790 3245 
Q 2056 3413 2438 3413 
Q 2578 3413 2733 3391 
Q 2888 3369 3059 3328 
z
" transform="scale(0.015625)"/>
      <path id="DejaVuSerif-67" d="M 3359 2988 
L 3359 72 
Q 3359 -644 2965 -1033 
Q 2572 -1422 1844 -1422 
Q 1516 -1422 1216 -1362 
Q 916 -1303 641 -1184 
L 641 -488 
L 941 -488 
Q 997 -813 1206 -963 
Q 1416 -1113 1806 -1113 
Q 2313 -1113 2548 -827 
Q 2784 -541 2784 72 
L 2784 519 
Q 2616 206 2355 57 
Q 2094 -91 1709 -91 
Q 1097 -91 708 395 
Q 319 881 319 1663 
Q 319 2444 706 2928 
Q 1094 3413 1709 3413 
Q 2094 3413 2355 3264 
Q 2616 3116 2784 2803 
L 2784 3322 
L 3909 3322 
L 3909 2988 
L 3359 2988 
z
M 2784 1825 
Q 2784 2422 2554 2737 
Q 2325 3053 1888 3053 
Q 1444 3053 1217 2703 
Q 991 2353 991 1663 
Q 991 975 1217 622 
Q 1444 269 1888 269 
Q 2325 269 2554 583 
Q 2784 897 2784 1497 
L 2784 1825 
z
" transform="scale(0.015625)"/>
      <path id="DejaVuSerif-6e" d="M 263 0 
L 263 331 
L 781 331 
L 781 2988 
L 231 2988 
L 231 3322 
L 1356 3322 
L 1356 2731 
Q 1516 3069 1770 3241 
Q 2025 3413 2363 3413 
Q 2913 3413 3172 3097 
Q 3431 2781 3431 2113 
L 3431 331 
L 3944 331 
L 3944 0 
L 2356 0 
L 2356 331 
L 2853 331 
L 2853 1931 
Q 2853 2541 2703 2767 
Q 2553 2994 2175 2994 
Q 1775 2994 1565 2701 
Q 1356 2409 1356 1850 
L 1356 331 
L 1856 331 
L 1856 0 
L 263 0 
z
" transform="scale(0.015625)"/>
      <path id="DejaVuSerif-63" d="M 3291 997 
Q 3169 466 2822 187 
Q 2475 -91 1925 -91 
Q 1200 -91 759 389 
Q 319 869 319 1663 
Q 319 2459 759 2936 
Q 1200 3413 1925 3413 
Q 2241 3413 2553 3339 
Q 2866 3266 3181 3116 
L 3181 2266 
L 2847 2266 
Q 2781 2703 2561 2903 
Q 2341 3103 1931 3103 
Q 1466 3103 1228 2742 
Q 991 2381 991 1663 
Q 991 944 1227 581 
Q 1463 219 1931 219 
Q 2303 219 2525 412 
Q 2747 606 2828 997 
L 3291 997 
z
" transform="scale(0.015625)"/>
      <path id="DejaVuSerif-66" d="M 2753 4078 
L 2450 4078 
Q 2447 4313 2317 4434 
Q 2188 4556 1941 4556 
Q 1619 4556 1487 4379 
Q 1356 4203 1356 3750 
L 1356 3322 
L 2284 3322 
L 2284 2988 
L 1356 2988 
L 1356 331 
L 2094 331 
L 2094 0 
L 231 0 
L 231 331 
L 781 331 
L 781 2988 
L 231 2988 
L 231 3322 
L 781 3322 
L 781 3738 
Q 781 4294 1070 4578 
Q 1359 4863 1919 4863 
Q 2128 4863 2337 4825 
Q 2547 4788 2753 4709 
L 2753 4078 
z
" transform="scale(0.015625)"/>
      <path id="DejaVuSerif-6f" d="M 1925 219 
Q 2388 219 2623 584 
Q 2859 950 2859 1663 
Q 2859 2375 2623 2739 
Q 2388 3103 1925 3103 
Q 1463 3103 1227 2739 
Q 991 2375 991 1663 
Q 991 950 1228 584 
Q 1466 219 1925 219 
z
M 1925 -91 
Q 1200 -91 759 389 
Q 319 869 319 1663 
Q 319 2456 758 2934 
Q 1197 3413 1925 3413 
Q 2653 3413 3092 2934 
Q 3531 2456 3531 1663 
Q 3531 869 3092 389 
Q 2653 -91 1925 -91 
z
" transform="scale(0.015625)"/>
      <path id="DejaVuSerif-6d" d="M 3316 2675 
Q 3481 3041 3739 3227 
Q 3997 3413 4341 3413 
Q 4863 3413 5119 3089 
Q 5375 2766 5375 2113 
L 5375 331 
L 5894 331 
L 5894 0 
L 4300 0 
L 4300 331 
L 4800 331 
L 4800 2047 
Q 4800 2556 4650 2772 
Q 4500 2988 4153 2988 
Q 3769 2988 3567 2697 
Q 3366 2406 3366 1850 
L 3366 331 
L 3866 331 
L 3866 0 
L 2291 0 
L 2291 331 
L 2791 331 
L 2791 2069 
Q 2791 2566 2641 2777 
Q 2491 2988 2144 2988 
Q 1759 2988 1557 2697 
Q 1356 2406 1356 1850 
L 1356 331 
L 1856 331 
L 1856 0 
L 263 0 
L 263 331 
L 781 331 
L 781 2994 
L 231 2994 
L 231 3322 
L 1356 3322 
L 1356 2731 
Q 1516 3063 1762 3238 
Q 2009 3413 2322 3413 
Q 2709 3413 2968 3220 
Q 3228 3028 3316 2675 
z
" transform="scale(0.015625)"/>
      <path id="DejaVuSerif-4d" d="M 353 0 
L 353 331 
L 947 331 
L 947 4331 
L 319 4331 
L 319 4666 
L 1678 4666 
L 3316 1344 
L 4953 4666 
L 6228 4666 
L 6228 4331 
L 5606 4331 
L 5606 331 
L 6203 331 
L 6203 0 
L 4378 0 
L 4378 331 
L 4972 331 
L 4972 3938 
L 3372 684 
L 2931 684 
L 1331 3938 
L 1331 331 
L 1925 331 
L 1925 0 
L 353 0 
z
" transform="scale(0.015625)"/>
      <path id="DejaVuSerif-50" d="M 1581 2375 
L 2406 2375 
Q 2872 2375 3115 2626 
Q 3359 2878 3359 3353 
Q 3359 3831 3115 4081 
Q 2872 4331 2406 4331 
L 1581 4331 
L 1581 2375 
z
M 353 0 
L 353 331 
L 947 331 
L 947 4331 
L 353 4331 
L 353 4666 
L 2559 4666 
Q 3259 4666 3668 4311 
Q 4078 3956 4078 3353 
Q 4078 2753 3668 2397 
Q 3259 2041 2559 2041 
L 1581 2041 
L 1581 331 
L 2303 331 
L 2303 0 
L 353 0 
z
" transform="scale(0.015625)"/>
      <path id="DejaVuSerif-77" d="M 3072 3322 
L 3922 728 
L 4672 2988 
L 4191 2988 
L 4191 3322 
L 5394 3322 
L 5394 2988 
L 5025 2988 
L 4038 0 
L 3559 0 
L 2741 2484 
L 1919 0 
L 1459 0 
L 475 2988 
L 103 2988 
L 103 3322 
L 1606 3322 
L 1606 2988 
L 1069 2988 
L 1813 728 
L 2669 3322 
L 3072 3322 
z
" transform="scale(0.015625)"/>
      <path id="DejaVuSerif-74" d="M 691 2988 
L 184 2988 
L 184 3322 
L 691 3322 
L 691 4353 
L 1269 4353 
L 1269 3322 
L 2350 3322 
L 2350 2988 
L 1269 2988 
L 1269 878 
Q 1269 456 1350 337 
Q 1431 219 1650 219 
Q 1875 219 1978 351 
Q 2081 484 2088 781 
L 2522 781 
Q 2497 328 2275 118 
Q 2053 -91 1600 -91 
Q 1103 -91 897 129 
Q 691 350 691 878 
L 691 2988 
z
" transform="scale(0.015625)"/>
      <path id="DejaVuSerif-68" d="M 263 0 
L 263 331 
L 781 331 
L 781 4531 
L 231 4531 
L 231 4863 
L 1356 4863 
L 1356 2731 
Q 1516 3069 1770 3241 
Q 2025 3413 2363 3413 
Q 2913 3413 3172 3097 
Q 3431 2781 3431 2113 
L 3431 331 
L 3944 331 
L 3944 0 
L 2356 0 
L 2356 331 
L 2853 331 
L 2853 1931 
Q 2853 2541 2704 2764 
Q 2556 2988 2175 2988 
Q 1775 2988 1565 2697 
Q 1356 2406 1356 1850 
L 1356 331 
L 1856 331 
L 1856 0 
L 263 0 
z
" transform="scale(0.015625)"/>
     </defs>
     <use xlink:href="#DejaVuSerif-4b" transform="translate(0 0.015625)"/>
     <use xlink:href="#DejaVuSerif-4c" transform="translate(74.707031 0.015625)"/>
     <use xlink:href="#DejaVuSerif-20" transform="translate(141.113281 0.015625)"/>
     <use xlink:href="#DejaVuSerif-64" transform="translate(172.900391 0.015625)"/>
     <use xlink:href="#DejaVuSerif-69" transform="translate(236.914062 0.015625)"/>
     <use xlink:href="#DejaVuSerif-76" transform="translate(268.896484 0.015625)"/>
     <use xlink:href="#DejaVuSerif-65" transform="translate(325.390625 0.015625)"/>
     <use xlink:href="#DejaVuSerif-72" transform="translate(384.570312 0.015625)"/>
     <use xlink:href="#DejaVuSerif-67" transform="translate(432.373047 0.015625)"/>
     <use xlink:href="#DejaVuSerif-65" transform="translate(496.386719 0.015625)"/>
     <use xlink:href="#DejaVuSerif-6e" transform="translate(555.566406 0.015625)"/>
     <use xlink:href="#DejaVuSerif-63" transform="translate(619.970703 0.015625)"/>
     <use xlink:href="#DejaVuSerif-65" transform="translate(675.976562 0.015625)"/>
     <use xlink:href="#DejaVuSerif-20" transform="translate(735.15625 0.015625)"/>
     <use xlink:href="#DejaVuSerif-66" transform="translate(766.943359 0.015625)"/>
     <use xlink:href="#DejaVuSerif-72" transform="translate(803.955078 0.015625)"/>
     <use xlink:href="#DejaVuSerif-6f" transform="translate(851.757812 0.015625)"/>
     <use xlink:href="#DejaVuSerif-6d" transform="translate(911.962891 0.015625)"/>
     <use xlink:href="#DejaVuSerif-20" transform="translate(1006.787109 0.015625)"/>
     <use xlink:href="#DejaVuSerif-4d" transform="translate(1038.574219 0.015625)"/>
     <use xlink:href="#DejaVuSerif-50" transform="translate(1140.966797 0.015625)"/>
     <use xlink:href="#DejaVuSerif-20" transform="translate(1208.251953 0.015625)"/>
     <use xlink:href="#DejaVuSerif-77" transform="translate(1240.039062 0.015625)"/>
     <use xlink:href="#DejaVuSerif-69" transform="translate(1325.634766 0.015625)"/>
     <use xlink:href="#DejaVuSerif-74" transform="translate(1357.617188 0.015625)"/>
     <use xlink:href="#DejaVuSerif-68" transform="translate(1397.802734 0.015625)"/>
     <use xlink:href="#DejaVuSerif-20" transform="translate(1462.207031 0.015625)"/>
     <use xlink:href="#DejaVuSerif-Italic-6e" transform="translate(1493.994141 0.015625)"/>
     <use xlink:href="#DejaVuSerif-Italic-48" transform="translate(1558.398438 -15.55625) scale(0.7)"/>
    </g>
   </g>
   <g id="PathCollection_1">
    <defs>
     <path id="mc037da7274" d="M 2 0 
L -2 -0 
" style="stroke: #000000"/>
    </defs>
    <g clip-path="url(#pa8c33af03b)">
     <use xlink:href="#mc037da7274" x="58.836963" y="26.357901" style="stroke: #000000"/>
     <use xlink:href="#mc037da7274" x="58.836963" y="26.285326" style="stroke: #000000"/>
    </g>
   </g>
   <g id="PathCollection_2">
    <g clip-path="url(#pa8c33af03b)">
     <use xlink:href="#mc037da7274" x="91.522611" y="81.260045" style="stroke: #000000"/>
     <use xlink:href="#mc037da7274" x="91.522611" y="80.753737" style="stroke: #000000"/>
    </g>
   </g>
   <g id="PathCollection_3">
    <g clip-path="url(#pa8c33af03b)">
     <use xlink:href="#mc037da7274" x="124.208259" y="100.544266" style="stroke: #000000"/>
     <use xlink:href="#mc037da7274" x="124.208259" y="99.765986" style="stroke: #000000"/>
    </g>
   </g>
   <g id="PathCollection_4">
    <g clip-path="url(#pa8c33af03b)">
     <use xlink:href="#mc037da7274" x="156.893907" y="105.410937" style="stroke: #000000"/>
     <use xlink:href="#mc037da7274" x="156.893907" y="104.603231" style="stroke: #000000"/>
    </g>
   </g>
   <g id="PathCollection_5">
    <g clip-path="url(#pa8c33af03b)">
     <use xlink:href="#mc037da7274" x="189.579555" y="105.056035" style="stroke: #000000"/>
     <use xlink:href="#mc037da7274" x="189.579555" y="104.308773" style="stroke: #000000"/>
    </g>
   </g>
   <g id="PathCollection_6">
    <g clip-path="url(#pa8c33af03b)">
     <use xlink:href="#mc037da7274" x="222.265203" y="106.032302" style="stroke: #000000"/>
     <use xlink:href="#mc037da7274" x="222.265203" y="105.320674" style="stroke: #000000"/>
    </g>
   </g>
   <g id="line2d_27">
    <path d="M 58.836963 31.019774 
L 91.522611 78.414459 
L 124.208259 114.51041 
L 156.893907 132.38267 
L 189.579555 134.790436 
L 222.265203 135.736335 
L 254.950851 138.942681 
L 287.636499 139.380724 
" clip-path="url(#pa8c33af03b)" style="fill: none; stroke: #dd8452"/>
   </g>
   <g id="line2d_28">
    <path d="M 58.836963 31.056692 
L 58.836963 30.982915 
" clip-path="url(#pa8c33af03b)" style="fill: none; stroke: #000000"/>
   </g>
   <g id="line2d_29">
    <path d="M 91.522611 78.591362 
L 91.522611 78.238915 
" clip-path="url(#pa8c33af03b)" style="fill: none; stroke: #000000"/>
   </g>
   <g id="line2d_30">
    <path d="M 124.208259 115.059024 
L 124.208259 113.974667 
" clip-path="url(#pa8c33af03b)" style="fill: none; stroke: #000000"/>
   </g>
   <g id="line2d_31">
    <path d="M 156.893907 133.255234 
L 156.893907 131.542222 
" clip-path="url(#pa8c33af03b)" style="fill: none; stroke: #000000"/>
   </g>
   <g id="line2d_32">
    <path d="M 189.579555 135.710931 
L 189.579555 133.905609 
" clip-path="url(#pa8c33af03b)" style="fill: none; stroke: #000000"/>
   </g>
   <g id="line2d_33">
    <path d="M 222.265203 136.620401 
L 222.265203 134.88522 
" clip-path="url(#pa8c33af03b)" style="fill: none; stroke: #000000"/>
   </g>
   <g id="line2d_34">
    <path d="M 254.950851 139.936885 
L 254.950851 137.989958 
" clip-path="url(#pa8c33af03b)" style="fill: none; stroke: #000000"/>
   </g>
   <g id="line2d_35">
    <path d="M 287.636499 140.376366 
L 287.636499 138.426682 
" clip-path="url(#pa8c33af03b)" style="fill: none; stroke: #000000"/>
   </g>
   <g id="PathCollection_7">
    <g clip-path="url(#pa8c33af03b)">
     <use xlink:href="#mc037da7274" x="58.836963" y="31.056692" style="stroke: #000000"/>
     <use xlink:href="#mc037da7274" x="58.836963" y="30.982915" style="stroke: #000000"/>
    </g>
   </g>
   <g id="PathCollection_8">
    <g clip-path="url(#pa8c33af03b)">
     <use xlink:href="#mc037da7274" x="91.522611" y="78.591362" style="stroke: #000000"/>
     <use xlink:href="#mc037da7274" x="91.522611" y="78.238915" style="stroke: #000000"/>
    </g>
   </g>
   <g id="PathCollection_9">
    <g clip-path="url(#pa8c33af03b)">
     <use xlink:href="#mc037da7274" x="124.208259" y="115.059024" style="stroke: #000000"/>
     <use xlink:href="#mc037da7274" x="124.208259" y="113.974667" style="stroke: #000000"/>
    </g>
   </g>
   <g id="PathCollection_10">
    <g clip-path="url(#pa8c33af03b)">
     <use xlink:href="#mc037da7274" x="156.893907" y="133.255234" style="stroke: #000000"/>
     <use xlink:href="#mc037da7274" x="156.893907" y="131.542222" style="stroke: #000000"/>
    </g>
   </g>
   <g id="PathCollection_11">
    <g clip-path="url(#pa8c33af03b)">
     <use xlink:href="#mc037da7274" x="189.579555" y="135.710931" style="stroke: #000000"/>
     <use xlink:href="#mc037da7274" x="189.579555" y="133.905609" style="stroke: #000000"/>
    </g>
   </g>
   <g id="PathCollection_12">
    <g clip-path="url(#pa8c33af03b)">
     <use xlink:href="#mc037da7274" x="222.265203" y="136.620401" style="stroke: #000000"/>
     <use xlink:href="#mc037da7274" x="222.265203" y="134.88522" style="stroke: #000000"/>
    </g>
   </g>
   <g id="PathCollection_13">
    <g clip-path="url(#pa8c33af03b)">
     <use xlink:href="#mc037da7274" x="254.950851" y="139.936885" style="stroke: #000000"/>
     <use xlink:href="#mc037da7274" x="254.950851" y="137.989958" style="stroke: #000000"/>
    </g>
   </g>
   <g id="PathCollection_14">
    <g clip-path="url(#pa8c33af03b)">
     <use xlink:href="#mc037da7274" x="287.636499" y="140.376366" style="stroke: #000000"/>
     <use xlink:href="#mc037da7274" x="287.636499" y="138.426682" style="stroke: #000000"/>
    </g>
   </g>
   <g id="line2d_36">
    <path d="M 58.836963 31.89645 
L 91.522611 76.514331 
L 124.208259 118.712452 
L 156.893907 150.431848 
L 189.579555 159.692991 
L 222.265203 164.957851 
L 254.950851 169.394399 
L 287.636499 173.044715 
L 320.322147 171.669448 
L 353.007795 170.677114 
" clip-path="url(#pa8c33af03b)" style="fill: none; stroke: #55a868"/>
   </g>
   <g id="line2d_37">
    <path d="M 58.836963 31.931775 
L 58.836963 31.86118 
" clip-path="url(#pa8c33af03b)" style="fill: none; stroke: #000000"/>
   </g>
   <g id="line2d_38">
    <path d="M 91.522611 76.630244 
L 91.522611 76.399003 
" clip-path="url(#pa8c33af03b)" style="fill: none; stroke: #000000"/>
   </g>
   <g id="line2d_39">
    <path d="M 124.208259 119.160238 
L 124.208259 118.273277 
" clip-path="url(#pa8c33af03b)" style="fill: none; stroke: #000000"/>
   </g>
   <g id="line2d_40">
    <path d="M 156.893907 151.674251 
L 156.893907 149.25356 
" clip-path="url(#pa8c33af03b)" style="fill: none; stroke: #000000"/>
   </g>
   <g id="line2d_41">
    <path d="M 189.579555 161.269937 
L 189.579555 158.217934 
" clip-path="url(#pa8c33af03b)" style="fill: none; stroke: #000000"/>
   </g>
   <g id="line2d_42">
    <path d="M 222.265203 166.849258 
L 222.265203 163.211176 
" clip-path="url(#pa8c33af03b)" style="fill: none; stroke: #000000"/>
   </g>
   <g id="line2d_43">
    <path d="M 254.950851 171.616129 
L 254.950851 167.369771 
" clip-path="url(#pa8c33af03b)" style="fill: none; stroke: #000000"/>
   </g>
   <g id="line2d_44">
    <path d="M 287.636499 175.809352 
L 287.636499 170.578901 
" clip-path="url(#pa8c33af03b)" style="fill: none; stroke: #000000"/>
   </g>
   <g id="line2d_45">
    <path d="M 320.322147 173.991322 
L 320.322147 169.562 
" clip-path="url(#pa8c33af03b)" style="fill: none; stroke: #000000"/>
   </g>
   <g id="line2d_46">
    <path d="M 353.007795 172.999239 
L 353.007795 168.56946 
" clip-path="url(#pa8c33af03b)" style="fill: none; stroke: #000000"/>
   </g>
   <g id="PathCollection_15">
    <g clip-path="url(#pa8c33af03b)">
     <use xlink:href="#mc037da7274" x="58.836963" y="31.931775" style="stroke: #000000"/>
     <use xlink:href="#mc037da7274" x="58.836963" y="31.86118" style="stroke: #000000"/>
    </g>
   </g>
   <g id="PathCollection_16">
    <g clip-path="url(#pa8c33af03b)">
     <use xlink:href="#mc037da7274" x="91.522611" y="76.630244" style="stroke: #000000"/>
     <use xlink:href="#mc037da7274" x="91.522611" y="76.399003" style="stroke: #000000"/>
    </g>
   </g>
   <g id="PathCollection_17">
    <g clip-path="url(#pa8c33af03b)">
     <use xlink:href="#mc037da7274" x="124.208259" y="119.160238" style="stroke: #000000"/>
     <use xlink:href="#mc037da7274" x="124.208259" y="118.273277" style="stroke: #000000"/>
    </g>
   </g>
   <g id="PathCollection_18">
    <g clip-path="url(#pa8c33af03b)">
     <use xlink:href="#mc037da7274" x="156.893907" y="151.674251" style="stroke: #000000"/>
     <use xlink:href="#mc037da7274" x="156.893907" y="149.25356" style="stroke: #000000"/>
    </g>
   </g>
   <g id="PathCollection_19">
    <g clip-path="url(#pa8c33af03b)">
     <use xlink:href="#mc037da7274" x="189.579555" y="161.269937" style="stroke: #000000"/>
     <use xlink:href="#mc037da7274" x="189.579555" y="158.217934" style="stroke: #000000"/>
    </g>
   </g>
   <g id="PathCollection_20">
    <g clip-path="url(#pa8c33af03b)">
     <use xlink:href="#mc037da7274" x="222.265203" y="166.849258" style="stroke: #000000"/>
     <use xlink:href="#mc037da7274" x="222.265203" y="163.211176" style="stroke: #000000"/>
    </g>
   </g>
   <g id="PathCollection_21">
    <g clip-path="url(#pa8c33af03b)">
     <use xlink:href="#mc037da7274" x="254.950851" y="171.616129" style="stroke: #000000"/>
     <use xlink:href="#mc037da7274" x="254.950851" y="167.369771" style="stroke: #000000"/>
    </g>
   </g>
   <g id="PathCollection_22">
    <g clip-path="url(#pa8c33af03b)">
     <use xlink:href="#mc037da7274" x="287.636499" y="175.809352" style="stroke: #000000"/>
     <use xlink:href="#mc037da7274" x="287.636499" y="170.578901" style="stroke: #000000"/>
    </g>
   </g>
   <g id="PathCollection_23">
    <g clip-path="url(#pa8c33af03b)">
     <use xlink:href="#mc037da7274" x="320.322147" y="173.991322" style="stroke: #000000"/>
     <use xlink:href="#mc037da7274" x="320.322147" y="169.562" style="stroke: #000000"/>
    </g>
   </g>
   <g id="PathCollection_24">
    <g clip-path="url(#pa8c33af03b)">
     <use xlink:href="#mc037da7274" x="353.007795" y="172.999239" style="stroke: #000000"/>
     <use xlink:href="#mc037da7274" x="353.007795" y="168.56946" style="stroke: #000000"/>
    </g>
   </g>
   <g id="line2d_47">
    <path d="M 58.836963 32.123948 
L 91.522611 75.638552 
L 124.208259 118.432132 
L 156.893907 160.382181 
L 189.579555 195.438731 
L 222.265203 219.635196 
L 254.950851 207.854448 
L 287.636499 215.447181 
L 320.322147 217.869117 
L 353.007795 218.549851 
L 385.693443 218.764053 
L 418.379091 225.473215 
" clip-path="url(#pa8c33af03b)" style="fill: none; stroke: #c44e52"/>
   </g>
   <g id="line2d_48">
    <path d="M 58.836963 32.157943 
L 58.836963 32.090005 
" clip-path="url(#pa8c33af03b)" style="fill: none; stroke: #000000"/>
   </g>
   <g id="line2d_49">
    <path d="M 91.522611 75.723637 
L 91.522611 75.553783 
" clip-path="url(#pa8c33af03b)" style="fill: none; stroke: #000000"/>
   </g>
   <g id="line2d_50">
    <path d="M 124.208259 118.701987 
L 124.208259 118.165429 
" clip-path="url(#pa8c33af03b)" style="fill: none; stroke: #000000"/>
   </g>
   <g id="line2d_51">
    <path d="M 156.893907 161.642912 
L 156.893907 159.187421 
" clip-path="url(#pa8c33af03b)" style="fill: none; stroke: #000000"/>
   </g>
   <g id="line2d_52">
    <path d="M 189.579555 200.10918 
L 189.579555 191.56315 
" clip-path="url(#pa8c33af03b)" style="fill: none; stroke: #000000"/>
   </g>
   <g id="line2d_53">
    <path d="M 222.265203 234.154356 
L 222.265203 210.829447 
" clip-path="url(#pa8c33af03b)" style="fill: none; stroke: #000000"/>
   </g>
   <g id="line2d_54">
    <path d="M 254.950851 215.758552 
L 254.950851 201.993758 
" clip-path="url(#pa8c33af03b)" style="fill: none; stroke: #000000"/>
   </g>
   <g id="line2d_55">
    <path d="M 287.636499 227.265863 
L 287.636499 207.697814 
" clip-path="url(#pa8c33af03b)" style="fill: none; stroke: #000000"/>
   </g>
   <g id="line2d_56">
    <path d="M 320.322147 228.870071 
L 320.322147 210.475934 
" clip-path="url(#pa8c33af03b)" style="fill: none; stroke: #000000"/>
   </g>
   <g id="line2d_57">
    <path d="M 353.007795 229.982451 
L 353.007795 210.966373 
" clip-path="url(#pa8c33af03b)" style="fill: none; stroke: #000000"/>
   </g>
   <g id="line2d_58">
    <path d="M 385.693443 234.496062 
L 385.693443 209.536844 
" clip-path="url(#pa8c33af03b)" style="fill: none; stroke: #000000"/>
   </g>
   <g id="line2d_59">
    <path d="M 418.379091 247.974674 
L 418.379091 214.361899 
" clip-path="url(#pa8c33af03b)" style="fill: none; stroke: #000000"/>
   </g>
   <g id="PathCollection_25">
    <g clip-path="url(#pa8c33af03b)">
     <use xlink:href="#mc037da7274" x="58.836963" y="32.157943" style="stroke: #000000"/>
     <use xlink:href="#mc037da7274" x="58.836963" y="32.090005" style="stroke: #000000"/>
    </g>
   </g>
   <g id="PathCollection_26">
    <g clip-path="url(#pa8c33af03b)">
     <use xlink:href="#mc037da7274" x="91.522611" y="75.723637" style="stroke: #000000"/>
     <use xlink:href="#mc037da7274" x="91.522611" y="75.553783" style="stroke: #000000"/>
    </g>
   </g>
   <g id="PathCollection_27">
    <g clip-path="url(#pa8c33af03b)">
     <use xlink:href="#mc037da7274" x="124.208259" y="118.701987" style="stroke: #000000"/>
     <use xlink:href="#mc037da7274" x="124.208259" y="118.165429" style="stroke: #000000"/>
    </g>
   </g>
   <g id="PathCollection_28">
    <g clip-path="url(#pa8c33af03b)">
     <use xlink:href="#mc037da7274" x="156.893907" y="161.642912" style="stroke: #000000"/>
     <use xlink:href="#mc037da7274" x="156.893907" y="159.187421" style="stroke: #000000"/>
    </g>
   </g>
   <g id="PathCollection_29">
    <g clip-path="url(#pa8c33af03b)">
     <use xlink:href="#mc037da7274" x="189.579555" y="200.10918" style="stroke: #000000"/>
     <use xlink:href="#mc037da7274" x="189.579555" y="191.56315" style="stroke: #000000"/>
    </g>
   </g>
   <g id="PathCollection_30">
    <g clip-path="url(#pa8c33af03b)">
     <use xlink:href="#mc037da7274" x="222.265203" y="234.154356" style="stroke: #000000"/>
     <use xlink:href="#mc037da7274" x="222.265203" y="210.829447" style="stroke: #000000"/>
    </g>
   </g>
   <g id="PathCollection_31">
    <g clip-path="url(#pa8c33af03b)">
     <use xlink:href="#mc037da7274" x="254.950851" y="215.758552" style="stroke: #000000"/>
     <use xlink:href="#mc037da7274" x="254.950851" y="201.993758" style="stroke: #000000"/>
    </g>
   </g>
   <g id="PathCollection_32">
    <g clip-path="url(#pa8c33af03b)">
     <use xlink:href="#mc037da7274" x="287.636499" y="227.265863" style="stroke: #000000"/>
     <use xlink:href="#mc037da7274" x="287.636499" y="207.697814" style="stroke: #000000"/>
    </g>
   </g>
   <g id="PathCollection_33">
    <g clip-path="url(#pa8c33af03b)">
     <use xlink:href="#mc037da7274" x="320.322147" y="228.870071" style="stroke: #000000"/>
     <use xlink:href="#mc037da7274" x="320.322147" y="210.475934" style="stroke: #000000"/>
    </g>
   </g>
   <g id="PathCollection_34">
    <g clip-path="url(#pa8c33af03b)">
     <use xlink:href="#mc037da7274" x="353.007795" y="229.982451" style="stroke: #000000"/>
     <use xlink:href="#mc037da7274" x="353.007795" y="210.966373" style="stroke: #000000"/>
    </g>
   </g>
   <g id="PathCollection_35">
    <g clip-path="url(#pa8c33af03b)">
     <use xlink:href="#mc037da7274" x="385.693443" y="234.496062" style="stroke: #000000"/>
     <use xlink:href="#mc037da7274" x="385.693443" y="209.536844" style="stroke: #000000"/>
    </g>
   </g>
   <g id="PathCollection_36">
    <g clip-path="url(#pa8c33af03b)">
     <use xlink:href="#mc037da7274" x="418.379091" y="247.974674" style="stroke: #000000"/>
     <use xlink:href="#mc037da7274" x="418.379091" y="214.361899" style="stroke: #000000"/>
    </g>
   </g>
   <g id="legend_1">
    <g id="patch_7">
     <path d="M 312.765354 123.747146 
L 424.165354 123.747146 
L 424.165354 24.634646 
L 312.765354 24.634646 
z
" style="fill: #ffffff; stroke: #000000; stroke-linejoin: miter"/>
    </g>
    <g id="line2d_60">
     <path d="M 320.765354 36.734646 
L 330.765354 36.734646 
L 340.765354 36.734646 
" style="fill: none; stroke-dasharray: 4.625,2; stroke-dashoffset: 0; stroke: #8c8c8c; stroke-width: 1.25; stroke-linejoin: miter"/>
    </g>
    <g id="text_10">
     <!-- $c_1\exp(-\gamma_1 N)$ -->
     <g transform="translate(348.765354 40.234646) scale(0.1 -0.1)">
      <defs>
       <path id="DejaVuSans-Oblique-63" d="M 3431 3366 
L 3316 2797 
Q 3109 2947 2876 3022 
Q 2644 3097 2394 3097 
Q 2119 3097 1870 3000 
Q 1622 2903 1453 2725 
Q 1184 2453 1037 2087 
Q 891 1722 891 1331 
Q 891 859 1127 628 
Q 1363 397 1844 397 
Q 2081 397 2348 469 
Q 2616 541 2906 684 
L 2797 116 
Q 2547 13 2283 -39 
Q 2019 -91 1741 -91 
Q 1044 -91 669 257 
Q 294 606 294 1253 
Q 294 1797 489 2255 
Q 684 2713 1069 3078 
Q 1331 3328 1684 3456 
Q 2038 3584 2456 3584 
Q 2700 3584 2940 3529 
Q 3181 3475 3431 3366 
z
" transform="scale(0.015625)"/>
       <path id="DejaVuSans-31" d="M 794 531 
L 1825 531 
L 1825 4091 
L 703 3866 
L 703 4441 
L 1819 4666 
L 2450 4666 
L 2450 531 
L 3481 531 
L 3481 0 
L 794 0 
L 794 531 
z
" transform="scale(0.015625)"/>
       <path id="DejaVuSans-65" d="M 3597 1894 
L 3597 1613 
L 953 1613 
Q 991 1019 1311 708 
Q 1631 397 2203 397 
Q 2534 397 2845 478 
Q 3156 559 3463 722 
L 3463 178 
Q 3153 47 2828 -22 
Q 2503 -91 2169 -91 
Q 1331 -91 842 396 
Q 353 884 353 1716 
Q 353 2575 817 3079 
Q 1281 3584 2069 3584 
Q 2775 3584 3186 3129 
Q 3597 2675 3597 1894 
z
M 3022 2063 
Q 3016 2534 2758 2815 
Q 2500 3097 2075 3097 
Q 1594 3097 1305 2825 
Q 1016 2553 972 2059 
L 3022 2063 
z
" transform="scale(0.015625)"/>
       <path id="DejaVuSans-78" d="M 3513 3500 
L 2247 1797 
L 3578 0 
L 2900 0 
L 1881 1375 
L 863 0 
L 184 0 
L 1544 1831 
L 300 3500 
L 978 3500 
L 1906 2253 
L 2834 3500 
L 3513 3500 
z
" transform="scale(0.015625)"/>
       <path id="DejaVuSans-70" d="M 1159 525 
L 1159 -1331 
L 581 -1331 
L 581 3500 
L 1159 3500 
L 1159 2969 
Q 1341 3281 1617 3432 
Q 1894 3584 2278 3584 
Q 2916 3584 3314 3078 
Q 3713 2572 3713 1747 
Q 3713 922 3314 415 
Q 2916 -91 2278 -91 
Q 1894 -91 1617 61 
Q 1341 213 1159 525 
z
M 3116 1747 
Q 3116 2381 2855 2742 
Q 2594 3103 2138 3103 
Q 1681 3103 1420 2742 
Q 1159 2381 1159 1747 
Q 1159 1113 1420 752 
Q 1681 391 2138 391 
Q 2594 391 2855 752 
Q 3116 1113 3116 1747 
z
" transform="scale(0.015625)"/>
       <path id="DejaVuSans-28" d="M 1984 4856 
Q 1566 4138 1362 3434 
Q 1159 2731 1159 2009 
Q 1159 1288 1364 580 
Q 1569 -128 1984 -844 
L 1484 -844 
Q 1016 -109 783 600 
Q 550 1309 550 2009 
Q 550 2706 781 3412 
Q 1013 4119 1484 4856 
L 1984 4856 
z
" transform="scale(0.015625)"/>
       <path id="DejaVuSans-2212" d="M 678 2272 
L 4684 2272 
L 4684 1741 
L 678 1741 
L 678 2272 
z
" transform="scale(0.015625)"/>
       <path id="DejaVuSans-Oblique-3b3" d="M 1491 2950 
L 1838 788 
L 3456 3500 
L 4066 3500 
L 1972 0 
L 1713 -1331 
L 1138 -1331 
L 1397 0 
L 988 2613 
Q 925 3006 628 3006 
L 475 3006 
L 569 3500 
L 788 3500 
Q 1403 3500 1491 2950 
z
" transform="scale(0.015625)"/>
       <path id="DejaVuSans-Oblique-4e" d="M 1081 4666 
L 1931 4666 
L 3219 666 
L 4000 4666 
L 4616 4666 
L 3706 0 
L 2853 0 
L 1569 4025 
L 788 0 
L 172 0 
L 1081 4666 
z
" transform="scale(0.015625)"/>
       <path id="DejaVuSans-29" d="M 513 4856 
L 1013 4856 
Q 1481 4119 1714 3412 
Q 1947 2706 1947 2009 
Q 1947 1309 1714 600 
Q 1481 -109 1013 -844 
L 513 -844 
Q 928 -128 1133 580 
Q 1338 1288 1338 2009 
Q 1338 2731 1133 3434 
Q 928 4138 513 4856 
z
" transform="scale(0.015625)"/>
      </defs>
      <use xlink:href="#DejaVuSans-Oblique-63" transform="translate(0 0.125)"/>
      <use xlink:href="#DejaVuSans-31" transform="translate(54.980469 -16.28125) scale(0.7)"/>
      <use xlink:href="#DejaVuSans-65" transform="translate(102.250977 0.125)"/>
      <use xlink:href="#DejaVuSans-78" transform="translate(163.774414 0.125)"/>
      <use xlink:href="#DejaVuSans-70" transform="translate(222.954102 0.125)"/>
      <use xlink:href="#DejaVuSans-28" transform="translate(286.430664 0.125)"/>
      <use xlink:href="#DejaVuSans-2212" transform="translate(325.444336 0.125)"/>
      <use xlink:href="#DejaVuSans-Oblique-3b3" transform="translate(409.233398 0.125)"/>
      <use xlink:href="#DejaVuSans-31" transform="translate(468.413086 -16.28125) scale(0.7)"/>
      <use xlink:href="#DejaVuSans-Oblique-4e" transform="translate(515.683594 0.125)"/>
      <use xlink:href="#DejaVuSans-29" transform="translate(590.488281 0.125)"/>
     </g>
    </g>
    <g id="line2d_61">
     <path d="M 320.765354 51.434646 
L 330.765354 51.434646 
L 340.765354 51.434646 
" style="fill: none; stroke-dasharray: 4.625,2; stroke-dashoffset: 0; stroke: #8c8c8c; stroke-width: 1.25; stroke-linejoin: miter"/>
    </g>
    <g id="text_11">
     <!-- $c_2\exp(-\gamma_2 n_H)$ -->
     <g transform="translate(348.765354 54.934646) scale(0.1 -0.1)">
      <defs>
       <path id="DejaVuSans-32" d="M 1228 531 
L 3431 531 
L 3431 0 
L 469 0 
L 469 531 
Q 828 903 1448 1529 
Q 2069 2156 2228 2338 
Q 2531 2678 2651 2914 
Q 2772 3150 2772 3378 
Q 2772 3750 2511 3984 
Q 2250 4219 1831 4219 
Q 1534 4219 1204 4116 
Q 875 4013 500 3803 
L 500 4441 
Q 881 4594 1212 4672 
Q 1544 4750 1819 4750 
Q 2544 4750 2975 4387 
Q 3406 4025 3406 3419 
Q 3406 3131 3298 2873 
Q 3191 2616 2906 2266 
Q 2828 2175 2409 1742 
Q 1991 1309 1228 531 
z
" transform="scale(0.015625)"/>
       <path id="DejaVuSans-Oblique-6e" d="M 3566 2113 
L 3156 0 
L 2578 0 
L 2988 2091 
Q 3016 2238 3031 2350 
Q 3047 2463 3047 2528 
Q 3047 2791 2881 2937 
Q 2716 3084 2419 3084 
Q 1956 3084 1622 2776 
Q 1288 2469 1184 1941 
L 800 0 
L 225 0 
L 903 3500 
L 1478 3500 
L 1363 2950 
Q 1603 3253 1940 3418 
Q 2278 3584 2650 3584 
Q 3113 3584 3367 3334 
Q 3622 3084 3622 2631 
Q 3622 2519 3608 2391 
Q 3594 2263 3566 2113 
z
" transform="scale(0.015625)"/>
       <path id="DejaVuSans-Oblique-48" d="M 1081 4666 
L 1716 4666 
L 1344 2753 
L 3634 2753 
L 4006 4666 
L 4641 4666 
L 3731 0 
L 3097 0 
L 3531 2222 
L 1241 2222 
L 806 0 
L 172 0 
L 1081 4666 
z
" transform="scale(0.015625)"/>
      </defs>
      <use xlink:href="#DejaVuSans-Oblique-63" transform="translate(0 0.125)"/>
      <use xlink:href="#DejaVuSans-32" transform="translate(54.980469 -16.28125) scale(0.7)"/>
      <use xlink:href="#DejaVuSans-65" transform="translate(102.250977 0.125)"/>
      <use xlink:href="#DejaVuSans-78" transform="translate(163.774414 0.125)"/>
      <use xlink:href="#DejaVuSans-70" transform="translate(222.954102 0.125)"/>
      <use xlink:href="#DejaVuSans-28" transform="translate(286.430664 0.125)"/>
      <use xlink:href="#DejaVuSans-2212" transform="translate(325.444336 0.125)"/>
      <use xlink:href="#DejaVuSans-Oblique-3b3" transform="translate(409.233398 0.125)"/>
      <use xlink:href="#DejaVuSans-32" transform="translate(468.413086 -16.28125) scale(0.7)"/>
      <use xlink:href="#DejaVuSans-Oblique-6e" transform="translate(515.683594 0.125)"/>
      <use xlink:href="#DejaVuSans-Oblique-48" transform="translate(579.0625 -16.28125) scale(0.7)"/>
      <use xlink:href="#DejaVuSans-29" transform="translate(634.433594 0.125)"/>
     </g>
    </g>
    <g id="line2d_62">
     <path d="M 320.765354 66.133083 
L 330.765354 66.133083 
L 340.765354 66.133083 
" style="fill: none; stroke: #4c72b0; stroke-width: 1.25; stroke-linejoin: miter"/>
    </g>
    <g id="text_12">
     <!-- N=6 -->
     <g transform="translate(348.765354 69.633083) scale(0.1 -0.1)">
      <defs>
       <path id="DejaVuSerif-4e" d="M 313 0 
L 313 331 
L 941 331 
L 941 4331 
L 313 4331 
L 313 4666 
L 1509 4666 
L 4306 984 
L 4306 4331 
L 3681 4331 
L 3681 4666 
L 5319 4666 
L 5319 4331 
L 4691 4331 
L 4691 -91 
L 4313 -91 
L 1325 3841 
L 1325 331 
L 1953 331 
L 1953 0 
L 313 0 
z
" transform="scale(0.015625)"/>
       <path id="DejaVuSerif-3d" d="M 678 2894 
L 4684 2894 
L 4684 2394 
L 678 2394 
L 678 2894 
z
M 678 1619 
L 4684 1619 
L 4684 1119 
L 678 1119 
L 678 1619 
z
" transform="scale(0.015625)"/>
       <path id="DejaVuSerif-36" d="M 2094 219 
Q 2534 219 2771 542 
Q 3009 866 3009 1472 
Q 3009 2078 2771 2401 
Q 2534 2725 2094 2725 
Q 1647 2725 1412 2412 
Q 1178 2100 1178 1509 
Q 1178 888 1415 553 
Q 1653 219 2094 219 
z
M 1075 2569 
Q 1288 2803 1556 2918 
Q 1825 3034 2163 3034 
Q 2859 3034 3264 2615 
Q 3669 2197 3669 1472 
Q 3669 763 3233 336 
Q 2797 -91 2069 -91 
Q 1278 -91 853 498 
Q 428 1088 428 2181 
Q 428 3406 931 4078 
Q 1434 4750 2350 4750 
Q 2597 4750 2869 4703 
Q 3141 4656 3425 4563 
L 3425 3794 
L 3072 3794 
Q 3034 4109 2831 4275 
Q 2628 4441 2284 4441 
Q 1678 4441 1381 3981 
Q 1084 3522 1075 2569 
z
" transform="scale(0.015625)"/>
      </defs>
      <use xlink:href="#DejaVuSerif-4e"/>
      <use xlink:href="#DejaVuSerif-3d" x="87.5"/>
      <use xlink:href="#DejaVuSerif-36" x="171.289062"/>
     </g>
    </g>
    <g id="line2d_63">
     <path d="M 320.765354 80.811208 
L 330.765354 80.811208 
L 340.765354 80.811208 
" style="fill: none; stroke: #dd8452; stroke-width: 1.25; stroke-linejoin: miter"/>
    </g>
    <g id="text_13">
     <!-- N=8 -->
     <g transform="translate(348.765354 84.311208) scale(0.1 -0.1)">
      <defs>
       <path id="DejaVuSerif-38" d="M 2981 1275 
Q 2981 1775 2732 2051 
Q 2484 2328 2034 2328 
Q 1584 2328 1336 2051 
Q 1088 1775 1088 1275 
Q 1088 772 1336 495 
Q 1584 219 2034 219 
Q 2484 219 2732 495 
Q 2981 772 2981 1275 
z
M 2853 3541 
Q 2853 3966 2637 4203 
Q 2422 4441 2034 4441 
Q 1650 4441 1433 4203 
Q 1216 3966 1216 3541 
Q 1216 3113 1433 2875 
Q 1650 2638 2034 2638 
Q 2422 2638 2637 2875 
Q 2853 3113 2853 3541 
z
M 2516 2484 
Q 3047 2413 3344 2092 
Q 3641 1772 3641 1275 
Q 3641 619 3225 264 
Q 2809 -91 2034 -91 
Q 1263 -91 845 264 
Q 428 619 428 1275 
Q 428 1772 725 2092 
Q 1022 2413 1556 2484 
Q 1084 2569 832 2842 
Q 581 3116 581 3541 
Q 581 4103 968 4426 
Q 1356 4750 2034 4750 
Q 2713 4750 3100 4426 
Q 3488 4103 3488 3541 
Q 3488 3116 3236 2842 
Q 2984 2569 2516 2484 
z
" transform="scale(0.015625)"/>
      </defs>
      <use xlink:href="#DejaVuSerif-4e"/>
      <use xlink:href="#DejaVuSerif-3d" x="87.5"/>
      <use xlink:href="#DejaVuSerif-38" x="171.289062"/>
     </g>
    </g>
    <g id="line2d_64">
     <path d="M 320.765354 95.489333 
L 330.765354 95.489333 
L 340.765354 95.489333 
" style="fill: none; stroke: #55a868; stroke-width: 1.25; stroke-linejoin: miter"/>
    </g>
    <g id="text_14">
     <!-- N=10 -->
     <g transform="translate(348.765354 98.989333) scale(0.1 -0.1)">
      <use xlink:href="#DejaVuSerif-4e"/>
      <use xlink:href="#DejaVuSerif-3d" x="87.5"/>
      <use xlink:href="#DejaVuSerif-31" x="171.289062"/>
      <use xlink:href="#DejaVuSerif-30" x="234.912109"/>
     </g>
    </g>
    <g id="line2d_65">
     <path d="M 320.765354 110.167458 
L 330.765354 110.167458 
L 340.765354 110.167458 
" style="fill: none; stroke: #c44e52; stroke-width: 1.25; stroke-linejoin: miter"/>
    </g>
    <g id="text_15">
     <!-- N=12 -->
     <g transform="translate(348.765354 113.667458) scale(0.1 -0.1)">
      <use xlink:href="#DejaVuSerif-4e"/>
      <use xlink:href="#DejaVuSerif-3d" x="87.5"/>
      <use xlink:href="#DejaVuSerif-31" x="171.289062"/>
      <use xlink:href="#DejaVuSerif-32" x="234.912109"/>
     </g>
    </g>
   </g>
  </g>
 </g>
 <defs>
  <clipPath id="pa8c33af03b">
   <rect x="48.0507" y="19.634646" width="381.114655" height="234.990709"/>
  </clipPath>
 </defs>
</svg>
