<?xml version="1.0" encoding="UTF-8"?>
<!DOCTYPE svg PUBLIC "-//W3C//DTD SVG 1.1//EN" "http://www.w3.org/Graphics/SVG/1.1/DTD/svg11.dtd">
<svg version="1.2" width="215.9mm" height="279.4mm" viewBox="0 0 21590 27940" preserveAspectRatio="xMidYMid" fill-rule="evenodd" stroke-width="28.222" stroke-linejoin="round" xmlns="http://www.w3.org/2000/svg" xmlns:ooo="http://xml.openoffice.org/svg/export" xmlns:xlink="http://www.w3.org/1999/xlink" xmlns:presentation="http://sun.com/xmlns/staroffice/presentation" xmlns:smil="http://www.w3.org/2001/SMIL20/" xmlns:anim="urn:oasis:names:tc:opendocument:xmlns:animation:1.0" xmlns:svg="urn:oasis:names:tc:opendocument:xmlns:svg-compatible:1.0" xml:space="preserve">
 <defs class="ClipPathGroup">
  <clipPath id="presentation_clip_path" clipPathUnits="userSpaceOnUse">
   <rect x="0" y="0" width="21590" height="27940"/>
  </clipPath>
  <clipPath id="presentation_clip_path_shrink" clipPathUnits="userSpaceOnUse">
   <rect x="21" y="27" width="21547" height="27885"/>
  </clipPath>
 </defs>
 <defs class="TextShapeIndex">
  <g ooo:slide="id1" ooo:id-list="id3 id4 id5 id6 id7 id8 id9 id10 id11 id12 id13 id14 id15 id16 id17 id18"/>
 </defs>
 <defs class="EmbeddedBulletChars">
  <g id="bullet-char-template-57356" transform="scale(0.00048828125,-0.00048828125)">
   <path d="M 580,1141 L 1163,571 580,0 -4,571 580,1141 Z"/>
  </g>
  <g id="bullet-char-template-57354" transform="scale(0.00048828125,-0.00048828125)">
   <path d="M 8,1128 L 1137,1128 1137,0 8,0 8,1128 Z"/>
  </g>
  <g id="bullet-char-template-10146" transform="scale(0.00048828125,-0.00048828125)">
   <path d="M 174,0 L 602,739 174,1481 1456,739 174,0 Z M 1358,739 L 309,1346 659,739 1358,739 Z"/>
  </g>
  <g id="bullet-char-template-10132" transform="scale(0.00048828125,-0.00048828125)">
   <path d="M 2015,739 L 1276,0 717,0 1260,543 174,543 174,936 1260,936 717,1481 1274,1481 2015,739 Z"/>
  </g>
  <g id="bullet-char-template-10007" transform="scale(0.00048828125,-0.00048828125)">
   <path d="M 0,-2 C -7,14 -16,27 -25,37 L 356,567 C 262,823 215,952 215,954 215,979 228,992 255,992 264,992 276,990 289,987 310,991 331,999 354,1012 L 381,999 492,748 772,1049 836,1024 860,1049 C 881,1039 901,1025 922,1006 886,937 835,863 770,784 769,783 710,716 594,584 L 774,223 C 774,196 753,168 711,139 L 727,119 C 717,90 699,76 672,76 641,76 570,178 457,381 L 164,-76 C 142,-110 111,-127 72,-127 30,-127 9,-110 8,-76 1,-67 -2,-52 -2,-32 -2,-23 -1,-13 0,-2 Z"/>
  </g>
  <g id="bullet-char-template-10004" transform="scale(0.00048828125,-0.00048828125)">
   <path d="M 285,-33 C 182,-33 111,30 74,156 52,228 41,333 41,471 41,549 55,616 82,672 116,743 169,778 240,778 293,778 328,747 346,684 L 369,508 C 377,444 397,411 428,410 L 1163,1116 C 1174,1127 1196,1133 1229,1133 1271,1133 1292,1118 1292,1087 L 1292,965 C 1292,929 1282,901 1262,881 L 442,47 C 390,-6 338,-33 285,-33 Z"/>
  </g>
  <g id="bullet-char-template-9679" transform="scale(0.00048828125,-0.00048828125)">
   <path d="M 813,0 C 632,0 489,54 383,161 276,268 223,411 223,592 223,773 276,916 383,1023 489,1130 632,1184 813,1184 992,1184 1136,1130 1245,1023 1353,916 1407,772 1407,592 1407,412 1353,268 1245,161 1136,54 992,0 813,0 Z"/>
  </g>
  <g id="bullet-char-template-8226" transform="scale(0.00048828125,-0.00048828125)">
   <path d="M 346,457 C 273,457 209,483 155,535 101,586 74,649 74,723 74,796 101,859 155,911 209,963 273,989 346,989 419,989 480,963 531,910 582,859 608,796 608,723 608,648 583,586 532,535 482,483 420,457 346,457 Z"/>
  </g>
  <g id="bullet-char-template-8211" transform="scale(0.00048828125,-0.00048828125)">
   <path d="M -4,459 L 1135,459 1135,606 -4,606 -4,459 Z"/>
  </g>
  <g id="bullet-char-template-61548" transform="scale(0.00048828125,-0.00048828125)">
   <path d="M 173,740 C 173,903 231,1043 346,1159 462,1274 601,1332 765,1332 928,1332 1067,1274 1183,1159 1299,1043 1357,903 1357,740 1357,577 1299,437 1183,322 1067,206 928,148 765,148 601,148 462,206 346,322 231,437 173,577 173,740 Z"/>
  </g>
 </defs>
 <g>
  <g id="id2" class="Master_Slide">
   <g id="bg-id2" class="Background"/>
   <g id="bo-id2" class="BackgroundObjects"/>
  </g>
 </g>
 <g class="SlideGroup">
  <g>
   <g id="container-id1">
    <g id="id1" class="Slide" clip-path="url(#presentation_clip_path)">
     <g class="Page">
      <g class="Group">
       <g class="com.sun.star.drawing.ClosedBezierShape">
        <g id="id3">
         <rect class="BoundingBox" stroke="none" fill="none" x="5812" y="8352" width="2200" height="780"/>
         <path fill="rgb(255,255,255)" stroke="none" d="M 5812,8352 C 6545,8352 7278,8352 8011,8352 8011,8612 8011,8871 8011,9131 7278,9131 6545,9131 5812,9131 5812,8871 5812,8612 5812,8352 Z"/>
        </g>
       </g>
       <g class="com.sun.star.drawing.ClosedBezierShape">
        <g id="id4">
         <rect class="BoundingBox" stroke="none" fill="none" x="5762" y="8302" width="538" height="881"/>
         <path fill="rgb(0,0,0)" stroke="none" d="M 6299,8436 C 6299,8363 6243,8302 6165,8302 6109,8302 6081,8319 6044,8344 5991,8383 5938,8478 5919,8550 5866,8757 5814,8963 5762,9170 5762,9175 5769,9181 5776,9181 5783,9181 5784,9178 5787,9175 5810,9086 5832,8997 5854,8908 5874,8966 5916,9002 5989,9002 6061,9002 6134,8966 6179,8924 6226,8880 6257,8815 6257,8746 6257,8673 6221,8623 6184,8598 6243,8567 6299,8506 6299,8436 Z M 6120,8598 C 6109,8603 6098,8603 6075,8603 6061,8603 6042,8606 6030,8601 6033,8592 6070,8592 6078,8592 6100,8592 6109,8592 6120,8598 Z M 6243,8414 C 6243,8481 6207,8553 6154,8581 6128,8573 6109,8570 6078,8570 6058,8570 6003,8570 6003,8601 6003,8628 6053,8626 6072,8626 6109,8626 6123,8626 6151,8615 6190,8648 6193,8679 6196,8723 6198,8779 6173,8855 6145,8891 6109,8944 6042,8980 5986,8980 5910,8980 5874,8924 5874,8855 5874,8843 5874,8829 5879,8810 5900,8728 5920,8646 5941,8564 5963,8481 6033,8324 6151,8324 6209,8324 6243,8355 6243,8414 Z"/>
        </g>
       </g>
       <g class="com.sun.star.drawing.ClosedBezierShape">
        <g id="id5">
         <rect class="BoundingBox" stroke="none" fill="none" x="6668" y="8634" width="653" height="230"/>
         <path fill="rgb(0,0,0)" stroke="none" d="M 7289,8673 C 7303,8673 7320,8673 7320,8654 7320,8634 7303,8634 7289,8634 7093,8634 6898,8634 6702,8634 6688,8634 6668,8634 6668,8654 6668,8673 6688,8673 6702,8673 6898,8673 7093,8673 7289,8673 Z M 7289,8863 C 7303,8863 7320,8863 7320,8843 7320,8824 7303,8824 7289,8824 7093,8824 6898,8824 6702,8824 6688,8824 6668,8824 6668,8843 6668,8863 6688,8863 6702,8863 6898,8863 7093,8863 7289,8863 Z"/>
        </g>
       </g>
       <g class="com.sun.star.drawing.ClosedBezierShape">
        <g id="id6">
         <rect class="BoundingBox" stroke="none" fill="none" x="7736" y="8341" width="327" height="652"/>
         <path fill="rgb(0,0,0)" stroke="none" d="M 7938,8366 C 7938,8344 7938,8341 7916,8341 7854,8402 7767,8402 7737,8402 7737,8413 7737,8423 7737,8433 7756,8433 7815,8433 7865,8408 7865,8576 7865,8745 7865,8913 7865,8949 7862,8961 7776,8961 7765,8961 7753,8961 7742,8961 7742,8971 7742,8981 7742,8991 7779,8988 7862,8988 7902,8988 7941,8988 8027,8988 8061,8991 8061,8981 8061,8971 8061,8961 8051,8961 8040,8961 8030,8961 7941,8961 7938,8949 7938,8913 7938,8731 7938,8548 7938,8366 Z"/>
        </g>
       </g>
      </g>
      <g class="Group">
       <g class="com.sun.star.drawing.ClosedBezierShape">
        <g id="id7">
         <rect class="BoundingBox" stroke="none" fill="none" x="9303" y="9517" width="3261" height="959"/>
         <path fill="rgb(255,255,255)" stroke="none" d="M 9304,9517 C 10390,9517 11476,9517 12563,9517 12563,9836 12563,10156 12563,10475 11476,10475 10390,10475 9304,10475 9304,10156 9304,9836 9304,9517 Z"/>
        </g>
       </g>
       <g class="com.sun.star.drawing.ClosedBezierShape">
        <g id="id8">
         <rect class="BoundingBox" stroke="none" fill="none" x="9255" y="9642" width="537" height="885"/>
         <path fill="rgb(0,0,0)" stroke="none" d="M 9790,9777 C 9790,9704 9737,9643 9656,9643 9600,9643 9572,9660 9539,9685 9483,9724 9429,9819 9410,9891 9359,10099 9307,10306 9256,10514 9253,10520 9259,10525 9267,10525 9276,10525 9278,10522 9278,10520 9302,10429 9325,10339 9348,10249 9365,10307 9408,10344 9480,10344 9551,10344 9625,10310 9670,10265 9718,10221 9748,10159 9748,10087 9748,10017 9712,9964 9678,9942 9734,9908 9790,9847 9790,9777 Z M 9614,9939 C 9600,9944 9589,9947 9566,9947 9553,9947 9533,9947 9522,9942 9525,9933 9561,9936 9572,9936 9592,9936 9600,9936 9614,9939 Z M 9734,9754 C 9734,9824 9698,9894 9648,9925 9620,9914 9600,9911 9572,9911 9550,9911 9497,9911 9497,9944 9494,9969 9547,9967 9564,9967 9600,9967 9614,9967 9645,9956 9681,9992 9687,10020 9687,10067 9690,10123 9664,10196 9639,10235 9600,10288 9533,10321 9477,10321 9404,10321 9365,10265 9365,10196 9365,10187 9365,10171 9371,10154 9391,10071 9412,9988 9432,9905 9455,9822 9527,9665 9645,9665 9701,9665 9734,9696 9734,9754 Z"/>
        </g>
       </g>
       <g class="com.sun.star.drawing.ClosedBezierShape">
        <g id="id9">
         <rect class="BoundingBox" stroke="none" fill="none" x="10159" y="9975" width="657" height="231"/>
         <path fill="rgb(0,0,0)" stroke="none" d="M 10781,10014 C 10795,10014 10814,10014 10814,9995 10814,9975 10795,9975 10781,9975 10585,9975 10389,9975 10193,9975 10179,9975 10160,9975 10160,9995 10160,10014 10179,10014 10193,10014 10389,10014 10585,10014 10781,10014 Z M 10781,10204 C 10795,10204 10814,10204 10814,10184 10814,10165 10795,10165 10781,10165 10585,10165 10389,10165 10193,10165 10179,10165 10160,10165 10160,10184 10160,10204 10179,10204 10193,10204 10389,10204 10585,10204 10781,10204 Z"/>
        </g>
       </g>
       <g class="com.sun.star.drawing.ClosedBezierShape">
        <g id="id10">
         <rect class="BoundingBox" stroke="none" fill="none" x="11191" y="9681" width="394" height="656"/>
         <path fill="rgb(0,0,0)" stroke="none" d="M 11267,10260 C 11302,10226 11336,10193 11371,10159 11525,10023 11584,9969 11584,9872 11584,9760 11497,9682 11377,9682 11265,9682 11192,9771 11192,9858 11192,9914 11242,9914 11245,9914 11262,9914 11295,9902 11295,9863 11295,9835 11279,9810 11242,9810 11237,9810 11234,9810 11231,9813 11253,9749 11307,9713 11363,9713 11452,9713 11494,9791 11494,9872 11494,9950 11446,10028 11391,10090 11328,10159 11266,10229 11203,10299 11192,10310 11192,10310 11192,10335 11313,10335 11434,10335 11556,10335 11565,10278 11574,10222 11584,10165 11575,10165 11567,10165 11558,10165 11556,10193 11547,10238 11539,10251 11530,10260 11466,10260 11444,10260 11385,10260 11326,10260 11267,10260 Z"/>
        </g>
       </g>
       <g class="com.sun.star.drawing.ClosedBezierShape">
        <g id="id11">
         <rect class="BoundingBox" stroke="none" fill="none" x="11709" y="9740" width="466" height="36"/>
         <path fill="rgb(0,0,0)" stroke="none" d="M 12146,9774 C 12157,9774 12174,9774 12174,9757 12174,9741 12157,9741 12146,9741 12010,9741 11874,9741 11737,9741 11726,9741 11709,9741 11709,9757 11709,9774 11723,9774 11737,9774 11874,9774 12010,9774 12146,9774 Z"/>
        </g>
       </g>
       <g class="com.sun.star.drawing.ClosedBezierShape">
        <g id="id12">
         <rect class="BoundingBox" stroke="none" fill="none" x="12274" y="9466" width="341" height="466"/>
         <path fill="rgb(0,0,0)" stroke="none" d="M 12613,9819 C 12613,9810 12613,9802 12613,9794 12587,9794 12561,9794 12535,9794 12535,9691 12535,9589 12535,9486 12535,9472 12535,9467 12521,9467 12512,9467 12510,9467 12504,9478 12427,9583 12351,9688 12275,9794 12275,9802 12275,9810 12275,9819 12343,9819 12411,9819 12479,9819 12479,9837 12479,9856 12479,9875 12479,9897 12479,9905 12423,9905 12416,9905 12410,9905 12403,9905 12403,9914 12403,9922 12403,9930 12437,9928 12482,9928 12507,9928 12532,9928 12577,9928 12610,9930 12610,9922 12610,9914 12610,9905 12604,9905 12597,9905 12591,9905 12535,9905 12535,9897 12535,9875 12535,9856 12535,9837 12535,9819 12561,9819 12587,9819 12613,9819 Z M 12482,9542 C 12482,9626 12482,9710 12482,9794 12421,9794 12360,9794 12300,9794 12360,9710 12421,9626 12482,9542 Z"/>
        </g>
       </g>
      </g>
      <g class="Group">
       <g class="com.sun.star.drawing.ClosedBezierShape">
        <g id="id13">
         <rect class="BoundingBox" stroke="none" fill="none" x="11362" y="6667" width="3241" height="951"/>
         <path fill="rgb(255,255,255)" stroke="none" d="M 11362,6667 C 12442,6667 13522,6667 14602,6667 14602,6984 14602,7300 14602,7617 13522,7617 12442,7617 11362,7617 11362,7300 11362,6984 11362,6667 Z"/>
        </g>
       </g>
       <g class="com.sun.star.drawing.ClosedBezierShape">
        <g id="id14">
         <rect class="BoundingBox" stroke="none" fill="none" x="11311" y="6784" width="540" height="885"/>
         <path fill="rgb(0,0,0)" stroke="none" d="M 11849,6919 C 11849,6846 11793,6785 11715,6785 11659,6785 11631,6801 11595,6826 11541,6866 11488,6960 11469,7036 11416,7243 11364,7449 11312,7656 11312,7661 11319,7667 11326,7667 11333,7667 11334,7664 11337,7661 11360,7571 11382,7481 11404,7391 11424,7449 11466,7485 11539,7485 11611,7485 11684,7452 11729,7410 11776,7365 11807,7301 11807,7229 11807,7159 11771,7108 11734,7083 11793,7050 11849,6991 11849,6919 Z M 11670,7083 C 11659,7086 11648,7089 11625,7089 11611,7089 11592,7089 11581,7086 11583,7075 11620,7078 11628,7078 11650,7078 11659,7078 11670,7083 Z M 11793,6896 C 11793,6966 11757,7036 11704,7067 11678,7055 11659,7055 11628,7055 11609,7055 11553,7053 11553,7086 11553,7114 11603,7111 11623,7111 11659,7111 11673,7108 11701,7097 11740,7134 11743,7164 11746,7209 11748,7265 11723,7337 11695,7377 11659,7430 11592,7466 11536,7466 11460,7466 11424,7407 11424,7337 11424,7329 11424,7315 11429,7296 11450,7213 11471,7130 11491,7047 11513,6963 11583,6807 11701,6807 11760,6807 11793,6838 11793,6896 Z"/>
        </g>
       </g>
       <g class="com.sun.star.drawing.ClosedBezierShape">
        <g id="id15">
         <rect class="BoundingBox" stroke="none" fill="none" x="12218" y="7116" width="656" height="231"/>
         <path fill="rgb(0,0,0)" stroke="none" d="M 12839,7156 C 12853,7156 12873,7156 12873,7136 12873,7117 12853,7117 12839,7117 12644,7117 12448,7117 12252,7117 12238,7117 12218,7117 12218,7136 12218,7156 12238,7156 12252,7156 12448,7156 12644,7156 12839,7156 Z M 12839,7346 C 12853,7346 12873,7346 12873,7326 12873,7307 12853,7307 12839,7307 12644,7307 12448,7307 12252,7307 12238,7307 12218,7307 12218,7326 12218,7346 12238,7346 12252,7346 12448,7346 12644,7346 12839,7346 Z"/>
        </g>
       </g>
       <g class="com.sun.star.drawing.ClosedBezierShape">
        <g id="id16">
         <rect class="BoundingBox" stroke="none" fill="none" x="13250" y="6823" width="394" height="656"/>
         <path fill="rgb(0,0,0)" stroke="none" d="M 13326,7402 C 13361,7368 13395,7335 13430,7301 13583,7164 13642,7111 13642,7014 13642,6902 13553,6824 13432,6824 13323,6824 13251,6916 13251,7002 13251,7055 13298,7055 13301,7055 13318,7055 13351,7044 13351,7005 13351,6980 13334,6955 13301,6955 13293,6955 13290,6955 13287,6955 13309,6891 13362,6854 13421,6854 13511,6854 13553,6935 13553,7014 13553,7092 13502,7170 13449,7231 13386,7301 13322,7371 13259,7441 13251,7452 13251,7455 13251,7477 13372,7477 13493,7477 13614,7477 13624,7420 13633,7364 13642,7307 13634,7307 13625,7307 13617,7307 13611,7335 13606,7379 13595,7393 13589,7402 13522,7402 13502,7402 13444,7402 13385,7402 13326,7402 Z"/>
        </g>
       </g>
       <g class="com.sun.star.drawing.ClosedBezierShape">
        <g id="id17">
         <rect class="BoundingBox" stroke="none" fill="none" x="13765" y="6885" width="466" height="35"/>
         <path fill="rgb(0,0,0)" stroke="none" d="M 14202,6919 C 14213,6919 14230,6919 14230,6902 14230,6885 14216,6885 14202,6885 14065,6885 13929,6885 13793,6885 13782,6885 13765,6885 13765,6899 13765,6919 13782,6919 13793,6919 13929,6919 14065,6919 14202,6919 Z"/>
        </g>
       </g>
       <g class="com.sun.star.drawing.ClosedBezierShape">
        <g id="id18">
         <rect class="BoundingBox" stroke="none" fill="none" x="14347" y="6617" width="307" height="457"/>
         <path fill="rgb(0,0,0)" stroke="none" d="M 14652,6947 C 14645,6947 14637,6947 14630,6947 14627,6963 14618,7002 14610,7011 14604,7014 14551,7014 14543,7014 14501,7014 14459,7014 14417,7014 14490,6949 14512,6930 14554,6899 14604,6857 14652,6815 14652,6751 14652,6667 14579,6617 14490,6617 14406,6617 14347,6676 14347,6740 14347,6773 14378,6779 14383,6779 14400,6779 14420,6768 14420,6743 14420,6729 14417,6706 14381,6706 14403,6656 14448,6642 14481,6642 14549,6642 14585,6695 14585,6751 14585,6810 14543,6857 14521,6882 14466,6936 14411,6990 14355,7044 14347,7053 14347,7053 14347,7072 14442,7072 14537,7072 14632,7072 14639,7030 14645,6988 14652,6947 Z"/>
        </g>
       </g>
      </g>
     </g>
    </g>
   </g>
  </g>
 </g>
</svg>