<?xml version="1.0" encoding="utf-8" standalone="no"?>
<!DOCTYPE svg PUBLIC "-//W3C//DTD SVG 1.1//EN"
  "http://www.w3.org/Graphics/SVG/1.1/DTD/svg11.dtd">
<svg xmlns:xlink="http://www.w3.org/1999/xlink" width="432pt" height="288pt" viewBox="0 0 432 288" xmlns="http://www.w3.org/2000/svg" version="1.1">
 <metadata>
  <rdf:RDF xmlns:dc="http://purl.org/dc/elements/1.1/" xmlns:cc="http://creativecommons.org/ns#" xmlns:rdf="http://www.w3.org/1999/02/22-rdf-syntax-ns#">
   <cc:Work>
    <dc:type rdf:resource="http://purl.org/dc/dcmitype/StillImage"/>
    <dc:date>2024-07-24T22:44:20.420851</dc:date>
    <dc:format>image/svg+xml</dc:format>
    <dc:creator>
     <cc:Agent>
      <dc:title>Matplotlib v3.9.1, https://matplotlib.org/</dc:title>
     </cc:Agent>
    </dc:creator>
   </cc:Work>
  </rdf:RDF>
 </metadata>
 <defs>
  <style type="text/css">*{stroke-linejoin: round; stroke-linecap: butt}</style>
 </defs>
 <g id="figure_1">
  <g id="patch_1">
   <path d="M 0 288 
L 432 288 
L 432 0 
L 0 0 
z
" style="fill: #ffffff"/>
  </g>
  <g id="axes_1">
   <g id="patch_2">
    <path d="M 48.0507 254.625354 
L 429.165354 254.625354 
L 429.165354 19.634646 
L 48.0507 19.634646 
z
" style="fill: #ffffff"/>
   </g>
   <g id="line2d_1">
    <path d="M 58.836963 26.298256 
L 81.349766 61.990709 
L 103.862569 133.533211 
L 126.375371 196.53326 
L 148.888174 204.664484 
L 171.400977 206.339494 
" clip-path="url(#p393bcb51a8)" style="fill: none; stroke-dasharray: 3.7,1.6; stroke-dashoffset: 0; stroke: #dd8452"/>
   </g>
   <g id="matplotlib.axis_1">
    <g id="xtick_1">
     <g id="line2d_2">
      <defs>
       <path id="mcab5fc0209" d="M 0 0 
L 0 -2.5 
" style="stroke: #000000; stroke-width: 0.5"/>
      </defs>
      <g>
       <use xlink:href="#mcab5fc0209" x="63.8966" y="254.625354" style="stroke: #000000; stroke-width: 0.5"/>
      </g>
     </g>
     <g id="line2d_3">
      <defs>
       <path id="m5a4d5b3dd0" d="M 0 0 
L 0 2.5 
" style="stroke: #000000; stroke-width: 0.5"/>
      </defs>
      <g>
       <use xlink:href="#m5a4d5b3dd0" x="63.8966" y="19.634646" style="stroke: #000000; stroke-width: 0.5"/>
      </g>
     </g>
     <g id="text_1">
      <!-- $3$ -->
      <g transform="translate(60.6966 265.723792) scale(0.1 -0.1)">
       <defs>
        <path id="DejaVuSerif-33" d="M 622 4469 
Q 988 4606 1323 4678 
Q 1659 4750 1953 4750 
Q 2638 4750 3022 4454 
Q 3406 4159 3406 3634 
Q 3406 3213 3140 2930 
Q 2875 2647 2388 2547 
Q 2963 2466 3280 2130 
Q 3597 1794 3597 1259 
Q 3597 606 3158 257 
Q 2719 -91 1894 -91 
Q 1528 -91 1179 -12 
Q 831 66 488 225 
L 488 1131 
L 838 1131 
Q 869 681 1141 450 
Q 1413 219 1906 219 
Q 2384 219 2661 495 
Q 2938 772 2938 1253 
Q 2938 1803 2653 2086 
Q 2369 2369 1819 2369 
L 1522 2369 
L 1522 2688 
L 1678 2688 
Q 2225 2688 2498 2914 
Q 2772 3141 2772 3597 
Q 2772 4006 2547 4223 
Q 2322 4441 1900 4441 
Q 1478 4441 1245 4241 
Q 1013 4041 972 3647 
L 622 3647 
L 622 4469 
z
" transform="scale(0.015625)"/>
       </defs>
       <use xlink:href="#DejaVuSerif-33" transform="translate(0 0.78125)"/>
      </g>
     </g>
    </g>
    <g id="xtick_2">
     <g id="line2d_4">
      <g>
       <use xlink:href="#mcab5fc0209" x="82.278227" y="254.625354" style="stroke: #000000; stroke-width: 0.5"/>
      </g>
     </g>
     <g id="line2d_5">
      <g>
       <use xlink:href="#m5a4d5b3dd0" x="82.278227" y="19.634646" style="stroke: #000000; stroke-width: 0.5"/>
      </g>
     </g>
     <g id="text_2">
      <!-- $5$ -->
      <g transform="translate(79.078227 265.723792) scale(0.1 -0.1)">
       <defs>
        <path id="DejaVuSerif-35" d="M 3219 4666 
L 3219 4153 
L 1081 4153 
L 1081 2816 
Q 1244 2928 1461 2984 
Q 1678 3041 1947 3041 
Q 2703 3041 3140 2622 
Q 3578 2203 3578 1478 
Q 3578 738 3136 323 
Q 2694 -91 1894 -91 
Q 1572 -91 1234 -12 
Q 897 66 544 225 
L 544 1131 
L 897 1131 
Q 925 688 1179 453 
Q 1434 219 1894 219 
Q 2388 219 2653 544 
Q 2919 869 2919 1478 
Q 2919 2084 2655 2407 
Q 2391 2731 1894 2731 
Q 1613 2731 1398 2631 
Q 1184 2531 1019 2322 
L 750 2322 
L 750 4666 
L 3219 4666 
z
" transform="scale(0.015625)"/>
       </defs>
       <use xlink:href="#DejaVuSerif-35" transform="translate(0 0.09375)"/>
      </g>
     </g>
    </g>
    <g id="xtick_3">
     <g id="line2d_6">
      <g>
       <use xlink:href="#mcab5fc0209" x="100.659853" y="254.625354" style="stroke: #000000; stroke-width: 0.5"/>
      </g>
     </g>
     <g id="line2d_7">
      <g>
       <use xlink:href="#m5a4d5b3dd0" x="100.659853" y="19.634646" style="stroke: #000000; stroke-width: 0.5"/>
      </g>
     </g>
     <g id="text_3">
      <!-- $7$ -->
      <g transform="translate(97.459853 265.723792) scale(0.1 -0.1)">
       <defs>
        <path id="DejaVuSerif-37" d="M 3609 4347 
L 1784 0 
L 1319 0 
L 3059 4153 
L 903 4153 
L 903 3578 
L 538 3578 
L 538 4666 
L 3609 4666 
L 3609 4347 
z
" transform="scale(0.015625)"/>
       </defs>
       <use xlink:href="#DejaVuSerif-37" transform="translate(0 0.09375)"/>
      </g>
     </g>
    </g>
    <g id="xtick_4">
     <g id="line2d_8">
      <g>
       <use xlink:href="#mcab5fc0209" x="119.041479" y="254.625354" style="stroke: #000000; stroke-width: 0.5"/>
      </g>
     </g>
     <g id="line2d_9">
      <g>
       <use xlink:href="#m5a4d5b3dd0" x="119.041479" y="19.634646" style="stroke: #000000; stroke-width: 0.5"/>
      </g>
     </g>
     <g id="text_4">
      <!-- $9$ -->
      <g transform="translate(115.841479 265.723792) scale(0.1 -0.1)">
       <defs>
        <path id="DejaVuSerif-39" d="M 2994 2091 
Q 2784 1856 2512 1740 
Q 2241 1625 1900 1625 
Q 1206 1625 804 2044 
Q 403 2463 403 3188 
Q 403 3897 839 4323 
Q 1275 4750 2003 4750 
Q 2794 4750 3217 4161 
Q 3641 3572 3641 2478 
Q 3641 1253 3137 581 
Q 2634 -91 1722 -91 
Q 1475 -91 1203 -44 
Q 931 3 647 97 
L 647 872 
L 997 872 
Q 1038 556 1241 387 
Q 1444 219 1784 219 
Q 2391 219 2687 676 
Q 2984 1134 2994 2091 
z
M 1978 4441 
Q 1534 4441 1298 4117 
Q 1063 3794 1063 3188 
Q 1063 2581 1298 2256 
Q 1534 1931 1978 1931 
Q 2422 1931 2658 2245 
Q 2894 2559 2894 3150 
Q 2894 3772 2656 4106 
Q 2419 4441 1978 4441 
z
" transform="scale(0.015625)"/>
       </defs>
       <use xlink:href="#DejaVuSerif-39" transform="translate(0 0.78125)"/>
      </g>
     </g>
    </g>
    <g id="xtick_5">
     <g id="line2d_10">
      <g>
       <use xlink:href="#mcab5fc0209" x="137.423106" y="254.625354" style="stroke: #000000; stroke-width: 0.5"/>
      </g>
     </g>
     <g id="line2d_11">
      <g>
       <use xlink:href="#m5a4d5b3dd0" x="137.423106" y="19.634646" style="stroke: #000000; stroke-width: 0.5"/>
      </g>
     </g>
     <g id="text_5">
      <!-- $11$ -->
      <g transform="translate(131.023106 265.723792) scale(0.1 -0.1)">
       <defs>
        <path id="DejaVuSerif-31" d="M 909 0 
L 909 331 
L 1722 331 
L 1722 4213 
L 781 3603 
L 781 4013 
L 1919 4750 
L 2350 4750 
L 2350 331 
L 3163 331 
L 3163 0 
L 909 0 
z
" transform="scale(0.015625)"/>
       </defs>
       <use xlink:href="#DejaVuSerif-31" transform="translate(0 0.78125)"/>
       <use xlink:href="#DejaVuSerif-31" transform="translate(63.623047 0.78125)"/>
      </g>
     </g>
    </g>
    <g id="text_6">
     <!-- $n_H$ -->
     <g transform="translate(230.868027 280.921604) scale(0.12 -0.12)">
      <defs>
       <path id="DejaVuSerif-Italic-6e" d="M 450 0 
L 1031 2988 
L 481 2988 
L 544 3322 
L 1669 3322 
L 1556 2731 
Q 1781 3069 2068 3241 
Q 2356 3413 2694 3413 
Q 3244 3413 3444 3097 
Q 3563 2906 3563 2588 
Q 3563 2378 3509 2113 
L 3163 331 
L 3675 331 
L 3613 0 
L 2522 0 
L 2897 1931 
Q 2959 2253 2959 2469 
Q 2959 2659 2909 2769 
Q 2803 2994 2425 2994 
Q 2025 2994 1759 2701 
Q 1494 2409 1384 1850 
L 1025 0 
L 450 0 
z
" transform="scale(0.015625)"/>
       <path id="DejaVuSerif-Italic-48" d="M -97 0 
L -34 331 
L 559 331 
L 1338 4331 
L 744 4331 
L 809 4666 
L 2631 4666 
L 2566 4331 
L 1972 4331 
L 1659 2719 
L 4078 2719 
L 4391 4331 
L 3797 4331 
L 3863 4666 
L 5684 4666 
L 5619 4331 
L 5025 4331 
L 4247 331 
L 4841 331 
L 4778 0 
L 2956 0 
L 3019 331 
L 3616 331 
L 4003 2338 
L 1584 2338 
L 1194 331 
L 1788 331 
L 1725 0 
L -97 0 
z
" transform="scale(0.015625)"/>
      </defs>
      <use xlink:href="#DejaVuSerif-Italic-6e" transform="translate(0 0.671875)"/>
      <use xlink:href="#DejaVuSerif-Italic-48" transform="translate(64.404297 -14.9) scale(0.7)"/>
     </g>
    </g>
   </g>
   <g id="matplotlib.axis_2">
    <g id="ytick_1">
     <g id="line2d_12">
      <defs>
       <path id="m01f7cb78ff" d="M 0 0 
L 2.5 0 
" style="stroke: #000000; stroke-width: 0.5"/>
      </defs>
      <g>
       <use xlink:href="#m01f7cb78ff" x="48.0507" y="231.242566" style="stroke: #000000; stroke-width: 0.5"/>
      </g>
     </g>
     <g id="line2d_13">
      <defs>
       <path id="meab722f3ca" d="M 0 0 
L -2.5 0 
" style="stroke: #000000; stroke-width: 0.5"/>
      </defs>
      <g>
       <use xlink:href="#meab722f3ca" x="429.165354" y="231.242566" style="stroke: #000000; stroke-width: 0.5"/>
      </g>
     </g>
     <g id="text_7">
      <!-- $10^{-4}$ -->
      <g transform="translate(21.1507 235.041785) scale(0.1 -0.1)">
       <defs>
        <path id="DejaVuSerif-30" d="M 2034 219 
Q 2513 219 2750 744 
Q 2988 1269 2988 2328 
Q 2988 3391 2750 3916 
Q 2513 4441 2034 4441 
Q 1556 4441 1318 3916 
Q 1081 3391 1081 2328 
Q 1081 1269 1318 744 
Q 1556 219 2034 219 
z
M 2034 -91 
Q 1275 -91 848 546 
Q 422 1184 422 2328 
Q 422 3475 848 4112 
Q 1275 4750 2034 4750 
Q 2797 4750 3222 4112 
Q 3647 3475 3647 2328 
Q 3647 1184 3222 546 
Q 2797 -91 2034 -91 
z
" transform="scale(0.015625)"/>
        <path id="DejaVuSerif-2212" d="M 678 2259 
L 4684 2259 
L 4684 1753 
L 678 1753 
L 678 2259 
z
" transform="scale(0.015625)"/>
        <path id="DejaVuSerif-34" d="M 2234 1581 
L 2234 4063 
L 641 1581 
L 2234 1581 
z
M 3609 0 
L 1484 0 
L 1484 331 
L 2234 331 
L 2234 1247 
L 197 1247 
L 197 1588 
L 2241 4750 
L 2859 4750 
L 2859 1581 
L 3750 1581 
L 3750 1247 
L 2859 1247 
L 2859 331 
L 3609 331 
L 3609 0 
z
" transform="scale(0.015625)"/>
       </defs>
       <use xlink:href="#DejaVuSerif-31" transform="translate(0 0.7125)"/>
       <use xlink:href="#DejaVuSerif-30" transform="translate(63.623047 0.7125)"/>
       <use xlink:href="#DejaVuSerif-2212" transform="translate(128.154453 37.046875) scale(0.7)"/>
       <use xlink:href="#DejaVuSerif-34" transform="translate(186.806797 37.046875) scale(0.7)"/>
      </g>
     </g>
    </g>
    <g id="ytick_2">
     <g id="line2d_14">
      <g>
       <use xlink:href="#m01f7cb78ff" x="48.0507" y="181.567532" style="stroke: #000000; stroke-width: 0.5"/>
      </g>
     </g>
     <g id="line2d_15">
      <g>
       <use xlink:href="#meab722f3ca" x="429.165354" y="181.567532" style="stroke: #000000; stroke-width: 0.5"/>
      </g>
     </g>
     <g id="text_8">
      <!-- $10^{-3}$ -->
      <g transform="translate(21.1507 185.36675) scale(0.1 -0.1)">
       <use xlink:href="#DejaVuSerif-31" transform="translate(0 0.7125)"/>
       <use xlink:href="#DejaVuSerif-30" transform="translate(63.623047 0.7125)"/>
       <use xlink:href="#DejaVuSerif-2212" transform="translate(128.154453 37.046875) scale(0.7)"/>
       <use xlink:href="#DejaVuSerif-33" transform="translate(186.806797 37.046875) scale(0.7)"/>
      </g>
     </g>
    </g>
    <g id="ytick_3">
     <g id="line2d_16">
      <g>
       <use xlink:href="#m01f7cb78ff" x="48.0507" y="131.892497" style="stroke: #000000; stroke-width: 0.5"/>
      </g>
     </g>
     <g id="line2d_17">
      <g>
       <use xlink:href="#meab722f3ca" x="429.165354" y="131.892497" style="stroke: #000000; stroke-width: 0.5"/>
      </g>
     </g>
     <g id="text_9">
      <!-- $10^{-2}$ -->
      <g transform="translate(21.1507 135.691715) scale(0.1 -0.1)">
       <defs>
        <path id="DejaVuSerif-32" d="M 819 3553 
L 469 3553 
L 469 4384 
Q 803 4563 1142 4656 
Q 1481 4750 1806 4750 
Q 2534 4750 2956 4397 
Q 3378 4044 3378 3438 
Q 3378 2753 2422 1800 
Q 2347 1728 2309 1691 
L 1131 513 
L 3078 513 
L 3078 1088 
L 3444 1088 
L 3444 0 
L 434 0 
L 434 341 
L 1850 1753 
Q 2319 2222 2519 2614 
Q 2719 3006 2719 3438 
Q 2719 3909 2473 4175 
Q 2228 4441 1797 4441 
Q 1350 4441 1106 4219 
Q 863 3997 819 3553 
z
" transform="scale(0.015625)"/>
       </defs>
       <use xlink:href="#DejaVuSerif-31" transform="translate(0 0.7125)"/>
       <use xlink:href="#DejaVuSerif-30" transform="translate(63.623047 0.7125)"/>
       <use xlink:href="#DejaVuSerif-2212" transform="translate(128.154453 37.046875) scale(0.7)"/>
       <use xlink:href="#DejaVuSerif-32" transform="translate(186.806797 37.046875) scale(0.7)"/>
      </g>
     </g>
    </g>
    <g id="ytick_4">
     <g id="line2d_18">
      <g>
       <use xlink:href="#m01f7cb78ff" x="48.0507" y="82.217462" style="stroke: #000000; stroke-width: 0.5"/>
      </g>
     </g>
     <g id="line2d_19">
      <g>
       <use xlink:href="#meab722f3ca" x="429.165354" y="82.217462" style="stroke: #000000; stroke-width: 0.5"/>
      </g>
     </g>
     <g id="text_10">
      <!-- $10^{-1}$ -->
      <g transform="translate(21.1507 86.016681) scale(0.1 -0.1)">
       <use xlink:href="#DejaVuSerif-31" transform="translate(0 0.7125)"/>
       <use xlink:href="#DejaVuSerif-30" transform="translate(63.623047 0.7125)"/>
       <use xlink:href="#DejaVuSerif-2212" transform="translate(128.154453 37.046875) scale(0.7)"/>
       <use xlink:href="#DejaVuSerif-31" transform="translate(186.806797 37.046875) scale(0.7)"/>
      </g>
     </g>
    </g>
    <g id="ytick_5">
     <g id="line2d_20">
      <g>
       <use xlink:href="#m01f7cb78ff" x="48.0507" y="32.542427" style="stroke: #000000; stroke-width: 0.5"/>
      </g>
     </g>
     <g id="line2d_21">
      <g>
       <use xlink:href="#meab722f3ca" x="429.165354" y="32.542427" style="stroke: #000000; stroke-width: 0.5"/>
      </g>
     </g>
     <g id="text_11">
      <!-- $10^{0}$ -->
      <g transform="translate(26.9507 36.341646) scale(0.1 -0.1)">
       <use xlink:href="#DejaVuSerif-31" transform="translate(0 0.7125)"/>
       <use xlink:href="#DejaVuSerif-30" transform="translate(63.623047 0.7125)"/>
       <use xlink:href="#DejaVuSerif-30" transform="translate(128.154453 37.046875) scale(0.7)"/>
      </g>
     </g>
    </g>
    <g id="text_12">
     <!-- $D_{\text{KL}}$ -->
     <g transform="translate(14.655075 148.05) rotate(-90) scale(0.12 -0.12)">
      <defs>
       <path id="DejaVuSerif-Italic-44" d="M 1194 331 
L 1775 331 
Q 2684 331 3271 850 
Q 3859 1369 4048 2337 
Q 4238 3306 3852 3818 
Q 3466 4331 2553 4331 
L 1972 4331 
L 1194 331 
z
M -97 0 
L -34 331 
L 559 331 
L 1338 4331 
L 744 4331 
L 809 4666 
L 2666 4666 
Q 3872 4666 4426 4050 
Q 4981 3434 4766 2338 
Q 4553 1238 3758 619 
Q 2963 0 1759 0 
L -97 0 
z
" transform="scale(0.015625)"/>
       <path id="DejaVuSerif-4b" d="M 353 0 
L 353 331 
L 947 331 
L 947 4331 
L 353 4331 
L 353 4666 
L 2175 4666 
L 2175 4331 
L 1581 4331 
L 1581 2566 
L 3591 4331 
L 3084 4331 
L 3084 4666 
L 4634 4666 
L 4634 4331 
L 4109 4331 
L 2106 2572 
L 4347 331 
L 4878 331 
L 4878 0 
L 3794 0 
L 1581 2216 
L 1581 331 
L 2175 331 
L 2175 0 
L 353 0 
z
" transform="scale(0.015625)"/>
       <path id="DejaVuSerif-4c" d="M 353 0 
L 353 331 
L 947 331 
L 947 4331 
L 353 4331 
L 353 4666 
L 2175 4666 
L 2175 4331 
L 1581 4331 
L 1581 384 
L 3713 384 
L 3713 1166 
L 4097 1166 
L 4097 0 
L 353 0 
z
" transform="scale(0.015625)"/>
      </defs>
      <use xlink:href="#DejaVuSerif-Italic-44" transform="translate(0 0.09375)"/>
      <use xlink:href="#DejaVuSerif-4b" transform="translate(80.175781 -15.478125) scale(0.7)"/>
      <use xlink:href="#DejaVuSerif-4c" transform="translate(132.470703 -15.478125) scale(0.7)"/>
     </g>
    </g>
   </g>
   <g id="line2d_22">
    <path d="M 58.836963 26.311194 
L 58.836963 26.285326 
" clip-path="url(#p393bcb51a8)" style="fill: none; stroke: #000000"/>
   </g>
   <g id="line2d_23">
    <path d="M 81.349766 62.028667 
L 81.349766 61.952818 
" clip-path="url(#p393bcb51a8)" style="fill: none; stroke: #000000"/>
   </g>
   <g id="line2d_24">
    <path d="M 103.862569 133.775102 
L 103.862569 133.294002 
" clip-path="url(#p393bcb51a8)" style="fill: none; stroke: #000000"/>
   </g>
   <g id="line2d_25">
    <path d="M 126.375371 201.302676 
L 126.375371 192.629709 
" clip-path="url(#p393bcb51a8)" style="fill: none; stroke: #000000"/>
   </g>
   <g id="line2d_26">
    <path d="M 148.888174 212.221483 
L 148.888174 199.078888 
" clip-path="url(#p393bcb51a8)" style="fill: none; stroke: #000000"/>
   </g>
   <g id="line2d_27">
    <path d="M 171.400977 214.569975 
L 171.400977 200.396306 
" clip-path="url(#p393bcb51a8)" style="fill: none; stroke: #000000"/>
   </g>
   <g id="PathCollection_1">
    <defs>
     <path id="m1e96e632b6" d="M 3.5 0 
L -3.5 -0 
" style="stroke: #000000"/>
    </defs>
    <g clip-path="url(#p393bcb51a8)">
     <use xlink:href="#m1e96e632b6" x="58.836963" y="26.311194" style="stroke: #000000"/>
     <use xlink:href="#m1e96e632b6" x="58.836963" y="26.285326" style="stroke: #000000"/>
    </g>
   </g>
   <g id="PathCollection_2">
    <g clip-path="url(#p393bcb51a8)">
     <use xlink:href="#m1e96e632b6" x="81.349766" y="62.028667" style="stroke: #000000"/>
     <use xlink:href="#m1e96e632b6" x="81.349766" y="61.952818" style="stroke: #000000"/>
    </g>
   </g>
   <g id="PathCollection_3">
    <g clip-path="url(#p393bcb51a8)">
     <use xlink:href="#m1e96e632b6" x="103.862569" y="133.775102" style="stroke: #000000"/>
     <use xlink:href="#m1e96e632b6" x="103.862569" y="133.294002" style="stroke: #000000"/>
    </g>
   </g>
   <g id="PathCollection_4">
    <g clip-path="url(#p393bcb51a8)">
     <use xlink:href="#m1e96e632b6" x="126.375371" y="201.302676" style="stroke: #000000"/>
     <use xlink:href="#m1e96e632b6" x="126.375371" y="192.629709" style="stroke: #000000"/>
    </g>
   </g>
   <g id="PathCollection_5">
    <g clip-path="url(#p393bcb51a8)">
     <use xlink:href="#m1e96e632b6" x="148.888174" y="212.221483" style="stroke: #000000"/>
     <use xlink:href="#m1e96e632b6" x="148.888174" y="199.078888" style="stroke: #000000"/>
    </g>
   </g>
   <g id="PathCollection_6">
    <g clip-path="url(#p393bcb51a8)">
     <use xlink:href="#m1e96e632b6" x="171.400977" y="214.569975" style="stroke: #000000"/>
     <use xlink:href="#m1e96e632b6" x="171.400977" y="200.396306" style="stroke: #000000"/>
    </g>
   </g>
   <g id="PathCollection_7">
    <defs>
     <path id="m4788cffb9b" d="M -1.339392 -3.233578 
L -3.233578 -1.339392 
L -3.233578 1.339392 
L -1.339392 3.233578 
L 1.339392 3.233578 
L 3.233578 1.339392 
L 3.233578 -1.339392 
L 1.339392 -3.233578 
z
" style="stroke: #000000"/>
    </defs>
    <g clip-path="url(#p393bcb51a8)">
     <use xlink:href="#m4788cffb9b" x="58.836963" y="26.298256" style="fill: #dd8452; stroke: #000000"/>
     <use xlink:href="#m4788cffb9b" x="81.349766" y="61.990709" style="fill: #dd8452; stroke: #000000"/>
     <use xlink:href="#m4788cffb9b" x="103.862569" y="133.533211" style="fill: #dd8452; stroke: #000000"/>
     <use xlink:href="#m4788cffb9b" x="126.375371" y="196.53326" style="fill: #dd8452; stroke: #000000"/>
     <use xlink:href="#m4788cffb9b" x="148.888174" y="204.664484" style="fill: #dd8452; stroke: #000000"/>
     <use xlink:href="#m4788cffb9b" x="171.400977" y="206.339494" style="fill: #dd8452; stroke: #000000"/>
    </g>
   </g>
   <g id="patch_3">
    <path d="M 48.0507 254.625354 
L 48.0507 19.634646 
" style="fill: none; stroke: #000000; stroke-linejoin: miter; stroke-linecap: square"/>
   </g>
   <g id="patch_4">
    <path d="M 429.165354 254.625354 
L 429.165354 19.634646 
" style="fill: none; stroke: #000000; stroke-linejoin: miter; stroke-linecap: square"/>
   </g>
   <g id="patch_5">
    <path d="M 48.0507 254.625354 
L 429.165354 254.625354 
" style="fill: none; stroke: #000000; stroke-linejoin: miter; stroke-linecap: square"/>
   </g>
   <g id="patch_6">
    <path d="M 48.0507 19.634646 
L 429.165354 19.634646 
" style="fill: none; stroke: #000000; stroke-linejoin: miter; stroke-linecap: square"/>
   </g>
   <g id="line2d_28">
    <path d="M 62.319706 29.631647 
L 88.315251 79.610844 
L 114.310797 156.632337 
L 140.306342 217.648177 
L 166.301887 223.909086 
L 192.297433 222.774492 
L 218.292978 227.368452 
L 244.288523 226.815499 
" clip-path="url(#p393bcb51a8)" style="fill: none; stroke-dasharray: 3.7,1.6; stroke-dashoffset: 0; stroke: #55a868"/>
   </g>
   <g id="text_13">
    <!-- Level spacing ratio KL divergence for $O = Z$ -->
    <g transform="translate(105.588027 13.634646) scale(0.12 -0.12)">
     <defs>
      <path id="DejaVuSerif-65" d="M 3469 1600 
L 991 1600 
L 991 1575 
Q 991 903 1244 561 
Q 1497 219 1991 219 
Q 2369 219 2611 417 
Q 2853 616 2950 1006 
L 3413 1006 
Q 3275 459 2904 184 
Q 2534 -91 1931 -91 
Q 1203 -91 761 389 
Q 319 869 319 1663 
Q 319 2450 753 2931 
Q 1188 3413 1894 3413 
Q 2647 3413 3050 2948 
Q 3453 2484 3469 1600 
z
M 2791 1931 
Q 2772 2513 2545 2808 
Q 2319 3103 1894 3103 
Q 1497 3103 1269 2806 
Q 1041 2509 991 1931 
L 2791 1931 
z
" transform="scale(0.015625)"/>
      <path id="DejaVuSerif-76" d="M 1581 0 
L 359 2988 
L -19 2988 
L -19 3322 
L 1509 3322 
L 1509 2988 
L 978 2988 
L 1913 703 
L 2847 2988 
L 2350 2988 
L 2350 3322 
L 3597 3322 
L 3597 2988 
L 3225 2988 
L 2003 0 
L 1581 0 
z
" transform="scale(0.015625)"/>
      <path id="DejaVuSerif-6c" d="M 1313 331 
L 1856 331 
L 1856 0 
L 184 0 
L 184 331 
L 738 331 
L 738 4531 
L 184 4531 
L 184 4863 
L 1313 4863 
L 1313 331 
z
" transform="scale(0.015625)"/>
      <path id="DejaVuSerif-20" transform="scale(0.015625)"/>
      <path id="DejaVuSerif-73" d="M 359 184 
L 359 959 
L 691 959 
Q 703 588 923 403 
Q 1144 219 1575 219 
Q 1963 219 2166 364 
Q 2369 509 2369 788 
Q 2369 1006 2220 1140 
Q 2072 1275 1594 1428 
L 1178 1569 
Q 750 1706 558 1912 
Q 366 2119 366 2438 
Q 366 2894 700 3153 
Q 1034 3413 1625 3413 
Q 1888 3413 2178 3344 
Q 2469 3275 2778 3144 
L 2778 2419 
L 2447 2419 
Q 2434 2741 2221 2922 
Q 2009 3103 1644 3103 
Q 1281 3103 1095 2975 
Q 909 2847 909 2591 
Q 909 2381 1050 2254 
Q 1191 2128 1613 1997 
L 2069 1856 
Q 2541 1709 2748 1489 
Q 2956 1269 2956 922 
Q 2956 450 2595 179 
Q 2234 -91 1600 -91 
Q 1278 -91 972 -22 
Q 666 47 359 184 
z
" transform="scale(0.015625)"/>
      <path id="DejaVuSerif-70" d="M 1313 1825 
L 1313 1497 
Q 1313 897 1542 583 
Q 1772 269 2209 269 
Q 2650 269 2876 622 
Q 3103 975 3103 1663 
Q 3103 2353 2876 2703 
Q 2650 3053 2209 3053 
Q 1772 3053 1542 2737 
Q 1313 2422 1313 1825 
z
M 738 2988 
L 184 2988 
L 184 3322 
L 1313 3322 
L 1313 2803 
Q 1481 3116 1742 3264 
Q 2003 3413 2388 3413 
Q 3000 3413 3387 2928 
Q 3775 2444 3775 1663 
Q 3775 881 3387 395 
Q 3000 -91 2388 -91 
Q 2003 -91 1742 57 
Q 1481 206 1313 519 
L 1313 -997 
L 1856 -997 
L 1856 -1331 
L 184 -1331 
L 184 -997 
L 738 -997 
L 738 2988 
z
" transform="scale(0.015625)"/>
      <path id="DejaVuSerif-61" d="M 2547 1044 
L 2547 1747 
L 1806 1747 
Q 1378 1747 1168 1562 
Q 959 1378 959 997 
Q 959 650 1171 447 
Q 1384 244 1747 244 
Q 2106 244 2326 466 
Q 2547 688 2547 1044 
z
M 3122 2075 
L 3122 331 
L 3634 331 
L 3634 0 
L 2547 0 
L 2547 359 
Q 2356 128 2106 18 
Q 1856 -91 1522 -91 
Q 969 -91 644 203 
Q 319 497 319 997 
Q 319 1513 691 1797 
Q 1063 2081 1741 2081 
L 2547 2081 
L 2547 2309 
Q 2547 2688 2317 2895 
Q 2088 3103 1672 3103 
Q 1328 3103 1125 2947 
Q 922 2791 872 2484 
L 575 2484 
L 575 3156 
Q 875 3284 1158 3348 
Q 1441 3413 1709 3413 
Q 2400 3413 2761 3070 
Q 3122 2728 3122 2075 
z
" transform="scale(0.015625)"/>
      <path id="DejaVuSerif-63" d="M 3291 997 
Q 3169 466 2822 187 
Q 2475 -91 1925 -91 
Q 1200 -91 759 389 
Q 319 869 319 1663 
Q 319 2459 759 2936 
Q 1200 3413 1925 3413 
Q 2241 3413 2553 3339 
Q 2866 3266 3181 3116 
L 3181 2266 
L 2847 2266 
Q 2781 2703 2561 2903 
Q 2341 3103 1931 3103 
Q 1466 3103 1228 2742 
Q 991 2381 991 1663 
Q 991 944 1227 581 
Q 1463 219 1931 219 
Q 2303 219 2525 412 
Q 2747 606 2828 997 
L 3291 997 
z
" transform="scale(0.015625)"/>
      <path id="DejaVuSerif-69" d="M 622 4353 
Q 622 4497 726 4603 
Q 831 4709 978 4709 
Q 1122 4709 1226 4603 
Q 1331 4497 1331 4353 
Q 1331 4206 1228 4103 
Q 1125 4000 978 4000 
Q 831 4000 726 4103 
Q 622 4206 622 4353 
z
M 1356 331 
L 1900 331 
L 1900 0 
L 231 0 
L 231 331 
L 781 331 
L 781 2988 
L 231 2988 
L 231 3322 
L 1356 3322 
L 1356 331 
z
" transform="scale(0.015625)"/>
      <path id="DejaVuSerif-6e" d="M 263 0 
L 263 331 
L 781 331 
L 781 2988 
L 231 2988 
L 231 3322 
L 1356 3322 
L 1356 2731 
Q 1516 3069 1770 3241 
Q 2025 3413 2363 3413 
Q 2913 3413 3172 3097 
Q 3431 2781 3431 2113 
L 3431 331 
L 3944 331 
L 3944 0 
L 2356 0 
L 2356 331 
L 2853 331 
L 2853 1931 
Q 2853 2541 2703 2767 
Q 2553 2994 2175 2994 
Q 1775 2994 1565 2701 
Q 1356 2409 1356 1850 
L 1356 331 
L 1856 331 
L 1856 0 
L 263 0 
z
" transform="scale(0.015625)"/>
      <path id="DejaVuSerif-67" d="M 3359 2988 
L 3359 72 
Q 3359 -644 2965 -1033 
Q 2572 -1422 1844 -1422 
Q 1516 -1422 1216 -1362 
Q 916 -1303 641 -1184 
L 641 -488 
L 941 -488 
Q 997 -813 1206 -963 
Q 1416 -1113 1806 -1113 
Q 2313 -1113 2548 -827 
Q 2784 -541 2784 72 
L 2784 519 
Q 2616 206 2355 57 
Q 2094 -91 1709 -91 
Q 1097 -91 708 395 
Q 319 881 319 1663 
Q 319 2444 706 2928 
Q 1094 3413 1709 3413 
Q 2094 3413 2355 3264 
Q 2616 3116 2784 2803 
L 2784 3322 
L 3909 3322 
L 3909 2988 
L 3359 2988 
z
M 2784 1825 
Q 2784 2422 2554 2737 
Q 2325 3053 1888 3053 
Q 1444 3053 1217 2703 
Q 991 2353 991 1663 
Q 991 975 1217 622 
Q 1444 269 1888 269 
Q 2325 269 2554 583 
Q 2784 897 2784 1497 
L 2784 1825 
z
" transform="scale(0.015625)"/>
      <path id="DejaVuSerif-72" d="M 3059 3328 
L 3059 2497 
L 2728 2497 
Q 2713 2744 2591 2866 
Q 2469 2988 2234 2988 
Q 1809 2988 1582 2694 
Q 1356 2400 1356 1850 
L 1356 331 
L 2022 331 
L 2022 0 
L 263 0 
L 263 331 
L 781 331 
L 781 2994 
L 231 2994 
L 231 3322 
L 1356 3322 
L 1356 2731 
Q 1525 3078 1790 3245 
Q 2056 3413 2438 3413 
Q 2578 3413 2733 3391 
Q 2888 3369 3059 3328 
z
" transform="scale(0.015625)"/>
      <path id="DejaVuSerif-74" d="M 691 2988 
L 184 2988 
L 184 3322 
L 691 3322 
L 691 4353 
L 1269 4353 
L 1269 3322 
L 2350 3322 
L 2350 2988 
L 1269 2988 
L 1269 878 
Q 1269 456 1350 337 
Q 1431 219 1650 219 
Q 1875 219 1978 351 
Q 2081 484 2088 781 
L 2522 781 
Q 2497 328 2275 118 
Q 2053 -91 1600 -91 
Q 1103 -91 897 129 
Q 691 350 691 878 
L 691 2988 
z
" transform="scale(0.015625)"/>
      <path id="DejaVuSerif-6f" d="M 1925 219 
Q 2388 219 2623 584 
Q 2859 950 2859 1663 
Q 2859 2375 2623 2739 
Q 2388 3103 1925 3103 
Q 1463 3103 1227 2739 
Q 991 2375 991 1663 
Q 991 950 1228 584 
Q 1466 219 1925 219 
z
M 1925 -91 
Q 1200 -91 759 389 
Q 319 869 319 1663 
Q 319 2456 758 2934 
Q 1197 3413 1925 3413 
Q 2653 3413 3092 2934 
Q 3531 2456 3531 1663 
Q 3531 869 3092 389 
Q 2653 -91 1925 -91 
z
" transform="scale(0.015625)"/>
      <path id="DejaVuSerif-64" d="M 3359 331 
L 3909 331 
L 3909 0 
L 2784 0 
L 2784 519 
Q 2616 206 2355 57 
Q 2094 -91 1709 -91 
Q 1097 -91 708 395 
Q 319 881 319 1663 
Q 319 2444 706 2928 
Q 1094 3413 1709 3413 
Q 2094 3413 2355 3264 
Q 2616 3116 2784 2803 
L 2784 4531 
L 2241 4531 
L 2241 4863 
L 3359 4863 
L 3359 331 
z
M 2784 1497 
L 2784 1825 
Q 2784 2422 2554 2737 
Q 2325 3053 1888 3053 
Q 1444 3053 1217 2703 
Q 991 2353 991 1663 
Q 991 975 1217 622 
Q 1444 269 1888 269 
Q 2325 269 2554 583 
Q 2784 897 2784 1497 
z
" transform="scale(0.015625)"/>
      <path id="DejaVuSerif-66" d="M 2753 4078 
L 2450 4078 
Q 2447 4313 2317 4434 
Q 2188 4556 1941 4556 
Q 1619 4556 1487 4379 
Q 1356 4203 1356 3750 
L 1356 3322 
L 2284 3322 
L 2284 2988 
L 1356 2988 
L 1356 331 
L 2094 331 
L 2094 0 
L 231 0 
L 231 331 
L 781 331 
L 781 2988 
L 231 2988 
L 231 3322 
L 781 3322 
L 781 3738 
Q 781 4294 1070 4578 
Q 1359 4863 1919 4863 
Q 2128 4863 2337 4825 
Q 2547 4788 2753 4709 
L 2753 4078 
z
" transform="scale(0.015625)"/>
      <path id="DejaVuSerif-Italic-4f" d="M 2219 244 
Q 2984 244 3478 770 
Q 3972 1297 4172 2328 
Q 4372 3363 4084 3889 
Q 3797 4416 3031 4416 
Q 2263 4416 1769 3889 
Q 1275 3363 1075 2328 
Q 875 1297 1162 770 
Q 1450 244 2219 244 
z
M 2153 -91 
Q 1678 -91 1311 65 
Q 944 222 700 525 
Q 419 875 334 1319 
Q 250 1763 359 2328 
Q 469 2894 725 3339 
Q 981 3784 1400 4134 
Q 1766 4441 2191 4595 
Q 2616 4750 3097 4750 
Q 4113 4750 4608 4084 
Q 5103 3419 4891 2328 
Q 4781 1769 4522 1320 
Q 4263 872 3847 525 
Q 3481 219 3056 64 
Q 2631 -91 2153 -91 
z
" transform="scale(0.015625)"/>
      <path id="DejaVuSerif-3d" d="M 678 2894 
L 4684 2894 
L 4684 2394 
L 678 2394 
L 678 2894 
z
M 678 1619 
L 4684 1619 
L 4684 1119 
L 678 1119 
L 678 1619 
z
" transform="scale(0.015625)"/>
      <path id="DejaVuSerif-Italic-5a" d="M -166 0 
L -122 225 
L 3572 4281 
L 1159 4281 
L 1025 3584 
L 641 3584 
L 850 4666 
L 4538 4666 
L 4494 4441 
L 800 384 
L 3438 384 
L 3563 1038 
L 3944 1038 
L 3744 0 
L -166 0 
z
" transform="scale(0.015625)"/>
     </defs>
     <use xlink:href="#DejaVuSerif-4c" transform="translate(0 0.015625)"/>
     <use xlink:href="#DejaVuSerif-65" transform="translate(66.40625 0.015625)"/>
     <use xlink:href="#DejaVuSerif-76" transform="translate(125.585938 0.015625)"/>
     <use xlink:href="#DejaVuSerif-65" transform="translate(182.080078 0.015625)"/>
     <use xlink:href="#DejaVuSerif-6c" transform="translate(241.259766 0.015625)"/>
     <use xlink:href="#DejaVuSerif-20" transform="translate(273.242188 0.015625)"/>
     <use xlink:href="#DejaVuSerif-73" transform="translate(305.029297 0.015625)"/>
     <use xlink:href="#DejaVuSerif-70" transform="translate(356.347656 0.015625)"/>
     <use xlink:href="#DejaVuSerif-61" transform="translate(420.361328 0.015625)"/>
     <use xlink:href="#DejaVuSerif-63" transform="translate(479.980469 0.015625)"/>
     <use xlink:href="#DejaVuSerif-69" transform="translate(535.986328 0.015625)"/>
     <use xlink:href="#DejaVuSerif-6e" transform="translate(567.96875 0.015625)"/>
     <use xlink:href="#DejaVuSerif-67" transform="translate(632.373047 0.015625)"/>
     <use xlink:href="#DejaVuSerif-20" transform="translate(696.386719 0.015625)"/>
     <use xlink:href="#DejaVuSerif-72" transform="translate(728.173828 0.015625)"/>
     <use xlink:href="#DejaVuSerif-61" transform="translate(775.976562 0.015625)"/>
     <use xlink:href="#DejaVuSerif-74" transform="translate(835.595703 0.015625)"/>
     <use xlink:href="#DejaVuSerif-69" transform="translate(875.78125 0.015625)"/>
     <use xlink:href="#DejaVuSerif-6f" transform="translate(907.763672 0.015625)"/>
     <use xlink:href="#DejaVuSerif-20" transform="translate(967.96875 0.015625)"/>
     <use xlink:href="#DejaVuSerif-4b" transform="translate(999.755859 0.015625)"/>
     <use xlink:href="#DejaVuSerif-4c" transform="translate(1074.462891 0.015625)"/>
     <use xlink:href="#DejaVuSerif-20" transform="translate(1140.869141 0.015625)"/>
     <use xlink:href="#DejaVuSerif-64" transform="translate(1172.65625 0.015625)"/>
     <use xlink:href="#DejaVuSerif-69" transform="translate(1236.669922 0.015625)"/>
     <use xlink:href="#DejaVuSerif-76" transform="translate(1268.652344 0.015625)"/>
     <use xlink:href="#DejaVuSerif-65" transform="translate(1325.146484 0.015625)"/>
     <use xlink:href="#DejaVuSerif-72" transform="translate(1384.326172 0.015625)"/>
     <use xlink:href="#DejaVuSerif-67" transform="translate(1432.128906 0.015625)"/>
     <use xlink:href="#DejaVuSerif-65" transform="translate(1496.142578 0.015625)"/>
     <use xlink:href="#DejaVuSerif-6e" transform="translate(1555.322266 0.015625)"/>
     <use xlink:href="#DejaVuSerif-63" transform="translate(1619.726562 0.015625)"/>
     <use xlink:href="#DejaVuSerif-65" transform="translate(1675.732422 0.015625)"/>
     <use xlink:href="#DejaVuSerif-20" transform="translate(1734.912109 0.015625)"/>
     <use xlink:href="#DejaVuSerif-66" transform="translate(1766.699219 0.015625)"/>
     <use xlink:href="#DejaVuSerif-6f" transform="translate(1803.710938 0.015625)"/>
     <use xlink:href="#DejaVuSerif-72" transform="translate(1863.916016 0.015625)"/>
     <use xlink:href="#DejaVuSerif-20" transform="translate(1911.71875 0.015625)"/>
     <use xlink:href="#DejaVuSerif-Italic-4f" transform="translate(1943.505859 0.015625)"/>
     <use xlink:href="#DejaVuSerif-3d" transform="translate(2044.453125 0.015625)"/>
     <use xlink:href="#DejaVuSerif-Italic-5a" transform="translate(2147.207031 0.015625)"/>
    </g>
   </g>
   <g id="line2d_29">
    <path d="M 62.319706 29.647092 
L 62.319706 29.616214 
" clip-path="url(#p393bcb51a8)" style="fill: none; stroke: #000000"/>
   </g>
   <g id="line2d_30">
    <path d="M 88.315251 79.686347 
L 88.315251 79.535604 
" clip-path="url(#p393bcb51a8)" style="fill: none; stroke: #000000"/>
   </g>
   <g id="line2d_31">
    <path d="M 114.310797 157.133066 
L 114.310797 156.142968 
" clip-path="url(#p393bcb51a8)" style="fill: none; stroke: #000000"/>
   </g>
   <g id="line2d_32">
    <path d="M 140.306342 225.809036 
L 140.306342 211.74117 
" clip-path="url(#p393bcb51a8)" style="fill: none; stroke: #000000"/>
   </g>
   <g id="line2d_33">
    <path d="M 166.301887 236.992145 
L 166.301887 215.823153 
" clip-path="url(#p393bcb51a8)" style="fill: none; stroke: #000000"/>
   </g>
   <g id="line2d_34">
    <path d="M 192.297433 235.166271 
L 192.297433 214.953498 
" clip-path="url(#p393bcb51a8)" style="fill: none; stroke: #000000"/>
   </g>
   <g id="line2d_35">
    <path d="M 218.292978 244.686444 
L 218.292978 217.887281 
" clip-path="url(#p393bcb51a8)" style="fill: none; stroke: #000000"/>
   </g>
   <g id="line2d_36">
    <path d="M 244.288523 241.775031 
L 244.288523 218.066208 
" clip-path="url(#p393bcb51a8)" style="fill: none; stroke: #000000"/>
   </g>
   <g id="PathCollection_8">
    <g clip-path="url(#p393bcb51a8)">
     <use xlink:href="#m1e96e632b6" x="62.319706" y="29.647092" style="stroke: #000000"/>
     <use xlink:href="#m1e96e632b6" x="62.319706" y="29.616214" style="stroke: #000000"/>
    </g>
   </g>
   <g id="PathCollection_9">
    <g clip-path="url(#p393bcb51a8)">
     <use xlink:href="#m1e96e632b6" x="88.315251" y="79.686347" style="stroke: #000000"/>
     <use xlink:href="#m1e96e632b6" x="88.315251" y="79.535604" style="stroke: #000000"/>
    </g>
   </g>
   <g id="PathCollection_10">
    <g clip-path="url(#p393bcb51a8)">
     <use xlink:href="#m1e96e632b6" x="114.310797" y="157.133066" style="stroke: #000000"/>
     <use xlink:href="#m1e96e632b6" x="114.310797" y="156.142968" style="stroke: #000000"/>
    </g>
   </g>
   <g id="PathCollection_11">
    <g clip-path="url(#p393bcb51a8)">
     <use xlink:href="#m1e96e632b6" x="140.306342" y="225.809036" style="stroke: #000000"/>
     <use xlink:href="#m1e96e632b6" x="140.306342" y="211.74117" style="stroke: #000000"/>
    </g>
   </g>
   <g id="PathCollection_12">
    <g clip-path="url(#p393bcb51a8)">
     <use xlink:href="#m1e96e632b6" x="166.301887" y="236.992145" style="stroke: #000000"/>
     <use xlink:href="#m1e96e632b6" x="166.301887" y="215.823153" style="stroke: #000000"/>
    </g>
   </g>
   <g id="PathCollection_13">
    <g clip-path="url(#p393bcb51a8)">
     <use xlink:href="#m1e96e632b6" x="192.297433" y="235.166271" style="stroke: #000000"/>
     <use xlink:href="#m1e96e632b6" x="192.297433" y="214.953498" style="stroke: #000000"/>
    </g>
   </g>
   <g id="PathCollection_14">
    <g clip-path="url(#p393bcb51a8)">
     <use xlink:href="#m1e96e632b6" x="218.292978" y="244.686444" style="stroke: #000000"/>
     <use xlink:href="#m1e96e632b6" x="218.292978" y="217.887281" style="stroke: #000000"/>
    </g>
   </g>
   <g id="PathCollection_15">
    <g clip-path="url(#p393bcb51a8)">
     <use xlink:href="#m1e96e632b6" x="244.288523" y="241.775031" style="stroke: #000000"/>
     <use xlink:href="#m1e96e632b6" x="244.288523" y="218.066208" style="stroke: #000000"/>
    </g>
   </g>
   <g id="PathCollection_16">
    <defs>
     <path id="m9ef547373c" d="M -1.339392 -3.233578 
L -3.233578 -1.339392 
L -3.233578 1.339392 
L -1.339392 3.233578 
L 1.339392 3.233578 
L 3.233578 1.339392 
L 3.233578 -1.339392 
L 1.339392 -3.233578 
z
" style="stroke: #000000"/>
    </defs>
    <g clip-path="url(#p393bcb51a8)">
     <use xlink:href="#m9ef547373c" x="62.319706" y="29.631647" style="fill: #55a868; stroke: #000000"/>
     <use xlink:href="#m9ef547373c" x="88.315251" y="79.610844" style="fill: #55a868; stroke: #000000"/>
     <use xlink:href="#m9ef547373c" x="114.310797" y="156.632337" style="fill: #55a868; stroke: #000000"/>
     <use xlink:href="#m9ef547373c" x="140.306342" y="217.648177" style="fill: #55a868; stroke: #000000"/>
     <use xlink:href="#m9ef547373c" x="166.301887" y="223.909086" style="fill: #55a868; stroke: #000000"/>
     <use xlink:href="#m9ef547373c" x="192.297433" y="222.774492" style="fill: #55a868; stroke: #000000"/>
     <use xlink:href="#m9ef547373c" x="218.292978" y="227.368452" style="fill: #55a868; stroke: #000000"/>
     <use xlink:href="#m9ef547373c" x="244.288523" y="226.815499" style="fill: #55a868; stroke: #000000"/>
    </g>
   </g>
   <g id="line2d_37">
    <path d="M 65.388064 30.632589 
L 94.451967 97.195142 
L 123.51587 194.179147 
L 152.579774 228.587068 
L 181.643677 232.529084 
L 210.70758 230.82733 
L 239.771483 233.525691 
L 268.835387 228.78302 
L 297.89929 234.63535 
L 326.963193 228.263166 
" clip-path="url(#p393bcb51a8)" style="fill: none; stroke-dasharray: 3.7,1.6; stroke-dashoffset: 0; stroke: #c44e52"/>
   </g>
   <g id="line2d_38">
    <path d="M 65.388064 30.652099 
L 65.388064 30.613097 
" clip-path="url(#p393bcb51a8)" style="fill: none; stroke: #000000"/>
   </g>
   <g id="line2d_39">
    <path d="M 94.451967 97.373576 
L 94.451967 97.018171 
" clip-path="url(#p393bcb51a8)" style="fill: none; stroke: #000000"/>
   </g>
   <g id="line2d_40">
    <path d="M 123.51587 195.702654 
L 123.51587 192.756169 
" clip-path="url(#p393bcb51a8)" style="fill: none; stroke: #000000"/>
   </g>
   <g id="line2d_41">
    <path d="M 152.579774 238.439868 
L 152.579774 221.848543 
" clip-path="url(#p393bcb51a8)" style="fill: none; stroke: #000000"/>
   </g>
   <g id="line2d_42">
    <path d="M 181.643677 245.273515 
L 181.643677 224.571466 
" clip-path="url(#p393bcb51a8)" style="fill: none; stroke: #000000"/>
   </g>
   <g id="line2d_43">
    <path d="M 210.70758 239.359295 
L 210.70758 224.729493 
" clip-path="url(#p393bcb51a8)" style="fill: none; stroke: #000000"/>
   </g>
   <g id="line2d_44">
    <path d="M 239.771483 245.214953 
L 239.771483 225.986326 
" clip-path="url(#p393bcb51a8)" style="fill: none; stroke: #000000"/>
   </g>
   <g id="line2d_45">
    <path d="M 268.835387 239.012839 
L 268.835387 221.871975 
" clip-path="url(#p393bcb51a8)" style="fill: none; stroke: #000000"/>
   </g>
   <g id="line2d_46">
    <path d="M 297.89929 247.974674 
L 297.89929 226.454137 
" clip-path="url(#p393bcb51a8)" style="fill: none; stroke: #000000"/>
   </g>
   <g id="line2d_47">
    <path d="M 326.963193 236.036515 
L 326.963193 222.560827 
" clip-path="url(#p393bcb51a8)" style="fill: none; stroke: #000000"/>
   </g>
   <g id="PathCollection_17">
    <g clip-path="url(#p393bcb51a8)">
     <use xlink:href="#m1e96e632b6" x="65.388064" y="30.652099" style="stroke: #000000"/>
     <use xlink:href="#m1e96e632b6" x="65.388064" y="30.613097" style="stroke: #000000"/>
    </g>
   </g>
   <g id="PathCollection_18">
    <g clip-path="url(#p393bcb51a8)">
     <use xlink:href="#m1e96e632b6" x="94.451967" y="97.373576" style="stroke: #000000"/>
     <use xlink:href="#m1e96e632b6" x="94.451967" y="97.018171" style="stroke: #000000"/>
    </g>
   </g>
   <g id="PathCollection_19">
    <g clip-path="url(#p393bcb51a8)">
     <use xlink:href="#m1e96e632b6" x="123.51587" y="195.702654" style="stroke: #000000"/>
     <use xlink:href="#m1e96e632b6" x="123.51587" y="192.756169" style="stroke: #000000"/>
    </g>
   </g>
   <g id="PathCollection_20">
    <g clip-path="url(#p393bcb51a8)">
     <use xlink:href="#m1e96e632b6" x="152.579774" y="238.439868" style="stroke: #000000"/>
     <use xlink:href="#m1e96e632b6" x="152.579774" y="221.848543" style="stroke: #000000"/>
    </g>
   </g>
   <g id="PathCollection_21">
    <g clip-path="url(#p393bcb51a8)">
     <use xlink:href="#m1e96e632b6" x="181.643677" y="245.273515" style="stroke: #000000"/>
     <use xlink:href="#m1e96e632b6" x="181.643677" y="224.571466" style="stroke: #000000"/>
    </g>
   </g>
   <g id="PathCollection_22">
    <g clip-path="url(#p393bcb51a8)">
     <use xlink:href="#m1e96e632b6" x="210.70758" y="239.359295" style="stroke: #000000"/>
     <use xlink:href="#m1e96e632b6" x="210.70758" y="224.729493" style="stroke: #000000"/>
    </g>
   </g>
   <g id="PathCollection_23">
    <g clip-path="url(#p393bcb51a8)">
     <use xlink:href="#m1e96e632b6" x="239.771483" y="245.214953" style="stroke: #000000"/>
     <use xlink:href="#m1e96e632b6" x="239.771483" y="225.986326" style="stroke: #000000"/>
    </g>
   </g>
   <g id="PathCollection_24">
    <g clip-path="url(#p393bcb51a8)">
     <use xlink:href="#m1e96e632b6" x="268.835387" y="239.012839" style="stroke: #000000"/>
     <use xlink:href="#m1e96e632b6" x="268.835387" y="221.871975" style="stroke: #000000"/>
    </g>
   </g>
   <g id="PathCollection_25">
    <g clip-path="url(#p393bcb51a8)">
     <use xlink:href="#m1e96e632b6" x="297.89929" y="247.974674" style="stroke: #000000"/>
     <use xlink:href="#m1e96e632b6" x="297.89929" y="226.454137" style="stroke: #000000"/>
    </g>
   </g>
   <g id="PathCollection_26">
    <g clip-path="url(#p393bcb51a8)">
     <use xlink:href="#m1e96e632b6" x="326.963193" y="236.036515" style="stroke: #000000"/>
     <use xlink:href="#m1e96e632b6" x="326.963193" y="222.560827" style="stroke: #000000"/>
    </g>
   </g>
   <g id="PathCollection_27">
    <defs>
     <path id="m6cd8229797" d="M -1.339392 -3.233578 
L -3.233578 -1.339392 
L -3.233578 1.339392 
L -1.339392 3.233578 
L 1.339392 3.233578 
L 3.233578 1.339392 
L 3.233578 -1.339392 
L 1.339392 -3.233578 
z
" style="stroke: #000000"/>
    </defs>
    <g clip-path="url(#p393bcb51a8)">
     <use xlink:href="#m6cd8229797" x="65.388064" y="30.632589" style="fill: #c44e52; stroke: #000000"/>
     <use xlink:href="#m6cd8229797" x="94.451967" y="97.195142" style="fill: #c44e52; stroke: #000000"/>
     <use xlink:href="#m6cd8229797" x="123.51587" y="194.179147" style="fill: #c44e52; stroke: #000000"/>
     <use xlink:href="#m6cd8229797" x="152.579774" y="228.587068" style="fill: #c44e52; stroke: #000000"/>
     <use xlink:href="#m6cd8229797" x="181.643677" y="232.529084" style="fill: #c44e52; stroke: #000000"/>
     <use xlink:href="#m6cd8229797" x="210.70758" y="230.82733" style="fill: #c44e52; stroke: #000000"/>
     <use xlink:href="#m6cd8229797" x="239.771483" y="233.525691" style="fill: #c44e52; stroke: #000000"/>
     <use xlink:href="#m6cd8229797" x="268.835387" y="228.78302" style="fill: #c44e52; stroke: #000000"/>
     <use xlink:href="#m6cd8229797" x="297.89929" y="234.63535" style="fill: #c44e52; stroke: #000000"/>
     <use xlink:href="#m6cd8229797" x="326.963193" y="228.263166" style="fill: #c44e52; stroke: #000000"/>
    </g>
   </g>
   <g id="line2d_48">
    <path d="M 68.162072 29.182999 
L 99.999982 114.051239 
L 131.837893 222.436084 
L 163.675804 231.894012 
L 195.513715 230.608099 
L 227.351626 233.701821 
L 259.189536 231.867653 
L 291.027447 230.666763 
L 322.865358 230.493174 
L 354.703269 234.470374 
L 386.54118 235.569009 
L 418.379091 230.047215 
" clip-path="url(#p393bcb51a8)" style="fill: none; stroke-dasharray: 3.7,1.6; stroke-dashoffset: 0; stroke: #8172b3"/>
   </g>
   <g id="line2d_49">
    <path d="M 68.162072 29.193677 
L 68.162072 29.172327 
" clip-path="url(#p393bcb51a8)" style="fill: none; stroke: #000000"/>
   </g>
   <g id="line2d_50">
    <path d="M 99.999982 114.357517 
L 99.999982 113.749248 
" clip-path="url(#p393bcb51a8)" style="fill: none; stroke: #000000"/>
   </g>
   <g id="line2d_51">
    <path d="M 131.837893 227.274568 
L 131.837893 218.486451 
" clip-path="url(#p393bcb51a8)" style="fill: none; stroke: #000000"/>
   </g>
   <g id="line2d_52">
    <path d="M 163.675804 239.125477 
L 163.675804 226.487522 
" clip-path="url(#p393bcb51a8)" style="fill: none; stroke: #000000"/>
   </g>
   <g id="line2d_53">
    <path d="M 195.513715 235.564935 
L 195.513715 226.580071 
" clip-path="url(#p393bcb51a8)" style="fill: none; stroke: #000000"/>
   </g>
   <g id="line2d_54">
    <path d="M 227.351626 242.710595 
L 227.351626 227.365946 
" clip-path="url(#p393bcb51a8)" style="fill: none; stroke: #000000"/>
   </g>
   <g id="line2d_55">
    <path d="M 259.189536 239.103285 
L 259.189536 226.458844 
" clip-path="url(#p393bcb51a8)" style="fill: none; stroke: #000000"/>
   </g>
   <g id="line2d_56">
    <path d="M 291.027447 236.076176 
L 291.027447 226.345433 
" clip-path="url(#p393bcb51a8)" style="fill: none; stroke: #000000"/>
   </g>
   <g id="line2d_57">
    <path d="M 322.865358 236.506941 
L 322.865358 225.795537 
" clip-path="url(#p393bcb51a8)" style="fill: none; stroke: #000000"/>
   </g>
   <g id="line2d_58">
    <path d="M 354.703269 242.121446 
L 354.703269 228.833796 
" clip-path="url(#p393bcb51a8)" style="fill: none; stroke: #000000"/>
   </g>
   <g id="line2d_59">
    <path d="M 386.54118 243.40766 
L 386.54118 229.831785 
" clip-path="url(#p393bcb51a8)" style="fill: none; stroke: #000000"/>
   </g>
   <g id="line2d_60">
    <path d="M 418.379091 236.750359 
L 418.379091 224.940522 
" clip-path="url(#p393bcb51a8)" style="fill: none; stroke: #000000"/>
   </g>
   <g id="PathCollection_28">
    <g clip-path="url(#p393bcb51a8)">
     <use xlink:href="#m1e96e632b6" x="68.162072" y="29.193677" style="stroke: #000000"/>
     <use xlink:href="#m1e96e632b6" x="68.162072" y="29.172327" style="stroke: #000000"/>
    </g>
   </g>
   <g id="PathCollection_29">
    <g clip-path="url(#p393bcb51a8)">
     <use xlink:href="#m1e96e632b6" x="99.999982" y="114.357517" style="stroke: #000000"/>
     <use xlink:href="#m1e96e632b6" x="99.999982" y="113.749248" style="stroke: #000000"/>
    </g>
   </g>
   <g id="PathCollection_30">
    <g clip-path="url(#p393bcb51a8)">
     <use xlink:href="#m1e96e632b6" x="131.837893" y="227.274568" style="stroke: #000000"/>
     <use xlink:href="#m1e96e632b6" x="131.837893" y="218.486451" style="stroke: #000000"/>
    </g>
   </g>
   <g id="PathCollection_31">
    <g clip-path="url(#p393bcb51a8)">
     <use xlink:href="#m1e96e632b6" x="163.675804" y="239.125477" style="stroke: #000000"/>
     <use xlink:href="#m1e96e632b6" x="163.675804" y="226.487522" style="stroke: #000000"/>
    </g>
   </g>
   <g id="PathCollection_32">
    <g clip-path="url(#p393bcb51a8)">
     <use xlink:href="#m1e96e632b6" x="195.513715" y="235.564935" style="stroke: #000000"/>
     <use xlink:href="#m1e96e632b6" x="195.513715" y="226.580071" style="stroke: #000000"/>
    </g>
   </g>
   <g id="PathCollection_33">
    <g clip-path="url(#p393bcb51a8)">
     <use xlink:href="#m1e96e632b6" x="227.351626" y="242.710595" style="stroke: #000000"/>
     <use xlink:href="#m1e96e632b6" x="227.351626" y="227.365946" style="stroke: #000000"/>
    </g>
   </g>
   <g id="PathCollection_34">
    <g clip-path="url(#p393bcb51a8)">
     <use xlink:href="#m1e96e632b6" x="259.189536" y="239.103285" style="stroke: #000000"/>
     <use xlink:href="#m1e96e632b6" x="259.189536" y="226.458844" style="stroke: #000000"/>
    </g>
   </g>
   <g id="PathCollection_35">
    <g clip-path="url(#p393bcb51a8)">
     <use xlink:href="#m1e96e632b6" x="291.027447" y="236.076176" style="stroke: #000000"/>
     <use xlink:href="#m1e96e632b6" x="291.027447" y="226.345433" style="stroke: #000000"/>
    </g>
   </g>
   <g id="PathCollection_36">
    <g clip-path="url(#p393bcb51a8)">
     <use xlink:href="#m1e96e632b6" x="322.865358" y="236.506941" style="stroke: #000000"/>
     <use xlink:href="#m1e96e632b6" x="322.865358" y="225.795537" style="stroke: #000000"/>
    </g>
   </g>
   <g id="PathCollection_37">
    <g clip-path="url(#p393bcb51a8)">
     <use xlink:href="#m1e96e632b6" x="354.703269" y="242.121446" style="stroke: #000000"/>
     <use xlink:href="#m1e96e632b6" x="354.703269" y="228.833796" style="stroke: #000000"/>
    </g>
   </g>
   <g id="PathCollection_38">
    <g clip-path="url(#p393bcb51a8)">
     <use xlink:href="#m1e96e632b6" x="386.54118" y="243.40766" style="stroke: #000000"/>
     <use xlink:href="#m1e96e632b6" x="386.54118" y="229.831785" style="stroke: #000000"/>
    </g>
   </g>
   <g id="PathCollection_39">
    <g clip-path="url(#p393bcb51a8)">
     <use xlink:href="#m1e96e632b6" x="418.379091" y="236.750359" style="stroke: #000000"/>
     <use xlink:href="#m1e96e632b6" x="418.379091" y="224.940522" style="stroke: #000000"/>
    </g>
   </g>
   <g id="PathCollection_40">
    <defs>
     <path id="m3feb27986a" d="M -1.339392 -3.233578 
L -3.233578 -1.339392 
L -3.233578 1.339392 
L -1.339392 3.233578 
L 1.339392 3.233578 
L 3.233578 1.339392 
L 3.233578 -1.339392 
L 1.339392 -3.233578 
z
" style="stroke: #000000"/>
    </defs>
    <g clip-path="url(#p393bcb51a8)">
     <use xlink:href="#m3feb27986a" x="68.162072" y="29.182999" style="fill: #8172b3; stroke: #000000"/>
     <use xlink:href="#m3feb27986a" x="99.999982" y="114.051239" style="fill: #8172b3; stroke: #000000"/>
     <use xlink:href="#m3feb27986a" x="131.837893" y="222.436084" style="fill: #8172b3; stroke: #000000"/>
     <use xlink:href="#m3feb27986a" x="163.675804" y="231.894012" style="fill: #8172b3; stroke: #000000"/>
     <use xlink:href="#m3feb27986a" x="195.513715" y="230.608099" style="fill: #8172b3; stroke: #000000"/>
     <use xlink:href="#m3feb27986a" x="227.351626" y="233.701821" style="fill: #8172b3; stroke: #000000"/>
     <use xlink:href="#m3feb27986a" x="259.189536" y="231.867653" style="fill: #8172b3; stroke: #000000"/>
     <use xlink:href="#m3feb27986a" x="291.027447" y="230.666763" style="fill: #8172b3; stroke: #000000"/>
     <use xlink:href="#m3feb27986a" x="322.865358" y="230.493174" style="fill: #8172b3; stroke: #000000"/>
     <use xlink:href="#m3feb27986a" x="354.703269" y="234.470374" style="fill: #8172b3; stroke: #000000"/>
     <use xlink:href="#m3feb27986a" x="386.54118" y="235.569009" style="fill: #8172b3; stroke: #000000"/>
     <use xlink:href="#m3feb27986a" x="418.379091" y="230.047215" style="fill: #8172b3; stroke: #000000"/>
    </g>
   </g>
   <g id="legend_1">
    <g id="patch_7">
     <path d="M 350.310667 94.347146 
L 424.165354 94.347146 
L 424.165354 24.634646 
L 350.310667 24.634646 
z
" style="fill: #ffffff; stroke: #000000; stroke-linejoin: miter"/>
    </g>
    <g id="line2d_61">
     <path d="M 358.310667 36.733083 
L 368.310667 36.733083 
L 378.310667 36.733083 
" style="fill: none"/>
     <defs>
      <path id="m74184d6c49" d="M -1.530734 -3.695518 
L -3.695518 -1.530734 
L -3.695518 1.530734 
L -1.530734 3.695518 
L 1.530734 3.695518 
L 3.695518 1.530734 
L 3.695518 -1.530734 
L 1.530734 -3.695518 
z
" style="stroke: #000000; stroke-width: 1.142857; stroke-linejoin: miter"/>
     </defs>
     <g>
      <use xlink:href="#m74184d6c49" x="368.310667" y="36.733083" style="fill: #dd8452; stroke: #000000; stroke-width: 1.142857; stroke-linejoin: miter"/>
     </g>
    </g>
    <g id="text_14">
     <!-- N=6 -->
     <g transform="translate(386.310667 40.233083) scale(0.1 -0.1)">
      <defs>
       <path id="DejaVuSerif-4e" d="M 313 0 
L 313 331 
L 941 331 
L 941 4331 
L 313 4331 
L 313 4666 
L 1509 4666 
L 4306 984 
L 4306 4331 
L 3681 4331 
L 3681 4666 
L 5319 4666 
L 5319 4331 
L 4691 4331 
L 4691 -91 
L 4313 -91 
L 1325 3841 
L 1325 331 
L 1953 331 
L 1953 0 
L 313 0 
z
" transform="scale(0.015625)"/>
       <path id="DejaVuSerif-36" d="M 2094 219 
Q 2534 219 2771 542 
Q 3009 866 3009 1472 
Q 3009 2078 2771 2401 
Q 2534 2725 2094 2725 
Q 1647 2725 1412 2412 
Q 1178 2100 1178 1509 
Q 1178 888 1415 553 
Q 1653 219 2094 219 
z
M 1075 2569 
Q 1288 2803 1556 2918 
Q 1825 3034 2163 3034 
Q 2859 3034 3264 2615 
Q 3669 2197 3669 1472 
Q 3669 763 3233 336 
Q 2797 -91 2069 -91 
Q 1278 -91 853 498 
Q 428 1088 428 2181 
Q 428 3406 931 4078 
Q 1434 4750 2350 4750 
Q 2597 4750 2869 4703 
Q 3141 4656 3425 4563 
L 3425 3794 
L 3072 3794 
Q 3034 4109 2831 4275 
Q 2628 4441 2284 4441 
Q 1678 4441 1381 3981 
Q 1084 3522 1075 2569 
z
" transform="scale(0.015625)"/>
      </defs>
      <use xlink:href="#DejaVuSerif-4e"/>
      <use xlink:href="#DejaVuSerif-3d" x="87.5"/>
      <use xlink:href="#DejaVuSerif-36" x="171.289062"/>
     </g>
    </g>
    <g id="line2d_62">
     <path d="M 358.310667 51.411208 
L 368.310667 51.411208 
L 378.310667 51.411208 
" style="fill: none"/>
     <defs>
      <path id="mf4926c6a7f" d="M -1.530734 -3.695518 
L -3.695518 -1.530734 
L -3.695518 1.530734 
L -1.530734 3.695518 
L 1.530734 3.695518 
L 3.695518 1.530734 
L 3.695518 -1.530734 
L 1.530734 -3.695518 
z
" style="stroke: #000000; stroke-width: 1.142857; stroke-linejoin: miter"/>
     </defs>
     <g>
      <use xlink:href="#mf4926c6a7f" x="368.310667" y="51.411208" style="fill: #55a868; stroke: #000000; stroke-width: 1.142857; stroke-linejoin: miter"/>
     </g>
    </g>
    <g id="text_15">
     <!-- N=8 -->
     <g transform="translate(386.310667 54.911208) scale(0.1 -0.1)">
      <defs>
       <path id="DejaVuSerif-38" d="M 2981 1275 
Q 2981 1775 2732 2051 
Q 2484 2328 2034 2328 
Q 1584 2328 1336 2051 
Q 1088 1775 1088 1275 
Q 1088 772 1336 495 
Q 1584 219 2034 219 
Q 2484 219 2732 495 
Q 2981 772 2981 1275 
z
M 2853 3541 
Q 2853 3966 2637 4203 
Q 2422 4441 2034 4441 
Q 1650 4441 1433 4203 
Q 1216 3966 1216 3541 
Q 1216 3113 1433 2875 
Q 1650 2638 2034 2638 
Q 2422 2638 2637 2875 
Q 2853 3113 2853 3541 
z
M 2516 2484 
Q 3047 2413 3344 2092 
Q 3641 1772 3641 1275 
Q 3641 619 3225 264 
Q 2809 -91 2034 -91 
Q 1263 -91 845 264 
Q 428 619 428 1275 
Q 428 1772 725 2092 
Q 1022 2413 1556 2484 
Q 1084 2569 832 2842 
Q 581 3116 581 3541 
Q 581 4103 968 4426 
Q 1356 4750 2034 4750 
Q 2713 4750 3100 4426 
Q 3488 4103 3488 3541 
Q 3488 3116 3236 2842 
Q 2984 2569 2516 2484 
z
" transform="scale(0.015625)"/>
      </defs>
      <use xlink:href="#DejaVuSerif-4e"/>
      <use xlink:href="#DejaVuSerif-3d" x="87.5"/>
      <use xlink:href="#DejaVuSerif-38" x="171.289062"/>
     </g>
    </g>
    <g id="line2d_63">
     <path d="M 358.310667 66.089333 
L 368.310667 66.089333 
L 378.310667 66.089333 
" style="fill: none"/>
     <defs>
      <path id="m82d6118a82" d="M -1.530734 -3.695518 
L -3.695518 -1.530734 
L -3.695518 1.530734 
L -1.530734 3.695518 
L 1.530734 3.695518 
L 3.695518 1.530734 
L 3.695518 -1.530734 
L 1.530734 -3.695518 
z
" style="stroke: #000000; stroke-width: 1.142857; stroke-linejoin: miter"/>
     </defs>
     <g>
      <use xlink:href="#m82d6118a82" x="368.310667" y="66.089333" style="fill: #c44e52; stroke: #000000; stroke-width: 1.142857; stroke-linejoin: miter"/>
     </g>
    </g>
    <g id="text_16">
     <!-- N=10 -->
     <g transform="translate(386.310667 69.589333) scale(0.1 -0.1)">
      <use xlink:href="#DejaVuSerif-4e"/>
      <use xlink:href="#DejaVuSerif-3d" x="87.5"/>
      <use xlink:href="#DejaVuSerif-31" x="171.289062"/>
      <use xlink:href="#DejaVuSerif-30" x="234.912109"/>
     </g>
    </g>
    <g id="line2d_64">
     <path d="M 358.310667 80.767458 
L 368.310667 80.767458 
L 378.310667 80.767458 
" style="fill: none"/>
     <defs>
      <path id="m0e25afc340" d="M -1.530734 -3.695518 
L -3.695518 -1.530734 
L -3.695518 1.530734 
L -1.530734 3.695518 
L 1.530734 3.695518 
L 3.695518 1.530734 
L 3.695518 -1.530734 
L 1.530734 -3.695518 
z
" style="stroke: #000000; stroke-width: 1.142857; stroke-linejoin: miter"/>
     </defs>
     <g>
      <use xlink:href="#m0e25afc340" x="368.310667" y="80.767458" style="fill: #8172b3; stroke: #000000; stroke-width: 1.142857; stroke-linejoin: miter"/>
     </g>
    </g>
    <g id="text_17">
     <!-- N=12 -->
     <g transform="translate(386.310667 84.267458) scale(0.1 -0.1)">
      <use xlink:href="#DejaVuSerif-4e"/>
      <use xlink:href="#DejaVuSerif-3d" x="87.5"/>
      <use xlink:href="#DejaVuSerif-31" x="171.289062"/>
      <use xlink:href="#DejaVuSerif-32" x="234.912109"/>
     </g>
    </g>
   </g>
  </g>
 </g>
 <defs>
  <clipPath id="p393bcb51a8">
   <rect x="48.0507" y="19.634646" width="381.114655" height="234.990709"/>
  </clipPath>
 </defs>
</svg>
