<?xml version="1.0" encoding="utf-8" standalone="no"?>
<!DOCTYPE svg PUBLIC "-//W3C//DTD SVG 1.1//EN"
  "http://www.w3.org/Graphics/SVG/1.1/DTD/svg11.dtd">
<svg xmlns:xlink="http://www.w3.org/1999/xlink" width="432pt" height="288pt" viewBox="0 0 432 288" xmlns="http://www.w3.org/2000/svg" version="1.1">
 <metadata>
  <rdf:RDF xmlns:dc="http://purl.org/dc/elements/1.1/" xmlns:cc="http://creativecommons.org/ns#" xmlns:rdf="http://www.w3.org/1999/02/22-rdf-syntax-ns#">
   <cc:Work>
    <dc:type rdf:resource="http://purl.org/dc/dcmitype/StillImage"/>
    <dc:date>2024-07-26T12:49:39.177871</dc:date>
    <dc:format>image/svg+xml</dc:format>
    <dc:creator>
     <cc:Agent>
      <dc:title>Matplotlib v3.9.1, https://matplotlib.org/</dc:title>
     </cc:Agent>
    </dc:creator>
   </cc:Work>
  </rdf:RDF>
 </metadata>
 <defs>
  <style type="text/css">*{stroke-linejoin: round; stroke-linecap: butt}</style>
 </defs>
 <g id="figure_1">
  <g id="patch_1">
   <path d="M 0 288 
L 432 288 
L 432 0 
L 0 0 
z
" style="fill: #ffffff"/>
  </g>
  <g id="axes_1">
   <g id="patch_2">
    <path d="M 42.32112 254.625354 
L 425.497854 254.625354 
L 425.497854 18.194646 
L 42.32112 18.194646 
z
" style="fill: #ffffff"/>
   </g>
   <g id="PathCollection_1">
    <defs>
     <path id="m2a8bd6cb22" d="M -0.574025 -1.385819 
L -1.385819 -0.574025 
L -1.385819 0.574025 
L -0.574025 1.385819 
L 0.574025 1.385819 
L 1.385819 0.574025 
L 1.385819 -0.574025 
L 0.574025 -1.385819 
z
"/>
    </defs>
    <g clip-path="url(#p1ca17916a4)">
     <use xlink:href="#m2a8bd6cb22" x="46.152888" y="39.262161" style="fill: #4c72b0"/>
     <use xlink:href="#m2a8bd6cb22" x="53.972821" y="37.353236" style="fill: #4c72b0"/>
     <use xlink:href="#m2a8bd6cb22" x="61.792754" y="51.950901" style="fill: #4c72b0"/>
     <use xlink:href="#m2a8bd6cb22" x="69.612688" y="58.388846" style="fill: #4c72b0"/>
     <use xlink:href="#m2a8bd6cb22" x="77.432621" y="75.157447" style="fill: #4c72b0"/>
     <use xlink:href="#m2a8bd6cb22" x="85.252554" y="86.910439" style="fill: #4c72b0"/>
     <use xlink:href="#m2a8bd6cb22" x="93.072488" y="101.844974" style="fill: #4c72b0"/>
     <use xlink:href="#m2a8bd6cb22" x="100.892421" y="114.458854" style="fill: #4c72b0"/>
     <use xlink:href="#m2a8bd6cb22" x="108.712354" y="125.051519" style="fill: #4c72b0"/>
     <use xlink:href="#m2a8bd6cb22" x="116.532288" y="134.146988" style="fill: #4c72b0"/>
     <use xlink:href="#m2a8bd6cb22" x="124.352221" y="139.312315" style="fill: #4c72b0"/>
     <use xlink:href="#m2a8bd6cb22" x="132.172154" y="149.193812" style="fill: #4c72b0"/>
     <use xlink:href="#m2a8bd6cb22" x="139.992088" y="156.080916" style="fill: #4c72b0"/>
     <use xlink:href="#m2a8bd6cb22" x="147.812021" y="163.080309" style="fill: #4c72b0"/>
     <use xlink:href="#m2a8bd6cb22" x="155.631954" y="172.587507" style="fill: #4c72b0"/>
     <use xlink:href="#m2a8bd6cb22" x="163.451888" y="175.132741" style="fill: #4c72b0"/>
     <use xlink:href="#m2a8bd6cb22" x="171.271821" y="182.955592" style="fill: #4c72b0"/>
     <use xlink:href="#m2a8bd6cb22" x="179.091755" y="185.500826" style="fill: #4c72b0"/>
     <use xlink:href="#m2a8bd6cb22" x="186.911688" y="191.190173" style="fill: #4c72b0"/>
     <use xlink:href="#m2a8bd6cb22" x="194.731621" y="194.072276" style="fill: #4c72b0"/>
     <use xlink:href="#m2a8bd6cb22" x="202.551555" y="195.719192" style="fill: #4c72b0"/>
     <use xlink:href="#m2a8bd6cb22" x="210.371488" y="201.183959" style="fill: #4c72b0"/>
     <use xlink:href="#m2a8bd6cb22" x="218.191421" y="202.157137" style="fill: #4c72b0"/>
     <use xlink:href="#m2a8bd6cb22" x="226.011355" y="206.536437" style="fill: #4c72b0"/>
     <use xlink:href="#m2a8bd6cb22" x="233.831288" y="209.34368" style="fill: #4c72b0"/>
     <use xlink:href="#m2a8bd6cb22" x="241.651221" y="211.290036" style="fill: #4c72b0"/>
     <use xlink:href="#m2a8bd6cb22" x="249.471155" y="213.198961" style="fill: #4c72b0"/>
     <use xlink:href="#m2a8bd6cb22" x="257.291088" y="213.910129" style="fill: #4c72b0"/>
     <use xlink:href="#m2a8bd6cb22" x="265.111021" y="216.792233" style="fill: #4c72b0"/>
     <use xlink:href="#m2a8bd6cb22" x="272.930955" y="221.059243" style="fill: #4c72b0"/>
     <use xlink:href="#m2a8bd6cb22" x="280.750888" y="218.925738" style="fill: #4c72b0"/>
     <use xlink:href="#m2a8bd6cb22" x="288.570821" y="222.519009" style="fill: #4c72b0"/>
     <use xlink:href="#m2a8bd6cb22" x="296.390755" y="222.257" style="fill: #4c72b0"/>
     <use xlink:href="#m2a8bd6cb22" x="304.210688" y="225.850271" style="fill: #4c72b0"/>
     <use xlink:href="#m2a8bd6cb22" x="312.030621" y="225.625692" style="fill: #4c72b0"/>
     <use xlink:href="#m2a8bd6cb22" x="319.850555" y="226.37429" style="fill: #4c72b0"/>
     <use xlink:href="#m2a8bd6cb22" x="327.670488" y="228.358075" style="fill: #4c72b0"/>
     <use xlink:href="#m2a8bd6cb22" x="335.490421" y="229.742982" style="fill: #4c72b0"/>
     <use xlink:href="#m2a8bd6cb22" x="343.310355" y="228.021206" style="fill: #4c72b0"/>
     <use xlink:href="#m2a8bd6cb22" x="351.130288" y="230.6413" style="fill: #4c72b0"/>
     <use xlink:href="#m2a8bd6cb22" x="358.950222" y="231.577048" style="fill: #4c72b0"/>
     <use xlink:href="#m2a8bd6cb22" x="366.770155" y="231.577048" style="fill: #4c72b0"/>
     <use xlink:href="#m2a8bd6cb22" x="374.590088" y="231.839057" style="fill: #4c72b0"/>
     <use xlink:href="#m2a8bd6cb22" x="382.410022" y="232.924525" style="fill: #4c72b0"/>
     <use xlink:href="#m2a8bd6cb22" x="390.229955" y="234.496581" style="fill: #4c72b0"/>
     <use xlink:href="#m2a8bd6cb22" x="398.049888" y="234.197142" style="fill: #4c72b0"/>
     <use xlink:href="#m2a8bd6cb22" x="405.869822" y="235.05803" style="fill: #4c72b0"/>
     <use xlink:href="#m2a8bd6cb22" x="413.689755" y="234.159712" style="fill: #4c72b0"/>
     <use xlink:href="#m2a8bd6cb22" x="421.509688" y="234.646301" style="fill: #4c72b0"/>
     <use xlink:href="#m2a8bd6cb22" x="429.329622" y="39.262161" style="fill: #4c72b0"/>
    </g>
   </g>
   <g id="matplotlib.axis_1">
    <g id="xtick_1">
     <g id="line2d_1">
      <defs>
       <path id="meabeadcae3" d="M 0 0 
L 0 -2.5 
" style="stroke: #000000; stroke-width: 0.5"/>
      </defs>
      <g>
       <use xlink:href="#meabeadcae3" x="42.32112" y="254.625354" style="stroke: #000000; stroke-width: 0.5"/>
      </g>
     </g>
     <g id="line2d_2">
      <defs>
       <path id="mcd656db4f7" d="M 0 0 
L 0 2.5 
" style="stroke: #000000; stroke-width: 0.5"/>
      </defs>
      <g>
       <use xlink:href="#mcd656db4f7" x="42.32112" y="18.194646" style="stroke: #000000; stroke-width: 0.5"/>
      </g>
     </g>
     <g id="text_1">
      <!-- $0$ -->
      <g transform="translate(39.12112 265.723792) scale(0.1 -0.1)">
       <defs>
        <path id="DejaVuSerif-30" d="M 2034 219 
Q 2513 219 2750 744 
Q 2988 1269 2988 2328 
Q 2988 3391 2750 3916 
Q 2513 4441 2034 4441 
Q 1556 4441 1318 3916 
Q 1081 3391 1081 2328 
Q 1081 1269 1318 744 
Q 1556 219 2034 219 
z
M 2034 -91 
Q 1275 -91 848 546 
Q 422 1184 422 2328 
Q 422 3475 848 4112 
Q 1275 4750 2034 4750 
Q 2797 4750 3222 4112 
Q 3647 3475 3647 2328 
Q 3647 1184 3222 546 
Q 2797 -91 2034 -91 
z
" transform="scale(0.015625)"/>
       </defs>
       <use xlink:href="#DejaVuSerif-30" transform="translate(0 0.78125)"/>
      </g>
     </g>
    </g>
    <g id="xtick_2">
     <g id="line2d_3">
      <g>
       <use xlink:href="#meabeadcae3" x="138.115304" y="254.625354" style="stroke: #000000; stroke-width: 0.5"/>
      </g>
     </g>
     <g id="line2d_4">
      <g>
       <use xlink:href="#mcd656db4f7" x="138.115304" y="18.194646" style="stroke: #000000; stroke-width: 0.5"/>
      </g>
     </g>
     <g id="text_2">
      <!-- $1$ -->
      <g transform="translate(134.915304 265.723792) scale(0.1 -0.1)">
       <defs>
        <path id="DejaVuSerif-31" d="M 909 0 
L 909 331 
L 1722 331 
L 1722 4213 
L 781 3603 
L 781 4013 
L 1919 4750 
L 2350 4750 
L 2350 331 
L 3163 331 
L 3163 0 
L 909 0 
z
" transform="scale(0.015625)"/>
       </defs>
       <use xlink:href="#DejaVuSerif-31" transform="translate(0 0.78125)"/>
      </g>
     </g>
    </g>
    <g id="xtick_3">
     <g id="line2d_5">
      <g>
       <use xlink:href="#meabeadcae3" x="233.909487" y="254.625354" style="stroke: #000000; stroke-width: 0.5"/>
      </g>
     </g>
     <g id="line2d_6">
      <g>
       <use xlink:href="#mcd656db4f7" x="233.909487" y="18.194646" style="stroke: #000000; stroke-width: 0.5"/>
      </g>
     </g>
     <g id="text_3">
      <!-- $2$ -->
      <g transform="translate(230.709487 265.723792) scale(0.1 -0.1)">
       <defs>
        <path id="DejaVuSerif-32" d="M 819 3553 
L 469 3553 
L 469 4384 
Q 803 4563 1142 4656 
Q 1481 4750 1806 4750 
Q 2534 4750 2956 4397 
Q 3378 4044 3378 3438 
Q 3378 2753 2422 1800 
Q 2347 1728 2309 1691 
L 1131 513 
L 3078 513 
L 3078 1088 
L 3444 1088 
L 3444 0 
L 434 0 
L 434 341 
L 1850 1753 
Q 2319 2222 2519 2614 
Q 2719 3006 2719 3438 
Q 2719 3909 2473 4175 
Q 2228 4441 1797 4441 
Q 1350 4441 1106 4219 
Q 863 3997 819 3553 
z
" transform="scale(0.015625)"/>
       </defs>
       <use xlink:href="#DejaVuSerif-32" transform="translate(0 0.78125)"/>
      </g>
     </g>
    </g>
    <g id="xtick_4">
     <g id="line2d_7">
      <g>
       <use xlink:href="#meabeadcae3" x="329.703671" y="254.625354" style="stroke: #000000; stroke-width: 0.5"/>
      </g>
     </g>
     <g id="line2d_8">
      <g>
       <use xlink:href="#mcd656db4f7" x="329.703671" y="18.194646" style="stroke: #000000; stroke-width: 0.5"/>
      </g>
     </g>
     <g id="text_4">
      <!-- $3$ -->
      <g transform="translate(326.503671 265.723792) scale(0.1 -0.1)">
       <defs>
        <path id="DejaVuSerif-33" d="M 622 4469 
Q 988 4606 1323 4678 
Q 1659 4750 1953 4750 
Q 2638 4750 3022 4454 
Q 3406 4159 3406 3634 
Q 3406 3213 3140 2930 
Q 2875 2647 2388 2547 
Q 2963 2466 3280 2130 
Q 3597 1794 3597 1259 
Q 3597 606 3158 257 
Q 2719 -91 1894 -91 
Q 1528 -91 1179 -12 
Q 831 66 488 225 
L 488 1131 
L 838 1131 
Q 869 681 1141 450 
Q 1413 219 1906 219 
Q 2384 219 2661 495 
Q 2938 772 2938 1253 
Q 2938 1803 2653 2086 
Q 2369 2369 1819 2369 
L 1522 2369 
L 1522 2688 
L 1678 2688 
Q 2225 2688 2498 2914 
Q 2772 3141 2772 3597 
Q 2772 4006 2547 4223 
Q 2322 4441 1900 4441 
Q 1478 4441 1245 4241 
Q 1013 4041 972 3647 
L 622 3647 
L 622 4469 
z
" transform="scale(0.015625)"/>
       </defs>
       <use xlink:href="#DejaVuSerif-33" transform="translate(0 0.78125)"/>
      </g>
     </g>
    </g>
    <g id="xtick_5">
     <g id="line2d_9">
      <g>
       <use xlink:href="#meabeadcae3" x="425.497854" y="254.625354" style="stroke: #000000; stroke-width: 0.5"/>
      </g>
     </g>
     <g id="line2d_10">
      <g>
       <use xlink:href="#mcd656db4f7" x="425.497854" y="18.194646" style="stroke: #000000; stroke-width: 0.5"/>
      </g>
     </g>
     <g id="text_5">
      <!-- $4$ -->
      <g transform="translate(422.297854 265.723792) scale(0.1 -0.1)">
       <defs>
        <path id="DejaVuSerif-34" d="M 2234 1581 
L 2234 4063 
L 641 1581 
L 2234 1581 
z
M 3609 0 
L 1484 0 
L 1484 331 
L 2234 331 
L 2234 1247 
L 197 1247 
L 197 1588 
L 2241 4750 
L 2859 4750 
L 2859 1581 
L 3750 1581 
L 3750 1247 
L 2859 1247 
L 2859 331 
L 3609 331 
L 3609 0 
z
" transform="scale(0.015625)"/>
       </defs>
       <use xlink:href="#DejaVuSerif-34" transform="translate(0 0.78125)"/>
      </g>
     </g>
    </g>
    <g id="text_6">
     <!-- $r$ -->
     <g transform="translate(231.029487 280.921604) scale(0.12 -0.12)">
      <defs>
       <path id="DejaVuSerif-Italic-72" d="M 3375 3328 
L 3213 2497 
L 2881 2497 
Q 2891 2559 2891 2613 
Q 2891 2775 2816 2866 
Q 2719 2988 2484 2988 
Q 2059 2988 1775 2694 
Q 1491 2400 1384 1850 
L 1025 0 
L 450 0 
L 1031 2994 
L 481 2994 
L 544 3322 
L 1669 3322 
L 1556 2731 
Q 1791 3078 2089 3245 
Q 2388 3413 2769 3413 
Q 2909 3413 3059 3391 
Q 3209 3369 3375 3328 
z
" transform="scale(0.015625)"/>
      </defs>
      <use xlink:href="#DejaVuSerif-Italic-72" transform="translate(0 0.671875)"/>
     </g>
    </g>
   </g>
   <g id="matplotlib.axis_2">
    <g id="ytick_1">
     <g id="line2d_11">
      <defs>
       <path id="mbd097aa0b5" d="M 0 0 
L 2.5 0 
" style="stroke: #000000; stroke-width: 0.5"/>
      </defs>
      <g>
       <use xlink:href="#mbd097aa0b5" x="42.32112" y="247.933919" style="stroke: #000000; stroke-width: 0.5"/>
      </g>
     </g>
     <g id="line2d_12">
      <defs>
       <path id="m51814ad83c" d="M 0 0 
L -2.5 0 
" style="stroke: #000000; stroke-width: 0.5"/>
      </defs>
      <g>
       <use xlink:href="#m51814ad83c" x="425.497854" y="247.933919" style="stroke: #000000; stroke-width: 0.5"/>
      </g>
     </g>
     <g id="text_7">
      <!-- $0.0$ -->
      <g transform="translate(22.82112 251.733138) scale(0.1 -0.1)">
       <defs>
        <path id="DejaVuSerif-2e" d="M 603 325 
Q 603 500 722 622 
Q 841 744 1019 744 
Q 1191 744 1312 622 
Q 1434 500 1434 325 
Q 1434 153 1312 31 
Q 1191 -91 1019 -91 
Q 841 -91 722 29 
Q 603 150 603 325 
z
" transform="scale(0.015625)"/>
       </defs>
       <use xlink:href="#DejaVuSerif-30" transform="translate(0 0.78125)"/>
       <use xlink:href="#DejaVuSerif-2e" transform="translate(63.623047 0.78125)"/>
       <use xlink:href="#DejaVuSerif-30" transform="translate(95.410156 0.78125)"/>
      </g>
     </g>
    </g>
    <g id="ytick_2">
     <g id="line2d_13">
      <g>
       <use xlink:href="#mbd097aa0b5" x="42.32112" y="188.454496" style="stroke: #000000; stroke-width: 0.5"/>
      </g>
     </g>
     <g id="line2d_14">
      <g>
       <use xlink:href="#m51814ad83c" x="425.497854" y="188.454496" style="stroke: #000000; stroke-width: 0.5"/>
      </g>
     </g>
     <g id="text_8">
      <!-- $0.2$ -->
      <g transform="translate(23.12112 192.253714) scale(0.1 -0.1)">
       <use xlink:href="#DejaVuSerif-30" transform="translate(0 0.78125)"/>
       <use xlink:href="#DejaVuSerif-2e" transform="translate(63.623047 0.78125)"/>
       <use xlink:href="#DejaVuSerif-32" transform="translate(92.785156 0.78125)"/>
      </g>
     </g>
    </g>
    <g id="ytick_3">
     <g id="line2d_15">
      <g>
       <use xlink:href="#mbd097aa0b5" x="42.32112" y="128.975072" style="stroke: #000000; stroke-width: 0.5"/>
      </g>
     </g>
     <g id="line2d_16">
      <g>
       <use xlink:href="#m51814ad83c" x="425.497854" y="128.975072" style="stroke: #000000; stroke-width: 0.5"/>
      </g>
     </g>
     <g id="text_9">
      <!-- $0.4$ -->
      <g transform="translate(22.82112 132.774291) scale(0.1 -0.1)">
       <use xlink:href="#DejaVuSerif-30" transform="translate(0 0.78125)"/>
       <use xlink:href="#DejaVuSerif-2e" transform="translate(63.623047 0.78125)"/>
       <use xlink:href="#DejaVuSerif-34" transform="translate(95.410156 0.78125)"/>
      </g>
     </g>
    </g>
    <g id="ytick_4">
     <g id="line2d_17">
      <g>
       <use xlink:href="#mbd097aa0b5" x="42.32112" y="69.495648" style="stroke: #000000; stroke-width: 0.5"/>
      </g>
     </g>
     <g id="line2d_18">
      <g>
       <use xlink:href="#m51814ad83c" x="425.497854" y="69.495648" style="stroke: #000000; stroke-width: 0.5"/>
      </g>
     </g>
     <g id="text_10">
      <!-- $0.6$ -->
      <g transform="translate(22.82112 73.294867) scale(0.1 -0.1)">
       <defs>
        <path id="DejaVuSerif-36" d="M 2094 219 
Q 2534 219 2771 542 
Q 3009 866 3009 1472 
Q 3009 2078 2771 2401 
Q 2534 2725 2094 2725 
Q 1647 2725 1412 2412 
Q 1178 2100 1178 1509 
Q 1178 888 1415 553 
Q 1653 219 2094 219 
z
M 1075 2569 
Q 1288 2803 1556 2918 
Q 1825 3034 2163 3034 
Q 2859 3034 3264 2615 
Q 3669 2197 3669 1472 
Q 3669 763 3233 336 
Q 2797 -91 2069 -91 
Q 1278 -91 853 498 
Q 428 1088 428 2181 
Q 428 3406 931 4078 
Q 1434 4750 2350 4750 
Q 2597 4750 2869 4703 
Q 3141 4656 3425 4563 
L 3425 3794 
L 3072 3794 
Q 3034 4109 2831 4275 
Q 2628 4441 2284 4441 
Q 1678 4441 1381 3981 
Q 1084 3522 1075 2569 
z
" transform="scale(0.015625)"/>
       </defs>
       <use xlink:href="#DejaVuSerif-30" transform="translate(0 0.78125)"/>
       <use xlink:href="#DejaVuSerif-2e" transform="translate(63.623047 0.78125)"/>
       <use xlink:href="#DejaVuSerif-36" transform="translate(95.410156 0.78125)"/>
      </g>
     </g>
    </g>
    <g id="text_11">
     <!-- $p(r)$ -->
     <g transform="translate(16.30112 147.81) rotate(-90) scale(0.12 -0.12)">
      <defs>
       <path id="DejaVuSerif-Italic-70" d="M 1466 1825 
L 1400 1497 
Q 1353 1250 1353 1053 
Q 1353 769 1453 581 
Q 1622 269 2059 269 
Q 2500 269 2795 622 
Q 3091 975 3225 1663 
Q 3284 1978 3284 2225 
Q 3284 2513 3200 2703 
Q 3041 3053 2600 3053 
Q 2163 3053 1872 2737 
Q 1581 2422 1466 1825 
z
M 1116 2988 
L 563 2988 
L 628 3322 
L 1756 3322 
L 1656 2803 
Q 1884 3116 2175 3264 
Q 2466 3413 2850 3413 
Q 3463 3413 3753 2928 
Q 3947 2609 3947 2163 
Q 3947 1928 3897 1663 
Q 3744 881 3262 395 
Q 2781 -91 2169 -91 
Q 1784 -91 1551 57 
Q 1319 206 1213 519 
L 850 -1331 
L 275 -1331 
L 1116 2988 
z
" transform="scale(0.015625)"/>
       <path id="DejaVuSerif-28" d="M 2041 -997 
Q 1281 -656 893 83 
Q 506 822 506 1931 
Q 506 3044 893 3783 
Q 1281 4522 2041 4863 
L 2041 4556 
Q 1559 4225 1350 3623 
Q 1141 3022 1141 1931 
Q 1141 844 1350 242 
Q 1559 -359 2041 -691 
L 2041 -997 
z
" transform="scale(0.015625)"/>
       <path id="DejaVuSerif-29" d="M 453 -997 
L 453 -691 
Q 934 -359 1145 242 
Q 1356 844 1356 1931 
Q 1356 3022 1145 3623 
Q 934 4225 453 4556 
L 453 4863 
Q 1216 4522 1603 3783 
Q 1991 3044 1991 1931 
Q 1991 822 1603 83 
Q 1216 -656 453 -997 
z
" transform="scale(0.015625)"/>
      </defs>
      <use xlink:href="#DejaVuSerif-Italic-70" transform="translate(0 0.015625)"/>
      <use xlink:href="#DejaVuSerif-28" transform="translate(64.013672 0.015625)"/>
      <use xlink:href="#DejaVuSerif-Italic-72" transform="translate(103.027344 0.015625)"/>
      <use xlink:href="#DejaVuSerif-29" transform="translate(150.830078 0.015625)"/>
     </g>
    </g>
   </g>
   <g id="PathCollection_2">
    <defs>
     <path id="ma87060005a" d="M -0.574025 -1.385819 
L -1.385819 -0.574025 
L -1.385819 0.574025 
L -0.574025 1.385819 
L 0.574025 1.385819 
L 1.385819 0.574025 
L 1.385819 -0.574025 
L 0.574025 -1.385819 
z
"/>
    </defs>
    <g clip-path="url(#p1ca17916a4)">
     <use xlink:href="#ma87060005a" x="46.152888" y="208.79504" style="fill: #c44e52"/>
     <use xlink:href="#ma87060005a" x="53.972821" y="148.536487" style="fill: #c44e52"/>
     <use xlink:href="#ma87060005a" x="61.792754" y="99.512579" style="fill: #c44e52"/>
     <use xlink:href="#ma87060005a" x="69.612688" y="77.262144" style="fill: #c44e52"/>
     <use xlink:href="#ma87060005a" x="77.432621" y="63.47417" style="fill: #c44e52"/>
     <use xlink:href="#ma87060005a" x="85.252554" y="67.632448" style="fill: #c44e52"/>
     <use xlink:href="#ma87060005a" x="93.072488" y="65.370929" style="fill: #c44e52"/>
     <use xlink:href="#ma87060005a" x="100.892421" y="71.28006" style="fill: #c44e52"/>
     <use xlink:href="#ma87060005a" x="108.712354" y="81.310994" style="fill: #c44e52"/>
     <use xlink:href="#ma87060005a" x="116.532288" y="92.180878" style="fill: #c44e52"/>
     <use xlink:href="#ma87060005a" x="124.352221" y="94.661255" style="fill: #c44e52"/>
     <use xlink:href="#ma87060005a" x="132.172154" y="115.999786" style="fill: #c44e52"/>
     <use xlink:href="#ma87060005a" x="139.992088" y="120.741682" style="fill: #c44e52"/>
     <use xlink:href="#ma87060005a" x="147.812021" y="128.146335" style="fill: #c44e52"/>
     <use xlink:href="#ma87060005a" x="155.631954" y="140.621168" style="fill: #c44e52"/>
     <use xlink:href="#ma87060005a" x="163.451888" y="146.895061" style="fill: #c44e52"/>
     <use xlink:href="#ma87060005a" x="171.271821" y="156.743614" style="fill: #c44e52"/>
     <use xlink:href="#ma87060005a" x="179.091755" y="164.513028" style="fill: #c44e52"/>
     <use xlink:href="#ma87060005a" x="186.911688" y="168.853687" style="fill: #c44e52"/>
     <use xlink:href="#ma87060005a" x="194.731621" y="176.513672" style="fill: #c44e52"/>
     <use xlink:href="#ma87060005a" x="202.551555" y="184.137182" style="fill: #c44e52"/>
     <use xlink:href="#ma87060005a" x="210.371488" y="187.201176" style="fill: #c44e52"/>
     <use xlink:href="#ma87060005a" x="218.191421" y="193.620974" style="fill: #c44e52"/>
     <use xlink:href="#ma87060005a" x="226.011355" y="197.925156" style="fill: #c44e52"/>
     <use xlink:href="#ma87060005a" x="233.831288" y="199.967819" style="fill: #c44e52"/>
     <use xlink:href="#ma87060005a" x="241.651221" y="200.040771" style="fill: #c44e52"/>
     <use xlink:href="#ma87060005a" x="249.471155" y="206.569997" style="fill: #c44e52"/>
     <use xlink:href="#ma87060005a" x="257.291088" y="210.436466" style="fill: #c44e52"/>
     <use xlink:href="#ma87060005a" x="265.111021" y="211.020084" style="fill: #c44e52"/>
     <use xlink:href="#ma87060005a" x="272.930955" y="215.324266" style="fill: #c44e52"/>
     <use xlink:href="#ma87060005a" x="280.750888" y="213.792269" style="fill: #c44e52"/>
     <use xlink:href="#ma87060005a" x="288.570821" y="217.768166" style="fill: #c44e52"/>
     <use xlink:href="#ma87060005a" x="296.390755" y="221.525207" style="fill: #c44e52"/>
     <use xlink:href="#ma87060005a" x="304.210688" y="222.473586" style="fill: #c44e52"/>
     <use xlink:href="#ma87060005a" x="312.030621" y="223.713774" style="fill: #c44e52"/>
     <use xlink:href="#ma87060005a" x="319.850555" y="225.829389" style="fill: #c44e52"/>
     <use xlink:href="#ma87060005a" x="327.670488" y="228.054433" style="fill: #c44e52"/>
     <use xlink:href="#ma87060005a" x="335.490421" y="227.762624" style="fill: #c44e52"/>
     <use xlink:href="#ma87060005a" x="343.310355" y="227.872052" style="fill: #c44e52"/>
     <use xlink:href="#ma87060005a" x="351.130288" y="229.732334" style="fill: #c44e52"/>
     <use xlink:href="#ma87060005a" x="358.950222" y="230.863094" style="fill: #c44e52"/>
     <use xlink:href="#ma87060005a" x="366.770155" y="232.03033" style="fill: #c44e52"/>
     <use xlink:href="#ma87060005a" x="374.590088" y="231.957378" style="fill: #c44e52"/>
     <use xlink:href="#ma87060005a" x="382.410022" y="234.036517" style="fill: #c44e52"/>
     <use xlink:href="#ma87060005a" x="390.229955" y="233.598803" style="fill: #c44e52"/>
     <use xlink:href="#ma87060005a" x="398.049888" y="235.276705" style="fill: #c44e52"/>
     <use xlink:href="#ma87060005a" x="405.869822" y="236.662797" style="fill: #c44e52"/>
     <use xlink:href="#ma87060005a" x="413.689755" y="237.39232" style="fill: #c44e52"/>
     <use xlink:href="#ma87060005a" x="421.509688" y="237.064035" style="fill: #c44e52"/>
     <use xlink:href="#ma87060005a" x="429.329622" y="208.79504" style="fill: #c44e52"/>
    </g>
   </g>
   <g id="patch_3">
    <path d="M 42.32112 254.625354 
L 42.32112 18.194646 
" style="fill: none; stroke: #000000; stroke-linejoin: miter; stroke-linecap: square"/>
   </g>
   <g id="patch_4">
    <path d="M 425.497854 254.625354 
L 425.497854 18.194646 
" style="fill: none; stroke: #000000; stroke-linejoin: miter; stroke-linecap: square"/>
   </g>
   <g id="patch_5">
    <path d="M 42.32112 254.625354 
L 425.497854 254.625354 
" style="fill: none; stroke: #000000; stroke-linejoin: miter; stroke-linecap: square"/>
   </g>
   <g id="patch_6">
    <path d="M 42.32112 18.194646 
L 425.497854 18.194646 
" style="fill: none; stroke: #000000; stroke-linejoin: miter; stroke-linecap: square"/>
   </g>
   <g id="text_12">
    <!-- Rotation angle vs ES spacing ratios -->
    <g transform="translate(125.789487 12.194646) scale(0.12 -0.12)">
     <defs>
      <path id="DejaVuSerif-52" d="M 3066 2316 
Q 3284 2256 3442 2114 
Q 3600 1972 3725 1716 
L 4403 331 
L 4972 331 
L 4972 0 
L 3872 0 
L 3144 1484 
Q 2934 1916 2759 2042 
Q 2584 2169 2278 2169 
L 1581 2169 
L 1581 331 
L 2241 331 
L 2241 0 
L 353 0 
L 353 331 
L 947 331 
L 947 4331 
L 353 4331 
L 353 4666 
L 2719 4666 
Q 3400 4666 3770 4341 
Q 4141 4016 4141 3419 
Q 4141 2938 3870 2661 
Q 3600 2384 3066 2316 
z
M 1581 2503 
L 2503 2503 
Q 2975 2503 3200 2726 
Q 3425 2950 3425 3419 
Q 3425 3888 3200 4109 
Q 2975 4331 2503 4331 
L 1581 4331 
L 1581 2503 
z
" transform="scale(0.015625)"/>
      <path id="DejaVuSerif-6f" d="M 1925 219 
Q 2388 219 2623 584 
Q 2859 950 2859 1663 
Q 2859 2375 2623 2739 
Q 2388 3103 1925 3103 
Q 1463 3103 1227 2739 
Q 991 2375 991 1663 
Q 991 950 1228 584 
Q 1466 219 1925 219 
z
M 1925 -91 
Q 1200 -91 759 389 
Q 319 869 319 1663 
Q 319 2456 758 2934 
Q 1197 3413 1925 3413 
Q 2653 3413 3092 2934 
Q 3531 2456 3531 1663 
Q 3531 869 3092 389 
Q 2653 -91 1925 -91 
z
" transform="scale(0.015625)"/>
      <path id="DejaVuSerif-74" d="M 691 2988 
L 184 2988 
L 184 3322 
L 691 3322 
L 691 4353 
L 1269 4353 
L 1269 3322 
L 2350 3322 
L 2350 2988 
L 1269 2988 
L 1269 878 
Q 1269 456 1350 337 
Q 1431 219 1650 219 
Q 1875 219 1978 351 
Q 2081 484 2088 781 
L 2522 781 
Q 2497 328 2275 118 
Q 2053 -91 1600 -91 
Q 1103 -91 897 129 
Q 691 350 691 878 
L 691 2988 
z
" transform="scale(0.015625)"/>
      <path id="DejaVuSerif-61" d="M 2547 1044 
L 2547 1747 
L 1806 1747 
Q 1378 1747 1168 1562 
Q 959 1378 959 997 
Q 959 650 1171 447 
Q 1384 244 1747 244 
Q 2106 244 2326 466 
Q 2547 688 2547 1044 
z
M 3122 2075 
L 3122 331 
L 3634 331 
L 3634 0 
L 2547 0 
L 2547 359 
Q 2356 128 2106 18 
Q 1856 -91 1522 -91 
Q 969 -91 644 203 
Q 319 497 319 997 
Q 319 1513 691 1797 
Q 1063 2081 1741 2081 
L 2547 2081 
L 2547 2309 
Q 2547 2688 2317 2895 
Q 2088 3103 1672 3103 
Q 1328 3103 1125 2947 
Q 922 2791 872 2484 
L 575 2484 
L 575 3156 
Q 875 3284 1158 3348 
Q 1441 3413 1709 3413 
Q 2400 3413 2761 3070 
Q 3122 2728 3122 2075 
z
" transform="scale(0.015625)"/>
      <path id="DejaVuSerif-69" d="M 622 4353 
Q 622 4497 726 4603 
Q 831 4709 978 4709 
Q 1122 4709 1226 4603 
Q 1331 4497 1331 4353 
Q 1331 4206 1228 4103 
Q 1125 4000 978 4000 
Q 831 4000 726 4103 
Q 622 4206 622 4353 
z
M 1356 331 
L 1900 331 
L 1900 0 
L 231 0 
L 231 331 
L 781 331 
L 781 2988 
L 231 2988 
L 231 3322 
L 1356 3322 
L 1356 331 
z
" transform="scale(0.015625)"/>
      <path id="DejaVuSerif-6e" d="M 263 0 
L 263 331 
L 781 331 
L 781 2988 
L 231 2988 
L 231 3322 
L 1356 3322 
L 1356 2731 
Q 1516 3069 1770 3241 
Q 2025 3413 2363 3413 
Q 2913 3413 3172 3097 
Q 3431 2781 3431 2113 
L 3431 331 
L 3944 331 
L 3944 0 
L 2356 0 
L 2356 331 
L 2853 331 
L 2853 1931 
Q 2853 2541 2703 2767 
Q 2553 2994 2175 2994 
Q 1775 2994 1565 2701 
Q 1356 2409 1356 1850 
L 1356 331 
L 1856 331 
L 1856 0 
L 263 0 
z
" transform="scale(0.015625)"/>
      <path id="DejaVuSerif-20" transform="scale(0.015625)"/>
      <path id="DejaVuSerif-67" d="M 3359 2988 
L 3359 72 
Q 3359 -644 2965 -1033 
Q 2572 -1422 1844 -1422 
Q 1516 -1422 1216 -1362 
Q 916 -1303 641 -1184 
L 641 -488 
L 941 -488 
Q 997 -813 1206 -963 
Q 1416 -1113 1806 -1113 
Q 2313 -1113 2548 -827 
Q 2784 -541 2784 72 
L 2784 519 
Q 2616 206 2355 57 
Q 2094 -91 1709 -91 
Q 1097 -91 708 395 
Q 319 881 319 1663 
Q 319 2444 706 2928 
Q 1094 3413 1709 3413 
Q 2094 3413 2355 3264 
Q 2616 3116 2784 2803 
L 2784 3322 
L 3909 3322 
L 3909 2988 
L 3359 2988 
z
M 2784 1825 
Q 2784 2422 2554 2737 
Q 2325 3053 1888 3053 
Q 1444 3053 1217 2703 
Q 991 2353 991 1663 
Q 991 975 1217 622 
Q 1444 269 1888 269 
Q 2325 269 2554 583 
Q 2784 897 2784 1497 
L 2784 1825 
z
" transform="scale(0.015625)"/>
      <path id="DejaVuSerif-6c" d="M 1313 331 
L 1856 331 
L 1856 0 
L 184 0 
L 184 331 
L 738 331 
L 738 4531 
L 184 4531 
L 184 4863 
L 1313 4863 
L 1313 331 
z
" transform="scale(0.015625)"/>
      <path id="DejaVuSerif-65" d="M 3469 1600 
L 991 1600 
L 991 1575 
Q 991 903 1244 561 
Q 1497 219 1991 219 
Q 2369 219 2611 417 
Q 2853 616 2950 1006 
L 3413 1006 
Q 3275 459 2904 184 
Q 2534 -91 1931 -91 
Q 1203 -91 761 389 
Q 319 869 319 1663 
Q 319 2450 753 2931 
Q 1188 3413 1894 3413 
Q 2647 3413 3050 2948 
Q 3453 2484 3469 1600 
z
M 2791 1931 
Q 2772 2513 2545 2808 
Q 2319 3103 1894 3103 
Q 1497 3103 1269 2806 
Q 1041 2509 991 1931 
L 2791 1931 
z
" transform="scale(0.015625)"/>
      <path id="DejaVuSerif-76" d="M 1581 0 
L 359 2988 
L -19 2988 
L -19 3322 
L 1509 3322 
L 1509 2988 
L 978 2988 
L 1913 703 
L 2847 2988 
L 2350 2988 
L 2350 3322 
L 3597 3322 
L 3597 2988 
L 3225 2988 
L 2003 0 
L 1581 0 
z
" transform="scale(0.015625)"/>
      <path id="DejaVuSerif-73" d="M 359 184 
L 359 959 
L 691 959 
Q 703 588 923 403 
Q 1144 219 1575 219 
Q 1963 219 2166 364 
Q 2369 509 2369 788 
Q 2369 1006 2220 1140 
Q 2072 1275 1594 1428 
L 1178 1569 
Q 750 1706 558 1912 
Q 366 2119 366 2438 
Q 366 2894 700 3153 
Q 1034 3413 1625 3413 
Q 1888 3413 2178 3344 
Q 2469 3275 2778 3144 
L 2778 2419 
L 2447 2419 
Q 2434 2741 2221 2922 
Q 2009 3103 1644 3103 
Q 1281 3103 1095 2975 
Q 909 2847 909 2591 
Q 909 2381 1050 2254 
Q 1191 2128 1613 1997 
L 2069 1856 
Q 2541 1709 2748 1489 
Q 2956 1269 2956 922 
Q 2956 450 2595 179 
Q 2234 -91 1600 -91 
Q 1278 -91 972 -22 
Q 666 47 359 184 
z
" transform="scale(0.015625)"/>
      <path id="DejaVuSerif-45" d="M 353 0 
L 353 331 
L 947 331 
L 947 4331 
L 353 4331 
L 353 4666 
L 4109 4666 
L 4109 3628 
L 3725 3628 
L 3725 4281 
L 1581 4281 
L 1581 2719 
L 3109 2719 
L 3109 3303 
L 3494 3303 
L 3494 1753 
L 3109 1753 
L 3109 2338 
L 1581 2338 
L 1581 384 
L 3775 384 
L 3775 1038 
L 4159 1038 
L 4159 0 
L 353 0 
z
" transform="scale(0.015625)"/>
      <path id="DejaVuSerif-53" d="M 594 225 
L 594 1288 
L 953 1284 
Q 969 753 1261 498 
Q 1553 244 2150 244 
Q 2706 244 2998 464 
Q 3291 684 3291 1106 
Q 3291 1444 3114 1625 
Q 2938 1806 2369 1978 
L 1753 2163 
Q 1084 2366 811 2669 
Q 538 2972 538 3500 
Q 538 4094 959 4422 
Q 1381 4750 2144 4750 
Q 2469 4750 2856 4679 
Q 3244 4609 3681 4475 
L 3681 3481 
L 3328 3481 
Q 3275 3975 2998 4195 
Q 2722 4416 2156 4416 
Q 1663 4416 1405 4214 
Q 1147 4013 1147 3628 
Q 1147 3294 1340 3103 
Q 1534 2913 2163 2725 
L 2741 2553 
Q 3375 2363 3645 2067 
Q 3916 1772 3916 1275 
Q 3916 597 3481 253 
Q 3047 -91 2188 -91 
Q 1803 -91 1404 -12 
Q 1006 66 594 225 
z
" transform="scale(0.015625)"/>
      <path id="DejaVuSerif-70" d="M 1313 1825 
L 1313 1497 
Q 1313 897 1542 583 
Q 1772 269 2209 269 
Q 2650 269 2876 622 
Q 3103 975 3103 1663 
Q 3103 2353 2876 2703 
Q 2650 3053 2209 3053 
Q 1772 3053 1542 2737 
Q 1313 2422 1313 1825 
z
M 738 2988 
L 184 2988 
L 184 3322 
L 1313 3322 
L 1313 2803 
Q 1481 3116 1742 3264 
Q 2003 3413 2388 3413 
Q 3000 3413 3387 2928 
Q 3775 2444 3775 1663 
Q 3775 881 3387 395 
Q 3000 -91 2388 -91 
Q 2003 -91 1742 57 
Q 1481 206 1313 519 
L 1313 -997 
L 1856 -997 
L 1856 -1331 
L 184 -1331 
L 184 -997 
L 738 -997 
L 738 2988 
z
" transform="scale(0.015625)"/>
      <path id="DejaVuSerif-63" d="M 3291 997 
Q 3169 466 2822 187 
Q 2475 -91 1925 -91 
Q 1200 -91 759 389 
Q 319 869 319 1663 
Q 319 2459 759 2936 
Q 1200 3413 1925 3413 
Q 2241 3413 2553 3339 
Q 2866 3266 3181 3116 
L 3181 2266 
L 2847 2266 
Q 2781 2703 2561 2903 
Q 2341 3103 1931 3103 
Q 1466 3103 1228 2742 
Q 991 2381 991 1663 
Q 991 944 1227 581 
Q 1463 219 1931 219 
Q 2303 219 2525 412 
Q 2747 606 2828 997 
L 3291 997 
z
" transform="scale(0.015625)"/>
      <path id="DejaVuSerif-72" d="M 3059 3328 
L 3059 2497 
L 2728 2497 
Q 2713 2744 2591 2866 
Q 2469 2988 2234 2988 
Q 1809 2988 1582 2694 
Q 1356 2400 1356 1850 
L 1356 331 
L 2022 331 
L 2022 0 
L 263 0 
L 263 331 
L 781 331 
L 781 2994 
L 231 2994 
L 231 3322 
L 1356 3322 
L 1356 2731 
Q 1525 3078 1790 3245 
Q 2056 3413 2438 3413 
Q 2578 3413 2733 3391 
Q 2888 3369 3059 3328 
z
" transform="scale(0.015625)"/>
     </defs>
     <use xlink:href="#DejaVuSerif-52"/>
     <use xlink:href="#DejaVuSerif-6f" x="75.292969"/>
     <use xlink:href="#DejaVuSerif-74" x="135.498047"/>
     <use xlink:href="#DejaVuSerif-61" x="175.683594"/>
     <use xlink:href="#DejaVuSerif-74" x="235.302734"/>
     <use xlink:href="#DejaVuSerif-69" x="275.488281"/>
     <use xlink:href="#DejaVuSerif-6f" x="307.470703"/>
     <use xlink:href="#DejaVuSerif-6e" x="367.675781"/>
     <use xlink:href="#DejaVuSerif-20" x="432.080078"/>
     <use xlink:href="#DejaVuSerif-61" x="463.867188"/>
     <use xlink:href="#DejaVuSerif-6e" x="523.486328"/>
     <use xlink:href="#DejaVuSerif-67" x="587.890625"/>
     <use xlink:href="#DejaVuSerif-6c" x="651.904297"/>
     <use xlink:href="#DejaVuSerif-65" x="683.886719"/>
     <use xlink:href="#DejaVuSerif-20" x="743.066406"/>
     <use xlink:href="#DejaVuSerif-76" x="774.853516"/>
     <use xlink:href="#DejaVuSerif-73" x="831.347656"/>
     <use xlink:href="#DejaVuSerif-20" x="882.666016"/>
     <use xlink:href="#DejaVuSerif-45" x="914.453125"/>
     <use xlink:href="#DejaVuSerif-53" x="987.451172"/>
     <use xlink:href="#DejaVuSerif-20" x="1055.957031"/>
     <use xlink:href="#DejaVuSerif-73" x="1087.744141"/>
     <use xlink:href="#DejaVuSerif-70" x="1139.0625"/>
     <use xlink:href="#DejaVuSerif-61" x="1203.076172"/>
     <use xlink:href="#DejaVuSerif-63" x="1262.695312"/>
     <use xlink:href="#DejaVuSerif-69" x="1318.701172"/>
     <use xlink:href="#DejaVuSerif-6e" x="1350.683594"/>
     <use xlink:href="#DejaVuSerif-67" x="1415.087891"/>
     <use xlink:href="#DejaVuSerif-20" x="1479.101562"/>
     <use xlink:href="#DejaVuSerif-72" x="1510.888672"/>
     <use xlink:href="#DejaVuSerif-61" x="1558.691406"/>
     <use xlink:href="#DejaVuSerif-74" x="1618.310547"/>
     <use xlink:href="#DejaVuSerif-69" x="1658.496094"/>
     <use xlink:href="#DejaVuSerif-6f" x="1690.478516"/>
     <use xlink:href="#DejaVuSerif-73" x="1750.683594"/>
    </g>
   </g>
   <g id="PathCollection_3">
    <g clip-path="url(#p1ca17916a4)">
     <use xlink:href="#ma87060005a" x="46.152888" y="209.903504" style="fill: #c44e52"/>
     <use xlink:href="#ma87060005a" x="53.972821" y="146.531633" style="fill: #c44e52"/>
     <use xlink:href="#ma87060005a" x="61.792754" y="103.068301" style="fill: #c44e52"/>
     <use xlink:href="#ma87060005a" x="69.612688" y="78.456096" style="fill: #c44e52"/>
     <use xlink:href="#ma87060005a" x="77.432621" y="63.615847" style="fill: #c44e52"/>
     <use xlink:href="#ma87060005a" x="85.252554" y="62.485509" style="fill: #c44e52"/>
     <use xlink:href="#ma87060005a" x="93.072488" y="60.990545" style="fill: #c44e52"/>
     <use xlink:href="#ma87060005a" x="100.892421" y="74.153517" style="fill: #c44e52"/>
     <use xlink:href="#ma87060005a" x="108.712354" y="79.003034" style="fill: #c44e52"/>
     <use xlink:href="#ma87060005a" x="116.532288" y="88.957303" style="fill: #c44e52"/>
     <use xlink:href="#ma87060005a" x="124.352221" y="102.703676" style="fill: #c44e52"/>
     <use xlink:href="#ma87060005a" x="132.172154" y="111.673457" style="fill: #c44e52"/>
     <use xlink:href="#ma87060005a" x="139.992088" y="124.909354" style="fill: #c44e52"/>
     <use xlink:href="#ma87060005a" x="147.812021" y="133.842674" style="fill: #c44e52"/>
     <use xlink:href="#ma87060005a" x="155.631954" y="139.42144" style="fill: #c44e52"/>
     <use xlink:href="#ma87060005a" x="163.451888" y="147.734896" style="fill: #c44e52"/>
     <use xlink:href="#ma87060005a" x="171.271821" y="155.027401" style="fill: #c44e52"/>
     <use xlink:href="#ma87060005a" x="179.091755" y="162.575144" style="fill: #c44e52"/>
     <use xlink:href="#ma87060005a" x="186.911688" y="167.023573" style="fill: #c44e52"/>
     <use xlink:href="#ma87060005a" x="194.731621" y="177.561243" style="fill: #c44e52"/>
     <use xlink:href="#ma87060005a" x="202.551555" y="184.489123" style="fill: #c44e52"/>
     <use xlink:href="#ma87060005a" x="210.371488" y="189.302176" style="fill: #c44e52"/>
     <use xlink:href="#ma87060005a" x="218.191421" y="190.396052" style="fill: #c44e52"/>
     <use xlink:href="#ma87060005a" x="226.011355" y="194.188155" style="fill: #c44e52"/>
     <use xlink:href="#ma87060005a" x="233.831288" y="200.75141" style="fill: #c44e52"/>
     <use xlink:href="#ma87060005a" x="241.651221" y="205.965551" style="fill: #c44e52"/>
     <use xlink:href="#ma87060005a" x="249.471155" y="205.637388" style="fill: #c44e52"/>
     <use xlink:href="#ma87060005a" x="257.291088" y="208.517928" style="fill: #c44e52"/>
     <use xlink:href="#ma87060005a" x="265.111021" y="212.346493" style="fill: #c44e52"/>
     <use xlink:href="#ma87060005a" x="272.930955" y="214.060232" style="fill: #c44e52"/>
     <use xlink:href="#ma87060005a" x="280.750888" y="214.388395" style="fill: #c44e52"/>
     <use xlink:href="#ma87060005a" x="288.570821" y="218.034647" style="fill: #c44e52"/>
     <use xlink:href="#ma87060005a" x="296.390755" y="219.566073" style="fill: #c44e52"/>
     <use xlink:href="#ma87060005a" x="304.210688" y="223.102939" style="fill: #c44e52"/>
     <use xlink:href="#ma87060005a" x="312.030621" y="224.233277" style="fill: #c44e52"/>
     <use xlink:href="#ma87060005a" x="319.850555" y="225.801166" style="fill: #c44e52"/>
     <use xlink:href="#ma87060005a" x="327.670488" y="225.327153" style="fill: #c44e52"/>
     <use xlink:href="#ma87060005a" x="335.490421" y="227.478442" style="fill: #c44e52"/>
     <use xlink:href="#ma87060005a" x="343.310355" y="229.155718" style="fill: #c44e52"/>
     <use xlink:href="#ma87060005a" x="351.130288" y="230.760069" style="fill: #c44e52"/>
     <use xlink:href="#ma87060005a" x="358.950222" y="230.103744" style="fill: #c44e52"/>
     <use xlink:href="#ma87060005a" x="366.770155" y="232.291495" style="fill: #c44e52"/>
     <use xlink:href="#ma87060005a" x="374.590088" y="233.348909" style="fill: #c44e52"/>
     <use xlink:href="#ma87060005a" x="382.410022" y="232.838433" style="fill: #c44e52"/>
     <use xlink:href="#ma87060005a" x="390.229955" y="234.515709" style="fill: #c44e52"/>
     <use xlink:href="#ma87060005a" x="398.049888" y="235.609585" style="fill: #c44e52"/>
     <use xlink:href="#ma87060005a" x="405.869822" y="235.97421" style="fill: #c44e52"/>
     <use xlink:href="#ma87060005a" x="413.689755" y="235.791898" style="fill: #c44e52"/>
     <use xlink:href="#ma87060005a" x="421.509688" y="236.120061" style="fill: #c44e52"/>
     <use xlink:href="#ma87060005a" x="429.329622" y="209.903504" style="fill: #c44e52"/>
    </g>
   </g>
   <g id="PathCollection_4">
    <g clip-path="url(#p1ca17916a4)">
     <use xlink:href="#ma87060005a" x="46.152888" y="208.207134" style="fill: #c44e52"/>
     <use xlink:href="#ma87060005a" x="53.972821" y="143.455029" style="fill: #c44e52"/>
     <use xlink:href="#ma87060005a" x="61.792754" y="105.625207" style="fill: #c44e52"/>
     <use xlink:href="#ma87060005a" x="69.612688" y="75.127878" style="fill: #c44e52"/>
     <use xlink:href="#ma87060005a" x="77.432621" y="67.357625" style="fill: #c44e52"/>
     <use xlink:href="#ma87060005a" x="85.252554" y="59.550892" style="fill: #c44e52"/>
     <use xlink:href="#ma87060005a" x="93.072488" y="68.123706" style="fill: #c44e52"/>
     <use xlink:href="#ma87060005a" x="100.892421" y="67.102265" style="fill: #c44e52"/>
     <use xlink:href="#ma87060005a" x="108.712354" y="82.205009" style="fill: #c44e52"/>
     <use xlink:href="#ma87060005a" x="116.532288" y="91.434464" style="fill: #c44e52"/>
     <use xlink:href="#ma87060005a" x="124.352221" y="100.299119" style="fill: #c44e52"/>
     <use xlink:href="#ma87060005a" x="132.172154" y="112.775299" style="fill: #c44e52"/>
     <use xlink:href="#ma87060005a" x="139.992088" y="116.970506" style="fill: #c44e52"/>
     <use xlink:href="#ma87060005a" x="147.812021" y="129.118366" style="fill: #c44e52"/>
     <use xlink:href="#ma87060005a" x="155.631954" y="141.959347" style="fill: #c44e52"/>
     <use xlink:href="#ma87060005a" x="163.451888" y="148.598717" style="fill: #c44e52"/>
     <use xlink:href="#ma87060005a" x="171.271821" y="157.937613" style="fill: #c44e52"/>
     <use xlink:href="#ma87060005a" x="179.091755" y="167.860189" style="fill: #c44e52"/>
     <use xlink:href="#ma87060005a" x="186.911688" y="173.514598" style="fill: #c44e52"/>
     <use xlink:href="#ma87060005a" x="194.731621" y="176.505963" style="fill: #c44e52"/>
     <use xlink:href="#ma87060005a" x="202.551555" y="181.941492" style="fill: #c44e52"/>
     <use xlink:href="#ma87060005a" x="210.371488" y="187.0487" style="fill: #c44e52"/>
     <use xlink:href="#ma87060005a" x="218.191421" y="191.645188" style="fill: #c44e52"/>
     <use xlink:href="#ma87060005a" x="226.011355" y="195.949835" style="fill: #c44e52"/>
     <use xlink:href="#ma87060005a" x="233.831288" y="200.692242" style="fill: #c44e52"/>
     <use xlink:href="#ma87060005a" x="241.651221" y="204.340248" style="fill: #c44e52"/>
     <use xlink:href="#ma87060005a" x="249.471155" y="207.003293" style="fill: #c44e52"/>
     <use xlink:href="#ma87060005a" x="257.291088" y="207.805854" style="fill: #c44e52"/>
     <use xlink:href="#ma87060005a" x="265.111021" y="212.037541" style="fill: #c44e52"/>
     <use xlink:href="#ma87060005a" x="272.930955" y="215.065386" style="fill: #c44e52"/>
     <use xlink:href="#ma87060005a" x="280.750888" y="216.050347" style="fill: #c44e52"/>
     <use xlink:href="#ma87060005a" x="288.570821" y="218.932272" style="fill: #c44e52"/>
     <use xlink:href="#ma87060005a" x="296.390755" y="219.953714" style="fill: #c44e52"/>
     <use xlink:href="#ma87060005a" x="304.210688" y="221.850677" style="fill: #c44e52"/>
     <use xlink:href="#ma87060005a" x="312.030621" y="224.951482" style="fill: #c44e52"/>
     <use xlink:href="#ma87060005a" x="319.850555" y="225.608123" style="fill: #c44e52"/>
     <use xlink:href="#ma87060005a" x="327.670488" y="225.316282" style="fill: #c44e52"/>
     <use xlink:href="#ma87060005a" x="335.490421" y="227.869887" style="fill: #c44e52"/>
     <use xlink:href="#ma87060005a" x="343.310355" y="229.657409" style="fill: #c44e52"/>
     <use xlink:href="#ma87060005a" x="351.130288" y="229.438529" style="fill: #c44e52"/>
     <use xlink:href="#ma87060005a" x="358.950222" y="231.882693" style="fill: #c44e52"/>
     <use xlink:href="#ma87060005a" x="366.770155" y="230.751811" style="fill: #c44e52"/>
     <use xlink:href="#ma87060005a" x="374.590088" y="232.028613" style="fill: #c44e52"/>
     <use xlink:href="#ma87060005a" x="382.410022" y="233.889096" style="fill: #c44e52"/>
     <use xlink:href="#ma87060005a" x="390.229955" y="234.107977" style="fill: #c44e52"/>
     <use xlink:href="#ma87060005a" x="398.049888" y="235.749579" style="fill: #c44e52"/>
     <use xlink:href="#ma87060005a" x="405.869822" y="233.816136" style="fill: #c44e52"/>
     <use xlink:href="#ma87060005a" x="413.689755" y="234.837578" style="fill: #c44e52"/>
     <use xlink:href="#ma87060005a" x="421.509688" y="236.552141" style="fill: #c44e52"/>
     <use xlink:href="#ma87060005a" x="429.329622" y="208.207134" style="fill: #c44e52"/>
    </g>
   </g>
   <g id="PathCollection_5">
    <g clip-path="url(#p1ca17916a4)">
     <use xlink:href="#m2a8bd6cb22" x="46.152888" y="39.063668" style="fill: #4c72b0"/>
     <use xlink:href="#m2a8bd6cb22" x="53.972821" y="46.433799" style="fill: #4c72b0"/>
     <use xlink:href="#m2a8bd6cb22" x="61.792754" y="55.711933" style="fill: #4c72b0"/>
     <use xlink:href="#m2a8bd6cb22" x="69.612688" y="63.194299" style="fill: #4c72b0"/>
     <use xlink:href="#m2a8bd6cb22" x="77.432621" y="74.567496" style="fill: #4c72b0"/>
     <use xlink:href="#m2a8bd6cb22" x="85.252554" y="90.916466" style="fill: #4c72b0"/>
     <use xlink:href="#m2a8bd6cb22" x="93.072488" y="94.395766" style="fill: #4c72b0"/>
     <use xlink:href="#m2a8bd6cb22" x="100.892421" y="109.80944" style="fill: #4c72b0"/>
     <use xlink:href="#m2a8bd6cb22" x="108.712354" y="122.304992" style="fill: #4c72b0"/>
     <use xlink:href="#m2a8bd6cb22" x="116.532288" y="125.185703" style="fill: #4c72b0"/>
     <use xlink:href="#m2a8bd6cb22" x="124.352221" y="142.245497" style="fill: #4c72b0"/>
     <use xlink:href="#m2a8bd6cb22" x="132.172154" y="147.370918" style="fill: #4c72b0"/>
     <use xlink:href="#m2a8bd6cb22" x="139.992088" y="156.649052" style="fill: #4c72b0"/>
     <use xlink:href="#m2a8bd6cb22" x="147.812021" y="159.716822" style="fill: #4c72b0"/>
     <use xlink:href="#m2a8bd6cb22" x="155.631954" y="171.613784" style="fill: #4c72b0"/>
     <use xlink:href="#m2a8bd6cb22" x="163.451888" y="173.409552" style="fill: #4c72b0"/>
     <use xlink:href="#m2a8bd6cb22" x="171.271821" y="181.228625" style="fill: #4c72b0"/>
     <use xlink:href="#m2a8bd6cb22" x="179.091755" y="183.099217" style="fill: #4c72b0"/>
     <use xlink:href="#m2a8bd6cb22" x="186.911688" y="190.170053" style="fill: #4c72b0"/>
     <use xlink:href="#m2a8bd6cb22" x="194.731621" y="193.911236" style="fill: #4c72b0"/>
     <use xlink:href="#m2a8bd6cb22" x="202.551555" y="198.812185" style="fill: #4c72b0"/>
     <use xlink:href="#m2a8bd6cb22" x="210.371488" y="203.226781" style="fill: #4c72b0"/>
     <use xlink:href="#m2a8bd6cb22" x="218.191421" y="205.321844" style="fill: #4c72b0"/>
     <use xlink:href="#m2a8bd6cb22" x="226.011355" y="204.274313" style="fill: #4c72b0"/>
     <use xlink:href="#m2a8bd6cb22" x="233.831288" y="209.437145" style="fill: #4c72b0"/>
     <use xlink:href="#m2a8bd6cb22" x="241.651221" y="210.933619" style="fill: #4c72b0"/>
     <use xlink:href="#m2a8bd6cb22" x="249.471155" y="214.375507" style="fill: #4c72b0"/>
     <use xlink:href="#m2a8bd6cb22" x="257.291088" y="216.171275" style="fill: #4c72b0"/>
     <use xlink:href="#m2a8bd6cb22" x="265.111021" y="215.647509" style="fill: #4c72b0"/>
     <use xlink:href="#m2a8bd6cb22" x="272.930955" y="219.575751" style="fill: #4c72b0"/>
     <use xlink:href="#m2a8bd6cb22" x="280.750888" y="220.885166" style="fill: #4c72b0"/>
     <use xlink:href="#m2a8bd6cb22" x="288.570821" y="222.082344" style="fill: #4c72b0"/>
     <use xlink:href="#m2a8bd6cb22" x="296.390755" y="222.531286" style="fill: #4c72b0"/>
     <use xlink:href="#m2a8bd6cb22" x="304.210688" y="225.973175" style="fill: #4c72b0"/>
     <use xlink:href="#m2a8bd6cb22" x="312.030621" y="226.08541" style="fill: #4c72b0"/>
     <use xlink:href="#m2a8bd6cb22" x="319.850555" y="227.207765" style="fill: #4c72b0"/>
     <use xlink:href="#m2a8bd6cb22" x="327.670488" y="227.058118" style="fill: #4c72b0"/>
     <use xlink:href="#m2a8bd6cb22" x="335.490421" y="226.571764" style="fill: #4c72b0"/>
     <use xlink:href="#m2a8bd6cb22" x="343.310355" y="229.003533" style="fill: #4c72b0"/>
     <use xlink:href="#m2a8bd6cb22" x="351.130288" y="230.088476" style="fill: #4c72b0"/>
     <use xlink:href="#m2a8bd6cb22" x="358.950222" y="230.425182" style="fill: #4c72b0"/>
     <use xlink:href="#m2a8bd6cb22" x="366.770155" y="231.584949" style="fill: #4c72b0"/>
     <use xlink:href="#m2a8bd6cb22" x="374.590088" y="230.836713" style="fill: #4c72b0"/>
     <use xlink:href="#m2a8bd6cb22" x="382.410022" y="232.81954" style="fill: #4c72b0"/>
     <use xlink:href="#m2a8bd6cb22" x="390.229955" y="233.081422" style="fill: #4c72b0"/>
     <use xlink:href="#m2a8bd6cb22" x="398.049888" y="232.482833" style="fill: #4c72b0"/>
     <use xlink:href="#m2a8bd6cb22" x="405.869822" y="235.588015" style="fill: #4c72b0"/>
     <use xlink:href="#m2a8bd6cb22" x="413.689755" y="234.690131" style="fill: #4c72b0"/>
     <use xlink:href="#m2a8bd6cb22" x="421.509688" y="235.438368" style="fill: #4c72b0"/>
     <use xlink:href="#m2a8bd6cb22" x="429.329622" y="39.063668" style="fill: #4c72b0"/>
    </g>
   </g>
   <g id="PathCollection_6">
    <g clip-path="url(#p1ca17916a4)">
     <use xlink:href="#ma87060005a" x="46.152888" y="208.501297" style="fill: #c44e52"/>
     <use xlink:href="#ma87060005a" x="53.972821" y="148.239787" style="fill: #c44e52"/>
     <use xlink:href="#ma87060005a" x="61.792754" y="103.481389" style="fill: #c44e52"/>
     <use xlink:href="#ma87060005a" x="69.612688" y="75.211008" style="fill: #c44e52"/>
     <use xlink:href="#ma87060005a" x="77.432621" y="61.349401" style="fill: #c44e52"/>
     <use xlink:href="#ma87060005a" x="85.252554" y="59.343116" style="fill: #c44e52"/>
     <use xlink:href="#ma87060005a" x="93.072488" y="66.78461" style="fill: #c44e52"/>
     <use xlink:href="#ma87060005a" x="100.892421" y="72.475164" style="fill: #c44e52"/>
     <use xlink:href="#ma87060005a" x="108.712354" y="81.594642" style="fill: #c44e52"/>
     <use xlink:href="#ma87060005a" x="116.532288" y="87.467586" style="fill: #c44e52"/>
     <use xlink:href="#ma87060005a" x="124.352221" y="100.380767" style="fill: #c44e52"/>
     <use xlink:href="#ma87060005a" x="132.172154" y="114.753064" style="fill: #c44e52"/>
     <use xlink:href="#ma87060005a" x="139.992088" y="121.392044" style="fill: #c44e52"/>
     <use xlink:href="#ma87060005a" x="147.812021" y="131.93416" style="fill: #c44e52"/>
     <use xlink:href="#ma87060005a" x="155.631954" y="141.163072" style="fill: #c44e52"/>
     <use xlink:href="#ma87060005a" x="163.451888" y="149.042301" style="fill: #c44e52"/>
     <use xlink:href="#ma87060005a" x="171.271821" y="155.790714" style="fill: #c44e52"/>
     <use xlink:href="#ma87060005a" x="179.091755" y="160.350453" style="fill: #c44e52"/>
     <use xlink:href="#ma87060005a" x="186.911688" y="169.83471" style="fill: #c44e52"/>
     <use xlink:href="#ma87060005a" x="194.731621" y="178.954188" style="fill: #c44e52"/>
     <use xlink:href="#ma87060005a" x="202.551555" y="181.288775" style="fill: #c44e52"/>
     <use xlink:href="#ma87060005a" x="210.371488" y="189.05857" style="fill: #c44e52"/>
     <use xlink:href="#ma87060005a" x="218.191421" y="193.399441" style="fill: #c44e52"/>
     <use xlink:href="#ma87060005a" x="226.011355" y="195.879939" style="fill: #c44e52"/>
     <use xlink:href="#ma87060005a" x="233.831288" y="200.220811" style="fill: #c44e52"/>
     <use xlink:href="#ma87060005a" x="241.651221" y="201.825839" style="fill: #c44e52"/>
     <use xlink:href="#ma87060005a" x="249.471155" y="208.318907" style="fill: #c44e52"/>
     <use xlink:href="#ma87060005a" x="257.291088" y="208.647208" style="fill: #c44e52"/>
     <use xlink:href="#ma87060005a" x="265.111021" y="213.352859" style="fill: #c44e52"/>
     <use xlink:href="#ma87060005a" x="272.930955" y="214.009461" style="fill: #c44e52"/>
     <use xlink:href="#ma87060005a" x="280.750888" y="215.541534" style="fill: #c44e52"/>
     <use xlink:href="#ma87060005a" x="288.570821" y="219.371714" style="fill: #c44e52"/>
     <use xlink:href="#ma87060005a" x="296.390755" y="219.408192" style="fill: #c44e52"/>
     <use xlink:href="#ma87060005a" x="304.210688" y="222.362903" style="fill: #c44e52"/>
     <use xlink:href="#ma87060005a" x="312.030621" y="222.07108" style="fill: #c44e52"/>
     <use xlink:href="#ma87060005a" x="319.850555" y="224.5151" style="fill: #c44e52"/>
     <use xlink:href="#ma87060005a" x="327.670488" y="225.828305" style="fill: #c44e52"/>
     <use xlink:href="#ma87060005a" x="335.490421" y="228.308803" style="fill: #c44e52"/>
     <use xlink:href="#ma87060005a" x="343.310355" y="228.381759" style="fill: #c44e52"/>
     <use xlink:href="#ma87060005a" x="351.130288" y="230.315088" style="fill: #c44e52"/>
     <use xlink:href="#ma87060005a" x="358.950222" y="231.15408" style="fill: #c44e52"/>
     <use xlink:href="#ma87060005a" x="366.770155" y="231.555337" style="fill: #c44e52"/>
     <use xlink:href="#ma87060005a" x="374.590088" y="232.576718" style="fill: #c44e52"/>
     <use xlink:href="#ma87060005a" x="382.410022" y="233.926401" style="fill: #c44e52"/>
     <use xlink:href="#ma87060005a" x="390.229955" y="234.619481" style="fill: #c44e52"/>
     <use xlink:href="#ma87060005a" x="398.049888" y="235.130172" style="fill: #c44e52"/>
     <use xlink:href="#ma87060005a" x="405.869822" y="235.093694" style="fill: #c44e52"/>
     <use xlink:href="#ma87060005a" x="413.689755" y="236.844634" style="fill: #c44e52"/>
     <use xlink:href="#ma87060005a" x="421.509688" y="237.245891" style="fill: #c44e52"/>
     <use xlink:href="#ma87060005a" x="429.329622" y="208.501297" style="fill: #c44e52"/>
    </g>
   </g>
   <g id="PathCollection_7">
    <g clip-path="url(#p1ca17916a4)">
     <use xlink:href="#ma87060005a" x="46.152888" y="208.177287" style="fill: #c44e52"/>
     <use xlink:href="#ma87060005a" x="53.972821" y="147.557541" style="fill: #c44e52"/>
     <use xlink:href="#ma87060005a" x="61.792754" y="102.293338" style="fill: #c44e52"/>
     <use xlink:href="#ma87060005a" x="69.612688" y="78.475833" style="fill: #c44e52"/>
     <use xlink:href="#ma87060005a" x="77.432621" y="66.986531" style="fill: #c44e52"/>
     <use xlink:href="#ma87060005a" x="85.252554" y="58.013933" style="fill: #c44e52"/>
     <use xlink:href="#ma87060005a" x="93.072488" y="62.244914" style="fill: #c44e52"/>
     <use xlink:href="#ma87060005a" x="100.892421" y="71.253986" style="fill: #c44e52"/>
     <use xlink:href="#ma87060005a" x="108.712354" y="81.138433" style="fill: #c44e52"/>
     <use xlink:href="#ma87060005a" x="116.532288" y="88.797968" style="fill: #c44e52"/>
     <use xlink:href="#ma87060005a" x="124.352221" y="103.022818" style="fill: #c44e52"/>
     <use xlink:href="#ma87060005a" x="132.172154" y="110.864722" style="fill: #c44e52"/>
     <use xlink:href="#ma87060005a" x="139.992088" y="122.098707" style="fill: #c44e52"/>
     <use xlink:href="#ma87060005a" x="147.812021" y="131.472518" style="fill: #c44e52"/>
     <use xlink:href="#ma87060005a" x="155.631954" y="142.122919" style="fill: #c44e52"/>
     <use xlink:href="#ma87060005a" x="163.451888" y="148.761182" style="fill: #c44e52"/>
     <use xlink:href="#ma87060005a" x="171.271821" y="157.332566" style="fill: #c44e52"/>
     <use xlink:href="#ma87060005a" x="179.091755" y="164.408517" style="fill: #c44e52"/>
     <use xlink:href="#ma87060005a" x="186.911688" y="169.843139" style="fill: #c44e52"/>
     <use xlink:href="#ma87060005a" x="194.731621" y="175.460132" style="fill: #c44e52"/>
     <use xlink:href="#ma87060005a" x="202.551555" y="181.879551" style="fill: #c44e52"/>
     <use xlink:href="#ma87060005a" x="210.371488" y="187.168277" style="fill: #c44e52"/>
     <use xlink:href="#ma87060005a" x="218.191421" y="194.025385" style="fill: #c44e52"/>
     <use xlink:href="#ma87060005a" x="226.011355" y="196.687985" style="fill: #c44e52"/>
     <use xlink:href="#ma87060005a" x="233.831288" y="201.13781" style="fill: #c44e52"/>
     <use xlink:href="#ma87060005a" x="241.651221" y="202.560295" style="fill: #c44e52"/>
     <use xlink:href="#ma87060005a" x="249.471155" y="206.207692" style="fill: #c44e52"/>
     <use xlink:href="#ma87060005a" x="257.291088" y="208.833818" style="fill: #c44e52"/>
     <use xlink:href="#ma87060005a" x="265.111021" y="213.028325" style="fill: #c44e52"/>
     <use xlink:href="#ma87060005a" x="272.930955" y="213.611909" style="fill: #c44e52"/>
     <use xlink:href="#ma87060005a" x="280.750888" y="215.034394" style="fill: #c44e52"/>
     <use xlink:href="#ma87060005a" x="288.570821" y="218.098208" style="fill: #c44e52"/>
     <use xlink:href="#ma87060005a" x="296.390755" y="219.155953" style="fill: #c44e52"/>
     <use xlink:href="#ma87060005a" x="304.210688" y="222.073871" style="fill: #c44e52"/>
     <use xlink:href="#ma87060005a" x="312.030621" y="225.502425" style="fill: #c44e52"/>
     <use xlink:href="#ma87060005a" x="319.850555" y="224.699997" style="fill: #c44e52"/>
     <use xlink:href="#ma87060005a" x="327.670488" y="225.903638" style="fill: #c44e52"/>
     <use xlink:href="#ma87060005a" x="335.490421" y="226.086008" style="fill: #c44e52"/>
     <use xlink:href="#ma87060005a" x="343.310355" y="229.95225" style="fill: #c44e52"/>
     <use xlink:href="#ma87060005a" x="351.130288" y="230.316989" style="fill: #c44e52"/>
     <use xlink:href="#ma87060005a" x="358.950222" y="232.140688" style="fill: #c44e52"/>
     <use xlink:href="#ma87060005a" x="366.770155" y="231.374735" style="fill: #c44e52"/>
     <use xlink:href="#ma87060005a" x="374.590088" y="233.927913" style="fill: #c44e52"/>
     <use xlink:href="#ma87060005a" x="382.410022" y="233.672595" style="fill: #c44e52"/>
     <use xlink:href="#ma87060005a" x="390.229955" y="233.234907" style="fill: #c44e52"/>
     <use xlink:href="#ma87060005a" x="398.049888" y="235.933982" style="fill: #c44e52"/>
     <use xlink:href="#ma87060005a" x="405.869822" y="236.481091" style="fill: #c44e52"/>
     <use xlink:href="#ma87060005a" x="413.689755" y="236.444617" style="fill: #c44e52"/>
     <use xlink:href="#ma87060005a" x="421.509688" y="236.918779" style="fill: #c44e52"/>
     <use xlink:href="#ma87060005a" x="429.329622" y="208.177287" style="fill: #c44e52"/>
    </g>
   </g>
   <g id="PathCollection_8">
    <g clip-path="url(#p1ca17916a4)">
     <use xlink:href="#ma87060005a" x="46.152888" y="209.961158" style="fill: #c44e52"/>
     <use xlink:href="#ma87060005a" x="53.972821" y="147.11095" style="fill: #c44e52"/>
     <use xlink:href="#ma87060005a" x="61.792754" y="105.052743" style="fill: #c44e52"/>
     <use xlink:href="#ma87060005a" x="69.612688" y="79.153934" style="fill: #c44e52"/>
     <use xlink:href="#ma87060005a" x="77.432621" y="68.721456" style="fill: #c44e52"/>
     <use xlink:href="#ma87060005a" x="85.252554" y="58.471364" style="fill: #c44e52"/>
     <use xlink:href="#ma87060005a" x="93.072488" y="65.693849" style="fill: #c44e52"/>
     <use xlink:href="#ma87060005a" x="100.892421" y="68.101344" style="fill: #c44e52"/>
     <use xlink:href="#ma87060005a" x="108.712354" y="81.379043" style="fill: #c44e52"/>
     <use xlink:href="#ma87060005a" x="116.532288" y="92.249248" style="fill: #c44e52"/>
     <use xlink:href="#ma87060005a" x="124.352221" y="95.969922" style="fill: #c44e52"/>
     <use xlink:href="#ma87060005a" x="132.172154" y="110.086596" style="fill: #c44e52"/>
     <use xlink:href="#ma87060005a" x="139.992088" y="122.26998" style="fill: #c44e52"/>
     <use xlink:href="#ma87060005a" x="147.812021" y="132.374163" style="fill: #c44e52"/>
     <use xlink:href="#ma87060005a" x="155.631954" y="143.025504" style="fill: #c44e52"/>
     <use xlink:href="#ma87060005a" x="163.451888" y="146.016634" style="fill: #c44e52"/>
     <use xlink:href="#ma87060005a" x="171.271821" y="157.397519" style="fill: #c44e52"/>
     <use xlink:href="#ma87060005a" x="179.091755" y="160.461604" style="fill: #c44e52"/>
     <use xlink:href="#ma87060005a" x="186.911688" y="170.821127" style="fill: #c44e52"/>
     <use xlink:href="#ma87060005a" x="194.731621" y="173.739303" style="fill: #c44e52"/>
     <use xlink:href="#ma87060005a" x="202.551555" y="180.597016" style="fill: #c44e52"/>
     <use xlink:href="#ma87060005a" x="210.371488" y="186.542799" style="fill: #c44e52"/>
     <use xlink:href="#ma87060005a" x="218.191421" y="193.619375" style="fill: #c44e52"/>
     <use xlink:href="#ma87060005a" x="226.011355" y="193.947669" style="fill: #c44e52"/>
     <use xlink:href="#ma87060005a" x="233.831288" y="201.133677" style="fill: #c44e52"/>
     <use xlink:href="#ma87060005a" x="241.651221" y="201.133677" style="fill: #c44e52"/>
     <use xlink:href="#ma87060005a" x="249.471155" y="204.854351" style="fill: #c44e52"/>
     <use xlink:href="#ma87060005a" x="257.291088" y="212.040359" style="fill: #c44e52"/>
     <use xlink:href="#ma87060005a" x="265.111021" y="211.712064" style="fill: #c44e52"/>
     <use xlink:href="#ma87060005a" x="272.930955" y="213.098197" style="fill: #c44e52"/>
     <use xlink:href="#ma87060005a" x="280.750888" y="216.162282" style="fill: #c44e52"/>
     <use xlink:href="#ma87060005a" x="288.570821" y="219.554661" style="fill: #c44e52"/>
     <use xlink:href="#ma87060005a" x="296.390755" y="218.934549" style="fill: #c44e52"/>
     <use xlink:href="#ma87060005a" x="304.210688" y="221.487952" style="fill: #c44e52"/>
     <use xlink:href="#ma87060005a" x="312.030621" y="223.019994" style="fill: #c44e52"/>
     <use xlink:href="#ma87060005a" x="319.850555" y="224.51556" style="fill: #c44e52"/>
     <use xlink:href="#ma87060005a" x="327.670488" y="225.500444" style="fill: #c44e52"/>
     <use xlink:href="#ma87060005a" x="335.490421" y="228.9293" style="fill: #c44e52"/>
     <use xlink:href="#ma87060005a" x="343.310355" y="230.315434" style="fill: #c44e52"/>
     <use xlink:href="#ma87060005a" x="351.130288" y="229.512935" style="fill: #c44e52"/>
     <use xlink:href="#ma87060005a" x="358.950222" y="232.321679" style="fill: #c44e52"/>
     <use xlink:href="#ma87060005a" x="366.770155" y="232.941792" style="fill: #c44e52"/>
     <use xlink:href="#ma87060005a" x="374.590088" y="232.321679" style="fill: #c44e52"/>
     <use xlink:href="#ma87060005a" x="382.410022" y="234.765652" style="fill: #c44e52"/>
     <use xlink:href="#ma87060005a" x="390.229955" y="234.802129" style="fill: #c44e52"/>
     <use xlink:href="#ma87060005a" x="398.049888" y="233.525427" style="fill: #c44e52"/>
     <use xlink:href="#ma87060005a" x="405.869822" y="236.516557" style="fill: #c44e52"/>
     <use xlink:href="#ma87060005a" x="413.689755" y="236.334171" style="fill: #c44e52"/>
     <use xlink:href="#ma87060005a" x="421.509688" y="237.173146" style="fill: #c44e52"/>
     <use xlink:href="#ma87060005a" x="429.329622" y="209.961158" style="fill: #c44e52"/>
    </g>
   </g>
   <g id="PathCollection_9">
    <g clip-path="url(#p1ca17916a4)">
     <use xlink:href="#m2a8bd6cb22" x="46.152888" y="35.817487" style="fill: #4c72b0"/>
     <use xlink:href="#m2a8bd6cb22" x="53.972821" y="38.661673" style="fill: #4c72b0"/>
     <use xlink:href="#m2a8bd6cb22" x="61.792754" y="51.348242" style="fill: #4c72b0"/>
     <use xlink:href="#m2a8bd6cb22" x="69.612688" y="57.934779" style="fill: #4c72b0"/>
     <use xlink:href="#m2a8bd6cb22" x="77.432621" y="74.625663" style="fill: #4c72b0"/>
     <use xlink:href="#m2a8bd6cb22" x="85.252554" y="93.48711" style="fill: #4c72b0"/>
     <use xlink:href="#m2a8bd6cb22" x="93.072488" y="100.447882" style="fill: #4c72b0"/>
     <use xlink:href="#m2a8bd6cb22" x="100.892421" y="111.712357" style="fill: #4c72b0"/>
     <use xlink:href="#m2a8bd6cb22" x="108.712354" y="124.324079" style="fill: #4c72b0"/>
     <use xlink:href="#m2a8bd6cb22" x="116.532288" y="133.268297" style="fill: #4c72b0"/>
     <use xlink:href="#m2a8bd6cb22" x="124.352221" y="145.730324" style="fill: #4c72b0"/>
     <use xlink:href="#m2a8bd6cb22" x="132.172154" y="152.466555" style="fill: #4c72b0"/>
     <use xlink:href="#m2a8bd6cb22" x="139.992088" y="159.277633" style="fill: #4c72b0"/>
     <use xlink:href="#m2a8bd6cb22" x="147.812021" y="159.838986" style="fill: #4c72b0"/>
     <use xlink:href="#m2a8bd6cb22" x="155.631954" y="168.596086" style="fill: #4c72b0"/>
     <use xlink:href="#m2a8bd6cb22" x="163.451888" y="173.610836" style="fill: #4c72b0"/>
     <use xlink:href="#m2a8bd6cb22" x="171.271821" y="182.704748" style="fill: #4c72b0"/>
     <use xlink:href="#m2a8bd6cb22" x="179.091755" y="187.719498" style="fill: #4c72b0"/>
     <use xlink:href="#m2a8bd6cb22" x="186.911688" y="192.809095" style="fill: #4c72b0"/>
     <use xlink:href="#m2a8bd6cb22" x="194.731621" y="195.091929" style="fill: #4c72b0"/>
     <use xlink:href="#m2a8bd6cb22" x="202.551555" y="199.021397" style="fill: #4c72b0"/>
     <use xlink:href="#m2a8bd6cb22" x="210.371488" y="201.641042" style="fill: #4c72b0"/>
     <use xlink:href="#m2a8bd6cb22" x="218.191421" y="203.474794" style="fill: #4c72b0"/>
     <use xlink:href="#m2a8bd6cb22" x="226.011355" y="205.121428" style="fill: #4c72b0"/>
     <use xlink:href="#m2a8bd6cb22" x="233.831288" y="208.077885" style="fill: #4c72b0"/>
     <use xlink:href="#m2a8bd6cb22" x="241.651221" y="208.938626" style="fill: #4c72b0"/>
     <use xlink:href="#m2a8bd6cb22" x="249.471155" y="212.830671" style="fill: #4c72b0"/>
     <use xlink:href="#m2a8bd6cb22" x="257.291088" y="216.273633" style="fill: #4c72b0"/>
     <use xlink:href="#m2a8bd6cb22" x="265.111021" y="217.658303" style="fill: #4c72b0"/>
     <use xlink:href="#m2a8bd6cb22" x="272.930955" y="219.716596" style="fill: #4c72b0"/>
     <use xlink:href="#m2a8bd6cb22" x="280.750888" y="218.519043" style="fill: #4c72b0"/>
     <use xlink:href="#m2a8bd6cb22" x="288.570821" y="222.149124" style="fill: #4c72b0"/>
     <use xlink:href="#m2a8bd6cb22" x="296.390755" y="224.656498" style="fill: #4c72b0"/>
     <use xlink:href="#m2a8bd6cb22" x="304.210688" y="225.442392" style="fill: #4c72b0"/>
     <use xlink:href="#m2a8bd6cb22" x="312.030621" y="224.469381" style="fill: #4c72b0"/>
     <use xlink:href="#m2a8bd6cb22" x="319.850555" y="226.602521" style="fill: #4c72b0"/>
     <use xlink:href="#m2a8bd6cb22" x="327.670488" y="227.949767" style="fill: #4c72b0"/>
     <use xlink:href="#m2a8bd6cb22" x="335.490421" y="226.228286" style="fill: #4c72b0"/>
     <use xlink:href="#m2a8bd6cb22" x="343.310355" y="228.997625" style="fill: #4c72b0"/>
     <use xlink:href="#m2a8bd6cb22" x="351.130288" y="230.531989" style="fill: #4c72b0"/>
     <use xlink:href="#m2a8bd6cb22" x="358.950222" y="229.072472" style="fill: #4c72b0"/>
     <use xlink:href="#m2a8bd6cb22" x="366.770155" y="231.505" style="fill: #4c72b0"/>
     <use xlink:href="#m2a8bd6cb22" x="374.590088" y="231.579847" style="fill: #4c72b0"/>
     <use xlink:href="#m2a8bd6cb22" x="382.410022" y="232.627705" style="fill: #4c72b0"/>
     <use xlink:href="#m2a8bd6cb22" x="390.229955" y="233.75041" style="fill: #4c72b0"/>
     <use xlink:href="#m2a8bd6cb22" x="398.049888" y="233.63814" style="fill: #4c72b0"/>
     <use xlink:href="#m2a8bd6cb22" x="405.869822" y="233.488446" style="fill: #4c72b0"/>
     <use xlink:href="#m2a8bd6cb22" x="413.689755" y="234.685998" style="fill: #4c72b0"/>
     <use xlink:href="#m2a8bd6cb22" x="421.509688" y="235.659009" style="fill: #4c72b0"/>
     <use xlink:href="#m2a8bd6cb22" x="429.329622" y="35.817487" style="fill: #4c72b0"/>
    </g>
   </g>
   <g id="line2d_19">
    <path d="M 42.32112 247.933919 
L 46.191592 209.868554 
L 50.062064 176.828538 
L 53.932536 148.738911 
L 57.803009 125.371248 
L 61.673481 106.391793 
L 65.543953 91.402483 
L 69.414425 79.97404 
L 73.284897 71.671265 
L 77.155369 66.071317 
L 81.025841 62.776045 
L 84.896313 61.419547 
L 88.766785 61.672044 
L 92.637257 63.24106 
L 96.507729 65.870718 
L 100.378201 69.33979 
L 104.248673 73.459006 
L 108.119145 78.067988 
L 111.989617 83.032058 
L 115.860089 88.239107 
L 119.730562 93.596632 
L 123.601034 99.028997 
L 127.471506 104.474974 
L 131.341978 109.885538 
L 135.21245 115.221951 
L 139.082922 120.454078 
L 142.953394 125.558946 
L 146.823866 130.519508 
L 150.694338 135.323591 
L 154.56481 139.963005 
L 158.435282 144.432796 
L 162.305754 148.730615 
L 166.176226 152.856196 
L 170.046698 156.810917 
L 173.91717 160.597443 
L 177.787642 164.219423 
L 181.658114 167.681246 
L 185.528587 170.987843 
L 189.399059 174.144521 
L 193.269531 177.156831 
L 197.140003 180.030464 
L 201.010475 182.771164 
L 204.880947 185.384658 
L 208.751419 187.876611 
L 212.621891 190.252576 
L 216.492363 192.517972 
L 220.362835 194.678055 
L 224.233307 196.737902 
L 228.103779 198.702405 
L 231.974251 200.57626 
L 235.844723 202.363964 
L 239.715195 204.069817 
L 243.585667 205.697921 
L 247.45614 207.252184 
L 251.326612 208.736326 
L 255.197084 210.15388 
L 259.067556 211.508204 
L 262.938028 212.802483 
L 266.8085 214.039739 
L 270.678972 215.222835 
L 274.549444 216.354484 
L 278.419916 217.437256 
L 282.290388 218.473584 
L 286.16086 219.465771 
L 290.031332 220.415997 
L 293.901804 221.326327 
L 297.772276 222.198714 
L 301.642748 223.035006 
L 305.51322 223.836952 
L 309.383692 224.606209 
L 313.254165 225.344344 
L 317.124637 226.052841 
L 320.995109 226.733106 
L 324.865581 227.386468 
L 328.736053 228.014189 
L 332.606525 228.617463 
L 336.476997 229.19742 
L 340.347469 229.755133 
L 344.217941 230.291619 
L 348.088413 230.807841 
L 351.958885 231.304714 
L 355.829357 231.783104 
L 359.699829 232.243836 
L 363.570301 232.687689 
L 367.440773 233.115406 
L 371.311245 233.527691 
L 375.181718 233.925213 
L 379.05219 234.308608 
L 382.922662 234.678481 
L 386.793134 235.035405 
L 390.663606 235.379927 
L 394.534078 235.712569 
L 398.40455 236.033823 
L 402.275022 236.344162 
L 406.145494 236.644033 
L 410.015966 236.933864 
L 413.886438 237.214063 
L 417.75691 237.485016 
L 421.627382 237.747093 
L 425.497854 238.000648 
" clip-path="url(#p1ca17916a4)" style="fill: none; stroke: #c44e52"/>
   </g>
   <g id="line2d_20">
    <path d="M 42.32112 24.886081 
L 46.191592 29.773663 
L 50.062064 35.316062 
L 53.932536 41.361149 
L 57.803009 47.772296 
L 61.673481 54.42947 
L 65.543953 61.229336 
L 69.414425 68.084624 
L 73.284897 74.923024 
L 77.155369 81.685783 
L 81.025841 88.32617 
L 84.896313 94.807923 
L 88.766785 101.103746 
L 92.637257 107.193911 
L 96.507729 113.064991 
L 100.378201 118.708739 
L 104.248673 124.121106 
L 108.119145 129.301401 
L 111.989617 134.251575 
L 115.860089 138.975627 
L 119.730562 143.479101 
L 123.601034 147.76868 
L 127.471506 151.851848 
L 131.341978 155.736624 
L 135.21245 159.431346 
L 139.082922 162.944497 
L 142.953394 166.284572 
L 146.823866 169.459978 
L 150.694338 172.478951 
L 154.56481 175.349502 
L 158.435282 178.079373 
L 162.305754 180.676011 
L 166.176226 183.146547 
L 170.046698 185.497788 
L 173.91717 187.736214 
L 177.787642 189.867977 
L 181.658114 191.898909 
L 185.528587 193.834528 
L 189.399059 195.68005 
L 193.269531 197.440397 
L 197.140003 199.120214 
L 201.010475 200.723876 
L 204.880947 202.255509 
L 208.751419 203.718993 
L 212.621891 205.117984 
L 216.492363 206.455923 
L 220.362835 207.736045 
L 224.233307 208.961399 
L 228.103779 210.134849 
L 231.974251 211.259095 
L 235.844723 212.336675 
L 239.715195 213.36998 
L 243.585667 214.36126 
L 247.45614 215.312635 
L 251.326612 216.226102 
L 255.197084 217.103541 
L 259.067556 217.946728 
L 262.938028 218.757333 
L 266.8085 219.536935 
L 270.678972 220.287021 
L 274.549444 221.008995 
L 278.419916 221.704185 
L 282.290388 222.373844 
L 286.16086 223.019154 
L 290.031332 223.641236 
L 293.901804 224.241149 
L 297.772276 224.819892 
L 301.642748 225.378416 
L 305.51322 225.917616 
L 309.383692 226.438344 
L 313.254165 226.941406 
L 317.124637 227.427564 
L 320.995109 227.897545 
L 324.865581 228.352034 
L 328.736053 228.791685 
L 332.606525 229.217118 
L 336.476997 229.628921 
L 340.347469 230.027654 
L 344.217941 230.413849 
L 348.088413 230.788011 
L 351.958885 231.150623 
L 355.829357 231.502142 
L 359.699829 231.843005 
L 363.570301 232.173627 
L 367.440773 232.494404 
L 371.311245 232.805715 
L 375.181718 233.10792 
L 379.05219 233.401362 
L 382.922662 233.686368 
L 386.793134 233.963253 
L 390.663606 234.232315 
L 394.534078 234.49384 
L 398.40455 234.748101 
L 402.275022 234.995359 
L 406.145494 235.235864 
L 410.015966 235.469854 
L 413.886438 235.697559 
L 417.75691 235.919197 
L 421.627382 236.134978 
L 425.497854 236.345103 
" clip-path="url(#p1ca17916a4)" style="fill: none; stroke: #4c72b0"/>
   </g>
   <g id="legend_1">
    <g id="patch_7">
     <path d="M 290.350979 93.004021 
L 420.497854 93.004021 
L 420.497854 23.194646 
L 290.350979 23.194646 
z
" style="fill: #ffffff; stroke: #000000; stroke-linejoin: miter"/>
    </g>
    <g id="line2d_21">
     <path d="M 298.350979 35.294646 
L 308.350979 35.294646 
L 318.350979 35.294646 
" style="fill: none"/>
     <defs>
      <path id="m79067f55f7" d="M -1.530734 -3.695518 
L -3.695518 -1.530734 
L -3.695518 1.530734 
L -1.530734 3.695518 
L 1.530734 3.695518 
L 3.695518 1.530734 
L 3.695518 -1.530734 
L 1.530734 -3.695518 
z
"/>
     </defs>
     <g>
      <use xlink:href="#m79067f55f7" x="308.350979" y="35.294646" style="fill: #4c72b0"/>
     </g>
    </g>
    <g id="text_13">
     <!-- $ = n\pi/4$ -->
     <g transform="translate(326.350979 38.794646) scale(0.1 -0.1)">
      <defs>
       <path id="DejaVuSans-Oblique-3d5" d="M 2991 4863 
L 2738 3572 
Q 3363 3572 3684 3094 
Q 4016 2606 3850 1747 
Q 3681 888 3159 400 
Q 2653 -78 2028 -78 
L 1784 -1331 
L 1213 -1331 
L 1456 -78 
Q 834 -78 509 400 
Q 178 888 347 1747 
Q 513 2606 1034 3094 
Q 1544 3572 2166 3572 
L 2419 4863 
L 2991 4863 
z
M 2128 434 
Q 2481 434 2784 756 
Q 3116 1116 3244 1747 
Q 3369 2372 3169 2738 
Q 2991 3059 2638 3059 
L 2128 434 
z
M 1556 434 
L 2066 3059 
Q 1716 3059 1413 2738 
Q 1072 2372 953 1747 
Q 834 1116 1028 756 
Q 1203 434 1556 434 
z
" transform="scale(0.015625)"/>
       <path id="DejaVuSans-3d" d="M 678 2906 
L 4684 2906 
L 4684 2381 
L 678 2381 
L 678 2906 
z
M 678 1631 
L 4684 1631 
L 4684 1100 
L 678 1100 
L 678 1631 
z
" transform="scale(0.015625)"/>
       <path id="DejaVuSans-Oblique-6e" d="M 3566 2113 
L 3156 0 
L 2578 0 
L 2988 2091 
Q 3016 2238 3031 2350 
Q 3047 2463 3047 2528 
Q 3047 2791 2881 2937 
Q 2716 3084 2419 3084 
Q 1956 3084 1622 2776 
Q 1288 2469 1184 1941 
L 800 0 
L 225 0 
L 903 3500 
L 1478 3500 
L 1363 2950 
Q 1603 3253 1940 3418 
Q 2278 3584 2650 3584 
Q 3113 3584 3367 3334 
Q 3622 3084 3622 2631 
Q 3622 2519 3608 2391 
Q 3594 2263 3566 2113 
z
" transform="scale(0.015625)"/>
       <path id="DejaVuSans-Oblique-3c0" d="M 584 3500 
L 3938 3500 
L 3825 2925 
L 3384 2925 
L 2966 775 
Q 2922 550 2981 450 
Q 3038 353 3209 353 
Q 3256 353 3325 363 
Q 3397 369 3419 372 
L 3338 -44 
Q 3222 -84 3103 -103 
Q 2981 -122 2866 -122 
Q 2491 -122 2388 81 
Q 2284 288 2391 838 
L 2797 2925 
L 1506 2925 
L 938 0 
L 350 0 
L 919 2925 
L 472 2925 
L 584 3500 
z
" transform="scale(0.015625)"/>
       <path id="DejaVuSans-2f" d="M 1625 4666 
L 2156 4666 
L 531 -594 
L 0 -594 
L 1625 4666 
z
" transform="scale(0.015625)"/>
       <path id="DejaVuSans-34" d="M 2419 4116 
L 825 1625 
L 2419 1625 
L 2419 4116 
z
M 2253 4666 
L 3047 4666 
L 3047 1625 
L 3713 1625 
L 3713 1100 
L 3047 1100 
L 3047 0 
L 2419 0 
L 2419 1100 
L 313 1100 
L 313 1709 
L 2253 4666 
z
" transform="scale(0.015625)"/>
      </defs>
      <use xlink:href="#DejaVuSans-Oblique-3d5" transform="translate(0 0.015625)"/>
      <use xlink:href="#DejaVuSans-3d" transform="translate(85.449219 0.015625)"/>
      <use xlink:href="#DejaVuSans-Oblique-6e" transform="translate(188.720703 0.015625)"/>
      <use xlink:href="#DejaVuSans-Oblique-3c0" transform="translate(252.099609 0.015625)"/>
      <use xlink:href="#DejaVuSans-2f" transform="translate(312.304688 0.015625)"/>
      <use xlink:href="#DejaVuSans-34" transform="translate(345.996094 0.015625)"/>
     </g>
    </g>
    <g id="line2d_22">
     <path d="M 298.350979 49.994646 
L 308.350979 49.994646 
L 318.350979 49.994646 
" style="fill: none"/>
     <defs>
      <path id="md1b5145422" d="M -1.530734 -3.695518 
L -3.695518 -1.530734 
L -3.695518 1.530734 
L -1.530734 3.695518 
L 1.530734 3.695518 
L 3.695518 1.530734 
L 3.695518 -1.530734 
L 1.530734 -3.695518 
z
"/>
     </defs>
     <g>
      <use xlink:href="#md1b5145422" x="308.350979" y="49.994646" style="fill: #c44e52"/>
     </g>
    </g>
    <g id="text_14">
     <!-- $ \neq n\pi/4$ -->
     <g transform="translate(326.350979 53.494646) scale(0.1 -0.1)">
      <defs>
       <path id="DejaVuSans-2260" d="M 678 2906 
L 3091 2906 
L 3891 3891 
L 4281 3572 
L 3738 2906 
L 4684 2906 
L 4684 2381 
L 3309 2381 
L 2700 1631 
L 4684 1631 
L 4684 1100 
L 2266 1100 
L 1459 122 
L 1069 441 
L 1613 1100 
L 678 1100 
L 678 1631 
L 2047 1631 
L 2656 2381 
L 678 2381 
L 678 2906 
z
" transform="scale(0.015625)"/>
      </defs>
      <use xlink:href="#DejaVuSans-Oblique-3d5" transform="translate(0 0.015625)"/>
      <use xlink:href="#DejaVuSans-2260" transform="translate(85.449219 0.015625)"/>
      <use xlink:href="#DejaVuSans-Oblique-6e" transform="translate(188.720703 0.015625)"/>
      <use xlink:href="#DejaVuSans-Oblique-3c0" transform="translate(252.099609 0.015625)"/>
      <use xlink:href="#DejaVuSans-2f" transform="translate(312.304688 0.015625)"/>
      <use xlink:href="#DejaVuSans-34" transform="translate(345.996094 0.015625)"/>
     </g>
    </g>
    <g id="line2d_23">
     <path d="M 298.350979 64.746208 
L 308.350979 64.746208 
L 318.350979 64.746208 
" style="fill: none; stroke: #c44e52; stroke-width: 1.25; stroke-linejoin: miter"/>
    </g>
    <g id="text_15">
     <!-- WD,  = 1 -->
     <g transform="translate(326.350979 68.246208) scale(0.1 -0.1)">
      <defs>
       <path id="DejaVuSerif-57" d="M 4878 0 
L 4366 0 
L 3297 3794 
L 2228 0 
L 1716 0 
L 494 4331 
L 31 4331 
L 31 4666 
L 1734 4666 
L 1734 4331 
L 1153 4331 
L 2125 884 
L 3188 4666 
L 3694 4666 
L 4775 844 
L 5753 4331 
L 5216 4331 
L 5216 4666 
L 6559 4666 
L 6559 4331 
L 6100 4331 
L 4878 0 
z
" transform="scale(0.015625)"/>
       <path id="DejaVuSerif-44" d="M 1581 331 
L 2163 331 
Q 3072 331 3558 850 
Q 4044 1369 4044 2338 
Q 4044 3306 3559 3818 
Q 3075 4331 2163 4331 
L 1581 4331 
L 1581 331 
z
M 353 0 
L 353 331 
L 947 331 
L 947 4331 
L 353 4331 
L 353 4666 
L 2209 4666 
Q 3416 4666 4089 4050 
Q 4763 3434 4763 2338 
Q 4763 1238 4088 619 
Q 3413 0 2209 0 
L 353 0 
z
" transform="scale(0.015625)"/>
       <path id="DejaVuSerif-2c" d="M 231 -622 
Q 525 -406 662 -114 
Q 800 178 800 594 
L 800 709 
L 1416 709 
Q 1391 175 1164 -208 
Q 938 -591 481 -872 
L 231 -622 
z
" transform="scale(0.015625)"/>
       <path id="DejaVuSerif-3b2" d="M 978 403 
Q 1228 219 1688 219 
Q 2166 219 2442 495 
Q 2719 772 2719 1253 
Q 2719 1906 2434 2188 
Q 2144 2478 1600 2478 
L 1303 2478 
L 1303 2813 
L 1459 2813 
Q 1856 2813 2131 3038 
Q 2356 3228 2356 3725 
Q 2356 3941 2209 4188 
Q 1969 4597 1681 4588 
Q 978 4566 978 3319 
L 978 403 
z
M 403 -1331 
L 403 3319 
Q 403 4628 1106 4803 
Q 1478 4897 1734 4897 
Q 2319 4897 2694 4438 
Q 2991 4075 2991 3763 
Q 2991 3319 2772 3056 
Q 2556 2797 2169 2672 
Q 2738 2591 3063 2250 
Q 3378 1913 3378 1259 
Q 3378 606 2939 257 
Q 2500 -91 1675 -91 
Q 1169 -91 978 -19 
L 978 -1331 
L 403 -1331 
z
" transform="scale(0.015625)"/>
       <path id="DejaVuSerif-3d" d="M 678 2894 
L 4684 2894 
L 4684 2394 
L 678 2394 
L 678 2894 
z
M 678 1619 
L 4684 1619 
L 4684 1119 
L 678 1119 
L 678 1619 
z
" transform="scale(0.015625)"/>
      </defs>
      <use xlink:href="#DejaVuSerif-57"/>
      <use xlink:href="#DejaVuSerif-44" x="102.783203"/>
      <use xlink:href="#DejaVuSerif-2c" x="179.333984"/>
      <use xlink:href="#DejaVuSerif-20" x="211.121094"/>
      <use xlink:href="#DejaVuSerif-3b2" x="242.908203"/>
      <use xlink:href="#DejaVuSerif-20" x="300.720703"/>
      <use xlink:href="#DejaVuSerif-3d" x="332.507812"/>
      <use xlink:href="#DejaVuSerif-20" x="416.296875"/>
      <use xlink:href="#DejaVuSerif-31" x="448.083984"/>
     </g>
    </g>
    <g id="line2d_24">
     <path d="M 298.350979 79.424333 
L 308.350979 79.424333 
L 318.350979 79.424333 
" style="fill: none; stroke: #4c72b0; stroke-width: 1.25; stroke-linejoin: miter"/>
    </g>
    <g id="text_16">
     <!-- Surmise for GOE -->
     <g transform="translate(326.350979 82.924333) scale(0.1 -0.1)">
      <defs>
       <path id="DejaVuSerif-75" d="M 2266 3322 
L 3341 3322 
L 3341 331 
L 3884 331 
L 3884 0 
L 2766 0 
L 2766 588 
Q 2606 256 2353 82 
Q 2100 -91 1766 -91 
Q 1213 -91 952 223 
Q 691 538 691 1209 
L 691 2988 
L 172 2988 
L 172 3322 
L 1269 3322 
L 1269 1388 
Q 1269 781 1417 556 
Q 1566 331 1947 331 
Q 2347 331 2556 625 
Q 2766 919 2766 1478 
L 2766 2988 
L 2266 2988 
L 2266 3322 
z
" transform="scale(0.015625)"/>
       <path id="DejaVuSerif-6d" d="M 3316 2675 
Q 3481 3041 3739 3227 
Q 3997 3413 4341 3413 
Q 4863 3413 5119 3089 
Q 5375 2766 5375 2113 
L 5375 331 
L 5894 331 
L 5894 0 
L 4300 0 
L 4300 331 
L 4800 331 
L 4800 2047 
Q 4800 2556 4650 2772 
Q 4500 2988 4153 2988 
Q 3769 2988 3567 2697 
Q 3366 2406 3366 1850 
L 3366 331 
L 3866 331 
L 3866 0 
L 2291 0 
L 2291 331 
L 2791 331 
L 2791 2069 
Q 2791 2566 2641 2777 
Q 2491 2988 2144 2988 
Q 1759 2988 1557 2697 
Q 1356 2406 1356 1850 
L 1356 331 
L 1856 331 
L 1856 0 
L 263 0 
L 263 331 
L 781 331 
L 781 2994 
L 231 2994 
L 231 3322 
L 1356 3322 
L 1356 2731 
Q 1516 3063 1762 3238 
Q 2009 3413 2322 3413 
Q 2709 3413 2968 3220 
Q 3228 3028 3316 2675 
z
" transform="scale(0.015625)"/>
       <path id="DejaVuSerif-66" d="M 2753 4078 
L 2450 4078 
Q 2447 4313 2317 4434 
Q 2188 4556 1941 4556 
Q 1619 4556 1487 4379 
Q 1356 4203 1356 3750 
L 1356 3322 
L 2284 3322 
L 2284 2988 
L 1356 2988 
L 1356 331 
L 2094 331 
L 2094 0 
L 231 0 
L 231 331 
L 781 331 
L 781 2988 
L 231 2988 
L 231 3322 
L 781 3322 
L 781 3738 
Q 781 4294 1070 4578 
Q 1359 4863 1919 4863 
Q 2128 4863 2337 4825 
Q 2547 4788 2753 4709 
L 2753 4078 
z
" transform="scale(0.015625)"/>
       <path id="DejaVuSerif-47" d="M 4097 3272 
Q 3988 3856 3641 4136 
Q 3294 4416 2675 4416 
Q 1869 4416 1472 3897 
Q 1075 3378 1075 2328 
Q 1075 1300 1484 772 
Q 1894 244 2688 244 
Q 3041 244 3362 331 
Q 3684 419 3975 594 
L 3975 1797 
L 3097 1797 
L 3097 2131 
L 4609 2131 
L 4609 391 
Q 4194 150 3714 29 
Q 3234 -91 2688 -91 
Q 1631 -91 995 570 
Q 359 1231 359 2328 
Q 359 3434 996 4092 
Q 1634 4750 2713 4750 
Q 3113 4750 3539 4658 
Q 3966 4566 4447 4378 
L 4447 3272 
L 4097 3272 
z
" transform="scale(0.015625)"/>
       <path id="DejaVuSerif-4f" d="M 2625 244 
Q 3391 244 3781 770 
Q 4172 1297 4172 2328 
Q 4172 3363 3781 3889 
Q 3391 4416 2625 4416 
Q 1856 4416 1465 3889 
Q 1075 3363 1075 2328 
Q 1075 1297 1465 770 
Q 1856 244 2625 244 
z
M 2625 -91 
Q 2150 -91 1751 65 
Q 1353 222 1050 525 
Q 700 875 529 1319 
Q 359 1763 359 2328 
Q 359 2894 529 3339 
Q 700 3784 1050 4134 
Q 1356 4441 1750 4595 
Q 2144 4750 2625 4750 
Q 3641 4750 4266 4084 
Q 4891 3419 4891 2328 
Q 4891 1769 4719 1320 
Q 4547 872 4197 525 
Q 3891 219 3497 64 
Q 3103 -91 2625 -91 
z
" transform="scale(0.015625)"/>
      </defs>
      <use xlink:href="#DejaVuSerif-53"/>
      <use xlink:href="#DejaVuSerif-75" x="68.505859"/>
      <use xlink:href="#DejaVuSerif-72" x="132.910156"/>
      <use xlink:href="#DejaVuSerif-6d" x="180.712891"/>
      <use xlink:href="#DejaVuSerif-69" x="275.537109"/>
      <use xlink:href="#DejaVuSerif-73" x="307.519531"/>
      <use xlink:href="#DejaVuSerif-65" x="358.837891"/>
      <use xlink:href="#DejaVuSerif-20" x="418.017578"/>
      <use xlink:href="#DejaVuSerif-66" x="449.804688"/>
      <use xlink:href="#DejaVuSerif-6f" x="486.816406"/>
      <use xlink:href="#DejaVuSerif-72" x="547.021484"/>
      <use xlink:href="#DejaVuSerif-20" x="594.824219"/>
      <use xlink:href="#DejaVuSerif-47" x="626.611328"/>
      <use xlink:href="#DejaVuSerif-4f" x="706.494141"/>
      <use xlink:href="#DejaVuSerif-45" x="788.476562"/>
     </g>
    </g>
   </g>
  </g>
 </g>
 <defs>
  <clipPath id="p1ca17916a4">
   <rect x="42.32112" y="18.194646" width="383.176734" height="236.430709"/>
  </clipPath>
 </defs>
</svg>
