<?xml version="1.0" encoding="utf-8" standalone="no"?>
<!DOCTYPE svg PUBLIC "-//W3C//DTD SVG 1.1//EN"
  "http://www.w3.org/Graphics/SVG/1.1/DTD/svg11.dtd">
<svg xmlns:xlink="http://www.w3.org/1999/xlink" width="432pt" height="288pt" viewBox="0 0 432 288" xmlns="http://www.w3.org/2000/svg" version="1.1">
 <metadata>
  <rdf:RDF xmlns:dc="http://purl.org/dc/elements/1.1/" xmlns:cc="http://creativecommons.org/ns#" xmlns:rdf="http://www.w3.org/1999/02/22-rdf-syntax-ns#">
   <cc:Work>
    <dc:type rdf:resource="http://purl.org/dc/dcmitype/StillImage"/>
    <dc:date>2024-08-02T02:54:17.500384</dc:date>
    <dc:format>image/svg+xml</dc:format>
    <dc:creator>
     <cc:Agent>
      <dc:title>Matplotlib v3.9.1, https://matplotlib.org/</dc:title>
     </cc:Agent>
    </dc:creator>
   </cc:Work>
  </rdf:RDF>
 </metadata>
 <defs>
  <style type="text/css">*{stroke-linejoin: round; stroke-linecap: butt}</style>
 </defs>
 <g id="figure_1">
  <g id="patch_1">
   <path d="M 0 288 
L 432 288 
L 432 0 
L 0 0 
z
" style="fill: #ffffff"/>
  </g>
  <g id="axes_1">
   <g id="patch_2">
    <path d="M 58.2145 253.905354 
L 420.787928 253.905354 
L 420.787928 19.634646 
L 58.2145 19.634646 
z
" style="fill: #ffffff"/>
   </g>
   <g id="line2d_1">
    <path d="M 68.476012 99.192468 
L 153.988613 131.294144 
L 239.501214 170.936819 
L 325.013815 207.428046 
L 410.526415 241.859635 
" clip-path="url(#p0c65698b7c)" style="fill: none; stroke: #4c72b0; stroke-width: 2"/>
   </g>
   <g id="line2d_2">
    <path d="M 68.476012 99.959394 
L 68.476012 98.435802 
" clip-path="url(#p0c65698b7c)" style="fill: none; stroke: #000000; stroke-width: 2"/>
   </g>
   <g id="line2d_3">
    <path d="M 153.988613 132.722214 
L 153.988613 129.901244 
" clip-path="url(#p0c65698b7c)" style="fill: none; stroke: #000000; stroke-width: 2"/>
   </g>
   <g id="line2d_4">
    <path d="M 239.501214 173.987384 
L 239.501214 168.042393 
" clip-path="url(#p0c65698b7c)" style="fill: none; stroke: #000000; stroke-width: 2"/>
   </g>
   <g id="line2d_5">
    <path d="M 325.013815 213.340255 
L 325.013815 202.075745 
" clip-path="url(#p0c65698b7c)" style="fill: none; stroke: #000000; stroke-width: 2"/>
   </g>
   <g id="line2d_6">
    <path d="M 410.526415 247.275051 
L 410.526415 236.917697 
" clip-path="url(#p0c65698b7c)" style="fill: none; stroke: #000000; stroke-width: 2"/>
   </g>
   <g id="PathCollection_1">
    <defs>
     <path id="me21ee77f30" d="M 0 2 
C 0.530406 2 1.03916 1.789267 1.414214 1.414214 
C 1.789267 1.03916 2 0.530406 2 0 
C 2 -0.530406 1.789267 -1.03916 1.414214 -1.414214 
C 1.03916 -1.789267 0.530406 -2 0 -2 
C -0.530406 -2 -1.03916 -1.789267 -1.414214 -1.414214 
C -1.789267 -1.03916 -2 -0.530406 -2 0 
C -2 0.530406 -1.789267 1.03916 -1.414214 1.414214 
C -1.03916 1.789267 -0.530406 2 0 2 
z
" style="stroke: #000000"/>
    </defs>
    <g clip-path="url(#p0c65698b7c)">
     <use xlink:href="#me21ee77f30" x="68.476012" y="99.192468" style="fill: #4c72b0; stroke: #000000"/>
     <use xlink:href="#me21ee77f30" x="153.988613" y="131.294144" style="fill: #4c72b0; stroke: #000000"/>
     <use xlink:href="#me21ee77f30" x="239.501214" y="170.936819" style="fill: #4c72b0; stroke: #000000"/>
     <use xlink:href="#me21ee77f30" x="325.013815" y="207.428046" style="fill: #4c72b0; stroke: #000000"/>
     <use xlink:href="#me21ee77f30" x="410.526415" y="241.859635" style="fill: #4c72b0; stroke: #000000"/>
    </g>
   </g>
   <g id="PathCollection_2">
    <defs>
     <path id="m647d1af479" d="M 2 0 
L -2 -0 
" style="stroke: #000000"/>
    </defs>
    <g clip-path="url(#p0c65698b7c)">
     <use xlink:href="#m647d1af479" x="68.476012" y="99.959394" style="stroke: #000000"/>
     <use xlink:href="#m647d1af479" x="68.476012" y="98.435802" style="stroke: #000000"/>
    </g>
   </g>
   <g id="PathCollection_3">
    <g clip-path="url(#p0c65698b7c)">
     <use xlink:href="#m647d1af479" x="153.988613" y="132.722214" style="stroke: #000000"/>
     <use xlink:href="#m647d1af479" x="153.988613" y="129.901244" style="stroke: #000000"/>
    </g>
   </g>
   <g id="PathCollection_4">
    <g clip-path="url(#p0c65698b7c)">
     <use xlink:href="#m647d1af479" x="239.501214" y="173.987384" style="stroke: #000000"/>
     <use xlink:href="#m647d1af479" x="239.501214" y="168.042393" style="stroke: #000000"/>
    </g>
   </g>
   <g id="PathCollection_5">
    <g clip-path="url(#p0c65698b7c)">
     <use xlink:href="#m647d1af479" x="325.013815" y="213.340255" style="stroke: #000000"/>
     <use xlink:href="#m647d1af479" x="325.013815" y="202.075745" style="stroke: #000000"/>
    </g>
   </g>
   <g id="PathCollection_6">
    <g clip-path="url(#p0c65698b7c)">
     <use xlink:href="#m647d1af479" x="410.526415" y="247.275051" style="stroke: #000000"/>
     <use xlink:href="#m647d1af479" x="410.526415" y="236.917697" style="stroke: #000000"/>
    </g>
   </g>
   <g id="matplotlib.axis_1">
    <g id="xtick_1">
     <g id="line2d_7">
      <defs>
       <path id="m4959d62f63" d="M 0 0 
L 0 -2.5 
" style="stroke: #000000; stroke-width: 0.5"/>
      </defs>
      <g>
       <use xlink:href="#m4959d62f63" x="68.476012" y="253.905354" style="stroke: #000000; stroke-width: 0.5"/>
      </g>
     </g>
     <g id="line2d_8">
      <defs>
       <path id="me2db47937f" d="M 0 0 
L 0 2.5 
" style="stroke: #000000; stroke-width: 0.5"/>
      </defs>
      <g>
       <use xlink:href="#me2db47937f" x="68.476012" y="19.634646" style="stroke: #000000; stroke-width: 0.5"/>
      </g>
     </g>
     <g id="text_1">
      <!-- $6$ -->
      <g transform="translate(65.276012 265.003792) scale(0.1 -0.1)">
       <defs>
        <path id="DejaVuSerif-36" d="M 2094 219 
Q 2534 219 2771 542 
Q 3009 866 3009 1472 
Q 3009 2078 2771 2401 
Q 2534 2725 2094 2725 
Q 1647 2725 1412 2412 
Q 1178 2100 1178 1509 
Q 1178 888 1415 553 
Q 1653 219 2094 219 
z
M 1075 2569 
Q 1288 2803 1556 2918 
Q 1825 3034 2163 3034 
Q 2859 3034 3264 2615 
Q 3669 2197 3669 1472 
Q 3669 763 3233 336 
Q 2797 -91 2069 -91 
Q 1278 -91 853 498 
Q 428 1088 428 2181 
Q 428 3406 931 4078 
Q 1434 4750 2350 4750 
Q 2597 4750 2869 4703 
Q 3141 4656 3425 4563 
L 3425 3794 
L 3072 3794 
Q 3034 4109 2831 4275 
Q 2628 4441 2284 4441 
Q 1678 4441 1381 3981 
Q 1084 3522 1075 2569 
z
" transform="scale(0.015625)"/>
       </defs>
       <use xlink:href="#DejaVuSerif-36" transform="translate(0 0.78125)"/>
      </g>
     </g>
    </g>
    <g id="xtick_2">
     <g id="line2d_9">
      <g>
       <use xlink:href="#m4959d62f63" x="153.988613" y="253.905354" style="stroke: #000000; stroke-width: 0.5"/>
      </g>
     </g>
     <g id="line2d_10">
      <g>
       <use xlink:href="#me2db47937f" x="153.988613" y="19.634646" style="stroke: #000000; stroke-width: 0.5"/>
      </g>
     </g>
     <g id="text_2">
      <!-- $8$ -->
      <g transform="translate(150.788613 265.003792) scale(0.1 -0.1)">
       <defs>
        <path id="DejaVuSerif-38" d="M 2981 1275 
Q 2981 1775 2732 2051 
Q 2484 2328 2034 2328 
Q 1584 2328 1336 2051 
Q 1088 1775 1088 1275 
Q 1088 772 1336 495 
Q 1584 219 2034 219 
Q 2484 219 2732 495 
Q 2981 772 2981 1275 
z
M 2853 3541 
Q 2853 3966 2637 4203 
Q 2422 4441 2034 4441 
Q 1650 4441 1433 4203 
Q 1216 3966 1216 3541 
Q 1216 3113 1433 2875 
Q 1650 2638 2034 2638 
Q 2422 2638 2637 2875 
Q 2853 3113 2853 3541 
z
M 2516 2484 
Q 3047 2413 3344 2092 
Q 3641 1772 3641 1275 
Q 3641 619 3225 264 
Q 2809 -91 2034 -91 
Q 1263 -91 845 264 
Q 428 619 428 1275 
Q 428 1772 725 2092 
Q 1022 2413 1556 2484 
Q 1084 2569 832 2842 
Q 581 3116 581 3541 
Q 581 4103 968 4426 
Q 1356 4750 2034 4750 
Q 2713 4750 3100 4426 
Q 3488 4103 3488 3541 
Q 3488 3116 3236 2842 
Q 2984 2569 2516 2484 
z
" transform="scale(0.015625)"/>
       </defs>
       <use xlink:href="#DejaVuSerif-38" transform="translate(0 0.78125)"/>
      </g>
     </g>
    </g>
    <g id="xtick_3">
     <g id="line2d_11">
      <g>
       <use xlink:href="#m4959d62f63" x="239.501214" y="253.905354" style="stroke: #000000; stroke-width: 0.5"/>
      </g>
     </g>
     <g id="line2d_12">
      <g>
       <use xlink:href="#me2db47937f" x="239.501214" y="19.634646" style="stroke: #000000; stroke-width: 0.5"/>
      </g>
     </g>
     <g id="text_3">
      <!-- $10$ -->
      <g transform="translate(233.101214 265.003792) scale(0.1 -0.1)">
       <defs>
        <path id="DejaVuSerif-31" d="M 909 0 
L 909 331 
L 1722 331 
L 1722 4213 
L 781 3603 
L 781 4013 
L 1919 4750 
L 2350 4750 
L 2350 331 
L 3163 331 
L 3163 0 
L 909 0 
z
" transform="scale(0.015625)"/>
        <path id="DejaVuSerif-30" d="M 2034 219 
Q 2513 219 2750 744 
Q 2988 1269 2988 2328 
Q 2988 3391 2750 3916 
Q 2513 4441 2034 4441 
Q 1556 4441 1318 3916 
Q 1081 3391 1081 2328 
Q 1081 1269 1318 744 
Q 1556 219 2034 219 
z
M 2034 -91 
Q 1275 -91 848 546 
Q 422 1184 422 2328 
Q 422 3475 848 4112 
Q 1275 4750 2034 4750 
Q 2797 4750 3222 4112 
Q 3647 3475 3647 2328 
Q 3647 1184 3222 546 
Q 2797 -91 2034 -91 
z
" transform="scale(0.015625)"/>
       </defs>
       <use xlink:href="#DejaVuSerif-31" transform="translate(0 0.78125)"/>
       <use xlink:href="#DejaVuSerif-30" transform="translate(63.623047 0.78125)"/>
      </g>
     </g>
    </g>
    <g id="xtick_4">
     <g id="line2d_13">
      <g>
       <use xlink:href="#m4959d62f63" x="325.013815" y="253.905354" style="stroke: #000000; stroke-width: 0.5"/>
      </g>
     </g>
     <g id="line2d_14">
      <g>
       <use xlink:href="#me2db47937f" x="325.013815" y="19.634646" style="stroke: #000000; stroke-width: 0.5"/>
      </g>
     </g>
     <g id="text_4">
      <!-- $12$ -->
      <g transform="translate(318.613815 265.003792) scale(0.1 -0.1)">
       <defs>
        <path id="DejaVuSerif-32" d="M 819 3553 
L 469 3553 
L 469 4384 
Q 803 4563 1142 4656 
Q 1481 4750 1806 4750 
Q 2534 4750 2956 4397 
Q 3378 4044 3378 3438 
Q 3378 2753 2422 1800 
Q 2347 1728 2309 1691 
L 1131 513 
L 3078 513 
L 3078 1088 
L 3444 1088 
L 3444 0 
L 434 0 
L 434 341 
L 1850 1753 
Q 2319 2222 2519 2614 
Q 2719 3006 2719 3438 
Q 2719 3909 2473 4175 
Q 2228 4441 1797 4441 
Q 1350 4441 1106 4219 
Q 863 3997 819 3553 
z
" transform="scale(0.015625)"/>
       </defs>
       <use xlink:href="#DejaVuSerif-31" transform="translate(0 0.78125)"/>
       <use xlink:href="#DejaVuSerif-32" transform="translate(63.623047 0.78125)"/>
      </g>
     </g>
    </g>
    <g id="xtick_5">
     <g id="line2d_15">
      <g>
       <use xlink:href="#m4959d62f63" x="410.526415" y="253.905354" style="stroke: #000000; stroke-width: 0.5"/>
      </g>
     </g>
     <g id="line2d_16">
      <g>
       <use xlink:href="#me2db47937f" x="410.526415" y="19.634646" style="stroke: #000000; stroke-width: 0.5"/>
      </g>
     </g>
     <g id="text_5">
      <!-- $14$ -->
      <g transform="translate(404.126415 265.003792) scale(0.1 -0.1)">
       <defs>
        <path id="DejaVuSerif-34" d="M 2234 1581 
L 2234 4063 
L 641 1581 
L 2234 1581 
z
M 3609 0 
L 1484 0 
L 1484 331 
L 2234 331 
L 2234 1247 
L 197 1247 
L 197 1588 
L 2241 4750 
L 2859 4750 
L 2859 1581 
L 3750 1581 
L 3750 1247 
L 2859 1247 
L 2859 331 
L 3609 331 
L 3609 0 
z
" transform="scale(0.015625)"/>
       </defs>
       <use xlink:href="#DejaVuSerif-31" transform="translate(0 0.78125)"/>
       <use xlink:href="#DejaVuSerif-34" transform="translate(63.623047 0.78125)"/>
      </g>
     </g>
    </g>
    <g id="text_6">
     <!-- $N$ -->
     <g transform="translate(233.341214 281.721292) scale(0.14 -0.14)">
      <defs>
       <path id="DejaVuSerif-Italic-4e" d="M -128 0 
L -66 331 
L 563 331 
L 1341 4331 
L 713 4331 
L 778 4666 
L 1975 4666 
L 4056 984 
L 4706 4331 
L 4081 4331 
L 4147 4666 
L 5784 4666 
L 5719 4331 
L 5091 4331 
L 4231 -91 
L 3853 -91 
L 1631 3841 
L 947 331 
L 1575 331 
L 1513 0 
L -128 0 
z
" transform="scale(0.015625)"/>
      </defs>
      <use xlink:href="#DejaVuSerif-Italic-4e" transform="translate(0 0.09375)"/>
     </g>
    </g>
   </g>
   <g id="matplotlib.axis_2">
    <g id="ytick_1">
     <g id="line2d_17">
      <defs>
       <path id="m28ca7cf082" d="M 0 0 
L 2.5 0 
" style="stroke: #000000; stroke-width: 0.5"/>
      </defs>
      <g>
       <use xlink:href="#m28ca7cf082" x="58.2145" y="202.819726" style="stroke: #000000; stroke-width: 0.5"/>
      </g>
     </g>
     <g id="line2d_18">
      <defs>
       <path id="mbd36f2541d" d="M 0 0 
L -2.5 0 
" style="stroke: #000000; stroke-width: 0.5"/>
      </defs>
      <g>
       <use xlink:href="#mbd36f2541d" x="420.787928" y="202.819726" style="stroke: #000000; stroke-width: 0.5"/>
      </g>
     </g>
     <g id="text_7">
      <!-- $10^{-2}$ -->
      <g transform="translate(31.3145 206.618945) scale(0.1 -0.1)">
       <defs>
        <path id="DejaVuSerif-2212" d="M 678 2259 
L 4684 2259 
L 4684 1753 
L 678 1753 
L 678 2259 
z
" transform="scale(0.015625)"/>
       </defs>
       <use xlink:href="#DejaVuSerif-31" transform="translate(0 0.7125)"/>
       <use xlink:href="#DejaVuSerif-30" transform="translate(63.623047 0.7125)"/>
       <use xlink:href="#DejaVuSerif-2212" transform="translate(128.154453 37.046875) scale(0.7)"/>
       <use xlink:href="#DejaVuSerif-32" transform="translate(186.806797 37.046875) scale(0.7)"/>
      </g>
     </g>
    </g>
    <g id="ytick_2">
     <g id="line2d_19">
      <g>
       <use xlink:href="#m28ca7cf082" x="58.2145" y="72.578946" style="stroke: #000000; stroke-width: 0.5"/>
      </g>
     </g>
     <g id="line2d_20">
      <g>
       <use xlink:href="#mbd36f2541d" x="420.787928" y="72.578946" style="stroke: #000000; stroke-width: 0.5"/>
      </g>
     </g>
     <g id="text_8">
      <!-- $10^{-1}$ -->
      <g transform="translate(31.3145 76.378165) scale(0.1 -0.1)">
       <use xlink:href="#DejaVuSerif-31" transform="translate(0 0.7125)"/>
       <use xlink:href="#DejaVuSerif-30" transform="translate(63.623047 0.7125)"/>
       <use xlink:href="#DejaVuSerif-2212" transform="translate(128.154453 37.046875) scale(0.7)"/>
       <use xlink:href="#DejaVuSerif-31" transform="translate(186.806797 37.046875) scale(0.7)"/>
      </g>
     </g>
    </g>
    <g id="text_9">
     <!-- $\frac{\langle \lambda^k \rangle - m_k}{m_k}$ -->
     <g transform="translate(22.2745 160.01) rotate(-90) scale(0.14 -0.14)">
      <defs>
       <path id="DejaVuSerif-27e8" d="M 572 2006 
L 1453 4856 
L 1984 4856 
L 1103 2006 
L 1984 -844 
L 1453 -844 
L 572 2006 
z
" transform="scale(0.015625)"/>
       <path id="DejaVuSerif-Italic-3bb" d="M 1984 4084 
Q 1925 4372 1834 4466 
Q 1744 4563 1578 4563 
Q 1391 4563 1288 4472 
Q 1178 4378 1119 4166 
L 825 4166 
L 947 4800 
Q 1113 4847 1272 4872 
Q 1431 4897 1578 4897 
Q 1925 4897 2088 4753 
Q 2253 4613 2334 4225 
L 3100 334 
L 3472 334 
L 3406 0 
L 2159 0 
L 2225 334 
L 2722 334 
L 2281 2628 
L 853 334 
L 1384 334 
L 1319 0 
L -209 0 
L -144 334 
L 234 334 
L 2116 3388 
L 1984 4084 
z
" transform="scale(0.015625)"/>
       <path id="DejaVuSerif-Italic-6b" d="M 2113 2075 
L 3034 331 
L 3513 331 
L 3450 0 
L 2528 0 
L 1622 1697 
L 1088 1275 
L 841 0 
L 266 0 
L 1147 4531 
L 594 4531 
L 656 4863 
L 1784 4863 
L 1169 1697 
L 2822 2988 
L 2344 2988 
L 2406 3322 
L 3341 3322 
L 3278 2988 
L 2113 2075 
z
" transform="scale(0.015625)"/>
       <path id="DejaVuSerif-27e9" d="M 1925 2006 
L 1044 -844 
L 513 -844 
L 1394 2006 
L 513 4856 
L 1044 4856 
L 1925 2006 
z
" transform="scale(0.015625)"/>
       <path id="DejaVuSerif-Italic-6d" d="M 3503 2675 
Q 3741 3041 4034 3227 
Q 4328 3413 4672 3413 
Q 5194 3413 5388 3088 
Q 5503 2894 5503 2578 
Q 5503 2372 5453 2113 
L 5106 331 
L 5625 331 
L 5563 0 
L 4469 0 
L 4866 2047 
Q 4913 2291 4913 2466 
Q 4913 2659 4856 2772 
Q 4750 2988 4403 2988 
Q 4019 2988 3761 2697 
Q 3503 2406 3394 1850 
L 3034 0 
L 2459 0 
L 2863 2069 
Q 2906 2303 2906 2472 
Q 2906 2666 2850 2775 
Q 2741 2988 2394 2988 
Q 2009 2988 1751 2697 
Q 1494 2406 1384 1850 
L 1025 0 
L 450 0 
L 1031 2994 
L 481 2994 
L 544 3322 
L 1669 3322 
L 1556 2731 
Q 1778 3063 2059 3238 
Q 2341 3413 2653 3413 
Q 3041 3413 3262 3220 
Q 3484 3028 3503 2675 
z
" transform="scale(0.015625)"/>
      </defs>
      <use xlink:href="#DejaVuSerif-27e8" transform="translate(0 55.333594) scale(0.7)"/>
      <use xlink:href="#DejaVuSerif-Italic-3bb" transform="translate(27.30957 55.333594) scale(0.7)"/>
      <use xlink:href="#DejaVuSerif-Italic-6b" transform="translate(77.053831 80.767656) scale(0.49)"/>
      <use xlink:href="#DejaVuSerif-27e9" transform="translate(108.562444 55.333594) scale(0.7)"/>
      <use xlink:href="#DejaVuSerif-2212" transform="translate(149.147405 55.333594) scale(0.7)"/>
      <use xlink:href="#DejaVuSerif-Italic-6d" transform="translate(221.075139 55.333594) scale(0.7)"/>
      <use xlink:href="#DejaVuSerif-Italic-6b" transform="translate(287.452092 44.433281) scale(0.49)"/>
      <use xlink:href="#DejaVuSerif-Italic-6d" transform="translate(111 -24.146406) scale(0.7)"/>
      <use xlink:href="#DejaVuSerif-Italic-6b" transform="translate(177.376953 -35.046719) scale(0.49)"/>
      <path d="M 0 19.433281 
L 0 25.683281 
L 318.960706 25.683281 
L 318.960706 19.433281 
L 0 19.433281 
z
"/>
     </g>
    </g>
   </g>
   <g id="line2d_21">
    <path d="M 68.476012 56.227776 
L 153.988613 86.761935 
L 239.501214 125.199201 
L 325.013815 160.549879 
L 410.526415 196.172872 
" clip-path="url(#p0c65698b7c)" style="fill: none; stroke: #dd8452; stroke-width: 2"/>
   </g>
   <g id="line2d_22">
    <path d="M 68.476012 57.018832 
L 68.476012 55.447631 
" clip-path="url(#p0c65698b7c)" style="fill: none; stroke: #000000; stroke-width: 2"/>
   </g>
   <g id="line2d_23">
    <path d="M 153.988613 88.211508 
L 153.988613 85.348586 
" clip-path="url(#p0c65698b7c)" style="fill: none; stroke: #000000; stroke-width: 2"/>
   </g>
   <g id="line2d_24">
    <path d="M 239.501214 128.254486 
L 239.501214 122.300527 
" clip-path="url(#p0c65698b7c)" style="fill: none; stroke: #000000; stroke-width: 2"/>
   </g>
   <g id="line2d_25">
    <path d="M 325.013815 166.700545 
L 325.013815 155.002928 
" clip-path="url(#p0c65698b7c)" style="fill: none; stroke: #000000; stroke-width: 2"/>
   </g>
   <g id="line2d_26">
    <path d="M 410.526415 201.751366 
L 410.526415 191.095501 
" clip-path="url(#p0c65698b7c)" style="fill: none; stroke: #000000; stroke-width: 2"/>
   </g>
   <g id="PathCollection_7">
    <defs>
     <path id="m3c79c3459e" d="M 0 2 
C 0.530406 2 1.03916 1.789267 1.414214 1.414214 
C 1.789267 1.03916 2 0.530406 2 0 
C 2 -0.530406 1.789267 -1.03916 1.414214 -1.414214 
C 1.03916 -1.789267 0.530406 -2 0 -2 
C -0.530406 -2 -1.03916 -1.789267 -1.414214 -1.414214 
C -1.789267 -1.03916 -2 -0.530406 -2 0 
C -2 0.530406 -1.789267 1.03916 -1.414214 1.414214 
C -1.03916 1.789267 -0.530406 2 0 2 
z
" style="stroke: #000000"/>
    </defs>
    <g clip-path="url(#p0c65698b7c)">
     <use xlink:href="#m3c79c3459e" x="68.476012" y="56.227776" style="fill: #dd8452; stroke: #000000"/>
     <use xlink:href="#m3c79c3459e" x="153.988613" y="86.761935" style="fill: #dd8452; stroke: #000000"/>
     <use xlink:href="#m3c79c3459e" x="239.501214" y="125.199201" style="fill: #dd8452; stroke: #000000"/>
     <use xlink:href="#m3c79c3459e" x="325.013815" y="160.549879" style="fill: #dd8452; stroke: #000000"/>
     <use xlink:href="#m3c79c3459e" x="410.526415" y="196.172872" style="fill: #dd8452; stroke: #000000"/>
    </g>
   </g>
   <g id="PathCollection_8">
    <g clip-path="url(#p0c65698b7c)">
     <use xlink:href="#m647d1af479" x="68.476012" y="57.018832" style="stroke: #000000"/>
     <use xlink:href="#m647d1af479" x="68.476012" y="55.447631" style="stroke: #000000"/>
    </g>
   </g>
   <g id="PathCollection_9">
    <g clip-path="url(#p0c65698b7c)">
     <use xlink:href="#m647d1af479" x="153.988613" y="88.211508" style="stroke: #000000"/>
     <use xlink:href="#m647d1af479" x="153.988613" y="85.348586" style="stroke: #000000"/>
    </g>
   </g>
   <g id="PathCollection_10">
    <g clip-path="url(#p0c65698b7c)">
     <use xlink:href="#m647d1af479" x="239.501214" y="128.254486" style="stroke: #000000"/>
     <use xlink:href="#m647d1af479" x="239.501214" y="122.300527" style="stroke: #000000"/>
    </g>
   </g>
   <g id="PathCollection_11">
    <g clip-path="url(#p0c65698b7c)">
     <use xlink:href="#m647d1af479" x="325.013815" y="166.700545" style="stroke: #000000"/>
     <use xlink:href="#m647d1af479" x="325.013815" y="155.002928" style="stroke: #000000"/>
    </g>
   </g>
   <g id="PathCollection_12">
    <g clip-path="url(#p0c65698b7c)">
     <use xlink:href="#m647d1af479" x="410.526415" y="201.751366" style="stroke: #000000"/>
     <use xlink:href="#m647d1af479" x="410.526415" y="191.095501" style="stroke: #000000"/>
    </g>
   </g>
   <g id="patch_3">
    <path d="M 58.2145 253.905354 
L 58.2145 19.634646 
" style="fill: none; stroke: #000000; stroke-linejoin: miter; stroke-linecap: square"/>
   </g>
   <g id="patch_4">
    <path d="M 420.787928 253.905354 
L 420.787928 19.634646 
" style="fill: none; stroke: #000000; stroke-linejoin: miter; stroke-linecap: square"/>
   </g>
   <g id="patch_5">
    <path d="M 58.2145 253.905354 
L 420.787928 253.905354 
" style="fill: none; stroke: #000000; stroke-linejoin: miter; stroke-linecap: square"/>
   </g>
   <g id="patch_6">
    <path d="M 58.2145 19.634646 
L 420.787928 19.634646 
" style="fill: none; stroke: #000000; stroke-linejoin: miter; stroke-linecap: square"/>
   </g>
   <g id="line2d_27">
    <path d="M 68.476012 36.790665 
L 153.988613 65.509391 
L 239.501214 102.833527 
L 325.013815 137.054471 
L 410.526415 174.093111 
" clip-path="url(#p0c65698b7c)" style="fill: none; stroke: #55a868; stroke-width: 2"/>
   </g>
   <g id="line2d_28">
    <path d="M 68.476012 37.734848 
L 68.476012 35.861984 
" clip-path="url(#p0c65698b7c)" style="fill: none; stroke: #000000; stroke-width: 2"/>
   </g>
   <g id="line2d_29">
    <path d="M 153.988613 67.186562 
L 153.988613 63.880521 
" clip-path="url(#p0c65698b7c)" style="fill: none; stroke: #000000; stroke-width: 2"/>
   </g>
   <g id="line2d_30">
    <path d="M 239.501214 106.334108 
L 239.501214 99.537022 
" clip-path="url(#p0c65698b7c)" style="fill: none; stroke: #000000; stroke-width: 2"/>
   </g>
   <g id="line2d_31">
    <path d="M 325.013815 144.210414 
L 325.013815 130.703021 
" clip-path="url(#p0c65698b7c)" style="fill: none; stroke: #000000; stroke-width: 2"/>
   </g>
   <g id="line2d_32">
    <path d="M 410.526415 180.736719 
L 410.526415 168.148454 
" clip-path="url(#p0c65698b7c)" style="fill: none; stroke: #000000; stroke-width: 2"/>
   </g>
   <g id="text_10">
    <!-- Convergence of $X(\tau)$ OES moments to Bernoulli ensemble -->
    <g transform="translate(63.701214 13.634646) scale(0.12 -0.12)">
     <defs>
      <path id="DejaVuSerif-43" d="M 4513 1234 
Q 4306 581 3820 245 
Q 3334 -91 2591 -91 
Q 2134 -91 1743 65 
Q 1353 222 1050 525 
Q 700 875 529 1320 
Q 359 1766 359 2328 
Q 359 3416 987 4083 
Q 1616 4750 2644 4750 
Q 3025 4750 3456 4650 
Q 3888 4550 4384 4347 
L 4384 3272 
L 4031 3272 
Q 3916 3859 3567 4137 
Q 3219 4416 2591 4416 
Q 1844 4416 1459 3886 
Q 1075 3356 1075 2328 
Q 1075 1303 1459 773 
Q 1844 244 2591 244 
Q 3113 244 3450 492 
Q 3788 741 3938 1234 
L 4513 1234 
z
" transform="scale(0.015625)"/>
      <path id="DejaVuSerif-6f" d="M 1925 219 
Q 2388 219 2623 584 
Q 2859 950 2859 1663 
Q 2859 2375 2623 2739 
Q 2388 3103 1925 3103 
Q 1463 3103 1227 2739 
Q 991 2375 991 1663 
Q 991 950 1228 584 
Q 1466 219 1925 219 
z
M 1925 -91 
Q 1200 -91 759 389 
Q 319 869 319 1663 
Q 319 2456 758 2934 
Q 1197 3413 1925 3413 
Q 2653 3413 3092 2934 
Q 3531 2456 3531 1663 
Q 3531 869 3092 389 
Q 2653 -91 1925 -91 
z
" transform="scale(0.015625)"/>
      <path id="DejaVuSerif-6e" d="M 263 0 
L 263 331 
L 781 331 
L 781 2988 
L 231 2988 
L 231 3322 
L 1356 3322 
L 1356 2731 
Q 1516 3069 1770 3241 
Q 2025 3413 2363 3413 
Q 2913 3413 3172 3097 
Q 3431 2781 3431 2113 
L 3431 331 
L 3944 331 
L 3944 0 
L 2356 0 
L 2356 331 
L 2853 331 
L 2853 1931 
Q 2853 2541 2703 2767 
Q 2553 2994 2175 2994 
Q 1775 2994 1565 2701 
Q 1356 2409 1356 1850 
L 1356 331 
L 1856 331 
L 1856 0 
L 263 0 
z
" transform="scale(0.015625)"/>
      <path id="DejaVuSerif-76" d="M 1581 0 
L 359 2988 
L -19 2988 
L -19 3322 
L 1509 3322 
L 1509 2988 
L 978 2988 
L 1913 703 
L 2847 2988 
L 2350 2988 
L 2350 3322 
L 3597 3322 
L 3597 2988 
L 3225 2988 
L 2003 0 
L 1581 0 
z
" transform="scale(0.015625)"/>
      <path id="DejaVuSerif-65" d="M 3469 1600 
L 991 1600 
L 991 1575 
Q 991 903 1244 561 
Q 1497 219 1991 219 
Q 2369 219 2611 417 
Q 2853 616 2950 1006 
L 3413 1006 
Q 3275 459 2904 184 
Q 2534 -91 1931 -91 
Q 1203 -91 761 389 
Q 319 869 319 1663 
Q 319 2450 753 2931 
Q 1188 3413 1894 3413 
Q 2647 3413 3050 2948 
Q 3453 2484 3469 1600 
z
M 2791 1931 
Q 2772 2513 2545 2808 
Q 2319 3103 1894 3103 
Q 1497 3103 1269 2806 
Q 1041 2509 991 1931 
L 2791 1931 
z
" transform="scale(0.015625)"/>
      <path id="DejaVuSerif-72" d="M 3059 3328 
L 3059 2497 
L 2728 2497 
Q 2713 2744 2591 2866 
Q 2469 2988 2234 2988 
Q 1809 2988 1582 2694 
Q 1356 2400 1356 1850 
L 1356 331 
L 2022 331 
L 2022 0 
L 263 0 
L 263 331 
L 781 331 
L 781 2994 
L 231 2994 
L 231 3322 
L 1356 3322 
L 1356 2731 
Q 1525 3078 1790 3245 
Q 2056 3413 2438 3413 
Q 2578 3413 2733 3391 
Q 2888 3369 3059 3328 
z
" transform="scale(0.015625)"/>
      <path id="DejaVuSerif-67" d="M 3359 2988 
L 3359 72 
Q 3359 -644 2965 -1033 
Q 2572 -1422 1844 -1422 
Q 1516 -1422 1216 -1362 
Q 916 -1303 641 -1184 
L 641 -488 
L 941 -488 
Q 997 -813 1206 -963 
Q 1416 -1113 1806 -1113 
Q 2313 -1113 2548 -827 
Q 2784 -541 2784 72 
L 2784 519 
Q 2616 206 2355 57 
Q 2094 -91 1709 -91 
Q 1097 -91 708 395 
Q 319 881 319 1663 
Q 319 2444 706 2928 
Q 1094 3413 1709 3413 
Q 2094 3413 2355 3264 
Q 2616 3116 2784 2803 
L 2784 3322 
L 3909 3322 
L 3909 2988 
L 3359 2988 
z
M 2784 1825 
Q 2784 2422 2554 2737 
Q 2325 3053 1888 3053 
Q 1444 3053 1217 2703 
Q 991 2353 991 1663 
Q 991 975 1217 622 
Q 1444 269 1888 269 
Q 2325 269 2554 583 
Q 2784 897 2784 1497 
L 2784 1825 
z
" transform="scale(0.015625)"/>
      <path id="DejaVuSerif-63" d="M 3291 997 
Q 3169 466 2822 187 
Q 2475 -91 1925 -91 
Q 1200 -91 759 389 
Q 319 869 319 1663 
Q 319 2459 759 2936 
Q 1200 3413 1925 3413 
Q 2241 3413 2553 3339 
Q 2866 3266 3181 3116 
L 3181 2266 
L 2847 2266 
Q 2781 2703 2561 2903 
Q 2341 3103 1931 3103 
Q 1466 3103 1228 2742 
Q 991 2381 991 1663 
Q 991 944 1227 581 
Q 1463 219 1931 219 
Q 2303 219 2525 412 
Q 2747 606 2828 997 
L 3291 997 
z
" transform="scale(0.015625)"/>
      <path id="DejaVuSerif-20" transform="scale(0.015625)"/>
      <path id="DejaVuSerif-66" d="M 2753 4078 
L 2450 4078 
Q 2447 4313 2317 4434 
Q 2188 4556 1941 4556 
Q 1619 4556 1487 4379 
Q 1356 4203 1356 3750 
L 1356 3322 
L 2284 3322 
L 2284 2988 
L 1356 2988 
L 1356 331 
L 2094 331 
L 2094 0 
L 231 0 
L 231 331 
L 781 331 
L 781 2988 
L 231 2988 
L 231 3322 
L 781 3322 
L 781 3738 
Q 781 4294 1070 4578 
Q 1359 4863 1919 4863 
Q 2128 4863 2337 4825 
Q 2547 4788 2753 4709 
L 2753 4078 
z
" transform="scale(0.015625)"/>
      <path id="DejaVuSerif-Italic-58" d="M 2056 1997 
L 591 331 
L 1194 331 
L 1131 0 
L -413 0 
L -350 331 
L 188 331 
L 1913 2291 
L 947 4331 
L 447 4331 
L 513 4666 
L 2363 4666 
L 2297 4331 
L 1747 4331 
L 2456 2828 
L 3775 4331 
L 3175 4331 
L 3241 4666 
L 4769 4666 
L 4703 4331 
L 4178 4331 
L 2597 2534 
L 3641 331 
L 4141 331 
L 4075 0 
L 2225 0 
L 2288 331 
L 2844 331 
L 2056 1997 
z
" transform="scale(0.015625)"/>
      <path id="DejaVuSerif-28" d="M 2041 -997 
Q 1281 -656 893 83 
Q 506 822 506 1931 
Q 506 3044 893 3783 
Q 1281 4522 2041 4863 
L 2041 4556 
Q 1559 4225 1350 3623 
Q 1141 3022 1141 1931 
Q 1141 844 1350 242 
Q 1559 -359 2041 -691 
L 2041 -997 
z
" transform="scale(0.015625)"/>
      <path id="DejaVuSerif-Italic-3c4" d="M 2328 2988 
L 1922 906 
Q 1838 469 2047 363 
Q 2203 284 2641 519 
L 2569 141 
Q 1859 -225 1491 156 
Q 1247 406 1347 906 
L 1753 2988 
L 850 2988 
L 753 2488 
L 425 2488 
L 588 3322 
L 3625 3322 
L 3559 2988 
L 2328 2988 
z
" transform="scale(0.015625)"/>
      <path id="DejaVuSerif-29" d="M 453 -997 
L 453 -691 
Q 934 -359 1145 242 
Q 1356 844 1356 1931 
Q 1356 3022 1145 3623 
Q 934 4225 453 4556 
L 453 4863 
Q 1216 4522 1603 3783 
Q 1991 3044 1991 1931 
Q 1991 822 1603 83 
Q 1216 -656 453 -997 
z
" transform="scale(0.015625)"/>
      <path id="DejaVuSerif-4f" d="M 2625 244 
Q 3391 244 3781 770 
Q 4172 1297 4172 2328 
Q 4172 3363 3781 3889 
Q 3391 4416 2625 4416 
Q 1856 4416 1465 3889 
Q 1075 3363 1075 2328 
Q 1075 1297 1465 770 
Q 1856 244 2625 244 
z
M 2625 -91 
Q 2150 -91 1751 65 
Q 1353 222 1050 525 
Q 700 875 529 1319 
Q 359 1763 359 2328 
Q 359 2894 529 3339 
Q 700 3784 1050 4134 
Q 1356 4441 1750 4595 
Q 2144 4750 2625 4750 
Q 3641 4750 4266 4084 
Q 4891 3419 4891 2328 
Q 4891 1769 4719 1320 
Q 4547 872 4197 525 
Q 3891 219 3497 64 
Q 3103 -91 2625 -91 
z
" transform="scale(0.015625)"/>
      <path id="DejaVuSerif-45" d="M 353 0 
L 353 331 
L 947 331 
L 947 4331 
L 353 4331 
L 353 4666 
L 4109 4666 
L 4109 3628 
L 3725 3628 
L 3725 4281 
L 1581 4281 
L 1581 2719 
L 3109 2719 
L 3109 3303 
L 3494 3303 
L 3494 1753 
L 3109 1753 
L 3109 2338 
L 1581 2338 
L 1581 384 
L 3775 384 
L 3775 1038 
L 4159 1038 
L 4159 0 
L 353 0 
z
" transform="scale(0.015625)"/>
      <path id="DejaVuSerif-53" d="M 594 225 
L 594 1288 
L 953 1284 
Q 969 753 1261 498 
Q 1553 244 2150 244 
Q 2706 244 2998 464 
Q 3291 684 3291 1106 
Q 3291 1444 3114 1625 
Q 2938 1806 2369 1978 
L 1753 2163 
Q 1084 2366 811 2669 
Q 538 2972 538 3500 
Q 538 4094 959 4422 
Q 1381 4750 2144 4750 
Q 2469 4750 2856 4679 
Q 3244 4609 3681 4475 
L 3681 3481 
L 3328 3481 
Q 3275 3975 2998 4195 
Q 2722 4416 2156 4416 
Q 1663 4416 1405 4214 
Q 1147 4013 1147 3628 
Q 1147 3294 1340 3103 
Q 1534 2913 2163 2725 
L 2741 2553 
Q 3375 2363 3645 2067 
Q 3916 1772 3916 1275 
Q 3916 597 3481 253 
Q 3047 -91 2188 -91 
Q 1803 -91 1404 -12 
Q 1006 66 594 225 
z
" transform="scale(0.015625)"/>
      <path id="DejaVuSerif-6d" d="M 3316 2675 
Q 3481 3041 3739 3227 
Q 3997 3413 4341 3413 
Q 4863 3413 5119 3089 
Q 5375 2766 5375 2113 
L 5375 331 
L 5894 331 
L 5894 0 
L 4300 0 
L 4300 331 
L 4800 331 
L 4800 2047 
Q 4800 2556 4650 2772 
Q 4500 2988 4153 2988 
Q 3769 2988 3567 2697 
Q 3366 2406 3366 1850 
L 3366 331 
L 3866 331 
L 3866 0 
L 2291 0 
L 2291 331 
L 2791 331 
L 2791 2069 
Q 2791 2566 2641 2777 
Q 2491 2988 2144 2988 
Q 1759 2988 1557 2697 
Q 1356 2406 1356 1850 
L 1356 331 
L 1856 331 
L 1856 0 
L 263 0 
L 263 331 
L 781 331 
L 781 2994 
L 231 2994 
L 231 3322 
L 1356 3322 
L 1356 2731 
Q 1516 3063 1762 3238 
Q 2009 3413 2322 3413 
Q 2709 3413 2968 3220 
Q 3228 3028 3316 2675 
z
" transform="scale(0.015625)"/>
      <path id="DejaVuSerif-74" d="M 691 2988 
L 184 2988 
L 184 3322 
L 691 3322 
L 691 4353 
L 1269 4353 
L 1269 3322 
L 2350 3322 
L 2350 2988 
L 1269 2988 
L 1269 878 
Q 1269 456 1350 337 
Q 1431 219 1650 219 
Q 1875 219 1978 351 
Q 2081 484 2088 781 
L 2522 781 
Q 2497 328 2275 118 
Q 2053 -91 1600 -91 
Q 1103 -91 897 129 
Q 691 350 691 878 
L 691 2988 
z
" transform="scale(0.015625)"/>
      <path id="DejaVuSerif-73" d="M 359 184 
L 359 959 
L 691 959 
Q 703 588 923 403 
Q 1144 219 1575 219 
Q 1963 219 2166 364 
Q 2369 509 2369 788 
Q 2369 1006 2220 1140 
Q 2072 1275 1594 1428 
L 1178 1569 
Q 750 1706 558 1912 
Q 366 2119 366 2438 
Q 366 2894 700 3153 
Q 1034 3413 1625 3413 
Q 1888 3413 2178 3344 
Q 2469 3275 2778 3144 
L 2778 2419 
L 2447 2419 
Q 2434 2741 2221 2922 
Q 2009 3103 1644 3103 
Q 1281 3103 1095 2975 
Q 909 2847 909 2591 
Q 909 2381 1050 2254 
Q 1191 2128 1613 1997 
L 2069 1856 
Q 2541 1709 2748 1489 
Q 2956 1269 2956 922 
Q 2956 450 2595 179 
Q 2234 -91 1600 -91 
Q 1278 -91 972 -22 
Q 666 47 359 184 
z
" transform="scale(0.015625)"/>
      <path id="DejaVuSerif-42" d="M 1581 331 
L 2516 331 
Q 3078 331 3337 575 
Q 3597 819 3597 1350 
Q 3597 1878 3339 2120 
Q 3081 2363 2516 2363 
L 1581 2363 
L 1581 331 
z
M 1581 2694 
L 2375 2694 
Q 2888 2694 3123 2891 
Q 3359 3088 3359 3513 
Q 3359 3941 3123 4136 
Q 2888 4331 2375 4331 
L 1581 4331 
L 1581 2694 
z
M 353 0 
L 353 331 
L 947 331 
L 947 4331 
L 353 4331 
L 353 4666 
L 2656 4666 
Q 3363 4666 3720 4377 
Q 4078 4088 4078 3513 
Q 4078 3097 3829 2850 
Q 3581 2603 3103 2547 
Q 3697 2472 4005 2167 
Q 4313 1863 4313 1350 
Q 4313 656 3875 328 
Q 3438 0 2509 0 
L 353 0 
z
" transform="scale(0.015625)"/>
      <path id="DejaVuSerif-75" d="M 2266 3322 
L 3341 3322 
L 3341 331 
L 3884 331 
L 3884 0 
L 2766 0 
L 2766 588 
Q 2606 256 2353 82 
Q 2100 -91 1766 -91 
Q 1213 -91 952 223 
Q 691 538 691 1209 
L 691 2988 
L 172 2988 
L 172 3322 
L 1269 3322 
L 1269 1388 
Q 1269 781 1417 556 
Q 1566 331 1947 331 
Q 2347 331 2556 625 
Q 2766 919 2766 1478 
L 2766 2988 
L 2266 2988 
L 2266 3322 
z
" transform="scale(0.015625)"/>
      <path id="DejaVuSerif-6c" d="M 1313 331 
L 1856 331 
L 1856 0 
L 184 0 
L 184 331 
L 738 331 
L 738 4531 
L 184 4531 
L 184 4863 
L 1313 4863 
L 1313 331 
z
" transform="scale(0.015625)"/>
      <path id="DejaVuSerif-69" d="M 622 4353 
Q 622 4497 726 4603 
Q 831 4709 978 4709 
Q 1122 4709 1226 4603 
Q 1331 4497 1331 4353 
Q 1331 4206 1228 4103 
Q 1125 4000 978 4000 
Q 831 4000 726 4103 
Q 622 4206 622 4353 
z
M 1356 331 
L 1900 331 
L 1900 0 
L 231 0 
L 231 331 
L 781 331 
L 781 2988 
L 231 2988 
L 231 3322 
L 1356 3322 
L 1356 331 
z
" transform="scale(0.015625)"/>
      <path id="DejaVuSerif-62" d="M 738 331 
L 738 4531 
L 184 4531 
L 184 4863 
L 1313 4863 
L 1313 2803 
Q 1481 3116 1742 3264 
Q 2003 3413 2388 3413 
Q 3000 3413 3387 2928 
Q 3775 2444 3775 1663 
Q 3775 881 3387 395 
Q 3000 -91 2388 -91 
Q 2003 -91 1742 57 
Q 1481 206 1313 519 
L 1313 0 
L 184 0 
L 184 331 
L 738 331 
z
M 1313 1497 
Q 1313 897 1542 583 
Q 1772 269 2209 269 
Q 2650 269 2876 622 
Q 3103 975 3103 1663 
Q 3103 2353 2876 2703 
Q 2650 3053 2209 3053 
Q 1772 3053 1542 2737 
Q 1313 2422 1313 1825 
L 1313 1497 
z
" transform="scale(0.015625)"/>
     </defs>
     <use xlink:href="#DejaVuSerif-43" transform="translate(0 0.015625)"/>
     <use xlink:href="#DejaVuSerif-6f" transform="translate(76.513672 0.015625)"/>
     <use xlink:href="#DejaVuSerif-6e" transform="translate(136.71875 0.015625)"/>
     <use xlink:href="#DejaVuSerif-76" transform="translate(201.123047 0.015625)"/>
     <use xlink:href="#DejaVuSerif-65" transform="translate(257.617188 0.015625)"/>
     <use xlink:href="#DejaVuSerif-72" transform="translate(316.796875 0.015625)"/>
     <use xlink:href="#DejaVuSerif-67" transform="translate(364.599609 0.015625)"/>
     <use xlink:href="#DejaVuSerif-65" transform="translate(428.613281 0.015625)"/>
     <use xlink:href="#DejaVuSerif-6e" transform="translate(487.792969 0.015625)"/>
     <use xlink:href="#DejaVuSerif-63" transform="translate(552.197266 0.015625)"/>
     <use xlink:href="#DejaVuSerif-65" transform="translate(608.203125 0.015625)"/>
     <use xlink:href="#DejaVuSerif-20" transform="translate(667.382812 0.015625)"/>
     <use xlink:href="#DejaVuSerif-6f" transform="translate(699.169922 0.015625)"/>
     <use xlink:href="#DejaVuSerif-66" transform="translate(759.375 0.015625)"/>
     <use xlink:href="#DejaVuSerif-20" transform="translate(796.386719 0.015625)"/>
     <use xlink:href="#DejaVuSerif-Italic-58" transform="translate(828.173828 0.015625)"/>
     <use xlink:href="#DejaVuSerif-28" transform="translate(899.365234 0.015625)"/>
     <use xlink:href="#DejaVuSerif-Italic-3c4" transform="translate(938.378906 0.015625)"/>
     <use xlink:href="#DejaVuSerif-29" transform="translate(993.701172 0.015625)"/>
     <use xlink:href="#DejaVuSerif-20" transform="translate(1032.714844 0.015625)"/>
     <use xlink:href="#DejaVuSerif-4f" transform="translate(1064.501953 0.015625)"/>
     <use xlink:href="#DejaVuSerif-45" transform="translate(1146.484375 0.015625)"/>
     <use xlink:href="#DejaVuSerif-53" transform="translate(1219.482422 0.015625)"/>
     <use xlink:href="#DejaVuSerif-20" transform="translate(1287.988281 0.015625)"/>
     <use xlink:href="#DejaVuSerif-6d" transform="translate(1319.775391 0.015625)"/>
     <use xlink:href="#DejaVuSerif-6f" transform="translate(1414.599609 0.015625)"/>
     <use xlink:href="#DejaVuSerif-6d" transform="translate(1474.804688 0.015625)"/>
     <use xlink:href="#DejaVuSerif-65" transform="translate(1569.628906 0.015625)"/>
     <use xlink:href="#DejaVuSerif-6e" transform="translate(1628.808594 0.015625)"/>
     <use xlink:href="#DejaVuSerif-74" transform="translate(1693.212891 0.015625)"/>
     <use xlink:href="#DejaVuSerif-73" transform="translate(1733.398438 0.015625)"/>
     <use xlink:href="#DejaVuSerif-20" transform="translate(1784.716797 0.015625)"/>
     <use xlink:href="#DejaVuSerif-74" transform="translate(1816.503906 0.015625)"/>
     <use xlink:href="#DejaVuSerif-6f" transform="translate(1856.689453 0.015625)"/>
     <use xlink:href="#DejaVuSerif-20" transform="translate(1916.894531 0.015625)"/>
     <use xlink:href="#DejaVuSerif-42" transform="translate(1948.681641 0.015625)"/>
     <use xlink:href="#DejaVuSerif-65" transform="translate(2022.167969 0.015625)"/>
     <use xlink:href="#DejaVuSerif-72" transform="translate(2081.347656 0.015625)"/>
     <use xlink:href="#DejaVuSerif-6e" transform="translate(2129.150391 0.015625)"/>
     <use xlink:href="#DejaVuSerif-6f" transform="translate(2193.554688 0.015625)"/>
     <use xlink:href="#DejaVuSerif-75" transform="translate(2253.759766 0.015625)"/>
     <use xlink:href="#DejaVuSerif-6c" transform="translate(2318.164062 0.015625)"/>
     <use xlink:href="#DejaVuSerif-6c" transform="translate(2350.146484 0.015625)"/>
     <use xlink:href="#DejaVuSerif-69" transform="translate(2382.128906 0.015625)"/>
     <use xlink:href="#DejaVuSerif-20" transform="translate(2414.111328 0.015625)"/>
     <use xlink:href="#DejaVuSerif-65" transform="translate(2445.898438 0.015625)"/>
     <use xlink:href="#DejaVuSerif-6e" transform="translate(2505.078125 0.015625)"/>
     <use xlink:href="#DejaVuSerif-73" transform="translate(2569.482422 0.015625)"/>
     <use xlink:href="#DejaVuSerif-65" transform="translate(2620.800781 0.015625)"/>
     <use xlink:href="#DejaVuSerif-6d" transform="translate(2679.980469 0.015625)"/>
     <use xlink:href="#DejaVuSerif-62" transform="translate(2774.804688 0.015625)"/>
     <use xlink:href="#DejaVuSerif-6c" transform="translate(2838.818359 0.015625)"/>
     <use xlink:href="#DejaVuSerif-65" transform="translate(2870.800781 0.015625)"/>
    </g>
   </g>
   <g id="PathCollection_13">
    <defs>
     <path id="mb36a0cdb9a" d="M 0 2 
C 0.530406 2 1.03916 1.789267 1.414214 1.414214 
C 1.789267 1.03916 2 0.530406 2 0 
C 2 -0.530406 1.789267 -1.03916 1.414214 -1.414214 
C 1.03916 -1.789267 0.530406 -2 0 -2 
C -0.530406 -2 -1.03916 -1.789267 -1.414214 -1.414214 
C -1.789267 -1.03916 -2 -0.530406 -2 0 
C -2 0.530406 -1.789267 1.03916 -1.414214 1.414214 
C -1.03916 1.789267 -0.530406 2 0 2 
z
" style="stroke: #000000"/>
    </defs>
    <g clip-path="url(#p0c65698b7c)">
     <use xlink:href="#mb36a0cdb9a" x="68.476012" y="36.790665" style="fill: #55a868; stroke: #000000"/>
     <use xlink:href="#mb36a0cdb9a" x="153.988613" y="65.509391" style="fill: #55a868; stroke: #000000"/>
     <use xlink:href="#mb36a0cdb9a" x="239.501214" y="102.833527" style="fill: #55a868; stroke: #000000"/>
     <use xlink:href="#mb36a0cdb9a" x="325.013815" y="137.054471" style="fill: #55a868; stroke: #000000"/>
     <use xlink:href="#mb36a0cdb9a" x="410.526415" y="174.093111" style="fill: #55a868; stroke: #000000"/>
    </g>
   </g>
   <g id="PathCollection_14">
    <g clip-path="url(#p0c65698b7c)">
     <use xlink:href="#m647d1af479" x="68.476012" y="37.734848" style="stroke: #000000"/>
     <use xlink:href="#m647d1af479" x="68.476012" y="35.861984" style="stroke: #000000"/>
    </g>
   </g>
   <g id="PathCollection_15">
    <g clip-path="url(#p0c65698b7c)">
     <use xlink:href="#m647d1af479" x="153.988613" y="67.186562" style="stroke: #000000"/>
     <use xlink:href="#m647d1af479" x="153.988613" y="63.880521" style="stroke: #000000"/>
    </g>
   </g>
   <g id="PathCollection_16">
    <g clip-path="url(#p0c65698b7c)">
     <use xlink:href="#m647d1af479" x="239.501214" y="106.334108" style="stroke: #000000"/>
     <use xlink:href="#m647d1af479" x="239.501214" y="99.537022" style="stroke: #000000"/>
    </g>
   </g>
   <g id="PathCollection_17">
    <g clip-path="url(#p0c65698b7c)">
     <use xlink:href="#m647d1af479" x="325.013815" y="144.210414" style="stroke: #000000"/>
     <use xlink:href="#m647d1af479" x="325.013815" y="130.703021" style="stroke: #000000"/>
    </g>
   </g>
   <g id="PathCollection_18">
    <g clip-path="url(#p0c65698b7c)">
     <use xlink:href="#m647d1af479" x="410.526415" y="180.736719" style="stroke: #000000"/>
     <use xlink:href="#m647d1af479" x="410.526415" y="168.148454" style="stroke: #000000"/>
    </g>
   </g>
   <g id="line2d_33">
    <path d="M 68.476012 27.473683 
L 153.988613 54.559893 
L 239.501214 91.066394 
L 325.013815 124.649687 
L 410.526415 163.650864 
" clip-path="url(#p0c65698b7c)" style="fill: none; stroke: #c44e52; stroke-width: 2"/>
   </g>
   <g id="line2d_34">
    <path d="M 68.476012 28.708812 
L 68.476012 26.264949 
" clip-path="url(#p0c65698b7c)" style="fill: none; stroke: #000000; stroke-width: 2"/>
   </g>
   <g id="line2d_35">
    <path d="M 153.988613 56.674635 
L 153.988613 52.521375 
" clip-path="url(#p0c65698b7c)" style="fill: none; stroke: #000000; stroke-width: 2"/>
   </g>
   <g id="line2d_36">
    <path d="M 239.501214 95.453858 
L 239.501214 86.994894 
" clip-path="url(#p0c65698b7c)" style="fill: none; stroke: #000000; stroke-width: 2"/>
   </g>
   <g id="line2d_37">
    <path d="M 325.013815 133.707732 
L 325.013815 116.843963 
" clip-path="url(#p0c65698b7c)" style="fill: none; stroke: #000000; stroke-width: 2"/>
   </g>
   <g id="line2d_38">
    <path d="M 410.526415 172.499034 
L 410.526415 156.001414 
" clip-path="url(#p0c65698b7c)" style="fill: none; stroke: #000000; stroke-width: 2"/>
   </g>
   <g id="PathCollection_19">
    <defs>
     <path id="mdcbd28ea42" d="M 0 2 
C 0.530406 2 1.03916 1.789267 1.414214 1.414214 
C 1.789267 1.03916 2 0.530406 2 0 
C 2 -0.530406 1.789267 -1.03916 1.414214 -1.414214 
C 1.03916 -1.789267 0.530406 -2 0 -2 
C -0.530406 -2 -1.03916 -1.789267 -1.414214 -1.414214 
C -1.789267 -1.03916 -2 -0.530406 -2 0 
C -2 0.530406 -1.789267 1.03916 -1.414214 1.414214 
C -1.03916 1.789267 -0.530406 2 0 2 
z
" style="stroke: #000000"/>
    </defs>
    <g clip-path="url(#p0c65698b7c)">
     <use xlink:href="#mdcbd28ea42" x="68.476012" y="27.473683" style="fill: #c44e52; stroke: #000000"/>
     <use xlink:href="#mdcbd28ea42" x="153.988613" y="54.559893" style="fill: #c44e52; stroke: #000000"/>
     <use xlink:href="#mdcbd28ea42" x="239.501214" y="91.066394" style="fill: #c44e52; stroke: #000000"/>
     <use xlink:href="#mdcbd28ea42" x="325.013815" y="124.649687" style="fill: #c44e52; stroke: #000000"/>
     <use xlink:href="#mdcbd28ea42" x="410.526415" y="163.650864" style="fill: #c44e52; stroke: #000000"/>
    </g>
   </g>
   <g id="PathCollection_20">
    <g clip-path="url(#p0c65698b7c)">
     <use xlink:href="#m647d1af479" x="68.476012" y="28.708812" style="stroke: #000000"/>
     <use xlink:href="#m647d1af479" x="68.476012" y="26.264949" style="stroke: #000000"/>
    </g>
   </g>
   <g id="PathCollection_21">
    <g clip-path="url(#p0c65698b7c)">
     <use xlink:href="#m647d1af479" x="153.988613" y="56.674635" style="stroke: #000000"/>
     <use xlink:href="#m647d1af479" x="153.988613" y="52.521375" style="stroke: #000000"/>
    </g>
   </g>
   <g id="PathCollection_22">
    <g clip-path="url(#p0c65698b7c)">
     <use xlink:href="#m647d1af479" x="239.501214" y="95.453858" style="stroke: #000000"/>
     <use xlink:href="#m647d1af479" x="239.501214" y="86.994894" style="stroke: #000000"/>
    </g>
   </g>
   <g id="PathCollection_23">
    <g clip-path="url(#p0c65698b7c)">
     <use xlink:href="#m647d1af479" x="325.013815" y="133.707732" style="stroke: #000000"/>
     <use xlink:href="#m647d1af479" x="325.013815" y="116.843963" style="stroke: #000000"/>
    </g>
   </g>
   <g id="PathCollection_24">
    <g clip-path="url(#p0c65698b7c)">
     <use xlink:href="#m647d1af479" x="410.526415" y="172.499034" style="stroke: #000000"/>
     <use xlink:href="#m647d1af479" x="410.526415" y="156.001414" style="stroke: #000000"/>
    </g>
   </g>
   <g id="legend_1">
    <g id="patch_7">
     <path d="M 344.630115 94.347146 
L 415.787928 94.347146 
L 415.787928 24.634646 
L 344.630115 24.634646 
z
" style="fill: #ffffff; stroke: #000000; stroke-linejoin: miter"/>
    </g>
    <g id="line2d_39">
     <path d="M 352.630115 36.733083 
L 362.630115 36.733083 
L 372.630115 36.733083 
" style="fill: none; stroke: #4c72b0; stroke-width: 1.25; stroke-linejoin: miter"/>
     <defs>
      <path id="mb4243f675b" d="M 0 4 
C 1.060812 4 2.078319 3.578535 2.828427 2.828427 
C 3.578535 2.078319 4 1.060812 4 0 
C 4 -1.060812 3.578535 -2.078319 2.828427 -2.828427 
C 2.078319 -3.578535 1.060812 -4 0 -4 
C -1.060812 -4 -2.078319 -3.578535 -2.828427 -2.828427 
C -3.578535 -2.078319 -4 -1.060812 -4 0 
C -4 1.060812 -3.578535 2.078319 -2.828427 2.828427 
C -2.078319 3.578535 -1.060812 4 0 4 
z
" style="stroke: #000000; stroke-width: 2"/>
     </defs>
     <g>
      <use xlink:href="#mb4243f675b" x="362.630115" y="36.733083" style="fill: #4c72b0; stroke: #000000; stroke-width: 2"/>
     </g>
    </g>
    <g id="text_11">
     <!-- k = 2 -->
     <g transform="translate(380.630115 40.233083) scale(0.1 -0.1)">
      <defs>
       <path id="DejaVuSerif-6b" d="M 1831 0 
L 219 0 
L 219 331 
L 738 331 
L 738 4531 
L 184 4531 
L 184 4863 
L 1313 4863 
L 1313 1697 
L 2713 2988 
L 2234 2988 
L 2234 3322 
L 3738 3322 
L 3738 2988 
L 3169 2988 
L 2181 2075 
L 3444 331 
L 3922 331 
L 3922 0 
L 2284 0 
L 2284 331 
L 2759 331 
L 1766 1697 
L 1313 1275 
L 1313 331 
L 1831 331 
L 1831 0 
z
" transform="scale(0.015625)"/>
       <path id="DejaVuSerif-3d" d="M 678 2894 
L 4684 2894 
L 4684 2394 
L 678 2394 
L 678 2894 
z
M 678 1619 
L 4684 1619 
L 4684 1119 
L 678 1119 
L 678 1619 
z
" transform="scale(0.015625)"/>
      </defs>
      <use xlink:href="#DejaVuSerif-6b"/>
      <use xlink:href="#DejaVuSerif-20" x="60.595703"/>
      <use xlink:href="#DejaVuSerif-3d" x="92.382812"/>
      <use xlink:href="#DejaVuSerif-20" x="176.171875"/>
      <use xlink:href="#DejaVuSerif-32" x="207.958984"/>
     </g>
    </g>
    <g id="line2d_40">
     <path d="M 352.630115 51.411208 
L 362.630115 51.411208 
L 372.630115 51.411208 
" style="fill: none; stroke: #dd8452; stroke-width: 1.25; stroke-linejoin: miter"/>
     <defs>
      <path id="mfb2effa9b3" d="M 0 4 
C 1.060812 4 2.078319 3.578535 2.828427 2.828427 
C 3.578535 2.078319 4 1.060812 4 0 
C 4 -1.060812 3.578535 -2.078319 2.828427 -2.828427 
C 2.078319 -3.578535 1.060812 -4 0 -4 
C -1.060812 -4 -2.078319 -3.578535 -2.828427 -2.828427 
C -3.578535 -2.078319 -4 -1.060812 -4 0 
C -4 1.060812 -3.578535 2.078319 -2.828427 2.828427 
C -2.078319 3.578535 -1.060812 4 0 4 
z
" style="stroke: #000000; stroke-width: 2"/>
     </defs>
     <g>
      <use xlink:href="#mfb2effa9b3" x="362.630115" y="51.411208" style="fill: #dd8452; stroke: #000000; stroke-width: 2"/>
     </g>
    </g>
    <g id="text_12">
     <!-- k = 3 -->
     <g transform="translate(380.630115 54.911208) scale(0.1 -0.1)">
      <defs>
       <path id="DejaVuSerif-33" d="M 622 4469 
Q 988 4606 1323 4678 
Q 1659 4750 1953 4750 
Q 2638 4750 3022 4454 
Q 3406 4159 3406 3634 
Q 3406 3213 3140 2930 
Q 2875 2647 2388 2547 
Q 2963 2466 3280 2130 
Q 3597 1794 3597 1259 
Q 3597 606 3158 257 
Q 2719 -91 1894 -91 
Q 1528 -91 1179 -12 
Q 831 66 488 225 
L 488 1131 
L 838 1131 
Q 869 681 1141 450 
Q 1413 219 1906 219 
Q 2384 219 2661 495 
Q 2938 772 2938 1253 
Q 2938 1803 2653 2086 
Q 2369 2369 1819 2369 
L 1522 2369 
L 1522 2688 
L 1678 2688 
Q 2225 2688 2498 2914 
Q 2772 3141 2772 3597 
Q 2772 4006 2547 4223 
Q 2322 4441 1900 4441 
Q 1478 4441 1245 4241 
Q 1013 4041 972 3647 
L 622 3647 
L 622 4469 
z
" transform="scale(0.015625)"/>
      </defs>
      <use xlink:href="#DejaVuSerif-6b"/>
      <use xlink:href="#DejaVuSerif-20" x="60.595703"/>
      <use xlink:href="#DejaVuSerif-3d" x="92.382812"/>
      <use xlink:href="#DejaVuSerif-20" x="176.171875"/>
      <use xlink:href="#DejaVuSerif-33" x="207.958984"/>
     </g>
    </g>
    <g id="line2d_41">
     <path d="M 352.630115 66.089333 
L 362.630115 66.089333 
L 372.630115 66.089333 
" style="fill: none; stroke: #55a868; stroke-width: 1.25; stroke-linejoin: miter"/>
     <defs>
      <path id="m338c78317f" d="M 0 4 
C 1.060812 4 2.078319 3.578535 2.828427 2.828427 
C 3.578535 2.078319 4 1.060812 4 0 
C 4 -1.060812 3.578535 -2.078319 2.828427 -2.828427 
C 2.078319 -3.578535 1.060812 -4 0 -4 
C -1.060812 -4 -2.078319 -3.578535 -2.828427 -2.828427 
C -3.578535 -2.078319 -4 -1.060812 -4 0 
C -4 1.060812 -3.578535 2.078319 -2.828427 2.828427 
C -2.078319 3.578535 -1.060812 4 0 4 
z
" style="stroke: #000000; stroke-width: 2"/>
     </defs>
     <g>
      <use xlink:href="#m338c78317f" x="362.630115" y="66.089333" style="fill: #55a868; stroke: #000000; stroke-width: 2"/>
     </g>
    </g>
    <g id="text_13">
     <!-- k = 4 -->
     <g transform="translate(380.630115 69.589333) scale(0.1 -0.1)">
      <use xlink:href="#DejaVuSerif-6b"/>
      <use xlink:href="#DejaVuSerif-20" x="60.595703"/>
      <use xlink:href="#DejaVuSerif-3d" x="92.382812"/>
      <use xlink:href="#DejaVuSerif-20" x="176.171875"/>
      <use xlink:href="#DejaVuSerif-34" x="207.958984"/>
     </g>
    </g>
    <g id="line2d_42">
     <path d="M 352.630115 80.767458 
L 362.630115 80.767458 
L 372.630115 80.767458 
" style="fill: none; stroke: #c44e52; stroke-width: 1.25; stroke-linejoin: miter"/>
     <defs>
      <path id="mc6d46f6c98" d="M 0 4 
C 1.060812 4 2.078319 3.578535 2.828427 2.828427 
C 3.578535 2.078319 4 1.060812 4 0 
C 4 -1.060812 3.578535 -2.078319 2.828427 -2.828427 
C 2.078319 -3.578535 1.060812 -4 0 -4 
C -1.060812 -4 -2.078319 -3.578535 -2.828427 -2.828427 
C -3.578535 -2.078319 -4 -1.060812 -4 0 
C -4 1.060812 -3.578535 2.078319 -2.828427 2.828427 
C -2.078319 3.578535 -1.060812 4 0 4 
z
" style="stroke: #000000; stroke-width: 2"/>
     </defs>
     <g>
      <use xlink:href="#mc6d46f6c98" x="362.630115" y="80.767458" style="fill: #c44e52; stroke: #000000; stroke-width: 2"/>
     </g>
    </g>
    <g id="text_14">
     <!-- k = 5 -->
     <g transform="translate(380.630115 84.267458) scale(0.1 -0.1)">
      <defs>
       <path id="DejaVuSerif-35" d="M 3219 4666 
L 3219 4153 
L 1081 4153 
L 1081 2816 
Q 1244 2928 1461 2984 
Q 1678 3041 1947 3041 
Q 2703 3041 3140 2622 
Q 3578 2203 3578 1478 
Q 3578 738 3136 323 
Q 2694 -91 1894 -91 
Q 1572 -91 1234 -12 
Q 897 66 544 225 
L 544 1131 
L 897 1131 
Q 925 688 1179 453 
Q 1434 219 1894 219 
Q 2388 219 2653 544 
Q 2919 869 2919 1478 
Q 2919 2084 2655 2407 
Q 2391 2731 1894 2731 
Q 1613 2731 1398 2631 
Q 1184 2531 1019 2322 
L 750 2322 
L 750 4666 
L 3219 4666 
z
" transform="scale(0.015625)"/>
      </defs>
      <use xlink:href="#DejaVuSerif-6b"/>
      <use xlink:href="#DejaVuSerif-20" x="60.595703"/>
      <use xlink:href="#DejaVuSerif-3d" x="92.382812"/>
      <use xlink:href="#DejaVuSerif-20" x="176.171875"/>
      <use xlink:href="#DejaVuSerif-35" x="207.958984"/>
     </g>
    </g>
   </g>
  </g>
 </g>
 <defs>
  <clipPath id="p0c65698b7c">
   <rect x="58.2145" y="19.634646" width="362.573428" height="234.270709"/>
  </clipPath>
 </defs>
</svg>
