<?xml version="1.0" encoding="utf-8" standalone="no"?>
<!DOCTYPE svg PUBLIC "-//W3C//DTD SVG 1.1//EN"
  "http://www.w3.org/Graphics/SVG/1.1/DTD/svg11.dtd">
<svg xmlns:xlink="http://www.w3.org/1999/xlink" width="432pt" height="288pt" viewBox="0 0 432 288" xmlns="http://www.w3.org/2000/svg" version="1.1">
 <metadata>
  <rdf:RDF xmlns:dc="http://purl.org/dc/elements/1.1/" xmlns:cc="http://creativecommons.org/ns#" xmlns:rdf="http://www.w3.org/1999/02/22-rdf-syntax-ns#">
   <cc:Work>
    <dc:type rdf:resource="http://purl.org/dc/dcmitype/StillImage"/>
    <dc:date>2024-07-23T13:36:37.399141</dc:date>
    <dc:format>image/svg+xml</dc:format>
    <dc:creator>
     <cc:Agent>
      <dc:title>Matplotlib v3.9.1, https://matplotlib.org/</dc:title>
     </cc:Agent>
    </dc:creator>
   </cc:Work>
  </rdf:RDF>
 </metadata>
 <defs>
  <style type="text/css">*{stroke-linejoin: round; stroke-linecap: butt}</style>
 </defs>
 <g id="figure_1">
  <g id="patch_1">
   <path d="M 0 288 
L 432 288 
L 432 0 
L 0 0 
z
" style="fill: #ffffff"/>
  </g>
  <g id="axes_1">
   <g id="patch_2">
    <path d="M 41.160173 251.745354 
L 429.165354 251.745354 
L 429.165354 19.634646 
L 41.160173 19.634646 
z
" style="fill: #ffffff"/>
   </g>
   <g id="line2d_1">
    <path d="M 66.934647 42.66292 
L 139.766626 55.27209 
L 173.631568 62.948233 
L 195.937835 68.157824 
L 212.598605 72.634977 
L 225.901973 75.788137 
L 236.976744 78.786686 
L 246.463547 80.790616 
L 254.761178 82.937109 
L 262.134828 84.761356 
L 268.769813 86.278028 
L 274.800744 88.380895 
L 280.328488 90.220868 
L 285.430584 91.429634 
L 290.167922 93.058378 
L 294.589195 93.717144 
L 298.733952 95.497307 
L 302.634755 96.62729 
L 306.318732 97.253574 
L 309.808723 98.313822 
L 313.12414 99.886669 
L 316.281619 99.937138 
L 319.295525 101.354608 
L 322.17835 103.034266 
L 324.941022 102.983125 
L 327.593156 103.729998 
L 330.14326 105.052296 
L 332.598894 105.790236 
L 334.966807 106.74564 
L 337.253052 107.071855 
L 339.463074 108.131405 
L 341.601792 108.818525 
L 343.673665 108.806861 
L 345.682743 110.695693 
L 347.632723 110.541383 
L 349.526981 110.981982 
L 351.368614 111.541148 
L 353.160467 112.441273 
L 354.90516 113.327789 
L 356.605113 113.268337 
L 358.262563 113.718951 
L 359.879582 114.734638 
L 361.458098 115.42188 
L 362.999901 116.752206 
L 364.506659 117.689101 
L 365.979932 117.22391 
L 367.421174 117.973934 
L 368.831749 118.031431 
L 370.212934 118.936178 
L 371.565931 119.823894 
L 372.891866 119.46783 
L 374.1918 121.206602 
L 375.466734 121.275094 
L 376.717611 122.334116 
L 377.945323 122.504439 
L 379.150711 124.112302 
L 380.334573 125.267478 
L 381.497665 126.109387 
L 382.640702 127.273949 
L 383.764365 128.381932 
L 384.869299 130.290555 
L 385.956119 131.641834 
L 387.025409 134.729412 
L 388.077725 134.824306 
L 389.113598 136.991911 
L 390.133534 137.589752 
L 391.138015 138.728838 
L 392.127504 143.154029 
L 393.102441 146.231687 
L 394.063248 147.986526 
L 395.010329 151.033761 
L 395.94407 153.213254 
L 396.864842 156.130068 
L 397.773001 157.536134 
L 398.668886 158.708744 
L 399.552826 161.303591 
L 400.425135 162.96802 
L 401.286115 165.784223 
L 402.136057 169.413192 
L 402.975239 173.160763 
L 403.803931 174.736549 
L 404.622393 177.865188 
L 405.430873 180.475749 
L 406.229611 181.045157 
L 407.018841 182.239398 
L 407.798786 185.613131 
L 408.569661 192.749546 
L 409.331675 197.713584 
L 410.08503 206.697568 
L 410.829921 212.020924 
L 411.566534 212.020924 
L 412.295053 212.020924 
L 413.015652 202.568452 
L 413.728504 245.176183 
L 414.433771 224.847129 
L 415.131615 215.394657 
L 415.822189 209.168473 
L 416.505644 224.847129 
L 417.182124 215.394657 
L 417.851772 245.176183 
" clip-path="url(#pf410749fdc)" style="fill: none; stroke: #ff0000"/>
   </g>
   <g id="PathCollection_1">
    <defs>
     <path id="m27b3a9cb19" d="M -2 2 
L 2 -2 
M -2 -2 
L 2 2 
" style="stroke: #ff0000"/>
    </defs>
    <g clip-path="url(#pf410749fdc)">
     <use xlink:href="#m27b3a9cb19" x="66.934647" y="42.66292" style="fill: #ff0000; stroke: #ff0000"/>
     <use xlink:href="#m27b3a9cb19" x="139.766626" y="55.27209" style="fill: #ff0000; stroke: #ff0000"/>
     <use xlink:href="#m27b3a9cb19" x="173.631568" y="62.948233" style="fill: #ff0000; stroke: #ff0000"/>
     <use xlink:href="#m27b3a9cb19" x="195.937835" y="68.157824" style="fill: #ff0000; stroke: #ff0000"/>
     <use xlink:href="#m27b3a9cb19" x="212.598605" y="72.634977" style="fill: #ff0000; stroke: #ff0000"/>
     <use xlink:href="#m27b3a9cb19" x="225.901973" y="75.788137" style="fill: #ff0000; stroke: #ff0000"/>
     <use xlink:href="#m27b3a9cb19" x="236.976744" y="78.786686" style="fill: #ff0000; stroke: #ff0000"/>
     <use xlink:href="#m27b3a9cb19" x="246.463547" y="80.790616" style="fill: #ff0000; stroke: #ff0000"/>
     <use xlink:href="#m27b3a9cb19" x="254.761178" y="82.937109" style="fill: #ff0000; stroke: #ff0000"/>
     <use xlink:href="#m27b3a9cb19" x="262.134828" y="84.761356" style="fill: #ff0000; stroke: #ff0000"/>
     <use xlink:href="#m27b3a9cb19" x="268.769813" y="86.278028" style="fill: #ff0000; stroke: #ff0000"/>
     <use xlink:href="#m27b3a9cb19" x="274.800744" y="88.380895" style="fill: #ff0000; stroke: #ff0000"/>
     <use xlink:href="#m27b3a9cb19" x="280.328488" y="90.220868" style="fill: #ff0000; stroke: #ff0000"/>
     <use xlink:href="#m27b3a9cb19" x="285.430584" y="91.429634" style="fill: #ff0000; stroke: #ff0000"/>
     <use xlink:href="#m27b3a9cb19" x="290.167922" y="93.058378" style="fill: #ff0000; stroke: #ff0000"/>
     <use xlink:href="#m27b3a9cb19" x="294.589195" y="93.717144" style="fill: #ff0000; stroke: #ff0000"/>
     <use xlink:href="#m27b3a9cb19" x="298.733952" y="95.497307" style="fill: #ff0000; stroke: #ff0000"/>
     <use xlink:href="#m27b3a9cb19" x="302.634755" y="96.62729" style="fill: #ff0000; stroke: #ff0000"/>
     <use xlink:href="#m27b3a9cb19" x="306.318732" y="97.253574" style="fill: #ff0000; stroke: #ff0000"/>
     <use xlink:href="#m27b3a9cb19" x="309.808723" y="98.313822" style="fill: #ff0000; stroke: #ff0000"/>
     <use xlink:href="#m27b3a9cb19" x="313.12414" y="99.886669" style="fill: #ff0000; stroke: #ff0000"/>
     <use xlink:href="#m27b3a9cb19" x="316.281619" y="99.937138" style="fill: #ff0000; stroke: #ff0000"/>
     <use xlink:href="#m27b3a9cb19" x="319.295525" y="101.354608" style="fill: #ff0000; stroke: #ff0000"/>
     <use xlink:href="#m27b3a9cb19" x="322.17835" y="103.034266" style="fill: #ff0000; stroke: #ff0000"/>
     <use xlink:href="#m27b3a9cb19" x="324.941022" y="102.983125" style="fill: #ff0000; stroke: #ff0000"/>
     <use xlink:href="#m27b3a9cb19" x="327.593156" y="103.729998" style="fill: #ff0000; stroke: #ff0000"/>
     <use xlink:href="#m27b3a9cb19" x="330.14326" y="105.052296" style="fill: #ff0000; stroke: #ff0000"/>
     <use xlink:href="#m27b3a9cb19" x="332.598894" y="105.790236" style="fill: #ff0000; stroke: #ff0000"/>
     <use xlink:href="#m27b3a9cb19" x="334.966807" y="106.74564" style="fill: #ff0000; stroke: #ff0000"/>
     <use xlink:href="#m27b3a9cb19" x="337.253052" y="107.071855" style="fill: #ff0000; stroke: #ff0000"/>
     <use xlink:href="#m27b3a9cb19" x="339.463074" y="108.131405" style="fill: #ff0000; stroke: #ff0000"/>
     <use xlink:href="#m27b3a9cb19" x="341.601792" y="108.818525" style="fill: #ff0000; stroke: #ff0000"/>
     <use xlink:href="#m27b3a9cb19" x="343.673665" y="108.806861" style="fill: #ff0000; stroke: #ff0000"/>
     <use xlink:href="#m27b3a9cb19" x="345.682743" y="110.695693" style="fill: #ff0000; stroke: #ff0000"/>
     <use xlink:href="#m27b3a9cb19" x="347.632723" y="110.541383" style="fill: #ff0000; stroke: #ff0000"/>
     <use xlink:href="#m27b3a9cb19" x="349.526981" y="110.981982" style="fill: #ff0000; stroke: #ff0000"/>
     <use xlink:href="#m27b3a9cb19" x="351.368614" y="111.541148" style="fill: #ff0000; stroke: #ff0000"/>
     <use xlink:href="#m27b3a9cb19" x="353.160467" y="112.441273" style="fill: #ff0000; stroke: #ff0000"/>
     <use xlink:href="#m27b3a9cb19" x="354.90516" y="113.327789" style="fill: #ff0000; stroke: #ff0000"/>
     <use xlink:href="#m27b3a9cb19" x="356.605113" y="113.268337" style="fill: #ff0000; stroke: #ff0000"/>
     <use xlink:href="#m27b3a9cb19" x="358.262563" y="113.718951" style="fill: #ff0000; stroke: #ff0000"/>
     <use xlink:href="#m27b3a9cb19" x="359.879582" y="114.734638" style="fill: #ff0000; stroke: #ff0000"/>
     <use xlink:href="#m27b3a9cb19" x="361.458098" y="115.42188" style="fill: #ff0000; stroke: #ff0000"/>
     <use xlink:href="#m27b3a9cb19" x="362.999901" y="116.752206" style="fill: #ff0000; stroke: #ff0000"/>
     <use xlink:href="#m27b3a9cb19" x="364.506659" y="117.689101" style="fill: #ff0000; stroke: #ff0000"/>
     <use xlink:href="#m27b3a9cb19" x="365.979932" y="117.22391" style="fill: #ff0000; stroke: #ff0000"/>
     <use xlink:href="#m27b3a9cb19" x="367.421174" y="117.973934" style="fill: #ff0000; stroke: #ff0000"/>
     <use xlink:href="#m27b3a9cb19" x="368.831749" y="118.031431" style="fill: #ff0000; stroke: #ff0000"/>
     <use xlink:href="#m27b3a9cb19" x="370.212934" y="118.936178" style="fill: #ff0000; stroke: #ff0000"/>
     <use xlink:href="#m27b3a9cb19" x="371.565931" y="119.823894" style="fill: #ff0000; stroke: #ff0000"/>
     <use xlink:href="#m27b3a9cb19" x="372.891866" y="119.46783" style="fill: #ff0000; stroke: #ff0000"/>
     <use xlink:href="#m27b3a9cb19" x="374.1918" y="121.206602" style="fill: #ff0000; stroke: #ff0000"/>
     <use xlink:href="#m27b3a9cb19" x="375.466734" y="121.275094" style="fill: #ff0000; stroke: #ff0000"/>
     <use xlink:href="#m27b3a9cb19" x="376.717611" y="122.334116" style="fill: #ff0000; stroke: #ff0000"/>
     <use xlink:href="#m27b3a9cb19" x="377.945323" y="122.504439" style="fill: #ff0000; stroke: #ff0000"/>
     <use xlink:href="#m27b3a9cb19" x="379.150711" y="124.112302" style="fill: #ff0000; stroke: #ff0000"/>
     <use xlink:href="#m27b3a9cb19" x="380.334573" y="125.267478" style="fill: #ff0000; stroke: #ff0000"/>
     <use xlink:href="#m27b3a9cb19" x="381.497665" y="126.109387" style="fill: #ff0000; stroke: #ff0000"/>
     <use xlink:href="#m27b3a9cb19" x="382.640702" y="127.273949" style="fill: #ff0000; stroke: #ff0000"/>
     <use xlink:href="#m27b3a9cb19" x="383.764365" y="128.381932" style="fill: #ff0000; stroke: #ff0000"/>
     <use xlink:href="#m27b3a9cb19" x="384.869299" y="130.290555" style="fill: #ff0000; stroke: #ff0000"/>
     <use xlink:href="#m27b3a9cb19" x="385.956119" y="131.641834" style="fill: #ff0000; stroke: #ff0000"/>
     <use xlink:href="#m27b3a9cb19" x="387.025409" y="134.729412" style="fill: #ff0000; stroke: #ff0000"/>
     <use xlink:href="#m27b3a9cb19" x="388.077725" y="134.824306" style="fill: #ff0000; stroke: #ff0000"/>
     <use xlink:href="#m27b3a9cb19" x="389.113598" y="136.991911" style="fill: #ff0000; stroke: #ff0000"/>
     <use xlink:href="#m27b3a9cb19" x="390.133534" y="137.589752" style="fill: #ff0000; stroke: #ff0000"/>
     <use xlink:href="#m27b3a9cb19" x="391.138015" y="138.728838" style="fill: #ff0000; stroke: #ff0000"/>
     <use xlink:href="#m27b3a9cb19" x="392.127504" y="143.154029" style="fill: #ff0000; stroke: #ff0000"/>
     <use xlink:href="#m27b3a9cb19" x="393.102441" y="146.231687" style="fill: #ff0000; stroke: #ff0000"/>
     <use xlink:href="#m27b3a9cb19" x="394.063248" y="147.986526" style="fill: #ff0000; stroke: #ff0000"/>
     <use xlink:href="#m27b3a9cb19" x="395.010329" y="151.033761" style="fill: #ff0000; stroke: #ff0000"/>
     <use xlink:href="#m27b3a9cb19" x="395.94407" y="153.213254" style="fill: #ff0000; stroke: #ff0000"/>
     <use xlink:href="#m27b3a9cb19" x="396.864842" y="156.130068" style="fill: #ff0000; stroke: #ff0000"/>
     <use xlink:href="#m27b3a9cb19" x="397.773001" y="157.536134" style="fill: #ff0000; stroke: #ff0000"/>
     <use xlink:href="#m27b3a9cb19" x="398.668886" y="158.708744" style="fill: #ff0000; stroke: #ff0000"/>
     <use xlink:href="#m27b3a9cb19" x="399.552826" y="161.303591" style="fill: #ff0000; stroke: #ff0000"/>
     <use xlink:href="#m27b3a9cb19" x="400.425135" y="162.96802" style="fill: #ff0000; stroke: #ff0000"/>
     <use xlink:href="#m27b3a9cb19" x="401.286115" y="165.784223" style="fill: #ff0000; stroke: #ff0000"/>
     <use xlink:href="#m27b3a9cb19" x="402.136057" y="169.413192" style="fill: #ff0000; stroke: #ff0000"/>
     <use xlink:href="#m27b3a9cb19" x="402.975239" y="173.160763" style="fill: #ff0000; stroke: #ff0000"/>
     <use xlink:href="#m27b3a9cb19" x="403.803931" y="174.736549" style="fill: #ff0000; stroke: #ff0000"/>
     <use xlink:href="#m27b3a9cb19" x="404.622393" y="177.865188" style="fill: #ff0000; stroke: #ff0000"/>
     <use xlink:href="#m27b3a9cb19" x="405.430873" y="180.475749" style="fill: #ff0000; stroke: #ff0000"/>
     <use xlink:href="#m27b3a9cb19" x="406.229611" y="181.045157" style="fill: #ff0000; stroke: #ff0000"/>
     <use xlink:href="#m27b3a9cb19" x="407.018841" y="182.239398" style="fill: #ff0000; stroke: #ff0000"/>
     <use xlink:href="#m27b3a9cb19" x="407.798786" y="185.613131" style="fill: #ff0000; stroke: #ff0000"/>
     <use xlink:href="#m27b3a9cb19" x="408.569661" y="192.749546" style="fill: #ff0000; stroke: #ff0000"/>
     <use xlink:href="#m27b3a9cb19" x="409.331675" y="197.713584" style="fill: #ff0000; stroke: #ff0000"/>
     <use xlink:href="#m27b3a9cb19" x="410.08503" y="206.697568" style="fill: #ff0000; stroke: #ff0000"/>
     <use xlink:href="#m27b3a9cb19" x="410.829921" y="212.020924" style="fill: #ff0000; stroke: #ff0000"/>
     <use xlink:href="#m27b3a9cb19" x="411.566534" y="212.020924" style="fill: #ff0000; stroke: #ff0000"/>
     <use xlink:href="#m27b3a9cb19" x="412.295053" y="212.020924" style="fill: #ff0000; stroke: #ff0000"/>
     <use xlink:href="#m27b3a9cb19" x="413.015652" y="202.568452" style="fill: #ff0000; stroke: #ff0000"/>
     <use xlink:href="#m27b3a9cb19" x="413.728504" y="245.176183" style="fill: #ff0000; stroke: #ff0000"/>
     <use xlink:href="#m27b3a9cb19" x="414.433771" y="224.847129" style="fill: #ff0000; stroke: #ff0000"/>
     <use xlink:href="#m27b3a9cb19" x="415.131615" y="215.394657" style="fill: #ff0000; stroke: #ff0000"/>
     <use xlink:href="#m27b3a9cb19" x="415.822189" y="209.168473" style="fill: #ff0000; stroke: #ff0000"/>
     <use xlink:href="#m27b3a9cb19" x="416.505644" y="224.847129" style="fill: #ff0000; stroke: #ff0000"/>
     <use xlink:href="#m27b3a9cb19" x="417.182124" y="215.394657" style="fill: #ff0000; stroke: #ff0000"/>
     <use xlink:href="#m27b3a9cb19" x="417.851772" y="245.176183" style="fill: #ff0000; stroke: #ff0000"/>
    </g>
   </g>
   <g id="matplotlib.axis_1">
    <g id="xtick_1">
     <g id="line2d_2">
      <defs>
       <path id="ma321a3c80d" d="M 0 0 
L 0 -2.5 
" style="stroke: #000000; stroke-width: 0.5"/>
      </defs>
      <g>
       <use xlink:href="#ma321a3c80d" x="82.513981" y="251.745354" style="stroke: #000000; stroke-width: 0.5"/>
      </g>
     </g>
     <g id="line2d_3">
      <defs>
       <path id="mb7b2ae2b71" d="M 0 0 
L 0 2.5 
" style="stroke: #000000; stroke-width: 0.5"/>
      </defs>
      <g>
       <use xlink:href="#mb7b2ae2b71" x="82.513981" y="19.634646" style="stroke: #000000; stroke-width: 0.5"/>
      </g>
     </g>
     <g id="text_1">
      <!-- $-1.5$ -->
      <g transform="translate(70.363981 262.843792) scale(0.1 -0.1)">
       <defs>
        <path id="DejaVuSerif-2212" d="M 678 2259 
L 4684 2259 
L 4684 1753 
L 678 1753 
L 678 2259 
z
" transform="scale(0.015625)"/>
        <path id="DejaVuSerif-31" d="M 909 0 
L 909 331 
L 1722 331 
L 1722 4213 
L 781 3603 
L 781 4013 
L 1919 4750 
L 2350 4750 
L 2350 331 
L 3163 331 
L 3163 0 
L 909 0 
z
" transform="scale(0.015625)"/>
        <path id="DejaVuSerif-2e" d="M 603 325 
Q 603 500 722 622 
Q 841 744 1019 744 
Q 1191 744 1312 622 
Q 1434 500 1434 325 
Q 1434 153 1312 31 
Q 1191 -91 1019 -91 
Q 841 -91 722 29 
Q 603 150 603 325 
z
" transform="scale(0.015625)"/>
        <path id="DejaVuSerif-35" d="M 3219 4666 
L 3219 4153 
L 1081 4153 
L 1081 2816 
Q 1244 2928 1461 2984 
Q 1678 3041 1947 3041 
Q 2703 3041 3140 2622 
Q 3578 2203 3578 1478 
Q 3578 738 3136 323 
Q 2694 -91 1894 -91 
Q 1572 -91 1234 -12 
Q 897 66 544 225 
L 544 1131 
L 897 1131 
Q 925 688 1179 453 
Q 1434 219 1894 219 
Q 2388 219 2653 544 
Q 2919 869 2919 1478 
Q 2919 2084 2655 2407 
Q 2391 2731 1894 2731 
Q 1613 2731 1398 2631 
Q 1184 2531 1019 2322 
L 750 2322 
L 750 4666 
L 3219 4666 
z
" transform="scale(0.015625)"/>
       </defs>
       <use xlink:href="#DejaVuSerif-2212" transform="translate(0 0.78125)"/>
       <use xlink:href="#DejaVuSerif-31" transform="translate(83.789062 0.78125)"/>
       <use xlink:href="#DejaVuSerif-2e" transform="translate(147.412109 0.78125)"/>
       <use xlink:href="#DejaVuSerif-35" transform="translate(179.199219 0.78125)"/>
      </g>
     </g>
    </g>
    <g id="xtick_2">
     <g id="line2d_4">
      <g>
       <use xlink:href="#ma321a3c80d" x="158.838372" y="251.745354" style="stroke: #000000; stroke-width: 0.5"/>
      </g>
     </g>
     <g id="line2d_5">
      <g>
       <use xlink:href="#mb7b2ae2b71" x="158.838372" y="19.634646" style="stroke: #000000; stroke-width: 0.5"/>
      </g>
     </g>
     <g id="text_2">
      <!-- $-1.0$ -->
      <g transform="translate(146.688372 262.843792) scale(0.1 -0.1)">
       <defs>
        <path id="DejaVuSerif-30" d="M 2034 219 
Q 2513 219 2750 744 
Q 2988 1269 2988 2328 
Q 2988 3391 2750 3916 
Q 2513 4441 2034 4441 
Q 1556 4441 1318 3916 
Q 1081 3391 1081 2328 
Q 1081 1269 1318 744 
Q 1556 219 2034 219 
z
M 2034 -91 
Q 1275 -91 848 546 
Q 422 1184 422 2328 
Q 422 3475 848 4112 
Q 1275 4750 2034 4750 
Q 2797 4750 3222 4112 
Q 3647 3475 3647 2328 
Q 3647 1184 3222 546 
Q 2797 -91 2034 -91 
z
" transform="scale(0.015625)"/>
       </defs>
       <use xlink:href="#DejaVuSerif-2212" transform="translate(0 0.78125)"/>
       <use xlink:href="#DejaVuSerif-31" transform="translate(83.789062 0.78125)"/>
       <use xlink:href="#DejaVuSerif-2e" transform="translate(147.412109 0.78125)"/>
       <use xlink:href="#DejaVuSerif-30" transform="translate(179.199219 0.78125)"/>
      </g>
     </g>
    </g>
    <g id="xtick_3">
     <g id="line2d_6">
      <g>
       <use xlink:href="#ma321a3c80d" x="235.162764" y="251.745354" style="stroke: #000000; stroke-width: 0.5"/>
      </g>
     </g>
     <g id="line2d_7">
      <g>
       <use xlink:href="#mb7b2ae2b71" x="235.162764" y="19.634646" style="stroke: #000000; stroke-width: 0.5"/>
      </g>
     </g>
     <g id="text_3">
      <!-- $-0.5$ -->
      <g transform="translate(223.012764 262.843792) scale(0.1 -0.1)">
       <use xlink:href="#DejaVuSerif-2212" transform="translate(0 0.78125)"/>
       <use xlink:href="#DejaVuSerif-30" transform="translate(83.789062 0.78125)"/>
       <use xlink:href="#DejaVuSerif-2e" transform="translate(147.412109 0.78125)"/>
       <use xlink:href="#DejaVuSerif-35" transform="translate(179.199219 0.78125)"/>
      </g>
     </g>
    </g>
    <g id="xtick_4">
     <g id="line2d_8">
      <g>
       <use xlink:href="#ma321a3c80d" x="311.487155" y="251.745354" style="stroke: #000000; stroke-width: 0.5"/>
      </g>
     </g>
     <g id="line2d_9">
      <g>
       <use xlink:href="#mb7b2ae2b71" x="311.487155" y="19.634646" style="stroke: #000000; stroke-width: 0.5"/>
      </g>
     </g>
     <g id="text_4">
      <!-- $0.0$ -->
      <g transform="translate(303.487155 262.843792) scale(0.1 -0.1)">
       <use xlink:href="#DejaVuSerif-30" transform="translate(0 0.78125)"/>
       <use xlink:href="#DejaVuSerif-2e" transform="translate(63.623047 0.78125)"/>
       <use xlink:href="#DejaVuSerif-30" transform="translate(95.410156 0.78125)"/>
      </g>
     </g>
    </g>
    <g id="xtick_5">
     <g id="line2d_10">
      <g>
       <use xlink:href="#ma321a3c80d" x="387.811547" y="251.745354" style="stroke: #000000; stroke-width: 0.5"/>
      </g>
     </g>
     <g id="line2d_11">
      <g>
       <use xlink:href="#mb7b2ae2b71" x="387.811547" y="19.634646" style="stroke: #000000; stroke-width: 0.5"/>
      </g>
     </g>
     <g id="text_5">
      <!-- $0.5$ -->
      <g transform="translate(379.811547 262.843792) scale(0.1 -0.1)">
       <use xlink:href="#DejaVuSerif-30" transform="translate(0 0.78125)"/>
       <use xlink:href="#DejaVuSerif-2e" transform="translate(63.623047 0.78125)"/>
       <use xlink:href="#DejaVuSerif-35" transform="translate(95.410156 0.78125)"/>
      </g>
     </g>
    </g>
    <g id="text_6">
     <!-- $\log(r)$ -->
     <g transform="translate(218.182764 278.043479) scale(0.12 -0.12)">
      <defs>
       <path id="DejaVuSerif-6c" d="M 1313 331 
L 1856 331 
L 1856 0 
L 184 0 
L 184 331 
L 738 331 
L 738 4531 
L 184 4531 
L 184 4863 
L 1313 4863 
L 1313 331 
z
" transform="scale(0.015625)"/>
       <path id="DejaVuSerif-6f" d="M 1925 219 
Q 2388 219 2623 584 
Q 2859 950 2859 1663 
Q 2859 2375 2623 2739 
Q 2388 3103 1925 3103 
Q 1463 3103 1227 2739 
Q 991 2375 991 1663 
Q 991 950 1228 584 
Q 1466 219 1925 219 
z
M 1925 -91 
Q 1200 -91 759 389 
Q 319 869 319 1663 
Q 319 2456 758 2934 
Q 1197 3413 1925 3413 
Q 2653 3413 3092 2934 
Q 3531 2456 3531 1663 
Q 3531 869 3092 389 
Q 2653 -91 1925 -91 
z
" transform="scale(0.015625)"/>
       <path id="DejaVuSerif-67" d="M 3359 2988 
L 3359 72 
Q 3359 -644 2965 -1033 
Q 2572 -1422 1844 -1422 
Q 1516 -1422 1216 -1362 
Q 916 -1303 641 -1184 
L 641 -488 
L 941 -488 
Q 997 -813 1206 -963 
Q 1416 -1113 1806 -1113 
Q 2313 -1113 2548 -827 
Q 2784 -541 2784 72 
L 2784 519 
Q 2616 206 2355 57 
Q 2094 -91 1709 -91 
Q 1097 -91 708 395 
Q 319 881 319 1663 
Q 319 2444 706 2928 
Q 1094 3413 1709 3413 
Q 2094 3413 2355 3264 
Q 2616 3116 2784 2803 
L 2784 3322 
L 3909 3322 
L 3909 2988 
L 3359 2988 
z
M 2784 1825 
Q 2784 2422 2554 2737 
Q 2325 3053 1888 3053 
Q 1444 3053 1217 2703 
Q 991 2353 991 1663 
Q 991 975 1217 622 
Q 1444 269 1888 269 
Q 2325 269 2554 583 
Q 2784 897 2784 1497 
L 2784 1825 
z
" transform="scale(0.015625)"/>
       <path id="DejaVuSerif-28" d="M 2041 -997 
Q 1281 -656 893 83 
Q 506 822 506 1931 
Q 506 3044 893 3783 
Q 1281 4522 2041 4863 
L 2041 4556 
Q 1559 4225 1350 3623 
Q 1141 3022 1141 1931 
Q 1141 844 1350 242 
Q 1559 -359 2041 -691 
L 2041 -997 
z
" transform="scale(0.015625)"/>
       <path id="DejaVuSerif-Italic-72" d="M 3375 3328 
L 3213 2497 
L 2881 2497 
Q 2891 2559 2891 2613 
Q 2891 2775 2816 2866 
Q 2719 2988 2484 2988 
Q 2059 2988 1775 2694 
Q 1491 2400 1384 1850 
L 1025 0 
L 450 0 
L 1031 2994 
L 481 2994 
L 544 3322 
L 1669 3322 
L 1556 2731 
Q 1791 3078 2089 3245 
Q 2388 3413 2769 3413 
Q 2909 3413 3059 3391 
Q 3209 3369 3375 3328 
z
" transform="scale(0.015625)"/>
       <path id="DejaVuSerif-29" d="M 453 -997 
L 453 -691 
Q 934 -359 1145 242 
Q 1356 844 1356 1931 
Q 1356 3022 1145 3623 
Q 934 4225 453 4556 
L 453 4863 
Q 1216 4522 1603 3783 
Q 1991 3044 1991 1931 
Q 1991 822 1603 83 
Q 1216 -656 453 -997 
z
" transform="scale(0.015625)"/>
      </defs>
      <use xlink:href="#DejaVuSerif-6c" transform="translate(0 0.015625)"/>
      <use xlink:href="#DejaVuSerif-6f" transform="translate(31.982422 0.015625)"/>
      <use xlink:href="#DejaVuSerif-67" transform="translate(92.1875 0.015625)"/>
      <use xlink:href="#DejaVuSerif-28" transform="translate(156.201172 0.015625)"/>
      <use xlink:href="#DejaVuSerif-Italic-72" transform="translate(195.214844 0.015625)"/>
      <use xlink:href="#DejaVuSerif-29" transform="translate(243.017578 0.015625)"/>
     </g>
    </g>
   </g>
   <g id="matplotlib.axis_2">
    <g id="ytick_1">
     <g id="line2d_12">
      <defs>
       <path id="m0ce148553c" d="M 0 0 
L 2.5 0 
" style="stroke: #000000; stroke-width: 0.5"/>
      </defs>
      <g>
       <use xlink:href="#m0ce148553c" x="41.160173" y="240.170411" style="stroke: #000000; stroke-width: 0.5"/>
      </g>
     </g>
     <g id="line2d_13">
      <defs>
       <path id="m9251d12fcb" d="M 0 0 
L -2.5 0 
" style="stroke: #000000; stroke-width: 0.5"/>
      </defs>
      <g>
       <use xlink:href="#m9251d12fcb" x="429.165354" y="240.170411" style="stroke: #000000; stroke-width: 0.5"/>
      </g>
     </g>
     <g id="text_7">
      <!-- $-4$ -->
      <g transform="translate(22.860173 243.96963) scale(0.1 -0.1)">
       <defs>
        <path id="DejaVuSerif-34" d="M 2234 1581 
L 2234 4063 
L 641 1581 
L 2234 1581 
z
M 3609 0 
L 1484 0 
L 1484 331 
L 2234 331 
L 2234 1247 
L 197 1247 
L 197 1588 
L 2241 4750 
L 2859 4750 
L 2859 1581 
L 3750 1581 
L 3750 1247 
L 2859 1247 
L 2859 331 
L 3609 331 
L 3609 0 
z
" transform="scale(0.015625)"/>
       </defs>
       <use xlink:href="#DejaVuSerif-2212" transform="translate(0 0.78125)"/>
       <use xlink:href="#DejaVuSerif-34" transform="translate(83.789062 0.78125)"/>
      </g>
     </g>
    </g>
    <g id="ytick_2">
     <g id="line2d_14">
      <g>
       <use xlink:href="#m0ce148553c" x="41.160173" y="197.562679" style="stroke: #000000; stroke-width: 0.5"/>
      </g>
     </g>
     <g id="line2d_15">
      <g>
       <use xlink:href="#m9251d12fcb" x="429.165354" y="197.562679" style="stroke: #000000; stroke-width: 0.5"/>
      </g>
     </g>
     <g id="text_8">
      <!-- $-3$ -->
      <g transform="translate(22.860173 201.361898) scale(0.1 -0.1)">
       <defs>
        <path id="DejaVuSerif-33" d="M 622 4469 
Q 988 4606 1323 4678 
Q 1659 4750 1953 4750 
Q 2638 4750 3022 4454 
Q 3406 4159 3406 3634 
Q 3406 3213 3140 2930 
Q 2875 2647 2388 2547 
Q 2963 2466 3280 2130 
Q 3597 1794 3597 1259 
Q 3597 606 3158 257 
Q 2719 -91 1894 -91 
Q 1528 -91 1179 -12 
Q 831 66 488 225 
L 488 1131 
L 838 1131 
Q 869 681 1141 450 
Q 1413 219 1906 219 
Q 2384 219 2661 495 
Q 2938 772 2938 1253 
Q 2938 1803 2653 2086 
Q 2369 2369 1819 2369 
L 1522 2369 
L 1522 2688 
L 1678 2688 
Q 2225 2688 2498 2914 
Q 2772 3141 2772 3597 
Q 2772 4006 2547 4223 
Q 2322 4441 1900 4441 
Q 1478 4441 1245 4241 
Q 1013 4041 972 3647 
L 622 3647 
L 622 4469 
z
" transform="scale(0.015625)"/>
       </defs>
       <use xlink:href="#DejaVuSerif-2212" transform="translate(0 0.78125)"/>
       <use xlink:href="#DejaVuSerif-33" transform="translate(83.789062 0.78125)"/>
      </g>
     </g>
    </g>
    <g id="ytick_3">
     <g id="line2d_16">
      <g>
       <use xlink:href="#m0ce148553c" x="41.160173" y="154.954948" style="stroke: #000000; stroke-width: 0.5"/>
      </g>
     </g>
     <g id="line2d_17">
      <g>
       <use xlink:href="#m9251d12fcb" x="429.165354" y="154.954948" style="stroke: #000000; stroke-width: 0.5"/>
      </g>
     </g>
     <g id="text_9">
      <!-- $-2$ -->
      <g transform="translate(22.860173 158.754167) scale(0.1 -0.1)">
       <defs>
        <path id="DejaVuSerif-32" d="M 819 3553 
L 469 3553 
L 469 4384 
Q 803 4563 1142 4656 
Q 1481 4750 1806 4750 
Q 2534 4750 2956 4397 
Q 3378 4044 3378 3438 
Q 3378 2753 2422 1800 
Q 2347 1728 2309 1691 
L 1131 513 
L 3078 513 
L 3078 1088 
L 3444 1088 
L 3444 0 
L 434 0 
L 434 341 
L 1850 1753 
Q 2319 2222 2519 2614 
Q 2719 3006 2719 3438 
Q 2719 3909 2473 4175 
Q 2228 4441 1797 4441 
Q 1350 4441 1106 4219 
Q 863 3997 819 3553 
z
" transform="scale(0.015625)"/>
       </defs>
       <use xlink:href="#DejaVuSerif-2212" transform="translate(0 0.78125)"/>
       <use xlink:href="#DejaVuSerif-32" transform="translate(83.789062 0.78125)"/>
      </g>
     </g>
    </g>
    <g id="ytick_4">
     <g id="line2d_18">
      <g>
       <use xlink:href="#m0ce148553c" x="41.160173" y="112.347217" style="stroke: #000000; stroke-width: 0.5"/>
      </g>
     </g>
     <g id="line2d_19">
      <g>
       <use xlink:href="#m9251d12fcb" x="429.165354" y="112.347217" style="stroke: #000000; stroke-width: 0.5"/>
      </g>
     </g>
     <g id="text_10">
      <!-- $-1$ -->
      <g transform="translate(22.860173 116.146435) scale(0.1 -0.1)">
       <use xlink:href="#DejaVuSerif-2212" transform="translate(0 0.78125)"/>
       <use xlink:href="#DejaVuSerif-31" transform="translate(83.789062 0.78125)"/>
      </g>
     </g>
    </g>
    <g id="ytick_5">
     <g id="line2d_20">
      <g>
       <use xlink:href="#m0ce148553c" x="41.160173" y="69.739485" style="stroke: #000000; stroke-width: 0.5"/>
      </g>
     </g>
     <g id="line2d_21">
      <g>
       <use xlink:href="#m9251d12fcb" x="429.165354" y="69.739485" style="stroke: #000000; stroke-width: 0.5"/>
      </g>
     </g>
     <g id="text_11">
      <!-- $0$ -->
      <g transform="translate(31.260173 73.538704) scale(0.1 -0.1)">
       <use xlink:href="#DejaVuSerif-30" transform="translate(0 0.78125)"/>
      </g>
     </g>
    </g>
    <g id="ytick_6">
     <g id="line2d_22">
      <g>
       <use xlink:href="#m0ce148553c" x="41.160173" y="27.131754" style="stroke: #000000; stroke-width: 0.5"/>
      </g>
     </g>
     <g id="line2d_23">
      <g>
       <use xlink:href="#m9251d12fcb" x="429.165354" y="27.131754" style="stroke: #000000; stroke-width: 0.5"/>
      </g>
     </g>
     <g id="text_12">
      <!-- $1$ -->
      <g transform="translate(31.260173 30.930973) scale(0.1 -0.1)">
       <use xlink:href="#DejaVuSerif-31" transform="translate(0 0.78125)"/>
      </g>
     </g>
    </g>
    <g id="text_13">
     <!-- $\log(p(r))$ -->
     <g transform="translate(16.100173 161.19) rotate(-90) scale(0.12 -0.12)">
      <defs>
       <path id="DejaVuSerif-Italic-70" d="M 1466 1825 
L 1400 1497 
Q 1353 1250 1353 1053 
Q 1353 769 1453 581 
Q 1622 269 2059 269 
Q 2500 269 2795 622 
Q 3091 975 3225 1663 
Q 3284 1978 3284 2225 
Q 3284 2513 3200 2703 
Q 3041 3053 2600 3053 
Q 2163 3053 1872 2737 
Q 1581 2422 1466 1825 
z
M 1116 2988 
L 563 2988 
L 628 3322 
L 1756 3322 
L 1656 2803 
Q 1884 3116 2175 3264 
Q 2466 3413 2850 3413 
Q 3463 3413 3753 2928 
Q 3947 2609 3947 2163 
Q 3947 1928 3897 1663 
Q 3744 881 3262 395 
Q 2781 -91 2169 -91 
Q 1784 -91 1551 57 
Q 1319 206 1213 519 
L 850 -1331 
L 275 -1331 
L 1116 2988 
z
" transform="scale(0.015625)"/>
      </defs>
      <use xlink:href="#DejaVuSerif-6c" transform="translate(0 0.015625)"/>
      <use xlink:href="#DejaVuSerif-6f" transform="translate(31.982422 0.015625)"/>
      <use xlink:href="#DejaVuSerif-67" transform="translate(92.1875 0.015625)"/>
      <use xlink:href="#DejaVuSerif-28" transform="translate(156.201172 0.015625)"/>
      <use xlink:href="#DejaVuSerif-Italic-70" transform="translate(195.214844 0.015625)"/>
      <use xlink:href="#DejaVuSerif-28" transform="translate(259.228516 0.015625)"/>
      <use xlink:href="#DejaVuSerif-Italic-72" transform="translate(298.242188 0.015625)"/>
      <use xlink:href="#DejaVuSerif-29" transform="translate(346.044922 0.015625)"/>
      <use xlink:href="#DejaVuSerif-29" transform="translate(385.058594 0.015625)"/>
     </g>
    </g>
   </g>
   <g id="line2d_24">
    <path d="M 66.934647 40.7403 
L 139.766626 53.686922 
L 173.631568 61.393923 
L 195.937835 67.062621 
L 212.598605 71.40115 
L 225.901973 74.889352 
L 236.976744 77.879856 
L 246.463547 80.565182 
L 254.761178 82.964819 
L 262.134828 85.119054 
L 268.769813 87.402686 
L 274.800744 89.352309 
L 280.328488 90.855894 
L 285.430584 92.560346 
L 290.167922 94.373548 
L 294.589195 95.877885 
L 298.733952 97.225998 
L 302.634755 98.272661 
L 306.318732 100.097188 
L 309.808723 100.750174 
L 313.12414 102.449735 
L 316.281619 103.193047 
L 319.295525 104.312171 
L 322.17835 105.660259 
L 324.941022 106.434527 
L 327.593156 107.501871 
L 330.14326 108.39328 
L 332.598894 109.450285 
L 334.966807 111.614676 
L 337.253052 110.856033 
L 339.463074 112.096407 
L 341.601792 112.996446 
L 343.673665 114.112773 
L 345.682743 114.85844 
L 347.632723 116.096984 
L 349.526981 116.340923 
L 351.368614 117.350172 
L 353.160467 117.895284 
L 354.90516 119.137915 
L 356.605113 119.866116 
L 358.262563 120.058093 
L 359.879582 121.162496 
L 361.458098 122.978568 
L 362.999901 122.240266 
L 364.506659 124.604637 
L 365.979932 123.643158 
L 367.421174 124.632071 
L 368.831749 127.347756 
L 370.212934 125.388598 
L 371.565931 126.661177 
L 372.891866 128.160192 
L 374.1918 128.42789 
L 375.466734 129.575002 
L 376.717611 128.529283 
L 377.945323 129.755182 
L 379.150711 131.146007 
L 380.334573 131.620503 
L 381.497665 132.231261 
L 382.640702 133.561227 
L 383.764365 133.965955 
L 384.869299 135.187494 
L 385.956119 134.802975 
L 387.025409 136.236602 
L 388.077725 135.829898 
L 389.113598 136.236602 
L 390.133534 139.365241 
L 391.138015 137.902845 
L 392.127504 138.648856 
L 393.102441 141.905843 
L 394.063248 141.49155 
L 395.010329 141.49155 
L 395.94407 142.910199 
L 396.864842 144.933691 
L 397.773001 144.366775 
L 398.668886 143.433588 
L 399.552826 146.566219 
L 400.425135 147.113184 
L 401.286115 148.456054 
L 402.136057 150.229654 
L 402.975239 150.339472 
L 403.803931 151.475062 
L 404.622393 154.523742 
L 405.430873 153.320873 
L 406.229611 159.572956 
L 407.018841 157.514803 
L 407.798786 159.939389 
L 408.569661 162.304857 
L 409.331675 160.313226 
L 410.08503 162.516337 
L 410.829921 165.762892 
L 411.566534 169.702865 
L 412.295053 166.805664 
L 413.015652 168.785108 
L 413.728504 171.001946 
L 414.433771 171.341484 
L 415.131615 175.991882 
L 415.822189 176.437791 
L 416.505644 179.90201 
L 417.182124 179.365616 
L 417.851772 181.023826 
" clip-path="url(#pf410749fdc)" style="fill: none; stroke: #008000"/>
   </g>
   <g id="PathCollection_2">
    <defs>
     <path id="m9f5a0fe373" d="M -2 2 
L 2 -2 
M -2 -2 
L 2 2 
" style="stroke: #008000"/>
    </defs>
    <g clip-path="url(#pf410749fdc)">
     <use xlink:href="#m9f5a0fe373" x="66.934647" y="40.7403" style="fill: #008000; stroke: #008000"/>
     <use xlink:href="#m9f5a0fe373" x="139.766626" y="53.686922" style="fill: #008000; stroke: #008000"/>
     <use xlink:href="#m9f5a0fe373" x="173.631568" y="61.393923" style="fill: #008000; stroke: #008000"/>
     <use xlink:href="#m9f5a0fe373" x="195.937835" y="67.062621" style="fill: #008000; stroke: #008000"/>
     <use xlink:href="#m9f5a0fe373" x="212.598605" y="71.40115" style="fill: #008000; stroke: #008000"/>
     <use xlink:href="#m9f5a0fe373" x="225.901973" y="74.889352" style="fill: #008000; stroke: #008000"/>
     <use xlink:href="#m9f5a0fe373" x="236.976744" y="77.879856" style="fill: #008000; stroke: #008000"/>
     <use xlink:href="#m9f5a0fe373" x="246.463547" y="80.565182" style="fill: #008000; stroke: #008000"/>
     <use xlink:href="#m9f5a0fe373" x="254.761178" y="82.964819" style="fill: #008000; stroke: #008000"/>
     <use xlink:href="#m9f5a0fe373" x="262.134828" y="85.119054" style="fill: #008000; stroke: #008000"/>
     <use xlink:href="#m9f5a0fe373" x="268.769813" y="87.402686" style="fill: #008000; stroke: #008000"/>
     <use xlink:href="#m9f5a0fe373" x="274.800744" y="89.352309" style="fill: #008000; stroke: #008000"/>
     <use xlink:href="#m9f5a0fe373" x="280.328488" y="90.855894" style="fill: #008000; stroke: #008000"/>
     <use xlink:href="#m9f5a0fe373" x="285.430584" y="92.560346" style="fill: #008000; stroke: #008000"/>
     <use xlink:href="#m9f5a0fe373" x="290.167922" y="94.373548" style="fill: #008000; stroke: #008000"/>
     <use xlink:href="#m9f5a0fe373" x="294.589195" y="95.877885" style="fill: #008000; stroke: #008000"/>
     <use xlink:href="#m9f5a0fe373" x="298.733952" y="97.225998" style="fill: #008000; stroke: #008000"/>
     <use xlink:href="#m9f5a0fe373" x="302.634755" y="98.272661" style="fill: #008000; stroke: #008000"/>
     <use xlink:href="#m9f5a0fe373" x="306.318732" y="100.097188" style="fill: #008000; stroke: #008000"/>
     <use xlink:href="#m9f5a0fe373" x="309.808723" y="100.750174" style="fill: #008000; stroke: #008000"/>
     <use xlink:href="#m9f5a0fe373" x="313.12414" y="102.449735" style="fill: #008000; stroke: #008000"/>
     <use xlink:href="#m9f5a0fe373" x="316.281619" y="103.193047" style="fill: #008000; stroke: #008000"/>
     <use xlink:href="#m9f5a0fe373" x="319.295525" y="104.312171" style="fill: #008000; stroke: #008000"/>
     <use xlink:href="#m9f5a0fe373" x="322.17835" y="105.660259" style="fill: #008000; stroke: #008000"/>
     <use xlink:href="#m9f5a0fe373" x="324.941022" y="106.434527" style="fill: #008000; stroke: #008000"/>
     <use xlink:href="#m9f5a0fe373" x="327.593156" y="107.501871" style="fill: #008000; stroke: #008000"/>
     <use xlink:href="#m9f5a0fe373" x="330.14326" y="108.39328" style="fill: #008000; stroke: #008000"/>
     <use xlink:href="#m9f5a0fe373" x="332.598894" y="109.450285" style="fill: #008000; stroke: #008000"/>
     <use xlink:href="#m9f5a0fe373" x="334.966807" y="111.614676" style="fill: #008000; stroke: #008000"/>
     <use xlink:href="#m9f5a0fe373" x="337.253052" y="110.856033" style="fill: #008000; stroke: #008000"/>
     <use xlink:href="#m9f5a0fe373" x="339.463074" y="112.096407" style="fill: #008000; stroke: #008000"/>
     <use xlink:href="#m9f5a0fe373" x="341.601792" y="112.996446" style="fill: #008000; stroke: #008000"/>
     <use xlink:href="#m9f5a0fe373" x="343.673665" y="114.112773" style="fill: #008000; stroke: #008000"/>
     <use xlink:href="#m9f5a0fe373" x="345.682743" y="114.85844" style="fill: #008000; stroke: #008000"/>
     <use xlink:href="#m9f5a0fe373" x="347.632723" y="116.096984" style="fill: #008000; stroke: #008000"/>
     <use xlink:href="#m9f5a0fe373" x="349.526981" y="116.340923" style="fill: #008000; stroke: #008000"/>
     <use xlink:href="#m9f5a0fe373" x="351.368614" y="117.350172" style="fill: #008000; stroke: #008000"/>
     <use xlink:href="#m9f5a0fe373" x="353.160467" y="117.895284" style="fill: #008000; stroke: #008000"/>
     <use xlink:href="#m9f5a0fe373" x="354.90516" y="119.137915" style="fill: #008000; stroke: #008000"/>
     <use xlink:href="#m9f5a0fe373" x="356.605113" y="119.866116" style="fill: #008000; stroke: #008000"/>
     <use xlink:href="#m9f5a0fe373" x="358.262563" y="120.058093" style="fill: #008000; stroke: #008000"/>
     <use xlink:href="#m9f5a0fe373" x="359.879582" y="121.162496" style="fill: #008000; stroke: #008000"/>
     <use xlink:href="#m9f5a0fe373" x="361.458098" y="122.978568" style="fill: #008000; stroke: #008000"/>
     <use xlink:href="#m9f5a0fe373" x="362.999901" y="122.240266" style="fill: #008000; stroke: #008000"/>
     <use xlink:href="#m9f5a0fe373" x="364.506659" y="124.604637" style="fill: #008000; stroke: #008000"/>
     <use xlink:href="#m9f5a0fe373" x="365.979932" y="123.643158" style="fill: #008000; stroke: #008000"/>
     <use xlink:href="#m9f5a0fe373" x="367.421174" y="124.632071" style="fill: #008000; stroke: #008000"/>
     <use xlink:href="#m9f5a0fe373" x="368.831749" y="127.347756" style="fill: #008000; stroke: #008000"/>
     <use xlink:href="#m9f5a0fe373" x="370.212934" y="125.388598" style="fill: #008000; stroke: #008000"/>
     <use xlink:href="#m9f5a0fe373" x="371.565931" y="126.661177" style="fill: #008000; stroke: #008000"/>
     <use xlink:href="#m9f5a0fe373" x="372.891866" y="128.160192" style="fill: #008000; stroke: #008000"/>
     <use xlink:href="#m9f5a0fe373" x="374.1918" y="128.42789" style="fill: #008000; stroke: #008000"/>
     <use xlink:href="#m9f5a0fe373" x="375.466734" y="129.575002" style="fill: #008000; stroke: #008000"/>
     <use xlink:href="#m9f5a0fe373" x="376.717611" y="128.529283" style="fill: #008000; stroke: #008000"/>
     <use xlink:href="#m9f5a0fe373" x="377.945323" y="129.755182" style="fill: #008000; stroke: #008000"/>
     <use xlink:href="#m9f5a0fe373" x="379.150711" y="131.146007" style="fill: #008000; stroke: #008000"/>
     <use xlink:href="#m9f5a0fe373" x="380.334573" y="131.620503" style="fill: #008000; stroke: #008000"/>
     <use xlink:href="#m9f5a0fe373" x="381.497665" y="132.231261" style="fill: #008000; stroke: #008000"/>
     <use xlink:href="#m9f5a0fe373" x="382.640702" y="133.561227" style="fill: #008000; stroke: #008000"/>
     <use xlink:href="#m9f5a0fe373" x="383.764365" y="133.965955" style="fill: #008000; stroke: #008000"/>
     <use xlink:href="#m9f5a0fe373" x="384.869299" y="135.187494" style="fill: #008000; stroke: #008000"/>
     <use xlink:href="#m9f5a0fe373" x="385.956119" y="134.802975" style="fill: #008000; stroke: #008000"/>
     <use xlink:href="#m9f5a0fe373" x="387.025409" y="136.236602" style="fill: #008000; stroke: #008000"/>
     <use xlink:href="#m9f5a0fe373" x="388.077725" y="135.829898" style="fill: #008000; stroke: #008000"/>
     <use xlink:href="#m9f5a0fe373" x="389.113598" y="136.236602" style="fill: #008000; stroke: #008000"/>
     <use xlink:href="#m9f5a0fe373" x="390.133534" y="139.365241" style="fill: #008000; stroke: #008000"/>
     <use xlink:href="#m9f5a0fe373" x="391.138015" y="137.902845" style="fill: #008000; stroke: #008000"/>
     <use xlink:href="#m9f5a0fe373" x="392.127504" y="138.648856" style="fill: #008000; stroke: #008000"/>
     <use xlink:href="#m9f5a0fe373" x="393.102441" y="141.905843" style="fill: #008000; stroke: #008000"/>
     <use xlink:href="#m9f5a0fe373" x="394.063248" y="141.49155" style="fill: #008000; stroke: #008000"/>
     <use xlink:href="#m9f5a0fe373" x="395.010329" y="141.49155" style="fill: #008000; stroke: #008000"/>
     <use xlink:href="#m9f5a0fe373" x="395.94407" y="142.910199" style="fill: #008000; stroke: #008000"/>
     <use xlink:href="#m9f5a0fe373" x="396.864842" y="144.933691" style="fill: #008000; stroke: #008000"/>
     <use xlink:href="#m9f5a0fe373" x="397.773001" y="144.366775" style="fill: #008000; stroke: #008000"/>
     <use xlink:href="#m9f5a0fe373" x="398.668886" y="143.433588" style="fill: #008000; stroke: #008000"/>
     <use xlink:href="#m9f5a0fe373" x="399.552826" y="146.566219" style="fill: #008000; stroke: #008000"/>
     <use xlink:href="#m9f5a0fe373" x="400.425135" y="147.113184" style="fill: #008000; stroke: #008000"/>
     <use xlink:href="#m9f5a0fe373" x="401.286115" y="148.456054" style="fill: #008000; stroke: #008000"/>
     <use xlink:href="#m9f5a0fe373" x="402.136057" y="150.229654" style="fill: #008000; stroke: #008000"/>
     <use xlink:href="#m9f5a0fe373" x="402.975239" y="150.339472" style="fill: #008000; stroke: #008000"/>
     <use xlink:href="#m9f5a0fe373" x="403.803931" y="151.475062" style="fill: #008000; stroke: #008000"/>
     <use xlink:href="#m9f5a0fe373" x="404.622393" y="154.523742" style="fill: #008000; stroke: #008000"/>
     <use xlink:href="#m9f5a0fe373" x="405.430873" y="153.320873" style="fill: #008000; stroke: #008000"/>
     <use xlink:href="#m9f5a0fe373" x="406.229611" y="159.572956" style="fill: #008000; stroke: #008000"/>
     <use xlink:href="#m9f5a0fe373" x="407.018841" y="157.514803" style="fill: #008000; stroke: #008000"/>
     <use xlink:href="#m9f5a0fe373" x="407.798786" y="159.939389" style="fill: #008000; stroke: #008000"/>
     <use xlink:href="#m9f5a0fe373" x="408.569661" y="162.304857" style="fill: #008000; stroke: #008000"/>
     <use xlink:href="#m9f5a0fe373" x="409.331675" y="160.313226" style="fill: #008000; stroke: #008000"/>
     <use xlink:href="#m9f5a0fe373" x="410.08503" y="162.516337" style="fill: #008000; stroke: #008000"/>
     <use xlink:href="#m9f5a0fe373" x="410.829921" y="165.762892" style="fill: #008000; stroke: #008000"/>
     <use xlink:href="#m9f5a0fe373" x="411.566534" y="169.702865" style="fill: #008000; stroke: #008000"/>
     <use xlink:href="#m9f5a0fe373" x="412.295053" y="166.805664" style="fill: #008000; stroke: #008000"/>
     <use xlink:href="#m9f5a0fe373" x="413.015652" y="168.785108" style="fill: #008000; stroke: #008000"/>
     <use xlink:href="#m9f5a0fe373" x="413.728504" y="171.001946" style="fill: #008000; stroke: #008000"/>
     <use xlink:href="#m9f5a0fe373" x="414.433771" y="171.341484" style="fill: #008000; stroke: #008000"/>
     <use xlink:href="#m9f5a0fe373" x="415.131615" y="175.991882" style="fill: #008000; stroke: #008000"/>
     <use xlink:href="#m9f5a0fe373" x="415.822189" y="176.437791" style="fill: #008000; stroke: #008000"/>
     <use xlink:href="#m9f5a0fe373" x="416.505644" y="179.90201" style="fill: #008000; stroke: #008000"/>
     <use xlink:href="#m9f5a0fe373" x="417.182124" y="179.365616" style="fill: #008000; stroke: #008000"/>
     <use xlink:href="#m9f5a0fe373" x="417.851772" y="181.023826" style="fill: #008000; stroke: #008000"/>
    </g>
   </g>
   <g id="patch_3">
    <path d="M 41.160173 251.745354 
L 41.160173 19.634646 
" style="fill: none; stroke: #000000; stroke-linejoin: miter; stroke-linecap: square"/>
   </g>
   <g id="patch_4">
    <path d="M 429.165354 251.745354 
L 429.165354 19.634646 
" style="fill: none; stroke: #000000; stroke-linejoin: miter; stroke-linecap: square"/>
   </g>
   <g id="patch_5">
    <path d="M 41.160173 251.745354 
L 429.165354 251.745354 
" style="fill: none; stroke: #000000; stroke-linejoin: miter; stroke-linecap: square"/>
   </g>
   <g id="patch_6">
    <path d="M 41.160173 19.634646 
L 429.165354 19.634646 
" style="fill: none; stroke: #000000; stroke-linejoin: miter; stroke-linecap: square"/>
   </g>
   <g id="line2d_25">
    <path d="M 66.934647 27.297966 
L 139.766626 56.953534 
L 173.631568 67.093093 
L 195.937835 73.773125 
L 212.598605 78.956586 
L 225.901973 83.156105 
L 236.976744 86.702281 
L 246.463547 89.803211 
L 254.761178 92.655662 
L 262.134828 95.009079 
L 268.769813 97.21578 
L 274.800744 99.175878 
L 280.328488 101.407835 
L 285.430584 102.995008 
L 290.167922 104.618368 
L 294.589195 106.141734 
L 298.733952 107.624565 
L 302.634755 109.29691 
L 306.318732 110.532236 
L 309.808723 111.704123 
L 313.12414 113.073324 
L 316.281619 113.905969 
L 319.295525 115.405178 
L 322.17835 116.299612 
L 324.941022 117.900087 
L 327.593156 118.347401 
L 330.14326 119.049546 
L 332.598894 120.694982 
L 334.966807 121.147432 
L 337.253052 121.966858 
L 339.463074 123.644529 
L 341.601792 123.670758 
L 343.673665 125.003752 
L 345.682743 125.374136 
L 347.632723 126.997306 
L 349.526981 126.747666 
L 351.368614 127.931577 
L 353.160467 129.02038 
L 354.90516 129.338513 
L 356.605113 130.592272 
L 358.262563 130.364757 
L 359.879582 131.733175 
L 361.458098 132.268375 
L 362.999901 132.992456 
L 364.506659 134.250515 
L 365.979932 133.387581 
L 367.421174 134.437429 
L 368.831749 136.158856 
L 370.212934 135.70068 
L 371.565931 136.470734 
L 372.891866 137.384049 
L 374.1918 138.578289 
L 375.466734 137.943134 
L 376.717611 140.044744 
L 377.945323 138.814769 
L 379.150711 139.854954 
L 380.334573 140.626079 
L 381.497665 141.987303 
L 382.640702 140.957112 
L 383.764365 142.561125 
L 384.869299 143.078245 
L 385.956119 142.780981 
L 387.025409 144.886898 
L 388.077725 143.153314 
L 389.113598 146.708463 
L 390.133534 146.617533 
L 391.138015 146.617533 
L 392.127504 146.708463 
L 393.102441 145.905741 
L 394.063248 147.07672 
L 395.010329 148.627726 
L 395.94407 148.831072 
L 396.864842 148.627726 
L 397.773001 149.349434 
L 398.668886 150.210254 
L 399.552826 150.100436 
L 400.425135 152.555706 
L 401.286115 150.656163 
L 402.136057 151.940889 
L 402.975239 150.656163 
L 403.803931 153.191655 
L 404.622393 154.813508 
L 405.430873 153.984818 
L 406.229611 153.984818 
L 407.018841 155.979519 
L 407.798786 155.53361 
L 408.569661 155.098195 
L 409.331675 158.386061 
L 410.08503 153.984818 
L 410.829921 159.443738 
L 411.566534 157.879062 
L 412.295053 159.996146 
L 413.015652 158.386061 
L 413.728504 159.626048 
L 414.433771 159.626048 
L 415.131615 159.08442 
L 415.822189 159.443738 
L 416.505644 161.759794 
L 417.182124 160.955133 
L 417.851772 161.35309 
" clip-path="url(#pf410749fdc)" style="fill: none; stroke: #0000ff"/>
   </g>
   <g id="text_14">
    <!-- Level spacing distribution at $l = N/2$ -->
    <g transform="translate(125.782764 13.634646) scale(0.12 -0.12)">
     <defs>
      <path id="DejaVuSerif-4c" d="M 353 0 
L 353 331 
L 947 331 
L 947 4331 
L 353 4331 
L 353 4666 
L 2175 4666 
L 2175 4331 
L 1581 4331 
L 1581 384 
L 3713 384 
L 3713 1166 
L 4097 1166 
L 4097 0 
L 353 0 
z
" transform="scale(0.015625)"/>
      <path id="DejaVuSerif-65" d="M 3469 1600 
L 991 1600 
L 991 1575 
Q 991 903 1244 561 
Q 1497 219 1991 219 
Q 2369 219 2611 417 
Q 2853 616 2950 1006 
L 3413 1006 
Q 3275 459 2904 184 
Q 2534 -91 1931 -91 
Q 1203 -91 761 389 
Q 319 869 319 1663 
Q 319 2450 753 2931 
Q 1188 3413 1894 3413 
Q 2647 3413 3050 2948 
Q 3453 2484 3469 1600 
z
M 2791 1931 
Q 2772 2513 2545 2808 
Q 2319 3103 1894 3103 
Q 1497 3103 1269 2806 
Q 1041 2509 991 1931 
L 2791 1931 
z
" transform="scale(0.015625)"/>
      <path id="DejaVuSerif-76" d="M 1581 0 
L 359 2988 
L -19 2988 
L -19 3322 
L 1509 3322 
L 1509 2988 
L 978 2988 
L 1913 703 
L 2847 2988 
L 2350 2988 
L 2350 3322 
L 3597 3322 
L 3597 2988 
L 3225 2988 
L 2003 0 
L 1581 0 
z
" transform="scale(0.015625)"/>
      <path id="DejaVuSerif-20" transform="scale(0.015625)"/>
      <path id="DejaVuSerif-73" d="M 359 184 
L 359 959 
L 691 959 
Q 703 588 923 403 
Q 1144 219 1575 219 
Q 1963 219 2166 364 
Q 2369 509 2369 788 
Q 2369 1006 2220 1140 
Q 2072 1275 1594 1428 
L 1178 1569 
Q 750 1706 558 1912 
Q 366 2119 366 2438 
Q 366 2894 700 3153 
Q 1034 3413 1625 3413 
Q 1888 3413 2178 3344 
Q 2469 3275 2778 3144 
L 2778 2419 
L 2447 2419 
Q 2434 2741 2221 2922 
Q 2009 3103 1644 3103 
Q 1281 3103 1095 2975 
Q 909 2847 909 2591 
Q 909 2381 1050 2254 
Q 1191 2128 1613 1997 
L 2069 1856 
Q 2541 1709 2748 1489 
Q 2956 1269 2956 922 
Q 2956 450 2595 179 
Q 2234 -91 1600 -91 
Q 1278 -91 972 -22 
Q 666 47 359 184 
z
" transform="scale(0.015625)"/>
      <path id="DejaVuSerif-70" d="M 1313 1825 
L 1313 1497 
Q 1313 897 1542 583 
Q 1772 269 2209 269 
Q 2650 269 2876 622 
Q 3103 975 3103 1663 
Q 3103 2353 2876 2703 
Q 2650 3053 2209 3053 
Q 1772 3053 1542 2737 
Q 1313 2422 1313 1825 
z
M 738 2988 
L 184 2988 
L 184 3322 
L 1313 3322 
L 1313 2803 
Q 1481 3116 1742 3264 
Q 2003 3413 2388 3413 
Q 3000 3413 3387 2928 
Q 3775 2444 3775 1663 
Q 3775 881 3387 395 
Q 3000 -91 2388 -91 
Q 2003 -91 1742 57 
Q 1481 206 1313 519 
L 1313 -997 
L 1856 -997 
L 1856 -1331 
L 184 -1331 
L 184 -997 
L 738 -997 
L 738 2988 
z
" transform="scale(0.015625)"/>
      <path id="DejaVuSerif-61" d="M 2547 1044 
L 2547 1747 
L 1806 1747 
Q 1378 1747 1168 1562 
Q 959 1378 959 997 
Q 959 650 1171 447 
Q 1384 244 1747 244 
Q 2106 244 2326 466 
Q 2547 688 2547 1044 
z
M 3122 2075 
L 3122 331 
L 3634 331 
L 3634 0 
L 2547 0 
L 2547 359 
Q 2356 128 2106 18 
Q 1856 -91 1522 -91 
Q 969 -91 644 203 
Q 319 497 319 997 
Q 319 1513 691 1797 
Q 1063 2081 1741 2081 
L 2547 2081 
L 2547 2309 
Q 2547 2688 2317 2895 
Q 2088 3103 1672 3103 
Q 1328 3103 1125 2947 
Q 922 2791 872 2484 
L 575 2484 
L 575 3156 
Q 875 3284 1158 3348 
Q 1441 3413 1709 3413 
Q 2400 3413 2761 3070 
Q 3122 2728 3122 2075 
z
" transform="scale(0.015625)"/>
      <path id="DejaVuSerif-63" d="M 3291 997 
Q 3169 466 2822 187 
Q 2475 -91 1925 -91 
Q 1200 -91 759 389 
Q 319 869 319 1663 
Q 319 2459 759 2936 
Q 1200 3413 1925 3413 
Q 2241 3413 2553 3339 
Q 2866 3266 3181 3116 
L 3181 2266 
L 2847 2266 
Q 2781 2703 2561 2903 
Q 2341 3103 1931 3103 
Q 1466 3103 1228 2742 
Q 991 2381 991 1663 
Q 991 944 1227 581 
Q 1463 219 1931 219 
Q 2303 219 2525 412 
Q 2747 606 2828 997 
L 3291 997 
z
" transform="scale(0.015625)"/>
      <path id="DejaVuSerif-69" d="M 622 4353 
Q 622 4497 726 4603 
Q 831 4709 978 4709 
Q 1122 4709 1226 4603 
Q 1331 4497 1331 4353 
Q 1331 4206 1228 4103 
Q 1125 4000 978 4000 
Q 831 4000 726 4103 
Q 622 4206 622 4353 
z
M 1356 331 
L 1900 331 
L 1900 0 
L 231 0 
L 231 331 
L 781 331 
L 781 2988 
L 231 2988 
L 231 3322 
L 1356 3322 
L 1356 331 
z
" transform="scale(0.015625)"/>
      <path id="DejaVuSerif-6e" d="M 263 0 
L 263 331 
L 781 331 
L 781 2988 
L 231 2988 
L 231 3322 
L 1356 3322 
L 1356 2731 
Q 1516 3069 1770 3241 
Q 2025 3413 2363 3413 
Q 2913 3413 3172 3097 
Q 3431 2781 3431 2113 
L 3431 331 
L 3944 331 
L 3944 0 
L 2356 0 
L 2356 331 
L 2853 331 
L 2853 1931 
Q 2853 2541 2703 2767 
Q 2553 2994 2175 2994 
Q 1775 2994 1565 2701 
Q 1356 2409 1356 1850 
L 1356 331 
L 1856 331 
L 1856 0 
L 263 0 
z
" transform="scale(0.015625)"/>
      <path id="DejaVuSerif-64" d="M 3359 331 
L 3909 331 
L 3909 0 
L 2784 0 
L 2784 519 
Q 2616 206 2355 57 
Q 2094 -91 1709 -91 
Q 1097 -91 708 395 
Q 319 881 319 1663 
Q 319 2444 706 2928 
Q 1094 3413 1709 3413 
Q 2094 3413 2355 3264 
Q 2616 3116 2784 2803 
L 2784 4531 
L 2241 4531 
L 2241 4863 
L 3359 4863 
L 3359 331 
z
M 2784 1497 
L 2784 1825 
Q 2784 2422 2554 2737 
Q 2325 3053 1888 3053 
Q 1444 3053 1217 2703 
Q 991 2353 991 1663 
Q 991 975 1217 622 
Q 1444 269 1888 269 
Q 2325 269 2554 583 
Q 2784 897 2784 1497 
z
" transform="scale(0.015625)"/>
      <path id="DejaVuSerif-74" d="M 691 2988 
L 184 2988 
L 184 3322 
L 691 3322 
L 691 4353 
L 1269 4353 
L 1269 3322 
L 2350 3322 
L 2350 2988 
L 1269 2988 
L 1269 878 
Q 1269 456 1350 337 
Q 1431 219 1650 219 
Q 1875 219 1978 351 
Q 2081 484 2088 781 
L 2522 781 
Q 2497 328 2275 118 
Q 2053 -91 1600 -91 
Q 1103 -91 897 129 
Q 691 350 691 878 
L 691 2988 
z
" transform="scale(0.015625)"/>
      <path id="DejaVuSerif-72" d="M 3059 3328 
L 3059 2497 
L 2728 2497 
Q 2713 2744 2591 2866 
Q 2469 2988 2234 2988 
Q 1809 2988 1582 2694 
Q 1356 2400 1356 1850 
L 1356 331 
L 2022 331 
L 2022 0 
L 263 0 
L 263 331 
L 781 331 
L 781 2994 
L 231 2994 
L 231 3322 
L 1356 3322 
L 1356 2731 
Q 1525 3078 1790 3245 
Q 2056 3413 2438 3413 
Q 2578 3413 2733 3391 
Q 2888 3369 3059 3328 
z
" transform="scale(0.015625)"/>
      <path id="DejaVuSerif-62" d="M 738 331 
L 738 4531 
L 184 4531 
L 184 4863 
L 1313 4863 
L 1313 2803 
Q 1481 3116 1742 3264 
Q 2003 3413 2388 3413 
Q 3000 3413 3387 2928 
Q 3775 2444 3775 1663 
Q 3775 881 3387 395 
Q 3000 -91 2388 -91 
Q 2003 -91 1742 57 
Q 1481 206 1313 519 
L 1313 0 
L 184 0 
L 184 331 
L 738 331 
z
M 1313 1497 
Q 1313 897 1542 583 
Q 1772 269 2209 269 
Q 2650 269 2876 622 
Q 3103 975 3103 1663 
Q 3103 2353 2876 2703 
Q 2650 3053 2209 3053 
Q 1772 3053 1542 2737 
Q 1313 2422 1313 1825 
L 1313 1497 
z
" transform="scale(0.015625)"/>
      <path id="DejaVuSerif-75" d="M 2266 3322 
L 3341 3322 
L 3341 331 
L 3884 331 
L 3884 0 
L 2766 0 
L 2766 588 
Q 2606 256 2353 82 
Q 2100 -91 1766 -91 
Q 1213 -91 952 223 
Q 691 538 691 1209 
L 691 2988 
L 172 2988 
L 172 3322 
L 1269 3322 
L 1269 1388 
Q 1269 781 1417 556 
Q 1566 331 1947 331 
Q 2347 331 2556 625 
Q 2766 919 2766 1478 
L 2766 2988 
L 2266 2988 
L 2266 3322 
z
" transform="scale(0.015625)"/>
      <path id="DejaVuSerif-Italic-6c" d="M 903 331 
L 1447 331 
L 1384 0 
L 266 0 
L 1147 4531 
L 594 4531 
L 656 4863 
L 1784 4863 
L 903 331 
z
" transform="scale(0.015625)"/>
      <path id="DejaVuSerif-3d" d="M 678 2894 
L 4684 2894 
L 4684 2394 
L 678 2394 
L 678 2894 
z
M 678 1619 
L 4684 1619 
L 4684 1119 
L 678 1119 
L 678 1619 
z
" transform="scale(0.015625)"/>
      <path id="DejaVuSerif-Italic-4e" d="M -128 0 
L -66 331 
L 563 331 
L 1341 4331 
L 713 4331 
L 778 4666 
L 1975 4666 
L 4056 984 
L 4706 4331 
L 4081 4331 
L 4147 4666 
L 5784 4666 
L 5719 4331 
L 5091 4331 
L 4231 -91 
L 3853 -91 
L 1631 3841 
L 947 331 
L 1575 331 
L 1513 0 
L -128 0 
z
" transform="scale(0.015625)"/>
      <path id="DejaVuSerif-2f" d="M 1656 4666 
L 2156 4666 
L 500 -594 
L 0 -594 
L 1656 4666 
z
" transform="scale(0.015625)"/>
     </defs>
     <use xlink:href="#DejaVuSerif-4c" transform="translate(0 0.015625)"/>
     <use xlink:href="#DejaVuSerif-65" transform="translate(66.40625 0.015625)"/>
     <use xlink:href="#DejaVuSerif-76" transform="translate(125.585938 0.015625)"/>
     <use xlink:href="#DejaVuSerif-65" transform="translate(182.080078 0.015625)"/>
     <use xlink:href="#DejaVuSerif-6c" transform="translate(241.259766 0.015625)"/>
     <use xlink:href="#DejaVuSerif-20" transform="translate(273.242188 0.015625)"/>
     <use xlink:href="#DejaVuSerif-73" transform="translate(305.029297 0.015625)"/>
     <use xlink:href="#DejaVuSerif-70" transform="translate(356.347656 0.015625)"/>
     <use xlink:href="#DejaVuSerif-61" transform="translate(420.361328 0.015625)"/>
     <use xlink:href="#DejaVuSerif-63" transform="translate(479.980469 0.015625)"/>
     <use xlink:href="#DejaVuSerif-69" transform="translate(535.986328 0.015625)"/>
     <use xlink:href="#DejaVuSerif-6e" transform="translate(567.96875 0.015625)"/>
     <use xlink:href="#DejaVuSerif-67" transform="translate(632.373047 0.015625)"/>
     <use xlink:href="#DejaVuSerif-20" transform="translate(696.386719 0.015625)"/>
     <use xlink:href="#DejaVuSerif-64" transform="translate(728.173828 0.015625)"/>
     <use xlink:href="#DejaVuSerif-69" transform="translate(792.1875 0.015625)"/>
     <use xlink:href="#DejaVuSerif-73" transform="translate(824.169922 0.015625)"/>
     <use xlink:href="#DejaVuSerif-74" transform="translate(875.488281 0.015625)"/>
     <use xlink:href="#DejaVuSerif-72" transform="translate(915.673828 0.015625)"/>
     <use xlink:href="#DejaVuSerif-69" transform="translate(963.476562 0.015625)"/>
     <use xlink:href="#DejaVuSerif-62" transform="translate(995.458984 0.015625)"/>
     <use xlink:href="#DejaVuSerif-75" transform="translate(1059.472656 0.015625)"/>
     <use xlink:href="#DejaVuSerif-74" transform="translate(1123.876953 0.015625)"/>
     <use xlink:href="#DejaVuSerif-69" transform="translate(1164.0625 0.015625)"/>
     <use xlink:href="#DejaVuSerif-6f" transform="translate(1196.044922 0.015625)"/>
     <use xlink:href="#DejaVuSerif-6e" transform="translate(1256.25 0.015625)"/>
     <use xlink:href="#DejaVuSerif-20" transform="translate(1320.654297 0.015625)"/>
     <use xlink:href="#DejaVuSerif-61" transform="translate(1352.441406 0.015625)"/>
     <use xlink:href="#DejaVuSerif-74" transform="translate(1412.060547 0.015625)"/>
     <use xlink:href="#DejaVuSerif-20" transform="translate(1452.246094 0.015625)"/>
     <use xlink:href="#DejaVuSerif-Italic-6c" transform="translate(1484.033203 0.015625)"/>
     <use xlink:href="#DejaVuSerif-3d" transform="translate(1534.980469 0.015625)"/>
     <use xlink:href="#DejaVuSerif-Italic-4e" transform="translate(1637.734375 0.015625)"/>
     <use xlink:href="#DejaVuSerif-2f" transform="translate(1725.234375 0.015625)"/>
     <use xlink:href="#DejaVuSerif-32" transform="translate(1758.925781 0.015625)"/>
    </g>
   </g>
   <g id="PathCollection_3">
    <defs>
     <path id="mabb8a70b71" d="M -2 2 
L 2 -2 
M -2 -2 
L 2 2 
" style="stroke: #0000ff"/>
    </defs>
    <g clip-path="url(#pf410749fdc)">
     <use xlink:href="#mabb8a70b71" x="66.934647" y="27.297966" style="fill: #0000ff; stroke: #0000ff"/>
     <use xlink:href="#mabb8a70b71" x="139.766626" y="56.953534" style="fill: #0000ff; stroke: #0000ff"/>
     <use xlink:href="#mabb8a70b71" x="173.631568" y="67.093093" style="fill: #0000ff; stroke: #0000ff"/>
     <use xlink:href="#mabb8a70b71" x="195.937835" y="73.773125" style="fill: #0000ff; stroke: #0000ff"/>
     <use xlink:href="#mabb8a70b71" x="212.598605" y="78.956586" style="fill: #0000ff; stroke: #0000ff"/>
     <use xlink:href="#mabb8a70b71" x="225.901973" y="83.156105" style="fill: #0000ff; stroke: #0000ff"/>
     <use xlink:href="#mabb8a70b71" x="236.976744" y="86.702281" style="fill: #0000ff; stroke: #0000ff"/>
     <use xlink:href="#mabb8a70b71" x="246.463547" y="89.803211" style="fill: #0000ff; stroke: #0000ff"/>
     <use xlink:href="#mabb8a70b71" x="254.761178" y="92.655662" style="fill: #0000ff; stroke: #0000ff"/>
     <use xlink:href="#mabb8a70b71" x="262.134828" y="95.009079" style="fill: #0000ff; stroke: #0000ff"/>
     <use xlink:href="#mabb8a70b71" x="268.769813" y="97.21578" style="fill: #0000ff; stroke: #0000ff"/>
     <use xlink:href="#mabb8a70b71" x="274.800744" y="99.175878" style="fill: #0000ff; stroke: #0000ff"/>
     <use xlink:href="#mabb8a70b71" x="280.328488" y="101.407835" style="fill: #0000ff; stroke: #0000ff"/>
     <use xlink:href="#mabb8a70b71" x="285.430584" y="102.995008" style="fill: #0000ff; stroke: #0000ff"/>
     <use xlink:href="#mabb8a70b71" x="290.167922" y="104.618368" style="fill: #0000ff; stroke: #0000ff"/>
     <use xlink:href="#mabb8a70b71" x="294.589195" y="106.141734" style="fill: #0000ff; stroke: #0000ff"/>
     <use xlink:href="#mabb8a70b71" x="298.733952" y="107.624565" style="fill: #0000ff; stroke: #0000ff"/>
     <use xlink:href="#mabb8a70b71" x="302.634755" y="109.29691" style="fill: #0000ff; stroke: #0000ff"/>
     <use xlink:href="#mabb8a70b71" x="306.318732" y="110.532236" style="fill: #0000ff; stroke: #0000ff"/>
     <use xlink:href="#mabb8a70b71" x="309.808723" y="111.704123" style="fill: #0000ff; stroke: #0000ff"/>
     <use xlink:href="#mabb8a70b71" x="313.12414" y="113.073324" style="fill: #0000ff; stroke: #0000ff"/>
     <use xlink:href="#mabb8a70b71" x="316.281619" y="113.905969" style="fill: #0000ff; stroke: #0000ff"/>
     <use xlink:href="#mabb8a70b71" x="319.295525" y="115.405178" style="fill: #0000ff; stroke: #0000ff"/>
     <use xlink:href="#mabb8a70b71" x="322.17835" y="116.299612" style="fill: #0000ff; stroke: #0000ff"/>
     <use xlink:href="#mabb8a70b71" x="324.941022" y="117.900087" style="fill: #0000ff; stroke: #0000ff"/>
     <use xlink:href="#mabb8a70b71" x="327.593156" y="118.347401" style="fill: #0000ff; stroke: #0000ff"/>
     <use xlink:href="#mabb8a70b71" x="330.14326" y="119.049546" style="fill: #0000ff; stroke: #0000ff"/>
     <use xlink:href="#mabb8a70b71" x="332.598894" y="120.694982" style="fill: #0000ff; stroke: #0000ff"/>
     <use xlink:href="#mabb8a70b71" x="334.966807" y="121.147432" style="fill: #0000ff; stroke: #0000ff"/>
     <use xlink:href="#mabb8a70b71" x="337.253052" y="121.966858" style="fill: #0000ff; stroke: #0000ff"/>
     <use xlink:href="#mabb8a70b71" x="339.463074" y="123.644529" style="fill: #0000ff; stroke: #0000ff"/>
     <use xlink:href="#mabb8a70b71" x="341.601792" y="123.670758" style="fill: #0000ff; stroke: #0000ff"/>
     <use xlink:href="#mabb8a70b71" x="343.673665" y="125.003752" style="fill: #0000ff; stroke: #0000ff"/>
     <use xlink:href="#mabb8a70b71" x="345.682743" y="125.374136" style="fill: #0000ff; stroke: #0000ff"/>
     <use xlink:href="#mabb8a70b71" x="347.632723" y="126.997306" style="fill: #0000ff; stroke: #0000ff"/>
     <use xlink:href="#mabb8a70b71" x="349.526981" y="126.747666" style="fill: #0000ff; stroke: #0000ff"/>
     <use xlink:href="#mabb8a70b71" x="351.368614" y="127.931577" style="fill: #0000ff; stroke: #0000ff"/>
     <use xlink:href="#mabb8a70b71" x="353.160467" y="129.02038" style="fill: #0000ff; stroke: #0000ff"/>
     <use xlink:href="#mabb8a70b71" x="354.90516" y="129.338513" style="fill: #0000ff; stroke: #0000ff"/>
     <use xlink:href="#mabb8a70b71" x="356.605113" y="130.592272" style="fill: #0000ff; stroke: #0000ff"/>
     <use xlink:href="#mabb8a70b71" x="358.262563" y="130.364757" style="fill: #0000ff; stroke: #0000ff"/>
     <use xlink:href="#mabb8a70b71" x="359.879582" y="131.733175" style="fill: #0000ff; stroke: #0000ff"/>
     <use xlink:href="#mabb8a70b71" x="361.458098" y="132.268375" style="fill: #0000ff; stroke: #0000ff"/>
     <use xlink:href="#mabb8a70b71" x="362.999901" y="132.992456" style="fill: #0000ff; stroke: #0000ff"/>
     <use xlink:href="#mabb8a70b71" x="364.506659" y="134.250515" style="fill: #0000ff; stroke: #0000ff"/>
     <use xlink:href="#mabb8a70b71" x="365.979932" y="133.387581" style="fill: #0000ff; stroke: #0000ff"/>
     <use xlink:href="#mabb8a70b71" x="367.421174" y="134.437429" style="fill: #0000ff; stroke: #0000ff"/>
     <use xlink:href="#mabb8a70b71" x="368.831749" y="136.158856" style="fill: #0000ff; stroke: #0000ff"/>
     <use xlink:href="#mabb8a70b71" x="370.212934" y="135.70068" style="fill: #0000ff; stroke: #0000ff"/>
     <use xlink:href="#mabb8a70b71" x="371.565931" y="136.470734" style="fill: #0000ff; stroke: #0000ff"/>
     <use xlink:href="#mabb8a70b71" x="372.891866" y="137.384049" style="fill: #0000ff; stroke: #0000ff"/>
     <use xlink:href="#mabb8a70b71" x="374.1918" y="138.578289" style="fill: #0000ff; stroke: #0000ff"/>
     <use xlink:href="#mabb8a70b71" x="375.466734" y="137.943134" style="fill: #0000ff; stroke: #0000ff"/>
     <use xlink:href="#mabb8a70b71" x="376.717611" y="140.044744" style="fill: #0000ff; stroke: #0000ff"/>
     <use xlink:href="#mabb8a70b71" x="377.945323" y="138.814769" style="fill: #0000ff; stroke: #0000ff"/>
     <use xlink:href="#mabb8a70b71" x="379.150711" y="139.854954" style="fill: #0000ff; stroke: #0000ff"/>
     <use xlink:href="#mabb8a70b71" x="380.334573" y="140.626079" style="fill: #0000ff; stroke: #0000ff"/>
     <use xlink:href="#mabb8a70b71" x="381.497665" y="141.987303" style="fill: #0000ff; stroke: #0000ff"/>
     <use xlink:href="#mabb8a70b71" x="382.640702" y="140.957112" style="fill: #0000ff; stroke: #0000ff"/>
     <use xlink:href="#mabb8a70b71" x="383.764365" y="142.561125" style="fill: #0000ff; stroke: #0000ff"/>
     <use xlink:href="#mabb8a70b71" x="384.869299" y="143.078245" style="fill: #0000ff; stroke: #0000ff"/>
     <use xlink:href="#mabb8a70b71" x="385.956119" y="142.780981" style="fill: #0000ff; stroke: #0000ff"/>
     <use xlink:href="#mabb8a70b71" x="387.025409" y="144.886898" style="fill: #0000ff; stroke: #0000ff"/>
     <use xlink:href="#mabb8a70b71" x="388.077725" y="143.153314" style="fill: #0000ff; stroke: #0000ff"/>
     <use xlink:href="#mabb8a70b71" x="389.113598" y="146.708463" style="fill: #0000ff; stroke: #0000ff"/>
     <use xlink:href="#mabb8a70b71" x="390.133534" y="146.617533" style="fill: #0000ff; stroke: #0000ff"/>
     <use xlink:href="#mabb8a70b71" x="391.138015" y="146.617533" style="fill: #0000ff; stroke: #0000ff"/>
     <use xlink:href="#mabb8a70b71" x="392.127504" y="146.708463" style="fill: #0000ff; stroke: #0000ff"/>
     <use xlink:href="#mabb8a70b71" x="393.102441" y="145.905741" style="fill: #0000ff; stroke: #0000ff"/>
     <use xlink:href="#mabb8a70b71" x="394.063248" y="147.07672" style="fill: #0000ff; stroke: #0000ff"/>
     <use xlink:href="#mabb8a70b71" x="395.010329" y="148.627726" style="fill: #0000ff; stroke: #0000ff"/>
     <use xlink:href="#mabb8a70b71" x="395.94407" y="148.831072" style="fill: #0000ff; stroke: #0000ff"/>
     <use xlink:href="#mabb8a70b71" x="396.864842" y="148.627726" style="fill: #0000ff; stroke: #0000ff"/>
     <use xlink:href="#mabb8a70b71" x="397.773001" y="149.349434" style="fill: #0000ff; stroke: #0000ff"/>
     <use xlink:href="#mabb8a70b71" x="398.668886" y="150.210254" style="fill: #0000ff; stroke: #0000ff"/>
     <use xlink:href="#mabb8a70b71" x="399.552826" y="150.100436" style="fill: #0000ff; stroke: #0000ff"/>
     <use xlink:href="#mabb8a70b71" x="400.425135" y="152.555706" style="fill: #0000ff; stroke: #0000ff"/>
     <use xlink:href="#mabb8a70b71" x="401.286115" y="150.656163" style="fill: #0000ff; stroke: #0000ff"/>
     <use xlink:href="#mabb8a70b71" x="402.136057" y="151.940889" style="fill: #0000ff; stroke: #0000ff"/>
     <use xlink:href="#mabb8a70b71" x="402.975239" y="150.656163" style="fill: #0000ff; stroke: #0000ff"/>
     <use xlink:href="#mabb8a70b71" x="403.803931" y="153.191655" style="fill: #0000ff; stroke: #0000ff"/>
     <use xlink:href="#mabb8a70b71" x="404.622393" y="154.813508" style="fill: #0000ff; stroke: #0000ff"/>
     <use xlink:href="#mabb8a70b71" x="405.430873" y="153.984818" style="fill: #0000ff; stroke: #0000ff"/>
     <use xlink:href="#mabb8a70b71" x="406.229611" y="153.984818" style="fill: #0000ff; stroke: #0000ff"/>
     <use xlink:href="#mabb8a70b71" x="407.018841" y="155.979519" style="fill: #0000ff; stroke: #0000ff"/>
     <use xlink:href="#mabb8a70b71" x="407.798786" y="155.53361" style="fill: #0000ff; stroke: #0000ff"/>
     <use xlink:href="#mabb8a70b71" x="408.569661" y="155.098195" style="fill: #0000ff; stroke: #0000ff"/>
     <use xlink:href="#mabb8a70b71" x="409.331675" y="158.386061" style="fill: #0000ff; stroke: #0000ff"/>
     <use xlink:href="#mabb8a70b71" x="410.08503" y="153.984818" style="fill: #0000ff; stroke: #0000ff"/>
     <use xlink:href="#mabb8a70b71" x="410.829921" y="159.443738" style="fill: #0000ff; stroke: #0000ff"/>
     <use xlink:href="#mabb8a70b71" x="411.566534" y="157.879062" style="fill: #0000ff; stroke: #0000ff"/>
     <use xlink:href="#mabb8a70b71" x="412.295053" y="159.996146" style="fill: #0000ff; stroke: #0000ff"/>
     <use xlink:href="#mabb8a70b71" x="413.015652" y="158.386061" style="fill: #0000ff; stroke: #0000ff"/>
     <use xlink:href="#mabb8a70b71" x="413.728504" y="159.626048" style="fill: #0000ff; stroke: #0000ff"/>
     <use xlink:href="#mabb8a70b71" x="414.433771" y="159.626048" style="fill: #0000ff; stroke: #0000ff"/>
     <use xlink:href="#mabb8a70b71" x="415.131615" y="159.08442" style="fill: #0000ff; stroke: #0000ff"/>
     <use xlink:href="#mabb8a70b71" x="415.822189" y="159.443738" style="fill: #0000ff; stroke: #0000ff"/>
     <use xlink:href="#mabb8a70b71" x="416.505644" y="161.759794" style="fill: #0000ff; stroke: #0000ff"/>
     <use xlink:href="#mabb8a70b71" x="417.182124" y="160.955133" style="fill: #0000ff; stroke: #0000ff"/>
     <use xlink:href="#mabb8a70b71" x="417.851772" y="161.35309" style="fill: #0000ff; stroke: #0000ff"/>
    </g>
   </g>
   <g id="line2d_26">
    <path d="M 66.934647 26.203817 
L 139.766626 55.959659 
L 173.631568 66.637322 
L 195.937835 73.847206 
L 212.598605 79.448694 
L 225.901973 83.876755 
L 236.976744 87.90069 
L 246.463547 91.091783 
L 254.761178 94.30377 
L 262.134828 96.808743 
L 268.769813 99.096532 
L 274.800744 101.550295 
L 280.328488 103.423925 
L 285.430584 105.412109 
L 290.167922 107.024387 
L 294.589195 108.906865 
L 298.733952 110.424461 
L 302.634755 111.701126 
L 306.318732 113.665817 
L 309.808723 115.034235 
L 313.12414 115.906653 
L 316.281619 117.183318 
L 319.295525 118.214204 
L 322.17835 119.824289 
L 324.941022 120.630119 
L 327.593156 121.358067 
L 330.14326 123.345804 
L 332.598894 123.345804 
L 334.966807 125.007989 
L 337.253052 125.21787 
L 339.463074 127.222297 
L 341.601792 127.300872 
L 343.673665 128.521378 
L 345.682743 129.294292 
L 347.632723 129.738062 
L 349.526981 131.234173 
L 351.368614 131.528678 
L 353.160467 132.755932 
L 354.90516 133.511315 
L 356.605113 132.968628 
L 358.262563 134.882631 
L 359.879582 135.121399 
L 361.458098 136.885048 
L 362.999901 137.017696 
L 364.506659 137.421442 
L 365.979932 138.256364 
L 367.421174 139.583935 
L 368.831749 138.543258 
L 370.212934 141.516574 
L 371.565931 140.686645 
L 372.891866 141.516574 
L 374.1918 141.516574 
L 375.466734 143.674858 
L 376.717611 142.744798 
L 377.945323 142.564267 
L 379.150711 145.267609 
L 380.334573 145.060855 
L 381.497665 146.559131 
L 382.640702 145.688179 
L 383.764365 147.473109 
L 384.869299 146.783428 
L 385.956119 148.934735 
L 387.025409 148.934735 
L 388.077725 150.800055 
L 389.113598 147.947605 
L 390.133534 150.52179 
L 391.138015 154.173789 
L 392.127504 149.189971 
L 393.102441 151.956951 
L 394.063248 151.956951 
L 395.010329 154.173789 
L 395.94407 152.874708 
L 396.864842 153.512851 
L 397.773001 152.874708 
L 398.668886 156.311274 
L 399.552826 154.859212 
L 400.425135 155.937437 
L 401.286115 157.082398 
L 402.136057 155.937437 
L 402.975239 157.480356 
L 403.803931 157.480356 
L 404.622393 155.571003 
L 405.430873 159.609633 
L 406.229611 161.509177 
L 407.018841 159.609633 
L 407.798786 161.0157 
L 408.569661 158.302905 
L 409.331675 167.339532 
L 410.08503 157.88706 
L 410.829921 160.066553 
L 411.566534 163.626261 
L 412.295053 161.0157 
L 413.015652 166.666574 
L 413.728504 163.073852 
L 414.433771 168.03789 
L 415.131615 163.073852 
L 415.822189 163.073852 
L 416.505644 166.017234 
L 417.182124 166.017234 
L 417.851772 168.763642 
" clip-path="url(#pf410749fdc)" style="fill: none; stroke: #ffa500"/>
   </g>
   <g id="PathCollection_4">
    <defs>
     <path id="m46b3ad38af" d="M -2 2 
L 2 -2 
M -2 -2 
L 2 2 
" style="stroke: #ffa500"/>
    </defs>
    <g clip-path="url(#pf410749fdc)">
     <use xlink:href="#m46b3ad38af" x="66.934647" y="26.203817" style="fill: #ffa500; stroke: #ffa500"/>
     <use xlink:href="#m46b3ad38af" x="139.766626" y="55.959659" style="fill: #ffa500; stroke: #ffa500"/>
     <use xlink:href="#m46b3ad38af" x="173.631568" y="66.637322" style="fill: #ffa500; stroke: #ffa500"/>
     <use xlink:href="#m46b3ad38af" x="195.937835" y="73.847206" style="fill: #ffa500; stroke: #ffa500"/>
     <use xlink:href="#m46b3ad38af" x="212.598605" y="79.448694" style="fill: #ffa500; stroke: #ffa500"/>
     <use xlink:href="#m46b3ad38af" x="225.901973" y="83.876755" style="fill: #ffa500; stroke: #ffa500"/>
     <use xlink:href="#m46b3ad38af" x="236.976744" y="87.90069" style="fill: #ffa500; stroke: #ffa500"/>
     <use xlink:href="#m46b3ad38af" x="246.463547" y="91.091783" style="fill: #ffa500; stroke: #ffa500"/>
     <use xlink:href="#m46b3ad38af" x="254.761178" y="94.30377" style="fill: #ffa500; stroke: #ffa500"/>
     <use xlink:href="#m46b3ad38af" x="262.134828" y="96.808743" style="fill: #ffa500; stroke: #ffa500"/>
     <use xlink:href="#m46b3ad38af" x="268.769813" y="99.096532" style="fill: #ffa500; stroke: #ffa500"/>
     <use xlink:href="#m46b3ad38af" x="274.800744" y="101.550295" style="fill: #ffa500; stroke: #ffa500"/>
     <use xlink:href="#m46b3ad38af" x="280.328488" y="103.423925" style="fill: #ffa500; stroke: #ffa500"/>
     <use xlink:href="#m46b3ad38af" x="285.430584" y="105.412109" style="fill: #ffa500; stroke: #ffa500"/>
     <use xlink:href="#m46b3ad38af" x="290.167922" y="107.024387" style="fill: #ffa500; stroke: #ffa500"/>
     <use xlink:href="#m46b3ad38af" x="294.589195" y="108.906865" style="fill: #ffa500; stroke: #ffa500"/>
     <use xlink:href="#m46b3ad38af" x="298.733952" y="110.424461" style="fill: #ffa500; stroke: #ffa500"/>
     <use xlink:href="#m46b3ad38af" x="302.634755" y="111.701126" style="fill: #ffa500; stroke: #ffa500"/>
     <use xlink:href="#m46b3ad38af" x="306.318732" y="113.665817" style="fill: #ffa500; stroke: #ffa500"/>
     <use xlink:href="#m46b3ad38af" x="309.808723" y="115.034235" style="fill: #ffa500; stroke: #ffa500"/>
     <use xlink:href="#m46b3ad38af" x="313.12414" y="115.906653" style="fill: #ffa500; stroke: #ffa500"/>
     <use xlink:href="#m46b3ad38af" x="316.281619" y="117.183318" style="fill: #ffa500; stroke: #ffa500"/>
     <use xlink:href="#m46b3ad38af" x="319.295525" y="118.214204" style="fill: #ffa500; stroke: #ffa500"/>
     <use xlink:href="#m46b3ad38af" x="322.17835" y="119.824289" style="fill: #ffa500; stroke: #ffa500"/>
     <use xlink:href="#m46b3ad38af" x="324.941022" y="120.630119" style="fill: #ffa500; stroke: #ffa500"/>
     <use xlink:href="#m46b3ad38af" x="327.593156" y="121.358067" style="fill: #ffa500; stroke: #ffa500"/>
     <use xlink:href="#m46b3ad38af" x="330.14326" y="123.345804" style="fill: #ffa500; stroke: #ffa500"/>
     <use xlink:href="#m46b3ad38af" x="332.598894" y="123.345804" style="fill: #ffa500; stroke: #ffa500"/>
     <use xlink:href="#m46b3ad38af" x="334.966807" y="125.007989" style="fill: #ffa500; stroke: #ffa500"/>
     <use xlink:href="#m46b3ad38af" x="337.253052" y="125.21787" style="fill: #ffa500; stroke: #ffa500"/>
     <use xlink:href="#m46b3ad38af" x="339.463074" y="127.222297" style="fill: #ffa500; stroke: #ffa500"/>
     <use xlink:href="#m46b3ad38af" x="341.601792" y="127.300872" style="fill: #ffa500; stroke: #ffa500"/>
     <use xlink:href="#m46b3ad38af" x="343.673665" y="128.521378" style="fill: #ffa500; stroke: #ffa500"/>
     <use xlink:href="#m46b3ad38af" x="345.682743" y="129.294292" style="fill: #ffa500; stroke: #ffa500"/>
     <use xlink:href="#m46b3ad38af" x="347.632723" y="129.738062" style="fill: #ffa500; stroke: #ffa500"/>
     <use xlink:href="#m46b3ad38af" x="349.526981" y="131.234173" style="fill: #ffa500; stroke: #ffa500"/>
     <use xlink:href="#m46b3ad38af" x="351.368614" y="131.528678" style="fill: #ffa500; stroke: #ffa500"/>
     <use xlink:href="#m46b3ad38af" x="353.160467" y="132.755932" style="fill: #ffa500; stroke: #ffa500"/>
     <use xlink:href="#m46b3ad38af" x="354.90516" y="133.511315" style="fill: #ffa500; stroke: #ffa500"/>
     <use xlink:href="#m46b3ad38af" x="356.605113" y="132.968628" style="fill: #ffa500; stroke: #ffa500"/>
     <use xlink:href="#m46b3ad38af" x="358.262563" y="134.882631" style="fill: #ffa500; stroke: #ffa500"/>
     <use xlink:href="#m46b3ad38af" x="359.879582" y="135.121399" style="fill: #ffa500; stroke: #ffa500"/>
     <use xlink:href="#m46b3ad38af" x="361.458098" y="136.885048" style="fill: #ffa500; stroke: #ffa500"/>
     <use xlink:href="#m46b3ad38af" x="362.999901" y="137.017696" style="fill: #ffa500; stroke: #ffa500"/>
     <use xlink:href="#m46b3ad38af" x="364.506659" y="137.421442" style="fill: #ffa500; stroke: #ffa500"/>
     <use xlink:href="#m46b3ad38af" x="365.979932" y="138.256364" style="fill: #ffa500; stroke: #ffa500"/>
     <use xlink:href="#m46b3ad38af" x="367.421174" y="139.583935" style="fill: #ffa500; stroke: #ffa500"/>
     <use xlink:href="#m46b3ad38af" x="368.831749" y="138.543258" style="fill: #ffa500; stroke: #ffa500"/>
     <use xlink:href="#m46b3ad38af" x="370.212934" y="141.516574" style="fill: #ffa500; stroke: #ffa500"/>
     <use xlink:href="#m46b3ad38af" x="371.565931" y="140.686645" style="fill: #ffa500; stroke: #ffa500"/>
     <use xlink:href="#m46b3ad38af" x="372.891866" y="141.516574" style="fill: #ffa500; stroke: #ffa500"/>
     <use xlink:href="#m46b3ad38af" x="374.1918" y="141.516574" style="fill: #ffa500; stroke: #ffa500"/>
     <use xlink:href="#m46b3ad38af" x="375.466734" y="143.674858" style="fill: #ffa500; stroke: #ffa500"/>
     <use xlink:href="#m46b3ad38af" x="376.717611" y="142.744798" style="fill: #ffa500; stroke: #ffa500"/>
     <use xlink:href="#m46b3ad38af" x="377.945323" y="142.564267" style="fill: #ffa500; stroke: #ffa500"/>
     <use xlink:href="#m46b3ad38af" x="379.150711" y="145.267609" style="fill: #ffa500; stroke: #ffa500"/>
     <use xlink:href="#m46b3ad38af" x="380.334573" y="145.060855" style="fill: #ffa500; stroke: #ffa500"/>
     <use xlink:href="#m46b3ad38af" x="381.497665" y="146.559131" style="fill: #ffa500; stroke: #ffa500"/>
     <use xlink:href="#m46b3ad38af" x="382.640702" y="145.688179" style="fill: #ffa500; stroke: #ffa500"/>
     <use xlink:href="#m46b3ad38af" x="383.764365" y="147.473109" style="fill: #ffa500; stroke: #ffa500"/>
     <use xlink:href="#m46b3ad38af" x="384.869299" y="146.783428" style="fill: #ffa500; stroke: #ffa500"/>
     <use xlink:href="#m46b3ad38af" x="385.956119" y="148.934735" style="fill: #ffa500; stroke: #ffa500"/>
     <use xlink:href="#m46b3ad38af" x="387.025409" y="148.934735" style="fill: #ffa500; stroke: #ffa500"/>
     <use xlink:href="#m46b3ad38af" x="388.077725" y="150.800055" style="fill: #ffa500; stroke: #ffa500"/>
     <use xlink:href="#m46b3ad38af" x="389.113598" y="147.947605" style="fill: #ffa500; stroke: #ffa500"/>
     <use xlink:href="#m46b3ad38af" x="390.133534" y="150.52179" style="fill: #ffa500; stroke: #ffa500"/>
     <use xlink:href="#m46b3ad38af" x="391.138015" y="154.173789" style="fill: #ffa500; stroke: #ffa500"/>
     <use xlink:href="#m46b3ad38af" x="392.127504" y="149.189971" style="fill: #ffa500; stroke: #ffa500"/>
     <use xlink:href="#m46b3ad38af" x="393.102441" y="151.956951" style="fill: #ffa500; stroke: #ffa500"/>
     <use xlink:href="#m46b3ad38af" x="394.063248" y="151.956951" style="fill: #ffa500; stroke: #ffa500"/>
     <use xlink:href="#m46b3ad38af" x="395.010329" y="154.173789" style="fill: #ffa500; stroke: #ffa500"/>
     <use xlink:href="#m46b3ad38af" x="395.94407" y="152.874708" style="fill: #ffa500; stroke: #ffa500"/>
     <use xlink:href="#m46b3ad38af" x="396.864842" y="153.512851" style="fill: #ffa500; stroke: #ffa500"/>
     <use xlink:href="#m46b3ad38af" x="397.773001" y="152.874708" style="fill: #ffa500; stroke: #ffa500"/>
     <use xlink:href="#m46b3ad38af" x="398.668886" y="156.311274" style="fill: #ffa500; stroke: #ffa500"/>
     <use xlink:href="#m46b3ad38af" x="399.552826" y="154.859212" style="fill: #ffa500; stroke: #ffa500"/>
     <use xlink:href="#m46b3ad38af" x="400.425135" y="155.937437" style="fill: #ffa500; stroke: #ffa500"/>
     <use xlink:href="#m46b3ad38af" x="401.286115" y="157.082398" style="fill: #ffa500; stroke: #ffa500"/>
     <use xlink:href="#m46b3ad38af" x="402.136057" y="155.937437" style="fill: #ffa500; stroke: #ffa500"/>
     <use xlink:href="#m46b3ad38af" x="402.975239" y="157.480356" style="fill: #ffa500; stroke: #ffa500"/>
     <use xlink:href="#m46b3ad38af" x="403.803931" y="157.480356" style="fill: #ffa500; stroke: #ffa500"/>
     <use xlink:href="#m46b3ad38af" x="404.622393" y="155.571003" style="fill: #ffa500; stroke: #ffa500"/>
     <use xlink:href="#m46b3ad38af" x="405.430873" y="159.609633" style="fill: #ffa500; stroke: #ffa500"/>
     <use xlink:href="#m46b3ad38af" x="406.229611" y="161.509177" style="fill: #ffa500; stroke: #ffa500"/>
     <use xlink:href="#m46b3ad38af" x="407.018841" y="159.609633" style="fill: #ffa500; stroke: #ffa500"/>
     <use xlink:href="#m46b3ad38af" x="407.798786" y="161.0157" style="fill: #ffa500; stroke: #ffa500"/>
     <use xlink:href="#m46b3ad38af" x="408.569661" y="158.302905" style="fill: #ffa500; stroke: #ffa500"/>
     <use xlink:href="#m46b3ad38af" x="409.331675" y="167.339532" style="fill: #ffa500; stroke: #ffa500"/>
     <use xlink:href="#m46b3ad38af" x="410.08503" y="157.88706" style="fill: #ffa500; stroke: #ffa500"/>
     <use xlink:href="#m46b3ad38af" x="410.829921" y="160.066553" style="fill: #ffa500; stroke: #ffa500"/>
     <use xlink:href="#m46b3ad38af" x="411.566534" y="163.626261" style="fill: #ffa500; stroke: #ffa500"/>
     <use xlink:href="#m46b3ad38af" x="412.295053" y="161.0157" style="fill: #ffa500; stroke: #ffa500"/>
     <use xlink:href="#m46b3ad38af" x="413.015652" y="166.666574" style="fill: #ffa500; stroke: #ffa500"/>
     <use xlink:href="#m46b3ad38af" x="413.728504" y="163.073852" style="fill: #ffa500; stroke: #ffa500"/>
     <use xlink:href="#m46b3ad38af" x="414.433771" y="168.03789" style="fill: #ffa500; stroke: #ffa500"/>
     <use xlink:href="#m46b3ad38af" x="415.131615" y="163.073852" style="fill: #ffa500; stroke: #ffa500"/>
     <use xlink:href="#m46b3ad38af" x="415.822189" y="163.073852" style="fill: #ffa500; stroke: #ffa500"/>
     <use xlink:href="#m46b3ad38af" x="416.505644" y="166.017234" style="fill: #ffa500; stroke: #ffa500"/>
     <use xlink:href="#m46b3ad38af" x="417.182124" y="166.017234" style="fill: #ffa500; stroke: #ffa500"/>
     <use xlink:href="#m46b3ad38af" x="417.851772" y="168.763642" style="fill: #ffa500; stroke: #ffa500"/>
    </g>
   </g>
   <g id="line2d_27">
    <path d="M 52.141452 33.440006 
L 135.479146 56.701444 
L 171.259271 66.688487 
L 194.369691 73.139128 
L 211.473034 77.913059 
L 225.056509 81.704514 
L 236.324509 84.849668 
L 245.952655 87.537101 
L 254.35817 89.883271 
L 261.816868 91.965162 
L 268.520622 93.836332 
L 274.608307 95.535543 
L 280.183688 97.091758 
L 285.326335 98.527187 
L 290.098612 99.859238 
L 294.550301 101.101805 
L 298.721776 102.266158 
L 302.646234 103.361563 
L 306.351301 104.395731 
L 309.860214 105.375148 
L 313.192702 106.305321 
L 316.36566 107.190965 
L 319.393667 108.036151 
L 322.289389 108.844412 
L 325.063903 109.618842 
L 327.72695 110.362158 
L 330.28714 111.076766 
L 332.752125 111.764799 
L 335.128733 112.428164 
L 337.423081 113.068568 
L 339.640675 113.687549 
L 341.786483 114.286493 
L 343.865009 114.866656 
L 345.880343 115.429181 
L 347.836214 115.975109 
L 349.736032 116.505392 
L 351.58292 117.0209 
L 353.379746 117.522435 
L 355.129155 118.010734 
L 356.833584 118.486479 
L 358.495288 118.950298 
L 360.116357 119.402775 
L 361.698732 119.844452 
L 363.244216 120.275831 
L 364.75449 120.697383 
L 366.231123 121.109545 
L 367.675581 121.512726 
L 369.089236 121.907309 
L 370.473375 122.293654 
L 371.829206 122.672097 
L 373.157862 123.042955 
L 374.460412 123.406526 
L 375.737862 123.763091 
L 376.991161 124.112915 
L 378.221205 124.456248 
L 379.428842 124.793327 
L 380.614873 125.124375 
L 381.780059 125.449605 
L 382.925118 125.769217 
L 384.050735 126.083402 
L 385.157558 126.392342 
L 386.246206 126.696208 
L 387.317265 126.995165 
L 388.371294 127.289368 
L 389.408828 127.578967 
L 390.430373 127.864104 
L 391.436416 128.144913 
L 392.42742 128.421524 
L 393.403827 128.694062 
L 394.366062 128.962644 
L 395.314531 129.227383 
L 396.249621 129.488387 
L 397.171704 129.745762 
L 398.081139 129.999605 
L 398.978266 130.250014 
L 399.863414 130.497079 
L 400.7369 130.740889 
L 401.599027 130.981528 
L 402.450086 131.219078 
L 403.290358 131.453616 
L 404.120112 131.68522 
L 404.93961 131.91396 
L 405.7491 132.139907 
L 406.548826 132.363129 
L 407.339019 132.58369 
L 408.119905 132.801652 
L 408.891699 133.017078 
L 409.654612 133.230024 
L 410.408844 133.440547 
L 411.154593 133.648702 
L 411.892045 133.854542 
L 412.621384 134.058117 
L 413.342787 134.259477 
L 414.056424 134.458669 
L 414.762461 134.65574 
L 415.461058 134.850734 
L 416.152369 135.043695 
L 416.836547 135.234664 
L 417.513735 135.423683 
L 418.184076 135.61079 
" clip-path="url(#pf410749fdc)" style="fill: none; stroke: #000000; stroke-width: 2"/>
   </g>
   <g id="legend_1">
    <g id="patch_7">
     <path d="M 350.310667 94.347146 
L 424.165354 94.347146 
L 424.165354 24.634646 
L 350.310667 24.634646 
z
" style="fill: #ffffff; stroke: #000000; stroke-linejoin: miter"/>
    </g>
    <g id="line2d_28">
     <path d="M 358.310667 36.733083 
L 368.310667 36.733083 
L 378.310667 36.733083 
" style="fill: none; stroke: #ff0000; stroke-width: 1.25; stroke-linejoin: miter"/>
     <defs>
      <path id="m91efdfde31" d="M -4 4 
L 4 -4 
M -4 -4 
L 4 4 
" style="stroke: #000000; stroke-width: 2"/>
     </defs>
     <g>
      <use xlink:href="#m91efdfde31" x="368.310667" y="36.733083" style="fill: #ff0000; stroke: #000000; stroke-width: 2"/>
     </g>
    </g>
    <g id="text_15">
     <!-- N=6 -->
     <g transform="translate(386.310667 40.233083) scale(0.1 -0.1)">
      <defs>
       <path id="DejaVuSerif-4e" d="M 313 0 
L 313 331 
L 941 331 
L 941 4331 
L 313 4331 
L 313 4666 
L 1509 4666 
L 4306 984 
L 4306 4331 
L 3681 4331 
L 3681 4666 
L 5319 4666 
L 5319 4331 
L 4691 4331 
L 4691 -91 
L 4313 -91 
L 1325 3841 
L 1325 331 
L 1953 331 
L 1953 0 
L 313 0 
z
" transform="scale(0.015625)"/>
       <path id="DejaVuSerif-36" d="M 2094 219 
Q 2534 219 2771 542 
Q 3009 866 3009 1472 
Q 3009 2078 2771 2401 
Q 2534 2725 2094 2725 
Q 1647 2725 1412 2412 
Q 1178 2100 1178 1509 
Q 1178 888 1415 553 
Q 1653 219 2094 219 
z
M 1075 2569 
Q 1288 2803 1556 2918 
Q 1825 3034 2163 3034 
Q 2859 3034 3264 2615 
Q 3669 2197 3669 1472 
Q 3669 763 3233 336 
Q 2797 -91 2069 -91 
Q 1278 -91 853 498 
Q 428 1088 428 2181 
Q 428 3406 931 4078 
Q 1434 4750 2350 4750 
Q 2597 4750 2869 4703 
Q 3141 4656 3425 4563 
L 3425 3794 
L 3072 3794 
Q 3034 4109 2831 4275 
Q 2628 4441 2284 4441 
Q 1678 4441 1381 3981 
Q 1084 3522 1075 2569 
z
" transform="scale(0.015625)"/>
      </defs>
      <use xlink:href="#DejaVuSerif-4e"/>
      <use xlink:href="#DejaVuSerif-3d" x="87.5"/>
      <use xlink:href="#DejaVuSerif-36" x="171.289062"/>
     </g>
    </g>
    <g id="line2d_29">
     <path d="M 358.310667 51.411208 
L 368.310667 51.411208 
L 378.310667 51.411208 
" style="fill: none; stroke: #008000; stroke-width: 1.25; stroke-linejoin: miter"/>
     <defs>
      <path id="mea7a4e7954" d="M -4 4 
L 4 -4 
M -4 -4 
L 4 4 
" style="stroke: #000000; stroke-width: 2"/>
     </defs>
     <g>
      <use xlink:href="#mea7a4e7954" x="368.310667" y="51.411208" style="fill: #008000; stroke: #000000; stroke-width: 2"/>
     </g>
    </g>
    <g id="text_16">
     <!-- N=8 -->
     <g transform="translate(386.310667 54.911208) scale(0.1 -0.1)">
      <defs>
       <path id="DejaVuSerif-38" d="M 2981 1275 
Q 2981 1775 2732 2051 
Q 2484 2328 2034 2328 
Q 1584 2328 1336 2051 
Q 1088 1775 1088 1275 
Q 1088 772 1336 495 
Q 1584 219 2034 219 
Q 2484 219 2732 495 
Q 2981 772 2981 1275 
z
M 2853 3541 
Q 2853 3966 2637 4203 
Q 2422 4441 2034 4441 
Q 1650 4441 1433 4203 
Q 1216 3966 1216 3541 
Q 1216 3113 1433 2875 
Q 1650 2638 2034 2638 
Q 2422 2638 2637 2875 
Q 2853 3113 2853 3541 
z
M 2516 2484 
Q 3047 2413 3344 2092 
Q 3641 1772 3641 1275 
Q 3641 619 3225 264 
Q 2809 -91 2034 -91 
Q 1263 -91 845 264 
Q 428 619 428 1275 
Q 428 1772 725 2092 
Q 1022 2413 1556 2484 
Q 1084 2569 832 2842 
Q 581 3116 581 3541 
Q 581 4103 968 4426 
Q 1356 4750 2034 4750 
Q 2713 4750 3100 4426 
Q 3488 4103 3488 3541 
Q 3488 3116 3236 2842 
Q 2984 2569 2516 2484 
z
" transform="scale(0.015625)"/>
      </defs>
      <use xlink:href="#DejaVuSerif-4e"/>
      <use xlink:href="#DejaVuSerif-3d" x="87.5"/>
      <use xlink:href="#DejaVuSerif-38" x="171.289062"/>
     </g>
    </g>
    <g id="line2d_30">
     <path d="M 358.310667 66.089333 
L 368.310667 66.089333 
L 378.310667 66.089333 
" style="fill: none; stroke: #0000ff; stroke-width: 1.25; stroke-linejoin: miter"/>
     <defs>
      <path id="m1413854786" d="M -4 4 
L 4 -4 
M -4 -4 
L 4 4 
" style="stroke: #000000; stroke-width: 2"/>
     </defs>
     <g>
      <use xlink:href="#m1413854786" x="368.310667" y="66.089333" style="fill: #0000ff; stroke: #000000; stroke-width: 2"/>
     </g>
    </g>
    <g id="text_17">
     <!-- N=10 -->
     <g transform="translate(386.310667 69.589333) scale(0.1 -0.1)">
      <use xlink:href="#DejaVuSerif-4e"/>
      <use xlink:href="#DejaVuSerif-3d" x="87.5"/>
      <use xlink:href="#DejaVuSerif-31" x="171.289062"/>
      <use xlink:href="#DejaVuSerif-30" x="234.912109"/>
     </g>
    </g>
    <g id="line2d_31">
     <path d="M 358.310667 80.767458 
L 368.310667 80.767458 
L 378.310667 80.767458 
" style="fill: none; stroke: #ffa500; stroke-width: 1.25; stroke-linejoin: miter"/>
     <defs>
      <path id="m045e889799" d="M -4 4 
L 4 -4 
M -4 -4 
L 4 4 
" style="stroke: #000000; stroke-width: 2"/>
     </defs>
     <g>
      <use xlink:href="#m045e889799" x="368.310667" y="80.767458" style="fill: #ffa500; stroke: #000000; stroke-width: 2"/>
     </g>
    </g>
    <g id="text_18">
     <!-- N=12 -->
     <g transform="translate(386.310667 84.267458) scale(0.1 -0.1)">
      <use xlink:href="#DejaVuSerif-4e"/>
      <use xlink:href="#DejaVuSerif-3d" x="87.5"/>
      <use xlink:href="#DejaVuSerif-31" x="171.289062"/>
      <use xlink:href="#DejaVuSerif-32" x="234.912109"/>
     </g>
    </g>
   </g>
  </g>
 </g>
 <defs>
  <clipPath id="pf410749fdc">
   <rect x="41.160173" y="19.634646" width="388.005181" height="232.110709"/>
  </clipPath>
 </defs>
</svg>
