<?xml version="1.0" encoding="utf-8" standalone="no"?>
<!DOCTYPE svg PUBLIC "-//W3C//DTD SVG 1.1//EN"
  "http://www.w3.org/Graphics/SVG/1.1/DTD/svg11.dtd">
<svg xmlns:xlink="http://www.w3.org/1999/xlink" width="432pt" height="288pt" viewBox="0 0 432 288" xmlns="http://www.w3.org/2000/svg" version="1.1">
 <metadata>
  <rdf:RDF xmlns:dc="http://purl.org/dc/elements/1.1/" xmlns:cc="http://creativecommons.org/ns#" xmlns:rdf="http://www.w3.org/1999/02/22-rdf-syntax-ns#">
   <cc:Work>
    <dc:type rdf:resource="http://purl.org/dc/dcmitype/StillImage"/>
    <dc:date>2024-07-19T17:00:02.834403</dc:date>
    <dc:format>image/svg+xml</dc:format>
    <dc:creator>
     <cc:Agent>
      <dc:title>Matplotlib v3.9.1, https://matplotlib.org/</dc:title>
     </cc:Agent>
    </dc:creator>
   </cc:Work>
  </rdf:RDF>
 </metadata>
 <defs>
  <style type="text/css">*{stroke-linejoin: round; stroke-linecap: butt}</style>
 </defs>
 <g id="figure_1">
  <g id="patch_1">
   <path d="M 0 288 
L 432 288 
L 432 0 
L 0 0 
z
" style="fill: #ffffff"/>
  </g>
  <g id="axes_1">
   <g id="patch_2">
    <path d="M 69.282361 245.985354 
L 428.50462 245.985354 
L 428.50462 2.834646 
L 69.282361 2.834646 
z
" style="fill: #ffffff"/>
   </g>
   <g id="line2d_1">
    <path d="M 79.449028 9.716269 
L 192.412003 88.678245 
L 305.374978 171.856216 
L 418.337952 239.103731 
" clip-path="url(#p852e7962aa)" style="fill: none; stroke: #000000"/>
   </g>
   <g id="PathCollection_1">
    <defs>
     <path id="m2348f1eee3" d="M -2.870126 -6.929096 
L -6.929096 -2.870126 
L -6.929096 2.870126 
L -2.870126 6.929096 
L 2.870126 6.929096 
L 6.929096 2.870126 
L 6.929096 -2.870126 
L 2.870126 -6.929096 
z
" style="stroke: #000000"/>
    </defs>
    <g clip-path="url(#p852e7962aa)">
     <use xlink:href="#m2348f1eee3" x="79.449028" y="9.716269" style="stroke: #000000"/>
     <use xlink:href="#m2348f1eee3" x="192.412003" y="88.678245" style="stroke: #000000"/>
     <use xlink:href="#m2348f1eee3" x="305.374978" y="171.856216" style="stroke: #000000"/>
     <use xlink:href="#m2348f1eee3" x="418.337952" y="239.103731" style="stroke: #000000"/>
    </g>
   </g>
   <g id="matplotlib.axis_1">
    <g id="xtick_1">
     <g id="line2d_2">
      <defs>
       <path id="m9a64612e67" d="M 0 0 
L 0 -2.5 
" style="stroke: #000000; stroke-width: 0.5"/>
      </defs>
      <g>
       <use xlink:href="#m9a64612e67" x="79.449028" y="245.985354" style="stroke: #000000; stroke-width: 0.5"/>
      </g>
     </g>
     <g id="line2d_3">
      <defs>
       <path id="m7b2d25b2ab" d="M 0 0 
L 0 2.5 
" style="stroke: #000000; stroke-width: 0.5"/>
      </defs>
      <g>
       <use xlink:href="#m7b2d25b2ab" x="79.449028" y="2.834646" style="stroke: #000000; stroke-width: 0.5"/>
      </g>
     </g>
     <g id="text_1">
      <!-- $6$ -->
      <g transform="translate(74.329028 261.642854) scale(0.16 -0.16)">
       <defs>
        <path id="DejaVuSerif-36" d="M 2094 219 
Q 2534 219 2771 542 
Q 3009 866 3009 1472 
Q 3009 2078 2771 2401 
Q 2534 2725 2094 2725 
Q 1647 2725 1412 2412 
Q 1178 2100 1178 1509 
Q 1178 888 1415 553 
Q 1653 219 2094 219 
z
M 1075 2569 
Q 1288 2803 1556 2918 
Q 1825 3034 2163 3034 
Q 2859 3034 3264 2615 
Q 3669 2197 3669 1472 
Q 3669 763 3233 336 
Q 2797 -91 2069 -91 
Q 1278 -91 853 498 
Q 428 1088 428 2181 
Q 428 3406 931 4078 
Q 1434 4750 2350 4750 
Q 2597 4750 2869 4703 
Q 3141 4656 3425 4563 
L 3425 3794 
L 3072 3794 
Q 3034 4109 2831 4275 
Q 2628 4441 2284 4441 
Q 1678 4441 1381 3981 
Q 1084 3522 1075 2569 
z
" transform="scale(0.015625)"/>
       </defs>
       <use xlink:href="#DejaVuSerif-36" transform="translate(0 0.78125)"/>
      </g>
     </g>
    </g>
    <g id="xtick_2">
     <g id="line2d_4">
      <g>
       <use xlink:href="#m9a64612e67" x="192.412003" y="245.985354" style="stroke: #000000; stroke-width: 0.5"/>
      </g>
     </g>
     <g id="line2d_5">
      <g>
       <use xlink:href="#m7b2d25b2ab" x="192.412003" y="2.834646" style="stroke: #000000; stroke-width: 0.5"/>
      </g>
     </g>
     <g id="text_2">
      <!-- $8$ -->
      <g transform="translate(187.292003 261.642854) scale(0.16 -0.16)">
       <defs>
        <path id="DejaVuSerif-38" d="M 2981 1275 
Q 2981 1775 2732 2051 
Q 2484 2328 2034 2328 
Q 1584 2328 1336 2051 
Q 1088 1775 1088 1275 
Q 1088 772 1336 495 
Q 1584 219 2034 219 
Q 2484 219 2732 495 
Q 2981 772 2981 1275 
z
M 2853 3541 
Q 2853 3966 2637 4203 
Q 2422 4441 2034 4441 
Q 1650 4441 1433 4203 
Q 1216 3966 1216 3541 
Q 1216 3113 1433 2875 
Q 1650 2638 2034 2638 
Q 2422 2638 2637 2875 
Q 2853 3113 2853 3541 
z
M 2516 2484 
Q 3047 2413 3344 2092 
Q 3641 1772 3641 1275 
Q 3641 619 3225 264 
Q 2809 -91 2034 -91 
Q 1263 -91 845 264 
Q 428 619 428 1275 
Q 428 1772 725 2092 
Q 1022 2413 1556 2484 
Q 1084 2569 832 2842 
Q 581 3116 581 3541 
Q 581 4103 968 4426 
Q 1356 4750 2034 4750 
Q 2713 4750 3100 4426 
Q 3488 4103 3488 3541 
Q 3488 3116 3236 2842 
Q 2984 2569 2516 2484 
z
" transform="scale(0.015625)"/>
       </defs>
       <use xlink:href="#DejaVuSerif-38" transform="translate(0 0.78125)"/>
      </g>
     </g>
    </g>
    <g id="xtick_3">
     <g id="line2d_6">
      <g>
       <use xlink:href="#m9a64612e67" x="305.374978" y="245.985354" style="stroke: #000000; stroke-width: 0.5"/>
      </g>
     </g>
     <g id="line2d_7">
      <g>
       <use xlink:href="#m7b2d25b2ab" x="305.374978" y="2.834646" style="stroke: #000000; stroke-width: 0.5"/>
      </g>
     </g>
     <g id="text_3">
      <!-- $10$ -->
      <g transform="translate(295.134978 261.642854) scale(0.16 -0.16)">
       <defs>
        <path id="DejaVuSerif-31" d="M 909 0 
L 909 331 
L 1722 331 
L 1722 4213 
L 781 3603 
L 781 4013 
L 1919 4750 
L 2350 4750 
L 2350 331 
L 3163 331 
L 3163 0 
L 909 0 
z
" transform="scale(0.015625)"/>
        <path id="DejaVuSerif-30" d="M 2034 219 
Q 2513 219 2750 744 
Q 2988 1269 2988 2328 
Q 2988 3391 2750 3916 
Q 2513 4441 2034 4441 
Q 1556 4441 1318 3916 
Q 1081 3391 1081 2328 
Q 1081 1269 1318 744 
Q 1556 219 2034 219 
z
M 2034 -91 
Q 1275 -91 848 546 
Q 422 1184 422 2328 
Q 422 3475 848 4112 
Q 1275 4750 2034 4750 
Q 2797 4750 3222 4112 
Q 3647 3475 3647 2328 
Q 3647 1184 3222 546 
Q 2797 -91 2034 -91 
z
" transform="scale(0.015625)"/>
       </defs>
       <use xlink:href="#DejaVuSerif-31" transform="translate(0 0.78125)"/>
       <use xlink:href="#DejaVuSerif-30" transform="translate(63.623047 0.78125)"/>
      </g>
     </g>
    </g>
    <g id="xtick_4">
     <g id="line2d_8">
      <g>
       <use xlink:href="#m9a64612e67" x="418.337952" y="245.985354" style="stroke: #000000; stroke-width: 0.5"/>
      </g>
     </g>
     <g id="line2d_9">
      <g>
       <use xlink:href="#m7b2d25b2ab" x="418.337952" y="2.834646" style="stroke: #000000; stroke-width: 0.5"/>
      </g>
     </g>
     <g id="text_4">
      <!-- $12$ -->
      <g transform="translate(408.097952 261.642854) scale(0.16 -0.16)">
       <defs>
        <path id="DejaVuSerif-32" d="M 819 3553 
L 469 3553 
L 469 4384 
Q 803 4563 1142 4656 
Q 1481 4750 1806 4750 
Q 2534 4750 2956 4397 
Q 3378 4044 3378 3438 
Q 3378 2753 2422 1800 
Q 2347 1728 2309 1691 
L 1131 513 
L 3078 513 
L 3078 1088 
L 3444 1088 
L 3444 0 
L 434 0 
L 434 341 
L 1850 1753 
Q 2319 2222 2519 2614 
Q 2719 3006 2719 3438 
Q 2719 3909 2473 4175 
Q 2228 4441 1797 4441 
Q 1350 4441 1106 4219 
Q 863 3997 819 3553 
z
" transform="scale(0.015625)"/>
       </defs>
       <use xlink:href="#DejaVuSerif-31" transform="translate(0 0.78125)"/>
       <use xlink:href="#DejaVuSerif-32" transform="translate(63.623047 0.78125)"/>
      </g>
     </g>
    </g>
    <g id="text_5">
     <!-- $N$ -->
     <g transform="translate(241.85349 281.127854) scale(0.16 -0.16)">
      <defs>
       <path id="DejaVuSerif-Italic-4e" d="M -128 0 
L -66 331 
L 563 331 
L 1341 4331 
L 713 4331 
L 778 4666 
L 1975 4666 
L 4056 984 
L 4706 4331 
L 4081 4331 
L 4147 4666 
L 5784 4666 
L 5719 4331 
L 5091 4331 
L 4231 -91 
L 3853 -91 
L 1631 3841 
L 947 331 
L 1575 331 
L 1513 0 
L -128 0 
z
" transform="scale(0.015625)"/>
      </defs>
      <use xlink:href="#DejaVuSerif-Italic-4e" transform="translate(0 0.09375)"/>
     </g>
    </g>
   </g>
   <g id="matplotlib.axis_2">
    <g id="ytick_1">
     <g id="line2d_10">
      <defs>
       <path id="m682021ee43" d="M 0 0 
L 2.5 0 
" style="stroke: #000000; stroke-width: 0.5"/>
      </defs>
      <g>
       <use xlink:href="#m682021ee43" x="69.282361" y="229.941901" style="stroke: #000000; stroke-width: 0.5"/>
      </g>
     </g>
     <g id="line2d_11">
      <defs>
       <path id="mfd04b61673" d="M 0 0 
L -2.5 0 
" style="stroke: #000000; stroke-width: 0.5"/>
      </defs>
      <g>
       <use xlink:href="#mfd04b61673" x="428.50462" y="229.941901" style="stroke: #000000; stroke-width: 0.5"/>
      </g>
     </g>
     <g id="text_6">
      <!-- $-2.2$ -->
      <g transform="translate(27.222361 236.020651) scale(0.16 -0.16)">
       <defs>
        <path id="DejaVuSerif-2212" d="M 678 2259 
L 4684 2259 
L 4684 1753 
L 678 1753 
L 678 2259 
z
" transform="scale(0.015625)"/>
        <path id="DejaVuSerif-2e" d="M 603 325 
Q 603 500 722 622 
Q 841 744 1019 744 
Q 1191 744 1312 622 
Q 1434 500 1434 325 
Q 1434 153 1312 31 
Q 1191 -91 1019 -91 
Q 841 -91 722 29 
Q 603 150 603 325 
z
" transform="scale(0.015625)"/>
       </defs>
       <use xlink:href="#DejaVuSerif-2212" transform="translate(0 0.78125)"/>
       <use xlink:href="#DejaVuSerif-32" transform="translate(83.789062 0.78125)"/>
       <use xlink:href="#DejaVuSerif-2e" transform="translate(147.412109 0.78125)"/>
       <use xlink:href="#DejaVuSerif-32" transform="translate(176.574219 0.78125)"/>
      </g>
     </g>
    </g>
    <g id="ytick_2">
     <g id="line2d_12">
      <g>
       <use xlink:href="#m682021ee43" x="69.282361" y="177.137315" style="stroke: #000000; stroke-width: 0.5"/>
      </g>
     </g>
     <g id="line2d_13">
      <g>
       <use xlink:href="#mfd04b61673" x="428.50462" y="177.137315" style="stroke: #000000; stroke-width: 0.5"/>
      </g>
     </g>
     <g id="text_7">
      <!-- $-2.0$ -->
      <g transform="translate(26.902361 183.216065) scale(0.16 -0.16)">
       <use xlink:href="#DejaVuSerif-2212" transform="translate(0 0.78125)"/>
       <use xlink:href="#DejaVuSerif-32" transform="translate(83.789062 0.78125)"/>
       <use xlink:href="#DejaVuSerif-2e" transform="translate(147.412109 0.78125)"/>
       <use xlink:href="#DejaVuSerif-30" transform="translate(179.199219 0.78125)"/>
      </g>
     </g>
    </g>
    <g id="ytick_3">
     <g id="line2d_14">
      <g>
       <use xlink:href="#m682021ee43" x="69.282361" y="124.332729" style="stroke: #000000; stroke-width: 0.5"/>
      </g>
     </g>
     <g id="line2d_15">
      <g>
       <use xlink:href="#mfd04b61673" x="428.50462" y="124.332729" style="stroke: #000000; stroke-width: 0.5"/>
      </g>
     </g>
     <g id="text_8">
      <!-- $-1.8$ -->
      <g transform="translate(27.382361 130.411479) scale(0.16 -0.16)">
       <use xlink:href="#DejaVuSerif-2212" transform="translate(0 0.78125)"/>
       <use xlink:href="#DejaVuSerif-31" transform="translate(83.789062 0.78125)"/>
       <use xlink:href="#DejaVuSerif-2e" transform="translate(147.412109 0.78125)"/>
       <use xlink:href="#DejaVuSerif-38" transform="translate(175.574219 0.78125)"/>
      </g>
     </g>
    </g>
    <g id="ytick_4">
     <g id="line2d_16">
      <g>
       <use xlink:href="#m682021ee43" x="69.282361" y="71.528143" style="stroke: #000000; stroke-width: 0.5"/>
      </g>
     </g>
     <g id="line2d_17">
      <g>
       <use xlink:href="#mfd04b61673" x="428.50462" y="71.528143" style="stroke: #000000; stroke-width: 0.5"/>
      </g>
     </g>
     <g id="text_9">
      <!-- $-1.6$ -->
      <g transform="translate(26.902361 77.606893) scale(0.16 -0.16)">
       <use xlink:href="#DejaVuSerif-2212" transform="translate(0 0.78125)"/>
       <use xlink:href="#DejaVuSerif-31" transform="translate(83.789062 0.78125)"/>
       <use xlink:href="#DejaVuSerif-2e" transform="translate(147.412109 0.78125)"/>
       <use xlink:href="#DejaVuSerif-36" transform="translate(179.199219 0.78125)"/>
      </g>
     </g>
    </g>
    <g id="ytick_5">
     <g id="line2d_18">
      <g>
       <use xlink:href="#m682021ee43" x="69.282361" y="18.723557" style="stroke: #000000; stroke-width: 0.5"/>
      </g>
     </g>
     <g id="line2d_19">
      <g>
       <use xlink:href="#mfd04b61673" x="428.50462" y="18.723557" style="stroke: #000000; stroke-width: 0.5"/>
      </g>
     </g>
     <g id="text_10">
      <!-- $-1.4$ -->
      <g transform="translate(26.902361 24.802307) scale(0.16 -0.16)">
       <defs>
        <path id="DejaVuSerif-34" d="M 2234 1581 
L 2234 4063 
L 641 1581 
L 2234 1581 
z
M 3609 0 
L 1484 0 
L 1484 331 
L 2234 331 
L 2234 1247 
L 197 1247 
L 197 1588 
L 2241 4750 
L 2859 4750 
L 2859 1581 
L 3750 1581 
L 3750 1247 
L 2859 1247 
L 2859 331 
L 3609 331 
L 3609 0 
z
" transform="scale(0.015625)"/>
       </defs>
       <use xlink:href="#DejaVuSerif-2212" transform="translate(0 0.78125)"/>
       <use xlink:href="#DejaVuSerif-31" transform="translate(83.789062 0.78125)"/>
       <use xlink:href="#DejaVuSerif-2e" transform="translate(147.412109 0.78125)"/>
       <use xlink:href="#DejaVuSerif-34" transform="translate(179.199219 0.78125)"/>
      </g>
     </g>
    </g>
    <g id="text_11">
     <!-- $\ln \Vert ES(P_N)-ES(B_N) \Vert_{\infty}$ -->
     <g transform="translate(19.062361 212.73) rotate(-90) scale(0.16 -0.16)">
      <defs>
       <path id="DejaVuSerif-6c" d="M 1313 331 
L 1856 331 
L 1856 0 
L 184 0 
L 184 331 
L 738 331 
L 738 4531 
L 184 4531 
L 184 4863 
L 1313 4863 
L 1313 331 
z
" transform="scale(0.015625)"/>
       <path id="DejaVuSerif-6e" d="M 263 0 
L 263 331 
L 781 331 
L 781 2988 
L 231 2988 
L 231 3322 
L 1356 3322 
L 1356 2731 
Q 1516 3069 1770 3241 
Q 2025 3413 2363 3413 
Q 2913 3413 3172 3097 
Q 3431 2781 3431 2113 
L 3431 331 
L 3944 331 
L 3944 0 
L 2356 0 
L 2356 331 
L 2853 331 
L 2853 1931 
Q 2853 2541 2703 2767 
Q 2553 2994 2175 2994 
Q 1775 2994 1565 2701 
Q 1356 2409 1356 1850 
L 1356 331 
L 1856 331 
L 1856 0 
L 263 0 
z
" transform="scale(0.015625)"/>
       <path id="DejaVuSerif-2016" d="M 2363 4891 
L 2363 -1509 
L 1857 -1509 
L 1857 4891 
L 2363 4891 
z
M 1331 4891 
L 1331 -1509 
L 825 -1509 
L 825 4891 
L 1331 4891 
z
" transform="scale(0.015625)"/>
       <path id="DejaVuSerif-Italic-45" d="M -97 0 
L -34 331 
L 559 331 
L 1338 4331 
L 744 4331 
L 809 4666 
L 4566 4666 
L 4366 3628 
L 3981 3628 
L 4106 4281 
L 1963 4281 
L 1659 2719 
L 3188 2719 
L 3300 3303 
L 3684 3303 
L 3384 1753 
L 3000 1753 
L 3113 2338 
L 1584 2338 
L 1206 384 
L 3400 384 
L 3525 1038 
L 3909 1038 
L 3709 0 
L -97 0 
z
" transform="scale(0.015625)"/>
       <path id="DejaVuSerif-Italic-53" d="M 184 225 
L 391 1288 
L 750 1284 
Q 663 753 905 498 
Q 1147 244 1744 244 
Q 2300 244 2636 464 
Q 2972 684 3053 1106 
Q 3119 1444 2976 1625 
Q 2834 1806 2300 1978 
L 1722 2163 
Q 1091 2366 877 2669 
Q 663 2972 766 3500 
Q 881 4094 1367 4422 
Q 1853 4750 2616 4750 
Q 2941 4750 3314 4679 
Q 3688 4609 4097 4475 
L 3906 3481 
L 3553 3481 
Q 3594 3975 3361 4195 
Q 3128 4416 2563 4416 
Q 2069 4416 1772 4214 
Q 1475 4013 1400 3628 
Q 1334 3294 1490 3103 
Q 1647 2913 2241 2725 
L 2784 2553 
Q 3381 2363 3593 2067 
Q 3806 1772 3709 1275 
Q 3578 597 3076 253 
Q 2575 -91 1716 -91 
Q 1331 -91 948 -12 
Q 566 66 184 225 
z
" transform="scale(0.015625)"/>
       <path id="DejaVuSerif-28" d="M 2041 -997 
Q 1281 -656 893 83 
Q 506 822 506 1931 
Q 506 3044 893 3783 
Q 1281 4522 2041 4863 
L 2041 4556 
Q 1559 4225 1350 3623 
Q 1141 3022 1141 1931 
Q 1141 844 1350 242 
Q 1559 -359 2041 -691 
L 2041 -997 
z
" transform="scale(0.015625)"/>
       <path id="DejaVuSerif-Italic-50" d="M 1594 2375 
L 2419 2375 
Q 2884 2375 3176 2626 
Q 3469 2878 3559 3353 
Q 3653 3831 3458 4081 
Q 3263 4331 2797 4331 
L 1972 4331 
L 1594 2375 
z
M -97 0 
L -34 331 
L 559 331 
L 1338 4331 
L 744 4331 
L 809 4666 
L 3016 4666 
Q 3716 4666 4056 4311 
Q 4397 3956 4278 3353 
Q 4163 2753 3684 2397 
Q 3206 2041 2506 2041 
L 1528 2041 
L 1194 331 
L 1916 331 
L 1853 0 
L -97 0 
z
" transform="scale(0.015625)"/>
       <path id="DejaVuSerif-29" d="M 453 -997 
L 453 -691 
Q 934 -359 1145 242 
Q 1356 844 1356 1931 
Q 1356 3022 1145 3623 
Q 934 4225 453 4556 
L 453 4863 
Q 1216 4522 1603 3783 
Q 1991 3044 1991 1931 
Q 1991 822 1603 83 
Q 1216 -656 453 -997 
z
" transform="scale(0.015625)"/>
       <path id="DejaVuSerif-Italic-42" d="M 1194 331 
L 2128 331 
Q 2691 331 2998 575 
Q 3306 819 3409 1350 
Q 3513 1878 3302 2120 
Q 3091 2363 2525 2363 
L 1591 2363 
L 1194 331 
z
M 1653 2694 
L 2447 2694 
Q 2959 2694 3234 2891 
Q 3509 3088 3591 3513 
Q 3675 3941 3476 4136 
Q 3278 4331 2766 4331 
L 1972 4331 
L 1653 2694 
z
M -97 0 
L -34 331 
L 559 331 
L 1338 4331 
L 744 4331 
L 809 4666 
L 3113 4666 
Q 3819 4666 4120 4377 
Q 4422 4088 4309 3513 
Q 4231 3097 3934 2850 
Q 3638 2603 3147 2547 
Q 3728 2472 3976 2167 
Q 4225 1863 4125 1350 
Q 3991 656 3489 328 
Q 2988 0 2059 0 
L -97 0 
z
" transform="scale(0.015625)"/>
       <path id="DejaVuSerif-221e" d="M 2859 1747 
Q 3016 1469 3223 1330 
Q 3431 1191 3694 1191 
Q 4009 1191 4209 1402 
Q 4409 1613 4409 1941 
Q 4409 2256 4225 2465 
Q 4041 2675 3763 2675 
Q 3509 2675 3304 2467 
Q 3100 2259 2859 1747 
z
M 2478 2081 
Q 2325 2356 2117 2493 
Q 1909 2631 1644 2631 
Q 1328 2631 1128 2423 
Q 928 2216 928 1888 
Q 928 1572 1112 1362 
Q 1297 1153 1575 1153 
Q 1828 1153 2033 1359 
Q 2238 1566 2478 2081 
z
M 2700 1509 
Q 2478 1084 2236 887 
Q 1994 691 1697 691 
Q 1275 691 983 1041 
Q 691 1391 691 1906 
Q 691 2453 952 2790 
Q 1213 3128 1631 3128 
Q 1928 3128 2162 2936 
Q 2397 2744 2631 2303 
Q 2844 2734 3091 2939 
Q 3338 3144 3641 3144 
Q 4056 3144 4351 2791 
Q 4647 2438 4647 1919 
Q 4647 1375 4386 1039 
Q 4125 703 3706 703 
Q 3409 703 3179 886 
Q 2950 1069 2700 1509 
z
" transform="scale(0.015625)"/>
      </defs>
      <use xlink:href="#DejaVuSerif-6c" transform="translate(0 0.578125)"/>
      <use xlink:href="#DejaVuSerif-6e" transform="translate(31.982422 0.578125)"/>
      <use xlink:href="#DejaVuSerif-2016" transform="translate(112.191071 0.578125)"/>
      <use xlink:href="#DejaVuSerif-Italic-45" transform="translate(162.191071 0.578125)"/>
      <use xlink:href="#DejaVuSerif-Italic-53" transform="translate(235.189118 0.578125)"/>
      <use xlink:href="#DejaVuSerif-28" transform="translate(303.694978 0.578125)"/>
      <use xlink:href="#DejaVuSerif-Italic-50" transform="translate(342.708649 0.578125)"/>
      <use xlink:href="#DejaVuSerif-Italic-4e" transform="translate(409.993806 -14.99375) scale(0.7)"/>
      <use xlink:href="#DejaVuSerif-29" transform="translate(473.839118 0.578125)"/>
      <use xlink:href="#DejaVuSerif-2212" transform="translate(531.817634 0.578125)"/>
      <use xlink:href="#DejaVuSerif-Italic-45" transform="translate(634.57154 0.578125)"/>
      <use xlink:href="#DejaVuSerif-Italic-53" transform="translate(707.569587 0.578125)"/>
      <use xlink:href="#DejaVuSerif-28" transform="translate(776.075446 0.578125)"/>
      <use xlink:href="#DejaVuSerif-Italic-42" transform="translate(815.089118 0.578125)"/>
      <use xlink:href="#DejaVuSerif-Italic-4e" transform="translate(888.575446 -14.99375) scale(0.7)"/>
      <use xlink:href="#DejaVuSerif-29" transform="translate(952.420759 0.578125)"/>
      <use xlink:href="#DejaVuSerif-2016" transform="translate(991.434431 0.578125)"/>
      <use xlink:href="#DejaVuSerif-221e" transform="translate(1042.34279 -14.99375) scale(0.7)"/>
     </g>
    </g>
   </g>
   <g id="patch_3">
    <path d="M 69.282361 245.985354 
L 69.282361 2.834646 
" style="fill: none; stroke: #000000; stroke-linejoin: miter; stroke-linecap: square"/>
   </g>
   <g id="patch_4">
    <path d="M 428.50462 245.985354 
L 428.50462 2.834646 
" style="fill: none; stroke: #000000; stroke-linejoin: miter; stroke-linecap: square"/>
   </g>
   <g id="patch_5">
    <path d="M 69.282361 245.985354 
L 428.50462 245.985354 
" style="fill: none; stroke: #000000; stroke-linejoin: miter; stroke-linecap: square"/>
   </g>
   <g id="patch_6">
    <path d="M 69.282361 2.834646 
L 428.50462 2.834646 
" style="fill: none; stroke: #000000; stroke-linejoin: miter; stroke-linecap: square"/>
   </g>
  </g>
 </g>
 <defs>
  <clipPath id="p852e7962aa">
   <rect x="69.282361" y="2.834646" width="359.222259" height="243.150709"/>
  </clipPath>
 </defs>
</svg>
