<?xml version="1.0" encoding="utf-8" standalone="no"?>
<!DOCTYPE svg PUBLIC "-//W3C//DTD SVG 1.1//EN"
  "http://www.w3.org/Graphics/SVG/1.1/DTD/svg11.dtd">
<svg xmlns:xlink="http://www.w3.org/1999/xlink" width="432pt" height="288pt" viewBox="0 0 432 288" xmlns="http://www.w3.org/2000/svg" version="1.1">
 <metadata>
  <rdf:RDF xmlns:dc="http://purl.org/dc/elements/1.1/" xmlns:cc="http://creativecommons.org/ns#" xmlns:rdf="http://www.w3.org/1999/02/22-rdf-syntax-ns#">
   <cc:Work>
    <dc:type rdf:resource="http://purl.org/dc/dcmitype/StillImage"/>
    <dc:date>2024-07-15T10:51:20.688821</dc:date>
    <dc:format>image/svg+xml</dc:format>
    <dc:creator>
     <cc:Agent>
      <dc:title>Matplotlib v3.9.1, https://matplotlib.org/</dc:title>
     </cc:Agent>
    </dc:creator>
   </cc:Work>
  </rdf:RDF>
 </metadata>
 <defs>
  <style type="text/css">*{stroke-linejoin: round; stroke-linecap: butt}</style>
 </defs>
 <g id="figure_1">
  <g id="patch_1">
   <path d="M 0 288 
L 432 288 
L 432 0 
L 0 0 
z
" style="fill: #ffffff"/>
  </g>
  <g id="axes_1">
   <g id="patch_2">
    <path d="M 48.2667 254.625354 
L 429.165354 254.625354 
L 429.165354 19.634646 
L 48.2667 19.634646 
z
" style="fill: #ffffff"/>
   </g>
   <g id="line2d_1">
    <path d="M -1 123.077507 
L 433 123.077507 
" clip-path="url(#p4de3dd9435)" style="fill: none; stroke-dasharray: 3.7,1.6; stroke-dashoffset: 0; stroke: #8c8c8c"/>
   </g>
   <g id="line2d_2">
    <path d="M -1 163.127997 
L 433 163.127997 
" clip-path="url(#p4de3dd9435)" style="fill: none; stroke-dasharray: 3.7,1.6; stroke-dashoffset: 0; stroke: #8c8c8c"/>
   </g>
   <g id="line2d_3">
    <path d="M -1 203.178488 
L 433 203.178488 
" clip-path="url(#p4de3dd9435)" style="fill: none; stroke-dasharray: 3.7,1.6; stroke-dashoffset: 0; stroke: #8c8c8c"/>
   </g>
   <g id="line2d_4">
    <path d="M -1 243.228979 
L 433 243.228979 
" clip-path="url(#p4de3dd9435)" style="fill: none; stroke-dasharray: 3.7,1.6; stroke-dashoffset: 0; stroke: #8c8c8c"/>
   </g>
   <g id="matplotlib.axis_1">
    <g id="xtick_1">
     <g id="line2d_5">
      <defs>
       <path id="m97ce57430b" d="M 0 0 
L 0 -2.5 
" style="stroke: #000000; stroke-width: 0.5"/>
      </defs>
      <g>
       <use xlink:href="#m97ce57430b" x="108.047535" y="254.625354" style="stroke: #000000; stroke-width: 0.5"/>
      </g>
     </g>
     <g id="line2d_6">
      <defs>
       <path id="m7af24e6a84" d="M 0 0 
L 0 2.5 
" style="stroke: #000000; stroke-width: 0.5"/>
      </defs>
      <g>
       <use xlink:href="#m7af24e6a84" x="108.047535" y="19.634646" style="stroke: #000000; stroke-width: 0.5"/>
      </g>
     </g>
     <g id="text_1">
      <!-- $2.5$ -->
      <g transform="translate(100.047535 265.723792) scale(0.1 -0.1)">
       <defs>
        <path id="DejaVuSerif-32" d="M 819 3553 
L 469 3553 
L 469 4384 
Q 803 4563 1142 4656 
Q 1481 4750 1806 4750 
Q 2534 4750 2956 4397 
Q 3378 4044 3378 3438 
Q 3378 2753 2422 1800 
Q 2347 1728 2309 1691 
L 1131 513 
L 3078 513 
L 3078 1088 
L 3444 1088 
L 3444 0 
L 434 0 
L 434 341 
L 1850 1753 
Q 2319 2222 2519 2614 
Q 2719 3006 2719 3438 
Q 2719 3909 2473 4175 
Q 2228 4441 1797 4441 
Q 1350 4441 1106 4219 
Q 863 3997 819 3553 
z
" transform="scale(0.015625)"/>
        <path id="DejaVuSerif-2e" d="M 603 325 
Q 603 500 722 622 
Q 841 744 1019 744 
Q 1191 744 1312 622 
Q 1434 500 1434 325 
Q 1434 153 1312 31 
Q 1191 -91 1019 -91 
Q 841 -91 722 29 
Q 603 150 603 325 
z
" transform="scale(0.015625)"/>
        <path id="DejaVuSerif-35" d="M 3219 4666 
L 3219 4153 
L 1081 4153 
L 1081 2816 
Q 1244 2928 1461 2984 
Q 1678 3041 1947 3041 
Q 2703 3041 3140 2622 
Q 3578 2203 3578 1478 
Q 3578 738 3136 323 
Q 2694 -91 1894 -91 
Q 1572 -91 1234 -12 
Q 897 66 544 225 
L 544 1131 
L 897 1131 
Q 925 688 1179 453 
Q 1434 219 1894 219 
Q 2388 219 2653 544 
Q 2919 869 2919 1478 
Q 2919 2084 2655 2407 
Q 2391 2731 1894 2731 
Q 1613 2731 1398 2631 
Q 1184 2531 1019 2322 
L 750 2322 
L 750 4666 
L 3219 4666 
z
" transform="scale(0.015625)"/>
       </defs>
       <use xlink:href="#DejaVuSerif-32" transform="translate(0 0.78125)"/>
       <use xlink:href="#DejaVuSerif-2e" transform="translate(63.623047 0.78125)"/>
       <use xlink:href="#DejaVuSerif-35" transform="translate(95.410156 0.78125)"/>
      </g>
     </g>
    </g>
    <g id="xtick_2">
     <g id="line2d_7">
      <g>
       <use xlink:href="#m97ce57430b" x="189.715342" y="254.625354" style="stroke: #000000; stroke-width: 0.5"/>
      </g>
     </g>
     <g id="line2d_8">
      <g>
       <use xlink:href="#m7af24e6a84" x="189.715342" y="19.634646" style="stroke: #000000; stroke-width: 0.5"/>
      </g>
     </g>
     <g id="text_2">
      <!-- $5.0$ -->
      <g transform="translate(181.715342 265.723792) scale(0.1 -0.1)">
       <defs>
        <path id="DejaVuSerif-30" d="M 2034 219 
Q 2513 219 2750 744 
Q 2988 1269 2988 2328 
Q 2988 3391 2750 3916 
Q 2513 4441 2034 4441 
Q 1556 4441 1318 3916 
Q 1081 3391 1081 2328 
Q 1081 1269 1318 744 
Q 1556 219 2034 219 
z
M 2034 -91 
Q 1275 -91 848 546 
Q 422 1184 422 2328 
Q 422 3475 848 4112 
Q 1275 4750 2034 4750 
Q 2797 4750 3222 4112 
Q 3647 3475 3647 2328 
Q 3647 1184 3222 546 
Q 2797 -91 2034 -91 
z
" transform="scale(0.015625)"/>
       </defs>
       <use xlink:href="#DejaVuSerif-35" transform="translate(0 0.78125)"/>
       <use xlink:href="#DejaVuSerif-2e" transform="translate(63.623047 0.78125)"/>
       <use xlink:href="#DejaVuSerif-30" transform="translate(95.410156 0.78125)"/>
      </g>
     </g>
    </g>
    <g id="xtick_3">
     <g id="line2d_9">
      <g>
       <use xlink:href="#m97ce57430b" x="271.38315" y="254.625354" style="stroke: #000000; stroke-width: 0.5"/>
      </g>
     </g>
     <g id="line2d_10">
      <g>
       <use xlink:href="#m7af24e6a84" x="271.38315" y="19.634646" style="stroke: #000000; stroke-width: 0.5"/>
      </g>
     </g>
     <g id="text_3">
      <!-- $7.5$ -->
      <g transform="translate(263.38315 265.723792) scale(0.1 -0.1)">
       <defs>
        <path id="DejaVuSerif-37" d="M 3609 4347 
L 1784 0 
L 1319 0 
L 3059 4153 
L 903 4153 
L 903 3578 
L 538 3578 
L 538 4666 
L 3609 4666 
L 3609 4347 
z
" transform="scale(0.015625)"/>
       </defs>
       <use xlink:href="#DejaVuSerif-37" transform="translate(0 0.09375)"/>
       <use xlink:href="#DejaVuSerif-2e" transform="translate(63.623047 0.09375)"/>
       <use xlink:href="#DejaVuSerif-35" transform="translate(95.410156 0.09375)"/>
      </g>
     </g>
    </g>
    <g id="xtick_4">
     <g id="line2d_11">
      <g>
       <use xlink:href="#m97ce57430b" x="353.050958" y="254.625354" style="stroke: #000000; stroke-width: 0.5"/>
      </g>
     </g>
     <g id="line2d_12">
      <g>
       <use xlink:href="#m7af24e6a84" x="353.050958" y="19.634646" style="stroke: #000000; stroke-width: 0.5"/>
      </g>
     </g>
     <g id="text_4">
      <!-- $10.0$ -->
      <g transform="translate(341.900958 265.723792) scale(0.1 -0.1)">
       <defs>
        <path id="DejaVuSerif-31" d="M 909 0 
L 909 331 
L 1722 331 
L 1722 4213 
L 781 3603 
L 781 4013 
L 1919 4750 
L 2350 4750 
L 2350 331 
L 3163 331 
L 3163 0 
L 909 0 
z
" transform="scale(0.015625)"/>
       </defs>
       <use xlink:href="#DejaVuSerif-31" transform="translate(0 0.78125)"/>
       <use xlink:href="#DejaVuSerif-30" transform="translate(63.623047 0.78125)"/>
       <use xlink:href="#DejaVuSerif-2e" transform="translate(127.246094 0.78125)"/>
       <use xlink:href="#DejaVuSerif-30" transform="translate(159.033203 0.78125)"/>
      </g>
     </g>
    </g>
    <g id="text_5">
     <!-- $n_H$ -->
     <g transform="translate(230.976027 280.921604) scale(0.12 -0.12)">
      <defs>
       <path id="DejaVuSerif-Italic-6e" d="M 450 0 
L 1031 2988 
L 481 2988 
L 544 3322 
L 1669 3322 
L 1556 2731 
Q 1781 3069 2068 3241 
Q 2356 3413 2694 3413 
Q 3244 3413 3444 3097 
Q 3563 2906 3563 2588 
Q 3563 2378 3509 2113 
L 3163 331 
L 3675 331 
L 3613 0 
L 2522 0 
L 2897 1931 
Q 2959 2253 2959 2469 
Q 2959 2659 2909 2769 
Q 2803 2994 2425 2994 
Q 2025 2994 1759 2701 
Q 1494 2409 1384 1850 
L 1025 0 
L 450 0 
z
" transform="scale(0.015625)"/>
       <path id="DejaVuSerif-Italic-48" d="M -97 0 
L -34 331 
L 559 331 
L 1338 4331 
L 744 4331 
L 809 4666 
L 2631 4666 
L 2566 4331 
L 1972 4331 
L 1659 2719 
L 4078 2719 
L 4391 4331 
L 3797 4331 
L 3863 4666 
L 5684 4666 
L 5619 4331 
L 5025 4331 
L 4247 331 
L 4841 331 
L 4778 0 
L 2956 0 
L 3019 331 
L 3616 331 
L 4003 2338 
L 1584 2338 
L 1194 331 
L 1788 331 
L 1725 0 
L -97 0 
z
" transform="scale(0.015625)"/>
      </defs>
      <use xlink:href="#DejaVuSerif-Italic-6e" transform="translate(0 0.671875)"/>
      <use xlink:href="#DejaVuSerif-Italic-48" transform="translate(64.404297 -14.9) scale(0.7)"/>
     </g>
    </g>
   </g>
   <g id="matplotlib.axis_2">
    <g id="ytick_1">
     <g id="line2d_13">
      <defs>
       <path id="mcef53d7edf" d="M 0 0 
L 2.5 0 
" style="stroke: #000000; stroke-width: 0.5"/>
      </defs>
      <g>
       <use xlink:href="#mcef53d7edf" x="48.2667" y="215.021649" style="stroke: #000000; stroke-width: 0.5"/>
      </g>
     </g>
     <g id="line2d_14">
      <defs>
       <path id="m05e5d2c523" d="M 0 0 
L -2.5 0 
" style="stroke: #000000; stroke-width: 0.5"/>
      </defs>
      <g>
       <use xlink:href="#m05e5d2c523" x="429.165354" y="215.021649" style="stroke: #000000; stroke-width: 0.5"/>
      </g>
     </g>
     <g id="text_6">
      <!-- $10^{-3}$ -->
      <g transform="translate(21.3667 218.820868) scale(0.1 -0.1)">
       <defs>
        <path id="DejaVuSerif-2212" d="M 678 2259 
L 4684 2259 
L 4684 1753 
L 678 1753 
L 678 2259 
z
" transform="scale(0.015625)"/>
        <path id="DejaVuSerif-33" d="M 622 4469 
Q 988 4606 1323 4678 
Q 1659 4750 1953 4750 
Q 2638 4750 3022 4454 
Q 3406 4159 3406 3634 
Q 3406 3213 3140 2930 
Q 2875 2647 2388 2547 
Q 2963 2466 3280 2130 
Q 3597 1794 3597 1259 
Q 3597 606 3158 257 
Q 2719 -91 1894 -91 
Q 1528 -91 1179 -12 
Q 831 66 488 225 
L 488 1131 
L 838 1131 
Q 869 681 1141 450 
Q 1413 219 1906 219 
Q 2384 219 2661 495 
Q 2938 772 2938 1253 
Q 2938 1803 2653 2086 
Q 2369 2369 1819 2369 
L 1522 2369 
L 1522 2688 
L 1678 2688 
Q 2225 2688 2498 2914 
Q 2772 3141 2772 3597 
Q 2772 4006 2547 4223 
Q 2322 4441 1900 4441 
Q 1478 4441 1245 4241 
Q 1013 4041 972 3647 
L 622 3647 
L 622 4469 
z
" transform="scale(0.015625)"/>
       </defs>
       <use xlink:href="#DejaVuSerif-31" transform="translate(0 0.7125)"/>
       <use xlink:href="#DejaVuSerif-30" transform="translate(63.623047 0.7125)"/>
       <use xlink:href="#DejaVuSerif-2212" transform="translate(128.154453 37.046875) scale(0.7)"/>
       <use xlink:href="#DejaVuSerif-33" transform="translate(186.806797 37.046875) scale(0.7)"/>
      </g>
     </g>
    </g>
    <g id="ytick_2">
     <g id="line2d_15">
      <g>
       <use xlink:href="#mcef53d7edf" x="48.2667" y="114.026743" style="stroke: #000000; stroke-width: 0.5"/>
      </g>
     </g>
     <g id="line2d_16">
      <g>
       <use xlink:href="#m05e5d2c523" x="429.165354" y="114.026743" style="stroke: #000000; stroke-width: 0.5"/>
      </g>
     </g>
     <g id="text_7">
      <!-- $10^{-2}$ -->
      <g transform="translate(21.3667 117.825962) scale(0.1 -0.1)">
       <use xlink:href="#DejaVuSerif-31" transform="translate(0 0.7125)"/>
       <use xlink:href="#DejaVuSerif-30" transform="translate(63.623047 0.7125)"/>
       <use xlink:href="#DejaVuSerif-2212" transform="translate(128.154453 37.046875) scale(0.7)"/>
       <use xlink:href="#DejaVuSerif-32" transform="translate(186.806797 37.046875) scale(0.7)"/>
      </g>
     </g>
    </g>
    <g id="text_8">
     <!-- $P(\lambda &gt; 4)$ -->
     <g transform="translate(14.871075 160.83) rotate(-90) scale(0.12 -0.12)">
      <defs>
       <path id="DejaVuSerif-Italic-50" d="M 1594 2375 
L 2419 2375 
Q 2884 2375 3176 2626 
Q 3469 2878 3559 3353 
Q 3653 3831 3458 4081 
Q 3263 4331 2797 4331 
L 1972 4331 
L 1594 2375 
z
M -97 0 
L -34 331 
L 559 331 
L 1338 4331 
L 744 4331 
L 809 4666 
L 3016 4666 
Q 3716 4666 4056 4311 
Q 4397 3956 4278 3353 
Q 4163 2753 3684 2397 
Q 3206 2041 2506 2041 
L 1528 2041 
L 1194 331 
L 1916 331 
L 1853 0 
L -97 0 
z
" transform="scale(0.015625)"/>
       <path id="DejaVuSerif-28" d="M 2041 -997 
Q 1281 -656 893 83 
Q 506 822 506 1931 
Q 506 3044 893 3783 
Q 1281 4522 2041 4863 
L 2041 4556 
Q 1559 4225 1350 3623 
Q 1141 3022 1141 1931 
Q 1141 844 1350 242 
Q 1559 -359 2041 -691 
L 2041 -997 
z
" transform="scale(0.015625)"/>
       <path id="DejaVuSerif-Italic-3bb" d="M 1984 4084 
Q 1925 4372 1834 4466 
Q 1744 4563 1578 4563 
Q 1391 4563 1288 4472 
Q 1178 4378 1119 4166 
L 825 4166 
L 947 4800 
Q 1113 4847 1272 4872 
Q 1431 4897 1578 4897 
Q 1925 4897 2088 4753 
Q 2253 4613 2334 4225 
L 3100 334 
L 3472 334 
L 3406 0 
L 2159 0 
L 2225 334 
L 2722 334 
L 2281 2628 
L 853 334 
L 1384 334 
L 1319 0 
L -209 0 
L -144 334 
L 234 334 
L 2116 3388 
L 1984 4084 
z
" transform="scale(0.015625)"/>
       <path id="DejaVuSerif-3e" d="M 678 3188 
L 678 3719 
L 4684 2266 
L 4684 1747 
L 678 294 
L 678 825 
L 3922 2003 
L 678 3188 
z
" transform="scale(0.015625)"/>
       <path id="DejaVuSerif-34" d="M 2234 1581 
L 2234 4063 
L 641 1581 
L 2234 1581 
z
M 3609 0 
L 1484 0 
L 1484 331 
L 2234 331 
L 2234 1247 
L 197 1247 
L 197 1588 
L 2241 4750 
L 2859 4750 
L 2859 1581 
L 3750 1581 
L 3750 1247 
L 2859 1247 
L 2859 331 
L 3609 331 
L 3609 0 
z
" transform="scale(0.015625)"/>
       <path id="DejaVuSerif-29" d="M 453 -997 
L 453 -691 
Q 934 -359 1145 242 
Q 1356 844 1356 1931 
Q 1356 3022 1145 3623 
Q 934 4225 453 4556 
L 453 4863 
Q 1216 4522 1603 3783 
Q 1991 3044 1991 1931 
Q 1991 822 1603 83 
Q 1216 -656 453 -997 
z
" transform="scale(0.015625)"/>
      </defs>
      <use xlink:href="#DejaVuSerif-Italic-50" transform="translate(0 0.484375)"/>
      <use xlink:href="#DejaVuSerif-28" transform="translate(67.285156 0.484375)"/>
      <use xlink:href="#DejaVuSerif-Italic-3bb" transform="translate(106.298828 0.484375)"/>
      <use xlink:href="#DejaVuSerif-3e" transform="translate(188.642578 0.484375)"/>
      <use xlink:href="#DejaVuSerif-34" transform="translate(291.396484 0.484375)"/>
      <use xlink:href="#DejaVuSerif-29" transform="translate(355.019531 0.484375)"/>
     </g>
    </g>
   </g>
   <g id="line2d_17">
    <path d="M 91.713973 26.285326 
L 94.02377 28.209138 
L 96.333566 30.13295 
L 98.643363 32.056762 
L 100.95316 33.980574 
L 103.262956 35.904386 
L 105.572753 37.828198 
L 107.882549 39.75201 
L 110.192346 41.675821 
L 112.502142 43.599633 
L 114.811939 45.523445 
L 117.121736 47.447257 
L 119.431532 49.371069 
L 121.741329 51.294881 
L 124.051125 53.218693 
L 126.360922 55.142505 
L 128.670718 57.066317 
L 130.980515 58.990129 
L 133.290312 60.913941 
L 135.600108 62.837753 
L 137.909905 64.761564 
L 140.219701 66.685376 
L 142.529498 68.609188 
L 144.839295 70.533 
L 147.149091 72.456812 
L 149.458888 74.380624 
L 151.768684 76.304436 
L 154.078481 78.228248 
L 156.388277 80.15206 
L 158.698074 82.075872 
L 161.007871 83.999684 
L 163.317667 85.923496 
L 165.627464 87.847308 
L 167.93726 89.771119 
L 170.247057 91.694931 
L 172.556854 93.618743 
L 174.86665 95.542555 
L 177.176447 97.466367 
L 179.486243 99.390179 
L 181.79604 101.313991 
L 184.105836 103.237803 
L 186.415633 105.161615 
L 188.72543 107.085427 
L 191.035226 109.009239 
L 193.345023 110.933051 
L 195.654819 112.856862 
L 197.964616 114.780674 
L 200.274412 116.704486 
L 202.584209 118.628298 
L 204.894006 120.55211 
L 207.203802 122.475922 
L 209.513599 124.399734 
L 211.823395 126.323546 
L 214.133192 128.247358 
L 216.442989 130.17117 
L 218.752785 132.094982 
L 221.062582 134.018794 
L 223.372378 135.942606 
L 225.682175 137.866417 
L 227.991971 139.790229 
L 230.301768 141.714041 
L 232.611565 143.637853 
L 234.921361 145.561665 
L 237.231158 147.485477 
L 239.540954 149.409289 
L 241.850751 151.333101 
L 244.160547 153.256913 
L 246.470344 155.180725 
L 248.780141 157.104537 
L 251.089937 159.028349 
L 253.399734 160.95216 
L 255.70953 162.875972 
L 258.019327 164.799784 
L 260.329124 166.723596 
L 262.63892 168.647408 
L 264.948717 170.57122 
L 267.258513 172.495032 
L 269.56831 174.418844 
L 271.878106 176.342656 
L 274.187903 178.266468 
L 276.4977 180.19028 
L 278.807496 182.114092 
L 281.117293 184.037904 
L 283.427089 185.961715 
L 285.736886 187.885527 
L 288.046682 189.809339 
L 290.356479 191.733151 
L 292.666276 193.656963 
L 294.976072 195.580775 
L 297.285869 197.504587 
L 299.595665 199.428399 
L 301.905462 201.352211 
L 304.215259 203.276023 
L 306.525055 205.199835 
L 308.834852 207.123647 
L 311.144648 209.047458 
L 313.454445 210.97127 
L 315.764241 212.895082 
L 318.074038 214.818894 
L 320.383835 216.742706 
" clip-path="url(#p4de3dd9435)" style="fill: none; stroke-dasharray: 3.7,1.6; stroke-dashoffset: 0; stroke: #8c8c8c"/>
   </g>
   <g id="patch_3">
    <path d="M 48.2667 254.625354 
L 48.2667 19.634646 
" style="fill: none; stroke: #000000; stroke-linejoin: miter; stroke-linecap: square"/>
   </g>
   <g id="patch_4">
    <path d="M 429.165354 254.625354 
L 429.165354 19.634646 
" style="fill: none; stroke: #000000; stroke-linejoin: miter; stroke-linecap: square"/>
   </g>
   <g id="patch_5">
    <path d="M 48.2667 254.625354 
L 429.165354 254.625354 
" style="fill: none; stroke: #000000; stroke-linejoin: miter; stroke-linecap: square"/>
   </g>
   <g id="patch_6">
    <path d="M 48.2667 19.634646 
L 429.165354 19.634646 
" style="fill: none; stroke: #000000; stroke-linejoin: miter; stroke-linecap: square"/>
   </g>
   <g id="line2d_18">
    <path d="M 59.04685 33.87708 
L 91.713973 45.376436 
L 124.381096 66.895879 
L 157.048219 92.26399 
L 189.715342 114.235383 
L 222.382465 125.431077 
" clip-path="url(#p4de3dd9435)" style="fill: none; stroke: #4c72b0"/>
   </g>
   <g id="line2d_19">
    <path d="M 59.04685 33.940298 
L 59.04685 33.813953 
" clip-path="url(#p4de3dd9435)" style="fill: none; stroke: #000000"/>
   </g>
   <g id="line2d_20">
    <path d="M 91.713973 45.471534 
L 91.713973 45.281543 
" clip-path="url(#p4de3dd9435)" style="fill: none; stroke: #000000"/>
   </g>
   <g id="line2d_21">
    <path d="M 124.381096 67.047573 
L 124.381096 66.744707 
" clip-path="url(#p4de3dd9435)" style="fill: none; stroke: #000000"/>
   </g>
   <g id="line2d_22">
    <path d="M 157.048219 92.487397 
L 157.048219 92.041716 
" clip-path="url(#p4de3dd9435)" style="fill: none; stroke: #000000"/>
   </g>
   <g id="line2d_23">
    <path d="M 189.715342 114.54822 
L 189.715342 113.924762 
" clip-path="url(#p4de3dd9435)" style="fill: none; stroke: #000000"/>
   </g>
   <g id="line2d_24">
    <path d="M 222.382465 125.800153 
L 222.382465 125.06508 
" clip-path="url(#p4de3dd9435)" style="fill: none; stroke: #000000"/>
   </g>
   <g id="text_9">
    <!-- Tail probability with $n_H$ for $O = Z$ -->
    <g transform="translate(138.516027 13.634646) scale(0.12 -0.12)">
     <defs>
      <path id="DejaVuSerif-54" d="M 1222 0 
L 1222 331 
L 1819 331 
L 1819 4294 
L 447 4294 
L 447 3566 
L 63 3566 
L 63 4666 
L 4206 4666 
L 4206 3566 
L 3822 3566 
L 3822 4294 
L 2450 4294 
L 2450 331 
L 3047 331 
L 3047 0 
L 1222 0 
z
" transform="scale(0.015625)"/>
      <path id="DejaVuSerif-61" d="M 2547 1044 
L 2547 1747 
L 1806 1747 
Q 1378 1747 1168 1562 
Q 959 1378 959 997 
Q 959 650 1171 447 
Q 1384 244 1747 244 
Q 2106 244 2326 466 
Q 2547 688 2547 1044 
z
M 3122 2075 
L 3122 331 
L 3634 331 
L 3634 0 
L 2547 0 
L 2547 359 
Q 2356 128 2106 18 
Q 1856 -91 1522 -91 
Q 969 -91 644 203 
Q 319 497 319 997 
Q 319 1513 691 1797 
Q 1063 2081 1741 2081 
L 2547 2081 
L 2547 2309 
Q 2547 2688 2317 2895 
Q 2088 3103 1672 3103 
Q 1328 3103 1125 2947 
Q 922 2791 872 2484 
L 575 2484 
L 575 3156 
Q 875 3284 1158 3348 
Q 1441 3413 1709 3413 
Q 2400 3413 2761 3070 
Q 3122 2728 3122 2075 
z
" transform="scale(0.015625)"/>
      <path id="DejaVuSerif-69" d="M 622 4353 
Q 622 4497 726 4603 
Q 831 4709 978 4709 
Q 1122 4709 1226 4603 
Q 1331 4497 1331 4353 
Q 1331 4206 1228 4103 
Q 1125 4000 978 4000 
Q 831 4000 726 4103 
Q 622 4206 622 4353 
z
M 1356 331 
L 1900 331 
L 1900 0 
L 231 0 
L 231 331 
L 781 331 
L 781 2988 
L 231 2988 
L 231 3322 
L 1356 3322 
L 1356 331 
z
" transform="scale(0.015625)"/>
      <path id="DejaVuSerif-6c" d="M 1313 331 
L 1856 331 
L 1856 0 
L 184 0 
L 184 331 
L 738 331 
L 738 4531 
L 184 4531 
L 184 4863 
L 1313 4863 
L 1313 331 
z
" transform="scale(0.015625)"/>
      <path id="DejaVuSerif-20" transform="scale(0.015625)"/>
      <path id="DejaVuSerif-70" d="M 1313 1825 
L 1313 1497 
Q 1313 897 1542 583 
Q 1772 269 2209 269 
Q 2650 269 2876 622 
Q 3103 975 3103 1663 
Q 3103 2353 2876 2703 
Q 2650 3053 2209 3053 
Q 1772 3053 1542 2737 
Q 1313 2422 1313 1825 
z
M 738 2988 
L 184 2988 
L 184 3322 
L 1313 3322 
L 1313 2803 
Q 1481 3116 1742 3264 
Q 2003 3413 2388 3413 
Q 3000 3413 3387 2928 
Q 3775 2444 3775 1663 
Q 3775 881 3387 395 
Q 3000 -91 2388 -91 
Q 2003 -91 1742 57 
Q 1481 206 1313 519 
L 1313 -997 
L 1856 -997 
L 1856 -1331 
L 184 -1331 
L 184 -997 
L 738 -997 
L 738 2988 
z
" transform="scale(0.015625)"/>
      <path id="DejaVuSerif-72" d="M 3059 3328 
L 3059 2497 
L 2728 2497 
Q 2713 2744 2591 2866 
Q 2469 2988 2234 2988 
Q 1809 2988 1582 2694 
Q 1356 2400 1356 1850 
L 1356 331 
L 2022 331 
L 2022 0 
L 263 0 
L 263 331 
L 781 331 
L 781 2994 
L 231 2994 
L 231 3322 
L 1356 3322 
L 1356 2731 
Q 1525 3078 1790 3245 
Q 2056 3413 2438 3413 
Q 2578 3413 2733 3391 
Q 2888 3369 3059 3328 
z
" transform="scale(0.015625)"/>
      <path id="DejaVuSerif-6f" d="M 1925 219 
Q 2388 219 2623 584 
Q 2859 950 2859 1663 
Q 2859 2375 2623 2739 
Q 2388 3103 1925 3103 
Q 1463 3103 1227 2739 
Q 991 2375 991 1663 
Q 991 950 1228 584 
Q 1466 219 1925 219 
z
M 1925 -91 
Q 1200 -91 759 389 
Q 319 869 319 1663 
Q 319 2456 758 2934 
Q 1197 3413 1925 3413 
Q 2653 3413 3092 2934 
Q 3531 2456 3531 1663 
Q 3531 869 3092 389 
Q 2653 -91 1925 -91 
z
" transform="scale(0.015625)"/>
      <path id="DejaVuSerif-62" d="M 738 331 
L 738 4531 
L 184 4531 
L 184 4863 
L 1313 4863 
L 1313 2803 
Q 1481 3116 1742 3264 
Q 2003 3413 2388 3413 
Q 3000 3413 3387 2928 
Q 3775 2444 3775 1663 
Q 3775 881 3387 395 
Q 3000 -91 2388 -91 
Q 2003 -91 1742 57 
Q 1481 206 1313 519 
L 1313 0 
L 184 0 
L 184 331 
L 738 331 
z
M 1313 1497 
Q 1313 897 1542 583 
Q 1772 269 2209 269 
Q 2650 269 2876 622 
Q 3103 975 3103 1663 
Q 3103 2353 2876 2703 
Q 2650 3053 2209 3053 
Q 1772 3053 1542 2737 
Q 1313 2422 1313 1825 
L 1313 1497 
z
" transform="scale(0.015625)"/>
      <path id="DejaVuSerif-74" d="M 691 2988 
L 184 2988 
L 184 3322 
L 691 3322 
L 691 4353 
L 1269 4353 
L 1269 3322 
L 2350 3322 
L 2350 2988 
L 1269 2988 
L 1269 878 
Q 1269 456 1350 337 
Q 1431 219 1650 219 
Q 1875 219 1978 351 
Q 2081 484 2088 781 
L 2522 781 
Q 2497 328 2275 118 
Q 2053 -91 1600 -91 
Q 1103 -91 897 129 
Q 691 350 691 878 
L 691 2988 
z
" transform="scale(0.015625)"/>
      <path id="DejaVuSerif-79" d="M 1381 -609 
L 1600 -56 
L 359 2988 
L -19 2988 
L -19 3322 
L 1509 3322 
L 1509 2988 
L 978 2988 
L 1913 703 
L 2847 2988 
L 2350 2988 
L 2350 3322 
L 3597 3322 
L 3597 2988 
L 3225 2988 
L 1703 -750 
Q 1547 -1138 1356 -1280 
Q 1166 -1422 819 -1422 
Q 672 -1422 517 -1397 
Q 363 -1372 206 -1325 
L 206 -691 
L 500 -691 
Q 519 -903 608 -995 
Q 697 -1088 884 -1088 
Q 1056 -1088 1161 -992 
Q 1266 -897 1381 -609 
z
" transform="scale(0.015625)"/>
      <path id="DejaVuSerif-77" d="M 3072 3322 
L 3922 728 
L 4672 2988 
L 4191 2988 
L 4191 3322 
L 5394 3322 
L 5394 2988 
L 5025 2988 
L 4038 0 
L 3559 0 
L 2741 2484 
L 1919 0 
L 1459 0 
L 475 2988 
L 103 2988 
L 103 3322 
L 1606 3322 
L 1606 2988 
L 1069 2988 
L 1813 728 
L 2669 3322 
L 3072 3322 
z
" transform="scale(0.015625)"/>
      <path id="DejaVuSerif-68" d="M 263 0 
L 263 331 
L 781 331 
L 781 4531 
L 231 4531 
L 231 4863 
L 1356 4863 
L 1356 2731 
Q 1516 3069 1770 3241 
Q 2025 3413 2363 3413 
Q 2913 3413 3172 3097 
Q 3431 2781 3431 2113 
L 3431 331 
L 3944 331 
L 3944 0 
L 2356 0 
L 2356 331 
L 2853 331 
L 2853 1931 
Q 2853 2541 2704 2764 
Q 2556 2988 2175 2988 
Q 1775 2988 1565 2697 
Q 1356 2406 1356 1850 
L 1356 331 
L 1856 331 
L 1856 0 
L 263 0 
z
" transform="scale(0.015625)"/>
      <path id="DejaVuSerif-66" d="M 2753 4078 
L 2450 4078 
Q 2447 4313 2317 4434 
Q 2188 4556 1941 4556 
Q 1619 4556 1487 4379 
Q 1356 4203 1356 3750 
L 1356 3322 
L 2284 3322 
L 2284 2988 
L 1356 2988 
L 1356 331 
L 2094 331 
L 2094 0 
L 231 0 
L 231 331 
L 781 331 
L 781 2988 
L 231 2988 
L 231 3322 
L 781 3322 
L 781 3738 
Q 781 4294 1070 4578 
Q 1359 4863 1919 4863 
Q 2128 4863 2337 4825 
Q 2547 4788 2753 4709 
L 2753 4078 
z
" transform="scale(0.015625)"/>
      <path id="DejaVuSerif-Italic-4f" d="M 2219 244 
Q 2984 244 3478 770 
Q 3972 1297 4172 2328 
Q 4372 3363 4084 3889 
Q 3797 4416 3031 4416 
Q 2263 4416 1769 3889 
Q 1275 3363 1075 2328 
Q 875 1297 1162 770 
Q 1450 244 2219 244 
z
M 2153 -91 
Q 1678 -91 1311 65 
Q 944 222 700 525 
Q 419 875 334 1319 
Q 250 1763 359 2328 
Q 469 2894 725 3339 
Q 981 3784 1400 4134 
Q 1766 4441 2191 4595 
Q 2616 4750 3097 4750 
Q 4113 4750 4608 4084 
Q 5103 3419 4891 2328 
Q 4781 1769 4522 1320 
Q 4263 872 3847 525 
Q 3481 219 3056 64 
Q 2631 -91 2153 -91 
z
" transform="scale(0.015625)"/>
      <path id="DejaVuSerif-3d" d="M 678 2894 
L 4684 2894 
L 4684 2394 
L 678 2394 
L 678 2894 
z
M 678 1619 
L 4684 1619 
L 4684 1119 
L 678 1119 
L 678 1619 
z
" transform="scale(0.015625)"/>
      <path id="DejaVuSerif-Italic-5a" d="M -166 0 
L -122 225 
L 3572 4281 
L 1159 4281 
L 1025 3584 
L 641 3584 
L 850 4666 
L 4538 4666 
L 4494 4441 
L 800 384 
L 3438 384 
L 3563 1038 
L 3944 1038 
L 3744 0 
L -166 0 
z
" transform="scale(0.015625)"/>
     </defs>
     <use xlink:href="#DejaVuSerif-54" transform="translate(0 0.015625)"/>
     <use xlink:href="#DejaVuSerif-61" transform="translate(66.699219 0.015625)"/>
     <use xlink:href="#DejaVuSerif-69" transform="translate(126.318359 0.015625)"/>
     <use xlink:href="#DejaVuSerif-6c" transform="translate(158.300781 0.015625)"/>
     <use xlink:href="#DejaVuSerif-20" transform="translate(190.283203 0.015625)"/>
     <use xlink:href="#DejaVuSerif-70" transform="translate(222.070312 0.015625)"/>
     <use xlink:href="#DejaVuSerif-72" transform="translate(286.083984 0.015625)"/>
     <use xlink:href="#DejaVuSerif-6f" transform="translate(333.886719 0.015625)"/>
     <use xlink:href="#DejaVuSerif-62" transform="translate(394.091797 0.015625)"/>
     <use xlink:href="#DejaVuSerif-61" transform="translate(458.105469 0.015625)"/>
     <use xlink:href="#DejaVuSerif-62" transform="translate(517.724609 0.015625)"/>
     <use xlink:href="#DejaVuSerif-69" transform="translate(581.738281 0.015625)"/>
     <use xlink:href="#DejaVuSerif-6c" transform="translate(613.720703 0.015625)"/>
     <use xlink:href="#DejaVuSerif-69" transform="translate(645.703125 0.015625)"/>
     <use xlink:href="#DejaVuSerif-74" transform="translate(677.685547 0.015625)"/>
     <use xlink:href="#DejaVuSerif-79" transform="translate(717.871094 0.015625)"/>
     <use xlink:href="#DejaVuSerif-20" transform="translate(774.365234 0.015625)"/>
     <use xlink:href="#DejaVuSerif-77" transform="translate(806.152344 0.015625)"/>
     <use xlink:href="#DejaVuSerif-69" transform="translate(891.748047 0.015625)"/>
     <use xlink:href="#DejaVuSerif-74" transform="translate(923.730469 0.015625)"/>
     <use xlink:href="#DejaVuSerif-68" transform="translate(963.916016 0.015625)"/>
     <use xlink:href="#DejaVuSerif-20" transform="translate(1028.320312 0.015625)"/>
     <use xlink:href="#DejaVuSerif-Italic-6e" transform="translate(1060.107422 0.015625)"/>
     <use xlink:href="#DejaVuSerif-Italic-48" transform="translate(1124.511719 -15.55625) scale(0.7)"/>
     <use xlink:href="#DejaVuSerif-20" transform="translate(1188.151953 0.015625)"/>
     <use xlink:href="#DejaVuSerif-66" transform="translate(1219.939063 0.015625)"/>
     <use xlink:href="#DejaVuSerif-6f" transform="translate(1256.950781 0.015625)"/>
     <use xlink:href="#DejaVuSerif-72" transform="translate(1317.155859 0.015625)"/>
     <use xlink:href="#DejaVuSerif-20" transform="translate(1364.958594 0.015625)"/>
     <use xlink:href="#DejaVuSerif-Italic-4f" transform="translate(1396.745703 0.015625)"/>
     <use xlink:href="#DejaVuSerif-3d" transform="translate(1497.692969 0.015625)"/>
     <use xlink:href="#DejaVuSerif-Italic-5a" transform="translate(1600.446875 0.015625)"/>
    </g>
   </g>
   <g id="PathCollection_1">
    <defs>
     <path id="m8a96492b57" d="M 2 0 
L -2 -0 
" style="stroke: #000000"/>
    </defs>
    <g clip-path="url(#p4de3dd9435)">
     <use xlink:href="#m8a96492b57" x="59.04685" y="33.940298" style="stroke: #000000"/>
     <use xlink:href="#m8a96492b57" x="59.04685" y="33.813953" style="stroke: #000000"/>
    </g>
   </g>
   <g id="PathCollection_2">
    <g clip-path="url(#p4de3dd9435)">
     <use xlink:href="#m8a96492b57" x="91.713973" y="45.471534" style="stroke: #000000"/>
     <use xlink:href="#m8a96492b57" x="91.713973" y="45.281543" style="stroke: #000000"/>
    </g>
   </g>
   <g id="PathCollection_3">
    <g clip-path="url(#p4de3dd9435)">
     <use xlink:href="#m8a96492b57" x="124.381096" y="67.047573" style="stroke: #000000"/>
     <use xlink:href="#m8a96492b57" x="124.381096" y="66.744707" style="stroke: #000000"/>
    </g>
   </g>
   <g id="PathCollection_4">
    <g clip-path="url(#p4de3dd9435)">
     <use xlink:href="#m8a96492b57" x="157.048219" y="92.487397" style="stroke: #000000"/>
     <use xlink:href="#m8a96492b57" x="157.048219" y="92.041716" style="stroke: #000000"/>
    </g>
   </g>
   <g id="PathCollection_5">
    <g clip-path="url(#p4de3dd9435)">
     <use xlink:href="#m8a96492b57" x="189.715342" y="114.54822" style="stroke: #000000"/>
     <use xlink:href="#m8a96492b57" x="189.715342" y="113.924762" style="stroke: #000000"/>
    </g>
   </g>
   <g id="PathCollection_6">
    <g clip-path="url(#p4de3dd9435)">
     <use xlink:href="#m8a96492b57" x="222.382465" y="125.800153" style="stroke: #000000"/>
     <use xlink:href="#m8a96492b57" x="222.382465" y="125.06508" style="stroke: #000000"/>
    </g>
   </g>
   <g id="line2d_25">
    <path d="M 59.04685 50.6311 
L 91.713973 52.226131 
L 124.381096 63.17475 
L 157.048219 82.806864 
L 189.715342 110.260208 
L 222.382465 137.25183 
L 255.049588 155.064572 
L 287.716712 160.723909 
" clip-path="url(#p4de3dd9435)" style="fill: none; stroke: #dd8452"/>
   </g>
   <g id="line2d_26">
    <path d="M 59.04685 50.713202 
L 59.04685 50.549152 
" clip-path="url(#p4de3dd9435)" style="fill: none; stroke: #000000"/>
   </g>
   <g id="line2d_27">
    <path d="M 91.713973 52.327571 
L 91.713973 52.124925 
" clip-path="url(#p4de3dd9435)" style="fill: none; stroke: #000000"/>
   </g>
   <g id="line2d_28">
    <path d="M 124.381096 63.280396 
L 124.381096 63.069357 
" clip-path="url(#p4de3dd9435)" style="fill: none; stroke: #000000"/>
   </g>
   <g id="line2d_29">
    <path d="M 157.048219 82.965978 
L 157.048219 82.648324 
" clip-path="url(#p4de3dd9435)" style="fill: none; stroke: #000000"/>
   </g>
   <g id="line2d_30">
    <path d="M 189.715342 110.511703 
L 189.715342 110.010148 
" clip-path="url(#p4de3dd9435)" style="fill: none; stroke: #000000"/>
   </g>
   <g id="line2d_31">
    <path d="M 222.382465 137.595028 
L 222.382465 136.911296 
" clip-path="url(#p4de3dd9435)" style="fill: none; stroke: #000000"/>
   </g>
   <g id="line2d_32">
    <path d="M 255.049588 155.488016 
L 255.049588 154.645176 
" clip-path="url(#p4de3dd9435)" style="fill: none; stroke: #000000"/>
   </g>
   <g id="line2d_33">
    <path d="M 287.716712 161.17421 
L 287.716712 160.278184 
" clip-path="url(#p4de3dd9435)" style="fill: none; stroke: #000000"/>
   </g>
   <g id="PathCollection_7">
    <g clip-path="url(#p4de3dd9435)">
     <use xlink:href="#m8a96492b57" x="59.04685" y="50.713202" style="stroke: #000000"/>
     <use xlink:href="#m8a96492b57" x="59.04685" y="50.549152" style="stroke: #000000"/>
    </g>
   </g>
   <g id="PathCollection_8">
    <g clip-path="url(#p4de3dd9435)">
     <use xlink:href="#m8a96492b57" x="91.713973" y="52.327571" style="stroke: #000000"/>
     <use xlink:href="#m8a96492b57" x="91.713973" y="52.124925" style="stroke: #000000"/>
    </g>
   </g>
   <g id="PathCollection_9">
    <g clip-path="url(#p4de3dd9435)">
     <use xlink:href="#m8a96492b57" x="124.381096" y="63.280396" style="stroke: #000000"/>
     <use xlink:href="#m8a96492b57" x="124.381096" y="63.069357" style="stroke: #000000"/>
    </g>
   </g>
   <g id="PathCollection_10">
    <g clip-path="url(#p4de3dd9435)">
     <use xlink:href="#m8a96492b57" x="157.048219" y="82.965978" style="stroke: #000000"/>
     <use xlink:href="#m8a96492b57" x="157.048219" y="82.648324" style="stroke: #000000"/>
    </g>
   </g>
   <g id="PathCollection_11">
    <g clip-path="url(#p4de3dd9435)">
     <use xlink:href="#m8a96492b57" x="189.715342" y="110.511703" style="stroke: #000000"/>
     <use xlink:href="#m8a96492b57" x="189.715342" y="110.010148" style="stroke: #000000"/>
    </g>
   </g>
   <g id="PathCollection_12">
    <g clip-path="url(#p4de3dd9435)">
     <use xlink:href="#m8a96492b57" x="222.382465" y="137.595028" style="stroke: #000000"/>
     <use xlink:href="#m8a96492b57" x="222.382465" y="136.911296" style="stroke: #000000"/>
    </g>
   </g>
   <g id="PathCollection_13">
    <g clip-path="url(#p4de3dd9435)">
     <use xlink:href="#m8a96492b57" x="255.049588" y="155.488016" style="stroke: #000000"/>
     <use xlink:href="#m8a96492b57" x="255.049588" y="154.645176" style="stroke: #000000"/>
    </g>
   </g>
   <g id="PathCollection_14">
    <g clip-path="url(#p4de3dd9435)">
     <use xlink:href="#m8a96492b57" x="287.716712" y="161.17421" style="stroke: #000000"/>
     <use xlink:href="#m8a96492b57" x="287.716712" y="160.278184" style="stroke: #000000"/>
    </g>
   </g>
   <g id="line2d_34">
    <path d="M 59.04685 69.79935 
L 91.713973 63.676211 
L 124.381096 69.979794 
L 157.048219 83.893871 
L 189.715342 104.880468 
L 222.382465 134.968301 
L 255.049588 167.746764 
L 287.716712 189.390265 
L 320.383835 198.93932 
L 353.050958 200.925954 
" clip-path="url(#p4de3dd9435)" style="fill: none; stroke: #55a868"/>
   </g>
   <g id="line2d_35">
    <path d="M 59.04685 69.931767 
L 59.04685 69.667332 
" clip-path="url(#p4de3dd9435)" style="fill: none; stroke: #000000"/>
   </g>
   <g id="line2d_36">
    <path d="M 91.713973 63.823144 
L 91.713973 63.529769 
" clip-path="url(#p4de3dd9435)" style="fill: none; stroke: #000000"/>
   </g>
   <g id="line2d_37">
    <path d="M 124.381096 70.109381 
L 124.381096 69.850588 
" clip-path="url(#p4de3dd9435)" style="fill: none; stroke: #000000"/>
   </g>
   <g id="line2d_38">
    <path d="M 157.048219 84.014696 
L 157.048219 83.773379 
" clip-path="url(#p4de3dd9435)" style="fill: none; stroke: #000000"/>
   </g>
   <g id="line2d_39">
    <path d="M 189.715342 105.058095 
L 189.715342 104.703558 
" clip-path="url(#p4de3dd9435)" style="fill: none; stroke: #000000"/>
   </g>
   <g id="line2d_40">
    <path d="M 222.382465 135.323743 
L 222.382465 134.615717 
" clip-path="url(#p4de3dd9435)" style="fill: none; stroke: #000000"/>
   </g>
   <g id="line2d_41">
    <path d="M 255.049588 168.228809 
L 255.049588 167.269958 
" clip-path="url(#p4de3dd9435)" style="fill: none; stroke: #000000"/>
   </g>
   <g id="line2d_42">
    <path d="M 287.716712 189.948718 
L 287.716712 188.838833 
" clip-path="url(#p4de3dd9435)" style="fill: none; stroke: #000000"/>
   </g>
   <g id="line2d_43">
    <path d="M 320.383835 199.541709 
L 320.383835 198.345092 
" clip-path="url(#p4de3dd9435)" style="fill: none; stroke: #000000"/>
   </g>
   <g id="line2d_44">
    <path d="M 353.050958 201.540288 
L 353.050958 200.320106 
" clip-path="url(#p4de3dd9435)" style="fill: none; stroke: #000000"/>
   </g>
   <g id="PathCollection_15">
    <g clip-path="url(#p4de3dd9435)">
     <use xlink:href="#m8a96492b57" x="59.04685" y="69.931767" style="stroke: #000000"/>
     <use xlink:href="#m8a96492b57" x="59.04685" y="69.667332" style="stroke: #000000"/>
    </g>
   </g>
   <g id="PathCollection_16">
    <g clip-path="url(#p4de3dd9435)">
     <use xlink:href="#m8a96492b57" x="91.713973" y="63.823144" style="stroke: #000000"/>
     <use xlink:href="#m8a96492b57" x="91.713973" y="63.529769" style="stroke: #000000"/>
    </g>
   </g>
   <g id="PathCollection_17">
    <g clip-path="url(#p4de3dd9435)">
     <use xlink:href="#m8a96492b57" x="124.381096" y="70.109381" style="stroke: #000000"/>
     <use xlink:href="#m8a96492b57" x="124.381096" y="69.850588" style="stroke: #000000"/>
    </g>
   </g>
   <g id="PathCollection_18">
    <g clip-path="url(#p4de3dd9435)">
     <use xlink:href="#m8a96492b57" x="157.048219" y="84.014696" style="stroke: #000000"/>
     <use xlink:href="#m8a96492b57" x="157.048219" y="83.773379" style="stroke: #000000"/>
    </g>
   </g>
   <g id="PathCollection_19">
    <g clip-path="url(#p4de3dd9435)">
     <use xlink:href="#m8a96492b57" x="189.715342" y="105.058095" style="stroke: #000000"/>
     <use xlink:href="#m8a96492b57" x="189.715342" y="104.703558" style="stroke: #000000"/>
    </g>
   </g>
   <g id="PathCollection_20">
    <g clip-path="url(#p4de3dd9435)">
     <use xlink:href="#m8a96492b57" x="222.382465" y="135.323743" style="stroke: #000000"/>
     <use xlink:href="#m8a96492b57" x="222.382465" y="134.615717" style="stroke: #000000"/>
    </g>
   </g>
   <g id="PathCollection_21">
    <g clip-path="url(#p4de3dd9435)">
     <use xlink:href="#m8a96492b57" x="255.049588" y="168.228809" style="stroke: #000000"/>
     <use xlink:href="#m8a96492b57" x="255.049588" y="167.269958" style="stroke: #000000"/>
    </g>
   </g>
   <g id="PathCollection_22">
    <g clip-path="url(#p4de3dd9435)">
     <use xlink:href="#m8a96492b57" x="287.716712" y="189.948718" style="stroke: #000000"/>
     <use xlink:href="#m8a96492b57" x="287.716712" y="188.838833" style="stroke: #000000"/>
    </g>
   </g>
   <g id="PathCollection_23">
    <g clip-path="url(#p4de3dd9435)">
     <use xlink:href="#m8a96492b57" x="320.383835" y="199.541709" style="stroke: #000000"/>
     <use xlink:href="#m8a96492b57" x="320.383835" y="198.345092" style="stroke: #000000"/>
    </g>
   </g>
   <g id="PathCollection_24">
    <g clip-path="url(#p4de3dd9435)">
     <use xlink:href="#m8a96492b57" x="353.050958" y="201.540288" style="stroke: #000000"/>
     <use xlink:href="#m8a96492b57" x="353.050958" y="200.320106" style="stroke: #000000"/>
    </g>
   </g>
   <g id="line2d_45">
    <path d="M 59.04685 87.05655 
L 91.713973 74.607197 
L 124.381096 78.852062 
L 157.048219 91.219589 
L 189.715342 109.280828 
L 222.382465 132.376294 
L 255.049588 163.697222 
L 287.716712 201.629221 
L 320.383835 227.775675 
L 353.050958 243.006343 
L 385.718081 246.981426 
L 418.385204 245.532031 
" clip-path="url(#p4de3dd9435)" style="fill: none; stroke: #c44e52"/>
   </g>
   <g id="line2d_46">
    <path d="M 59.04685 87.267865 
L 59.04685 86.846249 
" clip-path="url(#p4de3dd9435)" style="fill: none; stroke: #000000"/>
   </g>
   <g id="line2d_47">
    <path d="M 91.713973 74.812834 
L 91.713973 74.40252 
" clip-path="url(#p4de3dd9435)" style="fill: none; stroke: #000000"/>
   </g>
   <g id="line2d_48">
    <path d="M 124.381096 79.027067 
L 124.381096 78.677751 
" clip-path="url(#p4de3dd9435)" style="fill: none; stroke: #000000"/>
   </g>
   <g id="line2d_49">
    <path d="M 157.048219 91.373099 
L 157.048219 91.066614 
" clip-path="url(#p4de3dd9435)" style="fill: none; stroke: #000000"/>
   </g>
   <g id="line2d_50">
    <path d="M 189.715342 109.419397 
L 189.715342 109.142695 
" clip-path="url(#p4de3dd9435)" style="fill: none; stroke: #000000"/>
   </g>
   <g id="line2d_51">
    <path d="M 222.382465 132.613033 
L 222.382465 132.140826 
" clip-path="url(#p4de3dd9435)" style="fill: none; stroke: #000000"/>
   </g>
   <g id="line2d_52">
    <path d="M 255.049588 164.310253 
L 255.049588 163.092641 
" clip-path="url(#p4de3dd9435)" style="fill: none; stroke: #000000"/>
   </g>
   <g id="line2d_53">
    <path d="M 287.716712 202.447538 
L 287.716712 200.825892 
" clip-path="url(#p4de3dd9435)" style="fill: none; stroke: #000000"/>
   </g>
   <g id="line2d_54">
    <path d="M 320.383835 228.601503 
L 320.383835 226.965109 
" clip-path="url(#p4de3dd9435)" style="fill: none; stroke: #000000"/>
   </g>
   <g id="line2d_55">
    <path d="M 353.050958 243.992492 
L 353.050958 242.041879 
" clip-path="url(#p4de3dd9435)" style="fill: none; stroke: #000000"/>
   </g>
   <g id="line2d_56">
    <path d="M 385.718081 247.974674 
L 385.718081 246.010174 
" clip-path="url(#p4de3dd9435)" style="fill: none; stroke: #000000"/>
   </g>
   <g id="line2d_57">
    <path d="M 418.385204 246.432589 
L 418.385204 244.649592 
" clip-path="url(#p4de3dd9435)" style="fill: none; stroke: #000000"/>
   </g>
   <g id="PathCollection_25">
    <g clip-path="url(#p4de3dd9435)">
     <use xlink:href="#m8a96492b57" x="59.04685" y="87.267865" style="stroke: #000000"/>
     <use xlink:href="#m8a96492b57" x="59.04685" y="86.846249" style="stroke: #000000"/>
    </g>
   </g>
   <g id="PathCollection_26">
    <g clip-path="url(#p4de3dd9435)">
     <use xlink:href="#m8a96492b57" x="91.713973" y="74.812834" style="stroke: #000000"/>
     <use xlink:href="#m8a96492b57" x="91.713973" y="74.40252" style="stroke: #000000"/>
    </g>
   </g>
   <g id="PathCollection_27">
    <g clip-path="url(#p4de3dd9435)">
     <use xlink:href="#m8a96492b57" x="124.381096" y="79.027067" style="stroke: #000000"/>
     <use xlink:href="#m8a96492b57" x="124.381096" y="78.677751" style="stroke: #000000"/>
    </g>
   </g>
   <g id="PathCollection_28">
    <g clip-path="url(#p4de3dd9435)">
     <use xlink:href="#m8a96492b57" x="157.048219" y="91.373099" style="stroke: #000000"/>
     <use xlink:href="#m8a96492b57" x="157.048219" y="91.066614" style="stroke: #000000"/>
    </g>
   </g>
   <g id="PathCollection_29">
    <g clip-path="url(#p4de3dd9435)">
     <use xlink:href="#m8a96492b57" x="189.715342" y="109.419397" style="stroke: #000000"/>
     <use xlink:href="#m8a96492b57" x="189.715342" y="109.142695" style="stroke: #000000"/>
    </g>
   </g>
   <g id="PathCollection_30">
    <g clip-path="url(#p4de3dd9435)">
     <use xlink:href="#m8a96492b57" x="222.382465" y="132.613033" style="stroke: #000000"/>
     <use xlink:href="#m8a96492b57" x="222.382465" y="132.140826" style="stroke: #000000"/>
    </g>
   </g>
   <g id="PathCollection_31">
    <g clip-path="url(#p4de3dd9435)">
     <use xlink:href="#m8a96492b57" x="255.049588" y="164.310253" style="stroke: #000000"/>
     <use xlink:href="#m8a96492b57" x="255.049588" y="163.092641" style="stroke: #000000"/>
    </g>
   </g>
   <g id="PathCollection_32">
    <g clip-path="url(#p4de3dd9435)">
     <use xlink:href="#m8a96492b57" x="287.716712" y="202.447538" style="stroke: #000000"/>
     <use xlink:href="#m8a96492b57" x="287.716712" y="200.825892" style="stroke: #000000"/>
    </g>
   </g>
   <g id="PathCollection_33">
    <g clip-path="url(#p4de3dd9435)">
     <use xlink:href="#m8a96492b57" x="320.383835" y="228.601503" style="stroke: #000000"/>
     <use xlink:href="#m8a96492b57" x="320.383835" y="226.965109" style="stroke: #000000"/>
    </g>
   </g>
   <g id="PathCollection_34">
    <g clip-path="url(#p4de3dd9435)">
     <use xlink:href="#m8a96492b57" x="353.050958" y="243.992492" style="stroke: #000000"/>
     <use xlink:href="#m8a96492b57" x="353.050958" y="242.041879" style="stroke: #000000"/>
    </g>
   </g>
   <g id="PathCollection_35">
    <g clip-path="url(#p4de3dd9435)">
     <use xlink:href="#m8a96492b57" x="385.718081" y="247.974674" style="stroke: #000000"/>
     <use xlink:href="#m8a96492b57" x="385.718081" y="246.010174" style="stroke: #000000"/>
    </g>
   </g>
   <g id="PathCollection_36">
    <g clip-path="url(#p4de3dd9435)">
     <use xlink:href="#m8a96492b57" x="418.385204" y="246.432589" style="stroke: #000000"/>
     <use xlink:href="#m8a96492b57" x="418.385204" y="244.649592" style="stroke: #000000"/>
    </g>
   </g>
   <g id="legend_1">
    <g id="patch_7">
     <path d="M 312.765354 123.747146 
L 424.165354 123.747146 
L 424.165354 24.634646 
L 312.765354 24.634646 
z
" style="fill: #ffffff; stroke: #000000; stroke-linejoin: miter"/>
    </g>
    <g id="line2d_58">
     <path d="M 320.765354 36.734646 
L 330.765354 36.734646 
L 340.765354 36.734646 
" style="fill: none; stroke-dasharray: 4.625,2; stroke-dashoffset: 0; stroke: #8c8c8c; stroke-width: 1.25; stroke-linejoin: miter"/>
    </g>
    <g id="text_10">
     <!-- $c_1\exp(-\gamma_1 N)$ -->
     <g transform="translate(348.765354 40.234646) scale(0.1 -0.1)">
      <defs>
       <path id="DejaVuSans-Oblique-63" d="M 3431 3366 
L 3316 2797 
Q 3109 2947 2876 3022 
Q 2644 3097 2394 3097 
Q 2119 3097 1870 3000 
Q 1622 2903 1453 2725 
Q 1184 2453 1037 2087 
Q 891 1722 891 1331 
Q 891 859 1127 628 
Q 1363 397 1844 397 
Q 2081 397 2348 469 
Q 2616 541 2906 684 
L 2797 116 
Q 2547 13 2283 -39 
Q 2019 -91 1741 -91 
Q 1044 -91 669 257 
Q 294 606 294 1253 
Q 294 1797 489 2255 
Q 684 2713 1069 3078 
Q 1331 3328 1684 3456 
Q 2038 3584 2456 3584 
Q 2700 3584 2940 3529 
Q 3181 3475 3431 3366 
z
" transform="scale(0.015625)"/>
       <path id="DejaVuSans-31" d="M 794 531 
L 1825 531 
L 1825 4091 
L 703 3866 
L 703 4441 
L 1819 4666 
L 2450 4666 
L 2450 531 
L 3481 531 
L 3481 0 
L 794 0 
L 794 531 
z
" transform="scale(0.015625)"/>
       <path id="DejaVuSans-65" d="M 3597 1894 
L 3597 1613 
L 953 1613 
Q 991 1019 1311 708 
Q 1631 397 2203 397 
Q 2534 397 2845 478 
Q 3156 559 3463 722 
L 3463 178 
Q 3153 47 2828 -22 
Q 2503 -91 2169 -91 
Q 1331 -91 842 396 
Q 353 884 353 1716 
Q 353 2575 817 3079 
Q 1281 3584 2069 3584 
Q 2775 3584 3186 3129 
Q 3597 2675 3597 1894 
z
M 3022 2063 
Q 3016 2534 2758 2815 
Q 2500 3097 2075 3097 
Q 1594 3097 1305 2825 
Q 1016 2553 972 2059 
L 3022 2063 
z
" transform="scale(0.015625)"/>
       <path id="DejaVuSans-78" d="M 3513 3500 
L 2247 1797 
L 3578 0 
L 2900 0 
L 1881 1375 
L 863 0 
L 184 0 
L 1544 1831 
L 300 3500 
L 978 3500 
L 1906 2253 
L 2834 3500 
L 3513 3500 
z
" transform="scale(0.015625)"/>
       <path id="DejaVuSans-70" d="M 1159 525 
L 1159 -1331 
L 581 -1331 
L 581 3500 
L 1159 3500 
L 1159 2969 
Q 1341 3281 1617 3432 
Q 1894 3584 2278 3584 
Q 2916 3584 3314 3078 
Q 3713 2572 3713 1747 
Q 3713 922 3314 415 
Q 2916 -91 2278 -91 
Q 1894 -91 1617 61 
Q 1341 213 1159 525 
z
M 3116 1747 
Q 3116 2381 2855 2742 
Q 2594 3103 2138 3103 
Q 1681 3103 1420 2742 
Q 1159 2381 1159 1747 
Q 1159 1113 1420 752 
Q 1681 391 2138 391 
Q 2594 391 2855 752 
Q 3116 1113 3116 1747 
z
" transform="scale(0.015625)"/>
       <path id="DejaVuSans-28" d="M 1984 4856 
Q 1566 4138 1362 3434 
Q 1159 2731 1159 2009 
Q 1159 1288 1364 580 
Q 1569 -128 1984 -844 
L 1484 -844 
Q 1016 -109 783 600 
Q 550 1309 550 2009 
Q 550 2706 781 3412 
Q 1013 4119 1484 4856 
L 1984 4856 
z
" transform="scale(0.015625)"/>
       <path id="DejaVuSans-2212" d="M 678 2272 
L 4684 2272 
L 4684 1741 
L 678 1741 
L 678 2272 
z
" transform="scale(0.015625)"/>
       <path id="DejaVuSans-Oblique-3b3" d="M 1491 2950 
L 1838 788 
L 3456 3500 
L 4066 3500 
L 1972 0 
L 1713 -1331 
L 1138 -1331 
L 1397 0 
L 988 2613 
Q 925 3006 628 3006 
L 475 3006 
L 569 3500 
L 788 3500 
Q 1403 3500 1491 2950 
z
" transform="scale(0.015625)"/>
       <path id="DejaVuSans-Oblique-4e" d="M 1081 4666 
L 1931 4666 
L 3219 666 
L 4000 4666 
L 4616 4666 
L 3706 0 
L 2853 0 
L 1569 4025 
L 788 0 
L 172 0 
L 1081 4666 
z
" transform="scale(0.015625)"/>
       <path id="DejaVuSans-29" d="M 513 4856 
L 1013 4856 
Q 1481 4119 1714 3412 
Q 1947 2706 1947 2009 
Q 1947 1309 1714 600 
Q 1481 -109 1013 -844 
L 513 -844 
Q 928 -128 1133 580 
Q 1338 1288 1338 2009 
Q 1338 2731 1133 3434 
Q 928 4138 513 4856 
z
" transform="scale(0.015625)"/>
      </defs>
      <use xlink:href="#DejaVuSans-Oblique-63" transform="translate(0 0.125)"/>
      <use xlink:href="#DejaVuSans-31" transform="translate(54.980469 -16.28125) scale(0.7)"/>
      <use xlink:href="#DejaVuSans-65" transform="translate(102.250977 0.125)"/>
      <use xlink:href="#DejaVuSans-78" transform="translate(163.774414 0.125)"/>
      <use xlink:href="#DejaVuSans-70" transform="translate(222.954102 0.125)"/>
      <use xlink:href="#DejaVuSans-28" transform="translate(286.430664 0.125)"/>
      <use xlink:href="#DejaVuSans-2212" transform="translate(325.444336 0.125)"/>
      <use xlink:href="#DejaVuSans-Oblique-3b3" transform="translate(409.233398 0.125)"/>
      <use xlink:href="#DejaVuSans-31" transform="translate(468.413086 -16.28125) scale(0.7)"/>
      <use xlink:href="#DejaVuSans-Oblique-4e" transform="translate(515.683594 0.125)"/>
      <use xlink:href="#DejaVuSans-29" transform="translate(590.488281 0.125)"/>
     </g>
    </g>
    <g id="line2d_59">
     <path d="M 320.765354 51.434646 
L 330.765354 51.434646 
L 340.765354 51.434646 
" style="fill: none; stroke-dasharray: 4.625,2; stroke-dashoffset: 0; stroke: #8c8c8c; stroke-width: 1.25; stroke-linejoin: miter"/>
    </g>
    <g id="text_11">
     <!-- $c_2\exp(-\gamma_2 n_H)$ -->
     <g transform="translate(348.765354 54.934646) scale(0.1 -0.1)">
      <defs>
       <path id="DejaVuSans-32" d="M 1228 531 
L 3431 531 
L 3431 0 
L 469 0 
L 469 531 
Q 828 903 1448 1529 
Q 2069 2156 2228 2338 
Q 2531 2678 2651 2914 
Q 2772 3150 2772 3378 
Q 2772 3750 2511 3984 
Q 2250 4219 1831 4219 
Q 1534 4219 1204 4116 
Q 875 4013 500 3803 
L 500 4441 
Q 881 4594 1212 4672 
Q 1544 4750 1819 4750 
Q 2544 4750 2975 4387 
Q 3406 4025 3406 3419 
Q 3406 3131 3298 2873 
Q 3191 2616 2906 2266 
Q 2828 2175 2409 1742 
Q 1991 1309 1228 531 
z
" transform="scale(0.015625)"/>
       <path id="DejaVuSans-Oblique-6e" d="M 3566 2113 
L 3156 0 
L 2578 0 
L 2988 2091 
Q 3016 2238 3031 2350 
Q 3047 2463 3047 2528 
Q 3047 2791 2881 2937 
Q 2716 3084 2419 3084 
Q 1956 3084 1622 2776 
Q 1288 2469 1184 1941 
L 800 0 
L 225 0 
L 903 3500 
L 1478 3500 
L 1363 2950 
Q 1603 3253 1940 3418 
Q 2278 3584 2650 3584 
Q 3113 3584 3367 3334 
Q 3622 3084 3622 2631 
Q 3622 2519 3608 2391 
Q 3594 2263 3566 2113 
z
" transform="scale(0.015625)"/>
       <path id="DejaVuSans-Oblique-48" d="M 1081 4666 
L 1716 4666 
L 1344 2753 
L 3634 2753 
L 4006 4666 
L 4641 4666 
L 3731 0 
L 3097 0 
L 3531 2222 
L 1241 2222 
L 806 0 
L 172 0 
L 1081 4666 
z
" transform="scale(0.015625)"/>
      </defs>
      <use xlink:href="#DejaVuSans-Oblique-63" transform="translate(0 0.125)"/>
      <use xlink:href="#DejaVuSans-32" transform="translate(54.980469 -16.28125) scale(0.7)"/>
      <use xlink:href="#DejaVuSans-65" transform="translate(102.250977 0.125)"/>
      <use xlink:href="#DejaVuSans-78" transform="translate(163.774414 0.125)"/>
      <use xlink:href="#DejaVuSans-70" transform="translate(222.954102 0.125)"/>
      <use xlink:href="#DejaVuSans-28" transform="translate(286.430664 0.125)"/>
      <use xlink:href="#DejaVuSans-2212" transform="translate(325.444336 0.125)"/>
      <use xlink:href="#DejaVuSans-Oblique-3b3" transform="translate(409.233398 0.125)"/>
      <use xlink:href="#DejaVuSans-32" transform="translate(468.413086 -16.28125) scale(0.7)"/>
      <use xlink:href="#DejaVuSans-Oblique-6e" transform="translate(515.683594 0.125)"/>
      <use xlink:href="#DejaVuSans-Oblique-48" transform="translate(579.0625 -16.28125) scale(0.7)"/>
      <use xlink:href="#DejaVuSans-29" transform="translate(634.433594 0.125)"/>
     </g>
    </g>
    <g id="line2d_60">
     <path d="M 320.765354 66.133083 
L 330.765354 66.133083 
L 340.765354 66.133083 
" style="fill: none; stroke: #4c72b0; stroke-width: 1.25; stroke-linejoin: miter"/>
    </g>
    <g id="text_12">
     <!-- N=6 -->
     <g transform="translate(348.765354 69.633083) scale(0.1 -0.1)">
      <defs>
       <path id="DejaVuSerif-4e" d="M 313 0 
L 313 331 
L 941 331 
L 941 4331 
L 313 4331 
L 313 4666 
L 1509 4666 
L 4306 984 
L 4306 4331 
L 3681 4331 
L 3681 4666 
L 5319 4666 
L 5319 4331 
L 4691 4331 
L 4691 -91 
L 4313 -91 
L 1325 3841 
L 1325 331 
L 1953 331 
L 1953 0 
L 313 0 
z
" transform="scale(0.015625)"/>
       <path id="DejaVuSerif-36" d="M 2094 219 
Q 2534 219 2771 542 
Q 3009 866 3009 1472 
Q 3009 2078 2771 2401 
Q 2534 2725 2094 2725 
Q 1647 2725 1412 2412 
Q 1178 2100 1178 1509 
Q 1178 888 1415 553 
Q 1653 219 2094 219 
z
M 1075 2569 
Q 1288 2803 1556 2918 
Q 1825 3034 2163 3034 
Q 2859 3034 3264 2615 
Q 3669 2197 3669 1472 
Q 3669 763 3233 336 
Q 2797 -91 2069 -91 
Q 1278 -91 853 498 
Q 428 1088 428 2181 
Q 428 3406 931 4078 
Q 1434 4750 2350 4750 
Q 2597 4750 2869 4703 
Q 3141 4656 3425 4563 
L 3425 3794 
L 3072 3794 
Q 3034 4109 2831 4275 
Q 2628 4441 2284 4441 
Q 1678 4441 1381 3981 
Q 1084 3522 1075 2569 
z
" transform="scale(0.015625)"/>
      </defs>
      <use xlink:href="#DejaVuSerif-4e"/>
      <use xlink:href="#DejaVuSerif-3d" x="87.5"/>
      <use xlink:href="#DejaVuSerif-36" x="171.289062"/>
     </g>
    </g>
    <g id="line2d_61">
     <path d="M 320.765354 80.811208 
L 330.765354 80.811208 
L 340.765354 80.811208 
" style="fill: none; stroke: #dd8452; stroke-width: 1.25; stroke-linejoin: miter"/>
    </g>
    <g id="text_13">
     <!-- N=8 -->
     <g transform="translate(348.765354 84.311208) scale(0.1 -0.1)">
      <defs>
       <path id="DejaVuSerif-38" d="M 2981 1275 
Q 2981 1775 2732 2051 
Q 2484 2328 2034 2328 
Q 1584 2328 1336 2051 
Q 1088 1775 1088 1275 
Q 1088 772 1336 495 
Q 1584 219 2034 219 
Q 2484 219 2732 495 
Q 2981 772 2981 1275 
z
M 2853 3541 
Q 2853 3966 2637 4203 
Q 2422 4441 2034 4441 
Q 1650 4441 1433 4203 
Q 1216 3966 1216 3541 
Q 1216 3113 1433 2875 
Q 1650 2638 2034 2638 
Q 2422 2638 2637 2875 
Q 2853 3113 2853 3541 
z
M 2516 2484 
Q 3047 2413 3344 2092 
Q 3641 1772 3641 1275 
Q 3641 619 3225 264 
Q 2809 -91 2034 -91 
Q 1263 -91 845 264 
Q 428 619 428 1275 
Q 428 1772 725 2092 
Q 1022 2413 1556 2484 
Q 1084 2569 832 2842 
Q 581 3116 581 3541 
Q 581 4103 968 4426 
Q 1356 4750 2034 4750 
Q 2713 4750 3100 4426 
Q 3488 4103 3488 3541 
Q 3488 3116 3236 2842 
Q 2984 2569 2516 2484 
z
" transform="scale(0.015625)"/>
      </defs>
      <use xlink:href="#DejaVuSerif-4e"/>
      <use xlink:href="#DejaVuSerif-3d" x="87.5"/>
      <use xlink:href="#DejaVuSerif-38" x="171.289062"/>
     </g>
    </g>
    <g id="line2d_62">
     <path d="M 320.765354 95.489333 
L 330.765354 95.489333 
L 340.765354 95.489333 
" style="fill: none; stroke: #55a868; stroke-width: 1.25; stroke-linejoin: miter"/>
    </g>
    <g id="text_14">
     <!-- N=10 -->
     <g transform="translate(348.765354 98.989333) scale(0.1 -0.1)">
      <use xlink:href="#DejaVuSerif-4e"/>
      <use xlink:href="#DejaVuSerif-3d" x="87.5"/>
      <use xlink:href="#DejaVuSerif-31" x="171.289062"/>
      <use xlink:href="#DejaVuSerif-30" x="234.912109"/>
     </g>
    </g>
    <g id="line2d_63">
     <path d="M 320.765354 110.167458 
L 330.765354 110.167458 
L 340.765354 110.167458 
" style="fill: none; stroke: #c44e52; stroke-width: 1.25; stroke-linejoin: miter"/>
    </g>
    <g id="text_15">
     <!-- N=12 -->
     <g transform="translate(348.765354 113.667458) scale(0.1 -0.1)">
      <use xlink:href="#DejaVuSerif-4e"/>
      <use xlink:href="#DejaVuSerif-3d" x="87.5"/>
      <use xlink:href="#DejaVuSerif-31" x="171.289062"/>
      <use xlink:href="#DejaVuSerif-32" x="234.912109"/>
     </g>
    </g>
   </g>
  </g>
 </g>
 <defs>
  <clipPath id="p4de3dd9435">
   <rect x="48.2667" y="19.634646" width="380.898655" height="234.990709"/>
  </clipPath>
 </defs>
</svg>
