<?xml version="1.0" encoding="utf-8" standalone="no"?>
<!DOCTYPE svg PUBLIC "-//W3C//DTD SVG 1.1//EN"
  "http://www.w3.org/Graphics/SVG/1.1/DTD/svg11.dtd">
<svg xmlns:xlink="http://www.w3.org/1999/xlink" width="432pt" height="288pt" viewBox="0 0 432 288" xmlns="http://www.w3.org/2000/svg" version="1.1">
 <metadata>
  <rdf:RDF xmlns:dc="http://purl.org/dc/elements/1.1/" xmlns:cc="http://creativecommons.org/ns#" xmlns:rdf="http://www.w3.org/1999/02/22-rdf-syntax-ns#">
   <cc:Work>
    <dc:type rdf:resource="http://purl.org/dc/dcmitype/StillImage"/>
    <dc:date>2024-07-12T23:47:03.845929</dc:date>
    <dc:format>image/svg+xml</dc:format>
    <dc:creator>
     <cc:Agent>
      <dc:title>Matplotlib v3.9.1, https://matplotlib.org/</dc:title>
     </cc:Agent>
    </dc:creator>
   </cc:Work>
  </rdf:RDF>
 </metadata>
 <defs>
  <style type="text/css">*{stroke-linejoin: round; stroke-linecap: butt}</style>
 </defs>
 <g id="figure_1">
  <g id="patch_1">
   <path d="M 0 288 
L 432 288 
L 432 0 
L 0 0 
z
" style="fill: #ffffff"/>
  </g>
  <g id="axes_1">
   <g id="patch_2">
    <path d="M 48.4467 254.625354 
L 429.165354 254.625354 
L 429.165354 19.634646 
L 48.4467 19.634646 
z
" style="fill: #ffffff"/>
   </g>
   <g id="line2d_1">
    <path d="M -1 129.630112 
L 433 129.630112 
" clip-path="url(#p4c3b40e880)" style="fill: none; stroke-dasharray: 3.7,1.6; stroke-dashoffset: 0; stroke: #8c8c8c"/>
   </g>
   <g id="line2d_2">
    <path d="M -1 163.54008 
L 433 163.54008 
" clip-path="url(#p4c3b40e880)" style="fill: none; stroke-dasharray: 3.7,1.6; stroke-dashoffset: 0; stroke: #8c8c8c"/>
   </g>
   <g id="line2d_3">
    <path d="M -1 197.450048 
L 433 197.450048 
" clip-path="url(#p4c3b40e880)" style="fill: none; stroke-dasharray: 3.7,1.6; stroke-dashoffset: 0; stroke: #8c8c8c"/>
   </g>
   <g id="line2d_4">
    <path d="M -1 231.360017 
L 433 231.360017 
" clip-path="url(#p4c3b40e880)" style="fill: none; stroke-dasharray: 3.7,1.6; stroke-dashoffset: 0; stroke: #8c8c8c"/>
   </g>
   <g id="matplotlib.axis_1">
    <g id="xtick_1">
     <g id="line2d_5">
      <defs>
       <path id="m002b6bf148" d="M 0 0 
L 0 -2.5 
" style="stroke: #000000; stroke-width: 0.5"/>
      </defs>
      <g>
       <use xlink:href="#m002b6bf148" x="108.199284" y="254.625354" style="stroke: #000000; stroke-width: 0.5"/>
      </g>
     </g>
     <g id="line2d_6">
      <defs>
       <path id="m57bc2cb205" d="M 0 0 
L 0 2.5 
" style="stroke: #000000; stroke-width: 0.5"/>
      </defs>
      <g>
       <use xlink:href="#m57bc2cb205" x="108.199284" y="19.634646" style="stroke: #000000; stroke-width: 0.5"/>
      </g>
     </g>
     <g id="text_1">
      <!-- $2.5$ -->
      <g transform="translate(100.199284 265.723792) scale(0.1 -0.1)">
       <defs>
        <path id="DejaVuSerif-32" d="M 819 3553 
L 469 3553 
L 469 4384 
Q 803 4563 1142 4656 
Q 1481 4750 1806 4750 
Q 2534 4750 2956 4397 
Q 3378 4044 3378 3438 
Q 3378 2753 2422 1800 
Q 2347 1728 2309 1691 
L 1131 513 
L 3078 513 
L 3078 1088 
L 3444 1088 
L 3444 0 
L 434 0 
L 434 341 
L 1850 1753 
Q 2319 2222 2519 2614 
Q 2719 3006 2719 3438 
Q 2719 3909 2473 4175 
Q 2228 4441 1797 4441 
Q 1350 4441 1106 4219 
Q 863 3997 819 3553 
z
" transform="scale(0.015625)"/>
        <path id="DejaVuSerif-2e" d="M 603 325 
Q 603 500 722 622 
Q 841 744 1019 744 
Q 1191 744 1312 622 
Q 1434 500 1434 325 
Q 1434 153 1312 31 
Q 1191 -91 1019 -91 
Q 841 -91 722 29 
Q 603 150 603 325 
z
" transform="scale(0.015625)"/>
        <path id="DejaVuSerif-35" d="M 3219 4666 
L 3219 4153 
L 1081 4153 
L 1081 2816 
Q 1244 2928 1461 2984 
Q 1678 3041 1947 3041 
Q 2703 3041 3140 2622 
Q 3578 2203 3578 1478 
Q 3578 738 3136 323 
Q 2694 -91 1894 -91 
Q 1572 -91 1234 -12 
Q 897 66 544 225 
L 544 1131 
L 897 1131 
Q 925 688 1179 453 
Q 1434 219 1894 219 
Q 2388 219 2653 544 
Q 2919 869 2919 1478 
Q 2919 2084 2655 2407 
Q 2391 2731 1894 2731 
Q 1613 2731 1398 2631 
Q 1184 2531 1019 2322 
L 750 2322 
L 750 4666 
L 3219 4666 
z
" transform="scale(0.015625)"/>
       </defs>
       <use xlink:href="#DejaVuSerif-32" transform="translate(0 0.78125)"/>
       <use xlink:href="#DejaVuSerif-2e" transform="translate(63.623047 0.78125)"/>
       <use xlink:href="#DejaVuSerif-35" transform="translate(95.410156 0.78125)"/>
      </g>
     </g>
    </g>
    <g id="xtick_2">
     <g id="line2d_7">
      <g>
       <use xlink:href="#m002b6bf148" x="189.828498" y="254.625354" style="stroke: #000000; stroke-width: 0.5"/>
      </g>
     </g>
     <g id="line2d_8">
      <g>
       <use xlink:href="#m57bc2cb205" x="189.828498" y="19.634646" style="stroke: #000000; stroke-width: 0.5"/>
      </g>
     </g>
     <g id="text_2">
      <!-- $5.0$ -->
      <g transform="translate(181.828498 265.723792) scale(0.1 -0.1)">
       <defs>
        <path id="DejaVuSerif-30" d="M 2034 219 
Q 2513 219 2750 744 
Q 2988 1269 2988 2328 
Q 2988 3391 2750 3916 
Q 2513 4441 2034 4441 
Q 1556 4441 1318 3916 
Q 1081 3391 1081 2328 
Q 1081 1269 1318 744 
Q 1556 219 2034 219 
z
M 2034 -91 
Q 1275 -91 848 546 
Q 422 1184 422 2328 
Q 422 3475 848 4112 
Q 1275 4750 2034 4750 
Q 2797 4750 3222 4112 
Q 3647 3475 3647 2328 
Q 3647 1184 3222 546 
Q 2797 -91 2034 -91 
z
" transform="scale(0.015625)"/>
       </defs>
       <use xlink:href="#DejaVuSerif-35" transform="translate(0 0.78125)"/>
       <use xlink:href="#DejaVuSerif-2e" transform="translate(63.623047 0.78125)"/>
       <use xlink:href="#DejaVuSerif-30" transform="translate(95.410156 0.78125)"/>
      </g>
     </g>
    </g>
    <g id="xtick_3">
     <g id="line2d_9">
      <g>
       <use xlink:href="#m002b6bf148" x="271.457713" y="254.625354" style="stroke: #000000; stroke-width: 0.5"/>
      </g>
     </g>
     <g id="line2d_10">
      <g>
       <use xlink:href="#m57bc2cb205" x="271.457713" y="19.634646" style="stroke: #000000; stroke-width: 0.5"/>
      </g>
     </g>
     <g id="text_3">
      <!-- $7.5$ -->
      <g transform="translate(263.457713 265.723792) scale(0.1 -0.1)">
       <defs>
        <path id="DejaVuSerif-37" d="M 3609 4347 
L 1784 0 
L 1319 0 
L 3059 4153 
L 903 4153 
L 903 3578 
L 538 3578 
L 538 4666 
L 3609 4666 
L 3609 4347 
z
" transform="scale(0.015625)"/>
       </defs>
       <use xlink:href="#DejaVuSerif-37" transform="translate(0 0.09375)"/>
       <use xlink:href="#DejaVuSerif-2e" transform="translate(63.623047 0.09375)"/>
       <use xlink:href="#DejaVuSerif-35" transform="translate(95.410156 0.09375)"/>
      </g>
     </g>
    </g>
    <g id="xtick_4">
     <g id="line2d_11">
      <g>
       <use xlink:href="#m002b6bf148" x="353.086927" y="254.625354" style="stroke: #000000; stroke-width: 0.5"/>
      </g>
     </g>
     <g id="line2d_12">
      <g>
       <use xlink:href="#m57bc2cb205" x="353.086927" y="19.634646" style="stroke: #000000; stroke-width: 0.5"/>
      </g>
     </g>
     <g id="text_4">
      <!-- $10.0$ -->
      <g transform="translate(341.936927 265.723792) scale(0.1 -0.1)">
       <defs>
        <path id="DejaVuSerif-31" d="M 909 0 
L 909 331 
L 1722 331 
L 1722 4213 
L 781 3603 
L 781 4013 
L 1919 4750 
L 2350 4750 
L 2350 331 
L 3163 331 
L 3163 0 
L 909 0 
z
" transform="scale(0.015625)"/>
       </defs>
       <use xlink:href="#DejaVuSerif-31" transform="translate(0 0.78125)"/>
       <use xlink:href="#DejaVuSerif-30" transform="translate(63.623047 0.78125)"/>
       <use xlink:href="#DejaVuSerif-2e" transform="translate(127.246094 0.78125)"/>
       <use xlink:href="#DejaVuSerif-30" transform="translate(159.033203 0.78125)"/>
      </g>
     </g>
    </g>
    <g id="text_5">
     <!-- $n_H$ -->
     <g transform="translate(231.066027 280.921604) scale(0.12 -0.12)">
      <defs>
       <path id="DejaVuSerif-Italic-6e" d="M 450 0 
L 1031 2988 
L 481 2988 
L 544 3322 
L 1669 3322 
L 1556 2731 
Q 1781 3069 2068 3241 
Q 2356 3413 2694 3413 
Q 3244 3413 3444 3097 
Q 3563 2906 3563 2588 
Q 3563 2378 3509 2113 
L 3163 331 
L 3675 331 
L 3613 0 
L 2522 0 
L 2897 1931 
Q 2959 2253 2959 2469 
Q 2959 2659 2909 2769 
Q 2803 2994 2425 2994 
Q 2025 2994 1759 2701 
Q 1494 2409 1384 1850 
L 1025 0 
L 450 0 
z
" transform="scale(0.015625)"/>
       <path id="DejaVuSerif-Italic-48" d="M -97 0 
L -34 331 
L 559 331 
L 1338 4331 
L 744 4331 
L 809 4666 
L 2631 4666 
L 2566 4331 
L 1972 4331 
L 1659 2719 
L 4078 2719 
L 4391 4331 
L 3797 4331 
L 3863 4666 
L 5684 4666 
L 5619 4331 
L 5025 4331 
L 4247 331 
L 4841 331 
L 4778 0 
L 2956 0 
L 3019 331 
L 3616 331 
L 4003 2338 
L 1584 2338 
L 1194 331 
L 1788 331 
L 1725 0 
L -97 0 
z
" transform="scale(0.015625)"/>
      </defs>
      <use xlink:href="#DejaVuSerif-Italic-6e" transform="translate(0 0.671875)"/>
      <use xlink:href="#DejaVuSerif-Italic-48" transform="translate(64.404297 -14.9) scale(0.7)"/>
     </g>
    </g>
   </g>
   <g id="matplotlib.axis_2">
    <g id="ytick_1">
     <g id="line2d_13">
      <defs>
       <path id="md987c534f2" d="M 0 0 
L 2.5 0 
" style="stroke: #000000; stroke-width: 0.5"/>
      </defs>
      <g>
       <use xlink:href="#md987c534f2" x="48.4467" y="199.81686" style="stroke: #000000; stroke-width: 0.5"/>
      </g>
     </g>
     <g id="line2d_14">
      <defs>
       <path id="m952e4c7dc5" d="M 0 0 
L -2.5 0 
" style="stroke: #000000; stroke-width: 0.5"/>
      </defs>
      <g>
       <use xlink:href="#m952e4c7dc5" x="429.165354" y="199.81686" style="stroke: #000000; stroke-width: 0.5"/>
      </g>
     </g>
     <g id="text_6">
      <!-- $10^{-4}$ -->
      <g transform="translate(21.5467 203.616078) scale(0.1 -0.1)">
       <defs>
        <path id="DejaVuSerif-2212" d="M 678 2259 
L 4684 2259 
L 4684 1753 
L 678 1753 
L 678 2259 
z
" transform="scale(0.015625)"/>
        <path id="DejaVuSerif-34" d="M 2234 1581 
L 2234 4063 
L 641 1581 
L 2234 1581 
z
M 3609 0 
L 1484 0 
L 1484 331 
L 2234 331 
L 2234 1247 
L 197 1247 
L 197 1588 
L 2241 4750 
L 2859 4750 
L 2859 1581 
L 3750 1581 
L 3750 1247 
L 2859 1247 
L 2859 331 
L 3609 331 
L 3609 0 
z
" transform="scale(0.015625)"/>
       </defs>
       <use xlink:href="#DejaVuSerif-31" transform="translate(0 0.7125)"/>
       <use xlink:href="#DejaVuSerif-30" transform="translate(63.623047 0.7125)"/>
       <use xlink:href="#DejaVuSerif-2212" transform="translate(128.154453 37.046875) scale(0.7)"/>
       <use xlink:href="#DejaVuSerif-34" transform="translate(186.806797 37.046875) scale(0.7)"/>
      </g>
     </g>
    </g>
    <g id="ytick_2">
     <g id="line2d_15">
      <g>
       <use xlink:href="#md987c534f2" x="48.4467" y="126.732954" style="stroke: #000000; stroke-width: 0.5"/>
      </g>
     </g>
     <g id="line2d_16">
      <g>
       <use xlink:href="#m952e4c7dc5" x="429.165354" y="126.732954" style="stroke: #000000; stroke-width: 0.5"/>
      </g>
     </g>
     <g id="text_7">
      <!-- $10^{-3}$ -->
      <g transform="translate(21.5467 130.532172) scale(0.1 -0.1)">
       <defs>
        <path id="DejaVuSerif-33" d="M 622 4469 
Q 988 4606 1323 4678 
Q 1659 4750 1953 4750 
Q 2638 4750 3022 4454 
Q 3406 4159 3406 3634 
Q 3406 3213 3140 2930 
Q 2875 2647 2388 2547 
Q 2963 2466 3280 2130 
Q 3597 1794 3597 1259 
Q 3597 606 3158 257 
Q 2719 -91 1894 -91 
Q 1528 -91 1179 -12 
Q 831 66 488 225 
L 488 1131 
L 838 1131 
Q 869 681 1141 450 
Q 1413 219 1906 219 
Q 2384 219 2661 495 
Q 2938 772 2938 1253 
Q 2938 1803 2653 2086 
Q 2369 2369 1819 2369 
L 1522 2369 
L 1522 2688 
L 1678 2688 
Q 2225 2688 2498 2914 
Q 2772 3141 2772 3597 
Q 2772 4006 2547 4223 
Q 2322 4441 1900 4441 
Q 1478 4441 1245 4241 
Q 1013 4041 972 3647 
L 622 3647 
L 622 4469 
z
" transform="scale(0.015625)"/>
       </defs>
       <use xlink:href="#DejaVuSerif-31" transform="translate(0 0.7125)"/>
       <use xlink:href="#DejaVuSerif-30" transform="translate(63.623047 0.7125)"/>
       <use xlink:href="#DejaVuSerif-2212" transform="translate(128.154453 37.046875) scale(0.7)"/>
       <use xlink:href="#DejaVuSerif-33" transform="translate(186.806797 37.046875) scale(0.7)"/>
      </g>
     </g>
    </g>
    <g id="ytick_3">
     <g id="line2d_17">
      <g>
       <use xlink:href="#md987c534f2" x="48.4467" y="53.649048" style="stroke: #000000; stroke-width: 0.5"/>
      </g>
     </g>
     <g id="line2d_18">
      <g>
       <use xlink:href="#m952e4c7dc5" x="429.165354" y="53.649048" style="stroke: #000000; stroke-width: 0.5"/>
      </g>
     </g>
     <g id="text_8">
      <!-- $10^{-2}$ -->
      <g transform="translate(21.5467 57.448266) scale(0.1 -0.1)">
       <use xlink:href="#DejaVuSerif-31" transform="translate(0 0.7125)"/>
       <use xlink:href="#DejaVuSerif-30" transform="translate(63.623047 0.7125)"/>
       <use xlink:href="#DejaVuSerif-2212" transform="translate(128.154453 37.046875) scale(0.7)"/>
       <use xlink:href="#DejaVuSerif-32" transform="translate(186.806797 37.046875) scale(0.7)"/>
      </g>
     </g>
    </g>
    <g id="text_9">
     <!-- $P(\lambda &gt; 2)$ -->
     <g transform="translate(15.051075 160.83) rotate(-90) scale(0.12 -0.12)">
      <defs>
       <path id="DejaVuSerif-Italic-50" d="M 1594 2375 
L 2419 2375 
Q 2884 2375 3176 2626 
Q 3469 2878 3559 3353 
Q 3653 3831 3458 4081 
Q 3263 4331 2797 4331 
L 1972 4331 
L 1594 2375 
z
M -97 0 
L -34 331 
L 559 331 
L 1338 4331 
L 744 4331 
L 809 4666 
L 3016 4666 
Q 3716 4666 4056 4311 
Q 4397 3956 4278 3353 
Q 4163 2753 3684 2397 
Q 3206 2041 2506 2041 
L 1528 2041 
L 1194 331 
L 1916 331 
L 1853 0 
L -97 0 
z
" transform="scale(0.015625)"/>
       <path id="DejaVuSerif-28" d="M 2041 -997 
Q 1281 -656 893 83 
Q 506 822 506 1931 
Q 506 3044 893 3783 
Q 1281 4522 2041 4863 
L 2041 4556 
Q 1559 4225 1350 3623 
Q 1141 3022 1141 1931 
Q 1141 844 1350 242 
Q 1559 -359 2041 -691 
L 2041 -997 
z
" transform="scale(0.015625)"/>
       <path id="DejaVuSerif-Italic-3bb" d="M 1984 4084 
Q 1925 4372 1834 4466 
Q 1744 4563 1578 4563 
Q 1391 4563 1288 4472 
Q 1178 4378 1119 4166 
L 825 4166 
L 947 4800 
Q 1113 4847 1272 4872 
Q 1431 4897 1578 4897 
Q 1925 4897 2088 4753 
Q 2253 4613 2334 4225 
L 3100 334 
L 3472 334 
L 3406 0 
L 2159 0 
L 2225 334 
L 2722 334 
L 2281 2628 
L 853 334 
L 1384 334 
L 1319 0 
L -209 0 
L -144 334 
L 234 334 
L 2116 3388 
L 1984 4084 
z
" transform="scale(0.015625)"/>
       <path id="DejaVuSerif-3e" d="M 678 3188 
L 678 3719 
L 4684 2266 
L 4684 1747 
L 678 294 
L 678 825 
L 3922 2003 
L 678 3188 
z
" transform="scale(0.015625)"/>
       <path id="DejaVuSerif-29" d="M 453 -997 
L 453 -691 
Q 934 -359 1145 242 
Q 1356 844 1356 1931 
Q 1356 3022 1145 3623 
Q 934 4225 453 4556 
L 453 4863 
Q 1216 4522 1603 3783 
Q 1991 3044 1991 1931 
Q 1991 822 1603 83 
Q 1216 -656 453 -997 
z
" transform="scale(0.015625)"/>
      </defs>
      <use xlink:href="#DejaVuSerif-Italic-50" transform="translate(0 0.484375)"/>
      <use xlink:href="#DejaVuSerif-28" transform="translate(67.285156 0.484375)"/>
      <use xlink:href="#DejaVuSerif-Italic-3bb" transform="translate(106.298828 0.484375)"/>
      <use xlink:href="#DejaVuSerif-3e" transform="translate(188.642578 0.484375)"/>
      <use xlink:href="#DejaVuSerif-32" transform="translate(291.396484 0.484375)"/>
      <use xlink:href="#DejaVuSerif-29" transform="translate(355.019531 0.484375)"/>
     </g>
    </g>
   </g>
   <g id="line2d_19">
    <path d="M 59.221756 26.285326 
L 60.541016 28.475142 
L 61.860276 30.664957 
L 63.179536 32.854773 
L 64.498796 35.044589 
L 65.818056 37.234404 
L 67.137316 39.42422 
L 68.456576 41.614035 
L 69.775836 43.803851 
L 71.095096 45.993667 
L 72.414356 48.183482 
L 73.733616 50.373298 
L 75.052876 52.563113 
L 76.372136 54.752929 
L 77.691396 56.942745 
L 79.010656 59.13256 
L 80.329916 61.322376 
L 81.649176 63.512192 
L 82.968436 65.702007 
L 84.287696 67.891823 
L 85.606956 70.081638 
L 86.926216 72.271454 
L 88.245476 74.46127 
L 89.564736 76.651085 
L 90.883996 78.840901 
L 92.203257 81.030716 
L 93.522517 83.220532 
L 94.841777 85.410348 
L 96.161037 87.600163 
L 97.480297 89.789979 
L 98.799557 91.979794 
L 100.118817 94.16961 
L 101.438077 96.359426 
L 102.757337 98.549241 
L 104.076597 100.739057 
L 105.395857 102.928873 
L 106.715117 105.118688 
L 108.034377 107.308504 
L 109.353637 109.498319 
L 110.672897 111.688135 
L 111.992157 113.877951 
L 113.311417 116.067766 
L 114.630677 118.257582 
L 115.949937 120.447397 
L 117.269197 122.637213 
L 118.588457 124.827029 
L 119.907717 127.016844 
L 121.226977 129.20666 
L 122.546237 131.396476 
L 123.865497 133.586291 
L 125.184757 135.776107 
L 126.504017 137.965922 
L 127.823277 140.155738 
L 129.142537 142.345554 
L 130.461797 144.535369 
L 131.781057 146.725185 
L 133.100317 148.915 
L 134.419577 151.104816 
L 135.738837 153.294632 
L 137.058097 155.484447 
L 138.377357 157.674263 
L 139.696617 159.864078 
L 141.015877 162.053894 
L 142.335138 164.24371 
L 143.654398 166.433525 
L 144.973658 168.623341 
L 146.292918 170.813157 
L 147.612178 173.002972 
L 148.931438 175.192788 
L 150.250698 177.382603 
L 151.569958 179.572419 
L 152.889218 181.762235 
L 154.208478 183.95205 
L 155.527738 186.141866 
L 156.846998 188.331681 
L 158.166258 190.521497 
L 159.485518 192.711313 
L 160.804778 194.901128 
L 162.124038 197.090944 
L 163.443298 199.28076 
L 164.762558 201.470575 
L 166.081818 203.660391 
L 167.401078 205.850206 
L 168.720338 208.040022 
L 170.039598 210.229838 
L 171.358858 212.419653 
L 172.678118 214.609469 
L 173.997378 216.799284 
L 175.316638 218.9891 
L 176.635898 221.178916 
L 177.955158 223.368731 
L 179.274418 225.558547 
L 180.593678 227.748362 
L 181.912938 229.938178 
L 183.232198 232.127994 
L 184.551458 234.317809 
L 185.870718 236.507625 
L 187.189978 238.697441 
L 188.509238 240.887256 
L 189.828498 243.077072 
" clip-path="url(#p4c3b40e880)" style="fill: none; stroke-dasharray: 3.7,1.6; stroke-dashoffset: 0; stroke: #8c8c8c"/>
   </g>
   <g id="patch_3">
    <path d="M 48.4467 254.625354 
L 48.4467 19.634646 
" style="fill: none; stroke: #000000; stroke-linejoin: miter; stroke-linecap: square"/>
   </g>
   <g id="patch_4">
    <path d="M 429.165354 254.625354 
L 429.165354 19.634646 
" style="fill: none; stroke: #000000; stroke-linejoin: miter; stroke-linecap: square"/>
   </g>
   <g id="patch_5">
    <path d="M 48.4467 254.625354 
L 429.165354 254.625354 
" style="fill: none; stroke: #000000; stroke-linejoin: miter; stroke-linecap: square"/>
   </g>
   <g id="patch_6">
    <path d="M 48.4467 19.634646 
L 429.165354 19.634646 
" style="fill: none; stroke: #000000; stroke-linejoin: miter; stroke-linecap: square"/>
   </g>
   <g id="line2d_20">
    <path d="M 59.221756 40.603808 
L 91.873441 82.07527 
L 124.525127 112.633764 
L 157.176813 124.669782 
L 189.828498 128.814999 
L 222.480184 134.965957 
" clip-path="url(#p4c3b40e880)" style="fill: none; stroke: #4c72b0"/>
   </g>
   <g id="line2d_21">
    <path d="M 59.221756 40.787597 
L 59.221756 40.421078 
" clip-path="url(#p4c3b40e880)" style="fill: none; stroke: #000000"/>
   </g>
   <g id="line2d_22">
    <path d="M 91.873441 82.508976 
L 91.873441 81.647412 
" clip-path="url(#p4c3b40e880)" style="fill: none; stroke: #000000"/>
   </g>
   <g id="line2d_23">
    <path d="M 124.525127 113.392593 
L 124.525127 111.892655 
" clip-path="url(#p4c3b40e880)" style="fill: none; stroke: #000000"/>
   </g>
   <g id="line2d_24">
    <path d="M 157.176813 125.602757 
L 157.176813 123.763451 
" clip-path="url(#p4c3b40e880)" style="fill: none; stroke: #000000"/>
   </g>
   <g id="line2d_25">
    <path d="M 189.828498 129.81368 
L 189.828498 127.846785 
" clip-path="url(#p4c3b40e880)" style="fill: none; stroke: #000000"/>
   </g>
   <g id="line2d_26">
    <path d="M 222.480184 136.073095 
L 222.480184 133.896141 
" clip-path="url(#p4c3b40e880)" style="fill: none; stroke: #000000"/>
   </g>
   <g id="text_10">
    <!-- Tail probability with $n_H$ -->
    <g transform="translate(167.466027 13.634646) scale(0.12 -0.12)">
     <defs>
      <path id="DejaVuSerif-54" d="M 1222 0 
L 1222 331 
L 1819 331 
L 1819 4294 
L 447 4294 
L 447 3566 
L 63 3566 
L 63 4666 
L 4206 4666 
L 4206 3566 
L 3822 3566 
L 3822 4294 
L 2450 4294 
L 2450 331 
L 3047 331 
L 3047 0 
L 1222 0 
z
" transform="scale(0.015625)"/>
      <path id="DejaVuSerif-61" d="M 2547 1044 
L 2547 1747 
L 1806 1747 
Q 1378 1747 1168 1562 
Q 959 1378 959 997 
Q 959 650 1171 447 
Q 1384 244 1747 244 
Q 2106 244 2326 466 
Q 2547 688 2547 1044 
z
M 3122 2075 
L 3122 331 
L 3634 331 
L 3634 0 
L 2547 0 
L 2547 359 
Q 2356 128 2106 18 
Q 1856 -91 1522 -91 
Q 969 -91 644 203 
Q 319 497 319 997 
Q 319 1513 691 1797 
Q 1063 2081 1741 2081 
L 2547 2081 
L 2547 2309 
Q 2547 2688 2317 2895 
Q 2088 3103 1672 3103 
Q 1328 3103 1125 2947 
Q 922 2791 872 2484 
L 575 2484 
L 575 3156 
Q 875 3284 1158 3348 
Q 1441 3413 1709 3413 
Q 2400 3413 2761 3070 
Q 3122 2728 3122 2075 
z
" transform="scale(0.015625)"/>
      <path id="DejaVuSerif-69" d="M 622 4353 
Q 622 4497 726 4603 
Q 831 4709 978 4709 
Q 1122 4709 1226 4603 
Q 1331 4497 1331 4353 
Q 1331 4206 1228 4103 
Q 1125 4000 978 4000 
Q 831 4000 726 4103 
Q 622 4206 622 4353 
z
M 1356 331 
L 1900 331 
L 1900 0 
L 231 0 
L 231 331 
L 781 331 
L 781 2988 
L 231 2988 
L 231 3322 
L 1356 3322 
L 1356 331 
z
" transform="scale(0.015625)"/>
      <path id="DejaVuSerif-6c" d="M 1313 331 
L 1856 331 
L 1856 0 
L 184 0 
L 184 331 
L 738 331 
L 738 4531 
L 184 4531 
L 184 4863 
L 1313 4863 
L 1313 331 
z
" transform="scale(0.015625)"/>
      <path id="DejaVuSerif-20" transform="scale(0.015625)"/>
      <path id="DejaVuSerif-70" d="M 1313 1825 
L 1313 1497 
Q 1313 897 1542 583 
Q 1772 269 2209 269 
Q 2650 269 2876 622 
Q 3103 975 3103 1663 
Q 3103 2353 2876 2703 
Q 2650 3053 2209 3053 
Q 1772 3053 1542 2737 
Q 1313 2422 1313 1825 
z
M 738 2988 
L 184 2988 
L 184 3322 
L 1313 3322 
L 1313 2803 
Q 1481 3116 1742 3264 
Q 2003 3413 2388 3413 
Q 3000 3413 3387 2928 
Q 3775 2444 3775 1663 
Q 3775 881 3387 395 
Q 3000 -91 2388 -91 
Q 2003 -91 1742 57 
Q 1481 206 1313 519 
L 1313 -997 
L 1856 -997 
L 1856 -1331 
L 184 -1331 
L 184 -997 
L 738 -997 
L 738 2988 
z
" transform="scale(0.015625)"/>
      <path id="DejaVuSerif-72" d="M 3059 3328 
L 3059 2497 
L 2728 2497 
Q 2713 2744 2591 2866 
Q 2469 2988 2234 2988 
Q 1809 2988 1582 2694 
Q 1356 2400 1356 1850 
L 1356 331 
L 2022 331 
L 2022 0 
L 263 0 
L 263 331 
L 781 331 
L 781 2994 
L 231 2994 
L 231 3322 
L 1356 3322 
L 1356 2731 
Q 1525 3078 1790 3245 
Q 2056 3413 2438 3413 
Q 2578 3413 2733 3391 
Q 2888 3369 3059 3328 
z
" transform="scale(0.015625)"/>
      <path id="DejaVuSerif-6f" d="M 1925 219 
Q 2388 219 2623 584 
Q 2859 950 2859 1663 
Q 2859 2375 2623 2739 
Q 2388 3103 1925 3103 
Q 1463 3103 1227 2739 
Q 991 2375 991 1663 
Q 991 950 1228 584 
Q 1466 219 1925 219 
z
M 1925 -91 
Q 1200 -91 759 389 
Q 319 869 319 1663 
Q 319 2456 758 2934 
Q 1197 3413 1925 3413 
Q 2653 3413 3092 2934 
Q 3531 2456 3531 1663 
Q 3531 869 3092 389 
Q 2653 -91 1925 -91 
z
" transform="scale(0.015625)"/>
      <path id="DejaVuSerif-62" d="M 738 331 
L 738 4531 
L 184 4531 
L 184 4863 
L 1313 4863 
L 1313 2803 
Q 1481 3116 1742 3264 
Q 2003 3413 2388 3413 
Q 3000 3413 3387 2928 
Q 3775 2444 3775 1663 
Q 3775 881 3387 395 
Q 3000 -91 2388 -91 
Q 2003 -91 1742 57 
Q 1481 206 1313 519 
L 1313 0 
L 184 0 
L 184 331 
L 738 331 
z
M 1313 1497 
Q 1313 897 1542 583 
Q 1772 269 2209 269 
Q 2650 269 2876 622 
Q 3103 975 3103 1663 
Q 3103 2353 2876 2703 
Q 2650 3053 2209 3053 
Q 1772 3053 1542 2737 
Q 1313 2422 1313 1825 
L 1313 1497 
z
" transform="scale(0.015625)"/>
      <path id="DejaVuSerif-74" d="M 691 2988 
L 184 2988 
L 184 3322 
L 691 3322 
L 691 4353 
L 1269 4353 
L 1269 3322 
L 2350 3322 
L 2350 2988 
L 1269 2988 
L 1269 878 
Q 1269 456 1350 337 
Q 1431 219 1650 219 
Q 1875 219 1978 351 
Q 2081 484 2088 781 
L 2522 781 
Q 2497 328 2275 118 
Q 2053 -91 1600 -91 
Q 1103 -91 897 129 
Q 691 350 691 878 
L 691 2988 
z
" transform="scale(0.015625)"/>
      <path id="DejaVuSerif-79" d="M 1381 -609 
L 1600 -56 
L 359 2988 
L -19 2988 
L -19 3322 
L 1509 3322 
L 1509 2988 
L 978 2988 
L 1913 703 
L 2847 2988 
L 2350 2988 
L 2350 3322 
L 3597 3322 
L 3597 2988 
L 3225 2988 
L 1703 -750 
Q 1547 -1138 1356 -1280 
Q 1166 -1422 819 -1422 
Q 672 -1422 517 -1397 
Q 363 -1372 206 -1325 
L 206 -691 
L 500 -691 
Q 519 -903 608 -995 
Q 697 -1088 884 -1088 
Q 1056 -1088 1161 -992 
Q 1266 -897 1381 -609 
z
" transform="scale(0.015625)"/>
      <path id="DejaVuSerif-77" d="M 3072 3322 
L 3922 728 
L 4672 2988 
L 4191 2988 
L 4191 3322 
L 5394 3322 
L 5394 2988 
L 5025 2988 
L 4038 0 
L 3559 0 
L 2741 2484 
L 1919 0 
L 1459 0 
L 475 2988 
L 103 2988 
L 103 3322 
L 1606 3322 
L 1606 2988 
L 1069 2988 
L 1813 728 
L 2669 3322 
L 3072 3322 
z
" transform="scale(0.015625)"/>
      <path id="DejaVuSerif-68" d="M 263 0 
L 263 331 
L 781 331 
L 781 4531 
L 231 4531 
L 231 4863 
L 1356 4863 
L 1356 2731 
Q 1516 3069 1770 3241 
Q 2025 3413 2363 3413 
Q 2913 3413 3172 3097 
Q 3431 2781 3431 2113 
L 3431 331 
L 3944 331 
L 3944 0 
L 2356 0 
L 2356 331 
L 2853 331 
L 2853 1931 
Q 2853 2541 2704 2764 
Q 2556 2988 2175 2988 
Q 1775 2988 1565 2697 
Q 1356 2406 1356 1850 
L 1356 331 
L 1856 331 
L 1856 0 
L 263 0 
z
" transform="scale(0.015625)"/>
     </defs>
     <use xlink:href="#DejaVuSerif-54" transform="translate(0 0.015625)"/>
     <use xlink:href="#DejaVuSerif-61" transform="translate(66.699219 0.015625)"/>
     <use xlink:href="#DejaVuSerif-69" transform="translate(126.318359 0.015625)"/>
     <use xlink:href="#DejaVuSerif-6c" transform="translate(158.300781 0.015625)"/>
     <use xlink:href="#DejaVuSerif-20" transform="translate(190.283203 0.015625)"/>
     <use xlink:href="#DejaVuSerif-70" transform="translate(222.070312 0.015625)"/>
     <use xlink:href="#DejaVuSerif-72" transform="translate(286.083984 0.015625)"/>
     <use xlink:href="#DejaVuSerif-6f" transform="translate(333.886719 0.015625)"/>
     <use xlink:href="#DejaVuSerif-62" transform="translate(394.091797 0.015625)"/>
     <use xlink:href="#DejaVuSerif-61" transform="translate(458.105469 0.015625)"/>
     <use xlink:href="#DejaVuSerif-62" transform="translate(517.724609 0.015625)"/>
     <use xlink:href="#DejaVuSerif-69" transform="translate(581.738281 0.015625)"/>
     <use xlink:href="#DejaVuSerif-6c" transform="translate(613.720703 0.015625)"/>
     <use xlink:href="#DejaVuSerif-69" transform="translate(645.703125 0.015625)"/>
     <use xlink:href="#DejaVuSerif-74" transform="translate(677.685547 0.015625)"/>
     <use xlink:href="#DejaVuSerif-79" transform="translate(717.871094 0.015625)"/>
     <use xlink:href="#DejaVuSerif-20" transform="translate(774.365234 0.015625)"/>
     <use xlink:href="#DejaVuSerif-77" transform="translate(806.152344 0.015625)"/>
     <use xlink:href="#DejaVuSerif-69" transform="translate(891.748047 0.015625)"/>
     <use xlink:href="#DejaVuSerif-74" transform="translate(923.730469 0.015625)"/>
     <use xlink:href="#DejaVuSerif-68" transform="translate(963.916016 0.015625)"/>
     <use xlink:href="#DejaVuSerif-20" transform="translate(1028.320312 0.015625)"/>
     <use xlink:href="#DejaVuSerif-Italic-6e" transform="translate(1060.107422 0.015625)"/>
     <use xlink:href="#DejaVuSerif-Italic-48" transform="translate(1124.511719 -15.55625) scale(0.7)"/>
    </g>
   </g>
   <g id="PathCollection_1">
    <defs>
     <path id="m8587b37019" d="M 2 0 
L -2 -0 
" style="stroke: #000000"/>
    </defs>
    <g clip-path="url(#p4c3b40e880)">
     <use xlink:href="#m8587b37019" x="59.221756" y="40.787597" style="stroke: #000000"/>
     <use xlink:href="#m8587b37019" x="59.221756" y="40.421078" style="stroke: #000000"/>
    </g>
   </g>
   <g id="PathCollection_2">
    <g clip-path="url(#p4c3b40e880)">
     <use xlink:href="#m8587b37019" x="91.873441" y="82.508976" style="stroke: #000000"/>
     <use xlink:href="#m8587b37019" x="91.873441" y="81.647412" style="stroke: #000000"/>
    </g>
   </g>
   <g id="PathCollection_3">
    <g clip-path="url(#p4c3b40e880)">
     <use xlink:href="#m8587b37019" x="124.525127" y="113.392593" style="stroke: #000000"/>
     <use xlink:href="#m8587b37019" x="124.525127" y="111.892655" style="stroke: #000000"/>
    </g>
   </g>
   <g id="PathCollection_4">
    <g clip-path="url(#p4c3b40e880)">
     <use xlink:href="#m8587b37019" x="157.176813" y="125.602757" style="stroke: #000000"/>
     <use xlink:href="#m8587b37019" x="157.176813" y="123.763451" style="stroke: #000000"/>
    </g>
   </g>
   <g id="PathCollection_5">
    <g clip-path="url(#p4c3b40e880)">
     <use xlink:href="#m8587b37019" x="189.828498" y="129.81368" style="stroke: #000000"/>
     <use xlink:href="#m8587b37019" x="189.828498" y="127.846785" style="stroke: #000000"/>
    </g>
   </g>
   <g id="PathCollection_6">
    <g clip-path="url(#p4c3b40e880)">
     <use xlink:href="#m8587b37019" x="222.480184" y="136.073095" style="stroke: #000000"/>
     <use xlink:href="#m8587b37019" x="222.480184" y="133.896141" style="stroke: #000000"/>
    </g>
   </g>
   <g id="line2d_27">
    <path d="M 59.221756 33.975617 
L 91.873441 77.958603 
L 124.525127 126.539095 
L 157.176813 151.402636 
L 189.828498 155.472035 
L 222.480184 160.665622 
L 255.13187 162.667083 
L 287.783555 163.911946 
" clip-path="url(#p4c3b40e880)" style="fill: none; stroke: #dd8452"/>
   </g>
   <g id="line2d_28">
    <path d="M 59.221756 34.098928 
L 59.221756 33.852783 
" clip-path="url(#p4c3b40e880)" style="fill: none; stroke: #000000"/>
   </g>
   <g id="line2d_29">
    <path d="M 91.873441 78.255011 
L 91.873441 77.664939 
" clip-path="url(#p4c3b40e880)" style="fill: none; stroke: #000000"/>
   </g>
   <g id="line2d_30">
    <path d="M 124.525127 127.414383 
L 124.525127 125.687298 
" clip-path="url(#p4c3b40e880)" style="fill: none; stroke: #000000"/>
   </g>
   <g id="line2d_31">
    <path d="M 157.176813 152.797364 
L 157.176813 150.066625 
" clip-path="url(#p4c3b40e880)" style="fill: none; stroke: #000000"/>
   </g>
   <g id="line2d_32">
    <path d="M 189.828498 156.97834 
L 189.828498 154.033988 
" clip-path="url(#p4c3b40e880)" style="fill: none; stroke: #000000"/>
   </g>
   <g id="line2d_33">
    <path d="M 222.480184 162.305076 
L 222.480184 159.106707 
" clip-path="url(#p4c3b40e880)" style="fill: none; stroke: #000000"/>
   </g>
   <g id="line2d_34">
    <path d="M 255.13187 164.371209 
L 255.13187 161.049809 
" clip-path="url(#p4c3b40e880)" style="fill: none; stroke: #000000"/>
   </g>
   <g id="line2d_35">
    <path d="M 287.783555 165.65406 
L 287.783555 162.260498 
" clip-path="url(#p4c3b40e880)" style="fill: none; stroke: #000000"/>
   </g>
   <g id="PathCollection_7">
    <g clip-path="url(#p4c3b40e880)">
     <use xlink:href="#m8587b37019" x="59.221756" y="34.098928" style="stroke: #000000"/>
     <use xlink:href="#m8587b37019" x="59.221756" y="33.852783" style="stroke: #000000"/>
    </g>
   </g>
   <g id="PathCollection_8">
    <g clip-path="url(#p4c3b40e880)">
     <use xlink:href="#m8587b37019" x="91.873441" y="78.255011" style="stroke: #000000"/>
     <use xlink:href="#m8587b37019" x="91.873441" y="77.664939" style="stroke: #000000"/>
    </g>
   </g>
   <g id="PathCollection_9">
    <g clip-path="url(#p4c3b40e880)">
     <use xlink:href="#m8587b37019" x="124.525127" y="127.414383" style="stroke: #000000"/>
     <use xlink:href="#m8587b37019" x="124.525127" y="125.687298" style="stroke: #000000"/>
    </g>
   </g>
   <g id="PathCollection_10">
    <g clip-path="url(#p4c3b40e880)">
     <use xlink:href="#m8587b37019" x="157.176813" y="152.797364" style="stroke: #000000"/>
     <use xlink:href="#m8587b37019" x="157.176813" y="150.066625" style="stroke: #000000"/>
    </g>
   </g>
   <g id="PathCollection_11">
    <g clip-path="url(#p4c3b40e880)">
     <use xlink:href="#m8587b37019" x="189.828498" y="156.97834" style="stroke: #000000"/>
     <use xlink:href="#m8587b37019" x="189.828498" y="154.033988" style="stroke: #000000"/>
    </g>
   </g>
   <g id="PathCollection_12">
    <g clip-path="url(#p4c3b40e880)">
     <use xlink:href="#m8587b37019" x="222.480184" y="162.305076" style="stroke: #000000"/>
     <use xlink:href="#m8587b37019" x="222.480184" y="159.106707" style="stroke: #000000"/>
    </g>
   </g>
   <g id="PathCollection_13">
    <g clip-path="url(#p4c3b40e880)">
     <use xlink:href="#m8587b37019" x="255.13187" y="164.371209" style="stroke: #000000"/>
     <use xlink:href="#m8587b37019" x="255.13187" y="161.049809" style="stroke: #000000"/>
    </g>
   </g>
   <g id="PathCollection_14">
    <g clip-path="url(#p4c3b40e880)">
     <use xlink:href="#m8587b37019" x="287.783555" y="165.65406" style="stroke: #000000"/>
     <use xlink:href="#m8587b37019" x="287.783555" y="162.260498" style="stroke: #000000"/>
    </g>
   </g>
   <g id="line2d_36">
    <path d="M 59.221756 31.131472 
L 91.873441 76.056986 
L 124.525127 132.878299 
L 157.176813 176.441396 
L 189.828498 190.192555 
L 222.480184 193.736 
L 255.13187 198.879643 
L 287.783555 193.240054 
L 320.435241 201.641379 
L 353.086927 197.725336 
" clip-path="url(#p4c3b40e880)" style="fill: none; stroke: #55a868"/>
   </g>
   <g id="line2d_37">
    <path d="M 59.221756 31.235257 
L 59.221756 31.028026 
" clip-path="url(#p4c3b40e880)" style="fill: none; stroke: #000000"/>
   </g>
   <g id="line2d_38">
    <path d="M 91.873441 76.255738 
L 91.873441 75.85947 
" clip-path="url(#p4c3b40e880)" style="fill: none; stroke: #000000"/>
   </g>
   <g id="line2d_39">
    <path d="M 124.525127 133.603941 
L 124.525127 132.168878 
" clip-path="url(#p4c3b40e880)" style="fill: none; stroke: #000000"/>
   </g>
   <g id="line2d_40">
    <path d="M 157.176813 178.426776 
L 157.176813 174.572927 
" clip-path="url(#p4c3b40e880)" style="fill: none; stroke: #000000"/>
   </g>
   <g id="line2d_41">
    <path d="M 189.828498 192.789272 
L 189.828498 187.792308 
" clip-path="url(#p4c3b40e880)" style="fill: none; stroke: #000000"/>
   </g>
   <g id="line2d_42">
    <path d="M 222.480184 196.489363 
L 222.480184 191.202536 
" clip-path="url(#p4c3b40e880)" style="fill: none; stroke: #000000"/>
   </g>
   <g id="line2d_43">
    <path d="M 255.13187 202.007231 
L 255.13187 196.032785 
" clip-path="url(#p4c3b40e880)" style="fill: none; stroke: #000000"/>
   </g>
   <g id="line2d_44">
    <path d="M 287.783555 195.967859 
L 287.783555 190.728242 
" clip-path="url(#p4c3b40e880)" style="fill: none; stroke: #000000"/>
   </g>
   <g id="line2d_45">
    <path d="M 320.435241 204.866938 
L 320.435241 198.713588 
" clip-path="url(#p4c3b40e880)" style="fill: none; stroke: #000000"/>
   </g>
   <g id="line2d_46">
    <path d="M 353.086927 200.691474 
L 353.086927 195.012853 
" clip-path="url(#p4c3b40e880)" style="fill: none; stroke: #000000"/>
   </g>
   <g id="PathCollection_15">
    <g clip-path="url(#p4c3b40e880)">
     <use xlink:href="#m8587b37019" x="59.221756" y="31.235257" style="stroke: #000000"/>
     <use xlink:href="#m8587b37019" x="59.221756" y="31.028026" style="stroke: #000000"/>
    </g>
   </g>
   <g id="PathCollection_16">
    <g clip-path="url(#p4c3b40e880)">
     <use xlink:href="#m8587b37019" x="91.873441" y="76.255738" style="stroke: #000000"/>
     <use xlink:href="#m8587b37019" x="91.873441" y="75.85947" style="stroke: #000000"/>
    </g>
   </g>
   <g id="PathCollection_17">
    <g clip-path="url(#p4c3b40e880)">
     <use xlink:href="#m8587b37019" x="124.525127" y="133.603941" style="stroke: #000000"/>
     <use xlink:href="#m8587b37019" x="124.525127" y="132.168878" style="stroke: #000000"/>
    </g>
   </g>
   <g id="PathCollection_18">
    <g clip-path="url(#p4c3b40e880)">
     <use xlink:href="#m8587b37019" x="157.176813" y="178.426776" style="stroke: #000000"/>
     <use xlink:href="#m8587b37019" x="157.176813" y="174.572927" style="stroke: #000000"/>
    </g>
   </g>
   <g id="PathCollection_19">
    <g clip-path="url(#p4c3b40e880)">
     <use xlink:href="#m8587b37019" x="189.828498" y="192.789272" style="stroke: #000000"/>
     <use xlink:href="#m8587b37019" x="189.828498" y="187.792308" style="stroke: #000000"/>
    </g>
   </g>
   <g id="PathCollection_20">
    <g clip-path="url(#p4c3b40e880)">
     <use xlink:href="#m8587b37019" x="222.480184" y="196.489363" style="stroke: #000000"/>
     <use xlink:href="#m8587b37019" x="222.480184" y="191.202536" style="stroke: #000000"/>
    </g>
   </g>
   <g id="PathCollection_21">
    <g clip-path="url(#p4c3b40e880)">
     <use xlink:href="#m8587b37019" x="255.13187" y="202.007231" style="stroke: #000000"/>
     <use xlink:href="#m8587b37019" x="255.13187" y="196.032785" style="stroke: #000000"/>
    </g>
   </g>
   <g id="PathCollection_22">
    <g clip-path="url(#p4c3b40e880)">
     <use xlink:href="#m8587b37019" x="287.783555" y="195.967859" style="stroke: #000000"/>
     <use xlink:href="#m8587b37019" x="287.783555" y="190.728242" style="stroke: #000000"/>
    </g>
   </g>
   <g id="PathCollection_23">
    <g clip-path="url(#p4c3b40e880)">
     <use xlink:href="#m8587b37019" x="320.435241" y="204.866938" style="stroke: #000000"/>
     <use xlink:href="#m8587b37019" x="320.435241" y="198.713588" style="stroke: #000000"/>
    </g>
   </g>
   <g id="PathCollection_24">
    <g clip-path="url(#p4c3b40e880)">
     <use xlink:href="#m8587b37019" x="353.086927" y="200.691474" style="stroke: #000000"/>
     <use xlink:href="#m8587b37019" x="353.086927" y="195.012853" style="stroke: #000000"/>
    </g>
   </g>
   <g id="line2d_47">
    <path d="M 59.221756 30.082849 
L 91.873441 75.108553 
L 124.525127 134.038049 
L 157.176813 191.099472 
L 189.828498 223.964062 
L 222.480184 232.033438 
L 255.13187 228.856795 
L 287.783555 229.62165 
L 320.435241 241.726232 
L 353.086927 241.726232 
L 385.738612 228.856795 
L 418.390298 229.62165 
" clip-path="url(#p4c3b40e880)" style="fill: none; stroke: #c44e52"/>
   </g>
   <g id="line2d_48">
    <path d="M 59.221756 30.178512 
L 59.221756 29.987474 
" clip-path="url(#p4c3b40e880)" style="fill: none; stroke: #000000"/>
   </g>
   <g id="line2d_49">
    <path d="M 91.873441 75.255665 
L 91.873441 74.96212 
" clip-path="url(#p4c3b40e880)" style="fill: none; stroke: #000000"/>
   </g>
   <g id="line2d_50">
    <path d="M 124.525127 134.497088 
L 124.525127 133.585555 
" clip-path="url(#p4c3b40e880)" style="fill: none; stroke: #000000"/>
   </g>
   <g id="line2d_51">
    <path d="M 157.176813 193.169369 
L 157.176813 189.156337 
" clip-path="url(#p4c3b40e880)" style="fill: none; stroke: #000000"/>
   </g>
   <g id="line2d_52">
    <path d="M 189.828498 228.454355 
L 189.828498 220.030999 
" clip-path="url(#p4c3b40e880)" style="fill: none; stroke: #000000"/>
   </g>
   <g id="line2d_53">
    <path d="M 222.480184 237.191457 
L 222.480184 227.59764 
" clip-path="url(#p4c3b40e880)" style="fill: none; stroke: #000000"/>
   </g>
   <g id="line2d_54">
    <path d="M 255.13187 233.693964 
L 255.13187 224.660254 
" clip-path="url(#p4c3b40e880)" style="fill: none; stroke: #000000"/>
   </g>
   <g id="line2d_55">
    <path d="M 287.783555 234.53459 
L 287.783555 225.368225 
" clip-path="url(#p4c3b40e880)" style="fill: none; stroke: #000000"/>
   </g>
   <g id="line2d_56">
    <path d="M 320.435241 247.974674 
L 320.435241 236.507871 
" clip-path="url(#p4c3b40e880)" style="fill: none; stroke: #000000"/>
   </g>
   <g id="line2d_57">
    <path d="M 353.086927 247.974674 
L 353.086927 236.507871 
" clip-path="url(#p4c3b40e880)" style="fill: none; stroke: #000000"/>
   </g>
   <g id="line2d_58">
    <path d="M 385.738612 233.984921 
L 385.738612 224.443111 
" clip-path="url(#p4c3b40e880)" style="fill: none; stroke: #000000"/>
   </g>
   <g id="line2d_59">
    <path d="M 418.390298 234.53459 
L 418.390298 225.368225 
" clip-path="url(#p4c3b40e880)" style="fill: none; stroke: #000000"/>
   </g>
   <g id="PathCollection_25">
    <g clip-path="url(#p4c3b40e880)">
     <use xlink:href="#m8587b37019" x="59.221756" y="30.178512" style="stroke: #000000"/>
     <use xlink:href="#m8587b37019" x="59.221756" y="29.987474" style="stroke: #000000"/>
    </g>
   </g>
   <g id="PathCollection_26">
    <g clip-path="url(#p4c3b40e880)">
     <use xlink:href="#m8587b37019" x="91.873441" y="75.255665" style="stroke: #000000"/>
     <use xlink:href="#m8587b37019" x="91.873441" y="74.96212" style="stroke: #000000"/>
    </g>
   </g>
   <g id="PathCollection_27">
    <g clip-path="url(#p4c3b40e880)">
     <use xlink:href="#m8587b37019" x="124.525127" y="134.497088" style="stroke: #000000"/>
     <use xlink:href="#m8587b37019" x="124.525127" y="133.585555" style="stroke: #000000"/>
    </g>
   </g>
   <g id="PathCollection_28">
    <g clip-path="url(#p4c3b40e880)">
     <use xlink:href="#m8587b37019" x="157.176813" y="193.169369" style="stroke: #000000"/>
     <use xlink:href="#m8587b37019" x="157.176813" y="189.156337" style="stroke: #000000"/>
    </g>
   </g>
   <g id="PathCollection_29">
    <g clip-path="url(#p4c3b40e880)">
     <use xlink:href="#m8587b37019" x="189.828498" y="228.454355" style="stroke: #000000"/>
     <use xlink:href="#m8587b37019" x="189.828498" y="220.030999" style="stroke: #000000"/>
    </g>
   </g>
   <g id="PathCollection_30">
    <g clip-path="url(#p4c3b40e880)">
     <use xlink:href="#m8587b37019" x="222.480184" y="237.191457" style="stroke: #000000"/>
     <use xlink:href="#m8587b37019" x="222.480184" y="227.59764" style="stroke: #000000"/>
    </g>
   </g>
   <g id="PathCollection_31">
    <g clip-path="url(#p4c3b40e880)">
     <use xlink:href="#m8587b37019" x="255.13187" y="233.693964" style="stroke: #000000"/>
     <use xlink:href="#m8587b37019" x="255.13187" y="224.660254" style="stroke: #000000"/>
    </g>
   </g>
   <g id="PathCollection_32">
    <g clip-path="url(#p4c3b40e880)">
     <use xlink:href="#m8587b37019" x="287.783555" y="234.53459" style="stroke: #000000"/>
     <use xlink:href="#m8587b37019" x="287.783555" y="225.368225" style="stroke: #000000"/>
    </g>
   </g>
   <g id="PathCollection_33">
    <g clip-path="url(#p4c3b40e880)">
     <use xlink:href="#m8587b37019" x="320.435241" y="247.974674" style="stroke: #000000"/>
     <use xlink:href="#m8587b37019" x="320.435241" y="236.507871" style="stroke: #000000"/>
    </g>
   </g>
   <g id="PathCollection_34">
    <g clip-path="url(#p4c3b40e880)">
     <use xlink:href="#m8587b37019" x="353.086927" y="247.974674" style="stroke: #000000"/>
     <use xlink:href="#m8587b37019" x="353.086927" y="236.507871" style="stroke: #000000"/>
    </g>
   </g>
   <g id="PathCollection_35">
    <g clip-path="url(#p4c3b40e880)">
     <use xlink:href="#m8587b37019" x="385.738612" y="233.984921" style="stroke: #000000"/>
     <use xlink:href="#m8587b37019" x="385.738612" y="224.443111" style="stroke: #000000"/>
    </g>
   </g>
   <g id="PathCollection_36">
    <g clip-path="url(#p4c3b40e880)">
     <use xlink:href="#m8587b37019" x="418.390298" y="234.53459" style="stroke: #000000"/>
     <use xlink:href="#m8587b37019" x="418.390298" y="225.368225" style="stroke: #000000"/>
    </g>
   </g>
   <g id="legend_1">
    <g id="patch_7">
     <path d="M 312.765354 123.747146 
L 424.165354 123.747146 
L 424.165354 24.634646 
L 312.765354 24.634646 
z
" style="fill: #ffffff; stroke: #000000; stroke-linejoin: miter"/>
    </g>
    <g id="line2d_60">
     <path d="M 320.765354 36.734646 
L 330.765354 36.734646 
L 340.765354 36.734646 
" style="fill: none; stroke-dasharray: 4.625,2; stroke-dashoffset: 0; stroke: #8c8c8c; stroke-width: 1.25; stroke-linejoin: miter"/>
    </g>
    <g id="text_11">
     <!-- $c_1\exp(-\gamma_1 N)$ -->
     <g transform="translate(348.765354 40.234646) scale(0.1 -0.1)">
      <defs>
       <path id="DejaVuSans-Oblique-63" d="M 3431 3366 
L 3316 2797 
Q 3109 2947 2876 3022 
Q 2644 3097 2394 3097 
Q 2119 3097 1870 3000 
Q 1622 2903 1453 2725 
Q 1184 2453 1037 2087 
Q 891 1722 891 1331 
Q 891 859 1127 628 
Q 1363 397 1844 397 
Q 2081 397 2348 469 
Q 2616 541 2906 684 
L 2797 116 
Q 2547 13 2283 -39 
Q 2019 -91 1741 -91 
Q 1044 -91 669 257 
Q 294 606 294 1253 
Q 294 1797 489 2255 
Q 684 2713 1069 3078 
Q 1331 3328 1684 3456 
Q 2038 3584 2456 3584 
Q 2700 3584 2940 3529 
Q 3181 3475 3431 3366 
z
" transform="scale(0.015625)"/>
       <path id="DejaVuSans-31" d="M 794 531 
L 1825 531 
L 1825 4091 
L 703 3866 
L 703 4441 
L 1819 4666 
L 2450 4666 
L 2450 531 
L 3481 531 
L 3481 0 
L 794 0 
L 794 531 
z
" transform="scale(0.015625)"/>
       <path id="DejaVuSans-65" d="M 3597 1894 
L 3597 1613 
L 953 1613 
Q 991 1019 1311 708 
Q 1631 397 2203 397 
Q 2534 397 2845 478 
Q 3156 559 3463 722 
L 3463 178 
Q 3153 47 2828 -22 
Q 2503 -91 2169 -91 
Q 1331 -91 842 396 
Q 353 884 353 1716 
Q 353 2575 817 3079 
Q 1281 3584 2069 3584 
Q 2775 3584 3186 3129 
Q 3597 2675 3597 1894 
z
M 3022 2063 
Q 3016 2534 2758 2815 
Q 2500 3097 2075 3097 
Q 1594 3097 1305 2825 
Q 1016 2553 972 2059 
L 3022 2063 
z
" transform="scale(0.015625)"/>
       <path id="DejaVuSans-78" d="M 3513 3500 
L 2247 1797 
L 3578 0 
L 2900 0 
L 1881 1375 
L 863 0 
L 184 0 
L 1544 1831 
L 300 3500 
L 978 3500 
L 1906 2253 
L 2834 3500 
L 3513 3500 
z
" transform="scale(0.015625)"/>
       <path id="DejaVuSans-70" d="M 1159 525 
L 1159 -1331 
L 581 -1331 
L 581 3500 
L 1159 3500 
L 1159 2969 
Q 1341 3281 1617 3432 
Q 1894 3584 2278 3584 
Q 2916 3584 3314 3078 
Q 3713 2572 3713 1747 
Q 3713 922 3314 415 
Q 2916 -91 2278 -91 
Q 1894 -91 1617 61 
Q 1341 213 1159 525 
z
M 3116 1747 
Q 3116 2381 2855 2742 
Q 2594 3103 2138 3103 
Q 1681 3103 1420 2742 
Q 1159 2381 1159 1747 
Q 1159 1113 1420 752 
Q 1681 391 2138 391 
Q 2594 391 2855 752 
Q 3116 1113 3116 1747 
z
" transform="scale(0.015625)"/>
       <path id="DejaVuSans-28" d="M 1984 4856 
Q 1566 4138 1362 3434 
Q 1159 2731 1159 2009 
Q 1159 1288 1364 580 
Q 1569 -128 1984 -844 
L 1484 -844 
Q 1016 -109 783 600 
Q 550 1309 550 2009 
Q 550 2706 781 3412 
Q 1013 4119 1484 4856 
L 1984 4856 
z
" transform="scale(0.015625)"/>
       <path id="DejaVuSans-2212" d="M 678 2272 
L 4684 2272 
L 4684 1741 
L 678 1741 
L 678 2272 
z
" transform="scale(0.015625)"/>
       <path id="DejaVuSans-Oblique-3b3" d="M 1491 2950 
L 1838 788 
L 3456 3500 
L 4066 3500 
L 1972 0 
L 1713 -1331 
L 1138 -1331 
L 1397 0 
L 988 2613 
Q 925 3006 628 3006 
L 475 3006 
L 569 3500 
L 788 3500 
Q 1403 3500 1491 2950 
z
" transform="scale(0.015625)"/>
       <path id="DejaVuSans-Oblique-4e" d="M 1081 4666 
L 1931 4666 
L 3219 666 
L 4000 4666 
L 4616 4666 
L 3706 0 
L 2853 0 
L 1569 4025 
L 788 0 
L 172 0 
L 1081 4666 
z
" transform="scale(0.015625)"/>
       <path id="DejaVuSans-29" d="M 513 4856 
L 1013 4856 
Q 1481 4119 1714 3412 
Q 1947 2706 1947 2009 
Q 1947 1309 1714 600 
Q 1481 -109 1013 -844 
L 513 -844 
Q 928 -128 1133 580 
Q 1338 1288 1338 2009 
Q 1338 2731 1133 3434 
Q 928 4138 513 4856 
z
" transform="scale(0.015625)"/>
      </defs>
      <use xlink:href="#DejaVuSans-Oblique-63" transform="translate(0 0.125)"/>
      <use xlink:href="#DejaVuSans-31" transform="translate(54.980469 -16.28125) scale(0.7)"/>
      <use xlink:href="#DejaVuSans-65" transform="translate(102.250977 0.125)"/>
      <use xlink:href="#DejaVuSans-78" transform="translate(163.774414 0.125)"/>
      <use xlink:href="#DejaVuSans-70" transform="translate(222.954102 0.125)"/>
      <use xlink:href="#DejaVuSans-28" transform="translate(286.430664 0.125)"/>
      <use xlink:href="#DejaVuSans-2212" transform="translate(325.444336 0.125)"/>
      <use xlink:href="#DejaVuSans-Oblique-3b3" transform="translate(409.233398 0.125)"/>
      <use xlink:href="#DejaVuSans-31" transform="translate(468.413086 -16.28125) scale(0.7)"/>
      <use xlink:href="#DejaVuSans-Oblique-4e" transform="translate(515.683594 0.125)"/>
      <use xlink:href="#DejaVuSans-29" transform="translate(590.488281 0.125)"/>
     </g>
    </g>
    <g id="line2d_61">
     <path d="M 320.765354 51.434646 
L 330.765354 51.434646 
L 340.765354 51.434646 
" style="fill: none; stroke-dasharray: 4.625,2; stroke-dashoffset: 0; stroke: #8c8c8c; stroke-width: 1.25; stroke-linejoin: miter"/>
    </g>
    <g id="text_12">
     <!-- $c_2\exp(-\gamma_2 n_H)$ -->
     <g transform="translate(348.765354 54.934646) scale(0.1 -0.1)">
      <defs>
       <path id="DejaVuSans-32" d="M 1228 531 
L 3431 531 
L 3431 0 
L 469 0 
L 469 531 
Q 828 903 1448 1529 
Q 2069 2156 2228 2338 
Q 2531 2678 2651 2914 
Q 2772 3150 2772 3378 
Q 2772 3750 2511 3984 
Q 2250 4219 1831 4219 
Q 1534 4219 1204 4116 
Q 875 4013 500 3803 
L 500 4441 
Q 881 4594 1212 4672 
Q 1544 4750 1819 4750 
Q 2544 4750 2975 4387 
Q 3406 4025 3406 3419 
Q 3406 3131 3298 2873 
Q 3191 2616 2906 2266 
Q 2828 2175 2409 1742 
Q 1991 1309 1228 531 
z
" transform="scale(0.015625)"/>
       <path id="DejaVuSans-Oblique-6e" d="M 3566 2113 
L 3156 0 
L 2578 0 
L 2988 2091 
Q 3016 2238 3031 2350 
Q 3047 2463 3047 2528 
Q 3047 2791 2881 2937 
Q 2716 3084 2419 3084 
Q 1956 3084 1622 2776 
Q 1288 2469 1184 1941 
L 800 0 
L 225 0 
L 903 3500 
L 1478 3500 
L 1363 2950 
Q 1603 3253 1940 3418 
Q 2278 3584 2650 3584 
Q 3113 3584 3367 3334 
Q 3622 3084 3622 2631 
Q 3622 2519 3608 2391 
Q 3594 2263 3566 2113 
z
" transform="scale(0.015625)"/>
       <path id="DejaVuSans-Oblique-48" d="M 1081 4666 
L 1716 4666 
L 1344 2753 
L 3634 2753 
L 4006 4666 
L 4641 4666 
L 3731 0 
L 3097 0 
L 3531 2222 
L 1241 2222 
L 806 0 
L 172 0 
L 1081 4666 
z
" transform="scale(0.015625)"/>
      </defs>
      <use xlink:href="#DejaVuSans-Oblique-63" transform="translate(0 0.125)"/>
      <use xlink:href="#DejaVuSans-32" transform="translate(54.980469 -16.28125) scale(0.7)"/>
      <use xlink:href="#DejaVuSans-65" transform="translate(102.250977 0.125)"/>
      <use xlink:href="#DejaVuSans-78" transform="translate(163.774414 0.125)"/>
      <use xlink:href="#DejaVuSans-70" transform="translate(222.954102 0.125)"/>
      <use xlink:href="#DejaVuSans-28" transform="translate(286.430664 0.125)"/>
      <use xlink:href="#DejaVuSans-2212" transform="translate(325.444336 0.125)"/>
      <use xlink:href="#DejaVuSans-Oblique-3b3" transform="translate(409.233398 0.125)"/>
      <use xlink:href="#DejaVuSans-32" transform="translate(468.413086 -16.28125) scale(0.7)"/>
      <use xlink:href="#DejaVuSans-Oblique-6e" transform="translate(515.683594 0.125)"/>
      <use xlink:href="#DejaVuSans-Oblique-48" transform="translate(579.0625 -16.28125) scale(0.7)"/>
      <use xlink:href="#DejaVuSans-29" transform="translate(634.433594 0.125)"/>
     </g>
    </g>
    <g id="line2d_62">
     <path d="M 320.765354 66.133083 
L 330.765354 66.133083 
L 340.765354 66.133083 
" style="fill: none; stroke: #4c72b0; stroke-width: 1.25; stroke-linejoin: miter"/>
    </g>
    <g id="text_13">
     <!-- N=6 -->
     <g transform="translate(348.765354 69.633083) scale(0.1 -0.1)">
      <defs>
       <path id="DejaVuSerif-4e" d="M 313 0 
L 313 331 
L 941 331 
L 941 4331 
L 313 4331 
L 313 4666 
L 1509 4666 
L 4306 984 
L 4306 4331 
L 3681 4331 
L 3681 4666 
L 5319 4666 
L 5319 4331 
L 4691 4331 
L 4691 -91 
L 4313 -91 
L 1325 3841 
L 1325 331 
L 1953 331 
L 1953 0 
L 313 0 
z
" transform="scale(0.015625)"/>
       <path id="DejaVuSerif-3d" d="M 678 2894 
L 4684 2894 
L 4684 2394 
L 678 2394 
L 678 2894 
z
M 678 1619 
L 4684 1619 
L 4684 1119 
L 678 1119 
L 678 1619 
z
" transform="scale(0.015625)"/>
       <path id="DejaVuSerif-36" d="M 2094 219 
Q 2534 219 2771 542 
Q 3009 866 3009 1472 
Q 3009 2078 2771 2401 
Q 2534 2725 2094 2725 
Q 1647 2725 1412 2412 
Q 1178 2100 1178 1509 
Q 1178 888 1415 553 
Q 1653 219 2094 219 
z
M 1075 2569 
Q 1288 2803 1556 2918 
Q 1825 3034 2163 3034 
Q 2859 3034 3264 2615 
Q 3669 2197 3669 1472 
Q 3669 763 3233 336 
Q 2797 -91 2069 -91 
Q 1278 -91 853 498 
Q 428 1088 428 2181 
Q 428 3406 931 4078 
Q 1434 4750 2350 4750 
Q 2597 4750 2869 4703 
Q 3141 4656 3425 4563 
L 3425 3794 
L 3072 3794 
Q 3034 4109 2831 4275 
Q 2628 4441 2284 4441 
Q 1678 4441 1381 3981 
Q 1084 3522 1075 2569 
z
" transform="scale(0.015625)"/>
      </defs>
      <use xlink:href="#DejaVuSerif-4e"/>
      <use xlink:href="#DejaVuSerif-3d" x="87.5"/>
      <use xlink:href="#DejaVuSerif-36" x="171.289062"/>
     </g>
    </g>
    <g id="line2d_63">
     <path d="M 320.765354 80.811208 
L 330.765354 80.811208 
L 340.765354 80.811208 
" style="fill: none; stroke: #dd8452; stroke-width: 1.25; stroke-linejoin: miter"/>
    </g>
    <g id="text_14">
     <!-- N=8 -->
     <g transform="translate(348.765354 84.311208) scale(0.1 -0.1)">
      <defs>
       <path id="DejaVuSerif-38" d="M 2981 1275 
Q 2981 1775 2732 2051 
Q 2484 2328 2034 2328 
Q 1584 2328 1336 2051 
Q 1088 1775 1088 1275 
Q 1088 772 1336 495 
Q 1584 219 2034 219 
Q 2484 219 2732 495 
Q 2981 772 2981 1275 
z
M 2853 3541 
Q 2853 3966 2637 4203 
Q 2422 4441 2034 4441 
Q 1650 4441 1433 4203 
Q 1216 3966 1216 3541 
Q 1216 3113 1433 2875 
Q 1650 2638 2034 2638 
Q 2422 2638 2637 2875 
Q 2853 3113 2853 3541 
z
M 2516 2484 
Q 3047 2413 3344 2092 
Q 3641 1772 3641 1275 
Q 3641 619 3225 264 
Q 2809 -91 2034 -91 
Q 1263 -91 845 264 
Q 428 619 428 1275 
Q 428 1772 725 2092 
Q 1022 2413 1556 2484 
Q 1084 2569 832 2842 
Q 581 3116 581 3541 
Q 581 4103 968 4426 
Q 1356 4750 2034 4750 
Q 2713 4750 3100 4426 
Q 3488 4103 3488 3541 
Q 3488 3116 3236 2842 
Q 2984 2569 2516 2484 
z
" transform="scale(0.015625)"/>
      </defs>
      <use xlink:href="#DejaVuSerif-4e"/>
      <use xlink:href="#DejaVuSerif-3d" x="87.5"/>
      <use xlink:href="#DejaVuSerif-38" x="171.289062"/>
     </g>
    </g>
    <g id="line2d_64">
     <path d="M 320.765354 95.489333 
L 330.765354 95.489333 
L 340.765354 95.489333 
" style="fill: none; stroke: #55a868; stroke-width: 1.25; stroke-linejoin: miter"/>
    </g>
    <g id="text_15">
     <!-- N=10 -->
     <g transform="translate(348.765354 98.989333) scale(0.1 -0.1)">
      <use xlink:href="#DejaVuSerif-4e"/>
      <use xlink:href="#DejaVuSerif-3d" x="87.5"/>
      <use xlink:href="#DejaVuSerif-31" x="171.289062"/>
      <use xlink:href="#DejaVuSerif-30" x="234.912109"/>
     </g>
    </g>
    <g id="line2d_65">
     <path d="M 320.765354 110.167458 
L 330.765354 110.167458 
L 340.765354 110.167458 
" style="fill: none; stroke: #c44e52; stroke-width: 1.25; stroke-linejoin: miter"/>
    </g>
    <g id="text_16">
     <!-- N=12 -->
     <g transform="translate(348.765354 113.667458) scale(0.1 -0.1)">
      <use xlink:href="#DejaVuSerif-4e"/>
      <use xlink:href="#DejaVuSerif-3d" x="87.5"/>
      <use xlink:href="#DejaVuSerif-31" x="171.289062"/>
      <use xlink:href="#DejaVuSerif-32" x="234.912109"/>
     </g>
    </g>
   </g>
  </g>
 </g>
 <defs>
  <clipPath id="p4c3b40e880">
   <rect x="48.4467" y="19.634646" width="380.718655" height="234.990709"/>
  </clipPath>
 </defs>
</svg>
