<?xml version="1.0" encoding="utf-8" standalone="no"?>
<!DOCTYPE svg PUBLIC "-//W3C//DTD SVG 1.1//EN"
  "http://www.w3.org/Graphics/SVG/1.1/DTD/svg11.dtd">
<svg xmlns:xlink="http://www.w3.org/1999/xlink" width="432pt" height="288pt" viewBox="0 0 432 288" xmlns="http://www.w3.org/2000/svg" version="1.1">
 <metadata>
  <rdf:RDF xmlns:dc="http://purl.org/dc/elements/1.1/" xmlns:cc="http://creativecommons.org/ns#" xmlns:rdf="http://www.w3.org/1999/02/22-rdf-syntax-ns#">
   <cc:Work>
    <dc:type rdf:resource="http://purl.org/dc/dcmitype/StillImage"/>
    <dc:date>2024-07-15T11:02:23.583232</dc:date>
    <dc:format>image/svg+xml</dc:format>
    <dc:creator>
     <cc:Agent>
      <dc:title>Matplotlib v3.9.1, https://matplotlib.org/</dc:title>
     </cc:Agent>
    </dc:creator>
   </cc:Work>
  </rdf:RDF>
 </metadata>
 <defs>
  <style type="text/css">*{stroke-linejoin: round; stroke-linecap: butt}</style>
 </defs>
 <g id="figure_1">
  <g id="patch_1">
   <path d="M 0 288 
L 432 288 
L 432 0 
L 0 0 
z
" style="fill: #ffffff"/>
  </g>
  <g id="axes_1">
   <g id="patch_2">
    <path d="M 43.68983 252.281604 
L 429.165354 252.281604 
L 429.165354 19.634646 
L 43.68983 19.634646 
z
" style="fill: #ffffff"/>
   </g>
   <g id="PathCollection_1">
    <defs>
     <path id="mc3ccc256cb" d="M 0 2.5 
C 0.663008 2.5 1.29895 2.236584 1.767767 1.767767 
C 2.236584 1.29895 2.5 0.663008 2.5 0 
C 2.5 -0.663008 2.236584 -1.29895 1.767767 -1.767767 
C 1.29895 -2.236584 0.663008 -2.5 0 -2.5 
C -0.663008 -2.5 -1.29895 -2.236584 -1.767767 -1.767767 
C -2.236584 -1.29895 -2.5 -0.663008 -2.5 0 
C -2.5 0.663008 -2.236584 1.29895 -1.767767 1.767767 
C -1.29895 2.236584 -0.663008 2.5 0 2.5 
z
" style="stroke: #000000; stroke-opacity: 0.4"/>
    </defs>
    <g clip-path="url(#p181e029a0d)">
     <use xlink:href="#mc3ccc256cb" x="200.591021" y="126.594514" style="fill: #4c72b0; fill-opacity: 0.4; stroke: #000000; stroke-opacity: 0.4"/>
     <use xlink:href="#mc3ccc256cb" x="233.650671" y="141.127808" style="fill: #4c72b0; fill-opacity: 0.4; stroke: #000000; stroke-opacity: 0.4"/>
    </g>
   </g>
   <g id="matplotlib.axis_1">
    <g id="xtick_1">
     <g id="line2d_1">
      <defs>
       <path id="m76a5fec438" d="M 0 0 
L 0 -2.5 
" style="stroke: #000000; stroke-width: 0.5"/>
      </defs>
      <g>
       <use xlink:href="#m76a5fec438" x="103.311808" y="252.281604" style="stroke: #000000; stroke-width: 0.5"/>
      </g>
     </g>
     <g id="line2d_2">
      <defs>
       <path id="macd86f5d58" d="M 0 0 
L 0 2.5 
" style="stroke: #000000; stroke-width: 0.5"/>
      </defs>
      <g>
       <use xlink:href="#macd86f5d58" x="103.311808" y="19.634646" style="stroke: #000000; stroke-width: 0.5"/>
      </g>
     </g>
     <g id="text_1">
      <!-- $-7.5$ -->
      <g transform="translate(91.161808 263.380042) scale(0.1 -0.1)">
       <defs>
        <path id="DejaVuSerif-2212" d="M 678 2259 
L 4684 2259 
L 4684 1753 
L 678 1753 
L 678 2259 
z
" transform="scale(0.015625)"/>
        <path id="DejaVuSerif-37" d="M 3609 4347 
L 1784 0 
L 1319 0 
L 3059 4153 
L 903 4153 
L 903 3578 
L 538 3578 
L 538 4666 
L 3609 4666 
L 3609 4347 
z
" transform="scale(0.015625)"/>
        <path id="DejaVuSerif-2e" d="M 603 325 
Q 603 500 722 622 
Q 841 744 1019 744 
Q 1191 744 1312 622 
Q 1434 500 1434 325 
Q 1434 153 1312 31 
Q 1191 -91 1019 -91 
Q 841 -91 722 29 
Q 603 150 603 325 
z
" transform="scale(0.015625)"/>
        <path id="DejaVuSerif-35" d="M 3219 4666 
L 3219 4153 
L 1081 4153 
L 1081 2816 
Q 1244 2928 1461 2984 
Q 1678 3041 1947 3041 
Q 2703 3041 3140 2622 
Q 3578 2203 3578 1478 
Q 3578 738 3136 323 
Q 2694 -91 1894 -91 
Q 1572 -91 1234 -12 
Q 897 66 544 225 
L 544 1131 
L 897 1131 
Q 925 688 1179 453 
Q 1434 219 1894 219 
Q 2388 219 2653 544 
Q 2919 869 2919 1478 
Q 2919 2084 2655 2407 
Q 2391 2731 1894 2731 
Q 1613 2731 1398 2631 
Q 1184 2531 1019 2322 
L 750 2322 
L 750 4666 
L 3219 4666 
z
" transform="scale(0.015625)"/>
       </defs>
       <use xlink:href="#DejaVuSerif-2212" transform="translate(0 0.09375)"/>
       <use xlink:href="#DejaVuSerif-37" transform="translate(83.789062 0.09375)"/>
       <use xlink:href="#DejaVuSerif-2e" transform="translate(147.412109 0.09375)"/>
       <use xlink:href="#DejaVuSerif-35" transform="translate(179.199219 0.09375)"/>
      </g>
     </g>
    </g>
    <g id="xtick_2">
     <g id="line2d_3">
      <g>
       <use xlink:href="#m76a5fec438" x="185.960934" y="252.281604" style="stroke: #000000; stroke-width: 0.5"/>
      </g>
     </g>
     <g id="line2d_4">
      <g>
       <use xlink:href="#macd86f5d58" x="185.960934" y="19.634646" style="stroke: #000000; stroke-width: 0.5"/>
      </g>
     </g>
     <g id="text_2">
      <!-- $-5.0$ -->
      <g transform="translate(173.810934 263.380042) scale(0.1 -0.1)">
       <defs>
        <path id="DejaVuSerif-30" d="M 2034 219 
Q 2513 219 2750 744 
Q 2988 1269 2988 2328 
Q 2988 3391 2750 3916 
Q 2513 4441 2034 4441 
Q 1556 4441 1318 3916 
Q 1081 3391 1081 2328 
Q 1081 1269 1318 744 
Q 1556 219 2034 219 
z
M 2034 -91 
Q 1275 -91 848 546 
Q 422 1184 422 2328 
Q 422 3475 848 4112 
Q 1275 4750 2034 4750 
Q 2797 4750 3222 4112 
Q 3647 3475 3647 2328 
Q 3647 1184 3222 546 
Q 2797 -91 2034 -91 
z
" transform="scale(0.015625)"/>
       </defs>
       <use xlink:href="#DejaVuSerif-2212" transform="translate(0 0.78125)"/>
       <use xlink:href="#DejaVuSerif-35" transform="translate(83.789062 0.78125)"/>
       <use xlink:href="#DejaVuSerif-2e" transform="translate(147.412109 0.78125)"/>
       <use xlink:href="#DejaVuSerif-30" transform="translate(179.199219 0.78125)"/>
      </g>
     </g>
    </g>
    <g id="xtick_3">
     <g id="line2d_5">
      <g>
       <use xlink:href="#m76a5fec438" x="268.61006" y="252.281604" style="stroke: #000000; stroke-width: 0.5"/>
      </g>
     </g>
     <g id="line2d_6">
      <g>
       <use xlink:href="#macd86f5d58" x="268.61006" y="19.634646" style="stroke: #000000; stroke-width: 0.5"/>
      </g>
     </g>
     <g id="text_3">
      <!-- $-2.5$ -->
      <g transform="translate(256.46006 263.380042) scale(0.1 -0.1)">
       <defs>
        <path id="DejaVuSerif-32" d="M 819 3553 
L 469 3553 
L 469 4384 
Q 803 4563 1142 4656 
Q 1481 4750 1806 4750 
Q 2534 4750 2956 4397 
Q 3378 4044 3378 3438 
Q 3378 2753 2422 1800 
Q 2347 1728 2309 1691 
L 1131 513 
L 3078 513 
L 3078 1088 
L 3444 1088 
L 3444 0 
L 434 0 
L 434 341 
L 1850 1753 
Q 2319 2222 2519 2614 
Q 2719 3006 2719 3438 
Q 2719 3909 2473 4175 
Q 2228 4441 1797 4441 
Q 1350 4441 1106 4219 
Q 863 3997 819 3553 
z
" transform="scale(0.015625)"/>
       </defs>
       <use xlink:href="#DejaVuSerif-2212" transform="translate(0 0.78125)"/>
       <use xlink:href="#DejaVuSerif-32" transform="translate(83.789062 0.78125)"/>
       <use xlink:href="#DejaVuSerif-2e" transform="translate(147.412109 0.78125)"/>
       <use xlink:href="#DejaVuSerif-35" transform="translate(179.199219 0.78125)"/>
      </g>
     </g>
    </g>
    <g id="xtick_4">
     <g id="line2d_7">
      <g>
       <use xlink:href="#m76a5fec438" x="351.259186" y="252.281604" style="stroke: #000000; stroke-width: 0.5"/>
      </g>
     </g>
     <g id="line2d_8">
      <g>
       <use xlink:href="#macd86f5d58" x="351.259186" y="19.634646" style="stroke: #000000; stroke-width: 0.5"/>
      </g>
     </g>
     <g id="text_4">
      <!-- $0.0$ -->
      <g transform="translate(343.259186 263.380042) scale(0.1 -0.1)">
       <use xlink:href="#DejaVuSerif-30" transform="translate(0 0.78125)"/>
       <use xlink:href="#DejaVuSerif-2e" transform="translate(63.623047 0.78125)"/>
       <use xlink:href="#DejaVuSerif-30" transform="translate(95.410156 0.78125)"/>
      </g>
     </g>
    </g>
    <g id="text_5">
     <!-- $\widetilde x(N)$ -->
     <g transform="translate(223.107592 278.577854) scale(0.12 -0.12)">
      <defs>
       <path id="STIXSizeOneSym-Regular-303" d="M -1197 4800 
L -1037 4800 
Q -1037 4358 -1302 4092 
Q -1568 3827 -1926 3827 
Q -2086 3827 -2214 3852 
Q -2342 3878 -2419 3907 
Q -2496 3936 -2717 4035 
Q -2938 4134 -3123 4211 
Q -3597 4410 -3808 4410 
Q -4058 4410 -4234 4259 
Q -4410 4109 -4454 3827 
L -4621 3827 
Q -4621 4288 -4355 4544 
Q -4090 4800 -3757 4800 
Q -3450 4800 -2541 4410 
Q -2074 4205 -1843 4205 
Q -1581 4205 -1408 4358 
Q -1235 4512 -1197 4800 
z
" transform="scale(0.015625)"/>
       <path id="DejaVuSerif-Italic-78" d="M 409 0 
L 19 0 
L 1484 1594 
L 747 2988 
L 338 2988 
L 400 3322 
L 1244 3322 
L 1934 2028 
L 3125 3322 
L 3516 3322 
L 2078 1759 
L 2838 331 
L 3272 331 
L 3209 0 
L 2338 0 
L 1631 1325 
L 409 0 
z
" transform="scale(0.015625)"/>
       <path id="DejaVuSerif-28" d="M 2041 -997 
Q 1281 -656 893 83 
Q 506 822 506 1931 
Q 506 3044 893 3783 
Q 1281 4522 2041 4863 
L 2041 4556 
Q 1559 4225 1350 3623 
Q 1141 3022 1141 1931 
Q 1141 844 1350 242 
Q 1559 -359 2041 -691 
L 2041 -997 
z
" transform="scale(0.015625)"/>
       <path id="DejaVuSerif-Italic-4e" d="M -128 0 
L -66 331 
L 563 331 
L 1341 4331 
L 713 4331 
L 778 4666 
L 1975 4666 
L 4056 984 
L 4706 4331 
L 4081 4331 
L 4147 4666 
L 5784 4666 
L 5719 4331 
L 5091 4331 
L 4231 -91 
L 3853 -91 
L 1631 3841 
L 947 331 
L 1575 331 
L 1513 0 
L -128 0 
z
" transform="scale(0.015625)"/>
       <path id="DejaVuSerif-29" d="M 453 -997 
L 453 -691 
Q 934 -359 1145 242 
Q 1356 844 1356 1931 
Q 1356 3022 1145 3623 
Q 934 4225 453 4556 
L 453 4863 
Q 1216 4522 1603 3783 
Q 1991 3044 1991 1931 
Q 1991 822 1603 83 
Q 1216 -656 453 -997 
z
" transform="scale(0.015625)"/>
      </defs>
      <use xlink:href="#STIXSizeOneSym-Regular-303" transform="translate(77.046875 6.5) scale(0.975446)"/>
      <use xlink:href="#DejaVuSerif-Italic-78" transform="translate(0 0.703125)"/>
      <use xlink:href="#DejaVuSerif-28" transform="translate(56.396484 0.703125)"/>
      <use xlink:href="#DejaVuSerif-Italic-4e" transform="translate(95.410156 0.703125)"/>
      <use xlink:href="#DejaVuSerif-29" transform="translate(182.910156 0.703125)"/>
     </g>
    </g>
   </g>
   <g id="matplotlib.axis_2">
    <g id="ytick_1">
     <g id="line2d_9">
      <defs>
       <path id="m2228d9be4f" d="M 0 0 
L 2.5 0 
" style="stroke: #000000; stroke-width: 0.5"/>
      </defs>
      <g>
       <use xlink:href="#m2228d9be4f" x="43.68983" y="239.329172" style="stroke: #000000; stroke-width: 0.5"/>
      </g>
     </g>
     <g id="line2d_10">
      <defs>
       <path id="m5e3e037e05" d="M 0 0 
L -2.5 0 
" style="stroke: #000000; stroke-width: 0.5"/>
      </defs>
      <g>
       <use xlink:href="#m5e3e037e05" x="429.165354" y="239.329172" style="stroke: #000000; stroke-width: 0.5"/>
      </g>
     </g>
     <g id="text_6">
      <!-- $10^{0}$ -->
      <g transform="translate(22.58983 243.128391) scale(0.1 -0.1)">
       <defs>
        <path id="DejaVuSerif-31" d="M 909 0 
L 909 331 
L 1722 331 
L 1722 4213 
L 781 3603 
L 781 4013 
L 1919 4750 
L 2350 4750 
L 2350 331 
L 3163 331 
L 3163 0 
L 909 0 
z
" transform="scale(0.015625)"/>
       </defs>
       <use xlink:href="#DejaVuSerif-31" transform="translate(0 0.7125)"/>
       <use xlink:href="#DejaVuSerif-30" transform="translate(63.623047 0.7125)"/>
       <use xlink:href="#DejaVuSerif-30" transform="translate(128.154453 37.046875) scale(0.7)"/>
      </g>
     </g>
    </g>
    <g id="ytick_2">
     <g id="line2d_11">
      <g>
       <use xlink:href="#m2228d9be4f" x="43.68983" y="111.688234" style="stroke: #000000; stroke-width: 0.5"/>
      </g>
     </g>
     <g id="line2d_12">
      <g>
       <use xlink:href="#m5e3e037e05" x="429.165354" y="111.688234" style="stroke: #000000; stroke-width: 0.5"/>
      </g>
     </g>
     <g id="text_7">
      <!-- $10^{1}$ -->
      <g transform="translate(22.58983 115.487453) scale(0.1 -0.1)">
       <use xlink:href="#DejaVuSerif-31" transform="translate(0 0.7125)"/>
       <use xlink:href="#DejaVuSerif-30" transform="translate(63.623047 0.7125)"/>
       <use xlink:href="#DejaVuSerif-31" transform="translate(128.154453 37.046875) scale(0.7)"/>
      </g>
     </g>
    </g>
    <g id="text_8">
     <!-- $\widetilde y(N)$ -->
     <g transform="translate(15.82983 149.578125) rotate(-90) scale(0.12 -0.12)">
      <defs>
       <path id="STIXSizeTwoSym-Regular-303" d="M -1274 4864 
L -1107 4864 
Q -1280 3891 -2560 3891 
Q -2861 3891 -3097 3916 
Q -3334 3942 -3484 3974 
Q -3635 4006 -4044 4102 
Q -4454 4198 -4806 4275 
Q -5741 4474 -6093 4474 
Q -7021 4474 -7206 3891 
L -7373 3891 
Q -7200 4864 -5997 4864 
Q -5414 4864 -3718 4474 
Q -2842 4269 -2400 4269 
Q -1421 4269 -1274 4864 
z
" transform="scale(0.015625)"/>
       <path id="DejaVuSerif-Italic-79" d="M 3681 3294 
Q 3372 1506 2828 563 
Q 2031 -822 1391 -1238 
Q 1106 -1422 356 -1422 
Q 209 -1422 60 -1397 
Q -88 -1372 -238 -1325 
L -113 -691 
L 181 -691 
Q 175 -741 175 -788 
Q 175 -919 231 -994 
Q 309 -1100 513 -1100 
Q 1063 -1100 1541 -622 
L 756 2988 
L 378 2988 
L 444 3322 
L 1303 3322 
L 2041 25 
Q 2544 778 2666 1088 
Q 3059 2059 3138 2959 
L 2759 2959 
L 2825 3294 
L 3681 3294 
z
" transform="scale(0.015625)"/>
      </defs>
      <use xlink:href="#STIXSizeTwoSym-Regular-303" transform="translate(79.304688 26.125) scale(0.625279)"/>
      <use xlink:href="#DejaVuSerif-Italic-79" transform="translate(0 0.015625)"/>
      <use xlink:href="#DejaVuSerif-28" transform="translate(61.21875 0.015625)"/>
      <use xlink:href="#DejaVuSerif-Italic-4e" transform="translate(100.232422 0.015625)"/>
      <use xlink:href="#DejaVuSerif-29" transform="translate(187.732422 0.015625)"/>
     </g>
    </g>
   </g>
   <g id="line2d_13">
    <path d="M 266.710322 168.494595 
L 266.710322 168.155607 
" clip-path="url(#p181e029a0d)" style="fill: none; stroke: #000000"/>
   </g>
   <g id="line2d_14">
    <path d="M 299.769972 200.73673 
L 299.769972 200.037395 
" clip-path="url(#p181e029a0d)" style="fill: none; stroke: #000000"/>
   </g>
   <g id="line2d_15">
    <path d="M 332.829623 228.720236 
L 332.829623 227.593853 
" clip-path="url(#p181e029a0d)" style="fill: none; stroke: #000000"/>
   </g>
   <g id="line2d_16">
    <path d="M 365.889273 242.906875 
L 365.889273 241.707014 
" clip-path="url(#p181e029a0d)" style="fill: none; stroke: #000000"/>
   </g>
   <g id="PathCollection_2">
    <defs>
     <path id="m167707ca42" d="M 2.5 0 
L -2.5 -0 
" style="stroke: #000000"/>
    </defs>
    <g clip-path="url(#p181e029a0d)">
     <use xlink:href="#m167707ca42" x="266.710322" y="168.494595" style="stroke: #000000"/>
     <use xlink:href="#m167707ca42" x="266.710322" y="168.155607" style="stroke: #000000"/>
    </g>
   </g>
   <g id="PathCollection_3">
    <g clip-path="url(#p181e029a0d)">
     <use xlink:href="#m167707ca42" x="299.769972" y="200.73673" style="stroke: #000000"/>
     <use xlink:href="#m167707ca42" x="299.769972" y="200.037395" style="stroke: #000000"/>
    </g>
   </g>
   <g id="PathCollection_4">
    <g clip-path="url(#p181e029a0d)">
     <use xlink:href="#m167707ca42" x="332.829623" y="228.720236" style="stroke: #000000"/>
     <use xlink:href="#m167707ca42" x="332.829623" y="227.593853" style="stroke: #000000"/>
    </g>
   </g>
   <g id="PathCollection_5">
    <g clip-path="url(#p181e029a0d)">
     <use xlink:href="#m167707ca42" x="365.889273" y="242.906875" style="stroke: #000000"/>
     <use xlink:href="#m167707ca42" x="365.889273" y="241.707014" style="stroke: #000000"/>
    </g>
   </g>
   <g id="PathCollection_6">
    <defs>
     <path id="m4fe368733d" d="M 0 2.5 
C 0.663008 2.5 1.29895 2.236584 1.767767 1.767767 
C 2.236584 1.29895 2.5 0.663008 2.5 0 
C 2.5 -0.663008 2.236584 -1.29895 1.767767 -1.767767 
C 1.29895 -2.236584 0.663008 -2.5 0 -2.5 
C -0.663008 -2.5 -1.29895 -2.236584 -1.767767 -1.767767 
C -2.236584 -1.29895 -2.5 -0.663008 -2.5 0 
C -2.5 0.663008 -2.236584 1.29895 -1.767767 1.767767 
C -1.29895 2.236584 -0.663008 2.5 0 2.5 
z
" style="stroke: #000000"/>
    </defs>
    <g clip-path="url(#p181e029a0d)">
     <use xlink:href="#m4fe368733d" x="266.710322" y="168.324842" style="fill: #4c72b0; stroke: #000000"/>
     <use xlink:href="#m4fe368733d" x="299.769972" y="200.385959" style="fill: #4c72b0; stroke: #000000"/>
     <use xlink:href="#m4fe368733d" x="332.829623" y="228.154184" style="fill: #4c72b0; stroke: #000000"/>
     <use xlink:href="#m4fe368733d" x="365.889273" y="242.303698" style="fill: #4c72b0; stroke: #000000"/>
    </g>
   </g>
   <g id="patch_3">
    <path d="M 43.68983 252.281604 
L 43.68983 19.634646 
" style="fill: none; stroke: #000000; stroke-linejoin: miter; stroke-linecap: square"/>
   </g>
   <g id="patch_4">
    <path d="M 429.165354 252.281604 
L 429.165354 19.634646 
" style="fill: none; stroke: #000000; stroke-linejoin: miter; stroke-linecap: square"/>
   </g>
   <g id="patch_5">
    <path d="M 43.68983 252.281604 
L 429.165354 252.281604 
" style="fill: none; stroke: #000000; stroke-linejoin: miter; stroke-linecap: square"/>
   </g>
   <g id="patch_6">
    <path d="M 43.68983 19.634646 
L 429.165354 19.634646 
" style="fill: none; stroke: #000000; stroke-linejoin: miter; stroke-linecap: square"/>
   </g>
   <g id="text_9">
    <!-- Universal scaling of tail probability with $N$ for $O = Z$ -->
    <g transform="translate(77.907592 13.634646) scale(0.12 -0.12)">
     <defs>
      <path id="DejaVuSerif-55" d="M 897 4331 
L 300 4331 
L 300 4666 
L 2125 4666 
L 2125 4331 
L 1528 4331 
L 1528 1919 
Q 1528 1025 1820 672 
Q 2113 319 2828 319 
Q 3544 319 3836 672 
Q 4128 1025 4128 1919 
L 4128 4331 
L 3531 4331 
L 3531 4666 
L 5106 4666 
L 5106 4331 
L 4513 4331 
L 4513 1856 
Q 4513 791 4103 350 
Q 3694 -91 2713 -91 
Q 1731 -91 1314 353 
Q 897 797 897 1856 
L 897 4331 
z
" transform="scale(0.015625)"/>
      <path id="DejaVuSerif-6e" d="M 263 0 
L 263 331 
L 781 331 
L 781 2988 
L 231 2988 
L 231 3322 
L 1356 3322 
L 1356 2731 
Q 1516 3069 1770 3241 
Q 2025 3413 2363 3413 
Q 2913 3413 3172 3097 
Q 3431 2781 3431 2113 
L 3431 331 
L 3944 331 
L 3944 0 
L 2356 0 
L 2356 331 
L 2853 331 
L 2853 1931 
Q 2853 2541 2703 2767 
Q 2553 2994 2175 2994 
Q 1775 2994 1565 2701 
Q 1356 2409 1356 1850 
L 1356 331 
L 1856 331 
L 1856 0 
L 263 0 
z
" transform="scale(0.015625)"/>
      <path id="DejaVuSerif-69" d="M 622 4353 
Q 622 4497 726 4603 
Q 831 4709 978 4709 
Q 1122 4709 1226 4603 
Q 1331 4497 1331 4353 
Q 1331 4206 1228 4103 
Q 1125 4000 978 4000 
Q 831 4000 726 4103 
Q 622 4206 622 4353 
z
M 1356 331 
L 1900 331 
L 1900 0 
L 231 0 
L 231 331 
L 781 331 
L 781 2988 
L 231 2988 
L 231 3322 
L 1356 3322 
L 1356 331 
z
" transform="scale(0.015625)"/>
      <path id="DejaVuSerif-76" d="M 1581 0 
L 359 2988 
L -19 2988 
L -19 3322 
L 1509 3322 
L 1509 2988 
L 978 2988 
L 1913 703 
L 2847 2988 
L 2350 2988 
L 2350 3322 
L 3597 3322 
L 3597 2988 
L 3225 2988 
L 2003 0 
L 1581 0 
z
" transform="scale(0.015625)"/>
      <path id="DejaVuSerif-65" d="M 3469 1600 
L 991 1600 
L 991 1575 
Q 991 903 1244 561 
Q 1497 219 1991 219 
Q 2369 219 2611 417 
Q 2853 616 2950 1006 
L 3413 1006 
Q 3275 459 2904 184 
Q 2534 -91 1931 -91 
Q 1203 -91 761 389 
Q 319 869 319 1663 
Q 319 2450 753 2931 
Q 1188 3413 1894 3413 
Q 2647 3413 3050 2948 
Q 3453 2484 3469 1600 
z
M 2791 1931 
Q 2772 2513 2545 2808 
Q 2319 3103 1894 3103 
Q 1497 3103 1269 2806 
Q 1041 2509 991 1931 
L 2791 1931 
z
" transform="scale(0.015625)"/>
      <path id="DejaVuSerif-72" d="M 3059 3328 
L 3059 2497 
L 2728 2497 
Q 2713 2744 2591 2866 
Q 2469 2988 2234 2988 
Q 1809 2988 1582 2694 
Q 1356 2400 1356 1850 
L 1356 331 
L 2022 331 
L 2022 0 
L 263 0 
L 263 331 
L 781 331 
L 781 2994 
L 231 2994 
L 231 3322 
L 1356 3322 
L 1356 2731 
Q 1525 3078 1790 3245 
Q 2056 3413 2438 3413 
Q 2578 3413 2733 3391 
Q 2888 3369 3059 3328 
z
" transform="scale(0.015625)"/>
      <path id="DejaVuSerif-73" d="M 359 184 
L 359 959 
L 691 959 
Q 703 588 923 403 
Q 1144 219 1575 219 
Q 1963 219 2166 364 
Q 2369 509 2369 788 
Q 2369 1006 2220 1140 
Q 2072 1275 1594 1428 
L 1178 1569 
Q 750 1706 558 1912 
Q 366 2119 366 2438 
Q 366 2894 700 3153 
Q 1034 3413 1625 3413 
Q 1888 3413 2178 3344 
Q 2469 3275 2778 3144 
L 2778 2419 
L 2447 2419 
Q 2434 2741 2221 2922 
Q 2009 3103 1644 3103 
Q 1281 3103 1095 2975 
Q 909 2847 909 2591 
Q 909 2381 1050 2254 
Q 1191 2128 1613 1997 
L 2069 1856 
Q 2541 1709 2748 1489 
Q 2956 1269 2956 922 
Q 2956 450 2595 179 
Q 2234 -91 1600 -91 
Q 1278 -91 972 -22 
Q 666 47 359 184 
z
" transform="scale(0.015625)"/>
      <path id="DejaVuSerif-61" d="M 2547 1044 
L 2547 1747 
L 1806 1747 
Q 1378 1747 1168 1562 
Q 959 1378 959 997 
Q 959 650 1171 447 
Q 1384 244 1747 244 
Q 2106 244 2326 466 
Q 2547 688 2547 1044 
z
M 3122 2075 
L 3122 331 
L 3634 331 
L 3634 0 
L 2547 0 
L 2547 359 
Q 2356 128 2106 18 
Q 1856 -91 1522 -91 
Q 969 -91 644 203 
Q 319 497 319 997 
Q 319 1513 691 1797 
Q 1063 2081 1741 2081 
L 2547 2081 
L 2547 2309 
Q 2547 2688 2317 2895 
Q 2088 3103 1672 3103 
Q 1328 3103 1125 2947 
Q 922 2791 872 2484 
L 575 2484 
L 575 3156 
Q 875 3284 1158 3348 
Q 1441 3413 1709 3413 
Q 2400 3413 2761 3070 
Q 3122 2728 3122 2075 
z
" transform="scale(0.015625)"/>
      <path id="DejaVuSerif-6c" d="M 1313 331 
L 1856 331 
L 1856 0 
L 184 0 
L 184 331 
L 738 331 
L 738 4531 
L 184 4531 
L 184 4863 
L 1313 4863 
L 1313 331 
z
" transform="scale(0.015625)"/>
      <path id="DejaVuSerif-20" transform="scale(0.015625)"/>
      <path id="DejaVuSerif-63" d="M 3291 997 
Q 3169 466 2822 187 
Q 2475 -91 1925 -91 
Q 1200 -91 759 389 
Q 319 869 319 1663 
Q 319 2459 759 2936 
Q 1200 3413 1925 3413 
Q 2241 3413 2553 3339 
Q 2866 3266 3181 3116 
L 3181 2266 
L 2847 2266 
Q 2781 2703 2561 2903 
Q 2341 3103 1931 3103 
Q 1466 3103 1228 2742 
Q 991 2381 991 1663 
Q 991 944 1227 581 
Q 1463 219 1931 219 
Q 2303 219 2525 412 
Q 2747 606 2828 997 
L 3291 997 
z
" transform="scale(0.015625)"/>
      <path id="DejaVuSerif-67" d="M 3359 2988 
L 3359 72 
Q 3359 -644 2965 -1033 
Q 2572 -1422 1844 -1422 
Q 1516 -1422 1216 -1362 
Q 916 -1303 641 -1184 
L 641 -488 
L 941 -488 
Q 997 -813 1206 -963 
Q 1416 -1113 1806 -1113 
Q 2313 -1113 2548 -827 
Q 2784 -541 2784 72 
L 2784 519 
Q 2616 206 2355 57 
Q 2094 -91 1709 -91 
Q 1097 -91 708 395 
Q 319 881 319 1663 
Q 319 2444 706 2928 
Q 1094 3413 1709 3413 
Q 2094 3413 2355 3264 
Q 2616 3116 2784 2803 
L 2784 3322 
L 3909 3322 
L 3909 2988 
L 3359 2988 
z
M 2784 1825 
Q 2784 2422 2554 2737 
Q 2325 3053 1888 3053 
Q 1444 3053 1217 2703 
Q 991 2353 991 1663 
Q 991 975 1217 622 
Q 1444 269 1888 269 
Q 2325 269 2554 583 
Q 2784 897 2784 1497 
L 2784 1825 
z
" transform="scale(0.015625)"/>
      <path id="DejaVuSerif-6f" d="M 1925 219 
Q 2388 219 2623 584 
Q 2859 950 2859 1663 
Q 2859 2375 2623 2739 
Q 2388 3103 1925 3103 
Q 1463 3103 1227 2739 
Q 991 2375 991 1663 
Q 991 950 1228 584 
Q 1466 219 1925 219 
z
M 1925 -91 
Q 1200 -91 759 389 
Q 319 869 319 1663 
Q 319 2456 758 2934 
Q 1197 3413 1925 3413 
Q 2653 3413 3092 2934 
Q 3531 2456 3531 1663 
Q 3531 869 3092 389 
Q 2653 -91 1925 -91 
z
" transform="scale(0.015625)"/>
      <path id="DejaVuSerif-66" d="M 2753 4078 
L 2450 4078 
Q 2447 4313 2317 4434 
Q 2188 4556 1941 4556 
Q 1619 4556 1487 4379 
Q 1356 4203 1356 3750 
L 1356 3322 
L 2284 3322 
L 2284 2988 
L 1356 2988 
L 1356 331 
L 2094 331 
L 2094 0 
L 231 0 
L 231 331 
L 781 331 
L 781 2988 
L 231 2988 
L 231 3322 
L 781 3322 
L 781 3738 
Q 781 4294 1070 4578 
Q 1359 4863 1919 4863 
Q 2128 4863 2337 4825 
Q 2547 4788 2753 4709 
L 2753 4078 
z
" transform="scale(0.015625)"/>
      <path id="DejaVuSerif-74" d="M 691 2988 
L 184 2988 
L 184 3322 
L 691 3322 
L 691 4353 
L 1269 4353 
L 1269 3322 
L 2350 3322 
L 2350 2988 
L 1269 2988 
L 1269 878 
Q 1269 456 1350 337 
Q 1431 219 1650 219 
Q 1875 219 1978 351 
Q 2081 484 2088 781 
L 2522 781 
Q 2497 328 2275 118 
Q 2053 -91 1600 -91 
Q 1103 -91 897 129 
Q 691 350 691 878 
L 691 2988 
z
" transform="scale(0.015625)"/>
      <path id="DejaVuSerif-70" d="M 1313 1825 
L 1313 1497 
Q 1313 897 1542 583 
Q 1772 269 2209 269 
Q 2650 269 2876 622 
Q 3103 975 3103 1663 
Q 3103 2353 2876 2703 
Q 2650 3053 2209 3053 
Q 1772 3053 1542 2737 
Q 1313 2422 1313 1825 
z
M 738 2988 
L 184 2988 
L 184 3322 
L 1313 3322 
L 1313 2803 
Q 1481 3116 1742 3264 
Q 2003 3413 2388 3413 
Q 3000 3413 3387 2928 
Q 3775 2444 3775 1663 
Q 3775 881 3387 395 
Q 3000 -91 2388 -91 
Q 2003 -91 1742 57 
Q 1481 206 1313 519 
L 1313 -997 
L 1856 -997 
L 1856 -1331 
L 184 -1331 
L 184 -997 
L 738 -997 
L 738 2988 
z
" transform="scale(0.015625)"/>
      <path id="DejaVuSerif-62" d="M 738 331 
L 738 4531 
L 184 4531 
L 184 4863 
L 1313 4863 
L 1313 2803 
Q 1481 3116 1742 3264 
Q 2003 3413 2388 3413 
Q 3000 3413 3387 2928 
Q 3775 2444 3775 1663 
Q 3775 881 3387 395 
Q 3000 -91 2388 -91 
Q 2003 -91 1742 57 
Q 1481 206 1313 519 
L 1313 0 
L 184 0 
L 184 331 
L 738 331 
z
M 1313 1497 
Q 1313 897 1542 583 
Q 1772 269 2209 269 
Q 2650 269 2876 622 
Q 3103 975 3103 1663 
Q 3103 2353 2876 2703 
Q 2650 3053 2209 3053 
Q 1772 3053 1542 2737 
Q 1313 2422 1313 1825 
L 1313 1497 
z
" transform="scale(0.015625)"/>
      <path id="DejaVuSerif-79" d="M 1381 -609 
L 1600 -56 
L 359 2988 
L -19 2988 
L -19 3322 
L 1509 3322 
L 1509 2988 
L 978 2988 
L 1913 703 
L 2847 2988 
L 2350 2988 
L 2350 3322 
L 3597 3322 
L 3597 2988 
L 3225 2988 
L 1703 -750 
Q 1547 -1138 1356 -1280 
Q 1166 -1422 819 -1422 
Q 672 -1422 517 -1397 
Q 363 -1372 206 -1325 
L 206 -691 
L 500 -691 
Q 519 -903 608 -995 
Q 697 -1088 884 -1088 
Q 1056 -1088 1161 -992 
Q 1266 -897 1381 -609 
z
" transform="scale(0.015625)"/>
      <path id="DejaVuSerif-77" d="M 3072 3322 
L 3922 728 
L 4672 2988 
L 4191 2988 
L 4191 3322 
L 5394 3322 
L 5394 2988 
L 5025 2988 
L 4038 0 
L 3559 0 
L 2741 2484 
L 1919 0 
L 1459 0 
L 475 2988 
L 103 2988 
L 103 3322 
L 1606 3322 
L 1606 2988 
L 1069 2988 
L 1813 728 
L 2669 3322 
L 3072 3322 
z
" transform="scale(0.015625)"/>
      <path id="DejaVuSerif-68" d="M 263 0 
L 263 331 
L 781 331 
L 781 4531 
L 231 4531 
L 231 4863 
L 1356 4863 
L 1356 2731 
Q 1516 3069 1770 3241 
Q 2025 3413 2363 3413 
Q 2913 3413 3172 3097 
Q 3431 2781 3431 2113 
L 3431 331 
L 3944 331 
L 3944 0 
L 2356 0 
L 2356 331 
L 2853 331 
L 2853 1931 
Q 2853 2541 2704 2764 
Q 2556 2988 2175 2988 
Q 1775 2988 1565 2697 
Q 1356 2406 1356 1850 
L 1356 331 
L 1856 331 
L 1856 0 
L 263 0 
z
" transform="scale(0.015625)"/>
      <path id="DejaVuSerif-Italic-4f" d="M 2219 244 
Q 2984 244 3478 770 
Q 3972 1297 4172 2328 
Q 4372 3363 4084 3889 
Q 3797 4416 3031 4416 
Q 2263 4416 1769 3889 
Q 1275 3363 1075 2328 
Q 875 1297 1162 770 
Q 1450 244 2219 244 
z
M 2153 -91 
Q 1678 -91 1311 65 
Q 944 222 700 525 
Q 419 875 334 1319 
Q 250 1763 359 2328 
Q 469 2894 725 3339 
Q 981 3784 1400 4134 
Q 1766 4441 2191 4595 
Q 2616 4750 3097 4750 
Q 4113 4750 4608 4084 
Q 5103 3419 4891 2328 
Q 4781 1769 4522 1320 
Q 4263 872 3847 525 
Q 3481 219 3056 64 
Q 2631 -91 2153 -91 
z
" transform="scale(0.015625)"/>
      <path id="DejaVuSerif-3d" d="M 678 2894 
L 4684 2894 
L 4684 2394 
L 678 2394 
L 678 2894 
z
M 678 1619 
L 4684 1619 
L 4684 1119 
L 678 1119 
L 678 1619 
z
" transform="scale(0.015625)"/>
      <path id="DejaVuSerif-Italic-5a" d="M -166 0 
L -122 225 
L 3572 4281 
L 1159 4281 
L 1025 3584 
L 641 3584 
L 850 4666 
L 4538 4666 
L 4494 4441 
L 800 384 
L 3438 384 
L 3563 1038 
L 3944 1038 
L 3744 0 
L -166 0 
z
" transform="scale(0.015625)"/>
     </defs>
     <use xlink:href="#DejaVuSerif-55" transform="translate(0 0.015625)"/>
     <use xlink:href="#DejaVuSerif-6e" transform="translate(84.277344 0.015625)"/>
     <use xlink:href="#DejaVuSerif-69" transform="translate(148.681641 0.015625)"/>
     <use xlink:href="#DejaVuSerif-76" transform="translate(180.664062 0.015625)"/>
     <use xlink:href="#DejaVuSerif-65" transform="translate(237.158203 0.015625)"/>
     <use xlink:href="#DejaVuSerif-72" transform="translate(296.337891 0.015625)"/>
     <use xlink:href="#DejaVuSerif-73" transform="translate(344.140625 0.015625)"/>
     <use xlink:href="#DejaVuSerif-61" transform="translate(395.458984 0.015625)"/>
     <use xlink:href="#DejaVuSerif-6c" transform="translate(455.078125 0.015625)"/>
     <use xlink:href="#DejaVuSerif-20" transform="translate(487.060547 0.015625)"/>
     <use xlink:href="#DejaVuSerif-73" transform="translate(518.847656 0.015625)"/>
     <use xlink:href="#DejaVuSerif-63" transform="translate(570.166016 0.015625)"/>
     <use xlink:href="#DejaVuSerif-61" transform="translate(626.171875 0.015625)"/>
     <use xlink:href="#DejaVuSerif-6c" transform="translate(685.791016 0.015625)"/>
     <use xlink:href="#DejaVuSerif-69" transform="translate(717.773438 0.015625)"/>
     <use xlink:href="#DejaVuSerif-6e" transform="translate(749.755859 0.015625)"/>
     <use xlink:href="#DejaVuSerif-67" transform="translate(814.160156 0.015625)"/>
     <use xlink:href="#DejaVuSerif-20" transform="translate(878.173828 0.015625)"/>
     <use xlink:href="#DejaVuSerif-6f" transform="translate(909.960938 0.015625)"/>
     <use xlink:href="#DejaVuSerif-66" transform="translate(970.166016 0.015625)"/>
     <use xlink:href="#DejaVuSerif-20" transform="translate(1007.177734 0.015625)"/>
     <use xlink:href="#DejaVuSerif-74" transform="translate(1038.964844 0.015625)"/>
     <use xlink:href="#DejaVuSerif-61" transform="translate(1079.150391 0.015625)"/>
     <use xlink:href="#DejaVuSerif-69" transform="translate(1138.769531 0.015625)"/>
     <use xlink:href="#DejaVuSerif-6c" transform="translate(1170.751953 0.015625)"/>
     <use xlink:href="#DejaVuSerif-20" transform="translate(1202.734375 0.015625)"/>
     <use xlink:href="#DejaVuSerif-70" transform="translate(1234.521484 0.015625)"/>
     <use xlink:href="#DejaVuSerif-72" transform="translate(1298.535156 0.015625)"/>
     <use xlink:href="#DejaVuSerif-6f" transform="translate(1346.337891 0.015625)"/>
     <use xlink:href="#DejaVuSerif-62" transform="translate(1406.542969 0.015625)"/>
     <use xlink:href="#DejaVuSerif-61" transform="translate(1470.556641 0.015625)"/>
     <use xlink:href="#DejaVuSerif-62" transform="translate(1530.175781 0.015625)"/>
     <use xlink:href="#DejaVuSerif-69" transform="translate(1594.189453 0.015625)"/>
     <use xlink:href="#DejaVuSerif-6c" transform="translate(1626.171875 0.015625)"/>
     <use xlink:href="#DejaVuSerif-69" transform="translate(1658.154297 0.015625)"/>
     <use xlink:href="#DejaVuSerif-74" transform="translate(1690.136719 0.015625)"/>
     <use xlink:href="#DejaVuSerif-79" transform="translate(1730.322266 0.015625)"/>
     <use xlink:href="#DejaVuSerif-20" transform="translate(1786.816406 0.015625)"/>
     <use xlink:href="#DejaVuSerif-77" transform="translate(1818.603516 0.015625)"/>
     <use xlink:href="#DejaVuSerif-69" transform="translate(1904.199219 0.015625)"/>
     <use xlink:href="#DejaVuSerif-74" transform="translate(1936.181641 0.015625)"/>
     <use xlink:href="#DejaVuSerif-68" transform="translate(1976.367188 0.015625)"/>
     <use xlink:href="#DejaVuSerif-20" transform="translate(2040.771484 0.015625)"/>
     <use xlink:href="#DejaVuSerif-Italic-4e" transform="translate(2072.558594 0.015625)"/>
     <use xlink:href="#DejaVuSerif-20" transform="translate(2160.058594 0.015625)"/>
     <use xlink:href="#DejaVuSerif-66" transform="translate(2191.845703 0.015625)"/>
     <use xlink:href="#DejaVuSerif-6f" transform="translate(2228.857422 0.015625)"/>
     <use xlink:href="#DejaVuSerif-72" transform="translate(2289.0625 0.015625)"/>
     <use xlink:href="#DejaVuSerif-20" transform="translate(2336.865234 0.015625)"/>
     <use xlink:href="#DejaVuSerif-Italic-4f" transform="translate(2368.652344 0.015625)"/>
     <use xlink:href="#DejaVuSerif-3d" transform="translate(2469.599609 0.015625)"/>
     <use xlink:href="#DejaVuSerif-Italic-5a" transform="translate(2572.353516 0.015625)"/>
    </g>
   </g>
   <g id="PathCollection_7">
    <defs>
     <path id="mb5f1a0fd1c" d="M 0 2.5 
C 0.663008 2.5 1.29895 2.236584 1.767767 1.767767 
C 2.236584 1.29895 2.5 0.663008 2.5 0 
C 2.5 -0.663008 2.236584 -1.29895 1.767767 -1.767767 
C 1.29895 -2.236584 0.663008 -2.5 0 -2.5 
C -0.663008 -2.5 -1.29895 -2.236584 -1.767767 -1.767767 
C -2.236584 -1.29895 -2.5 -0.663008 -2.5 0 
C -2.5 0.663008 -2.236584 1.29895 -1.767767 1.767767 
C -1.29895 2.236584 -0.663008 2.5 0 2.5 
z
" style="stroke: #000000; stroke-opacity: 0.4"/>
    </defs>
    <g clip-path="url(#p181e029a0d)">
     <use xlink:href="#mb5f1a0fd1c" x="151.927186" y="97.15161" style="fill: #dd8452; fill-opacity: 0.4; stroke: #000000; stroke-opacity: 0.4"/>
     <use xlink:href="#mb5f1a0fd1c" x="184.986836" y="99.167467" style="fill: #dd8452; fill-opacity: 0.4; stroke: #000000; stroke-opacity: 0.4"/>
    </g>
   </g>
   <g id="line2d_17">
    <path d="M 218.046486 113.142878 
L 218.046486 112.866903 
" clip-path="url(#p181e029a0d)" style="fill: none; stroke: #000000"/>
   </g>
   <g id="line2d_18">
    <path d="M 251.106137 138.074231 
L 251.106137 137.559921 
" clip-path="url(#p181e029a0d)" style="fill: none; stroke: #000000"/>
   </g>
   <g id="line2d_19">
    <path d="M 284.165787 172.904525 
L 284.165787 172.124199 
" clip-path="url(#p181e029a0d)" style="fill: none; stroke: #000000"/>
   </g>
   <g id="line2d_20">
    <path d="M 317.225438 207.324886 
L 317.225438 205.935728 
" clip-path="url(#p181e029a0d)" style="fill: none; stroke: #000000"/>
   </g>
   <g id="line2d_21">
    <path d="M 350.285088 230.025638 
L 350.285088 228.265 
" clip-path="url(#p181e029a0d)" style="fill: none; stroke: #000000"/>
   </g>
   <g id="line2d_22">
    <path d="M 383.344739 237.033567 
L 383.344739 235.557854 
" clip-path="url(#p181e029a0d)" style="fill: none; stroke: #000000"/>
   </g>
   <g id="PathCollection_8">
    <g clip-path="url(#p181e029a0d)">
     <use xlink:href="#m167707ca42" x="218.046486" y="113.142878" style="stroke: #000000"/>
     <use xlink:href="#m167707ca42" x="218.046486" y="112.866903" style="stroke: #000000"/>
    </g>
   </g>
   <g id="PathCollection_9">
    <g clip-path="url(#p181e029a0d)">
     <use xlink:href="#m167707ca42" x="251.106137" y="138.074231" style="stroke: #000000"/>
     <use xlink:href="#m167707ca42" x="251.106137" y="137.559921" style="stroke: #000000"/>
    </g>
   </g>
   <g id="PathCollection_10">
    <g clip-path="url(#p181e029a0d)">
     <use xlink:href="#m167707ca42" x="284.165787" y="172.904525" style="stroke: #000000"/>
     <use xlink:href="#m167707ca42" x="284.165787" y="172.124199" style="stroke: #000000"/>
    </g>
   </g>
   <g id="PathCollection_11">
    <g clip-path="url(#p181e029a0d)">
     <use xlink:href="#m167707ca42" x="317.225438" y="207.324886" style="stroke: #000000"/>
     <use xlink:href="#m167707ca42" x="317.225438" y="205.935728" style="stroke: #000000"/>
    </g>
   </g>
   <g id="PathCollection_12">
    <g clip-path="url(#p181e029a0d)">
     <use xlink:href="#m167707ca42" x="350.285088" y="230.025638" style="stroke: #000000"/>
     <use xlink:href="#m167707ca42" x="350.285088" y="228.265" style="stroke: #000000"/>
    </g>
   </g>
   <g id="PathCollection_13">
    <g clip-path="url(#p181e029a0d)">
     <use xlink:href="#m167707ca42" x="383.344739" y="237.033567" style="stroke: #000000"/>
     <use xlink:href="#m167707ca42" x="383.344739" y="235.557854" style="stroke: #000000"/>
    </g>
   </g>
   <g id="PathCollection_14">
    <defs>
     <path id="m35bc128ce9" d="M 0 2.5 
C 0.663008 2.5 1.29895 2.236584 1.767767 1.767767 
C 2.236584 1.29895 2.5 0.663008 2.5 0 
C 2.5 -0.663008 2.236584 -1.29895 1.767767 -1.767767 
C 1.29895 -2.236584 0.663008 -2.5 0 -2.5 
C -0.663008 -2.5 -1.29895 -2.236584 -1.767767 -1.767767 
C -2.236584 -1.29895 -2.5 -0.663008 -2.5 0 
C -2.5 0.663008 -2.236584 1.29895 -1.767767 1.767767 
C -1.29895 2.236584 -0.663008 2.5 0 2.5 
z
" style="stroke: #000000"/>
    </defs>
    <g clip-path="url(#p181e029a0d)">
     <use xlink:href="#m35bc128ce9" x="218.046486" y="113.004719" style="fill: #dd8452; stroke: #000000"/>
     <use xlink:href="#m35bc128ce9" x="251.106137" y="137.81648" style="fill: #dd8452; stroke: #000000"/>
     <use xlink:href="#m35bc128ce9" x="284.165787" y="172.512989" style="fill: #dd8452; stroke: #000000"/>
     <use xlink:href="#m35bc128ce9" x="317.225438" y="206.625956" style="fill: #dd8452; stroke: #000000"/>
     <use xlink:href="#m35bc128ce9" x="350.285088" y="229.13833" style="fill: #dd8452; stroke: #000000"/>
     <use xlink:href="#m35bc128ce9" x="383.344739" y="236.2908" style="fill: #dd8452; stroke: #000000"/>
    </g>
   </g>
   <g id="PathCollection_15">
    <defs>
     <path id="m55d30028b4" d="M 0 2.5 
C 0.663008 2.5 1.29895 2.236584 1.767767 1.767767 
C 2.236584 1.29895 2.5 0.663008 2.5 0 
C 2.5 -0.663008 2.236584 -1.29895 1.767767 -1.767767 
C 1.29895 -2.236584 0.663008 -2.5 0 -2.5 
C -0.663008 -2.5 -1.29895 -2.236584 -1.767767 -1.767767 
C -2.236584 -1.29895 -2.5 -0.663008 -2.5 0 
C -2.5 0.663008 -2.236584 1.29895 -1.767767 1.767767 
C -1.29895 2.236584 -0.663008 2.5 0 2.5 
z
" style="stroke: #000000; stroke-opacity: 0.4"/>
    </defs>
    <g clip-path="url(#p181e029a0d)">
     <use xlink:href="#m55d30028b4" x="103.26335" y="70.759895" style="fill: #55a868; fill-opacity: 0.4; stroke: #000000; stroke-opacity: 0.4"/>
     <use xlink:href="#m55d30028b4" x="136.323001" y="63.021255" style="fill: #55a868; fill-opacity: 0.4; stroke: #000000; stroke-opacity: 0.4"/>
    </g>
   </g>
   <g id="line2d_23">
    <path d="M 169.382651 71.15599 
L 169.382651 70.82041 
" clip-path="url(#p181e029a0d)" style="fill: none; stroke: #000000"/>
   </g>
   <g id="line2d_24">
    <path d="M 202.442302 88.867778 
L 202.442302 88.279881 
" clip-path="url(#p181e029a0d)" style="fill: none; stroke: #000000"/>
   </g>
   <g id="line2d_25">
    <path d="M 235.501952 115.460237 
L 235.501952 114.735441 
" clip-path="url(#p181e029a0d)" style="fill: none; stroke: #000000"/>
   </g>
   <g id="line2d_26">
    <path d="M 268.561602 153.613498 
L 268.561602 152.636254 
" clip-path="url(#p181e029a0d)" style="fill: none; stroke: #000000"/>
   </g>
   <g id="line2d_27">
    <path d="M 301.621253 195.49662 
L 301.621253 193.617906 
" clip-path="url(#p181e029a0d)" style="fill: none; stroke: #000000"/>
   </g>
   <g id="line2d_28">
    <path d="M 334.680903 223.472375 
L 334.680903 220.377084 
" clip-path="url(#p181e029a0d)" style="fill: none; stroke: #000000"/>
   </g>
   <g id="line2d_29">
    <path d="M 367.740554 235.219307 
L 367.740554 232.751285 
" clip-path="url(#p181e029a0d)" style="fill: none; stroke: #000000"/>
   </g>
   <g id="line2d_30">
    <path d="M 400.800204 237.402227 
L 400.800204 235.577469 
" clip-path="url(#p181e029a0d)" style="fill: none; stroke: #000000"/>
   </g>
   <g id="PathCollection_16">
    <g clip-path="url(#p181e029a0d)">
     <use xlink:href="#m167707ca42" x="169.382651" y="71.15599" style="stroke: #000000"/>
     <use xlink:href="#m167707ca42" x="169.382651" y="70.82041" style="stroke: #000000"/>
    </g>
   </g>
   <g id="PathCollection_17">
    <g clip-path="url(#p181e029a0d)">
     <use xlink:href="#m167707ca42" x="202.442302" y="88.867778" style="stroke: #000000"/>
     <use xlink:href="#m167707ca42" x="202.442302" y="88.279881" style="stroke: #000000"/>
    </g>
   </g>
   <g id="PathCollection_18">
    <g clip-path="url(#p181e029a0d)">
     <use xlink:href="#m167707ca42" x="235.501952" y="115.460237" style="stroke: #000000"/>
     <use xlink:href="#m167707ca42" x="235.501952" y="114.735441" style="stroke: #000000"/>
    </g>
   </g>
   <g id="PathCollection_19">
    <g clip-path="url(#p181e029a0d)">
     <use xlink:href="#m167707ca42" x="268.561602" y="153.613498" style="stroke: #000000"/>
     <use xlink:href="#m167707ca42" x="268.561602" y="152.636254" style="stroke: #000000"/>
    </g>
   </g>
   <g id="PathCollection_20">
    <g clip-path="url(#p181e029a0d)">
     <use xlink:href="#m167707ca42" x="301.621253" y="195.49662" style="stroke: #000000"/>
     <use xlink:href="#m167707ca42" x="301.621253" y="193.617906" style="stroke: #000000"/>
    </g>
   </g>
   <g id="PathCollection_21">
    <g clip-path="url(#p181e029a0d)">
     <use xlink:href="#m167707ca42" x="334.680903" y="223.472375" style="stroke: #000000"/>
     <use xlink:href="#m167707ca42" x="334.680903" y="220.377084" style="stroke: #000000"/>
    </g>
   </g>
   <g id="PathCollection_22">
    <g clip-path="url(#p181e029a0d)">
     <use xlink:href="#m167707ca42" x="367.740554" y="235.219307" style="stroke: #000000"/>
     <use xlink:href="#m167707ca42" x="367.740554" y="232.751285" style="stroke: #000000"/>
    </g>
   </g>
   <g id="PathCollection_23">
    <g clip-path="url(#p181e029a0d)">
     <use xlink:href="#m167707ca42" x="400.800204" y="237.402227" style="stroke: #000000"/>
     <use xlink:href="#m167707ca42" x="400.800204" y="235.577469" style="stroke: #000000"/>
    </g>
   </g>
   <g id="PathCollection_24">
    <defs>
     <path id="m18f311b186" d="M 0 2.5 
C 0.663008 2.5 1.29895 2.236584 1.767767 1.767767 
C 2.236584 1.29895 2.5 0.663008 2.5 0 
C 2.5 -0.663008 2.236584 -1.29895 1.767767 -1.767767 
C 1.29895 -2.236584 0.663008 -2.5 0 -2.5 
C -0.663008 -2.5 -1.29895 -2.236584 -1.767767 -1.767767 
C -2.236584 -1.29895 -2.5 -0.663008 -2.5 0 
C -2.5 0.663008 -2.236584 1.29895 -1.767767 1.767767 
C -1.29895 2.236584 -0.663008 2.5 0 2.5 
z
" style="stroke: #000000"/>
    </defs>
    <g clip-path="url(#p181e029a0d)">
     <use xlink:href="#m18f311b186" x="169.382651" y="70.987946" style="fill: #55a868; stroke: #000000"/>
     <use xlink:href="#m18f311b186" x="202.442302" y="88.57305" style="fill: #55a868; stroke: #000000"/>
     <use xlink:href="#m18f311b186" x="235.501952" y="115.096654" style="fill: #55a868; stroke: #000000"/>
     <use xlink:href="#m18f311b186" x="268.561602" y="153.122723" style="fill: #55a868; stroke: #000000"/>
     <use xlink:href="#m18f311b186" x="301.621253" y="194.549304" style="fill: #55a868; stroke: #000000"/>
     <use xlink:href="#m18f311b186" x="334.680903" y="221.903128" style="fill: #55a868; stroke: #000000"/>
     <use xlink:href="#m18f311b186" x="367.740554" y="233.971562" style="fill: #55a868; stroke: #000000"/>
     <use xlink:href="#m18f311b186" x="400.800204" y="236.48234" style="fill: #55a868; stroke: #000000"/>
    </g>
   </g>
   <g id="PathCollection_25">
    <defs>
     <path id="m91f3b1a232" d="M 0 2.5 
C 0.663008 2.5 1.29895 2.236584 1.767767 1.767767 
C 2.236584 1.29895 2.5 0.663008 2.5 0 
C 2.5 -0.663008 2.236584 -1.29895 1.767767 -1.767767 
C 1.29895 -2.236584 0.663008 -2.5 0 -2.5 
C -0.663008 -2.5 -1.29895 -2.236584 -1.767767 -1.767767 
C -2.236584 -1.29895 -2.5 -0.663008 -2.5 0 
C -2.5 0.663008 -2.236584 1.29895 -1.767767 1.767767 
C -1.29895 2.236584 -0.663008 2.5 0 2.5 
z
" style="stroke: #000000; stroke-opacity: 0.4"/>
    </defs>
    <g clip-path="url(#p181e029a0d)">
     <use xlink:href="#m91f3b1a232" x="54.599515" y="41.952927" style="fill: #c44e52; fill-opacity: 0.4; stroke: #000000; stroke-opacity: 0.4"/>
     <use xlink:href="#m91f3b1a232" x="87.659165" y="26.218994" style="fill: #c44e52; fill-opacity: 0.4; stroke: #000000; stroke-opacity: 0.4"/>
    </g>
   </g>
   <g id="line2d_31">
    <path d="M 120.718816 31.805218 
L 120.718816 31.363271 
" clip-path="url(#p181e029a0d)" style="fill: none; stroke: #000000"/>
   </g>
   <g id="line2d_32">
    <path d="M 153.778466 47.594292 
L 153.778466 46.83694 
" clip-path="url(#p181e029a0d)" style="fill: none; stroke: #000000"/>
   </g>
   <g id="line2d_33">
    <path d="M 186.838117 70.484265 
L 186.838117 69.600767 
" clip-path="url(#p181e029a0d)" style="fill: none; stroke: #000000"/>
   </g>
   <g id="line2d_34">
    <path d="M 219.897767 99.726821 
L 219.897767 98.736848 
" clip-path="url(#p181e029a0d)" style="fill: none; stroke: #000000"/>
   </g>
   <g id="line2d_35">
    <path d="M 252.957418 139.422053 
L 252.957418 138.212786 
" clip-path="url(#p181e029a0d)" style="fill: none; stroke: #000000"/>
   </g>
   <g id="line2d_36">
    <path d="M 286.017068 188.220241 
L 286.017068 185.3254 
" clip-path="url(#p181e029a0d)" style="fill: none; stroke: #000000"/>
   </g>
   <g id="line2d_37">
    <path d="M 319.076718 223.218053 
L 319.076718 216.578142 
" clip-path="url(#p181e029a0d)" style="fill: none; stroke: #000000"/>
   </g>
   <g id="line2d_38">
    <path d="M 352.136369 241.744181 
L 352.136369 236.476508 
" clip-path="url(#p181e029a0d)" style="fill: none; stroke: #000000"/>
   </g>
   <g id="line2d_39">
    <path d="M 385.196019 245.697256 
L 385.196019 242.492357 
" clip-path="url(#p181e029a0d)" style="fill: none; stroke: #000000"/>
   </g>
   <g id="line2d_40">
    <path d="M 418.25567 243.560943 
L 418.25567 240.949512 
" clip-path="url(#p181e029a0d)" style="fill: none; stroke: #000000"/>
   </g>
   <g id="PathCollection_26">
    <g clip-path="url(#p181e029a0d)">
     <use xlink:href="#m167707ca42" x="120.718816" y="31.805218" style="stroke: #000000"/>
     <use xlink:href="#m167707ca42" x="120.718816" y="31.363271" style="stroke: #000000"/>
    </g>
   </g>
   <g id="PathCollection_27">
    <g clip-path="url(#p181e029a0d)">
     <use xlink:href="#m167707ca42" x="153.778466" y="47.594292" style="stroke: #000000"/>
     <use xlink:href="#m167707ca42" x="153.778466" y="46.83694" style="stroke: #000000"/>
    </g>
   </g>
   <g id="PathCollection_28">
    <g clip-path="url(#p181e029a0d)">
     <use xlink:href="#m167707ca42" x="186.838117" y="70.484265" style="stroke: #000000"/>
     <use xlink:href="#m167707ca42" x="186.838117" y="69.600767" style="stroke: #000000"/>
    </g>
   </g>
   <g id="PathCollection_29">
    <g clip-path="url(#p181e029a0d)">
     <use xlink:href="#m167707ca42" x="219.897767" y="99.726821" style="stroke: #000000"/>
     <use xlink:href="#m167707ca42" x="219.897767" y="98.736848" style="stroke: #000000"/>
    </g>
   </g>
   <g id="PathCollection_30">
    <g clip-path="url(#p181e029a0d)">
     <use xlink:href="#m167707ca42" x="252.957418" y="139.422053" style="stroke: #000000"/>
     <use xlink:href="#m167707ca42" x="252.957418" y="138.212786" style="stroke: #000000"/>
    </g>
   </g>
   <g id="PathCollection_31">
    <g clip-path="url(#p181e029a0d)">
     <use xlink:href="#m167707ca42" x="286.017068" y="188.220241" style="stroke: #000000"/>
     <use xlink:href="#m167707ca42" x="286.017068" y="185.3254" style="stroke: #000000"/>
    </g>
   </g>
   <g id="PathCollection_32">
    <g clip-path="url(#p181e029a0d)">
     <use xlink:href="#m167707ca42" x="319.076718" y="223.218053" style="stroke: #000000"/>
     <use xlink:href="#m167707ca42" x="319.076718" y="216.578142" style="stroke: #000000"/>
    </g>
   </g>
   <g id="PathCollection_33">
    <g clip-path="url(#p181e029a0d)">
     <use xlink:href="#m167707ca42" x="352.136369" y="241.744181" style="stroke: #000000"/>
     <use xlink:href="#m167707ca42" x="352.136369" y="236.476508" style="stroke: #000000"/>
    </g>
   </g>
   <g id="PathCollection_34">
    <g clip-path="url(#p181e029a0d)">
     <use xlink:href="#m167707ca42" x="385.196019" y="245.697256" style="stroke: #000000"/>
     <use xlink:href="#m167707ca42" x="385.196019" y="242.492357" style="stroke: #000000"/>
    </g>
   </g>
   <g id="PathCollection_35">
    <g clip-path="url(#p181e029a0d)">
     <use xlink:href="#m167707ca42" x="418.25567" y="243.560943" style="stroke: #000000"/>
     <use xlink:href="#m167707ca42" x="418.25567" y="240.949512" style="stroke: #000000"/>
    </g>
   </g>
   <g id="PathCollection_36">
    <defs>
     <path id="mca1a4c9dd4" d="M 0 2.5 
C 0.663008 2.5 1.29895 2.236584 1.767767 1.767767 
C 2.236584 1.29895 2.5 0.663008 2.5 0 
C 2.5 -0.663008 2.236584 -1.29895 1.767767 -1.767767 
C 1.29895 -2.236584 0.663008 -2.5 0 -2.5 
C -0.663008 -2.5 -1.29895 -2.236584 -1.767767 -1.767767 
C -2.236584 -1.29895 -2.5 -0.663008 -2.5 0 
C -2.5 0.663008 -2.236584 1.29895 -1.767767 1.767767 
C -1.29895 2.236584 -0.663008 2.5 0 2.5 
z
" style="stroke: #000000"/>
    </defs>
    <g clip-path="url(#p181e029a0d)">
     <use xlink:href="#mca1a4c9dd4" x="120.718816" y="31.583804" style="fill: #c44e52; stroke: #000000"/>
     <use xlink:href="#mca1a4c9dd4" x="153.778466" y="47.214323" style="fill: #c44e52; stroke: #000000"/>
     <use xlink:href="#mca1a4c9dd4" x="186.838117" y="70.040756" style="fill: #c44e52; stroke: #000000"/>
     <use xlink:href="#mca1a4c9dd4" x="219.897767" y="99.229625" style="fill: #c44e52; stroke: #000000"/>
     <use xlink:href="#mca1a4c9dd4" x="252.957418" y="138.814122" style="fill: #c44e52; stroke: #000000"/>
     <use xlink:href="#mca1a4c9dd4" x="286.017068" y="186.753926" style="fill: #c44e52; stroke: #000000"/>
     <use xlink:href="#mca1a4c9dd4" x="319.076718" y="219.79874" style="fill: #c44e52; stroke: #000000"/>
     <use xlink:href="#mca1a4c9dd4" x="352.136369" y="239.047797" style="fill: #c44e52; stroke: #000000"/>
     <use xlink:href="#mca1a4c9dd4" x="385.196019" y="244.071649" style="fill: #c44e52; stroke: #000000"/>
     <use xlink:href="#mca1a4c9dd4" x="418.25567" y="242.239851" style="fill: #c44e52; stroke: #000000"/>
    </g>
   </g>
   <g id="line2d_41">
    <path d="M -1 239.329172 
L 433 239.329172 
" clip-path="url(#p181e029a0d)" style="fill: none; stroke-dasharray: 3.7,1.6; stroke-dashoffset: 0; stroke: #8c8c8c"/>
   </g>
   <g id="line2d_42">
    <path d="M 152.901283 33.009074 
L 154.904898 35.093116 
L 156.908514 37.177157 
L 158.912129 39.261199 
L 160.915744 41.34524 
L 162.919359 43.429281 
L 164.922974 45.513323 
L 166.92659 47.597364 
L 168.930205 49.681406 
L 170.93382 51.765447 
L 172.937435 53.849488 
L 174.94105 55.93353 
L 176.944665 58.017571 
L 178.948281 60.101613 
L 180.951896 62.185654 
L 182.955511 64.269695 
L 184.959126 66.353737 
L 186.962741 68.437778 
L 188.966356 70.52182 
L 190.969972 72.605861 
L 192.973587 74.689902 
L 194.977202 76.773944 
L 196.980817 78.857985 
L 198.984432 80.942026 
L 200.988048 83.026068 
L 202.991663 85.110109 
L 204.995278 87.194151 
L 206.998893 89.278192 
L 209.002508 91.362233 
L 211.006123 93.446275 
L 213.009739 95.530316 
L 215.013354 97.614358 
L 217.016969 99.698399 
L 219.020584 101.78244 
L 221.024199 103.866482 
L 223.027814 105.950523 
L 225.03143 108.034565 
L 227.035045 110.118606 
L 229.03866 112.202647 
L 231.042275 114.286689 
L 233.04589 116.37073 
L 235.049506 118.454772 
L 237.053121 120.538813 
L 239.056736 122.622854 
L 241.060351 124.706896 
L 243.063966 126.790937 
L 245.067581 128.874979 
L 247.071197 130.95902 
L 249.074812 133.043061 
L 251.078427 135.127103 
L 253.082042 137.211144 
L 255.085657 139.295186 
L 257.089272 141.379227 
L 259.092888 143.463268 
L 261.096503 145.54731 
L 263.100118 147.631351 
L 265.103733 149.715392 
L 267.107348 151.799434 
L 269.110964 153.883475 
L 271.114579 155.967517 
L 273.118194 158.051558 
L 275.121809 160.135599 
L 277.125424 162.219641 
L 279.129039 164.303682 
L 281.132655 166.387724 
L 283.13627 168.471765 
L 285.139885 170.555806 
L 287.1435 172.639848 
L 289.147115 174.723889 
L 291.15073 176.807931 
L 293.154346 178.891972 
L 295.157961 180.976013 
L 297.161576 183.060055 
L 299.165191 185.144096 
L 301.168806 187.228138 
L 303.172422 189.312179 
L 305.176037 191.39622 
L 307.179652 193.480262 
L 309.183267 195.564303 
L 311.186882 197.648345 
L 313.190497 199.732386 
L 315.194113 201.816427 
L 317.197728 203.900469 
L 319.201343 205.98451 
L 321.204958 208.068552 
L 323.208573 210.152593 
L 325.212188 212.236634 
L 327.215804 214.320676 
L 329.219419 216.404717 
L 331.223034 218.488758 
L 333.226649 220.5728 
L 335.230264 222.656841 
L 337.23388 224.740883 
L 339.237495 226.824924 
L 341.24111 228.908965 
L 343.244725 230.993007 
L 345.24834 233.077048 
L 347.251955 235.16109 
L 349.255571 237.245131 
L 351.259186 239.329172 
" clip-path="url(#p181e029a0d)" style="fill: none; stroke-dasharray: 3.7,1.6; stroke-dashoffset: 0; stroke: #8c8c8c"/>
   </g>
   <g id="legend_1">
    <g id="patch_7">
     <path d="M 350.310667 94.347146 
L 424.165354 94.347146 
L 424.165354 24.634646 
L 350.310667 24.634646 
z
" style="fill: #ffffff; stroke: #000000; stroke-linejoin: miter"/>
    </g>
    <g id="line2d_43">
     <path d="M 358.310667 36.733083 
L 368.310667 36.733083 
L 378.310667 36.733083 
" style="fill: none"/>
     <defs>
      <path id="m0e1c6156ee" d="M 0 4 
C 1.060812 4 2.078319 3.578535 2.828427 2.828427 
C 3.578535 2.078319 4 1.060812 4 0 
C 4 -1.060812 3.578535 -2.078319 2.828427 -2.828427 
C 2.078319 -3.578535 1.060812 -4 0 -4 
C -1.060812 -4 -2.078319 -3.578535 -2.828427 -2.828427 
C -3.578535 -2.078319 -4 -1.060812 -4 0 
C -4 1.060812 -3.578535 2.078319 -2.828427 2.828427 
C -2.078319 3.578535 -1.060812 4 0 4 
z
" style="stroke: #000000; stroke-width: 1.6"/>
     </defs>
     <g>
      <use xlink:href="#m0e1c6156ee" x="368.310667" y="36.733083" style="fill: #4c72b0; stroke: #000000; stroke-width: 1.6"/>
     </g>
    </g>
    <g id="text_10">
     <!-- N=6 -->
     <g transform="translate(386.310667 40.233083) scale(0.1 -0.1)">
      <defs>
       <path id="DejaVuSerif-4e" d="M 313 0 
L 313 331 
L 941 331 
L 941 4331 
L 313 4331 
L 313 4666 
L 1509 4666 
L 4306 984 
L 4306 4331 
L 3681 4331 
L 3681 4666 
L 5319 4666 
L 5319 4331 
L 4691 4331 
L 4691 -91 
L 4313 -91 
L 1325 3841 
L 1325 331 
L 1953 331 
L 1953 0 
L 313 0 
z
" transform="scale(0.015625)"/>
       <path id="DejaVuSerif-36" d="M 2094 219 
Q 2534 219 2771 542 
Q 3009 866 3009 1472 
Q 3009 2078 2771 2401 
Q 2534 2725 2094 2725 
Q 1647 2725 1412 2412 
Q 1178 2100 1178 1509 
Q 1178 888 1415 553 
Q 1653 219 2094 219 
z
M 1075 2569 
Q 1288 2803 1556 2918 
Q 1825 3034 2163 3034 
Q 2859 3034 3264 2615 
Q 3669 2197 3669 1472 
Q 3669 763 3233 336 
Q 2797 -91 2069 -91 
Q 1278 -91 853 498 
Q 428 1088 428 2181 
Q 428 3406 931 4078 
Q 1434 4750 2350 4750 
Q 2597 4750 2869 4703 
Q 3141 4656 3425 4563 
L 3425 3794 
L 3072 3794 
Q 3034 4109 2831 4275 
Q 2628 4441 2284 4441 
Q 1678 4441 1381 3981 
Q 1084 3522 1075 2569 
z
" transform="scale(0.015625)"/>
      </defs>
      <use xlink:href="#DejaVuSerif-4e"/>
      <use xlink:href="#DejaVuSerif-3d" x="87.5"/>
      <use xlink:href="#DejaVuSerif-36" x="171.289062"/>
     </g>
    </g>
    <g id="line2d_44">
     <path d="M 358.310667 51.411208 
L 368.310667 51.411208 
L 378.310667 51.411208 
" style="fill: none"/>
     <defs>
      <path id="m772b0be206" d="M 0 4 
C 1.060812 4 2.078319 3.578535 2.828427 2.828427 
C 3.578535 2.078319 4 1.060812 4 0 
C 4 -1.060812 3.578535 -2.078319 2.828427 -2.828427 
C 2.078319 -3.578535 1.060812 -4 0 -4 
C -1.060812 -4 -2.078319 -3.578535 -2.828427 -2.828427 
C -3.578535 -2.078319 -4 -1.060812 -4 0 
C -4 1.060812 -3.578535 2.078319 -2.828427 2.828427 
C -2.078319 3.578535 -1.060812 4 0 4 
z
" style="stroke: #000000; stroke-width: 1.6"/>
     </defs>
     <g>
      <use xlink:href="#m772b0be206" x="368.310667" y="51.411208" style="fill: #dd8452; stroke: #000000; stroke-width: 1.6"/>
     </g>
    </g>
    <g id="text_11">
     <!-- N=8 -->
     <g transform="translate(386.310667 54.911208) scale(0.1 -0.1)">
      <defs>
       <path id="DejaVuSerif-38" d="M 2981 1275 
Q 2981 1775 2732 2051 
Q 2484 2328 2034 2328 
Q 1584 2328 1336 2051 
Q 1088 1775 1088 1275 
Q 1088 772 1336 495 
Q 1584 219 2034 219 
Q 2484 219 2732 495 
Q 2981 772 2981 1275 
z
M 2853 3541 
Q 2853 3966 2637 4203 
Q 2422 4441 2034 4441 
Q 1650 4441 1433 4203 
Q 1216 3966 1216 3541 
Q 1216 3113 1433 2875 
Q 1650 2638 2034 2638 
Q 2422 2638 2637 2875 
Q 2853 3113 2853 3541 
z
M 2516 2484 
Q 3047 2413 3344 2092 
Q 3641 1772 3641 1275 
Q 3641 619 3225 264 
Q 2809 -91 2034 -91 
Q 1263 -91 845 264 
Q 428 619 428 1275 
Q 428 1772 725 2092 
Q 1022 2413 1556 2484 
Q 1084 2569 832 2842 
Q 581 3116 581 3541 
Q 581 4103 968 4426 
Q 1356 4750 2034 4750 
Q 2713 4750 3100 4426 
Q 3488 4103 3488 3541 
Q 3488 3116 3236 2842 
Q 2984 2569 2516 2484 
z
" transform="scale(0.015625)"/>
      </defs>
      <use xlink:href="#DejaVuSerif-4e"/>
      <use xlink:href="#DejaVuSerif-3d" x="87.5"/>
      <use xlink:href="#DejaVuSerif-38" x="171.289062"/>
     </g>
    </g>
    <g id="line2d_45">
     <path d="M 358.310667 66.089333 
L 368.310667 66.089333 
L 378.310667 66.089333 
" style="fill: none"/>
     <defs>
      <path id="m01be85e618" d="M 0 4 
C 1.060812 4 2.078319 3.578535 2.828427 2.828427 
C 3.578535 2.078319 4 1.060812 4 0 
C 4 -1.060812 3.578535 -2.078319 2.828427 -2.828427 
C 2.078319 -3.578535 1.060812 -4 0 -4 
C -1.060812 -4 -2.078319 -3.578535 -2.828427 -2.828427 
C -3.578535 -2.078319 -4 -1.060812 -4 0 
C -4 1.060812 -3.578535 2.078319 -2.828427 2.828427 
C -2.078319 3.578535 -1.060812 4 0 4 
z
" style="stroke: #000000; stroke-width: 1.6"/>
     </defs>
     <g>
      <use xlink:href="#m01be85e618" x="368.310667" y="66.089333" style="fill: #55a868; stroke: #000000; stroke-width: 1.6"/>
     </g>
    </g>
    <g id="text_12">
     <!-- N=10 -->
     <g transform="translate(386.310667 69.589333) scale(0.1 -0.1)">
      <use xlink:href="#DejaVuSerif-4e"/>
      <use xlink:href="#DejaVuSerif-3d" x="87.5"/>
      <use xlink:href="#DejaVuSerif-31" x="171.289062"/>
      <use xlink:href="#DejaVuSerif-30" x="234.912109"/>
     </g>
    </g>
    <g id="line2d_46">
     <path d="M 358.310667 80.767458 
L 368.310667 80.767458 
L 378.310667 80.767458 
" style="fill: none"/>
     <defs>
      <path id="m24086bf664" d="M 0 4 
C 1.060812 4 2.078319 3.578535 2.828427 2.828427 
C 3.578535 2.078319 4 1.060812 4 0 
C 4 -1.060812 3.578535 -2.078319 2.828427 -2.828427 
C 2.078319 -3.578535 1.060812 -4 0 -4 
C -1.060812 -4 -2.078319 -3.578535 -2.828427 -2.828427 
C -3.578535 -2.078319 -4 -1.060812 -4 0 
C -4 1.060812 -3.578535 2.078319 -2.828427 2.828427 
C -2.078319 3.578535 -1.060812 4 0 4 
z
" style="stroke: #000000; stroke-width: 1.6"/>
     </defs>
     <g>
      <use xlink:href="#m24086bf664" x="368.310667" y="80.767458" style="fill: #c44e52; stroke: #000000; stroke-width: 1.6"/>
     </g>
    </g>
    <g id="text_13">
     <!-- N=12 -->
     <g transform="translate(386.310667 84.267458) scale(0.1 -0.1)">
      <use xlink:href="#DejaVuSerif-4e"/>
      <use xlink:href="#DejaVuSerif-3d" x="87.5"/>
      <use xlink:href="#DejaVuSerif-31" x="171.289062"/>
      <use xlink:href="#DejaVuSerif-32" x="234.912109"/>
     </g>
    </g>
   </g>
  </g>
 </g>
 <defs>
  <clipPath id="p181e029a0d">
   <rect x="43.68983" y="19.634646" width="385.475524" height="232.646959"/>
  </clipPath>
 </defs>
</svg>
