<?xml version="1.0" encoding="utf-8" standalone="no"?>
<!DOCTYPE svg PUBLIC "-//W3C//DTD SVG 1.1//EN"
  "http://www.w3.org/Graphics/SVG/1.1/DTD/svg11.dtd">
<svg xmlns:xlink="http://www.w3.org/1999/xlink" width="432pt" height="288pt" viewBox="0 0 432 288" xmlns="http://www.w3.org/2000/svg" version="1.1">
 <metadata>
  <rdf:RDF xmlns:dc="http://purl.org/dc/elements/1.1/" xmlns:cc="http://creativecommons.org/ns#" xmlns:rdf="http://www.w3.org/1999/02/22-rdf-syntax-ns#">
   <cc:Work>
    <dc:type rdf:resource="http://purl.org/dc/dcmitype/StillImage"/>
    <dc:date>2024-07-21T16:01:47.954212</dc:date>
    <dc:format>image/svg+xml</dc:format>
    <dc:creator>
     <cc:Agent>
      <dc:title>Matplotlib v3.9.1, https://matplotlib.org/</dc:title>
     </cc:Agent>
    </dc:creator>
   </cc:Work>
  </rdf:RDF>
 </metadata>
 <defs>
  <style type="text/css">*{stroke-linejoin: round; stroke-linecap: butt}</style>
 </defs>
 <g id="figure_1">
  <g id="patch_1">
   <path d="M 0 288 
L 432 288 
L 432 0 
L 0 0 
z
" style="fill: #ffffff"/>
  </g>
  <g id="axes_1">
   <g id="patch_2">
    <path d="M 43.377901 257.190142 
L 430.866142 257.190142 
L 430.866142 16.637858 
L 43.377901 16.637858 
z
" style="fill: #ffffff"/>
   </g>
   <g id="patch_3">
    <path d="M 65.10447 249.207064 
L 65.10447 257.190142 
L 65.187276 257.190142 
L 65.187276 249.207064 
L 65.10447 249.207064 
" clip-path="url(#pac44dbfd09)" style="stroke: #000000; stroke-linejoin: miter"/>
   </g>
   <g id="patch_4">
    <path d="M 404.605985 227.807047 
L 404.605985 257.190142 
L 404.68879 257.190142 
L 404.68879 227.807047 
L 404.605985 227.807047 
" clip-path="url(#pac44dbfd09)" style="stroke: #000000; stroke-linejoin: miter"/>
   </g>
   <g id="patch_5">
    <path d="M 399.430657 242.72221 
L 399.430657 257.190142 
L 399.513463 257.190142 
L 399.513463 242.72221 
L 399.430657 242.72221 
" clip-path="url(#pac44dbfd09)" style="stroke: #000000; stroke-linejoin: miter"/>
   </g>
   <g id="patch_6">
    <path d="M 403.881439 227.86966 
L 403.881439 257.190142 
L 403.964245 257.190142 
L 403.964245 227.86966 
L 403.881439 227.86966 
" clip-path="url(#pac44dbfd09)" style="stroke: #000000; stroke-linejoin: miter"/>
   </g>
   <g id="patch_7">
    <path d="M 408.228715 242.342064 
L 408.228715 257.190142 
L 408.31152 257.190142 
L 408.31152 242.342064 
L 408.228715 242.342064 
" clip-path="url(#pac44dbfd09)" style="stroke: #000000; stroke-linejoin: miter"/>
   </g>
   <g id="patch_8">
    <path d="M 65.207977 253.191894 
L 65.207977 257.190142 
L 65.290782 257.190142 
L 65.290782 253.191894 
L 65.207977 253.191894 
" clip-path="url(#pac44dbfd09)" style="stroke: #000000; stroke-linejoin: miter"/>
   </g>
   <g id="patch_9">
    <path d="M 405.744557 227.708656 
L 405.744557 257.190142 
L 405.827363 257.190142 
L 405.827363 227.708656 
L 405.744557 227.708656 
" clip-path="url(#pac44dbfd09)" style="stroke: #000000; stroke-linejoin: miter"/>
   </g>
   <g id="patch_10">
    <path d="M 406.88313 242.400204 
L 406.88313 257.190142 
L 406.965935 257.190142 
L 406.965935 242.400204 
L 406.88313 242.400204 
" clip-path="url(#pac44dbfd09)" style="stroke: #000000; stroke-linejoin: miter"/>
   </g>
   <g id="patch_11">
    <path d="M 402.018321 242.610402 
L 402.018321 257.190142 
L 402.101127 257.190142 
L 402.101127 242.610402 
L 402.018321 242.610402 
" clip-path="url(#pac44dbfd09)" style="stroke: #000000; stroke-linejoin: miter"/>
   </g>
   <g id="patch_12">
    <path d="M 403.2604 242.556735 
L 403.2604 257.190142 
L 403.343205 257.190142 
L 403.343205 242.556735 
L 403.2604 242.556735 
" clip-path="url(#pac44dbfd09)" style="stroke: #000000; stroke-linejoin: miter"/>
   </g>
   <g id="patch_13">
    <path d="M 409.056767 242.306285 
L 409.056767 257.190142 
L 409.139573 257.190142 
L 409.139573 242.306285 
L 409.056767 242.306285 
" clip-path="url(#pac44dbfd09)" style="stroke: #000000; stroke-linejoin: miter"/>
   </g>
   <g id="patch_14">
    <path d="M 405.434038 242.462816 
L 405.434038 257.190142 
L 405.516843 257.190142 
L 405.516843 242.462816 
L 405.434038 242.462816 
" clip-path="url(#pac44dbfd09)" style="stroke: #000000; stroke-linejoin: miter"/>
   </g>
   <g id="patch_15">
    <path d="M 65.000964 243.987875 
L 65.000964 257.190142 
L 65.083769 257.190142 
L 65.083769 243.987875 
L 65.000964 243.987875 
" clip-path="url(#pac44dbfd09)" style="stroke: #000000; stroke-linejoin: miter"/>
   </g>
   <g id="patch_16">
    <path d="M 65.932523 257.132002 
L 65.932523 257.190142 
L 66.015328 257.190142 
L 66.015328 257.132002 
L 65.932523 257.132002 
" clip-path="url(#pac44dbfd09)" style="stroke: #000000; stroke-linejoin: miter"/>
   </g>
   <g id="patch_17">
    <path d="M 400.155203 242.690904 
L 400.155203 257.190142 
L 400.238008 257.190142 
L 400.238008 242.690904 
L 400.155203 242.690904 
" clip-path="url(#pac44dbfd09)" style="stroke: #000000; stroke-linejoin: miter"/>
   </g>
   <g id="patch_18">
    <path d="M 397.153513 242.820601 
L 397.153513 257.190142 
L 397.236318 257.190142 
L 397.236318 242.820601 
L 397.153513 242.820601 
" clip-path="url(#pac44dbfd09)" style="stroke: #000000; stroke-linejoin: miter"/>
   </g>
   <g id="patch_19">
    <path d="M 401.604295 242.628292 
L 401.604295 257.190142 
L 401.6871 257.190142 
L 401.6871 242.628292 
L 401.604295 242.628292 
" clip-path="url(#pac44dbfd09)" style="stroke: #000000; stroke-linejoin: miter"/>
   </g>
   <g id="patch_20">
    <path d="M 403.674426 242.538845 
L 403.674426 257.190142 
L 403.757231 257.190142 
L 403.757231 242.538845 
L 403.674426 242.538845 
" clip-path="url(#pac44dbfd09)" style="stroke: #000000; stroke-linejoin: miter"/>
   </g>
   <g id="patch_21">
    <path d="M 408.642741 242.324174 
L 408.642741 257.190142 
L 408.725546 257.190142 
L 408.725546 242.324174 
L 408.642741 242.324174 
" clip-path="url(#pac44dbfd09)" style="stroke: #000000; stroke-linejoin: miter"/>
   </g>
   <g id="patch_22">
    <path d="M 405.951571 227.690767 
L 405.951571 257.190142 
L 406.034376 257.190142 
L 406.034376 227.690767 
L 405.951571 227.690767 
" clip-path="url(#pac44dbfd09)" style="stroke: #000000; stroke-linejoin: miter"/>
   </g>
   <g id="patch_23">
    <path d="M 65.829016 257.082806 
L 65.829016 257.190142 
L 65.911822 257.190142 
L 65.911822 257.082806 
L 65.829016 257.082806 
" clip-path="url(#pac44dbfd09)" style="stroke: #000000; stroke-linejoin: miter"/>
   </g>
   <g id="patch_24">
    <path d="M 404.398972 213.142334 
L 404.398972 257.190142 
L 404.481777 257.190142 
L 404.481777 213.142334 
L 404.398972 213.142334 
" clip-path="url(#pac44dbfd09)" style="stroke: #000000; stroke-linejoin: miter"/>
   </g>
   <g id="patch_25">
    <path d="M 65.72551 256.894969 
L 65.72551 257.190142 
L 65.808315 257.190142 
L 65.808315 256.894969 
L 65.72551 256.894969 
" clip-path="url(#pac44dbfd09)" style="stroke: #000000; stroke-linejoin: miter"/>
   </g>
   <g id="patch_26">
    <path d="M 399.844684 228.2185 
L 399.844684 257.190142 
L 399.927489 257.190142 
L 399.927489 228.2185 
L 399.844684 228.2185 
" clip-path="url(#pac44dbfd09)" style="stroke: #000000; stroke-linejoin: miter"/>
   </g>
   <g id="patch_27">
    <path d="M 65.311484 254.90479 
L 65.311484 257.190142 
L 65.394289 257.190142 
L 65.394289 254.90479 
L 65.311484 254.90479 
" clip-path="url(#pac44dbfd09)" style="stroke: #000000; stroke-linejoin: miter"/>
   </g>
   <g id="patch_28">
    <path d="M 408.021702 227.511875 
L 408.021702 257.190142 
L 408.104507 257.190142 
L 408.104507 227.511875 
L 408.021702 227.511875 
" clip-path="url(#pac44dbfd09)" style="stroke: #000000; stroke-linejoin: miter"/>
   </g>
   <g id="patch_29">
    <path d="M 408.849754 242.31523 
L 408.849754 257.190142 
L 408.932559 257.190142 
L 408.932559 242.31523 
L 408.849754 242.31523 
" clip-path="url(#pac44dbfd09)" style="stroke: #000000; stroke-linejoin: miter"/>
   </g>
   <g id="patch_30">
    <path d="M 406.779623 242.404676 
L 406.779623 257.190142 
L 406.862428 257.190142 
L 406.862428 242.404676 
L 406.779623 242.404676 
" clip-path="url(#pac44dbfd09)" style="stroke: #000000; stroke-linejoin: miter"/>
   </g>
   <g id="patch_31">
    <path d="M 401.293775 228.093275 
L 401.293775 257.190142 
L 401.376581 257.190142 
L 401.376581 228.093275 
L 401.293775 228.093275 
" clip-path="url(#pac44dbfd09)" style="stroke: #000000; stroke-linejoin: miter"/>
   </g>
   <g id="patch_32">
    <path d="M 402.535854 242.588041 
L 402.535854 257.190142 
L 402.618659 257.190142 
L 402.618659 242.588041 
L 402.535854 242.588041 
" clip-path="url(#pac44dbfd09)" style="stroke: #000000; stroke-linejoin: miter"/>
   </g>
   <g id="patch_33">
    <path d="M 64.793951 190.534793 
L 64.793951 257.190142 
L 64.876756 257.190142 
L 64.876756 190.534793 
L 64.793951 190.534793 
" clip-path="url(#pac44dbfd09)" style="stroke: #000000; stroke-linejoin: miter"/>
   </g>
   <g id="patch_34">
    <path d="M 404.191959 198.49551 
L 404.191959 257.190142 
L 404.274764 257.190142 
L 404.274764 198.49551 
L 404.191959 198.49551 
" clip-path="url(#pac44dbfd09)" style="stroke: #000000; stroke-linejoin: miter"/>
   </g>
   <g id="patch_35">
    <path d="M 65.622003 256.832357 
L 65.622003 257.190142 
L 65.704808 257.190142 
L 65.704808 256.832357 
L 65.622003 256.832357 
" clip-path="url(#pac44dbfd09)" style="stroke: #000000; stroke-linejoin: miter"/>
   </g>
   <g id="patch_36">
    <path d="M 404.502479 198.441842 
L 404.502479 257.190142 
L 404.585284 257.190142 
L 404.585284 198.441842 
L 404.502479 198.441842 
" clip-path="url(#pac44dbfd09)" style="stroke: #000000; stroke-linejoin: miter"/>
   </g>
   <g id="patch_37">
    <path d="M 409.367287 242.292868 
L 409.367287 257.190142 
L 409.450092 257.190142 
L 409.450092 242.292868 
L 409.367287 242.292868 
" clip-path="url(#pac44dbfd09)" style="stroke: #000000; stroke-linejoin: miter"/>
   </g>
   <g id="patch_38">
    <path d="M 406.26209 242.427037 
L 406.26209 257.190142 
L 406.344895 257.190142 
L 406.344895 242.427037 
L 406.26209 242.427037 
" clip-path="url(#pac44dbfd09)" style="stroke: #000000; stroke-linejoin: miter"/>
   </g>
   <g id="patch_39">
    <path d="M 405.641051 227.717601 
L 405.641051 257.190142 
L 405.723856 257.190142 
L 405.723856 227.717601 
L 405.641051 227.717601 
" clip-path="url(#pac44dbfd09)" style="stroke: #000000; stroke-linejoin: miter"/>
   </g>
   <g id="patch_40">
    <path d="M 401.707802 242.623819 
L 401.707802 257.190142 
L 401.790607 257.190142 
L 401.790607 242.623819 
L 401.707802 242.623819 
" clip-path="url(#pac44dbfd09)" style="stroke: #000000; stroke-linejoin: miter"/>
   </g>
   <g id="patch_41">
    <path d="M 408.746248 242.319702 
L 408.746248 257.190142 
L 408.829053 257.190142 
L 408.829053 242.319702 
L 408.746248 242.319702 
" clip-path="url(#pac44dbfd09)" style="stroke: #000000; stroke-linejoin: miter"/>
   </g>
   <g id="patch_42">
    <path d="M 408.435728 242.333119 
L 408.435728 257.190142 
L 408.518533 257.190142 
L 408.518533 242.333119 
L 408.435728 242.333119 
" clip-path="url(#pac44dbfd09)" style="stroke: #000000; stroke-linejoin: miter"/>
   </g>
   <g id="patch_43">
    <path d="M 397.671046 242.798239 
L 397.671046 257.190142 
L 397.753851 257.190142 
L 397.753851 242.798239 
L 397.671046 242.798239 
" clip-path="url(#pac44dbfd09)" style="stroke: #000000; stroke-linejoin: miter"/>
   </g>
   <g id="patch_44">
    <path d="M 402.225334 213.42409 
L 402.225334 257.190142 
L 402.30814 257.190142 
L 402.30814 213.42409 
L 402.225334 213.42409 
" clip-path="url(#pac44dbfd09)" style="stroke: #000000; stroke-linejoin: miter"/>
   </g>
   <g id="patch_45">
    <path d="M 409.470794 242.288396 
L 409.470794 257.190142 
L 409.553599 257.190142 
L 409.553599 242.288396 
L 409.470794 242.288396 
" clip-path="url(#pac44dbfd09)" style="stroke: #000000; stroke-linejoin: miter"/>
   </g>
   <g id="patch_46">
    <path d="M 400.776243 242.66407 
L 400.776243 257.190142 
L 400.859048 257.190142 
L 400.859048 242.66407 
L 400.776243 242.66407 
" clip-path="url(#pac44dbfd09)" style="stroke: #000000; stroke-linejoin: miter"/>
   </g>
   <g id="patch_47">
    <path d="M 405.330531 242.467288 
L 405.330531 257.190142 
L 405.413336 257.190142 
L 405.413336 242.467288 
L 405.330531 242.467288 
" clip-path="url(#pac44dbfd09)" style="stroke: #000000; stroke-linejoin: miter"/>
   </g>
   <g id="patch_48">
    <path d="M 399.327151 242.726682 
L 399.327151 257.190142 
L 399.409956 257.190142 
L 399.409956 242.726682 
L 399.327151 242.726682 
" clip-path="url(#pac44dbfd09)" style="stroke: #000000; stroke-linejoin: miter"/>
   </g>
   <g id="patch_49">
    <path d="M 403.57092 169.309197 
L 403.57092 257.190142 
L 403.653725 257.190142 
L 403.653725 169.309197 
L 403.57092 169.309197 
" clip-path="url(#pac44dbfd09)" style="stroke: #000000; stroke-linejoin: miter"/>
   </g>
   <g id="patch_50">
    <path d="M 66.553562 257.105168 
L 66.553562 257.190142 
L 66.636368 257.190142 
L 66.636368 257.105168 
L 66.553562 257.105168 
" clip-path="url(#pac44dbfd09)" style="stroke: #000000; stroke-linejoin: miter"/>
   </g>
   <g id="patch_51">
    <path d="M 404.812998 227.789158 
L 404.812998 257.190142 
L 404.895804 257.190142 
L 404.895804 227.789158 
L 404.812998 227.789158 
" clip-path="url(#pac44dbfd09)" style="stroke: #000000; stroke-linejoin: miter"/>
   </g>
   <g id="patch_52">
    <path d="M 402.846374 242.574624 
L 402.846374 257.190142 
L 402.929179 257.190142 
L 402.929179 242.574624 
L 402.846374 242.574624 
" clip-path="url(#pac44dbfd09)" style="stroke: #000000; stroke-linejoin: miter"/>
   </g>
   <g id="patch_53">
    <path d="M 65.518497 256.385125 
L 65.518497 257.190142 
L 65.601302 257.190142 
L 65.601302 256.385125 
L 65.518497 256.385125 
" clip-path="url(#pac44dbfd09)" style="stroke: #000000; stroke-linejoin: miter"/>
   </g>
   <g id="patch_54">
    <path d="M 406.57261 242.413621 
L 406.57261 257.190142 
L 406.655415 257.190142 
L 406.655415 242.413621 
L 406.57261 242.413621 
" clip-path="url(#pac44dbfd09)" style="stroke: #000000; stroke-linejoin: miter"/>
   </g>
   <g id="patch_55">
    <path d="M 406.469103 227.646044 
L 406.469103 257.190142 
L 406.551909 257.190142 
L 406.551909 227.646044 
L 406.469103 227.646044 
" clip-path="url(#pac44dbfd09)" style="stroke: #000000; stroke-linejoin: miter"/>
   </g>
   <g id="patch_56">
    <path d="M 402.94988 227.950161 
L 402.94988 257.190142 
L 403.032686 257.190142 
L 403.032686 227.950161 
L 402.94988 227.950161 
" clip-path="url(#pac44dbfd09)" style="stroke: #000000; stroke-linejoin: miter"/>
   </g>
   <g id="patch_57">
    <path d="M 401.914815 228.039608 
L 401.914815 257.190142 
L 401.99762 257.190142 
L 401.99762 228.039608 
L 401.914815 228.039608 
" clip-path="url(#pac44dbfd09)" style="stroke: #000000; stroke-linejoin: miter"/>
   </g>
   <g id="patch_58">
    <path d="M 406.158584 198.155614 
L 406.158584 257.190142 
L 406.241389 257.190142 
L 406.241389 198.155614 
L 406.158584 198.155614 
" clip-path="url(#pac44dbfd09)" style="stroke: #000000; stroke-linejoin: miter"/>
   </g>
   <g id="patch_59">
    <path d="M 403.053387 242.565679 
L 403.053387 257.190142 
L 403.136192 257.190142 
L 403.136192 242.565679 
L 403.053387 242.565679 
" clip-path="url(#pac44dbfd09)" style="stroke: #000000; stroke-linejoin: miter"/>
   </g>
   <g id="patch_60">
    <path d="M 406.986636 242.395731 
L 406.986636 257.190142 
L 407.069441 257.190142 
L 407.069441 242.395731 
L 406.986636 242.395731 
" clip-path="url(#pac44dbfd09)" style="stroke: #000000; stroke-linejoin: miter"/>
   </g>
   <g id="patch_61">
    <path d="M 402.639361 242.583568 
L 402.639361 257.190142 
L 402.722166 257.190142 
L 402.722166 242.583568 
L 402.639361 242.583568 
" clip-path="url(#pac44dbfd09)" style="stroke: #000000; stroke-linejoin: miter"/>
   </g>
   <g id="patch_62">
    <path d="M 403.363907 227.914383 
L 403.363907 257.190142 
L 403.446712 257.190142 
L 403.446712 227.914383 
L 403.363907 227.914383 
" clip-path="url(#pac44dbfd09)" style="stroke: #000000; stroke-linejoin: miter"/>
   </g>
   <g id="patch_63">
    <path d="M 405.123518 198.334507 
L 405.123518 257.190142 
L 405.206323 257.190142 
L 405.206323 198.334507 
L 405.123518 198.334507 
" clip-path="url(#pac44dbfd09)" style="stroke: #000000; stroke-linejoin: miter"/>
   </g>
   <g id="patch_64">
    <path d="M 407.297156 242.382314 
L 407.297156 257.190142 
L 407.379961 257.190142 
L 407.379961 242.382314 
L 407.297156 242.382314 
" clip-path="url(#pac44dbfd09)" style="stroke: #000000; stroke-linejoin: miter"/>
   </g>
   <g id="patch_65">
    <path d="M 65.41499 255.401217 
L 65.41499 257.190142 
L 65.497795 257.190142 
L 65.497795 255.401217 
L 65.41499 255.401217 
" clip-path="url(#pac44dbfd09)" style="stroke: #000000; stroke-linejoin: miter"/>
   </g>
   <g id="patch_66">
    <path d="M 405.020011 242.480705 
L 405.020011 257.190142 
L 405.102817 257.190142 
L 405.102817 242.480705 
L 405.020011 242.480705 
" clip-path="url(#pac44dbfd09)" style="stroke: #000000; stroke-linejoin: miter"/>
   </g>
   <g id="patch_67">
    <path d="M 64.690444 16.637858 
L 64.690444 257.190142 
L 64.773249 257.190142 
L 64.773249 16.637858 
L 64.690444 16.637858 
" clip-path="url(#pac44dbfd09)" style="stroke: #000000; stroke-linejoin: miter"/>
   </g>
   <g id="patch_68">
    <path d="M 401.500788 228.075386 
L 401.500788 257.190142 
L 401.583594 257.190142 
L 401.583594 228.075386 
L 401.500788 228.075386 
" clip-path="url(#pac44dbfd09)" style="stroke: #000000; stroke-linejoin: miter"/>
   </g>
   <g id="patch_69">
    <path d="M 64.897457 230.181845 
L 64.897457 257.190142 
L 64.980263 257.190142 
L 64.980263 230.181845 
L 64.897457 230.181845 
" clip-path="url(#pac44dbfd09)" style="stroke: #000000; stroke-linejoin: miter"/>
   </g>
   <g id="patch_70">
    <path d="M 402.432347 242.592513 
L 402.432347 257.190142 
L 402.515153 257.190142 
L 402.515153 242.592513 
L 402.432347 242.592513 
" clip-path="url(#pac44dbfd09)" style="stroke: #000000; stroke-linejoin: miter"/>
   </g>
   <g id="patch_71">
    <path d="M 401.397282 242.637236 
L 401.397282 257.190142 
L 401.480087 257.190142 
L 401.480087 242.637236 
L 401.397282 242.637236 
" clip-path="url(#pac44dbfd09)" style="stroke: #000000; stroke-linejoin: miter"/>
   </g>
   <g id="patch_72">
    <path d="M 404.295466 213.155751 
L 404.295466 257.190142 
L 404.378271 257.190142 
L 404.378271 213.155751 
L 404.295466 213.155751 
" clip-path="url(#pac44dbfd09)" style="stroke: #000000; stroke-linejoin: miter"/>
   </g>
   <g id="patch_73">
    <path d="M 66.139536 257.055972 
L 66.139536 257.190142 
L 66.222341 257.190142 
L 66.222341 257.055972 
L 66.139536 257.055972 
" clip-path="url(#pac44dbfd09)" style="stroke: #000000; stroke-linejoin: miter"/>
   </g>
   <g id="patch_74">
    <path d="M 400.465723 228.164832 
L 400.465723 257.190142 
L 400.548528 257.190142 
L 400.548528 228.164832 
L 400.465723 228.164832 
" clip-path="url(#pac44dbfd09)" style="stroke: #000000; stroke-linejoin: miter"/>
   </g>
   <g id="patch_75">
    <path d="M 400.569229 228.155888 
L 400.569229 257.190142 
L 400.652035 257.190142 
L 400.652035 228.155888 
L 400.569229 228.155888 
" clip-path="url(#pac44dbfd09)" style="stroke: #000000; stroke-linejoin: miter"/>
   </g>
   <g id="patch_76">
    <path d="M 400.983256 213.585093 
L 400.983256 257.190142 
L 401.066061 257.190142 
L 401.066061 213.585093 
L 400.983256 213.585093 
" clip-path="url(#pac44dbfd09)" style="stroke: #000000; stroke-linejoin: miter"/>
   </g>
   <g id="PathCollection_1">
    <defs>
     <path id="m82f82881f6" d="M 0 0 
C 0 0 0 0 0 0 
C 0 0 0 0 0 0 
C 0 0 0 0 0 0 
C 0 0 0 0 0 0 
C 0 0 0 0 0 0 
C 0 0 0 0 0 0 
C 0 0 0 0 0 0 
C 0 0 0 0 0 0 
z
" style="stroke: #000000; stroke-opacity: 0"/>
    </defs>
    <g clip-path="url(#pac44dbfd09)">
     <use xlink:href="#m82f82881f6" x="65.145873" y="249.207064" style="fill-opacity: 0; stroke: #000000; stroke-opacity: 0"/>
     <use xlink:href="#m82f82881f6" x="404.647388" y="227.807047" style="fill-opacity: 0; stroke: #000000; stroke-opacity: 0"/>
     <use xlink:href="#m82f82881f6" x="399.47206" y="242.72221" style="fill-opacity: 0; stroke: #000000; stroke-opacity: 0"/>
     <use xlink:href="#m82f82881f6" x="403.922842" y="227.86966" style="fill-opacity: 0; stroke: #000000; stroke-opacity: 0"/>
     <use xlink:href="#m82f82881f6" x="408.270117" y="242.342064" style="fill-opacity: 0; stroke: #000000; stroke-opacity: 0"/>
     <use xlink:href="#m82f82881f6" x="65.24938" y="253.191894" style="fill-opacity: 0; stroke: #000000; stroke-opacity: 0"/>
     <use xlink:href="#m82f82881f6" x="405.78596" y="227.708656" style="fill-opacity: 0; stroke: #000000; stroke-opacity: 0"/>
     <use xlink:href="#m82f82881f6" x="406.924532" y="242.400204" style="fill-opacity: 0; stroke: #000000; stroke-opacity: 0"/>
     <use xlink:href="#m82f82881f6" x="402.059724" y="242.610402" style="fill-opacity: 0; stroke: #000000; stroke-opacity: 0"/>
     <use xlink:href="#m82f82881f6" x="403.301803" y="242.556735" style="fill-opacity: 0; stroke: #000000; stroke-opacity: 0"/>
     <use xlink:href="#m82f82881f6" x="409.09817" y="242.306285" style="fill-opacity: 0; stroke: #000000; stroke-opacity: 0"/>
     <use xlink:href="#m82f82881f6" x="405.47544" y="242.462816" style="fill-opacity: 0; stroke: #000000; stroke-opacity: 0"/>
     <use xlink:href="#m82f82881f6" x="65.042366" y="243.987875" style="fill-opacity: 0; stroke: #000000; stroke-opacity: 0"/>
     <use xlink:href="#m82f82881f6" x="65.973926" y="257.132002" style="fill-opacity: 0; stroke: #000000; stroke-opacity: 0"/>
     <use xlink:href="#m82f82881f6" x="400.196606" y="242.690904" style="fill-opacity: 0; stroke: #000000; stroke-opacity: 0"/>
     <use xlink:href="#m82f82881f6" x="397.194916" y="242.820601" style="fill-opacity: 0; stroke: #000000; stroke-opacity: 0"/>
     <use xlink:href="#m82f82881f6" x="401.645698" y="242.628292" style="fill-opacity: 0; stroke: #000000; stroke-opacity: 0"/>
     <use xlink:href="#m82f82881f6" x="403.715829" y="242.538845" style="fill-opacity: 0; stroke: #000000; stroke-opacity: 0"/>
     <use xlink:href="#m82f82881f6" x="408.684144" y="242.324174" style="fill-opacity: 0; stroke: #000000; stroke-opacity: 0"/>
     <use xlink:href="#m82f82881f6" x="405.992973" y="227.690767" style="fill-opacity: 0; stroke: #000000; stroke-opacity: 0"/>
     <use xlink:href="#m82f82881f6" x="65.870419" y="257.082806" style="fill-opacity: 0; stroke: #000000; stroke-opacity: 0"/>
     <use xlink:href="#m82f82881f6" x="404.440375" y="213.142334" style="fill-opacity: 0; stroke: #000000; stroke-opacity: 0"/>
     <use xlink:href="#m82f82881f6" x="65.766912" y="256.894969" style="fill-opacity: 0; stroke: #000000; stroke-opacity: 0"/>
     <use xlink:href="#m82f82881f6" x="399.886086" y="228.2185" style="fill-opacity: 0; stroke: #000000; stroke-opacity: 0"/>
     <use xlink:href="#m82f82881f6" x="65.352886" y="254.90479" style="fill-opacity: 0; stroke: #000000; stroke-opacity: 0"/>
     <use xlink:href="#m82f82881f6" x="408.063104" y="227.511875" style="fill-opacity: 0; stroke: #000000; stroke-opacity: 0"/>
     <use xlink:href="#m82f82881f6" x="408.891157" y="242.31523" style="fill-opacity: 0; stroke: #000000; stroke-opacity: 0"/>
     <use xlink:href="#m82f82881f6" x="406.821026" y="242.404676" style="fill-opacity: 0; stroke: #000000; stroke-opacity: 0"/>
     <use xlink:href="#m82f82881f6" x="401.335178" y="228.093275" style="fill-opacity: 0; stroke: #000000; stroke-opacity: 0"/>
     <use xlink:href="#m82f82881f6" x="402.577257" y="242.588041" style="fill-opacity: 0; stroke: #000000; stroke-opacity: 0"/>
     <use xlink:href="#m82f82881f6" x="64.835353" y="190.534793" style="fill-opacity: 0; stroke: #000000; stroke-opacity: 0"/>
     <use xlink:href="#m82f82881f6" x="404.233362" y="198.49551" style="fill-opacity: 0; stroke: #000000; stroke-opacity: 0"/>
     <use xlink:href="#m82f82881f6" x="65.663406" y="256.832357" style="fill-opacity: 0; stroke: #000000; stroke-opacity: 0"/>
     <use xlink:href="#m82f82881f6" x="404.543881" y="198.441842" style="fill-opacity: 0; stroke: #000000; stroke-opacity: 0"/>
     <use xlink:href="#m82f82881f6" x="409.40869" y="242.292868" style="fill-opacity: 0; stroke: #000000; stroke-opacity: 0"/>
     <use xlink:href="#m82f82881f6" x="406.303493" y="242.427037" style="fill-opacity: 0; stroke: #000000; stroke-opacity: 0"/>
     <use xlink:href="#m82f82881f6" x="405.682453" y="227.717601" style="fill-opacity: 0; stroke: #000000; stroke-opacity: 0"/>
     <use xlink:href="#m82f82881f6" x="401.749204" y="242.623819" style="fill-opacity: 0; stroke: #000000; stroke-opacity: 0"/>
     <use xlink:href="#m82f82881f6" x="408.78765" y="242.319702" style="fill-opacity: 0; stroke: #000000; stroke-opacity: 0"/>
     <use xlink:href="#m82f82881f6" x="408.477131" y="242.333119" style="fill-opacity: 0; stroke: #000000; stroke-opacity: 0"/>
     <use xlink:href="#m82f82881f6" x="397.712448" y="242.798239" style="fill-opacity: 0; stroke: #000000; stroke-opacity: 0"/>
     <use xlink:href="#m82f82881f6" x="402.266737" y="213.42409" style="fill-opacity: 0; stroke: #000000; stroke-opacity: 0"/>
     <use xlink:href="#m82f82881f6" x="409.512196" y="242.288396" style="fill-opacity: 0; stroke: #000000; stroke-opacity: 0"/>
     <use xlink:href="#m82f82881f6" x="400.817645" y="242.66407" style="fill-opacity: 0; stroke: #000000; stroke-opacity: 0"/>
     <use xlink:href="#m82f82881f6" x="405.371934" y="242.467288" style="fill-opacity: 0; stroke: #000000; stroke-opacity: 0"/>
     <use xlink:href="#m82f82881f6" x="399.368553" y="242.726682" style="fill-opacity: 0; stroke: #000000; stroke-opacity: 0"/>
     <use xlink:href="#m82f82881f6" x="403.612322" y="169.309197" style="fill-opacity: 0; stroke: #000000; stroke-opacity: 0"/>
     <use xlink:href="#m82f82881f6" x="66.594965" y="257.105168" style="fill-opacity: 0; stroke: #000000; stroke-opacity: 0"/>
     <use xlink:href="#m82f82881f6" x="404.854401" y="227.789158" style="fill-opacity: 0; stroke: #000000; stroke-opacity: 0"/>
     <use xlink:href="#m82f82881f6" x="402.887776" y="242.574624" style="fill-opacity: 0; stroke: #000000; stroke-opacity: 0"/>
     <use xlink:href="#m82f82881f6" x="65.559899" y="256.385125" style="fill-opacity: 0; stroke: #000000; stroke-opacity: 0"/>
     <use xlink:href="#m82f82881f6" x="406.614012" y="242.413621" style="fill-opacity: 0; stroke: #000000; stroke-opacity: 0"/>
     <use xlink:href="#m82f82881f6" x="406.510506" y="227.646044" style="fill-opacity: 0; stroke: #000000; stroke-opacity: 0"/>
     <use xlink:href="#m82f82881f6" x="402.991283" y="227.950161" style="fill-opacity: 0; stroke: #000000; stroke-opacity: 0"/>
     <use xlink:href="#m82f82881f6" x="401.956217" y="228.039608" style="fill-opacity: 0; stroke: #000000; stroke-opacity: 0"/>
     <use xlink:href="#m82f82881f6" x="406.199986" y="198.155614" style="fill-opacity: 0; stroke: #000000; stroke-opacity: 0"/>
     <use xlink:href="#m82f82881f6" x="403.094789" y="242.565679" style="fill-opacity: 0; stroke: #000000; stroke-opacity: 0"/>
     <use xlink:href="#m82f82881f6" x="407.028039" y="242.395731" style="fill-opacity: 0; stroke: #000000; stroke-opacity: 0"/>
     <use xlink:href="#m82f82881f6" x="402.680763" y="242.583568" style="fill-opacity: 0; stroke: #000000; stroke-opacity: 0"/>
     <use xlink:href="#m82f82881f6" x="403.405309" y="227.914383" style="fill-opacity: 0; stroke: #000000; stroke-opacity: 0"/>
     <use xlink:href="#m82f82881f6" x="405.164921" y="198.334507" style="fill-opacity: 0; stroke: #000000; stroke-opacity: 0"/>
     <use xlink:href="#m82f82881f6" x="407.338558" y="242.382314" style="fill-opacity: 0; stroke: #000000; stroke-opacity: 0"/>
     <use xlink:href="#m82f82881f6" x="65.456393" y="255.401217" style="fill-opacity: 0; stroke: #000000; stroke-opacity: 0"/>
     <use xlink:href="#m82f82881f6" x="405.061414" y="242.480705" style="fill-opacity: 0; stroke: #000000; stroke-opacity: 0"/>
     <use xlink:href="#m82f82881f6" x="64.731847" y="16.637858" style="fill-opacity: 0; stroke: #000000; stroke-opacity: 0"/>
     <use xlink:href="#m82f82881f6" x="401.542191" y="228.075386" style="fill-opacity: 0; stroke: #000000; stroke-opacity: 0"/>
     <use xlink:href="#m82f82881f6" x="64.93886" y="230.181845" style="fill-opacity: 0; stroke: #000000; stroke-opacity: 0"/>
     <use xlink:href="#m82f82881f6" x="402.47375" y="242.592513" style="fill-opacity: 0; stroke: #000000; stroke-opacity: 0"/>
     <use xlink:href="#m82f82881f6" x="401.438685" y="242.637236" style="fill-opacity: 0; stroke: #000000; stroke-opacity: 0"/>
     <use xlink:href="#m82f82881f6" x="404.336868" y="213.155751" style="fill-opacity: 0; stroke: #000000; stroke-opacity: 0"/>
     <use xlink:href="#m82f82881f6" x="66.180939" y="257.055972" style="fill-opacity: 0; stroke: #000000; stroke-opacity: 0"/>
     <use xlink:href="#m82f82881f6" x="400.507125" y="228.164832" style="fill-opacity: 0; stroke: #000000; stroke-opacity: 0"/>
     <use xlink:href="#m82f82881f6" x="400.610632" y="228.155888" style="fill-opacity: 0; stroke: #000000; stroke-opacity: 0"/>
     <use xlink:href="#m82f82881f6" x="401.024658" y="213.585093" style="fill-opacity: 0; stroke: #000000; stroke-opacity: 0"/>
    </g>
   </g>
   <g id="matplotlib.axis_1">
    <g id="xtick_1">
     <g id="line2d_1">
      <defs>
       <path id="m523e07dcc4" d="M 0 0 
L 0 -2.5 
" style="stroke: #000000; stroke-width: 0.5"/>
      </defs>
      <g>
       <use xlink:href="#m523e07dcc4" x="64.62834" y="257.190142" style="stroke: #000000; stroke-width: 0.5"/>
      </g>
     </g>
     <g id="line2d_2">
      <defs>
       <path id="m5a085af466" d="M 0 0 
L 0 2.5 
" style="stroke: #000000; stroke-width: 0.5"/>
      </defs>
      <g>
       <use xlink:href="#m5a085af466" x="64.62834" y="16.637858" style="stroke: #000000; stroke-width: 0.5"/>
      </g>
     </g>
     <g id="text_1">
      <!-- $0$ -->
      <g transform="translate(61.42834 268.288579) scale(0.1 -0.1)">
       <defs>
        <path id="DejaVuSerif-30" d="M 2034 219 
Q 2513 219 2750 744 
Q 2988 1269 2988 2328 
Q 2988 3391 2750 3916 
Q 2513 4441 2034 4441 
Q 1556 4441 1318 3916 
Q 1081 3391 1081 2328 
Q 1081 1269 1318 744 
Q 1556 219 2034 219 
z
M 2034 -91 
Q 1275 -91 848 546 
Q 422 1184 422 2328 
Q 422 3475 848 4112 
Q 1275 4750 2034 4750 
Q 2797 4750 3222 4112 
Q 3647 3475 3647 2328 
Q 3647 1184 3222 546 
Q 2797 -91 2034 -91 
z
" transform="scale(0.015625)"/>
       </defs>
       <use xlink:href="#DejaVuSerif-30" transform="translate(0 0.78125)"/>
      </g>
     </g>
    </g>
    <g id="xtick_2">
     <g id="line2d_3">
      <g>
       <use xlink:href="#m523e07dcc4" x="168.1349" y="257.190142" style="stroke: #000000; stroke-width: 0.5"/>
      </g>
     </g>
     <g id="line2d_4">
      <g>
       <use xlink:href="#m5a085af466" x="168.1349" y="16.637858" style="stroke: #000000; stroke-width: 0.5"/>
      </g>
     </g>
     <g id="text_2">
      <!-- $1000$ -->
      <g transform="translate(155.3849 268.288579) scale(0.1 -0.1)">
       <defs>
        <path id="DejaVuSerif-31" d="M 909 0 
L 909 331 
L 1722 331 
L 1722 4213 
L 781 3603 
L 781 4013 
L 1919 4750 
L 2350 4750 
L 2350 331 
L 3163 331 
L 3163 0 
L 909 0 
z
" transform="scale(0.015625)"/>
       </defs>
       <use xlink:href="#DejaVuSerif-31" transform="translate(0 0.78125)"/>
       <use xlink:href="#DejaVuSerif-30" transform="translate(63.623047 0.78125)"/>
       <use xlink:href="#DejaVuSerif-30" transform="translate(127.246094 0.78125)"/>
       <use xlink:href="#DejaVuSerif-30" transform="translate(190.869141 0.78125)"/>
      </g>
     </g>
    </g>
    <g id="xtick_3">
     <g id="line2d_5">
      <g>
       <use xlink:href="#m523e07dcc4" x="271.641459" y="257.190142" style="stroke: #000000; stroke-width: 0.5"/>
      </g>
     </g>
     <g id="line2d_6">
      <g>
       <use xlink:href="#m5a085af466" x="271.641459" y="16.637858" style="stroke: #000000; stroke-width: 0.5"/>
      </g>
     </g>
     <g id="text_3">
      <!-- $2000$ -->
      <g transform="translate(258.891459 268.288579) scale(0.1 -0.1)">
       <defs>
        <path id="DejaVuSerif-32" d="M 819 3553 
L 469 3553 
L 469 4384 
Q 803 4563 1142 4656 
Q 1481 4750 1806 4750 
Q 2534 4750 2956 4397 
Q 3378 4044 3378 3438 
Q 3378 2753 2422 1800 
Q 2347 1728 2309 1691 
L 1131 513 
L 3078 513 
L 3078 1088 
L 3444 1088 
L 3444 0 
L 434 0 
L 434 341 
L 1850 1753 
Q 2319 2222 2519 2614 
Q 2719 3006 2719 3438 
Q 2719 3909 2473 4175 
Q 2228 4441 1797 4441 
Q 1350 4441 1106 4219 
Q 863 3997 819 3553 
z
" transform="scale(0.015625)"/>
       </defs>
       <use xlink:href="#DejaVuSerif-32" transform="translate(0 0.78125)"/>
       <use xlink:href="#DejaVuSerif-30" transform="translate(63.623047 0.78125)"/>
       <use xlink:href="#DejaVuSerif-30" transform="translate(127.246094 0.78125)"/>
       <use xlink:href="#DejaVuSerif-30" transform="translate(190.869141 0.78125)"/>
      </g>
     </g>
    </g>
    <g id="xtick_4">
     <g id="line2d_7">
      <g>
       <use xlink:href="#m523e07dcc4" x="375.148018" y="257.190142" style="stroke: #000000; stroke-width: 0.5"/>
      </g>
     </g>
     <g id="line2d_8">
      <g>
       <use xlink:href="#m5a085af466" x="375.148018" y="16.637858" style="stroke: #000000; stroke-width: 0.5"/>
      </g>
     </g>
     <g id="text_4">
      <!-- $3000$ -->
      <g transform="translate(362.398018 268.288579) scale(0.1 -0.1)">
       <defs>
        <path id="DejaVuSerif-33" d="M 622 4469 
Q 988 4606 1323 4678 
Q 1659 4750 1953 4750 
Q 2638 4750 3022 4454 
Q 3406 4159 3406 3634 
Q 3406 3213 3140 2930 
Q 2875 2647 2388 2547 
Q 2963 2466 3280 2130 
Q 3597 1794 3597 1259 
Q 3597 606 3158 257 
Q 2719 -91 1894 -91 
Q 1528 -91 1179 -12 
Q 831 66 488 225 
L 488 1131 
L 838 1131 
Q 869 681 1141 450 
Q 1413 219 1906 219 
Q 2384 219 2661 495 
Q 2938 772 2938 1253 
Q 2938 1803 2653 2086 
Q 2369 2369 1819 2369 
L 1522 2369 
L 1522 2688 
L 1678 2688 
Q 2225 2688 2498 2914 
Q 2772 3141 2772 3597 
Q 2772 4006 2547 4223 
Q 2322 4441 1900 4441 
Q 1478 4441 1245 4241 
Q 1013 4041 972 3647 
L 622 3647 
L 622 4469 
z
" transform="scale(0.015625)"/>
       </defs>
       <use xlink:href="#DejaVuSerif-33" transform="translate(0 0.78125)"/>
       <use xlink:href="#DejaVuSerif-30" transform="translate(63.623047 0.78125)"/>
       <use xlink:href="#DejaVuSerif-30" transform="translate(127.246094 0.78125)"/>
       <use xlink:href="#DejaVuSerif-30" transform="translate(190.869141 0.78125)"/>
      </g>
     </g>
    </g>
    <g id="text_5">
     <!-- |C(v)| -->
     <g transform="translate(220.416709 283.538892) scale(0.12 -0.12)">
      <defs>
       <path id="DejaVuSerif-7c" d="M 1331 4891 
L 1331 -1509 
L 825 -1509 
L 825 4891 
L 1331 4891 
z
" transform="scale(0.015625)"/>
       <path id="DejaVuSerif-43" d="M 4513 1234 
Q 4306 581 3820 245 
Q 3334 -91 2591 -91 
Q 2134 -91 1743 65 
Q 1353 222 1050 525 
Q 700 875 529 1320 
Q 359 1766 359 2328 
Q 359 3416 987 4083 
Q 1616 4750 2644 4750 
Q 3025 4750 3456 4650 
Q 3888 4550 4384 4347 
L 4384 3272 
L 4031 3272 
Q 3916 3859 3567 4137 
Q 3219 4416 2591 4416 
Q 1844 4416 1459 3886 
Q 1075 3356 1075 2328 
Q 1075 1303 1459 773 
Q 1844 244 2591 244 
Q 3113 244 3450 492 
Q 3788 741 3938 1234 
L 4513 1234 
z
" transform="scale(0.015625)"/>
       <path id="DejaVuSerif-28" d="M 2041 -997 
Q 1281 -656 893 83 
Q 506 822 506 1931 
Q 506 3044 893 3783 
Q 1281 4522 2041 4863 
L 2041 4556 
Q 1559 4225 1350 3623 
Q 1141 3022 1141 1931 
Q 1141 844 1350 242 
Q 1559 -359 2041 -691 
L 2041 -997 
z
" transform="scale(0.015625)"/>
       <path id="DejaVuSerif-76" d="M 1581 0 
L 359 2988 
L -19 2988 
L -19 3322 
L 1509 3322 
L 1509 2988 
L 978 2988 
L 1913 703 
L 2847 2988 
L 2350 2988 
L 2350 3322 
L 3597 3322 
L 3597 2988 
L 3225 2988 
L 2003 0 
L 1581 0 
z
" transform="scale(0.015625)"/>
       <path id="DejaVuSerif-29" d="M 453 -997 
L 453 -691 
Q 934 -359 1145 242 
Q 1356 844 1356 1931 
Q 1356 3022 1145 3623 
Q 934 4225 453 4556 
L 453 4863 
Q 1216 4522 1603 3783 
Q 1991 3044 1991 1931 
Q 1991 822 1603 83 
Q 1216 -656 453 -997 
z
" transform="scale(0.015625)"/>
      </defs>
      <use xlink:href="#DejaVuSerif-7c"/>
      <use xlink:href="#DejaVuSerif-43" x="33.691406"/>
      <use xlink:href="#DejaVuSerif-28" x="110.205078"/>
      <use xlink:href="#DejaVuSerif-76" x="149.21875"/>
      <use xlink:href="#DejaVuSerif-29" x="205.712891"/>
      <use xlink:href="#DejaVuSerif-7c" x="244.726562"/>
     </g>
    </g>
   </g>
   <g id="matplotlib.axis_2">
    <g id="ytick_1">
     <g id="line2d_9">
      <defs>
       <path id="m7f33217fd4" d="M 0 0 
L 2.5 0 
" style="stroke: #000000; stroke-width: 0.5"/>
      </defs>
      <g>
       <use xlink:href="#m7f33217fd4" x="43.377901" y="257.190142" style="stroke: #000000; stroke-width: 0.5"/>
      </g>
     </g>
     <g id="line2d_10">
      <defs>
       <path id="mc47266464c" d="M 0 0 
L -2.5 0 
" style="stroke: #000000; stroke-width: 0.5"/>
      </defs>
      <g>
       <use xlink:href="#mc47266464c" x="430.866142" y="257.190142" style="stroke: #000000; stroke-width: 0.5"/>
      </g>
     </g>
     <g id="text_6">
      <!-- $0.00$ -->
      <g transform="translate(17.577901 260.98936) scale(0.1 -0.1)">
       <defs>
        <path id="DejaVuSerif-2e" d="M 603 325 
Q 603 500 722 622 
Q 841 744 1019 744 
Q 1191 744 1312 622 
Q 1434 500 1434 325 
Q 1434 153 1312 31 
Q 1191 -91 1019 -91 
Q 841 -91 722 29 
Q 603 150 603 325 
z
" transform="scale(0.015625)"/>
       </defs>
       <use xlink:href="#DejaVuSerif-30" transform="translate(0 0.78125)"/>
       <use xlink:href="#DejaVuSerif-2e" transform="translate(63.623047 0.78125)"/>
       <use xlink:href="#DejaVuSerif-30" transform="translate(95.410156 0.78125)"/>
       <use xlink:href="#DejaVuSerif-30" transform="translate(159.033203 0.78125)"/>
      </g>
     </g>
    </g>
    <g id="ytick_2">
     <g id="line2d_11">
      <g>
       <use xlink:href="#m7f33217fd4" x="43.377901" y="220.552956" style="stroke: #000000; stroke-width: 0.5"/>
      </g>
     </g>
     <g id="line2d_12">
      <g>
       <use xlink:href="#mc47266464c" x="430.866142" y="220.552956" style="stroke: #000000; stroke-width: 0.5"/>
      </g>
     </g>
     <g id="text_7">
      <!-- $0.02$ -->
      <g transform="translate(17.577901 224.352175) scale(0.1 -0.1)">
       <use xlink:href="#DejaVuSerif-30" transform="translate(0 0.78125)"/>
       <use xlink:href="#DejaVuSerif-2e" transform="translate(63.623047 0.78125)"/>
       <use xlink:href="#DejaVuSerif-30" transform="translate(95.410156 0.78125)"/>
       <use xlink:href="#DejaVuSerif-32" transform="translate(159.033203 0.78125)"/>
      </g>
     </g>
    </g>
    <g id="ytick_3">
     <g id="line2d_13">
      <g>
       <use xlink:href="#m7f33217fd4" x="43.377901" y="183.91577" style="stroke: #000000; stroke-width: 0.5"/>
      </g>
     </g>
     <g id="line2d_14">
      <g>
       <use xlink:href="#mc47266464c" x="430.866142" y="183.91577" style="stroke: #000000; stroke-width: 0.5"/>
      </g>
     </g>
     <g id="text_8">
      <!-- $0.04$ -->
      <g transform="translate(17.577901 187.714989) scale(0.1 -0.1)">
       <defs>
        <path id="DejaVuSerif-34" d="M 2234 1581 
L 2234 4063 
L 641 1581 
L 2234 1581 
z
M 3609 0 
L 1484 0 
L 1484 331 
L 2234 331 
L 2234 1247 
L 197 1247 
L 197 1588 
L 2241 4750 
L 2859 4750 
L 2859 1581 
L 3750 1581 
L 3750 1247 
L 2859 1247 
L 2859 331 
L 3609 331 
L 3609 0 
z
" transform="scale(0.015625)"/>
       </defs>
       <use xlink:href="#DejaVuSerif-30" transform="translate(0 0.78125)"/>
       <use xlink:href="#DejaVuSerif-2e" transform="translate(63.623047 0.78125)"/>
       <use xlink:href="#DejaVuSerif-30" transform="translate(95.410156 0.78125)"/>
       <use xlink:href="#DejaVuSerif-34" transform="translate(159.033203 0.78125)"/>
      </g>
     </g>
    </g>
    <g id="ytick_4">
     <g id="line2d_15">
      <g>
       <use xlink:href="#m7f33217fd4" x="43.377901" y="147.278585" style="stroke: #000000; stroke-width: 0.5"/>
      </g>
     </g>
     <g id="line2d_16">
      <g>
       <use xlink:href="#mc47266464c" x="430.866142" y="147.278585" style="stroke: #000000; stroke-width: 0.5"/>
      </g>
     </g>
     <g id="text_9">
      <!-- $0.06$ -->
      <g transform="translate(17.577901 151.077803) scale(0.1 -0.1)">
       <defs>
        <path id="DejaVuSerif-36" d="M 2094 219 
Q 2534 219 2771 542 
Q 3009 866 3009 1472 
Q 3009 2078 2771 2401 
Q 2534 2725 2094 2725 
Q 1647 2725 1412 2412 
Q 1178 2100 1178 1509 
Q 1178 888 1415 553 
Q 1653 219 2094 219 
z
M 1075 2569 
Q 1288 2803 1556 2918 
Q 1825 3034 2163 3034 
Q 2859 3034 3264 2615 
Q 3669 2197 3669 1472 
Q 3669 763 3233 336 
Q 2797 -91 2069 -91 
Q 1278 -91 853 498 
Q 428 1088 428 2181 
Q 428 3406 931 4078 
Q 1434 4750 2350 4750 
Q 2597 4750 2869 4703 
Q 3141 4656 3425 4563 
L 3425 3794 
L 3072 3794 
Q 3034 4109 2831 4275 
Q 2628 4441 2284 4441 
Q 1678 4441 1381 3981 
Q 1084 3522 1075 2569 
z
" transform="scale(0.015625)"/>
       </defs>
       <use xlink:href="#DejaVuSerif-30" transform="translate(0 0.78125)"/>
       <use xlink:href="#DejaVuSerif-2e" transform="translate(63.623047 0.78125)"/>
       <use xlink:href="#DejaVuSerif-30" transform="translate(95.410156 0.78125)"/>
       <use xlink:href="#DejaVuSerif-36" transform="translate(159.033203 0.78125)"/>
      </g>
     </g>
    </g>
    <g id="ytick_5">
     <g id="line2d_17">
      <g>
       <use xlink:href="#m7f33217fd4" x="43.377901" y="110.641399" style="stroke: #000000; stroke-width: 0.5"/>
      </g>
     </g>
     <g id="line2d_18">
      <g>
       <use xlink:href="#mc47266464c" x="430.866142" y="110.641399" style="stroke: #000000; stroke-width: 0.5"/>
      </g>
     </g>
     <g id="text_10">
      <!-- $0.08$ -->
      <g transform="translate(17.577901 114.440618) scale(0.1 -0.1)">
       <defs>
        <path id="DejaVuSerif-38" d="M 2981 1275 
Q 2981 1775 2732 2051 
Q 2484 2328 2034 2328 
Q 1584 2328 1336 2051 
Q 1088 1775 1088 1275 
Q 1088 772 1336 495 
Q 1584 219 2034 219 
Q 2484 219 2732 495 
Q 2981 772 2981 1275 
z
M 2853 3541 
Q 2853 3966 2637 4203 
Q 2422 4441 2034 4441 
Q 1650 4441 1433 4203 
Q 1216 3966 1216 3541 
Q 1216 3113 1433 2875 
Q 1650 2638 2034 2638 
Q 2422 2638 2637 2875 
Q 2853 3113 2853 3541 
z
M 2516 2484 
Q 3047 2413 3344 2092 
Q 3641 1772 3641 1275 
Q 3641 619 3225 264 
Q 2809 -91 2034 -91 
Q 1263 -91 845 264 
Q 428 619 428 1275 
Q 428 1772 725 2092 
Q 1022 2413 1556 2484 
Q 1084 2569 832 2842 
Q 581 3116 581 3541 
Q 581 4103 968 4426 
Q 1356 4750 2034 4750 
Q 2713 4750 3100 4426 
Q 3488 4103 3488 3541 
Q 3488 3116 3236 2842 
Q 2984 2569 2516 2484 
z
" transform="scale(0.015625)"/>
       </defs>
       <use xlink:href="#DejaVuSerif-30" transform="translate(0 0.78125)"/>
       <use xlink:href="#DejaVuSerif-2e" transform="translate(63.623047 0.78125)"/>
       <use xlink:href="#DejaVuSerif-30" transform="translate(95.410156 0.78125)"/>
       <use xlink:href="#DejaVuSerif-38" transform="translate(159.033203 0.78125)"/>
      </g>
     </g>
    </g>
    <g id="ytick_6">
     <g id="line2d_19">
      <g>
       <use xlink:href="#m7f33217fd4" x="43.377901" y="74.004213" style="stroke: #000000; stroke-width: 0.5"/>
      </g>
     </g>
     <g id="line2d_20">
      <g>
       <use xlink:href="#mc47266464c" x="430.866142" y="74.004213" style="stroke: #000000; stroke-width: 0.5"/>
      </g>
     </g>
     <g id="text_11">
      <!-- $0.10$ -->
      <g transform="translate(17.577901 77.803432) scale(0.1 -0.1)">
       <use xlink:href="#DejaVuSerif-30" transform="translate(0 0.78125)"/>
       <use xlink:href="#DejaVuSerif-2e" transform="translate(63.623047 0.78125)"/>
       <use xlink:href="#DejaVuSerif-31" transform="translate(95.410156 0.78125)"/>
       <use xlink:href="#DejaVuSerif-30" transform="translate(159.033203 0.78125)"/>
      </g>
     </g>
    </g>
    <g id="ytick_7">
     <g id="line2d_21">
      <g>
       <use xlink:href="#m7f33217fd4" x="43.377901" y="37.367028" style="stroke: #000000; stroke-width: 0.5"/>
      </g>
     </g>
     <g id="line2d_22">
      <g>
       <use xlink:href="#mc47266464c" x="430.866142" y="37.367028" style="stroke: #000000; stroke-width: 0.5"/>
      </g>
     </g>
     <g id="text_12">
      <!-- $0.12$ -->
      <g transform="translate(17.577901 41.166246) scale(0.1 -0.1)">
       <use xlink:href="#DejaVuSerif-30" transform="translate(0 0.78125)"/>
       <use xlink:href="#DejaVuSerif-2e" transform="translate(63.623047 0.78125)"/>
       <use xlink:href="#DejaVuSerif-31" transform="translate(95.410156 0.78125)"/>
       <use xlink:href="#DejaVuSerif-32" transform="translate(159.033203 0.78125)"/>
      </g>
     </g>
    </g>
    <g id="text_13">
     <!-- P(|C(v)|) -->
     <g transform="translate(10.748526 162.338062) rotate(-90) scale(0.12 -0.12)">
      <defs>
       <path id="DejaVuSerif-50" d="M 1581 2375 
L 2406 2375 
Q 2872 2375 3115 2626 
Q 3359 2878 3359 3353 
Q 3359 3831 3115 4081 
Q 2872 4331 2406 4331 
L 1581 4331 
L 1581 2375 
z
M 353 0 
L 353 331 
L 947 331 
L 947 4331 
L 353 4331 
L 353 4666 
L 2559 4666 
Q 3259 4666 3668 4311 
Q 4078 3956 4078 3353 
Q 4078 2753 3668 2397 
Q 3259 2041 2559 2041 
L 1581 2041 
L 1581 331 
L 2303 331 
L 2303 0 
L 353 0 
z
" transform="scale(0.015625)"/>
      </defs>
      <use xlink:href="#DejaVuSerif-50"/>
      <use xlink:href="#DejaVuSerif-28" x="67.285156"/>
      <use xlink:href="#DejaVuSerif-7c" x="106.298828"/>
      <use xlink:href="#DejaVuSerif-43" x="139.990234"/>
      <use xlink:href="#DejaVuSerif-28" x="216.503906"/>
      <use xlink:href="#DejaVuSerif-76" x="255.517578"/>
      <use xlink:href="#DejaVuSerif-29" x="312.011719"/>
      <use xlink:href="#DejaVuSerif-7c" x="351.025391"/>
      <use xlink:href="#DejaVuSerif-29" x="384.716797"/>
     </g>
    </g>
   </g>
   <g id="line2d_23">
    <path d="M 402.676327 289 
L 402.676327 -1 
" clip-path="url(#pac44dbfd09)" style="fill: none; stroke: #e36f47"/>
   </g>
   <g id="patch_77">
    <path d="M 43.377901 257.190142 
L 43.377901 16.637858 
" style="fill: none; stroke: #000000; stroke-linejoin: miter; stroke-linecap: square"/>
   </g>
   <g id="patch_78">
    <path d="M 430.866142 257.190142 
L 430.866142 16.637858 
" style="fill: none; stroke: #000000; stroke-linejoin: miter; stroke-linecap: square"/>
   </g>
   <g id="patch_79">
    <path d="M 43.377901 257.190142 
L 430.866142 257.190142 
" style="fill: none; stroke: #000000; stroke-linejoin: miter; stroke-linecap: square"/>
   </g>
   <g id="patch_80">
    <path d="M 43.377901 16.637858 
L 430.866142 16.637858 
" style="fill: none; stroke: #000000; stroke-linejoin: miter; stroke-linecap: square"/>
   </g>
   <g id="text_14">
    <!-- Vertex component sizes in random automata -->
    <g transform="translate(101.484521 10.637858) scale(0.12 -0.12)">
     <defs>
      <path id="DejaVuSerif-56" d="M 1119 4331 
L 2497 750 
L 3872 4331 
L 3347 4331 
L 3347 4666 
L 4716 4666 
L 4716 4331 
L 4263 4331 
L 2597 0 
L 2059 0 
L 403 4331 
L -63 4331 
L -63 4666 
L 1638 4666 
L 1638 4331 
L 1119 4331 
z
" transform="scale(0.015625)"/>
      <path id="DejaVuSerif-65" d="M 3469 1600 
L 991 1600 
L 991 1575 
Q 991 903 1244 561 
Q 1497 219 1991 219 
Q 2369 219 2611 417 
Q 2853 616 2950 1006 
L 3413 1006 
Q 3275 459 2904 184 
Q 2534 -91 1931 -91 
Q 1203 -91 761 389 
Q 319 869 319 1663 
Q 319 2450 753 2931 
Q 1188 3413 1894 3413 
Q 2647 3413 3050 2948 
Q 3453 2484 3469 1600 
z
M 2791 1931 
Q 2772 2513 2545 2808 
Q 2319 3103 1894 3103 
Q 1497 3103 1269 2806 
Q 1041 2509 991 1931 
L 2791 1931 
z
" transform="scale(0.015625)"/>
      <path id="DejaVuSerif-72" d="M 3059 3328 
L 3059 2497 
L 2728 2497 
Q 2713 2744 2591 2866 
Q 2469 2988 2234 2988 
Q 1809 2988 1582 2694 
Q 1356 2400 1356 1850 
L 1356 331 
L 2022 331 
L 2022 0 
L 263 0 
L 263 331 
L 781 331 
L 781 2994 
L 231 2994 
L 231 3322 
L 1356 3322 
L 1356 2731 
Q 1525 3078 1790 3245 
Q 2056 3413 2438 3413 
Q 2578 3413 2733 3391 
Q 2888 3369 3059 3328 
z
" transform="scale(0.015625)"/>
      <path id="DejaVuSerif-74" d="M 691 2988 
L 184 2988 
L 184 3322 
L 691 3322 
L 691 4353 
L 1269 4353 
L 1269 3322 
L 2350 3322 
L 2350 2988 
L 1269 2988 
L 1269 878 
Q 1269 456 1350 337 
Q 1431 219 1650 219 
Q 1875 219 1978 351 
Q 2081 484 2088 781 
L 2522 781 
Q 2497 328 2275 118 
Q 2053 -91 1600 -91 
Q 1103 -91 897 129 
Q 691 350 691 878 
L 691 2988 
z
" transform="scale(0.015625)"/>
      <path id="DejaVuSerif-78" d="M 1863 2028 
L 2559 2988 
L 2113 2988 
L 2113 3322 
L 3391 3322 
L 3391 2988 
L 2950 2988 
L 2059 1759 
L 3097 331 
L 3531 331 
L 3531 0 
L 1997 0 
L 1997 331 
L 2419 331 
L 1697 1325 
L 972 331 
L 1403 331 
L 1403 0 
L 141 0 
L 141 331 
L 581 331 
L 1497 1594 
L 488 2988 
L 78 2988 
L 78 3322 
L 1563 3322 
L 1563 2988 
L 1166 2988 
L 1863 2028 
z
" transform="scale(0.015625)"/>
      <path id="DejaVuSerif-20" transform="scale(0.015625)"/>
      <path id="DejaVuSerif-63" d="M 3291 997 
Q 3169 466 2822 187 
Q 2475 -91 1925 -91 
Q 1200 -91 759 389 
Q 319 869 319 1663 
Q 319 2459 759 2936 
Q 1200 3413 1925 3413 
Q 2241 3413 2553 3339 
Q 2866 3266 3181 3116 
L 3181 2266 
L 2847 2266 
Q 2781 2703 2561 2903 
Q 2341 3103 1931 3103 
Q 1466 3103 1228 2742 
Q 991 2381 991 1663 
Q 991 944 1227 581 
Q 1463 219 1931 219 
Q 2303 219 2525 412 
Q 2747 606 2828 997 
L 3291 997 
z
" transform="scale(0.015625)"/>
      <path id="DejaVuSerif-6f" d="M 1925 219 
Q 2388 219 2623 584 
Q 2859 950 2859 1663 
Q 2859 2375 2623 2739 
Q 2388 3103 1925 3103 
Q 1463 3103 1227 2739 
Q 991 2375 991 1663 
Q 991 950 1228 584 
Q 1466 219 1925 219 
z
M 1925 -91 
Q 1200 -91 759 389 
Q 319 869 319 1663 
Q 319 2456 758 2934 
Q 1197 3413 1925 3413 
Q 2653 3413 3092 2934 
Q 3531 2456 3531 1663 
Q 3531 869 3092 389 
Q 2653 -91 1925 -91 
z
" transform="scale(0.015625)"/>
      <path id="DejaVuSerif-6d" d="M 3316 2675 
Q 3481 3041 3739 3227 
Q 3997 3413 4341 3413 
Q 4863 3413 5119 3089 
Q 5375 2766 5375 2113 
L 5375 331 
L 5894 331 
L 5894 0 
L 4300 0 
L 4300 331 
L 4800 331 
L 4800 2047 
Q 4800 2556 4650 2772 
Q 4500 2988 4153 2988 
Q 3769 2988 3567 2697 
Q 3366 2406 3366 1850 
L 3366 331 
L 3866 331 
L 3866 0 
L 2291 0 
L 2291 331 
L 2791 331 
L 2791 2069 
Q 2791 2566 2641 2777 
Q 2491 2988 2144 2988 
Q 1759 2988 1557 2697 
Q 1356 2406 1356 1850 
L 1356 331 
L 1856 331 
L 1856 0 
L 263 0 
L 263 331 
L 781 331 
L 781 2994 
L 231 2994 
L 231 3322 
L 1356 3322 
L 1356 2731 
Q 1516 3063 1762 3238 
Q 2009 3413 2322 3413 
Q 2709 3413 2968 3220 
Q 3228 3028 3316 2675 
z
" transform="scale(0.015625)"/>
      <path id="DejaVuSerif-70" d="M 1313 1825 
L 1313 1497 
Q 1313 897 1542 583 
Q 1772 269 2209 269 
Q 2650 269 2876 622 
Q 3103 975 3103 1663 
Q 3103 2353 2876 2703 
Q 2650 3053 2209 3053 
Q 1772 3053 1542 2737 
Q 1313 2422 1313 1825 
z
M 738 2988 
L 184 2988 
L 184 3322 
L 1313 3322 
L 1313 2803 
Q 1481 3116 1742 3264 
Q 2003 3413 2388 3413 
Q 3000 3413 3387 2928 
Q 3775 2444 3775 1663 
Q 3775 881 3387 395 
Q 3000 -91 2388 -91 
Q 2003 -91 1742 57 
Q 1481 206 1313 519 
L 1313 -997 
L 1856 -997 
L 1856 -1331 
L 184 -1331 
L 184 -997 
L 738 -997 
L 738 2988 
z
" transform="scale(0.015625)"/>
      <path id="DejaVuSerif-6e" d="M 263 0 
L 263 331 
L 781 331 
L 781 2988 
L 231 2988 
L 231 3322 
L 1356 3322 
L 1356 2731 
Q 1516 3069 1770 3241 
Q 2025 3413 2363 3413 
Q 2913 3413 3172 3097 
Q 3431 2781 3431 2113 
L 3431 331 
L 3944 331 
L 3944 0 
L 2356 0 
L 2356 331 
L 2853 331 
L 2853 1931 
Q 2853 2541 2703 2767 
Q 2553 2994 2175 2994 
Q 1775 2994 1565 2701 
Q 1356 2409 1356 1850 
L 1356 331 
L 1856 331 
L 1856 0 
L 263 0 
z
" transform="scale(0.015625)"/>
      <path id="DejaVuSerif-73" d="M 359 184 
L 359 959 
L 691 959 
Q 703 588 923 403 
Q 1144 219 1575 219 
Q 1963 219 2166 364 
Q 2369 509 2369 788 
Q 2369 1006 2220 1140 
Q 2072 1275 1594 1428 
L 1178 1569 
Q 750 1706 558 1912 
Q 366 2119 366 2438 
Q 366 2894 700 3153 
Q 1034 3413 1625 3413 
Q 1888 3413 2178 3344 
Q 2469 3275 2778 3144 
L 2778 2419 
L 2447 2419 
Q 2434 2741 2221 2922 
Q 2009 3103 1644 3103 
Q 1281 3103 1095 2975 
Q 909 2847 909 2591 
Q 909 2381 1050 2254 
Q 1191 2128 1613 1997 
L 2069 1856 
Q 2541 1709 2748 1489 
Q 2956 1269 2956 922 
Q 2956 450 2595 179 
Q 2234 -91 1600 -91 
Q 1278 -91 972 -22 
Q 666 47 359 184 
z
" transform="scale(0.015625)"/>
      <path id="DejaVuSerif-69" d="M 622 4353 
Q 622 4497 726 4603 
Q 831 4709 978 4709 
Q 1122 4709 1226 4603 
Q 1331 4497 1331 4353 
Q 1331 4206 1228 4103 
Q 1125 4000 978 4000 
Q 831 4000 726 4103 
Q 622 4206 622 4353 
z
M 1356 331 
L 1900 331 
L 1900 0 
L 231 0 
L 231 331 
L 781 331 
L 781 2988 
L 231 2988 
L 231 3322 
L 1356 3322 
L 1356 331 
z
" transform="scale(0.015625)"/>
      <path id="DejaVuSerif-7a" d="M 256 0 
L 256 269 
L 2338 2988 
L 691 2988 
L 691 2413 
L 359 2413 
L 359 3322 
L 3078 3322 
L 3078 3053 
L 997 331 
L 2803 331 
L 2803 934 
L 3138 934 
L 3138 0 
L 256 0 
z
" transform="scale(0.015625)"/>
      <path id="DejaVuSerif-61" d="M 2547 1044 
L 2547 1747 
L 1806 1747 
Q 1378 1747 1168 1562 
Q 959 1378 959 997 
Q 959 650 1171 447 
Q 1384 244 1747 244 
Q 2106 244 2326 466 
Q 2547 688 2547 1044 
z
M 3122 2075 
L 3122 331 
L 3634 331 
L 3634 0 
L 2547 0 
L 2547 359 
Q 2356 128 2106 18 
Q 1856 -91 1522 -91 
Q 969 -91 644 203 
Q 319 497 319 997 
Q 319 1513 691 1797 
Q 1063 2081 1741 2081 
L 2547 2081 
L 2547 2309 
Q 2547 2688 2317 2895 
Q 2088 3103 1672 3103 
Q 1328 3103 1125 2947 
Q 922 2791 872 2484 
L 575 2484 
L 575 3156 
Q 875 3284 1158 3348 
Q 1441 3413 1709 3413 
Q 2400 3413 2761 3070 
Q 3122 2728 3122 2075 
z
" transform="scale(0.015625)"/>
      <path id="DejaVuSerif-64" d="M 3359 331 
L 3909 331 
L 3909 0 
L 2784 0 
L 2784 519 
Q 2616 206 2355 57 
Q 2094 -91 1709 -91 
Q 1097 -91 708 395 
Q 319 881 319 1663 
Q 319 2444 706 2928 
Q 1094 3413 1709 3413 
Q 2094 3413 2355 3264 
Q 2616 3116 2784 2803 
L 2784 4531 
L 2241 4531 
L 2241 4863 
L 3359 4863 
L 3359 331 
z
M 2784 1497 
L 2784 1825 
Q 2784 2422 2554 2737 
Q 2325 3053 1888 3053 
Q 1444 3053 1217 2703 
Q 991 2353 991 1663 
Q 991 975 1217 622 
Q 1444 269 1888 269 
Q 2325 269 2554 583 
Q 2784 897 2784 1497 
z
" transform="scale(0.015625)"/>
      <path id="DejaVuSerif-75" d="M 2266 3322 
L 3341 3322 
L 3341 331 
L 3884 331 
L 3884 0 
L 2766 0 
L 2766 588 
Q 2606 256 2353 82 
Q 2100 -91 1766 -91 
Q 1213 -91 952 223 
Q 691 538 691 1209 
L 691 2988 
L 172 2988 
L 172 3322 
L 1269 3322 
L 1269 1388 
Q 1269 781 1417 556 
Q 1566 331 1947 331 
Q 2347 331 2556 625 
Q 2766 919 2766 1478 
L 2766 2988 
L 2266 2988 
L 2266 3322 
z
" transform="scale(0.015625)"/>
     </defs>
     <use xlink:href="#DejaVuSerif-56"/>
     <use xlink:href="#DejaVuSerif-65" x="63.091797"/>
     <use xlink:href="#DejaVuSerif-72" x="122.271484"/>
     <use xlink:href="#DejaVuSerif-74" x="170.074219"/>
     <use xlink:href="#DejaVuSerif-65" x="210.259766"/>
     <use xlink:href="#DejaVuSerif-78" x="269.439453"/>
     <use xlink:href="#DejaVuSerif-20" x="325.835938"/>
     <use xlink:href="#DejaVuSerif-63" x="357.623047"/>
     <use xlink:href="#DejaVuSerif-6f" x="413.628906"/>
     <use xlink:href="#DejaVuSerif-6d" x="473.833984"/>
     <use xlink:href="#DejaVuSerif-70" x="568.658203"/>
     <use xlink:href="#DejaVuSerif-6f" x="632.671875"/>
     <use xlink:href="#DejaVuSerif-6e" x="692.876953"/>
     <use xlink:href="#DejaVuSerif-65" x="757.28125"/>
     <use xlink:href="#DejaVuSerif-6e" x="816.460938"/>
     <use xlink:href="#DejaVuSerif-74" x="880.865234"/>
     <use xlink:href="#DejaVuSerif-20" x="921.050781"/>
     <use xlink:href="#DejaVuSerif-73" x="952.837891"/>
     <use xlink:href="#DejaVuSerif-69" x="1004.15625"/>
     <use xlink:href="#DejaVuSerif-7a" x="1036.138672"/>
     <use xlink:href="#DejaVuSerif-65" x="1088.824219"/>
     <use xlink:href="#DejaVuSerif-73" x="1148.003906"/>
     <use xlink:href="#DejaVuSerif-20" x="1199.322266"/>
     <use xlink:href="#DejaVuSerif-69" x="1231.109375"/>
     <use xlink:href="#DejaVuSerif-6e" x="1263.091797"/>
     <use xlink:href="#DejaVuSerif-20" x="1327.496094"/>
     <use xlink:href="#DejaVuSerif-72" x="1359.283203"/>
     <use xlink:href="#DejaVuSerif-61" x="1407.085938"/>
     <use xlink:href="#DejaVuSerif-6e" x="1466.705078"/>
     <use xlink:href="#DejaVuSerif-64" x="1531.109375"/>
     <use xlink:href="#DejaVuSerif-6f" x="1595.123047"/>
     <use xlink:href="#DejaVuSerif-6d" x="1655.328125"/>
     <use xlink:href="#DejaVuSerif-20" x="1750.152344"/>
     <use xlink:href="#DejaVuSerif-61" x="1781.939453"/>
     <use xlink:href="#DejaVuSerif-75" x="1841.558594"/>
     <use xlink:href="#DejaVuSerif-74" x="1905.962891"/>
     <use xlink:href="#DejaVuSerif-6f" x="1946.148438"/>
     <use xlink:href="#DejaVuSerif-6d" x="2006.353516"/>
     <use xlink:href="#DejaVuSerif-61" x="2101.177734"/>
     <use xlink:href="#DejaVuSerif-74" x="2160.796875"/>
     <use xlink:href="#DejaVuSerif-61" x="2200.982422"/>
    </g>
   </g>
   <g id="legend_1">
    <g id="patch_81">
     <path d="M 337.866142 62.014421 
L 425.866142 62.014421 
L 425.866142 21.637858 
L 337.866142 21.637858 
z
" style="fill: #ffffff; stroke: #000000; stroke-linejoin: miter"/>
    </g>
    <g id="patch_82">
     <path d="M 345.866142 37.236296 
L 365.866142 37.236296 
L 365.866142 30.236296 
L 345.866142 30.236296 
z
" style="stroke: #000000; stroke-linejoin: miter"/>
    </g>
    <g id="text_15">
     <!-- emp -->
     <g transform="translate(373.866142 37.236296) scale(0.1 -0.1)">
      <use xlink:href="#DejaVuSerif-65"/>
      <use xlink:href="#DejaVuSerif-6d" x="59.179688"/>
      <use xlink:href="#DejaVuSerif-70" x="154.003906"/>
     </g>
    </g>
    <g id="line2d_24">
     <path d="M 345.866142 48.414421 
L 355.866142 48.414421 
L 365.866142 48.414421 
" style="fill: none; stroke: #e36f47; stroke-width: 1.25; stroke-linejoin: miter"/>
    </g>
    <g id="text_16">
     <!-- $1-p_{small}$ -->
     <g transform="translate(373.866142 51.914421) scale(0.1 -0.1)">
      <defs>
       <path id="DejaVuSans-31" d="M 794 531 
L 1825 531 
L 1825 4091 
L 703 3866 
L 703 4441 
L 1819 4666 
L 2450 4666 
L 2450 531 
L 3481 531 
L 3481 0 
L 794 0 
L 794 531 
z
" transform="scale(0.015625)"/>
       <path id="DejaVuSans-2212" d="M 678 2272 
L 4684 2272 
L 4684 1741 
L 678 1741 
L 678 2272 
z
" transform="scale(0.015625)"/>
       <path id="DejaVuSans-Oblique-70" d="M 3175 2156 
Q 3175 2616 2975 2859 
Q 2775 3103 2400 3103 
Q 2144 3103 1911 2972 
Q 1678 2841 1497 2591 
Q 1319 2344 1212 1994 
Q 1106 1644 1106 1300 
Q 1106 863 1306 627 
Q 1506 391 1875 391 
Q 2147 391 2380 519 
Q 2613 647 2778 891 
Q 2956 1147 3065 1494 
Q 3175 1841 3175 2156 
z
M 1394 2969 
Q 1625 3272 1939 3428 
Q 2253 3584 2638 3584 
Q 3175 3584 3472 3232 
Q 3769 2881 3769 2247 
Q 3769 1728 3584 1258 
Q 3400 788 3053 416 
Q 2822 169 2531 39 
Q 2241 -91 1919 -91 
Q 1547 -91 1294 64 
Q 1041 219 916 525 
L 556 -1331 
L -19 -1331 
L 922 3500 
L 1497 3500 
L 1394 2969 
z
" transform="scale(0.015625)"/>
       <path id="DejaVuSans-Oblique-73" d="M 3200 3397 
L 3091 2853 
Q 2863 2978 2609 3040 
Q 2356 3103 2088 3103 
Q 1634 3103 1373 2948 
Q 1113 2794 1113 2528 
Q 1113 2219 1719 2053 
Q 1766 2041 1788 2034 
L 1972 1978 
Q 2547 1819 2739 1644 
Q 2931 1469 2931 1166 
Q 2931 609 2489 259 
Q 2047 -91 1331 -91 
Q 1053 -91 747 -37 
Q 441 16 72 128 
L 184 722 
Q 500 559 806 475 
Q 1113 391 1394 391 
Q 1816 391 2080 572 
Q 2344 753 2344 1031 
Q 2344 1331 1650 1516 
L 1591 1531 
L 1394 1581 
Q 956 1697 753 1886 
Q 550 2075 550 2369 
Q 550 2928 970 3256 
Q 1391 3584 2113 3584 
Q 2397 3584 2667 3537 
Q 2938 3491 3200 3397 
z
" transform="scale(0.015625)"/>
       <path id="DejaVuSans-Oblique-6d" d="M 5747 2113 
L 5338 0 
L 4763 0 
L 5166 2094 
Q 5191 2228 5203 2325 
Q 5216 2422 5216 2491 
Q 5216 2772 5059 2928 
Q 4903 3084 4622 3084 
Q 4203 3084 3875 2770 
Q 3547 2456 3450 1953 
L 3066 0 
L 2491 0 
L 2900 2094 
Q 2925 2209 2937 2307 
Q 2950 2406 2950 2484 
Q 2950 2769 2794 2926 
Q 2638 3084 2363 3084 
Q 1938 3084 1609 2770 
Q 1281 2456 1184 1953 
L 800 0 
L 225 0 
L 909 3500 
L 1484 3500 
L 1375 2956 
Q 1609 3263 1923 3423 
Q 2238 3584 2597 3584 
Q 2978 3584 3223 3384 
Q 3469 3184 3519 2828 
Q 3781 3197 4126 3390 
Q 4472 3584 4856 3584 
Q 5306 3584 5551 3325 
Q 5797 3066 5797 2591 
Q 5797 2488 5784 2364 
Q 5772 2241 5747 2113 
z
" transform="scale(0.015625)"/>
       <path id="DejaVuSans-Oblique-61" d="M 3438 1997 
L 3047 0 
L 2472 0 
L 2578 531 
Q 2325 219 2001 64 
Q 1678 -91 1281 -91 
Q 834 -91 548 182 
Q 263 456 263 884 
Q 263 1497 752 1853 
Q 1241 2209 2100 2209 
L 2900 2209 
L 2931 2363 
Q 2938 2388 2941 2417 
Q 2944 2447 2944 2509 
Q 2944 2788 2717 2942 
Q 2491 3097 2081 3097 
Q 1800 3097 1504 3025 
Q 1209 2953 897 2809 
L 997 3341 
Q 1322 3463 1633 3523 
Q 1944 3584 2234 3584 
Q 2853 3584 3176 3315 
Q 3500 3047 3500 2534 
Q 3500 2431 3484 2292 
Q 3469 2153 3438 1997 
z
M 2816 1759 
L 2241 1759 
Q 1534 1759 1195 1570 
Q 856 1381 856 984 
Q 856 709 1029 553 
Q 1203 397 1509 397 
Q 1978 397 2328 733 
Q 2678 1069 2791 1631 
L 2816 1759 
z
" transform="scale(0.015625)"/>
       <path id="DejaVuSans-Oblique-6c" d="M 1172 4863 
L 1747 4863 
L 800 0 
L 225 0 
L 1172 4863 
z
" transform="scale(0.015625)"/>
      </defs>
      <use xlink:href="#DejaVuSans-31" transform="translate(0 0.09375)"/>
      <use xlink:href="#DejaVuSans-2212" transform="translate(83.105469 0.09375)"/>
      <use xlink:href="#DejaVuSans-Oblique-70" transform="translate(186.376953 0.09375)"/>
      <use xlink:href="#DejaVuSans-Oblique-73" transform="translate(249.853516 -16.3125) scale(0.7)"/>
      <use xlink:href="#DejaVuSans-Oblique-6d" transform="translate(286.323242 -16.3125) scale(0.7)"/>
      <use xlink:href="#DejaVuSans-Oblique-61" transform="translate(354.511719 -16.3125) scale(0.7)"/>
      <use xlink:href="#DejaVuSans-Oblique-6c" transform="translate(397.407227 -16.3125) scale(0.7)"/>
      <use xlink:href="#DejaVuSans-Oblique-6c" transform="translate(416.855469 -16.3125) scale(0.7)"/>
     </g>
    </g>
   </g>
  </g>
 </g>
 <defs>
  <clipPath id="pac44dbfd09">
   <rect x="43.377901" y="16.637858" width="387.48824" height="240.552283"/>
  </clipPath>
 </defs>
</svg>
